<svg xmlns="http://www.w3.org/2000/svg" xmlns:vectornator="http://vectornator.io" viewBox="0 0 297.675 209.79" fill-rule="evenodd" clip-rule="evenodd" stroke-linecap="round" stroke-linejoin="round"><path d="M137.516 66.591c-3.978 0-7.254 3.277-7.254 7.255 0 3.128 2.036 5.793 4.836 6.801v5.536c-1.535.315-2.947.955-4.213 1.795l-5.63-5.63a4.82 4.82 0 00.17-1.247 4.836 4.836 0 10-4.836 4.836c.421-.002.84-.06 1.246-.17l5.63 5.63a11.954 11.954 0 00-1.775 4.213h-4.95c-1.009-2.8-3.673-4.836-6.802-4.836-3.978 0-7.255 3.276-7.255 7.255 0 3.978 3.277 7.254 7.255 7.254 3.129 0 5.793-2.036 6.802-4.836h4.95a11.953 11.953 0 001.775 4.213l-5.63 5.63a4.812 4.812 0 00-1.246-.17 4.836 4.836 0 104.836 4.837 4.813 4.813 0 00-.17-1.247l5.63-5.63c1.266.839 2.678 1.479 4.213 1.794v5.536c-2.8 1.008-4.836 3.673-4.836 6.801 0 3.978 3.276 7.255 7.254 7.255 3.979 0 7.255-3.277 7.255-7.255 0-3.128-2.036-5.793-4.836-6.801v-5.536c1.53-.314 2.94-.949 4.203-1.785l5.64 5.64a4.85 4.85 0 00-.17 1.228 4.836 4.836 0 109.673 0 4.836 4.836 0 00-6.102-4.667l-5.621-5.621a11.952 11.952 0 001.785-4.222h5.555c1.008 2.8 3.673 4.836 6.801 4.836 3.978 0 7.255-3.276 7.255-7.254 0-3.978-3.277-7.255-7.255-7.255-3.128 0-5.793 2.036-6.801 4.836h-5.555a11.938 11.938 0 00-1.776-4.213l5.64-5.63c.403.11.819.167 1.237.17a4.836 4.836 0 10-4.836-4.836c.002.421.059.84.17 1.247l-5.63 5.63c-1.266-.84-2.679-1.48-4.213-1.795v-5.536c2.8-1.008 4.836-3.673 4.836-6.801 0-3.978-3.276-7.255-7.255-7.255zm0 4.837a2.383 2.383 0 012.419 2.418 2.383 2.383 0 01-2.419 2.418 2.382 2.382 0 01-2.418-2.418 2.382 2.382 0 012.418-2.418zM113.938 95.61a2.383 2.383 0 012.419 2.419 2.383 2.383 0 01-2.419 2.418 2.383 2.383 0 01-2.418-2.418 2.382 2.382 0 012.418-2.419zm47.761 0a2.382 2.382 0 012.418 2.419 2.383 2.383 0 01-2.418 2.418 2.383 2.383 0 01-2.418-2.418 2.382 2.382 0 012.418-2.419zm-24.183 24.183a2.383 2.383 0 012.419 2.418 2.383 2.383 0 01-2.419 2.419 2.383 2.383 0 01-2.418-2.419 2.382 2.382 0 012.418-2.418z" fill="#fff" vectornator:layerName="Layer 1"/></svg>