<svg xmlns="http://www.w3.org/2000/svg" viewBox="0 0 50 50"><path d="M24.8.9c-3 0-5.6 2.5-5.6 5.6 0 2.4 1.6 4.4 3.7 5.2v4.2c-1.2.2-2.3.7-3.2 1.4L15.4 13c.1-.3.1-.6.1-1 0-2-1.7-3.7-3.7-3.7S8.1 10 8.1 12s1.7 3.7 3.7 3.7c.3 0 .6 0 1-.1l4.3 4.3c-.6 1-1.1 2.1-1.4 3.2h-3.8c-.8-2.1-2.8-3.7-5.2-3.7-3 0-5.6 2.5-5.6 5.6 0 3 2.5 5.6 5.6 5.6 2.4 0 4.4-1.6 5.2-3.7h3.8c.2 1.2.7 2.3 1.4 3.2l-4.3 4.3c-.3-.1-.6-.1-1-.1-2 0-3.7 1.7-3.7 3.7s1.7 3.7 3.7 3.7 3.7-1.7 3.7-3.7c0-.3 0-.6-.1-1l4.3-4.3c1 .6 2.1 1.1 3.2 1.4v4.2c-2.1.8-3.7 2.8-3.7 5.2 0 3 2.5 5.6 5.6 5.6 3 0 5.6-2.5 5.6-5.6 0-2.4-1.6-4.4-3.7-5.2v-4.2c1.2-.2 2.3-.7 3.2-1.4l4.3 4.3c-.1.3-.2.7-.2 1 0 2 1.7 3.7 3.7 3.7s3.7-1.7 3.7-3.7-1.7-3.7-3.7-3.7c-.3 0-.7 0-1 .1l-4.3-4.3c.6-1 1.1-2.1 1.4-3.2h4.3c.8 2.1 2.8 3.7 5.2 3.7 3 0 5.6-2.5 5.6-5.6 0-3-2.5-5.6-5.6-5.6-2.4 0-4.4 1.6-5.2 3.7h-4.3c-.2-1.2-.7-2.3-1.4-3.2l4.3-4.3c.3.1.6.1.9.1 2 0 3.7-1.7 3.7-3.7s-1.7-3.7-3.7-3.7-3.7 1.7-3.7 3.7c0 .3 0 .6.1 1l-4.3 4.3c-1-.6-2.1-1.1-3.2-1.4v-4.2c2.1-.8 3.7-2.8 3.7-5.2.1-3.1-2.4-5.6-5.4-5.6zm0 3.7c1 0 1.9.8 1.9 1.9 0 1-.8 1.9-1.9 1.9-1 0-1.9-.8-1.9-1.9 0-1.1.8-1.9 1.9-1.9zM6.7 23.1c1 0 1.9.8 1.9 1.9 0 1-.8 1.9-1.9 1.9-1 0-1.9-.8-1.9-1.9 0-1 .9-1.9 1.9-1.9zm36.6 0c1 0 1.9.8 1.9 1.9 0 1-.8 1.9-1.9 1.9-1 0-1.9-.8-1.9-1.9 0-1 .9-1.9 1.9-1.9zM24.8 41.7c1 0 1.9.8 1.9 1.9 0 1-.8 1.9-1.9 1.9-1 0-1.9-.8-1.9-1.9 0-1.1.8-1.9 1.9-1.9z" fill="#fff"/></svg>