<svg version="1.0" xmlns="http://www.w3.org/2000/svg" width="677.333" height="677.333" viewBox="0 0 508 508"><g fill="#fff"><path d="M0 254v254h508V0H0v254zM110.7 43.2c6.1 4 8.4 9.7 9 22.1.4 9.3.2 10.6-1.9 14.7-1.3 2.5-3.7 5.4-5.5 6.6l-3.2 2.1 3.7 2.4c6.7 4.4 7.7 7.5 7.7 23.4 0 12.9-.2 14.4-2.5 19-3.7 7.5-9.6 10.7-20.5 11.3-7.3.4-9 .1-13.7-2.1-9.3-4.2-11.8-9.7-11.8-25.8V106h15v6.7c.1 8.1 1.3 14 3.4 16.1 2.4 2.5 8.5 2 10.7-.7 1.6-2 1.9-4.1 1.9-15.1 0-12.7 0-12.9-2.6-14.9-2-1.5-4.1-2.1-8-2.1H87V83h3.9c5 0 9.9-1.8 11.1-4 .6-1 1-6 1-11 0-8.4-.2-9.3-2.6-11.7-2-2-3.1-2.4-5.7-1.9-1.7.4-3.5 1-4 1.5C89.4 57.2 88 64 88 69.8v5.3l-7.7-.3-7.8-.3.2-8c.3-10.3 1.8-15.6 5.7-20 4.3-5 9.3-6.6 19.7-6.3 7.4.3 9.1.7 12.6 3zm63.3-.7c1.7 1.8 2.5 4 2.8 8l.4 5.5h-3.5c-3.6 0-3.6 0-3.9-4.7-.2-3.7-.7-4.9-2.1-5.1-4.1-.8-4.7 1.3-4.7 15.8 0 14.7.7 16.9 5 15.5 1.7-.5 2-1.5 2-6.1V66h7v5c0 5.6-2 10.4-4.9 12-4.9 2.5-12.8.2-14.9-4.5-.7-1.6-1.2-7.9-1.2-16.6 0-18.8 1.5-21.8 11.1-21.9 3.6 0 5 .5 6.9 2.5zm14.2 16.2l.3 18.8 4.3.3c4 .3 4.3.5 4 3-.3 2.6-.5 2.7-8 3l-7.8.3V40h7l.2 18.7zM207 62v22h-7V40h7v22zm13.8-17.3c.6 2.7 1.6 7.9 2.3 11.6 1.5 7.9 2.2 7.2 3.8-3.8 2-13.1 1.7-12.5 6.7-12.5h4.4v44h-6l-.1-13.3c0-14.9-.8-14.5-3.4 1.7-1.2 6.9-2.3 11-3.2 11.3-.8.3-1.6.3-1.9 0-.3-.2-1.5-5.8-2.7-12.3l-2.2-11.9-.5 12-.5 12-2.7.3-2.8.3V40h3.9c3.9 0 3.9.1 4.9 4.7zm40.7 16c2.1 11.5 3.8 21.2 3.9 21.8 0 .5-1.5 1-3.4 1-3.1 0-3.5-.3-4.3-3.8-.8-3.5-1.1-3.7-4.7-3.7s-3.8.1-4.4 4.1c-.6 3.8-.8 4-3.9 3.7-1.7-.2-3.1-.8-3.1-1.3.1-.6 1.8-10.3 3.9-21.8l3.9-20.7h8.2l3.9 20.7zM284 43c0 2.7-.3 3-3 3h-3v38h-7V46h-3c-2.7 0-3-.3-3-3v-3h19v3zm21 0c0 2.9-.1 3-5 3h-5v13h3.5c3.1 0 3.5.3 3.5 2.5s-.4 2.5-3.5 2.5H295v14h5.1c4.9 0 5 .1 4.7 2.7l-.3 2.8h-17l-.3-20.5c-.1-11.2 0-21 .2-21.7.4-.9 3.1-1.3 9.1-1.3h8.5v3zM62 92.5V144H45V65.2l-6 6.1-6 6.2V58.9l7.7-8.9 7.7-9H62v51.5zm137.6 10.6c1.9 1.8 2.4 3.3 2.4 7.6 0 5.2 0 5.3-3 5.3-2.7 0-3-.3-3-3.4 0-4.4-2.4-7-5.1-5.5-1.8.9-1.9 2-1.7 15.7.3 14.6.3 14.7 2.7 15 3.1.5 4.1-1.2 4.1-7.1 0-4.6.1-4.7 3-4.7h3v6.3c0 7.4-1.6 10.2-6.5 11.6-4.7 1.3-9.8-.3-12.1-3.7-1.6-2.3-1.9-4.7-1.9-17.7 0-10.6.4-15.7 1.3-17.3 3-5.3 12.2-6.4 16.8-2.1zm54.8-2.1c1.4.5 3.5 2.4 4.6 4.2 1.7 2.9 2 5.1 2 17.1 0 18.2-1.7 21.8-10.9 21.9-9.5.1-11.3-3.8-10.9-22.7.3-12.7.5-14.7 2.4-17.2 2.9-3.8 8-5.2 12.8-3.3zm-83 1.7c.6 2.2 7.6 39.2 7.6 40.4 0 .5-1.5.9-3.4.9-3.6 0-4.6-1.2-4.6-5.6 0-2.1-.4-2.4-3.9-2.4-4.1 0-5.1 1.1-5.1 5.6 0 2.1-.5 2.4-3.5 2.4-1.9 0-3.5-.3-3.5-.7 0-1.1 7-38.6 7.6-40.6.4-1.2 1.6-1.7 4.4-1.7 2.8 0 4 .5 4.4 1.7zM224 104c0 2.7-.3 3-3 3h-3v37h-7v-37h-3c-2.7 0-3-.3-3-3v-3h19v3zm11 18.5V144h-7v-43h7v21.5zm41.2-9.7l3.7 11.7v-11.8l.1-11.7h6v43.1l-3.2-.3c-3.2-.3-3.2-.4-7.4-13.3l-4.2-13-.1 13.2-.1 13.3h-6v-43h7.5l3.7 11.8zM291 226.4c51.2 8.1 93.7 29.1 129.9 64.1 9.3 9 26.1 28.5 26.1 30.3 0 1.5-14.9 19.1-23.5 27.8-37.7 37.8-88.5 61.9-142.4 67.5-14.2 1.5-47.2.6-59.6-1.5-59-10.1-110-39.8-146.8-85.5l-6.7-8.3 4.1-5.2c32.1-40.7 70.8-67.1 119.9-82 13.4-4.1 26.6-6.5 49-9 7.3-.9 40.9.4 50 1.8z"/><path d="M252.8 56.2c-.4.9-1 4.4-1.4 7.7l-.7 6.1h2.7c2.5 0 2.6-.2 2.1-3.3-.3-1.7-.9-5.2-1.3-7.7-.5-3-1-3.9-1.4-2.8zm-3.9 50.5c-1 .2-2 1.4-2.3 2.6-1 3.7-.7 24.7.4 26.8 1.3 2.3 5.5 2.5 6.4.3.3-.9.6-7.3.6-14.4 0-10.4-.3-13.2-1.6-14.4-.8-.9-1.6-1.5-1.7-1.5-.1.1-.9.3-1.8.6zm-83.3 12.2c-.4 3-1 6.7-1.3 8.2-.5 2.6-.3 2.9 2.2 2.9 2.7 0 2.7 0 2.1-5.4-.4-3-1.1-6.7-1.5-8.2-.7-2.6-.8-2.4-1.5 2.5zM248 242.6c-11.6 2.3-28 8.1-30.9 10.9-.2.3 4.3.4 10.1.2 11.7-.2 13.8.6 13.8 5.5 0 2.1 1 3.9 3.6 6.2l3.7 3.4-3.9 2.4c-5.3 3.4-10.1 5.8-11.4 5.8-2.4 0-.7-2.8 3-4.9 5.4-3 5.2-4.5-.7-3.8-22.4 2.5-27.1 3.8-29.6 7.9-1.6 2.4.6 4.5 6.6 6.3 5.5 1.6 5.2 1.7 12-3.7 2.1-1.7 3-1.9 3.9-1 1.4 1.4-.8 4.2-5.7 7.2-2.6 1.6-3.8 1.8-6.6 1-5.4-1.6-9.1-1.2-14.7 1.6-4.1 2-5.2 3.1-5.2 4.9 0 3.1-1.5 3.9-6.8 3.6-6.1-.4-8.9 2.6-6.3 6.8.8 1.2 2.1 1.1 8.3-.9 4-1.2 8.2-2.9 9.3-3.6 3.2-2.2 4.3-1.7 7.6 3.6 1.7 2.7 3.3 5 3.5 5 .3 0 .2-1.7-.2-3.8l-.7-3.7 2.7 2.5c1.8 1.7 3.6 2.4 5.5 2.2 4-.4 4.8 2.2 1.6 5.4-3 3-7.6 3.1-14 .4-7.1-3-16.4-5.2-19.5-4.5-1.8.4-3.8 2.1-5.4 4.5-2.2 3.4-2.6 5.1-2.6 11.5 0 12.4 4.3 29.6 7.6 30.9.8.3 3.3-.3 5.4-1.4 2.2-1.1 4.4-2 5.1-2 2.1 0 6.9 4.2 6.9 6.1 0 1.4.7 1.9 2.5 1.9 2.1 0 2.6.6 3.1 4.1.4 2.2 1.2 4.3 1.9 4.6.7.2 1.6 3 2 6.1.4 3.1 1.1 6.5 1.6 7.4 1.2 2.3 5 2.3 9.2.1 3.9-2 5.2-3.6 7.3-9.3 1-2.5 2.5-5.4 3.5-6.5 2.1-2.4 3.9-8.7 3.9-13.7 0-2.9.8-4.7 3.5-7.7 4.4-4.8 4.5-8 .5-10.5-1.7-.9-4.1-2.9-5.4-4.3-2.6-2.8-4.9-10-3.6-10.8.5-.3 2.8 1.7 5.2 4.5 2.4 2.8 5.1 5.3 6 5.6 2.4.7 8.4-2.1 9.8-4.5 1.4-2.7.5-4.3-6.4-11.1-5-4.8-6.9-8-4.9-8 .4 0 2.3 1.1 4.2 2.3 2 1.3 4.9 3.2 6.4 4.1 1.6 1 3.5 3.2 4.2 4.9 1.8 4.4 4 6.1 10.3 8.2 3 .9 6.9 3 8.7 4.6 1.8 1.6 3.7 2.9 4.2 2.9 1.6 0 4.3-5.8 4.3-9.4 0-2.5.6-3.8 2-4.6 3.3-1.8 5.5.4 9 9.1 2.8 6.8 4.1 8.7 8.2 12 2.8 2.1 5.6 3.9 6.4 3.9 2 0 1.7-3-.6-6.5-4.1-6.3-1.8-12 6.4-15.4 3.1-1.2 5.6-2.8 5.6-3.3 0-.6-.5-2.8-1.2-5-1.5-5.2.1-7.2 3.5-4 3.2 3 7.4 2.9 8.8-.2 2.3-4.9-5.4-23.2-14.6-34.8-9.6-12.2-26.1-23-41.2-26.9-7.5-1.9-25.2-3.3-30.3-2.3z"/><path d="M200.5 264.8c-1.9 1.3-5.5 6.5-5.5 7.8 0 1.8 3.4 1.8 7-.1 3-1.5 4.8-5.4 3.5-7.4-.7-1.3-3.5-1.4-5-.3zm-6.3 12.9c-2.2.4-5.4 4.7-8 10.6-1.5 3.4-1.5 3.7-.2 3.7.6 0 3.2-1.9 5.8-4.3 2.6-2.4 6-5.1 7.5-6.1 2.3-1.4 2.6-2 1.6-3.2-1.1-1.4-2.3-1.5-6.7-.7zm135.8 34c0 .5.4 1.4.9 2.2.6 1 .4 2.5-.6 4.5-1 1.9-1.4 4.5-1 7.2.5 5 4.5 12 5.9 10.6.5-.5 1.2-5.2 1.5-10.3.5-8.6.3-9.6-1.7-12.2-2-2.5-5-3.7-5-2zm-57.5 17.9c-.9.9-1.3 2-.8 2.5 1.5 1.4 5.8 1.9 7.3.9 1.3-.9 1.2-1.3-.9-3-2.8-2.4-3.5-2.5-5.6-.4zm39.5-.3c0 1.9 2.1 3.7 4.2 3.7 2.2 0 2.3-1.3.2-3.4-1.9-1.9-4.4-2.1-4.4-.3zm3.3 8.3c-.7 1.9 1.3 3.4 4.4 3.4 2.8 0 3.8-1.7 2.3-3.5-1.7-2-5.9-1.9-6.7.1zm9.1 5.9c-2.1 1.2-8.4 3.5-13.9 4.9-11 3-13.6 4.8-16 11.1-1.5 3.9-1.5 4.6 0 10.1 2.2 7.5 2.8 8.1 5.9 6 3-1.9 4.6-2.1 4.6-.3 0 2.1 8.5 1.4 11-.8 3.6-3.3 8.6-10.6 12.5-18.3 3.3-6.6 3.5-7.6 2.5-10.7-.6-1.9-1.5-3.7-1.9-3.9-.4-.3-2.5.6-4.7 1.9zm-80.3.4c-1.1 1.1-2.2 4-2.6 6.8-.3 2.6-.8 5.7-1 6.8-.2 1.1 0 2.7.5 3.4.9 1.6 1.5.4 6-11.1 2.8-7.4 1.4-10.2-2.9-5.9zm49.4 39.3c-1.6.6-4.6 2.3-6.5 3.8-1.9 1.5-4 2.9-4.6 3.3-.6.3-5.3-.8-10.5-2.5-10.7-3.5-21.8-4.6-27.2-2.9-4.9 1.7-9.7 6.3-9.7 9.4 0 2.2.7 2.7 5.3 3.9 7.7 2 29.6 1.7 37.7-.6 10.3-2.8 28.6-12.3 26.9-14-1.1-1.2-8.6-1.5-11.4-.4z"/></g></svg>