<?xml version="1.0" standalone="no"?>
<!DOCTYPE svg PUBLIC "-//W3C//DTD SVG 20010904//EN"
 "http://www.w3.org/TR/2001/REC-SVG-20010904/DTD/svg10.dtd">
<svg version="1.0" xmlns="http://www.w3.org/2000/svg"
 width="512.000000pt" height="511.000000pt" viewBox="0 0 512.000000 511.000000"
 preserveAspectRatio="xMidYMid meet">

<g transform="translate(0.000000,511.000000) scale(0.100000,-0.100000)"
fill="#000000" stroke="none">
<path d="M0 2555 l0 -2555 2560 0 2560 0 0 2555 0 2555 -2560 0 -2560 0 0
-2555z m1846 2112 c21 -25 24 -38 24 -107 0 -44 -5 -90 -11 -103 -13 -29 -48
-47 -89 -47 l-29 0 -3 -72 -3 -73 -35 0 -35 0 -3 219 -2 218 81 -4 c74 -3 83
-6 105 -31z m228 -174 c21 -115 39 -212 40 -218 0 -5 -15 -10 -34 -10 -31 0
-35 3 -43 38 -8 35 -11 37 -47 37 -36 0 -38 -1 -44 -41 -6 -38 -8 -40 -39 -37
-21 2 -31 8 -30 18 1 8 18 106 39 218 l38 202 41 0 41 0 38 -207z m222 197
c44 -17 53 -38 54 -118 0 -66 -3 -75 -26 -97 l-25 -23 30 -87 c17 -48 31 -91
31 -96 0 -6 -17 -9 -37 -7 l-36 3 -33 95 -32 95 -1 -97 -1 -98 -35 0 -35 0 0
220 0 220 59 0 c33 0 72 -5 87 -10z m274 -20 c0 -27 -3 -30 -30 -30 l-30 0 0
-190 0 -190 -35 0 -35 0 0 190 0 190 -30 0 c-27 0 -30 3 -30 30 l0 30 95 0 95
0 0 -30z m141 -82 l34 -113 5 110 5 110 30 0 30 0 0 -215 0 -215 -31 -3 c-31
-3 -31 -3 -62 95 -17 54 -34 112 -39 128 -6 21 -9 -6 -13 -95 l-5 -125 -30 0
-30 0 -3 205 c-1 112 0 210 2 217 3 7 21 13 39 13 l34 0 34 -112z m319 82 c0
-29 -1 -30 -50 -30 l-50 0 0 -65 0 -65 35 0 c31 0 35 -3 35 -25 0 -22 -4 -25
-35 -25 l-35 0 0 -70 0 -70 50 0 c49 0 50 -1 50 -30 l0 -30 -85 0 -85 0 0 220
0 220 85 0 85 0 0 -30z m189 19 c42 -15 51 -35 51 -119 0 -63 -3 -74 -25 -94
l-25 -24 30 -85 c16 -47 30 -90 30 -96 0 -6 -15 -11 -34 -11 -34 0 -34 0 -69
98 l-36 97 0 -97 -1 -98 -35 0 -35 0 0 220 0 220 59 0 c32 0 72 -5 90 -11z
m246 5 c22 -9 45 -57 45 -94 0 -28 -3 -30 -34 -30 -32 0 -35 3 -38 33 -2 27
-7 32 -28 32 -20 0 -26 -6 -28 -29 -3 -23 6 -38 40 -75 70 -74 79 -87 89 -132
19 -81 -24 -139 -101 -139 -67 0 -99 34 -100 108 0 51 0 52 30 52 27 0 30 -3
30 -33 0 -73 62 -95 68 -24 3 33 -3 43 -51 95 -68 71 -77 89 -77 147 0 63 31
95 94 95 24 0 52 -3 61 -6z m163 -92 l3 -93 32 3 32 3 3 93 3 92 35 0 34 0 -2
-217 -3 -218 -32 -3 -32 -3 -3 98 -3 98 -32 3 -32 3 -3 -98 -3 -98 -35 0 -35
0 -3 218 -2 218 37 -3 38 -3 3 -93z m252 -122 l0 -220 -35 0 -35 0 0 220 0
220 35 0 35 0 0 -220z m196 210 c45 -18 53 -38 54 -132 0 -47 -3 -94 -6 -103
-9 -22 -56 -45 -93 -45 l-30 0 -3 -72 -3 -73 -32 -3 -33 -3 0 220 0 221 59 0
c33 0 72 -5 87 -10z m249 4 c22 -9 45 -57 45 -94 0 -28 -3 -30 -34 -30 -32 0
-35 3 -38 33 -2 27 -7 32 -28 32 -37 0 -41 -53 -5 -86 91 -85 123 -153 104
-221 -20 -76 -137 -93 -186 -29 -7 9 -13 40 -13 69 0 51 0 52 30 52 27 0 30
-3 30 -33 0 -73 62 -95 68 -24 3 33 -3 43 -51 95 -68 71 -77 89 -77 147 0 63
31 95 94 95 24 0 52 -3 61 -6z m-3555 -519 l0 -515 -90 0 -90 0 0 394 0 394
-60 -61 -60 -62 0 93 0 93 77 89 77 90 73 0 73 0 0 -515z m510 438 c1 -67 -15
-138 -112 -515 l-113 -438 -88 0 c-84 0 -88 1 -82 20 8 26 225 860 225 866 0
2 -61 4 -135 4 l-135 0 0 70 0 70 220 0 220 0 0 -77z m741 -529 c47 -24 59
-66 59 -209 0 -176 -20 -216 -109 -217 -95 -1 -113 37 -109 232 3 140 4 150
27 174 35 37 85 45 132 20z m1318 5 c37 -13 61 -53 61 -104 0 -33 -2 -35 -35
-35 -33 0 -35 2 -35 35 0 41 -27 62 -54 42 -14 -11 -16 -31 -14 -157 l3 -145
30 0 c29 0 30 2 33 53 2 42 0 52 -12 52 -11 0 -16 10 -16 30 0 29 1 30 50 30
l50 0 0 -115 0 -115 -25 0 c-17 0 -25 6 -25 17 0 15 -2 15 -17 0 -38 -33 -105
-22 -128 23 -11 22 -15 64 -15 174 0 162 8 192 55 212 37 16 54 17 94 3z m255
1 c14 -5 35 -24 46 -42 17 -29 20 -51 20 -171 0 -182 -17 -218 -109 -219 -95
-1 -113 38 -109 227 3 127 5 147 24 172 29 38 80 52 128 33z m701 -4 c27 -12
36 -23 45 -56 15 -54 8 -70 -30 -70 -26 0 -30 3 -30 29 0 36 -25 59 -48 44
-35 -22 -26 -51 38 -119 34 -37 66 -77 71 -91 14 -37 11 -101 -7 -128 -16 -25
-71 -49 -95 -41 -8 2 -27 7 -42 11 -33 7 -57 54 -57 110 0 33 2 35 35 35 34 0
35 -1 35 -40 0 -44 23 -65 53 -49 36 21 21 65 -48 139 -71 78 -85 115 -65 174
19 59 77 80 145 52z m-2465 -26 c0 -29 -2 -30 -45 -30 l-45 0 0 -60 0 -60 35
0 c32 0 35 -2 35 -30 0 -28 -3 -30 -35 -30 l-35 0 0 -95 0 -95 -40 0 -40 0 0
215 0 215 85 0 85 0 0 -30z m466 6 c25 -21 28 -29 28 -95 1 -67 -1 -74 -27
-97 l-28 -24 31 -86 c16 -47 30 -90 30 -95 0 -5 -15 -9 -34 -9 -37 0 -37 0
-87 145 l-14 40 -3 -92 -3 -93 -34 0 -35 0 0 215 0 215 74 0 c64 0 79 -3 102
-24z m324 -6 c0 -27 -3 -30 -30 -30 l-30 0 0 -185 0 -185 -40 0 -40 0 0 184 0
185 -27 3 c-22 2 -29 9 -31 31 l-3 27 100 0 101 0 0 -30z m100 -60 l0 -90 35
0 35 0 0 90 0 90 40 0 40 0 0 -215 0 -215 -40 0 -40 0 0 95 0 95 -35 0 -35 0
0 -95 0 -95 -35 0 -35 0 0 215 0 215 35 0 35 0 0 -90z m360 60 c0 -29 -1 -30
-50 -30 l-50 0 0 -60 0 -60 35 0 c32 0 35 -2 35 -30 0 -28 -3 -30 -35 -30
l-35 0 0 -65 0 -65 50 0 c49 0 50 -1 50 -30 l0 -30 -85 0 -85 0 0 215 0 215
85 0 85 0 0 -30z m783 -62 c10 -51 28 -148 41 -215 l23 -123 -38 0 c-36 0 -38
2 -44 40 -6 38 -8 40 -45 40 -36 0 -38 -2 -44 -40 -6 -38 -8 -40 -41 -40 -32
0 -35 2 -30 23 7 30 75 393 75 401 0 3 20 6 43 6 l44 0 16 -92z m167 -93 l0
-185 45 0 c43 0 45 -1 45 -30 l0 -30 -80 0 -80 0 0 215 0 215 35 0 35 0 0
-185z m-1240 -811 c182 -61 332 -193 405 -358 l24 -53 61 -7 c34 -4 94 -19
132 -32 199 -72 341 -215 412 -414 29 -79 31 -94 31 -220 -1 -120 -4 -143 -27
-208 -37 -102 -82 -174 -156 -251 l-64 -65 11 -55 c57 -282 -91 -583 -352
-715 -92 -47 -160 -65 -272 -72 -115 -8 -213 12 -320 65 l-80 40 -80 -40
c-118 -58 -186 -72 -324 -67 -181 6 -311 61 -436 184 -164 160 -231 367 -193
595 l11 71 -40 36 c-131 119 -213 305 -213 481 1 333 239 612 566 664 l77 12
18 42 c29 69 82 144 143 205 175 174 436 238 666 162z"/>
<path d="M1740 4555 c0 -83 1 -85 24 -85 30 0 36 16 36 89 0 59 -11 81 -42 81
-16 0 -18 -10 -18 -85z"/>
<path d="M1988 4544 c-4 -6 -10 -41 -14 -77 l-7 -67 27 0 c25 0 26 2 21 33 -3
17 -9 52 -13 77 -4 25 -11 40 -14 34z"/>
<path d="M2220 4570 c0 -61 2 -70 18 -70 29 0 42 21 42 70 0 49 -13 70 -42 70
-16 0 -18 -9 -18 -70z"/>
<path d="M3140 4570 c0 -61 2 -70 18 -70 29 0 42 21 42 70 0 49 -13 70 -42 70
-16 0 -18 -9 -18 -70z"/>
<path d="M4000 4554 l0 -85 28 3 c26 3 27 5 30 71 3 73 -7 97 -39 97 -17 0
-19 -9 -19 -86z"/>
<path d="M1945 4024 c-12 -12 -15 -42 -15 -144 0 -71 3 -135 6 -144 9 -22 51
-20 64 3 12 24 13 231 1 264 -12 31 -36 40 -56 21z"/>
<path d="M3539 4033 c-24 -6 -29 -33 -29 -161 0 -118 9 -152 38 -152 37 0 42
20 42 156 0 107 -3 136 -16 148 -8 9 -16 15 -17 15 -1 -1 -9 -3 -18 -6z"/>
<path d="M2190 3965 l0 -66 28 3 c26 3 27 5 27 63 0 58 -1 60 -27 63 l-28 3 0
-66z"/>
<path d="M3797 3930 c-3 -8 -10 -41 -15 -72 l-9 -58 28 0 c26 0 28 3 23 28 -3
15 -8 47 -13 72 -5 26 -11 39 -14 30z"/>
<path d="M2455 2972 c-33 -10 -82 -28 -109 -42 -65 -31 -173 -135 -212 -202
l-31 -55 71 -21 c149 -43 297 -156 376 -285 19 -31 38 -57 42 -57 4 0 15 15
24 33 69 135 240 268 403 313 l60 17 -16 31 c-56 109 -179 215 -298 257 -84
30 -229 35 -310 11z"/>
<path d="M1829 2521 c-91 -29 -156 -71 -224 -143 -89 -94 -132 -185 -149 -318
-16 -119 42 -297 132 -399 l39 -45 37 57 c49 74 150 167 228 210 66 37 183 77
224 77 23 0 21 5 -30 65 -61 71 -127 200 -147 285 -7 30 -12 94 -13 143 0 100
1 99 -97 68z"/>
<path d="M2060 2464 c0 -175 78 -332 212 -427 80 -57 110 -72 181 -90 l56 -15
7 36 c9 49 -9 175 -35 244 -60 157 -222 293 -383 322 l-38 7 0 -77z"/>
<path d="M3048 2525 c-154 -42 -292 -169 -351 -322 -24 -60 -40 -178 -33 -228
l7 -43 42 9 c80 17 187 78 251 143 104 104 156 229 156 373 0 92 3 89 -72 68z"/>
<path d="M3257 2483 c12 -136 -62 -347 -162 -460 l-46 -52 28 -6 c74 -15 164
-48 223 -82 77 -45 186 -150 225 -218 l29 -48 37 41 c20 23 53 73 73 112 141
267 35 587 -237 720 -45 21 -103 42 -129 46 l-46 6 5 -59z"/>
<path d="M2150 1829 c-152 -17 -301 -113 -383 -245 l-26 -42 50 -21 c27 -12
86 -27 130 -34 190 -27 396 66 504 229 43 65 44 64 -55 93 -76 23 -144 29
-220 20z"/>
<path d="M2880 1833 c-40 -7 -149 -44 -155 -53 -8 -14 74 -128 123 -170 89
-76 235 -130 352 -130 51 0 147 21 203 45 l38 16 -23 42 c-13 23 -51 70 -85
104 -116 116 -293 173 -453 146z"/>
<path d="M2550 1643 c-47 -58 -89 -150 -107 -240 -15 -70 -16 -93 -5 -165 13
-92 67 -215 123 -278 l30 -35 36 40 c43 49 97 162 112 233 31 150 -11 318
-112 445 -17 20 -34 37 -38 37 -4 0 -22 -17 -39 -37z"/>
<path d="M2255 1405 c-129 -61 -339 -72 -470 -25 -33 11 -68 24 -77 27 -16 5
-18 -2 -19 -48 -3 -93 2 -142 17 -199 83 -296 402 -461 688 -357 37 14 73 30
78 35 6 6 -1 22 -20 43 -44 50 -91 135 -120 214 -23 62 -26 85 -27 202 0 73 0
133 0 132 0 0 -22 -11 -50 -24z"/>
<path d="M2878 1328 c2 -56 -1 -129 -8 -162 -14 -75 -74 -204 -123 -269 -21
-26 -37 -49 -37 -52 0 -9 61 -35 117 -50 139 -37 302 -12 420 64 161 104 247
262 246 454 0 48 -2 89 -4 92 -3 2 -39 -8 -80 -22 -67 -25 -87 -27 -214 -27
-144 0 -159 3 -285 57 l-35 15 3 -100z"/>
</g>
</svg>
