<?xml version="1.0" standalone="no"?>
<!DOCTYPE svg PUBLIC "-//W3C//DTD SVG 20010904//EN"
 "http://www.w3.org/TR/2001/REC-SVG-20010904/DTD/svg10.dtd">
<svg version="1.0" xmlns="http://www.w3.org/2000/svg"
 width="512.000000pt" height="512.000000pt" viewBox="0 0 512.000000 512.000000"
 preserveAspectRatio="xMidYMid meet">
<metadata>
Created by potrace 1.15, written by Peter Selinger 2001-2017
</metadata>
<g transform="translate(0.000000,512.000000) scale(0.100000,-0.100000)"
fill="#000000" stroke="none">
<path d="M0 2560 l0 -2560 2560 0 2560 0 0 2560 0 2560 -2560 0 -2560 0 0
-2560z m978 1783 l2 -363 35 0 35 0 0 -70 0 -70 -35 0 -34 0 -3 -82 -3 -83
-80 0 -80 0 -3 83 -3 82 -149 0 -150 0 0 60 c0 55 15 99 148 436 l147 374 85
-2 85 -3 3 -362z m705 346 c45 -20 52 -50 52 -215 0 -146 -1 -153 -23 -177
l-24 -25 24 -4 c17 -2 24 -10 26 -32 3 -25 1 -28 -20 -23 -13 3 -44 9 -70 12
-35 5 -48 12 -48 24 0 9 -13 22 -28 29 -44 19 -52 49 -52 203 0 151 10 192 53
209 31 12 82 12 110 -1z m167 -168 c0 -188 4 -207 47 -199 16 3 18 20 23 188
l5 185 33 3 32 3 0 -191 0 -192 -29 -29 c-31 -31 -76 -38 -125 -19 -48 18 -56
52 -56 250 l0 180 35 0 35 0 0 -179z m325 167 c3 -7 22 -105 43 -216 41 -215
41 -218 -9 -210 -18 2 -26 12 -32 41 -8 35 -11 37 -47 37 -36 0 -38 -2 -44
-40 -6 -36 -9 -40 -36 -40 -16 0 -31 3 -33 8 -4 7 67 392 77 419 7 17 75 17
81 1z m185 -178 l0 -190 46 0 c44 0 45 -1 42 -27 -3 -28 -4 -28 -80 -31 l-78
-3 0 221 0 220 35 0 35 0 0 -190z m190 -30 l0 -220 -35 0 -35 0 0 220 0 220
35 0 35 0 0 -220z m230 190 c0 -27 -3 -30 -30 -30 l-30 0 0 -190 0 -190 -35 0
-35 0 -2 188 -3 187 -27 3 c-24 3 -28 8 -28 33 l0 29 95 0 95 0 0 -30z m99 13
c5 -10 14 -44 21 -75 7 -32 16 -58 20 -58 4 0 16 33 26 73 18 69 20 72 52 75
21 2 32 -1 32 -9 0 -7 -18 -72 -40 -145 -32 -105 -40 -149 -40 -209 l0 -76
-32 3 -33 3 -6 100 c-6 92 -15 133 -73 313 -7 20 -4 22 28 22 23 0 38 -6 45
-17z m-451 -619 c16 -19 22 -37 22 -75 0 -48 -1 -49 -30 -49 -24 0 -30 4 -30
23 0 46 -12 67 -36 67 -35 0 -44 -33 -44 -161 0 -121 8 -149 44 -149 28 0 36
16 36 76 0 42 1 44 30 44 l30 0 0 -63 c0 -75 -16 -102 -68 -118 -55 -16 -107
7 -128 58 -23 54 -17 297 9 336 33 51 123 57 165 11z m815 -5 l27 -29 0 -154
c0 -139 -2 -156 -21 -179 -49 -64 -155 -52 -185 20 -23 54 -17 297 9 336 35
53 123 56 170 6z m-1553 1 c0 -29 -1 -30 -50 -30 l-50 0 0 -60 0 -60 35 0 c32
0 35 -2 35 -30 0 -28 -3 -30 -35 -30 l-35 0 0 -65 0 -65 50 0 c49 0 50 -1 50
-30 l0 -30 -85 0 -85 0 0 215 0 215 85 0 85 0 0 -30z m212 19 c36 -19 48 -69
48 -202 0 -193 -16 -217 -145 -217 l-75 0 0 215 0 215 76 0 c41 0 84 -5 96
-11z m158 -161 c0 -95 4 -179 9 -186 4 -8 19 -12 32 -10 l24 3 3 183 2 182 35
0 35 0 0 -180 c0 -210 -6 -233 -68 -249 -26 -7 -50 -7 -75 0 -61 16 -67 40
-67 249 l0 180 35 0 35 0 0 -172z m580 169 c0 -1 18 -97 40 -212 22 -115 40
-211 40 -212 0 -2 -18 -3 -40 -3 -37 0 -40 2 -40 28 0 41 -13 54 -51 50 -30
-3 -35 -7 -39 -38 -4 -31 -9 -35 -37 -38 -18 -2 -33 0 -33 5 -1 4 16 101 37
216 l38 207 42 0 c24 0 43 -1 43 -3z m260 -27 c0 -27 -3 -30 -30 -30 l-30 0 0
-185 0 -185 -35 0 -35 0 0 185 0 185 -30 0 c-27 0 -30 3 -30 30 l0 30 95 0 95
0 0 -30z m110 -185 l0 -215 -35 0 -35 0 0 215 0 215 35 0 35 0 0 -215z m412
103 l36 -113 1 113 1 112 30 0 30 0 0 -216 0 -215 -32 3 c-31 3 -32 5 -68 120
-20 64 -39 120 -43 124 -4 4 -7 -50 -7 -119 l0 -127 -30 0 -30 0 0 215 0 215
38 0 38 0 36 -112z m570 -937 c31 -28 33 -33 36 -110 l4 -81 -112 0 -112 0 4
81 c3 77 5 82 36 110 24 22 42 29 72 29 30 0 48 -7 72 -29z m-2722 -1026 l0
-904 53 -15 c635 -182 954 -266 1010 -266 52 0 140 26 567 164 l505 163 5 881
5 882 48 -41 47 -41 -2 -875 -3 -876 -40 -13 c-805 -256 -1092 -344 -1130
-344 -31 0 -935 241 -1147 306 -17 5 -18 57 -18 909 l0 903 43 36 c23 20 45
36 50 36 4 0 7 -407 7 -905z m575 627 l430 -248 3 -733 c2 -695 1 -733 -15
-729 -10 3 -217 65 -460 138 l-443 134 0 858 0 859 28 -15 c15 -8 221 -127
457 -264z m1465 -580 l0 -858 -454 -137 c-250 -75 -460 -137 -465 -137 -8 0
-11 221 -11 728 l0 727 463 267 c254 147 463 268 465 268 1 0 2 -386 2 -858z
m720 -64 l0 -762 -52 -183 c-28 -101 -54 -183 -57 -183 -3 0 -30 84 -59 188
l-53 187 1 758 0 757 110 0 110 0 0 -762z"/>
<path d="M734 4182 l-72 -197 70 -3 c39 -2 72 -1 74 1 3 2 3 92 2 201 l-3 196
-71 -198z"/>
<path d="M1600 4621 c-11 -21 -14 -258 -4 -285 9 -22 51 -20 64 3 13 25 13
241 0 275 -11 31 -45 35 -60 7z"/>
<path d="M3130 4004 c-6 -14 -10 -72 -10 -129 0 -122 9 -155 44 -155 13 0 27
7 30 16 3 9 6 71 6 139 0 68 -3 130 -6 139 -10 26 -53 20 -64 -10z"/>
<path d="M1800 3875 l0 -155 30 0 c41 0 50 27 50 155 0 128 -9 155 -50 155
l-30 0 0 -155z"/>
</g>
</svg>
