<svg width="36" height="36" fill="none" xmlns="http://www.w3.org/2000/svg">
  <rect x=".5" y=".5" width="34.985" height="34.985" rx="3.5" stroke="#033C50"/>
  <path d="M25.94 12.062v.251h-5.313V7h.251c.264 0 .518.105.705.292l4.065 4.065c.187.187.292.44.292.705zm-5.645 1.58a1 1 0 01-.997-.997V7h-8.302a.996.996 0 00-.996.996v19.261c0 .55.446.996.996.996h13.948c.55 0 .996-.446.996-.996V13.642h-5.645zm-5.18 9.983a.223.223 0 01-.318.01l-2.692-2.524a.224.224 0 010-.327l2.692-2.524a.225.225 0 01.317.01l.813.867a.225.225 0 01-.015.321l-1.693 1.49 1.693 1.489a.224.224 0 01.015.321l-.813.867zm2.129 2.096l-1.14-.331a.224.224 0 01-.153-.278l2.55-8.785a.224.224 0 01.278-.153l1.14.331a.225.225 0 01.153.278l-2.55 8.785a.226.226 0 01-.191.16.225.225 0 01-.087-.008zm6.674-4.61l-2.692 2.524a.223.223 0 01-.317-.01l-.813-.867a.223.223 0 01.015-.321l1.692-1.49-1.692-1.489a.226.226 0 01-.062-.245.224.224 0 01.047-.076l.813-.867a.227.227 0 01.156-.07.224.224 0 01.16.06l2.693 2.524a.224.224 0 010 .327z" fill="#063C53"/>
</svg>
