<svg width="16" height="15" viewBox="0 0 16 15" fill="none" xmlns="http://www.w3.org/2000/svg">
<path fill-rule="evenodd" clip-rule="evenodd" d="M11.7424 7.44116L7.99911 3.69788L4.25583 7.44116L0.60202 11.095V14.8382L4.3453 14.8382L7.99911 11.1844L11.6529 14.8382L15.3962 14.8382V11.095L11.7424 7.44116Z" fill="white"/>
<path fill-rule="evenodd" clip-rule="evenodd" d="M7.99908 10.4457L11.0352 7.40954L7.99908 4.37336L4.9629 7.40954L7.99908 10.4457ZM4.60935 7.05598L7.64552 4.01981L4.13816 0.512451L1.10199 0.512451L1.10199 3.54863L4.60935 7.05598ZM7.99908 3.66626L11.6529 0.0124512H14.8962H15.3962L15.3962 0.512452L15.3962 3.75573L11.7424 7.40954L11.3888 7.76309L8.35263 10.7993L7.99908 11.1528L7.64552 10.7993L4.60935 7.76309L4.25579 7.40954L0.60199 3.75573V0.512451V0.0124512H1.10199H4.34527L7.99908 3.66626ZM8.35263 4.01981L11.86 0.512452L14.8962 0.512452V3.54863L11.3888 7.05598L8.35263 4.01981Z" fill="white"/>
</svg>
