<svg width="17" height="18" viewBox="0 0 17 18" fill="none" xmlns="http://www.w3.org/2000/svg">
<g clip-path="url(#clip0)">
<path d="M15.9547 3.84336L9.73352 0.248893C9.18052 -0.0552544 8.48928 -0.0552544 7.93628 0.248893L1.71509 3.84336C1.16209 4.14751 0.802643 4.78346 0.802643 5.4194V12.6083C0.802643 13.2719 1.16209 13.8526 1.71509 14.1844L7.93628 17.7789C8.21278 17.9447 8.51693 18.0277 8.82108 18.0277C9.12522 18.0277 9.45702 17.9447 9.73352 17.7789L15.9547 14.1844C16.5077 13.8526 16.8672 13.2719 16.8672 12.6083V5.4194C16.8948 4.75581 16.5354 4.14751 15.9547 3.84336ZM15.4847 11.8618L12.6367 10.2305V10.5623C12.6367 10.9494 12.4432 11.3088 12.0837 11.5023L14.9317 13.1337L9.53997 16.2858V12.9954L9.37407 13.0784C9.04227 13.2719 8.59988 13.2719 8.26808 13.0784L8.12983 12.9954V16.2581L2.87638 13.2166L5.669 11.5576L5.5584 11.5023C5.19896 11.3088 5.00541 10.9494 5.00541 10.5346V10.3687L2.18513 12.0553V5.8065L5.00541 7.43783C5.00541 7.05074 5.22661 6.69129 5.5584 6.49774L5.8349 6.33184L3.01462 4.67286L8.12983 1.71433V4.977L8.26808 4.89405C8.59988 4.70051 9.04227 4.70051 9.37407 4.89405L9.51232 4.977V1.71433L14.6828 4.70051L11.8626 6.35949L12.0837 6.49774C12.4432 6.69129 12.6367 7.05074 12.6367 7.46548V7.52078L15.4847 5.8065V11.8618Z" fill="white"/>
<path d="M8.82112 13.9355C8.51697 13.9355 8.21283 13.8526 7.93633 13.6867L5.22665 12.1383C4.67366 11.8341 4.31421 11.2258 4.31421 10.5622V7.43782C4.31421 6.80187 4.67366 6.19358 5.22665 5.86178L7.90868 4.31339C8.46167 3.9816 9.15292 3.9816 9.70591 4.31339L12.4156 5.88943C12.9686 6.19358 13.328 6.80187 13.328 7.46547V10.5899C13.328 11.2535 12.9686 11.8341 12.4156 12.1659L9.73356 13.7143C9.45707 13.8526 9.15292 13.9355 8.82112 13.9355ZM8.84877 5.47468C8.76582 5.47468 8.71052 5.50233 8.62757 5.52998L5.94555 7.07837C5.8073 7.16132 5.72435 7.29957 5.72435 7.43782V10.5622C5.72435 10.7281 5.8073 10.8387 5.9179 10.9217L8.62757 12.4977C8.76582 12.5807 8.93172 12.5807 9.04232 12.4977L11.752 10.9217C11.8902 10.8387 11.9455 10.7281 11.9455 10.5622V7.43782C11.9455 7.27192 11.8626 7.16132 11.752 7.07837L9.04232 5.52998C8.98702 5.47468 8.90407 5.47468 8.84877 5.47468Z" fill="white"/>
</g>
<defs>
<clipPath id="clip0">
<rect width="16.0922" height="18" fill="white" transform="translate(0.802643)"/>
</clipPath>
</defs>
</svg>
