<svg width="23" height="22" viewBox="0 0 23 22" fill="none" xmlns="http://www.w3.org/2000/svg">
<path d="M20.1556 10.6207H18.6384C18.4372 10.6207 18.2442 10.7006 18.102 10.8429C17.9597 10.9851 17.8798 11.1781 17.8798 11.3793H12.7264C12.5254 11.3798 12.3326 11.4597 12.1901 11.6016L11.4315 12.3602L10.6729 11.6016C10.5304 11.4597 10.3376 11.3798 10.1365 11.3793H5.74183C5.74183 11.1781 5.6619 10.9851 5.51963 10.8429C5.37736 10.7006 5.1844 10.6207 4.9832 10.6207H3.46596C3.26476 10.6207 3.07181 10.7006 2.92954 10.8429C2.78727 10.9851 2.70734 11.1781 2.70734 11.3793V14.0345H1.56941V5.31032H5.74183C5.84243 5.31032 5.9389 5.27035 6.01004 5.19922C6.08117 5.12809 6.12114 5.03161 6.12114 4.93101C6.12114 4.83041 6.08117 4.73393 6.01004 4.66279C5.9389 4.59166 5.84243 4.5517 5.74183 4.5517H1.56941C1.36821 4.5517 1.17525 4.63162 1.03299 4.77389C0.890717 4.91616 0.810791 5.10912 0.810791 5.31032V14.0345C0.810791 14.2357 0.890717 14.4286 1.03299 14.5709C1.17525 14.7132 1.36821 14.7931 1.56941 14.7931H2.70734V17.4482C2.70734 17.6494 2.78727 17.8424 2.92954 17.9847C3.07181 18.1269 3.26476 18.2069 3.46596 18.2069H4.9832C5.1844 18.2069 5.37736 18.1269 5.51963 17.9847C5.6619 17.8424 5.74183 17.6494 5.74183 17.4482H6.34341L10.5484 21.6533C10.692 21.7973 10.8703 21.9018 11.0662 21.9565C11.262 22.0112 11.4687 22.0143 11.6661 21.9656C11.8635 21.9168 12.0449 21.8179 12.1928 21.6783C12.3406 21.5387 12.4499 21.3632 12.5099 21.1689C12.659 21.2242 12.8179 21.2483 12.9767 21.2396C13.1355 21.231 13.2908 21.1899 13.4331 21.1187C13.5753 21.0476 13.7014 20.948 13.8036 20.8262C13.9058 20.7043 13.9819 20.5627 14.0271 20.4103C14.1762 20.4656 14.3351 20.4896 14.4939 20.481C14.6527 20.4724 14.808 20.4312 14.9503 20.3601C15.0925 20.289 15.2187 20.1894 15.3208 20.0675C15.423 19.9457 15.4991 19.8041 15.5443 19.6517C15.7826 19.7386 16.0426 19.7462 16.2855 19.6732C16.5284 19.6003 16.7413 19.4508 16.8922 19.247C17.0432 19.0432 17.1243 18.7961 17.1233 18.5424C17.1223 18.2888 17.0393 18.0423 16.8867 17.8397L17.2782 17.4482H17.8798C17.8798 17.6494 17.9597 17.8424 18.102 17.9847C18.2442 18.1269 18.4372 18.2069 18.6384 18.2069H20.1556C20.3568 18.2069 20.5498 18.1269 20.692 17.9847C20.8343 17.8424 20.9142 17.6494 20.9142 17.4482V11.3793C20.9142 11.1781 20.8343 10.9851 20.692 10.8429C20.5498 10.7006 20.3568 10.6207 20.1556 10.6207ZM4.9832 17.4482H3.46596V11.3793H4.9832V17.4482ZM15.9373 18.9655C15.8246 18.9651 15.7166 18.9204 15.6365 18.8411L15.2572 18.4618L13.5962 16.8008C13.5247 16.7317 13.4289 16.6934 13.3294 16.6943C13.2299 16.6952 13.1348 16.7351 13.0645 16.8054C12.9942 16.8757 12.9543 16.9708 12.9534 17.0703C12.9525 17.1698 12.9908 17.2656 13.0599 17.3371L14.7209 18.9981C14.7804 19.0576 14.8209 19.1334 14.8373 19.2159C14.8538 19.2984 14.8454 19.3839 14.8131 19.4617C14.7809 19.5394 14.7264 19.6058 14.6564 19.6525C14.5865 19.6993 14.5042 19.7242 14.4201 19.7241C14.3074 19.7237 14.1993 19.679 14.1193 19.5997L13.74 19.2204L12.079 17.5594C12.0074 17.4903 11.9116 17.4521 11.8122 17.4529C11.7127 17.4538 11.6176 17.4937 11.5472 17.564C11.4769 17.6343 11.437 17.7295 11.4362 17.8289C11.4353 17.9284 11.4735 18.0242 11.5426 18.0957L13.2036 19.7567C13.2631 19.8162 13.3037 19.892 13.3201 19.9745C13.3365 20.057 13.3281 20.1426 13.2959 20.2203C13.2637 20.298 13.2092 20.3644 13.1392 20.4112C13.0692 20.4579 12.987 20.4828 12.9028 20.4827C12.7901 20.4823 12.6821 20.4376 12.602 20.3583L12.2227 19.979L10.5617 18.318C10.4902 18.2489 10.3944 18.2107 10.2949 18.2115C10.1955 18.2124 10.1003 18.2523 10.03 18.3226C9.95967 18.393 9.91978 18.4881 9.91891 18.5875C9.91805 18.687 9.95628 18.7828 10.0254 18.8544L11.6864 20.5154C11.7459 20.5748 11.7864 20.6506 11.8029 20.7331C11.8193 20.8156 11.8109 20.9012 11.7787 20.9789C11.7465 21.0566 11.6919 21.1231 11.622 21.1698C11.552 21.2165 11.4697 21.2414 11.3856 21.2414C11.2729 21.2409 11.1649 21.1962 11.0848 21.1169L6.87976 16.9119C6.73726 16.77 6.5445 16.6901 6.34341 16.6896H5.74183V12.1379H10.1365L10.8951 12.8965L9.20152 14.5901C9.06529 14.7247 8.95701 14.8848 8.88292 15.0614C8.80883 15.2379 8.77038 15.4273 8.76979 15.6188C8.76919 15.8103 8.80647 15.9999 8.87948 16.1769C8.95248 16.3539 9.05976 16.5147 9.19516 16.6501C9.33055 16.7855 9.49137 16.8927 9.66838 16.9657C9.84539 17.0387 10.0351 17.0759 10.2265 17.0753C10.418 17.0746 10.6074 17.0362 10.784 16.962C10.9605 16.8879 11.1206 16.7796 11.2551 16.6434L12.9487 14.9501L16.0943 18.0957L16.2381 18.2395C16.2976 18.299 16.3382 18.3747 16.3546 18.4573C16.371 18.5398 16.3626 18.6253 16.3304 18.703C16.2982 18.7808 16.2436 18.8472 16.1737 18.8939C16.1037 18.9406 16.0214 18.9655 15.9373 18.9655ZM17.2782 16.6896C17.0771 16.6901 16.8843 16.77 16.7418 16.9119L16.3625 17.2912L13.2169 14.1456C13.1458 14.0745 13.0493 14.0345 12.9487 14.0345C12.8481 14.0345 12.7517 14.0745 12.6806 14.1456L10.7188 16.1074C10.6217 16.2043 10.4981 16.2702 10.3636 16.2969C10.2291 16.3235 10.0897 16.3097 9.96298 16.2572C9.8363 16.2047 9.72803 16.1158 9.65185 16.0018C9.57566 15.8877 9.53497 15.7537 9.53493 15.6166C9.5347 15.5255 9.55252 15.4352 9.58735 15.351C9.62218 15.2669 9.67333 15.1904 9.73786 15.1261L11.6997 13.1647L12.7264 12.1379H17.8798V16.6896H17.2782ZM20.1556 17.4482H18.6384V11.3793H20.1556V17.4482Z" fill="white"/>
<path d="M22.8108 5.27962C22.8029 5.0838 22.7194 4.89864 22.578 4.76295C22.4366 4.62726 22.2482 4.55157 22.0522 4.55173H16.7225C16.6244 3.28057 16.0378 2.09681 15.0858 1.24884C14.1337 0.40086 12.8903 -0.0454146 11.6163 0.00365751C10.3423 0.0527297 9.13682 0.593334 8.25283 1.51203C7.36884 2.43073 6.87503 3.65611 6.87503 4.93104C6.87503 6.20597 7.36884 7.43135 8.25283 8.35004C9.13682 9.26874 10.3423 9.80935 11.6163 9.85842C12.8903 9.90749 14.1337 9.46122 15.0858 8.61324C16.0378 7.76526 16.6244 6.5815 16.7225 5.31035H22.0522V14.0345C21.9516 14.0345 21.8551 14.0744 21.784 14.1456C21.7128 14.2167 21.6729 14.3132 21.6729 14.4138C21.6729 14.5144 21.7128 14.6109 21.784 14.682C21.8551 14.7531 21.9516 14.7931 22.0522 14.7931C22.2534 14.7931 22.4463 14.7132 22.5886 14.5709C22.7309 14.4286 22.8108 14.2357 22.8108 14.0345V5.30162C22.8108 5.29442 22.8108 5.28683 22.8108 5.27962ZM11.8108 9.10345C10.9856 9.10345 10.1789 8.85874 9.49273 8.40027C8.80658 7.9418 8.27179 7.29016 7.95599 6.52775C7.64019 5.76534 7.55756 4.92641 7.71856 4.11704C7.87955 3.30767 8.27693 2.56422 8.86046 1.9807C9.44398 1.39717 10.1874 0.999789 10.9968 0.838796C11.8062 0.677802 12.6451 0.76043 13.4075 1.07623C14.1699 1.39203 14.8216 1.92682 15.28 2.61297C15.7385 3.29912 15.9832 4.10581 15.9832 4.93104C15.9819 6.03723 15.5419 7.09774 14.7597 7.87994C13.9775 8.66214 12.917 9.10215 11.8108 9.10345Z" fill="white"/>
<path d="M12.1901 4.55169H11.4315C11.2303 4.55169 11.0373 4.47177 10.8951 4.3295C10.7528 4.18723 10.6729 3.99427 10.6729 3.79307C10.6729 3.59188 10.7528 3.39892 10.8951 3.25665C11.0373 3.11438 11.2303 3.03445 11.4315 3.03445H12.9487C13.0493 3.03445 13.1458 2.99449 13.2169 2.92336C13.2881 2.85222 13.328 2.75574 13.328 2.65514C13.328 2.55454 13.2881 2.45806 13.2169 2.38693C13.1458 2.3158 13.0493 2.27583 12.9487 2.27583H12.1901V1.89652C12.1901 1.79592 12.1501 1.69944 12.079 1.62831C12.0079 1.55717 11.9114 1.51721 11.8108 1.51721C11.7102 1.51721 11.6137 1.55717 11.5426 1.62831C11.4714 1.69944 11.4315 1.79592 11.4315 1.89652V2.27583C11.0291 2.27583 10.6432 2.43568 10.3586 2.72022C10.0741 3.00476 9.91425 3.39068 9.91425 3.79307C9.91425 4.19547 10.0741 4.58139 10.3586 4.86593C10.6432 5.15046 11.0291 5.31032 11.4315 5.31032H12.1901C12.3913 5.31032 12.5843 5.39024 12.7265 5.53251C12.8688 5.67478 12.9487 5.86774 12.9487 6.06894C12.9487 6.27013 12.8688 6.46309 12.7265 6.60536C12.5843 6.74763 12.3913 6.82756 12.1901 6.82756H10.6729C10.5723 6.82756 10.4758 6.86752 10.4047 6.93865C10.3335 7.00979 10.2936 7.10627 10.2936 7.20687C10.2936 7.30747 10.3335 7.40395 10.4047 7.47508C10.4758 7.54621 10.5723 7.58618 10.6729 7.58618H11.4315V7.96549C11.4315 8.06609 11.4714 8.16257 11.5426 8.2337C11.6137 8.30484 11.7102 8.3448 11.8108 8.3448C11.9114 8.3448 12.0079 8.30484 12.079 8.2337C12.1501 8.16257 12.1901 8.06609 12.1901 7.96549V7.58618C12.5925 7.58618 12.9784 7.42633 13.263 7.14179C13.5475 6.85725 13.7073 6.47133 13.7073 6.06894C13.7073 5.66654 13.5475 5.28062 13.263 4.99608C12.9784 4.71155 12.5925 4.55169 12.1901 4.55169Z" fill="white"/>
</svg>
