<svg width="24" height="24" viewBox="0 0 24 24" fill="none" xmlns="http://www.w3.org/2000/svg">
<path d="M7.11566 12.1508C7.11566 14.5337 8.80277 16.5988 11.1272 17.0614C11.1463 17.065 11.1651 17.0669 11.1836 17.0669C11.3181 17.0669 11.438 16.9723 11.4653 16.8355C11.4964 16.6797 11.3951 16.5284 11.2395 16.4973C9.18321 16.0883 7.69067 14.2602 7.69067 12.1508C7.69067 10.0254 9.21167 8.21553 11.239 7.80875L10.8487 8.20063C10.7367 8.31307 10.7372 8.49515 10.8495 8.60717C10.9057 8.66305 10.9793 8.69098 11.0525 8.69098C11.1264 8.69098 11.2002 8.66277 11.2564 8.60633L12.2107 7.64794C12.3221 7.53578 12.3221 7.35441 12.2107 7.24224L11.2564 6.28385C11.1443 6.17127 10.9621 6.17071 10.8495 6.28301C10.7372 6.39504 10.7367 6.57711 10.8487 6.68956L11.361 7.204C8.95298 7.56654 7.11566 9.66853 7.11566 12.1508Z" fill="white"/>
<path d="M13.067 7.44338C13.0389 7.59976 13.1431 7.74913 13.2995 7.77707C15.4038 8.15357 16.9312 9.98822 16.9312 12.1393C16.9312 14.2648 15.4102 16.0748 13.3828 16.4814L13.7731 16.0895C13.8852 15.9771 13.8846 15.795 13.7723 15.683C13.6597 15.5709 13.4775 15.5715 13.3655 15.6838L12.4111 16.6422C12.2997 16.7543 12.2997 16.9357 12.4111 17.0479L13.3655 18.0063C13.4216 18.0627 13.4955 18.0909 13.5693 18.0909C13.6426 18.0909 13.7161 18.063 13.7723 18.0071C13.8846 17.8951 13.8852 17.713 13.7731 17.6006L13.2608 17.0861C15.6688 16.7237 17.5062 14.6217 17.5062 12.1393C17.5062 9.70928 15.7795 7.63668 13.4006 7.21105C13.2442 7.18255 13.0951 7.28699 13.067 7.44338Z" fill="white"/>
<path d="M17.9124 2.16517C17.8302 2.17471 15.889 2.41266 15.1483 3.71625C15.109 3.78517 15.0739 3.85565 15.0433 3.92654C14.6154 4.91118 15.1539 5.77635 15.8353 6.16367C16.1136 6.32174 16.448 6.4186 16.7888 6.4186C17.2832 6.4186 17.7914 6.21519 18.1626 5.6997C18.2081 5.63625 18.2508 5.57027 18.2895 5.50162C19.0302 4.19762 18.2415 2.40859 18.2075 2.33306C18.1561 2.21865 18.0357 2.15057 17.9124 2.16517ZM17.7895 5.21791C17.7892 5.21805 17.7892 5.21819 17.7892 5.21833C17.7605 5.26873 17.7297 5.31702 17.696 5.36363C17.2734 5.95057 16.599 5.93667 16.1195 5.66377C15.6388 5.39058 15.2828 4.81839 15.5709 4.1548C15.5933 4.10272 15.6189 4.05134 15.6478 4.0008C16.117 3.17564 17.2796 2.8675 17.7628 2.7726C17.929 3.23572 18.26 4.3898 17.7895 5.21791Z" fill="white"/>
<path d="M12.5117 0.699301C12.4103 0.626162 12.273 0.627285 12.1722 0.701547C12.1057 0.750962 10.5435 1.92764 10.5536 3.42776C10.5542 3.50638 10.5593 3.58429 10.568 3.66164C10.6892 4.72237 11.579 5.20289 12.3595 5.20289C12.3637 5.20289 12.3682 5.20289 12.3724 5.20289C13.156 5.19756 14.0483 4.70538 14.1558 3.63707C14.1634 3.56 14.1673 3.48209 14.1671 3.40362C14.1671 3.40334 14.1671 3.40306 14.1671 3.40278C14.1567 1.90308 12.5788 0.747733 12.5117 0.699301ZM13.5836 3.57966C13.5115 4.29855 12.9213 4.6241 12.3685 4.62789C11.8263 4.63589 11.2213 4.31386 11.1393 3.59664C11.1326 3.53937 11.1292 3.48139 11.1286 3.42341C11.1222 2.47443 11.9754 1.6261 12.3463 1.30238C12.7217 1.62021 13.585 2.45379 13.5921 3.40601C13.5923 3.4644 13.5895 3.52238 13.5836 3.57966Z" fill="white"/>
<path d="M9.54764 3.64659C9.54736 3.64631 9.54736 3.64603 9.54708 3.64589C8.78818 2.35213 6.84417 2.14071 6.76162 2.13229C6.63696 2.11867 6.51876 2.18915 6.46879 2.30412C6.43594 2.38006 5.67142 4.18032 6.43004 5.47352C6.46991 5.54175 6.51315 5.60716 6.55947 5.66963C6.93148 6.17178 7.43209 6.37014 7.91865 6.37014C8.2682 6.37014 8.61045 6.2678 8.89318 6.10215C9.56898 5.70571 10.0957 4.83324 9.65461 3.85408C9.62289 3.78374 9.58723 3.7144 9.54764 3.64659ZM8.60231 5.60618C8.12501 5.88554 7.45174 5.908 7.02161 5.32738C6.98764 5.28148 6.95563 5.23347 6.92615 5.18307C6.44604 4.36436 6.76078 3.20326 6.92025 2.73734C7.40401 2.82479 8.56862 3.11496 9.05069 3.9362C9.08017 3.98674 9.10684 4.0384 9.13043 4.09062C9.42719 4.74943 9.07905 5.32654 8.60231 5.60618Z" fill="white"/>
<path d="M5.6675 6.1663C4.36391 5.42537 2.57461 6.21459 2.4988 6.24843C2.38453 6.2998 2.31687 6.41913 2.33118 6.54365C2.34073 6.62591 2.57882 8.56711 3.88297 9.30847C3.95147 9.34722 4.0211 9.38175 4.09242 9.41277C4.33612 9.51862 4.57224 9.56537 4.79601 9.56537C5.47602 9.56523 6.03811 9.13341 6.32954 8.62074C6.71672 7.93933 6.73665 6.92043 5.86544 6.29335C5.80227 6.24786 5.73629 6.20533 5.6675 6.1663ZM5.8295 8.33661C5.5566 8.81727 4.983 9.17314 4.32208 8.88564C4.2693 8.86262 4.21708 8.83679 4.16654 8.80829C3.34165 8.33927 3.03338 7.17635 2.93848 6.69316C3.40174 6.5268 4.55568 6.19606 5.38365 6.66634C5.38393 6.66648 5.38393 6.66662 5.38421 6.66676C5.43475 6.69526 5.48276 6.72657 5.52937 6.75998C6.11588 7.18211 6.10269 7.85594 5.8295 8.33661Z" fill="white"/>
<path d="M3.57832 13.9024C3.5831 13.9024 3.58815 13.9024 3.59292 13.9024C3.6721 13.9019 3.75043 13.897 3.82736 13.8882C4.89398 13.7662 5.37409 12.8672 5.36876 12.0836C5.36342 11.3 4.87124 10.4076 3.80294 10.3C3.72488 10.2922 3.64346 10.2877 3.56822 10.2891C2.06866 10.2996 0.913594 11.8774 0.865022 11.9445C0.791743 12.0461 0.792866 12.1834 0.867549 12.284C0.916683 12.3503 2.08578 13.9025 3.57832 13.9024ZM3.57243 10.8641H3.57271C3.63139 10.8642 3.68838 10.8665 3.74538 10.8722C4.46441 10.9445 4.78982 11.5347 4.79375 12.0875C4.7974 12.6403 4.47986 13.2348 3.76194 13.3168C3.70495 13.3234 3.64739 13.3269 3.58927 13.3274C3.58562 13.3274 3.58197 13.3274 3.57832 13.3274C2.63383 13.3274 1.7907 12.4795 1.46838 12.1098C1.78593 11.7342 2.62008 10.8705 3.57243 10.8641Z" fill="white"/>
<path d="M4.01996 14.8014C3.94949 14.8333 3.87958 14.8691 3.81192 14.9088C2.51816 15.6675 2.30674 17.6118 2.29832 17.6942C2.28568 17.8189 2.35531 17.9374 2.47014 17.9871C2.52124 18.0093 3.34753 18.3604 4.27658 18.3604C4.73282 18.3604 5.21377 18.2757 5.63997 18.0258C5.70791 17.9858 5.77333 17.9424 5.83538 17.8964C6.69817 17.2575 6.66448 16.2389 6.26804 15.5628C5.8716 14.8869 4.99955 14.3602 4.01996 14.8014ZM5.77193 15.8537C6.05157 16.3306 6.07403 17.0043 5.49313 17.4343C5.44708 17.4685 5.39907 17.5004 5.34882 17.5299C4.53039 18.01 3.36999 17.6955 2.90364 17.536C2.99208 17.0513 3.28436 15.8849 4.10279 15.4049C4.10279 15.4048 4.10307 15.4048 4.10307 15.4046C4.15304 15.3753 4.2047 15.3489 4.25664 15.3254C4.91504 15.0284 5.49229 15.377 5.77193 15.8537Z" fill="white"/>
<path d="M6.45925 18.5904C6.41377 18.6539 6.37109 18.7199 6.33235 18.7885C5.59169 20.0925 6.38036 21.8815 6.41433 21.9571C6.46122 22.0612 6.56426 22.1268 6.67656 22.1268C6.68751 22.1268 6.69846 22.1262 6.70941 22.125C6.79168 22.1154 8.73288 21.8775 9.47353 20.5739C9.51284 20.505 9.54794 20.4345 9.57854 20.3636C10.0064 19.379 9.46792 18.5138 8.7865 18.1265C8.10481 17.739 7.0862 17.7195 6.45925 18.5904ZM9.05098 20.1353C9.02852 20.1874 9.00297 20.2388 8.97405 20.2893C8.5049 21.1145 7.34225 21.4226 6.85906 21.5175C6.69285 21.0544 6.36183 19.9003 6.83239 19.0722C6.83267 19.0721 6.83267 19.0719 6.83267 19.0718C6.86131 19.0214 6.89219 18.9731 6.92588 18.9265C7.17352 18.5826 7.50762 18.4449 7.83836 18.4449C8.07196 18.4449 8.30387 18.5134 8.50237 18.6264C8.98304 18.8996 9.33905 19.4718 9.05098 20.1353Z" fill="white"/>
<path d="M12.2623 19.0872C12.2581 19.0872 12.2536 19.0872 12.2494 19.0872C11.4658 19.0926 10.5736 19.5847 10.466 20.653C10.4584 20.7301 10.4545 20.808 10.4548 20.8865C10.4548 20.8868 10.4548 20.8871 10.4548 20.8873C10.4652 22.387 12.0431 23.5424 12.1102 23.5908C12.1604 23.627 12.2194 23.6451 12.2783 23.6451C12.3387 23.6451 12.3988 23.6262 12.4496 23.5886C12.5162 23.5392 14.0783 22.3625 14.0682 20.8623C14.0677 20.7837 14.0626 20.7058 14.0539 20.6285C13.9326 19.5677 13.0429 19.0872 12.2623 19.0872ZM12.2755 22.9877C11.9002 22.6699 11.0368 21.8363 11.0298 20.8841C11.0295 20.8257 11.0323 20.7677 11.0382 20.7105C11.1104 19.9916 11.7005 19.666 12.2534 19.6622C12.2564 19.6622 12.2598 19.6622 12.2629 19.6622C12.8129 19.6622 13.4011 19.9802 13.4825 20.6935C13.4893 20.7507 13.4927 20.8087 13.4932 20.8667C13.4997 21.8157 12.6464 22.664 12.2755 22.9877Z" fill="white"/>
<path d="M15.7287 18.1879C15.0529 18.5844 14.5262 19.4568 14.9672 20.436C14.999 20.5063 15.0346 20.5757 15.0742 20.6435C15.0745 20.6438 15.0745 20.644 15.0748 20.6442C15.8337 21.938 17.7777 22.1494 17.8602 22.1578C17.8698 22.1588 17.8796 22.1592 17.8891 22.1592C18.0029 22.1592 18.107 22.0919 18.1531 21.986C18.1859 21.91 18.9504 20.1098 18.1918 18.8166C18.1519 18.7483 18.1087 18.6829 18.0624 18.6204C17.4234 17.7577 16.4053 17.7918 15.7287 18.1879ZM17.6002 18.9627C17.6342 19.0086 17.6662 19.0566 17.6957 19.107C18.1758 19.9257 17.8611 21.0868 17.7016 21.5527C17.2178 21.4653 16.0532 21.1751 15.5712 20.3539C15.5417 20.3033 15.515 20.2517 15.4914 20.1995C15.1947 19.5406 15.5428 18.9635 16.0195 18.6839C16.4966 18.404 17.1698 18.3819 17.6002 18.9627Z" fill="white"/>
<path d="M22.2907 17.7465C22.2811 17.6642 22.043 15.723 20.7389 14.9816C20.6704 14.9429 20.6007 14.9084 20.5294 14.8773C19.5451 14.4497 18.6798 14.988 18.2923 15.6694C17.9051 16.3508 17.8852 17.3697 18.7564 17.9968C18.8196 18.0422 18.8856 18.0848 18.9543 18.1238C19.3682 18.3589 19.8306 18.4399 20.272 18.4398C21.221 18.4398 22.0714 18.0648 22.123 18.0417C22.2373 17.9903 22.305 17.871 22.2907 17.7465ZM19.2382 17.6238C19.2379 17.6236 19.2379 17.6235 19.2376 17.6233C19.1871 17.5948 19.1391 17.5635 19.0925 17.5301C18.506 17.108 18.5192 16.4342 18.7923 15.9535C18.9976 15.5922 19.3718 15.3013 19.8264 15.3013C19.9766 15.3013 20.1355 15.333 20.2998 15.4045C20.3526 15.4275 20.4048 15.4533 20.4553 15.4818C21.2802 15.9508 21.5885 17.1138 21.6834 17.597C21.2201 17.7634 20.0659 18.0942 19.2382 17.6238Z" fill="white"/>
<path d="M23.7568 12.3457C23.8301 12.244 23.829 12.1067 23.7543 12.0061C23.7052 11.9398 22.5361 10.3878 21.0435 10.3878C21.0388 10.3878 21.0337 10.3878 21.0289 10.3878C20.9498 10.3882 20.8714 10.3931 20.7945 10.4019C19.7279 10.5239 19.2478 11.4229 19.2531 12.2065C19.2584 12.9902 19.7506 13.8826 20.8189 13.9901C20.8911 13.9973 20.9635 14.001 21.0365 14.001C21.0424 14.001 21.048 14.001 21.0536 14.001C22.5532 13.9905 23.7083 12.4128 23.7568 12.3457ZM21.0494 13.426H21.0491C20.9913 13.4252 20.9335 13.4237 20.8765 13.4179C20.1574 13.3456 19.832 12.7554 19.8281 12.2026C19.8245 11.6498 20.142 11.0553 20.8599 10.9733C20.9169 10.9667 20.9745 10.9632 21.0326 10.9628C21.0362 10.9628 21.0399 10.9628 21.0435 10.9628C21.988 10.9628 22.8312 11.8107 23.1535 12.1803C22.8359 12.556 22.0018 13.4196 21.0494 13.426Z" fill="white"/>
<path d="M18.3538 8.7273C18.6492 9.23057 19.2079 9.65102 19.8783 9.65102C20.1083 9.65102 20.3517 9.60146 20.6019 9.48874C20.6723 9.45687 20.7423 9.42107 20.8099 9.38134C22.1037 8.62258 22.3151 6.67829 22.3235 6.59589C22.3362 6.47123 22.2665 6.35274 22.1517 6.30305C22.0753 6.26978 20.2756 5.50526 18.9819 6.2643C18.9139 6.30431 18.8485 6.34769 18.7865 6.39374C17.9237 7.03261 17.9574 8.05122 18.3538 8.7273ZM19.1287 6.85587C19.1747 6.82162 19.2228 6.78975 19.273 6.76027C19.5967 6.57034 19.9741 6.50478 20.3408 6.50478C20.9009 6.50478 21.4363 6.65779 21.7182 6.7541C21.6297 7.23883 21.3375 8.40527 20.519 8.88523C20.519 8.88537 20.5188 8.88537 20.5188 8.88551C20.4688 8.91485 20.4171 8.94125 20.3652 8.96469C19.7071 9.26174 19.1295 8.91317 18.8499 8.43643C18.5703 7.95956 18.5478 7.28586 19.1287 6.85587Z" fill="white"/>
</svg>
