<svg width="18" height="19" viewBox="0 0 18 19" fill="none" xmlns="http://www.w3.org/2000/svg">
<path d="M16.9051 8.91504H10.6969C10.9503 5.85453 11.1962 2.97601 13.1787 2.97601C13.5849 2.97601 14.3488 3.07258 14.9077 3.74114C15.5747 4.5397 15.7536 5.92139 15.422 7.73764C15.3847 7.93821 15.5189 8.13134 15.7201 8.16849C15.9213 8.20191 16.1151 8.0682 16.1523 7.86764C16.5324 5.79882 16.3051 4.24628 15.4779 3.26201C14.9189 2.59716 14.1028 2.22946 13.1787 2.22946C12.5266 2.22946 11.9676 2.44488 11.5242 2.87202C11.1441 3.23601 10.846 3.75229 10.6187 4.44313C10.2162 5.66511 10.0858 7.23622 9.94791 8.90019C9.94791 8.9039 9.94791 8.91133 9.94791 8.91504H3.86273V1.16348L5.48743 2.51545C5.55823 2.57117 5.64021 2.60088 5.72592 2.60088C5.83398 2.60088 5.93832 2.55631 6.01285 2.46717C6.14327 2.30746 6.12092 2.07346 5.96441 1.94346L3.72858 0.0863555C3.5907 -0.0287852 3.38948 -0.0287852 3.2516 0.0863555L1.01577 1.94346C0.855537 2.07717 0.836905 2.31117 0.967328 2.46717C1.10148 2.62688 1.33624 2.64545 1.49275 2.51545L3.11745 1.16348V17.8292C3.11745 18.0334 3.28514 18.2006 3.49009 18.2006C3.69504 18.2006 3.86273 18.0334 3.86273 17.8292V9.65789H9.88456C9.75787 11.1027 9.5939 12.5327 9.20636 13.6247C8.72566 14.9729 7.97665 15.6006 6.84011 15.6006C6.2178 15.6006 5.71847 15.2923 5.35701 14.6869C5.06262 14.1929 4.97319 13.6841 4.97319 13.6804C4.93965 13.4798 4.74588 13.3424 4.54466 13.3758C4.34343 13.4092 4.20555 13.6024 4.23909 13.8029C4.24282 13.8289 4.34716 14.4344 4.70489 15.0435C5.20423 15.8941 5.94205 16.3435 6.84383 16.3435C7.62265 16.3435 8.28594 16.1058 8.81882 15.6415C9.28089 15.2329 9.63862 14.6535 9.91437 13.8772C10.3392 12.685 10.5031 11.1733 10.6336 9.65789H16.9051C17.11 9.65789 17.2777 9.49075 17.2777 9.28646C17.2777 9.08218 17.11 8.91504 16.9051 8.91504Z" fill="white"/>
</svg>
