<svg width="19" height="21" viewBox="0 0 19 21" fill="none" xmlns="http://www.w3.org/2000/svg">
<path d="M18.7509 13.6091C18.5518 12.746 17.7109 12.1928 16.8257 12.392L13.595 13.078C13.3516 12.7239 12.9533 12.5026 12.5107 12.4805L7.66453 12.1928C6.97854 12.1486 6.29256 12.3477 5.76147 12.7682L3.06179 14.804L0.826802 17.0611C0.738288 17.1496 0.694031 17.2824 0.694031 17.4152C0.694031 17.5479 0.738288 17.6807 0.848931 17.7692L4.01331 20.8672C4.10183 20.9557 4.2346 21 4.36737 21C4.50014 21 4.63291 20.9557 4.72143 20.8451L6.69087 18.8535L10.0544 19.2297C11.183 19.3625 12.3337 19.0969 13.2852 18.4552L18.0871 15.313C18.6403 14.981 18.928 14.2729 18.7509 13.6091ZM4.34524 19.8272L1.88897 17.4152L3.32733 15.9547L5.7836 18.3667L4.34524 19.8272ZM17.5117 14.5163L12.7098 17.6586C11.9575 18.1454 11.0281 18.3667 10.1208 18.2782L6.69087 17.8799L4.03544 15.2908L6.33681 13.5648C6.69087 13.2993 7.13344 13.1665 7.59814 13.1886L12.4443 13.4763C12.6656 13.4984 12.8647 13.6754 12.8647 13.8967C12.8869 14.118 12.732 14.3172 12.5107 14.3836L11.3379 14.6712C10.8732 14.7819 10.4085 14.8261 9.92164 14.804L8.5718 14.7155C8.30625 14.6934 8.06284 14.9146 8.06284 15.2023C8.04071 15.4679 8.262 15.7113 8.54967 15.7113L9.92164 15.7555C10.4749 15.7777 11.0502 15.7334 11.6034 15.6006L12.7762 15.313C13.3958 15.1581 13.8384 14.627 13.8827 14.0074L17.047 13.3435C17.379 13.2771 17.7109 13.4763 17.7994 13.8303C17.8437 14.0959 17.7551 14.3836 17.5117 14.5163Z" fill="white"/>
<path d="M12.6877 11.3298C15.8078 11.3298 18.3526 8.78504 18.3526 5.66491C18.3526 2.54478 15.8078 0 12.6877 0C9.56758 0 7.0228 2.54478 7.0228 5.66491C7.0228 8.78504 9.56758 11.3298 12.6877 11.3298ZM12.6877 0.995785C15.2546 0.995785 17.3568 3.098 17.3568 5.66491C17.3568 8.23182 15.2546 10.334 12.6877 10.334C10.1208 10.334 8.01858 8.23182 8.01858 5.66491C8.01858 3.098 10.0987 0.995785 12.6877 0.995785Z" fill="white"/>
<path d="M12.4886 6.17387H12.9311C13.2631 6.17387 13.5065 6.46154 13.4843 6.77134C13.4622 7.05901 13.1967 7.25817 12.909 7.25817H12.3779C12.2009 7.25817 12.046 7.12539 11.9796 6.97049C11.9575 6.90411 11.9132 6.85985 11.8468 6.85985H11.1387C11.0502 6.85985 10.9838 6.94837 10.9838 7.03688C11.0502 7.67861 11.5592 8.16544 12.1788 8.25395V8.87355C12.1788 8.96206 12.2451 9.02845 12.3337 9.02845H13.0418C13.1303 9.02845 13.1967 8.96206 13.1967 8.87355V8.23182C13.8605 8.09905 14.3916 7.59009 14.4801 6.92624C14.5908 5.97471 13.8605 5.17808 12.9533 5.17808H12.4664C12.1345 5.17808 11.8911 4.89041 11.9132 4.58061C11.9353 4.29294 12.2009 4.09378 12.4886 4.09378H13.0196C13.1967 4.09378 13.3516 4.22655 13.418 4.38145C13.4401 4.44784 13.4843 4.4921 13.5507 4.4921H14.2588C14.3474 4.4921 14.4137 4.40358 14.4137 4.31507C14.3474 3.67334 13.8384 3.18651 13.2188 3.098V2.4784C13.2188 2.38988 13.1524 2.3235 13.0639 2.3235H12.3558C12.2673 2.3235 12.2009 2.38988 12.2009 2.4784V3.12013C11.4043 3.2529 10.8068 3.98314 10.9174 4.84615C11.0059 5.59852 11.7141 6.17387 12.4886 6.17387Z" fill="white"/>
</svg>
