<svg width="22" height="21" viewBox="0 0 22 21" fill="none" xmlns="http://www.w3.org/2000/svg">
<path d="M10.8716 15.5191C11.3458 15.5128 11.8076 15.3665 12.1988 15.0985C12.5901 14.8304 12.8933 14.4527 13.0705 14.0128C13.2476 13.5729 13.2907 13.0905 13.1944 12.6261C13.098 12.1618 12.8665 11.7363 12.529 11.4031C12.1915 11.07 11.763 10.8441 11.2974 10.7539C10.8319 10.6637 10.35 10.7131 9.91245 10.896C9.47491 11.0789 9.10121 11.3871 8.83836 11.7818C8.57551 12.1765 8.43525 12.6402 8.4352 13.1144C8.44024 13.7561 8.69957 14.3696 9.15631 14.8204C9.61305 15.2712 10.2299 15.5225 10.8716 15.5191ZM10.8716 11.7712C11.1363 11.7774 11.3932 11.8616 11.6102 12.0132C11.8272 12.1648 11.9947 12.377 12.0917 12.6233C12.1887 12.8696 12.2108 13.1391 12.1554 13.3979C12.0999 13.6568 11.9693 13.8935 11.78 14.0785C11.5906 14.2635 11.3509 14.3885 11.0909 14.4379C10.8308 14.4873 10.5619 14.4588 10.318 14.3561C10.074 14.2534 9.86571 14.081 9.71924 13.8605C9.57277 13.64 9.4946 13.3812 9.49453 13.1165C9.49955 12.7558 9.64727 12.4117 9.90535 12.1596C10.1634 11.9074 10.5109 11.7678 10.8716 11.7712ZM14.1365 19.9703V18.4068C14.1356 18.2574 14.1053 18.1096 14.0472 17.972C13.989 17.8344 13.9043 17.7096 13.7978 17.6049C13.6912 17.5001 13.5651 17.4175 13.4265 17.3617C13.2879 17.3059 13.1397 17.278 12.9903 17.2797H12.6026L11.4267 18.4364C11.2787 18.5812 11.0798 18.6623 10.8727 18.6623C10.6656 18.6623 10.4667 18.5812 10.3187 18.4364L9.14071 17.2797H8.753C8.4531 17.2763 8.16408 17.3919 7.94925 17.6011C7.73442 17.8104 7.61128 18.0963 7.60682 18.3962V19.9703C7.60682 20.1108 7.55101 20.2455 7.45168 20.3449C7.35235 20.4442 7.21763 20.5 7.07715 20.5C6.93668 20.5 6.80196 20.4442 6.70263 20.3449C6.6033 20.2455 6.54749 20.1108 6.54749 19.9703V18.4068C6.54832 18.1183 6.60608 17.8328 6.71744 17.5666C6.82881 17.3005 6.9916 17.059 7.19649 16.8558C7.40137 16.6527 7.64432 16.492 7.91142 16.383C8.17852 16.2739 8.46451 16.2187 8.753 16.2203H9.35893C9.49774 16.2206 9.63087 16.2754 9.7297 16.3729L10.8716 17.5064L12.0136 16.3835C12.0619 16.333 12.1197 16.2927 12.1837 16.2647C12.2477 16.2367 12.3166 16.2216 12.3865 16.2203H12.9903C13.2788 16.2187 13.5648 16.2739 13.8319 16.383C14.099 16.492 14.3419 16.6527 14.5468 16.8558C14.7517 17.059 14.9145 17.3005 15.0258 17.5666C15.1372 17.8328 15.195 18.1183 15.1958 18.4068V19.9703C15.1958 20.1108 15.14 20.2455 15.0407 20.3449C14.9413 20.4442 14.8066 20.5 14.6661 20.5C14.5257 20.5 14.3909 20.4442 14.2916 20.3449C14.1923 20.2455 14.1365 20.1108 14.1365 19.9703ZM16.8229 13.5996C17.2971 13.5933 17.7589 13.447 18.1501 13.179C18.5413 12.911 18.8446 12.5332 19.0217 12.0933C19.1989 11.6534 19.242 11.171 19.1457 10.7066C19.0493 10.2423 18.8178 9.81678 18.4803 9.48365C18.1428 9.15052 17.7143 8.92464 17.2487 8.8344C16.7831 8.74416 16.3013 8.7936 15.8637 8.9765C15.4262 9.1594 15.0525 9.46759 14.7896 9.86232C14.5268 10.257 14.3865 10.7207 14.3865 11.1949C14.3915 11.8366 14.6508 12.4501 15.1076 12.9009C15.5643 13.3517 16.1812 13.603 16.8229 13.5996ZM16.8229 9.84958C17.0876 9.85583 17.3445 9.94002 17.5615 10.0916C17.7785 10.2432 17.946 10.4554 18.043 10.7017C18.1399 10.948 18.1621 11.2175 18.1066 11.4763C18.0512 11.7352 17.9206 11.9719 17.7313 12.1569C17.5419 12.3419 17.3022 12.4669 17.0421 12.5163C16.7821 12.5656 16.5132 12.5372 16.2692 12.4345C16.0252 12.3318 15.817 12.1594 15.6705 11.9389C15.524 11.7184 15.4459 11.4596 15.4458 11.1949C15.4503 10.834 15.5978 10.4896 15.856 10.2373C16.1142 9.98508 16.462 9.84562 16.8229 9.84958ZM21.1471 16.4873V18.0508C21.1471 18.1913 21.0913 18.326 20.9919 18.4254C20.8926 18.5247 20.7579 18.5805 20.6174 18.5805C20.4769 18.5805 20.3422 18.5247 20.2429 18.4254C20.1436 18.326 20.0877 18.1913 20.0877 18.0508V16.4873C20.0827 16.1878 19.9593 15.9024 19.7446 15.6936C19.5298 15.4848 19.2411 15.3695 18.9416 15.3729H18.5539L17.3759 16.5275C17.2276 16.6718 17.0288 16.7526 16.8219 16.7526C16.6149 16.7526 16.4162 16.6718 16.2678 16.5275L14.9352 15.2182C14.8378 15.1191 14.7832 14.9856 14.7834 14.8465C14.7835 14.7075 14.8382 14.5741 14.9358 14.4751C15.0335 14.3761 15.1661 14.3195 15.3051 14.3174C15.4441 14.3153 15.5783 14.368 15.6789 14.464L16.8229 15.5847L17.9649 14.4619C18.0644 14.366 18.1974 14.3127 18.3356 14.3136H18.9416C19.522 14.3102 20.0802 14.5371 20.4936 14.9446C20.907 15.352 21.142 15.9068 21.1471 16.4873ZM4.92037 13.5996C5.39457 13.5933 5.85632 13.447 6.24756 13.179C6.6388 12.911 6.94207 12.5332 7.1192 12.0933C7.29634 11.6534 7.33945 11.171 7.24311 10.7066C7.14677 10.2423 6.91528 9.81678 6.57775 9.48365C6.24022 9.15052 5.81173 8.92464 5.34616 8.8344C4.88058 8.74416 4.39873 8.7936 3.96118 8.9765C3.52364 9.1594 3.14994 9.46759 2.88709 9.86232C2.62424 10.257 2.48398 10.7207 2.48393 11.1949C2.48897 11.8366 2.7483 12.4501 3.20504 12.9009C3.66178 13.3517 4.27865 13.603 4.92037 13.5996ZM4.92037 9.84958C5.18501 9.85583 5.44193 9.94002 5.65895 10.0916C5.87597 10.2432 6.04345 10.4554 6.14042 10.7017C6.23739 10.948 6.25954 11.2175 6.20409 11.4763C6.14865 11.7352 6.01808 11.9719 5.82872 12.1569C5.63937 12.3419 5.39965 12.4669 5.13959 12.5163C4.87952 12.5656 4.61067 12.5372 4.36668 12.4345C4.1227 12.3318 3.91444 12.1594 3.76797 11.9389C3.6215 11.7184 3.54333 11.4596 3.54326 11.1949C3.54773 10.834 3.69526 10.4896 3.95347 10.2373C4.21167 9.98508 4.55943 9.84562 4.92037 9.84958ZM1.12588 18.5805C0.985408 18.5805 0.850687 18.5247 0.751356 18.4254C0.652025 18.326 0.596222 18.1913 0.596222 18.0508V16.4873C0.60126 15.9068 0.836254 15.352 1.24969 14.9446C1.66312 14.5371 2.22125 14.3102 2.80173 14.3136H3.40766C3.54646 14.3139 3.6796 14.3686 3.77843 14.4661L4.92037 15.5847L6.06232 14.4619C6.16285 14.3658 6.29711 14.3132 6.43611 14.3153C6.57511 14.3174 6.70772 14.374 6.80533 14.473C6.90293 14.572 6.9577 14.7054 6.95782 14.8444C6.95794 14.9834 6.9034 15.1169 6.80597 15.2161L5.47546 16.5254C5.32714 16.6697 5.12837 16.7505 4.92143 16.7505C4.7145 16.7505 4.51573 16.6697 4.36741 16.5254L3.18944 15.3729H2.80173C2.50219 15.3695 2.21349 15.4848 1.99872 15.6936C1.78394 15.9024 1.66056 16.1878 1.65554 16.4873V18.0508C1.65554 18.1913 1.59974 18.326 1.50041 18.4254C1.40108 18.5247 1.26636 18.5805 1.12588 18.5805ZM11.4013 1.02966V1.51271C11.7342 1.59469 12.0433 1.75352 12.3038 1.97648C12.5643 2.19943 12.7689 2.48032 12.9013 2.79661C12.9399 2.92193 12.9306 3.05711 12.8752 3.17598C12.8199 3.29484 12.7224 3.38895 12.6017 3.44009C12.4809 3.49124 12.3455 3.49578 12.2216 3.45283C12.0977 3.40989 11.9942 3.32252 11.931 3.20763C11.8439 2.99881 11.6967 2.82061 11.5081 2.69573C11.3194 2.57084 11.0979 2.50492 10.8716 2.50636C10.3229 2.50636 9.7297 2.81992 9.7297 3.50847C9.7297 3.68856 9.7297 4.23517 10.9882 4.52331H11.0051C12.7996 4.94703 13.0687 5.98305 13.0687 6.5678C13.069 7.04446 12.9021 7.50614 12.597 7.87238C12.292 8.23863 11.8681 8.48623 11.3992 8.57203V9.04661C11.3992 9.18709 11.3434 9.32181 11.2441 9.42114C11.1447 9.52047 11.01 9.57627 10.8695 9.57627C10.7291 9.57627 10.5943 9.52047 10.495 9.42114C10.3957 9.32181 10.3399 9.18709 10.3399 9.04661V8.5678C10.0065 8.48612 9.69703 8.32742 9.43615 8.10445C9.17528 7.88147 8.97033 7.60044 8.83775 7.2839C8.79211 7.15642 8.79702 7.0163 8.85149 6.89233C8.90595 6.76836 9.00583 6.66995 9.13059 6.61734C9.25535 6.56472 9.39553 6.56188 9.52232 6.60941C9.64912 6.65694 9.75289 6.75122 9.81232 6.87288C9.89937 7.0817 10.0466 7.2599 10.2352 7.38478C10.4239 7.50967 10.6454 7.57559 10.8716 7.57415C11.4204 7.57415 12.0136 7.26059 12.0136 6.57203C12.0136 6.39195 12.0136 5.84534 10.7551 5.5572H10.7382C8.94368 5.13348 8.67461 4.09958 8.67461 3.51271C8.67318 3.03563 8.83933 2.57319 9.14407 2.20611C9.44881 1.83903 9.87278 1.59062 10.342 1.50424V1.02966C10.342 0.889186 10.3978 0.754465 10.4971 0.655134C10.5964 0.555803 10.7312 0.5 10.8716 0.5C11.0121 0.5 11.1468 0.555803 11.2462 0.655134C11.3455 0.754465 11.4013 0.889186 11.4013 1.02966Z" fill="white"/>
</svg>
