<svg xmlns="http://www.w3.org/2000/svg" viewBox="0 0 50.4 63"><g fill="#fff"><path d="M12.317 26.104c0-2.306 1.098-4.627 3.497-5.812l-9.281-.007C2.26 20.285 0 23.164 0 26.104v13.697h3.991V26.388h1.923l.004 13.447h6.398V26.104zm11.891-6.383l-6.225-6.225 6.225-6.225 6.224 6.225-6.224 6.225zm-4.126-6.225l4.125 4.125 4.125-4.125-4.125-4.125-4.125 4.125zM31.905 9.71l6.264 9.375 6.263-9.375z"/><path d="M20.31 19.804c-4.465 0-6.8 3.088-6.8 6.139v13.858h12.743V25.943c0-3.213 1.836-4.749 1.91-4.809l1.662-1.322-9.515-.008zm4.457 6.139v12.491l-5.134-.011V26.164h-1.96V38.42l-2.68-.004V25.943c0-2.243 1.664-4.655 5.315-4.655l5.79.005c-.648.984-1.331 2.525-1.331 4.65z"/><path d="M43.801 20.285h-9.966c-4.273 0-6.534 2.879-6.534 5.819v13.697h3.991V26.388h1.923l.005 13.413h11.252l-.002-13.413h1.871l.003 13.416h3.989l-.001-13.7c0-2.94-2.261-5.819-6.531-5.819z"/><circle cx="10.963" cy="13.465" r="4.678"/></g></svg>