<svg width="24" height="23" viewBox="0 0 24 23" fill="none" xmlns="http://www.w3.org/2000/svg">
<path d="M23.2601 10.7011C23.2602 10.6934 23.2624 10.6863 23.2624 10.6786H23.2574C23.2574 10.6354 23.2559 10.5918 23.2415 10.5486L20.5004 2.32516L21.3267 2.07724C21.5441 2.01186 21.6677 1.78284 21.6019 1.56585C21.5369 1.34846 21.3075 1.22532 21.0909 1.2903L12.72 3.80171L12.583 0.784127C12.563 0.345437 12.2016 0 11.7624 0C11.3232 0 10.9618 0.345437 10.9418 0.784127L10.7782 4.38429L2.19804 6.95848C1.98065 7.02386 1.85712 7.25288 1.9229 7.46987C1.97584 7.64795 2.13948 7.76266 2.31596 7.76266C2.35527 7.76266 2.39457 7.75705 2.43388 7.74541L2.90792 7.60318L0.283247 15.4772C0.268908 15.5204 0.267354 15.564 0.267404 15.6071H0.26239C0.26239 15.6149 0.264596 15.622 0.264646 15.6297C0.265097 15.637 0.266 15.6438 0.266802 15.6511C0.290968 17.445 1.74852 18.8929 3.5481 18.8929C5.34774 18.8929 6.80524 17.445 6.82941 15.6511C6.83021 15.6438 6.83111 15.637 6.83156 15.6297C6.83161 15.622 6.83382 15.6149 6.83382 15.6071H6.82881C6.82886 15.564 6.8273 15.5204 6.81296 15.4772L4.07188 7.25398L10.7387 5.25385L10.1204 18.8556L10.1201 19.1007C9.08608 19.3721 8.28721 19.8935 7.90673 20.5357H6.4231C5.74261 20.5357 5.19096 21.0874 5.19096 21.7679V23H18.3338V21.7679C18.3338 21.0874 17.7822 20.5357 17.1017 20.5357H15.6181C15.2376 19.8936 14.4391 19.3724 13.4052 19.1009V18.8929L12.7584 4.64791L19.3366 2.67431L16.7118 10.5486C16.6975 10.5918 16.6959 10.6354 16.696 10.6786H16.691C16.691 10.6863 16.6932 10.6934 16.6932 10.7011C16.6937 10.7085 16.6946 10.7152 16.6954 10.7225C16.7195 12.5165 18.1771 13.9643 19.9767 13.9643C21.7763 13.9643 23.2338 12.5165 23.258 10.7225C23.2588 10.7152 23.2597 10.7085 23.2601 10.7011ZM3.5481 18.0714C2.47715 18.0714 1.56362 17.3848 1.2246 16.4286H5.87166C5.53264 17.3848 4.61906 18.0714 3.5481 18.0714ZM1.10628 15.6071L3.5481 8.28087L5.98993 15.6071H1.10628ZM17.1017 21.3571C17.3281 21.3571 17.5124 21.5414 17.5124 21.7679V22.1786H6.01239V21.7679C6.01239 21.5414 6.19664 21.3571 6.4231 21.3571H17.1017ZM8.97087 20.5357C9.53966 20.0732 10.5526 19.7143 11.7624 19.7143C12.9722 19.7143 13.9852 20.0732 14.5539 20.5357H8.97087ZM11.7624 18.8929C11.481 18.8929 11.2064 18.9102 10.941 18.9425V18.8929L11.7624 0.821429L12.5838 18.8929V18.9425C12.3183 18.9102 12.0438 18.8929 11.7624 18.8929ZM19.9767 3.35229L22.4185 10.6786H17.5349L19.9767 3.35229ZM19.9767 13.1429C18.9057 13.1429 17.9922 12.4562 17.6532 11.5H22.3002C21.9612 12.4562 21.0476 13.1429 19.9767 13.1429Z" fill="white"/>
</svg>
