<svg width="100%" height="100%" viewBox="0 0 2134 2134" version="1.1" xmlns="http://www.w3.org/2000/svg"
  xmlns:xlink="http://www.w3.org/1999/xlink" xml:space="preserve"
  style="fill-rule:evenodd;clip-rule:evenodd;stroke-linejoin:round;stroke-miterlimit:2;">
  <path
    d="M1820.91,312.419c-201.465,-201.465 -469.32,-312.419 -754.232,-312.419l-0.033,0c-284.912,0 -552.767,110.954 -754.231,312.419c-201.465,201.464 -312.419,469.336 -312.419,754.248c0,284.912 110.954,552.783 312.419,754.248c201.464,201.465 469.336,312.418 754.248,312.418c284.912,0 552.783,-110.953 754.248,-312.418c201.465,-201.465 312.418,-469.336 312.418,-754.248c0,-284.912 -110.953,-552.784 -312.418,-754.248Zm69.677,1209.73l-312.19,0c41.829,-122.559 67.024,-255.257 72.9,-392.985l354.899,0c-9.326,141.797 -50.179,275.097 -115.609,392.985Zm-823.925,476.937c-133.041,-79.167 -243.376,-201.872 -322.738,-351.937l645.475,0c-79.362,150.065 -189.697,272.77 -322.737,351.937Zm-379.232,-476.937c-45.964,-120.59 -73.828,-253.744 -80.274,-392.985l919.011,0c-6.445,139.241 -34.326,272.396 -80.29,392.985l-758.447,0Zm-560.303,-392.985l354.899,0c5.876,137.728 31.071,270.426 72.901,392.985l-312.191,0c-65.43,-117.888 -106.283,-251.188 -115.609,-392.985Zm115.609,-517.985l312.191,0c-41.83,122.558 -67.025,255.257 -72.901,392.985l-354.899,0c9.326,-141.797 50.179,-275.098 115.609,-392.985Zm823.926,-476.937c133.04,79.166 243.375,201.872 322.737,351.937l-645.475,0c79.362,-150.065 189.697,-272.771 322.738,-351.937Zm379.231,476.937c45.964,120.589 73.829,253.743 80.274,392.985l-919.011,0c6.446,-139.242 34.327,-272.396 80.29,-392.985l758.447,0Zm560.303,392.985l-354.899,0c-5.876,-137.728 -31.071,-270.427 -72.9,-392.985l312.19,0c65.43,117.887 106.283,251.188 115.609,392.985Zm-477.848,-517.985c-59.408,-128.321 -138.444,-241.716 -233.333,-333.122c205.957,51.497 385.302,170.947 512.63,333.122l-279.297,0Zm-690.039,-333.122c-94.89,91.406 -173.926,204.801 -233.334,333.122l-279.296,0c127.327,-162.175 306.673,-281.625 512.63,-333.122Zm-233.334,1494.09c59.408,128.32 138.444,241.715 233.334,333.121c-205.957,-51.497 -385.303,-170.947 -512.63,-333.121l279.296,0Zm690.04,333.121c94.889,-91.406 173.925,-204.817 233.333,-333.121l279.297,0c-127.328,162.174 -306.673,281.624 -512.63,333.121Z"
    style="fill:#fff;fill-rule:nonzero;" />
</svg>