<svg width="18" height="24" viewBox="0 0 18 24" fill="none" xmlns="http://www.w3.org/2000/svg">
<path d="M11.9019 15.0596C10.9969 15.0596 10.1417 15.4073 9.49391 16.0387C9.29022 16.237 9.2861 16.5626 9.48439 16.766C9.68268 16.9695 10.0083 16.9738 10.2117 16.7756C10.6667 16.3324 11.2669 16.0884 11.9019 16.0884C13.2377 16.0884 14.3246 17.1752 14.3246 18.511C14.3246 19.8468 13.2377 20.9339 11.9019 20.9339C10.5661 20.9339 9.47925 19.8468 9.47925 18.511C9.47925 18.3585 9.49339 18.2063 9.52142 18.0586C9.57415 17.7796 9.39052 17.5103 9.11148 17.4579C8.83321 17.4041 8.56342 17.5885 8.5107 17.8678C8.47109 18.0782 8.45078 18.2947 8.45078 18.511C8.45078 20.4142 9.99901 21.9627 11.9022 21.9627C13.8053 21.9627 15.3535 20.4142 15.3535 18.511C15.3535 16.6079 13.8051 15.0596 11.9019 15.0596Z" fill="white"/>
<path d="M12.139 19.3402C11.8656 19.4181 11.7074 19.7025 11.7853 19.9759C11.8496 20.202 12.0556 20.3496 12.2797 20.3496C12.3262 20.3496 12.3738 20.3432 12.4208 20.3298C13.2289 20.0994 13.7929 19.3515 13.7929 18.511C13.7929 17.4684 12.9447 16.6199 11.9019 16.6199C10.8592 16.6199 10.011 17.4684 10.011 18.511C10.011 18.897 10.1268 19.2684 10.3454 19.585C10.5069 19.8185 10.8276 19.8766 11.0609 19.7156C11.2946 19.5539 11.353 19.2337 11.1915 18.9999C11.0922 18.8561 11.0398 18.6872 11.0398 18.5113C11.0398 18.0357 11.4266 17.6489 11.9019 17.6489C12.3774 17.6489 12.7642 18.0357 12.7642 18.5113C12.7642 18.8945 12.507 19.2355 12.139 19.3402Z" fill="white"/>
<path d="M3.00213 12.5145H4.29318C4.57711 12.5145 4.80755 12.2841 4.80755 12.0001C4.80755 11.7162 4.57711 11.4858 4.29318 11.4858H3.00213C2.7182 11.4858 2.48776 11.7162 2.48776 12.0001C2.48776 12.2841 2.71794 12.5145 3.00213 12.5145Z" fill="white"/>
<path d="M5.90313 12.5145H14.2425C14.5264 12.5145 14.7569 12.2841 14.7569 12.0001C14.7569 11.7162 14.5264 11.4858 14.2425 11.4858H5.90313C5.6192 11.4858 5.38876 11.7162 5.38876 12.0001C5.38876 12.2841 5.61894 12.5145 5.90313 12.5145Z" fill="white"/>
<path d="M3.00213 15.7697H5.3754C5.65933 15.7697 5.88977 15.5393 5.88977 15.2553C5.88977 14.9714 5.65933 14.741 5.3754 14.741H3.00213C2.7182 14.741 2.48776 14.9714 2.48776 15.2553C2.48776 15.5393 2.71794 15.7697 3.00213 15.7697Z" fill="white"/>
<path d="M7.76511 14.741H7.11135C6.82742 14.741 6.59698 14.9714 6.59698 15.2553C6.59698 15.5393 6.82742 15.7697 7.11135 15.7697H7.76511C8.04904 15.7697 8.27947 15.5393 8.27947 15.2553C8.27947 14.9714 8.04904 14.741 7.76511 14.741Z" fill="white"/>
<path d="M6.56487 17.9963H3.00213C2.7182 17.9963 2.48776 18.2267 2.48776 18.5106C2.48776 18.7946 2.7182 19.025 3.00213 19.025H6.56487C6.8488 19.025 7.07924 18.7946 7.07924 18.5106C7.07924 18.2267 6.8488 17.9963 6.56487 17.9963Z" fill="white"/>
<path d="M8.60791 8.67267C8.21057 8.67267 7.86312 8.3908 7.78236 8.00271C7.72449 7.7247 7.45291 7.54724 7.17387 7.60408C6.89585 7.6622 6.71737 7.93456 6.77523 8.21257C6.92003 8.9067 7.44725 9.44679 8.10718 9.6317V9.89428C8.10718 10.1782 8.33762 10.4086 8.62155 10.4086C8.90547 10.4086 9.13591 10.1782 9.13591 9.89428V9.62424C9.91183 9.39561 10.4802 8.67807 10.4802 7.82911C10.4802 6.79653 9.64667 5.95683 8.62232 5.95683C8.15733 5.95683 7.79316 5.58648 7.79316 5.11352C7.79316 4.64828 8.17148 4.26997 8.63672 4.26997C9.03407 4.26997 9.38152 4.55184 9.46227 4.93993C9.5204 5.21794 9.79275 5.39643 10.0708 5.33856C10.3488 5.28069 10.5273 5.00808 10.4694 4.73007C10.3246 4.03542 9.79661 3.49482 9.13591 3.31042V3.04732C9.13591 2.76339 8.90547 2.53296 8.62155 2.53296C8.33762 2.53296 8.10718 2.76339 8.10718 3.04732V3.31865C7.33203 3.5478 6.76443 4.26508 6.76443 5.11352C6.76443 6.14585 7.59796 6.98555 8.62232 6.98555C9.0873 6.98555 9.45147 7.3559 9.45147 7.82911C9.45147 8.29435 9.07316 8.67267 8.60791 8.67267Z" fill="white"/>
<path d="M16.9434 4.74374L12.7979 0.578421C12.7015 0.481464 12.5703 0.426941 12.4332 0.426941H2.08319C1.00328 0.426941 0.125 1.30548 0.125 2.38513V21.6149C0.125 22.6945 1.00353 23.5731 2.08319 23.5731H15.1617C16.2416 23.5731 17.1199 22.6945 17.1199 21.6149V5.1843C17.1217 5.16732 17.125 5.15086 17.125 5.13338C17.125 4.97701 17.0538 4.83813 16.9434 4.74374ZM15.3636 4.61901H13.7598C13.312 4.61901 12.9476 4.25484 12.9476 3.80709V2.20304L15.3636 4.61901ZM15.1614 22.5446H2.08319C1.57062 22.5446 1.15373 22.1277 1.15373 21.6152V2.38513C1.15373 1.87256 1.57088 1.45567 2.08319 1.45567H11.9189V3.80709C11.9189 4.82193 12.7447 5.64774 13.7598 5.64774H16.0911V21.6152C16.0911 22.1277 15.674 22.5446 15.1614 22.5446Z" fill="white"/>
</svg>
