<svg width="17" height="19" viewBox="0 0 17 19" fill="none" xmlns="http://www.w3.org/2000/svg">
<path d="M8.66314 18.0074C8.34408 18.0074 8.05402 17.9186 7.79297 17.7706L1.70181 14.1587C1.15071 13.8627 0.802643 13.2706 0.802643 12.6192V5.42516C0.802643 4.77385 1.15071 4.15214 1.70181 3.85609L7.79297 0.244243C8.34408 -0.0814145 9.01121 -0.0814145 9.56231 0.244243L15.6535 3.85609C16.2046 4.18174 16.5526 4.77385 16.5526 5.42516V12.6192C16.5526 13.2706 16.2046 13.8627 15.6535 14.1883L9.56231 17.7706C9.30126 17.9482 8.9822 18.0074 8.66314 18.0074ZM8.69215 1.39885C8.63413 1.39885 8.54712 1.42845 8.48911 1.45806L2.36894 5.0403C2.25292 5.09951 2.1659 5.27714 2.1659 5.39556V12.5896C2.1659 12.7377 2.25292 12.8857 2.36894 12.9449L8.4601 16.5567C8.57612 16.616 8.75016 16.616 8.86618 16.5567L14.9863 12.9449C15.1024 12.8857 15.1894 12.7377 15.1894 12.5896V5.42516C15.1894 5.27714 15.1024 5.12911 14.9863 5.0699L8.89518 1.45806C8.80817 1.39885 8.75016 1.39885 8.69215 1.39885Z" fill="white"/>
<path d="M8.69215 15.4614C8.37309 15.4614 8.08303 15.3725 7.82198 15.2245L3.87723 12.9153C3.32612 12.5897 2.97806 11.9975 2.97806 11.3462V8.17847H14.4062V11.3462C14.4062 11.9679 14.0582 12.5897 13.5071 12.9153L9.56231 15.2245C9.30126 15.3725 8.9822 15.4614 8.69215 15.4614ZM4.34132 9.54031V11.3166C4.34132 11.4647 4.42833 11.6127 4.54436 11.6719L8.48911 13.9811C8.60513 14.0403 8.77916 14.0403 8.89519 13.9811L12.8399 11.6719C12.956 11.6127 13.043 11.435 13.043 11.3166V9.54031H4.34132Z" fill="white"/>
</svg>
