<svg width="23" height="22" viewBox="0 0 23 22" fill="none" xmlns="http://www.w3.org/2000/svg">
<path d="M21.7736 8.06744C21.0781 7.62698 20.1972 7.81243 19.7335 8.5079L18.1108 10.942C17.7399 10.8957 17.3458 10.9884 17.0212 11.2434L13.7757 14.0717C13.312 14.4889 13.0107 15.0453 12.9179 15.648L12.4775 18.6386V21.49C12.4775 21.745 12.6861 21.9768 12.9643 21.9768H16.9285C17.1835 21.9768 17.4153 21.7682 17.4153 21.49V19.0095L19.7799 17.1549C20.5913 16.529 21.1477 15.6249 21.3795 14.628L22.469 9.62065C22.5618 9.01791 22.3068 8.39199 21.7736 8.06744ZM13.4048 21.0263V19.2645H16.4185V21.0263H13.4048ZM20.4058 14.4426C20.2435 15.2308 19.7799 15.9262 19.154 16.4362L16.743 18.314H13.4743L13.8452 15.8103C13.9148 15.4162 14.1002 15.0685 14.4016 14.8135L17.6703 11.9621C17.8094 11.8462 18.018 11.8462 18.1571 11.9621C18.2962 12.078 18.3194 12.2866 18.2267 12.4489L17.6471 13.3762C17.4153 13.7239 17.1603 14.0485 16.8357 14.3498L15.9316 15.1844C15.7462 15.3699 15.723 15.6712 15.9085 15.8567C16.0939 16.0421 16.3953 16.0653 16.5807 15.8799L17.4849 15.0453C17.8558 14.6976 18.1803 14.3035 18.4585 13.8862L19.0381 12.9589C19.3394 12.4721 19.2931 11.8462 18.9453 11.4289L20.5217 9.04109C20.684 8.78609 21.0086 8.73973 21.2636 8.87882C21.449 8.99473 21.5418 9.22655 21.4954 9.45838L20.4058 14.4426Z" fill="white"/>
<path d="M9.99697 15.6481C9.90424 15.0453 9.60287 14.4658 9.13923 14.0717L5.87052 11.2434C5.56915 10.9884 5.17506 10.8725 4.78096 10.942L3.1582 8.5079C2.71773 7.83562 1.81362 7.65016 1.11815 8.06744C0.58496 8.39199 0.329955 9.0411 0.445866 9.64384L1.53543 14.6512C1.74407 15.6481 2.32363 16.5522 3.13501 17.1781L5.49961 19.0327V21.5132C5.49961 21.7682 5.70825 22 5.98644 22H9.95061C10.2056 22 10.4374 21.7914 10.4374 21.5132V18.5922L9.99697 15.6481ZM3.76093 16.4131C3.13501 15.9262 2.67137 15.2076 2.50909 14.4194L1.41952 9.4352C1.37316 9.22656 1.46589 8.99473 1.65135 8.85564C1.90635 8.69336 2.2309 8.76291 2.39318 9.01792L3.96958 11.4057C3.62184 11.8462 3.57548 12.4489 3.87685 12.9357L4.4564 13.863C4.73459 14.3035 5.05914 14.6744 5.43006 15.0221L6.33417 15.8567C6.51963 16.0422 6.821 16.019 7.00646 15.8335C7.19191 15.6481 7.16873 15.3467 6.98327 15.1612L6.07916 14.3267C5.77779 14.0485 5.49961 13.7239 5.26778 13.353L4.68823 12.4257C4.5955 12.2634 4.61868 12.0548 4.75777 11.9389C4.89687 11.823 5.10551 11.823 5.2446 11.9389L8.51331 14.7903C8.81468 15.0453 9.00013 15.4162 9.06968 15.7871L9.46378 18.2908H6.17189L3.76093 16.4131ZM6.49645 21.0263V19.2645H9.51014V21.0263H6.49645Z" fill="white"/>
<path d="M17.3689 5.91149C17.3689 2.64278 14.7261 0 11.4574 0C8.18874 0 5.54596 2.64278 5.54596 5.91149C5.54596 9.18019 8.18874 11.8462 11.4574 11.8462C14.7261 11.8462 17.3689 9.18019 17.3689 5.91149ZM11.4574 10.8725C8.72193 10.8725 6.49643 8.647 6.49643 5.91149C6.49643 3.17597 8.72193 0.950474 11.4574 0.950474C14.193 0.950474 16.4185 3.17597 16.4185 5.91149C16.4185 8.647 14.193 10.8725 11.4574 10.8725Z" fill="white"/>
<path d="M11.6661 5.44783H11.2256C10.9243 5.44783 10.6461 5.23919 10.5765 4.93782C10.507 4.54373 10.8083 4.19599 11.2024 4.19599H11.782C11.9906 4.19599 12.1761 4.33508 12.2457 4.52054C12.2688 4.61327 12.3384 4.65964 12.4311 4.65964H13.0338C13.1498 4.65964 13.2425 4.56691 13.2193 4.451C13.1266 3.82507 12.5934 3.31506 11.9675 3.24552V2.57323C11.9675 2.4805 11.8747 2.38777 11.782 2.38777H11.2024C11.1097 2.38777 11.017 2.4805 11.017 2.57323V3.24552C10.2056 3.36143 9.57969 4.08008 9.64923 4.93782C9.71878 5.77239 10.4374 6.39831 11.272 6.39831H11.6893C11.9906 6.39831 12.2688 6.60695 12.3384 6.90832C12.4079 7.30242 12.1066 7.65015 11.7125 7.65015H11.1329C10.9243 7.65015 10.7388 7.51106 10.6693 7.3256C10.6461 7.23287 10.5765 7.18651 10.4838 7.18651H9.88106C9.76514 7.18651 9.67242 7.27924 9.6956 7.39515C9.78833 8.02107 10.3215 8.53108 10.9474 8.60063V9.27291C10.9474 9.36564 11.0402 9.45837 11.1329 9.45837H11.7125C11.8052 9.45837 11.8979 9.36564 11.8979 9.27291V8.60063C12.7093 8.48472 13.3352 7.76606 13.2657 6.90832C13.2193 6.05057 12.5007 5.44783 11.6661 5.44783Z" fill="white"/>
</svg>
