<svg width="17" height="18" viewBox="0 0 17 18" fill="none" xmlns="http://www.w3.org/2000/svg">
<g clip-path="url(#clip0)">
<path d="M8.61146 17.9999C8.31292 17.9999 8.01438 17.9093 7.7457 17.7583L1.56591 14.1342C1.02854 13.8321 0.670288 13.2281 0.670288 12.5939V5.37577C0.670288 4.74154 1.02854 4.13752 1.56591 3.8355L7.7457 0.211343C8.28307 -0.0906706 8.96971 -0.0906706 9.50709 0.211343L15.6869 3.8355C16.2242 4.13752 16.5825 4.74154 16.5825 5.37577V12.5939C16.5825 13.2281 16.2242 13.8321 15.6869 14.1342L9.50709 17.7583C9.20855 17.9093 8.91001 17.9999 8.61146 17.9999ZM8.61146 1.29859C8.5219 1.29859 8.46219 1.32879 8.37263 1.35899L2.19284 4.98315C2.04357 5.07376 1.95401 5.22476 1.95401 5.37577V12.5939C1.95401 12.7751 2.04357 12.8959 2.16299 12.9865L8.34278 16.6107C8.49205 16.7013 8.67117 16.7013 8.79059 16.6107L14.9704 12.9865C15.1196 12.8959 15.2092 12.7449 15.2092 12.5939V5.37577C15.2092 5.19456 15.1196 5.07376 15.0002 4.98315L8.82044 1.35899C8.76073 1.32879 8.70103 1.29859 8.61146 1.29859Z" fill="white"/>
<path d="M8.67117 13.2887C6.3127 13.2887 4.40204 11.3558 4.40204 8.96992C4.40204 6.58401 6.3127 4.65112 8.67117 4.65112C11.0296 4.65112 12.9104 6.61421 12.9104 9.00012C12.9104 11.386 10.9998 13.2887 8.67117 13.2887ZM8.67117 5.97998C7.02919 5.97998 5.71562 7.33904 5.71562 8.96992C5.71562 10.631 7.05905 11.9598 8.67117 11.9598C10.2833 11.9598 11.6267 10.6008 11.6267 8.96992C11.6267 7.33904 10.2833 5.97998 8.67117 5.97998Z" fill="white"/>
</g>
<defs>
<clipPath id="clip0">
<rect width="15.8824" height="18" fill="white" transform="translate(0.670288)"/>
</clipPath>
</defs>
</svg>
