<svg width="25" height="25" viewBox="0 0 25 25" fill="none" xmlns="http://www.w3.org/2000/svg">
<path fill-rule="evenodd" clip-rule="evenodd" d="M7.98776 1.8334C7.98776 0.822235 8.81046 0 9.82108 0H19.4461C19.5678 0 19.6842 0.0483398 19.7701 0.134277L24.3535 4.71765C24.4394 4.80359 24.4878 4.91989 24.4878 5.0416V20.1666C24.4878 21.1777 23.6651 22 22.6544 22H12.7453C12.9478 21.7097 13.1288 21.4034 13.2861 21.0833H22.6544C23.1602 21.0833 23.5712 20.6719 23.5712 20.1666V5.5H20.8212C19.8105 5.5 18.9878 4.6778 18.9878 3.66669V0.916687H9.82117C9.3154 0.916687 8.90445 1.32806 8.90445 1.8334V11.2622C8.60648 11.1781 8.30045 11.1133 7.98776 11.0692V1.8334ZM22.9229 4.58337L19.9044 1.56482V3.66669C19.9044 4.172 20.3153 4.58337 20.8211 4.58337H22.9229ZM10.7378 5.0416C10.7378 4.78827 10.9428 4.58331 11.1962 4.58331H16.6962C16.9495 4.58331 17.1544 4.78827 17.1544 5.0416C17.1544 5.29495 16.9495 5.5 16.6962 5.5H11.1962C10.9428 5.5 10.7378 5.29495 10.7378 5.0416ZM10.7378 7.7916C10.7378 7.5383 10.9428 7.33334 11.1962 7.33331H21.2794C21.5328 7.33331 21.7379 7.53827 21.7379 7.7916C21.7379 8.04495 21.5328 8.25 21.2794 8.25H11.1962C10.9428 8.25 10.7378 8.04495 10.7378 7.7916ZM10.7378 10.5417C10.7378 10.2884 10.9428 10.0834 11.1962 10.0834H21.2794C21.5327 10.0834 21.7378 10.2884 21.7379 10.5417C21.7379 10.795 21.5328 11.0001 21.2794 11.0001H11.1962C10.9428 11.0001 10.7378 10.795 10.7378 10.5417ZM14.4044 13.2917C14.4044 13.0384 14.6094 12.8334 14.8628 12.8334H21.2794C21.5327 12.8334 21.7378 13.0384 21.7378 13.2917C21.7378 13.545 21.5327 13.7501 21.2794 13.7501H14.8628C14.6094 13.7501 14.4044 13.545 14.4044 13.2917Z" fill="white"/>
<path fill-rule="evenodd" clip-rule="evenodd" d="M7 24.2179C10.434 24.2179 13.2179 21.434 13.2179 18C13.2179 14.566 10.434 11.7821 7 11.7821C3.56595 11.7821 0.782103 14.566 0.782103 18C0.782103 21.434 3.56595 24.2179 7 24.2179ZM7 25C10.866 25 14 21.866 14 18C14 14.134 10.866 11 7 11C3.13401 11 0 14.134 0 18C0 21.866 3.13401 25 7 25ZM9.72787 20.4598C10.3154 19.8087 10.6731 18.9461 10.6731 18C10.6731 15.9714 9.02862 14.3269 7.00002 14.3269C6.94852 14.3269 6.89727 14.328 6.84628 14.3301C6.89726 14.328 6.9485 14.3269 6.99999 14.3269C9.02859 14.3269 10.6731 15.9714 10.6731 18C10.6731 18.9461 10.3154 19.8087 9.72787 20.4598ZM7.21279 22.1298C7.14231 22.1333 7.07136 22.1351 6.99999 22.1351C4.71623 22.1351 2.86487 20.2838 2.86487 18C2.86487 16.4221 3.74872 15.0506 5.04835 14.3535C3.74873 15.0506 2.8649 16.4221 2.8649 18C2.8649 20.2838 4.71625 22.1351 7.00002 22.1351C7.07138 22.1351 7.14232 22.1333 7.21279 22.1298ZM10.4981 18C10.4981 19.932 8.93194 21.4981 6.99999 21.4981C5.06804 21.4981 3.50188 19.932 3.50188 18C3.50188 16.0681 5.06804 14.5019 6.99999 14.5019C8.93194 14.5019 10.4981 16.0681 10.4981 18ZM6.99999 22.3101C9.3804 22.3101 11.3101 20.3804 11.3101 18C11.3101 15.6196 9.3804 13.6899 6.99999 13.6899C4.61958 13.6899 2.68987 15.6196 2.68987 18C2.68987 20.3804 4.61958 22.3101 6.99999 22.3101ZM8.16739 18C8.16739 18.6448 7.64471 19.1675 6.99995 19.1675C6.35519 19.1675 5.83251 18.6448 5.83251 18C5.83251 17.3553 6.35519 16.8326 6.99995 16.8326C7.64471 16.8326 8.16739 17.3553 8.16739 18ZM6.99995 19.9343C8.06824 19.9343 8.93426 19.0683 8.93426 18C8.93426 16.9317 8.06824 16.0657 6.99995 16.0657C5.93166 16.0657 5.06564 16.9317 5.06564 18C5.06564 19.0683 5.93166 19.9343 6.99995 19.9343Z" fill="white"/>
</svg>
