<svg width="20" height="14" viewBox="0 0 20 14" fill="none" xmlns="http://www.w3.org/2000/svg">
<path d="M19.5447 8.41196C19.4393 8.25491 19.3586 8.15453 19.1871 8.01346L16.3969 5.58654C16.0676 5.30041 15.5792 5.30265 15.2112 5.56058V0.750682C15.2112 0.612108 15.0988 0.5 14.9605 0.5H5.05429C4.91597 0.5 4.80361 0.612357 4.80361 0.750682V5.56083C4.43558 5.30265 3.94695 5.30041 3.61762 5.58679L0.832653 8.00922C0.656127 8.15453 0.575229 8.25491 0.470113 8.41221C0.261627 8.72481 0.261627 8.98248 0.261627 9.25963V11.8918C0.261627 12.7787 1.04913 13.5 2.01715 13.5H7.61205C8.08345 13.5 8.46696 13.116 8.46696 12.6448C8.46696 12.4471 8.39955 12.2653 8.28694 12.1205H8.9913C9.4627 12.1205 9.84646 11.7367 9.84646 11.2653C9.84646 11.1375 9.8175 11.0164 9.76656 10.9073H10.2482C10.1975 11.0164 10.1688 11.1372 10.1688 11.2653C10.1688 11.737 10.5521 12.1205 11.0237 12.1205H11.7281C11.6152 12.2653 11.5476 12.4473 11.5476 12.6448C11.5476 13.116 11.9313 13.5 12.403 13.5H17.9974C18.9654 13.5 19.7529 12.7784 19.7529 11.8918V9.25514C19.7531 8.98248 19.7531 8.72481 19.5447 8.41196ZM15.2112 7.26666L15.6541 7.65167H15.2112V7.26666ZM5.30523 1.00161H14.7098V7.65167H11.5251C11.0537 7.65167 10.6699 8.03519 10.6699 8.50659C10.6699 8.70409 10.7376 8.88611 10.8504 9.03117H10.7728C10.7356 9.03117 10.6986 9.03442 10.6627 9.03891C10.6527 9.04016 10.6432 9.04191 10.6332 9.04341C10.604 9.0484 10.575 9.05464 10.5466 9.06238C10.5401 9.06413 10.5331 9.06538 10.5266 9.06763C10.4929 9.07786 10.4599 9.0901 10.428 9.10408C10.4205 9.10757 10.413 9.11132 10.4055 9.11482C10.38 9.12705 10.3558 9.14028 10.3318 9.15452C10.3241 9.15926 10.3164 9.16375 10.3089 9.1685C10.2799 9.18722 10.2517 9.20745 10.2255 9.22942C10.2215 9.23267 10.218 9.23641 10.2142 9.23966C10.1915 9.25913 10.1701 9.28011 10.1498 9.30183C10.1431 9.30907 10.1363 9.31606 10.1301 9.32355C10.1099 9.34652 10.0907 9.37074 10.0729 9.39596C10.0707 9.39945 10.0677 9.40245 10.0657 9.40595C10.0465 9.43416 10.0292 9.46437 10.013 9.49483C10.0113 9.49833 10.009 9.50133 10.0075 9.50482C10.0058 9.50133 10.0035 9.49833 10.002 9.49483C9.98604 9.46412 9.96881 9.43416 9.94933 9.40595C9.94709 9.40245 9.94409 9.39945 9.94209 9.39596C9.92436 9.37074 9.90539 9.34677 9.88491 9.32355C9.87867 9.31631 9.87168 9.30907 9.86519 9.30183C9.84472 9.28036 9.82349 9.25938 9.80077 9.23966C9.79678 9.23641 9.79328 9.23267 9.78979 9.22942C9.76332 9.20745 9.7351 9.18722 9.70614 9.1685C9.69865 9.1635 9.69091 9.15901 9.68317 9.15452C9.65945 9.14003 9.63473 9.12705 9.60976 9.11482C9.60202 9.11107 9.59478 9.10733 9.58704 9.10408C9.55508 9.0901 9.52238 9.07761 9.48867 9.06763C9.48193 9.06563 9.47543 9.06438 9.46869 9.06238C9.44023 9.05464 9.41127 9.0484 9.38205 9.04341C9.37231 9.04191 9.36258 9.04016 9.35259 9.03891C9.31664 9.03442 9.27993 9.03117 9.24248 9.03117H9.16508C9.27794 8.88611 9.34535 8.70409 9.34535 8.50659C9.34535 8.03519 8.96184 7.65167 8.49018 7.65167H5.30523V1.00161ZM4.80386 7.65167H4.36092L4.80386 7.26641V7.65167ZM8.9913 11.6186H5.43656C5.29799 11.6186 5.18588 11.731 5.18588 11.8693V11.8915C5.18588 11.9287 5.18338 11.9677 5.17814 12.0101C5.1694 12.0813 5.19187 12.1532 5.23931 12.2066C5.287 12.2603 5.35541 12.2913 5.42707 12.2913H7.6118C7.8068 12.2913 7.96535 12.4496 7.96535 12.6446C7.96535 12.8393 7.8068 12.9979 7.6118 12.9979H2.01715C1.32578 12.9979 0.763241 12.5018 0.763241 11.8915V9.25514C0.763241 9.01095 0.763241 8.87662 0.887333 8.6906C0.964735 8.57475 1.01617 8.50784 1.15674 8.39173L3.94695 5.96506C4.13147 5.80427 4.43508 5.85071 4.62334 6.06743C4.81185 6.28441 4.81535 6.59127 4.63108 6.75157L3.52573 7.71334C3.44683 7.78201 3.41862 7.89237 3.45532 7.99024C3.49178 8.08812 3.58541 8.15329 3.69028 8.15329H5.05429H8.48969C8.68469 8.15329 8.84324 8.31159 8.84324 8.50659C8.84324 8.70134 8.68469 8.86014 8.48969 8.86014H5.42732C5.35566 8.86014 5.28725 8.89085 5.23981 8.94428C5.19212 8.99796 5.1699 9.06937 5.17839 9.14053C5.18363 9.18423 5.18613 9.22343 5.18613 9.25988V9.28185C5.18613 9.42043 5.29848 9.53254 5.43681 9.53254H9.24198C9.43698 9.53254 9.59578 9.69083 9.59578 9.88584C9.59578 10.0808 9.43723 10.2394 9.24198 10.2394H5.43656C5.29799 10.2394 5.18588 10.3517 5.18588 10.4901V10.6564C5.18588 10.6571 5.18613 10.6581 5.18613 10.6589C5.18613 10.6596 5.18588 10.6604 5.18588 10.6614C5.18588 10.7997 5.29799 10.912 5.43656 10.912H8.9913C9.1863 10.912 9.34485 11.0706 9.34485 11.2653C9.34485 11.4601 9.1863 11.6186 8.9913 11.6186ZM9.92112 10.4054C9.92337 10.4024 9.92486 10.3989 9.92686 10.3959C9.95557 10.3577 9.98129 10.317 10.003 10.2743C10.0045 10.2716 10.0065 10.2696 10.0078 10.2671C10.009 10.2696 10.011 10.2716 10.0125 10.2743C10.0345 10.317 10.0597 10.3577 10.0887 10.3959C10.0909 10.3989 10.0924 10.4024 10.0946 10.4054H9.92112ZM19.2515 11.8915C19.2515 12.5018 18.689 12.9979 17.9976 12.9979H12.403C12.208 12.9979 12.0494 12.8393 12.0494 12.6446C12.0494 12.4496 12.208 12.2913 12.403 12.2913H14.5877C14.6594 12.2913 14.7278 12.2603 14.7755 12.2066C14.8229 12.1532 14.8451 12.0813 14.8366 12.0101C14.8314 11.9677 14.8289 11.929 14.8289 11.8915V11.8693C14.8289 11.7307 14.7168 11.6186 14.5782 11.6186H11.0237C10.8287 11.6186 10.6702 11.4601 10.6702 11.2651C10.6702 11.0703 10.8287 10.9118 11.0237 10.9118H14.5782C14.7168 10.9118 14.8289 10.7994 14.8289 10.6611V10.6561V10.4898C14.8289 10.3515 14.7168 10.2391 14.5782 10.2391H10.773C10.578 10.2391 10.4192 10.0806 10.4192 9.88559C10.4192 9.69083 10.578 9.53229 10.773 9.53229H14.578C14.7165 9.53229 14.8286 9.41993 14.8286 9.2816V9.25963C14.8286 9.22318 14.8314 9.18398 14.8364 9.14028C14.8449 9.06912 14.8226 8.99771 14.7752 8.94403C14.7278 8.89035 14.6591 8.85989 14.5877 8.85989H11.5251C11.3301 8.85989 11.1715 8.70134 11.1715 8.50634C11.1715 8.31134 11.3301 8.15304 11.5251 8.15304H14.9605H16.3245C16.4289 8.15304 16.5227 8.08787 16.5592 7.98999C16.5959 7.89212 16.5679 7.78176 16.489 7.7131L15.3834 6.75132C15.1992 6.59102 15.2024 6.28391 15.3907 6.06718C15.5797 5.85021 15.8833 5.80452 16.0678 5.96456L18.8628 8.39573C18.9983 8.50734 19.0495 8.57425 19.1272 8.68986C19.2513 8.87612 19.2513 9.01045 19.2513 9.25888V11.8915H19.2515Z" fill="white"/>
</svg>
