<svg width="20" height="20" viewBox="0 0 20 20" fill="none" xmlns="http://www.w3.org/2000/svg">
<path d="M0.810791 14.0541C0.810791 15.2462 1.78079 16.2162 2.97295 16.2162C3.55836 16.2162 4.11268 15.9749 4.51484 15.5654L7.86674 17.5008C7.8489 17.6119 7.83782 17.7243 7.83782 17.8378C7.83782 17.8843 7.84241 17.9292 7.84971 17.9797C7.92457 19.1127 8.8689 20 9.99998 20C11.1311 20 12.0754 19.1127 12.1513 17.9738C12.1575 17.9292 12.1621 17.8843 12.1621 17.8378C12.1621 17.7243 12.1511 17.6119 12.1332 17.5005L15.4851 15.5651C15.8873 15.9749 16.4416 16.2162 17.027 16.2162C18.2192 16.2162 19.1892 15.2462 19.1892 14.0541C19.1892 13.047 18.4959 12.2008 17.5624 11.9616V8.03838C18.4959 7.79919 19.1892 6.95297 19.1892 5.94595C19.1892 4.75378 18.2192 3.78378 17.027 3.78378C16.4416 3.78378 15.8873 4.02514 15.4851 4.43459L12.123 2.49351C12.1332 2.42865 12.147 2.36459 12.1516 2.29838C12.1575 2.25351 12.1621 2.20865 12.1621 2.16216C12.1621 0.97 11.1921 0 9.99998 0C8.80782 0 7.83782 0.97 7.83782 2.16216C7.83782 2.20865 7.84241 2.25351 7.84971 2.30405C7.85403 2.36757 7.86728 2.43027 7.87728 2.49324L4.51484 4.43459C4.11268 4.02514 3.55836 3.78378 2.97295 3.78378C1.78079 3.78378 0.810791 4.75378 0.810791 5.94595C0.810791 6.95297 1.50403 7.79919 2.43755 8.03838V11.9619C1.50403 12.2008 0.810791 13.047 0.810791 14.0541ZM9.45944 4.25081V7.90892C9.07403 8.00865 8.72971 8.21027 8.4589 8.48595L5.05512 6.52081C5.10593 6.33757 5.13512 6.14513 5.13512 5.94595C5.13512 5.75108 5.10728 5.55784 5.05539 5.37081L8.30512 3.49459C8.59566 3.86892 9.00052 4.13216 9.45944 4.25081ZM11.6948 3.49459L14.9446 5.37081C14.8927 5.55784 14.8648 5.75108 14.8648 5.94595C14.8648 6.14513 14.894 6.3373 14.9451 6.52081L11.5413 8.48595C11.2705 8.21027 10.9262 8.00865 10.5408 7.90892V4.25081C10.9994 4.13216 11.4046 3.86892 11.6948 3.49459ZM16.4813 11.9649C16.0975 12.0654 15.7543 12.267 15.4843 12.5424L12.0813 10.5776C12.1327 10.3935 12.1621 10.2003 12.1621 10C12.1621 9.79973 12.1327 9.60649 12.0813 9.42243L15.4843 7.45757C15.754 7.7327 16.0973 7.93432 16.4811 8.03486V11.9649H16.4813ZM10.5405 15.7489V12.0911C10.9259 11.9914 11.2703 11.7897 11.5411 11.5141L14.9448 13.4792C14.894 13.6624 14.8648 13.8549 14.8648 14.0541C14.8648 14.2489 14.8927 14.4422 14.9446 14.6292L11.6989 16.5032C11.407 16.1297 11.0008 15.8668 10.5405 15.7489ZM8.30106 16.5032L5.05539 14.6292C5.10728 14.4422 5.13512 14.2489 5.13512 14.0541C5.13512 13.8549 5.10593 13.6627 5.05484 13.4792L8.45863 11.5141C8.72944 11.7897 9.07376 11.9914 9.45917 12.0911V15.7489C8.99917 15.8668 8.59295 16.1297 8.30106 16.5032ZM9.99998 8.91892C10.5962 8.91892 11.0811 9.40378 11.0811 10C11.0811 10.5962 10.5962 11.0811 9.99998 11.0811C9.40376 11.0811 8.9189 10.5962 8.9189 10C8.9189 9.40378 9.40376 8.91892 9.99998 8.91892ZM4.51566 7.45757L7.91863 9.42243C7.86728 9.60649 7.83782 9.79973 7.83782 10C7.83782 10.2003 7.86728 10.3935 7.91863 10.5776L4.51566 12.5424C4.24593 12.2673 3.90268 12.0657 3.5189 11.9651V8.03513C3.90241 7.93459 4.24566 7.73297 4.51566 7.45757ZM2.97295 15.1351C2.37674 15.1351 1.89187 14.6503 1.89187 14.0541C1.89187 13.4614 2.3716 12.9784 2.96322 12.973C2.96782 12.973 2.97214 12.9732 2.97647 12.9732C3.57052 12.9751 4.05403 13.46 4.05403 14.0541C4.05403 14.2419 4.00403 14.4278 3.90944 14.5919C3.7162 14.927 3.35728 15.1351 2.97295 15.1351ZM11.0716 17.9086C11.034 18.4751 10.5635 18.9189 9.99998 18.9189C9.43647 18.9189 8.96593 18.4751 8.92836 17.9086C8.92647 17.8805 8.92322 17.8532 8.9189 17.8378C8.9189 17.7019 8.94484 17.5676 8.9962 17.4386C9.16133 17.0243 9.55511 16.7568 9.99998 16.7568C10.4448 16.7568 10.8386 17.0243 11.0038 17.4386C11.0551 17.5676 11.0811 17.7019 11.0805 17.8259C11.0767 17.8532 11.0735 17.8805 11.0716 17.9086ZM18.1081 14.0541C18.1081 14.6503 17.6232 15.1351 17.027 15.1351C16.6427 15.1351 16.2838 14.927 16.0905 14.5919C15.9959 14.4278 15.9459 14.2419 15.9459 14.0541C15.9459 13.46 16.4294 12.9751 17.0219 12.9732C17.0267 12.9732 17.0316 12.9732 17.0367 12.973C17.6284 12.9784 18.1081 13.4611 18.1081 14.0541ZM17.027 4.86486C17.6232 4.86486 18.1081 5.34973 18.1081 5.94595C18.1081 6.53865 17.6284 7.02162 17.0367 7.02703C17.0321 7.02703 17.0278 7.02676 17.0235 7.02676C16.4294 7.02486 15.9459 6.54 15.9459 5.94595C15.9459 5.75811 15.9959 5.57216 16.0905 5.40811C16.2838 5.07297 16.6427 4.86486 17.027 4.86486ZM9.99998 1.08108C10.5962 1.08108 11.0811 1.56595 11.0805 2.15027C11.0767 2.17757 11.0735 2.20486 11.0716 2.23297C11.0643 2.34324 11.0392 2.45297 10.9973 2.56C10.8338 2.97514 10.4424 3.24324 9.99998 3.24324C9.55782 3.24324 9.16647 2.97514 9.00295 2.56C8.96079 2.45324 8.93566 2.34324 8.92863 2.23324C8.92647 2.20486 8.92322 2.17757 8.9189 2.16216C8.9189 1.56595 9.40376 1.08108 9.99998 1.08108ZM1.89187 5.94595C1.89187 5.34973 2.37674 4.86486 2.97295 4.86486C3.35728 4.86486 3.7162 5.07297 3.90944 5.40811C4.00403 5.57216 4.05403 5.75811 4.05403 5.94595C4.05403 6.54 3.57052 7.02486 2.97809 7.02676C2.97322 7.02676 2.96836 7.02676 2.96322 7.02703C2.3716 7.02162 1.89187 6.53892 1.89187 5.94595Z" fill="white"/>
</svg>
