<svg width="17" height="14" viewBox="0 0 17 14" fill="none" xmlns="http://www.w3.org/2000/svg">
<path d="M3.03502 6.42962L4.79212 8.34642C4.88583 8.54312 4.74184 8.76922 4.52242 8.76922H3.52816C4.27785 10.9918 6.40122 12.5971 8.89486 12.5971C10.6937 12.5971 12.2982 11.7628 13.3336 10.4672C13.4479 10.3248 13.6239 10.2434 13.809 10.2434H13.8227C14.3301 10.2434 14.6181 10.8222 14.3027 11.2179C13.041 12.8006 11.0845 13.8157 8.89258 13.8157C5.71324 13.8157 3.02989 11.6746 2.23906 8.77148H1.19451C0.975092 8.77148 0.82881 8.54539 0.924808 8.34868L2.66813 6.4297C2.77555 6.20134 2.9276 6.20352 3.03502 6.42962Z" fill="white"/>
<path d="M8.89474 0.184265C12.0741 0.184265 14.7574 2.32542 15.5483 5.22853H16.5951C16.8145 5.22853 16.9608 5.45463 16.8648 5.65133L15.196 7.51338C15.0886 7.73948 14.8846 7.73948 14.7749 7.51338L12.9952 5.65133C12.9015 5.45463 13.0455 5.22853 13.2649 5.22853H14.2592C13.5117 3.00598 11.3884 1.40068 8.89474 1.40068C7.09593 1.40068 5.49141 2.23498 4.45601 3.53053C4.34173 3.67297 4.16573 3.75436 3.98059 3.75436H3.96688C3.45947 3.75436 3.17147 3.17555 3.48689 2.77988C4.74857 1.20171 6.7028 0.184265 8.89474 0.184265Z" fill="white"/>
</svg>
