<svg width="100%" height="100%" viewBox="0 0 2134 1769" version="1.1" xmlns="http://www.w3.org/2000/svg" xmlns:xlink="http://www.w3.org/1999/xlink" xml:space="preserve" xmlns:serif="http://www.serif.com/" style="fill-rule:evenodd;clip-rule:evenodd;stroke-linejoin:round;stroke-miterlimit:2;"><g><path d="M2036.36,735.611c-29.091,0 -48.483,24.313 -48.483,60.775l0,790.104c0,36.467 -19.396,60.775 -48.483,60.775l-1745.46,0c-29.091,0 -48.483,-24.313 -48.483,-60.775l0,-790.104c0,-36.467 -19.396,-60.775 -48.483,-60.775c-29.088,0 -48.484,24.313 -48.484,60.775l0,790.104c0,103.322 63.03,182.331 145.455,182.331l1745.45,0c82.425,0 145.454,-79.009 145.454,-182.331l0,-790.104c0,-36.467 -19.396,-60.775 -48.488,-60.775Z" style="fill:#fff;fill-rule:nonzero;"/></g><g><path d="M1987.88,213.609l-1842.42,0c-82.425,0 -145.454,63.03 -145.454,145.455l0,310.304c0,67.875 48.483,126.058 111.517,140.604l761.212,169.696l0,155.15c0,29.091 19.396,48.483 48.483,48.483l290.909,0c29.091,0 48.483,-19.396 48.483,-48.483l0,-155.15l761.213,-169.696c63.033,-14.546 111.516,-72.729 111.516,-140.608l0,-310.305c0,-82.42 -63.029,-145.45 -145.454,-145.45Zm-824.241,872.725l-193.938,0l0,-193.937l193.938,0l0,193.937Zm872.724,-416.97c0,24.241 -14.545,43.637 -38.787,48.483l-736.971,164.85l0,-38.788c0,-29.091 -19.396,-48.483 -48.483,-48.483l-290.909,0c-29.091,0 -48.483,19.396 -48.483,48.483l0,38.788l-736.971,-164.846c-24.241,-4.85 -38.787,-24.242 -38.787,-48.483l0,-310.304c0,-29.092 19.396,-48.484 48.483,-48.484l1842.42,0c29.092,0 48.484,19.396 48.484,48.484l0,310.3Z" style="fill:#fff;fill-rule:nonzero;"/></g><g><path d="M1309.1,0l-484.85,0c-82.425,0 -145.454,63.029 -145.454,145.454l0,48.483c0,29.092 19.395,48.484 48.483,48.484c29.087,0 48.483,-19.396 48.483,-48.484l0,-48.483c0,-29.092 19.396,-48.483 48.484,-48.483l484.85,0c29.091,0 48.483,19.396 48.483,48.483l0,48.483c0,29.092 19.396,48.484 48.483,48.484c29.092,0 48.484,-19.396 48.484,-48.484l0,-48.483c0.008,-82.425 -63.021,-145.454 -145.446,-145.454Z" style="fill:#fff;fill-rule:nonzero;"/></g></svg>