<svg width="16" height="15" viewBox="0 0 16 15" fill="none" xmlns="http://www.w3.org/2000/svg">
<path d="M2.50726 4C1.40269 4 0.507263 3.10457 0.507263 2C0.507263 0.89543 1.40269 0 2.50726 0C3.61183 4.82822e-08 4.50726 0.89543 4.50726 2V2C4.506 3.10405 3.61131 3.99874 2.50726 4L2.50726 4ZM2.50726 0.5C1.67884 0.5 1.00726 1.17157 1.00726 2C1.00726 2.82843 1.67884 3.5 2.50726 3.5C3.33569 3.5 4.00726 2.82843 4.00726 2V2C4.00636 1.17195 3.33532 0.500905 2.50726 0.5V0.5Z" fill="white"/>
<path d="M13.5073 4C12.4027 4 11.5073 3.10457 11.5073 2C11.5073 0.89543 12.4027 0 13.5073 0C14.6118 4.82822e-08 15.5073 0.89543 15.5073 2V2C15.506 3.10405 14.6113 3.99874 13.5073 4L13.5073 4ZM13.5073 0.5C12.6788 0.5 12.0073 1.17157 12.0073 2C12.0073 2.82843 12.6788 3.5 13.5073 3.5C14.3357 3.5 15.0073 2.82843 15.0073 2V2C15.0064 1.17195 14.3353 0.500905 13.5073 0.5V0.5Z" fill="white"/>
<path d="M8.00726 4C6.90269 4 6.00726 3.10457 6.00726 2C6.00726 0.89543 6.90269 0 8.00726 0C9.11183 4.82822e-08 10.0073 0.89543 10.0073 2V2C10.006 3.10405 9.11131 3.99874 8.00726 4L8.00726 4ZM8.00726 0.5C7.17884 0.5 6.50726 1.17157 6.50726 2C6.50726 2.82843 7.17884 3.5 8.00726 3.5C8.83569 3.5 9.50726 2.82843 9.50726 2V2C9.50636 1.17195 8.83532 0.500905 8.00726 0.5V0.5Z" fill="white"/>
<path d="M8.00726 3C7.45498 3 7.00726 2.55228 7.00726 2C7.00726 1.44771 7.45498 1 8.00726 1C8.55955 1 9.00726 1.44771 9.00726 2V1.99998C9.00672 2.55204 8.55934 2.99944 8.00729 3L8.00726 3ZM8.00726 1.5C7.73112 1.5 7.50726 1.72386 7.50726 2C7.50726 2.27614 7.73112 2.5 8.00726 2.5C8.28341 2.5 8.50726 2.27614 8.50726 2V2.00001C8.50691 1.72401 8.28326 1.50036 8.00727 1.5L8.00726 1.5Z" fill="white"/>
<path d="M2.50726 9.5C1.40269 9.5 0.507263 8.60457 0.507263 7.5C0.507263 6.39543 1.40269 5.5 2.50726 5.5C3.61183 5.5 4.50726 6.39543 4.50726 7.5V7.5C4.506 8.60405 3.61131 9.49874 2.50726 9.5L2.50726 9.5ZM2.50726 6C1.67884 6 1.00726 6.67157 1.00726 7.5C1.00726 8.32843 1.67884 9 2.50726 9C3.33569 9 4.00726 8.32843 4.00726 7.5V7.5C4.00636 6.67195 3.33532 6.0009 2.50726 6V6Z" fill="white"/>
<path d="M13.5073 9.5C12.4027 9.5 11.5073 8.60457 11.5073 7.5C11.5073 6.39543 12.4027 5.5 13.5073 5.5C14.6118 5.5 15.5073 6.39543 15.5073 7.5V7.5C15.506 8.60405 14.6113 9.49874 13.5073 9.5L13.5073 9.5ZM13.5073 6C12.6788 6 12.0073 6.67157 12.0073 7.5C12.0073 8.32843 12.6788 9 13.5073 9C14.3357 9 15.0073 8.32843 15.0073 7.5V7.5C15.0064 6.67195 14.3353 6.0009 13.5073 6V6Z" fill="white"/>
<path d="M8.00726 9.5C6.90269 9.5 6.00726 8.60457 6.00726 7.5C6.00726 6.39543 6.90269 5.5 8.00726 5.5C9.11183 5.5 10.0073 6.39543 10.0073 7.5V7.5C10.006 8.60405 9.11131 9.49874 8.00726 9.5L8.00726 9.5ZM8.00726 6C7.17884 6 6.50726 6.67157 6.50726 7.5C6.50726 8.32843 7.17884 9 8.00726 9C8.83569 9 9.50726 8.32843 9.50726 7.5V7.5C9.50636 6.67195 8.83532 6.0009 8.00726 6V6Z" fill="white"/>
<path d="M2.50726 15C1.40269 15 0.507263 14.1046 0.507263 13C0.507263 11.8954 1.40269 11 2.50726 11C3.61183 11 4.50726 11.8954 4.50726 13V13C4.506 14.104 3.61131 14.9987 2.50726 15L2.50726 15ZM2.50726 11.5C1.67884 11.5 1.00726 12.1716 1.00726 13C1.00726 13.8284 1.67884 14.5 2.50726 14.5C3.33569 14.5 4.00726 13.8284 4.00726 13V13C4.00636 12.1719 3.33532 11.5009 2.50726 11.5V11.5Z" fill="white"/>
<path d="M13.5073 15C12.4027 15 11.5073 14.1046 11.5073 13C11.5073 11.8954 12.4027 11 13.5073 11C14.6118 11 15.5073 11.8954 15.5073 13V13C15.506 14.104 14.6113 14.9987 13.5073 15L13.5073 15ZM13.5073 11.5C12.6788 11.5 12.0073 12.1716 12.0073 13C12.0073 13.8284 12.6788 14.5 13.5073 14.5C14.3357 14.5 15.0073 13.8284 15.0073 13V13C15.0064 12.1719 14.3353 11.5009 13.5073 11.5V11.5Z" fill="white"/>
<path d="M8.00726 15C6.90269 15 6.00726 14.1046 6.00726 13C6.00726 11.8954 6.90269 11 8.00726 11C9.11183 11 10.0073 11.8954 10.0073 13V13C10.006 14.104 9.11131 14.9987 8.00726 15L8.00726 15ZM8.00726 11.5C7.17884 11.5 6.50726 12.1716 6.50726 13C6.50726 13.8284 7.17884 14.5 8.00726 14.5C8.83569 14.5 9.50726 13.8284 9.50726 13V13C9.50636 12.1719 8.83532 11.5009 8.00726 11.5V11.5Z" fill="white"/>
<path d="M6.25726 2.25H4.25726C4.11919 2.25 4.00726 2.13807 4.00726 2C4.00726 1.86193 4.11919 1.75 4.25726 1.75H6.25726V1.75C6.39533 1.75 6.50726 1.86193 6.50726 2C6.50726 2.13807 6.39533 2.25 6.25726 2.25Z" fill="white"/>
<path d="M6.25726 13.25H4.25726C4.11919 13.25 4.00726 13.1381 4.00726 13C4.00726 12.8619 4.11919 12.75 4.25726 12.75H6.25726C6.39533 12.75 6.50726 12.8619 6.50726 13C6.50726 13.1381 6.39533 13.25 6.25726 13.25Z" fill="white"/>
<path d="M13.5073 11.5C13.3693 11.5001 13.2573 11.3883 13.2573 11.2503C13.2573 11.2502 13.2573 11.2501 13.2573 11.25V9.25L13.2573 9.25C13.2573 9.11193 13.3692 9 13.5073 9C13.6453 9 13.7573 9.11193 13.7573 9.25V11.25V11.25C13.7573 11.388 13.6455 11.4999 13.5076 11.5C13.5075 11.5 13.5074 11.5 13.5073 11.5L13.5073 11.5Z" fill="white"/>
<path d="M11.7573 13.25H9.75726C9.61919 13.25 9.50726 13.1381 9.50726 13C9.50726 12.8619 9.61919 12.75 9.75726 12.75H11.7573C11.8953 12.75 12.0073 12.8619 12.0073 13C12.0073 13.1381 11.8953 13.25 11.7573 13.25Z" fill="white"/>
<path d="M2.50726 11.5C2.36927 11.5001 2.25734 11.3883 2.25726 11.2503C2.25726 11.2502 2.25726 11.2501 2.25726 11.25V9.25L2.25726 9.25C2.25726 9.11193 2.36919 9 2.50726 9C2.64533 9 2.75726 9.11193 2.75726 9.25V11.25V11.25C2.75735 11.388 2.64555 11.4999 2.50756 11.5C2.50746 11.5 2.50736 11.5 2.50727 11.5L2.50726 11.5Z" fill="white"/>
<path d="M13.5073 6C13.3693 6.00008 13.2573 5.88828 13.2573 5.75029C13.2573 5.75019 13.2573 5.7501 13.2573 5.75V3.75L13.2573 3.75C13.2573 3.61193 13.3692 3.5 13.5073 3.5C13.6453 3.5 13.7573 3.61193 13.7573 3.75V5.75V5.75C13.7573 5.88799 13.6455 5.99992 13.5076 6C13.5075 6 13.5074 6 13.5073 6L13.5073 6Z" fill="white"/>
<path d="M2.50726 6C2.36927 6.00008 2.25734 5.88828 2.25726 5.75029C2.25726 5.75019 2.25726 5.7501 2.25726 5.75V3.75L2.25726 3.75C2.25726 3.61193 2.36919 3.5 2.50726 3.5C2.64533 3.5 2.75726 3.61193 2.75726 3.75V5.75V5.75C2.75735 5.88799 2.64555 5.99992 2.50756 6C2.50746 6 2.50736 6 2.50727 6L2.50726 6Z" fill="white"/>
<path d="M11.7573 2.25H9.75726C9.61919 2.25 9.50726 2.13807 9.50726 2C9.50726 1.86193 9.61919 1.75 9.75726 1.75H11.7573V1.75C11.8953 1.75 12.0073 1.86193 12.0073 2C12.0073 2.13807 11.8953 2.25 11.7573 2.25Z" fill="white"/>
<path d="M8.00726 6C7.86927 6.00008 7.75734 5.88828 7.75726 5.75029C7.75726 5.75019 7.75726 5.7501 7.75726 5.75V3.75L7.75726 3.75C7.75726 3.61193 7.86919 3.5 8.00726 3.5C8.14533 3.5 8.25726 3.61193 8.25726 3.75V5.75V5.75C8.25735 5.88799 8.14555 5.99992 8.00756 6C8.00746 6 8.00736 6 8.00727 6L8.00726 6Z" fill="white"/>
<path d="M8.00726 11.5C7.86927 11.5001 7.75734 11.3883 7.75726 11.2503C7.75726 11.2502 7.75726 11.2501 7.75726 11.25V9.25L7.75726 9.25C7.75726 9.11193 7.86919 9 8.00726 9C8.14533 9 8.25726 9.11193 8.25726 9.25V11.25V11.25C8.25735 11.388 8.14555 11.4999 8.00756 11.5C8.00746 11.5 8.00736 11.5 8.00727 11.5L8.00726 11.5Z" fill="white"/>
<path d="M8.00726 6C7.86927 6.00008 7.75734 5.88828 7.75726 5.75029C7.75726 5.75019 7.75726 5.7501 7.75726 5.75V3.75L7.75726 3.75C7.75726 3.61193 7.86919 3.5 8.00726 3.5C8.14533 3.5 8.25726 3.61193 8.25726 3.75V5.75V5.75C8.25735 5.88799 8.14555 5.99992 8.00756 6C8.00746 6 8.00736 6 8.00727 6L8.00726 6Z" fill="white"/>
<path d="M8.00726 11.5C7.86927 11.5001 7.75734 11.3883 7.75726 11.2503C7.75726 11.2502 7.75726 11.2501 7.75726 11.25V9.25L7.75726 9.25C7.75726 9.11193 7.86919 9 8.00726 9C8.14533 9 8.25726 9.11193 8.25726 9.25V11.25V11.25C8.25735 11.388 8.14555 11.4999 8.00756 11.5C8.00746 11.5 8.00736 11.5 8.00727 11.5L8.00726 11.5Z" fill="white"/>
<path d="M6.25726 7.75H4.25726C4.11919 7.75 4.00726 7.63807 4.00726 7.5C4.00726 7.36193 4.11919 7.25 4.25726 7.25H6.25726C6.39533 7.25 6.50726 7.36193 6.50726 7.5C6.50726 7.63807 6.39533 7.75 6.25726 7.75Z" fill="white"/>
<path d="M11.7573 7.75H9.75726C9.61919 7.75 9.50726 7.63807 9.50726 7.5C9.50726 7.36193 9.61919 7.25 9.75726 7.25H11.7573C11.8953 7.25 12.0073 7.36193 12.0073 7.5C12.0073 7.63807 11.8953 7.75 11.7573 7.75Z" fill="white"/>
</svg>
