<svg width="22" height="27" viewBox="0 0 22 27" fill="none" xmlns="http://www.w3.org/2000/svg">
<path d="M20.7688 12.7892C20.3787 12.4337 19.8665 12.2424 19.3388 12.2551C18.8112 12.2678 18.3088 12.4835 17.9362 12.8574L15.3114 15.4818C14.9023 14.9711 14.3952 14.5475 13.8199 14.2358C13.2446 13.9241 12.6128 13.7307 11.9616 13.6669V10.1123L13.4612 8.61265C14.1768 9.38951 15.1635 9.8617 16.2174 9.93163C17.2712 10.0016 18.3117 9.66386 19.1236 8.98836C19.9356 8.31286 20.4569 7.3512 20.5799 6.30219C20.7028 5.25318 20.418 4.19702 19.7843 3.35207C19.1506 2.50712 18.2164 1.93797 17.1749 1.76229C16.1335 1.58661 15.0643 1.81782 14.1885 2.40814C13.3126 2.99846 12.6971 3.90274 12.4692 4.93404C12.2412 5.96533 12.4182 7.0448 12.9637 7.94926L11.7916 9.12128H11.3105L9.6073 7.41806C10.3289 6.65105 10.7281 5.63606 10.7224 4.58299C10.7168 3.52991 10.3066 2.51929 9.57675 1.76012C8.84692 1.00095 7.85324 0.551286 6.80121 0.504123C5.74917 0.456959 4.71924 0.815901 3.92441 1.50672C3.12957 2.19754 2.63061 3.1674 2.53072 4.21575C2.43083 5.26409 2.73764 6.31073 3.3877 7.13923C4.03777 7.96773 4.98137 8.51472 6.02338 8.6671C7.06539 8.81947 8.12611 8.56556 8.98619 7.95788L11.1406 10.1123V11.499C10.9143 11.2908 10.6184 11.1749 10.3109 11.1739H8.67748V11.9949C8.67748 12.3215 8.80723 12.6348 9.03819 12.8657C9.26915 13.0967 9.5824 13.2264 9.90902 13.2264H11.1406V13.6562C10.4701 13.6997 9.81594 13.8813 9.21905 14.1897C8.62217 14.498 8.0955 14.9265 7.67213 15.4481H7.1479C6.98612 15.4477 6.82586 15.4794 6.67641 15.5413C6.52695 15.6033 6.39126 15.6942 6.2772 15.809L4.58465 17.5015L3.71354 16.6308L0.810791 19.5336L7.77763 26.5L10.6804 23.5977L9.80927 22.7266L10.7301 21.8062C10.8072 21.7295 10.9115 21.6863 11.0203 21.6859H14.4033C14.5653 21.6864 14.7258 21.6548 14.8755 21.5928C15.0251 21.5309 15.161 21.4399 15.2753 21.3251L19.6033 16.9966C19.6128 16.9871 19.6259 16.974 19.6403 16.9576C19.6546 16.9412 19.6694 16.9305 19.6789 16.9211L20.7745 15.8254C20.983 15.6156 21.1469 15.3659 21.2564 15.0912C21.366 14.8165 21.4189 14.5225 21.412 14.2269C21.4087 13.956 21.3499 13.6887 21.2392 13.4414C21.1286 13.1942 20.9685 12.9722 20.7688 12.7892ZM19.7614 5.83717C19.76 6.63643 19.4676 7.40784 18.9387 8.00708C18.4098 8.60632 17.6807 8.99235 16.8878 9.09296V8.65248C17.2743 8.55298 17.6113 8.31583 17.8354 7.98554C18.0595 7.65524 18.1553 7.2545 18.105 6.85854C18.0546 6.46259 17.8614 6.09863 17.5617 5.83499C17.262 5.57135 16.8764 5.42616 16.4773 5.42665C16.3149 5.42665 16.1561 5.3785 16.0211 5.28828C15.8861 5.19807 15.7809 5.06984 15.7187 4.91982C15.6566 4.76979 15.6403 4.60471 15.672 4.44545C15.7037 4.28618 15.7819 4.13989 15.8967 4.02507C16.0115 3.91025 16.1578 3.83205 16.3171 3.80037C16.4763 3.76869 16.6414 3.78495 16.7914 3.84709C16.9415 3.90923 17.0697 4.01447 17.1599 4.14948C17.2501 4.2845 17.2983 4.44324 17.2983 4.60562H18.1193C18.118 4.24264 17.9964 3.89034 17.7735 3.60379C17.5507 3.31724 17.2392 3.1126 16.8878 3.02186V2.58138C17.6807 2.68198 18.4098 3.06801 18.9387 3.66726C19.4676 4.2665 19.76 5.0379 19.7614 5.83717ZM16.0667 2.58138V3.02186C15.6802 3.12135 15.3432 3.3585 15.1191 3.6888C14.895 4.0191 14.7992 4.41983 14.8496 4.81579C14.8999 5.21175 15.0931 5.5757 15.3928 5.83934C15.6925 6.10298 16.0781 6.24818 16.4773 6.24768C16.6396 6.24768 16.7984 6.29583 16.9334 6.38605C17.0684 6.47627 17.1736 6.60449 17.2358 6.75452C17.2979 6.90454 17.3142 7.06962 17.2825 7.22889C17.2508 7.38815 17.1726 7.53444 17.0578 7.64927C16.943 7.76409 16.7967 7.84228 16.6374 7.87396C16.4782 7.90564 16.3131 7.88938 16.1631 7.82724C16.013 7.7651 15.8848 7.65987 15.7946 7.52485C15.7044 7.38983 15.6562 7.23109 15.6562 7.06871H14.8352C14.8366 7.43169 14.9582 7.784 15.181 8.07054C15.4038 8.35709 15.7153 8.56173 16.0667 8.65248V9.09296C15.2733 8.99356 14.5436 8.60787 14.0145 8.00836C13.4854 7.40884 13.1934 6.63676 13.1934 5.83717C13.1934 5.03757 13.4854 4.26549 14.0145 3.66598C14.5436 3.06646 15.2733 2.68078 16.0667 2.58138ZM9.90902 12.4054C9.80015 12.4054 9.69573 12.3621 9.61875 12.2852C9.54176 12.2082 9.49851 12.1038 9.49851 11.9949H10.3109C10.4205 11.9951 10.5257 12.0381 10.6041 12.1148C10.6824 12.1915 10.7276 12.2958 10.7301 12.4054H9.90902ZM9.90902 4.60562C9.90769 5.40489 9.61523 6.17629 9.08633 6.77554C8.55743 7.37478 7.82833 7.76081 7.03542 7.86141V7.42093C7.42197 7.32144 7.75893 7.08429 7.98304 6.75399C8.20714 6.4237 8.303 6.02296 8.25261 5.627C8.20222 5.23104 8.00905 4.86709 7.70936 4.60345C7.40967 4.33981 7.02406 4.19461 6.62491 4.19511C6.46252 4.19511 6.30379 4.14696 6.16877 4.05674C6.03375 3.96653 5.92852 3.8383 5.86638 3.68827C5.80423 3.53825 5.78797 3.37317 5.81965 3.21391C5.85133 3.05464 5.92953 2.90835 6.04435 2.79353C6.15918 2.6787 6.30547 2.60051 6.46473 2.56883C6.624 2.53715 6.78908 2.55341 6.9391 2.61555C7.08913 2.67769 7.21735 2.78292 7.30757 2.91794C7.39778 3.05296 7.44594 3.2117 7.44594 3.37408H8.26697C8.2656 3.0111 8.14401 2.6588 7.92119 2.37225C7.69837 2.0857 7.38688 1.88106 7.03542 1.79032V1.34983C7.82833 1.45044 8.55743 1.83647 9.08633 2.43571C9.61523 3.03495 9.90769 3.80636 9.90902 4.60562ZM3.34079 4.60562C3.34212 3.80636 3.63459 3.03495 4.16349 2.43571C4.69239 1.83647 5.42148 1.45044 6.21439 1.34983V1.79032C5.82784 1.88981 5.49089 2.12696 5.26678 2.45725C5.04267 2.78755 4.94682 3.18829 4.9972 3.58425C5.04759 3.9802 5.24076 4.34416 5.54045 4.6078C5.84015 4.87144 6.22576 5.01663 6.62491 5.01614C6.78729 5.01614 6.94603 5.06429 7.08105 5.15451C7.21606 5.24472 7.3213 5.37295 7.38344 5.52297C7.44558 5.673 7.46184 5.83808 7.43016 5.99734C7.39848 6.15661 7.32029 6.3029 7.20546 6.41772C7.09064 6.53255 6.94435 6.61074 6.78508 6.64242C6.62582 6.6741 6.46074 6.65784 6.31071 6.5957C6.16069 6.53356 6.03246 6.42832 5.94225 6.29331C5.85203 6.15829 5.80388 5.99955 5.80388 5.83717H4.98285C4.98421 6.20015 5.1058 6.55245 5.32863 6.839C5.55145 7.12555 5.86293 7.33019 6.21439 7.42093V7.86141C5.42148 7.76081 4.69239 7.37478 4.16349 6.77554C3.63459 6.17629 3.34212 5.40489 3.34079 4.60562ZM11.4792 14.458C12.1079 14.4585 12.7281 14.6038 13.2915 14.8828C13.8549 15.1617 14.3465 15.5667 14.7281 16.0664L14.4489 16.3459C14.2608 16.0695 14.0079 15.8431 13.7124 15.6867C13.4168 15.5302 13.0875 15.4483 12.7531 15.4481H8.8072C9.54932 14.8066 10.4983 14.455 11.4792 14.458ZM9.51945 23.5977L7.77763 25.3391L1.97173 19.5336L3.71354 17.7918L9.51945 23.5977ZM20.1928 15.2449L14.6919 20.7438C14.6538 20.7822 14.6084 20.8127 14.5583 20.8334C14.5083 20.8541 14.4546 20.8647 14.4005 20.8645H11.0203C10.8585 20.864 10.6982 20.8957 10.5488 20.9576C10.3993 21.0195 10.2636 21.1105 10.1496 21.2253L9.2288 22.1461L5.16471 18.082L6.85726 16.3894C6.89527 16.3512 6.9405 16.3209 6.99032 16.3002C7.04014 16.2796 7.09356 16.269 7.14749 16.2692H12.7531C13.0197 16.2695 13.279 16.3563 13.492 16.5165C13.705 16.6768 13.8603 16.9019 13.9345 17.1579L13.9411 17.1817C13.9685 17.2739 13.9834 17.3693 13.9854 17.4654C13.9883 17.626 13.9587 17.7854 13.8986 17.9343C13.8384 18.0832 13.7488 18.2185 13.6353 18.332C13.5121 18.4585 13.3649 18.5593 13.2024 18.6284C13.0399 18.6974 12.8652 18.7334 12.6886 18.7343H8.5494V19.5553H12.6886C12.9747 19.5541 13.2577 19.4959 13.5212 19.3843C13.7846 19.2726 14.0232 19.1098 14.2231 18.9051C14.4141 18.7126 14.5642 18.4834 14.6644 18.2314C14.7646 17.9795 14.8127 17.7098 14.8061 17.4387C14.8023 17.3507 14.7936 17.263 14.7798 17.176L18.5179 13.4378C18.7412 13.2135 19.0424 13.084 19.3588 13.0764C19.6752 13.0687 19.9824 13.1835 20.2162 13.3968C20.3335 13.5052 20.4273 13.6365 20.4918 13.7826C20.5562 13.9287 20.59 14.0865 20.591 14.2461C20.5955 14.4308 20.5627 14.6144 20.4944 14.786C20.4262 14.9577 20.3241 15.1137 20.1941 15.2449H20.1928Z" fill="white"/>
<path d="M3.4229 19.2434C3.30806 19.3582 3.22984 19.5045 3.19814 19.6638C3.16644 19.823 3.18268 19.9881 3.24482 20.1382C3.30695 20.2882 3.41218 20.4164 3.54721 20.5067C3.68223 20.5969 3.84098 20.645 4.00337 20.645C4.16577 20.645 4.32451 20.5969 4.45954 20.5067C4.59456 20.4164 4.69979 20.2882 4.76193 20.1382C4.82406 19.9881 4.84031 19.823 4.80861 19.6638C4.77691 19.5045 4.69869 19.3582 4.58384 19.2434C4.42987 19.0895 4.22108 19.003 4.00337 19.003C3.78566 19.003 3.57687 19.0895 3.4229 19.2434Z" fill="white"/>
</svg>
