<svg version="1.0" xmlns="http://www.w3.org/2000/svg" width="689.333" height="688" viewBox="0 0 517 516"><g fill="#fff"><path d="M4 257.5V514l256.3-.2 256.2-.3.3-256.3L517 1H4v256.5zM93 95v52H76V67.6L69.5 74 63 80.4V62.5l8.3-9.8 8.2-9.7H93v52zm68-40.3c1.8 6 3.7 11.2 4.1 11.7.5.6.9-4.2.9-10.8V43.9l2.8.3 2.7.3v43h-3c-3 0-3.1-.2-7.1-12.5l-4.2-12.5-.3 12.5-.4 12.5-2.7.3-2.8.3V44h6.7l3.3 10.7zm31.9-9.1c4 2.8 5.1 7.3 5.1 20.4 0 13.1-1.1 17.6-5.1 20.4-4.8 3.3-13.4 1.2-15.7-3.9-.7-1.6-1.2-7.9-1.2-16.6 0-15.1 1-19.2 5.3-20.9 3.6-1.4 9.1-1.1 11.6.6zm1.4 62.5l2.7 2.9v15.4c0 13.9-.2 15.6-2.1 17.9-4.9 6.4-15.5 5.2-18.5-2-2.3-5.4-1.7-29.7.9-33.6 3.5-5.3 12.3-5.6 17-.6zm-25.8-.6c2.3 2.2 2.5 3.2 2.5 11.6 0 8.1-.3 9.6-2.2 11.6-1.6 1.7-3.2 2.3-6.5 2.3H158v15h-7v-43h7.5c6.7 0 7.9.3 10 2.5zm40.2 11.4c1.2 7.3 2.4 13.5 2.6 13.7.2.3 1.5-5.9 2.8-13.6l2.3-14h3.3c1.8 0 3.3.3 3.3.8 0 .8-6.7 36.5-7.5 39.9-.4 1.9-1.2 2.3-4.4 2.3h-4l-1-5.3c-1.6-7.7-7.1-36.8-7.1-37.3 0-.3 1.7-.4 3.7-.2l3.7.3 2.3 13.4zM244 108c0 2.9-.1 3-5 3h-5v12h3.5c3.2 0 3.5.2 3.5 3s-.3 3-3.5 3H234v12.9l4.8.3c4.3.3 4.7.5 5 3l.3 2.8H226v-43h18v3zm19.5-2.4c2.7 1.1 4.5 6 4.5 12.4 0 5.3-.4 6.5-2.7 8.8l-2.7 2.6 2.7 7.6c1.4 4.1 2.9 8.3 3.2 9.2.6 1.5.1 1.8-3.2 1.8h-3.8l-3-8.8-3-8.7-.3 8.7-.3 8.8H247v-43h7.4c4.1 0 8.2.3 9.1.6zM290 108c0 2.7-.3 3-3 3h-3v37h-8v-36.9l-2.7-.3c-2.2-.2-2.9-.9-3.1-3.1l-.3-2.7H290v3zm11.6 4.5c1 4.1 2.1 7.2 2.5 7 .4-.3 1.5-3.6 2.4-7.5 1.7-7 1.7-7 5.1-7 1.9 0 3.4.3 3.4.7 0 .4-1.8 6.6-4 13.9-3.1 10.4-4 14.9-4 20.8v7.6h-7v-8.1c0-6.5-.7-10.7-3.6-20.2-2-6.6-3.8-12.6-4.1-13.3-.4-1 .5-1.4 3.5-1.4h4l1.8 7.5zM108.4 234c8.2 7.2 6.6 19.6-3 23.6-4.5 1.9-7.8 1.8-12.2-.5-4.6-2.4-7.2-6.7-7.2-12.1 0-8.4 5.6-14 14.2-14 3.8 0 5.4.6 8.2 3zm312.1-1c10.6 6.5 7.3 23.3-5 25.6-11.1 2-20.3-10.4-15.1-20.5 3.5-6.7 13.4-9.3 20.1-5.1zm-193 8c3.4 2.1 6.5 7.3 6.5 10.9 0 3.5-2.6 8.6-5.4 10.8-6.1 4.9-14.8 3.3-19.3-3.6-7.7-11.5 6.3-25.4 18.2-18.1zm79.6-.5c6.3 3.3 8.8 12.4 5.2 18.6-2.3 3.9-9.2 7.2-13 6.3-7.9-1.9-11.3-6-11.3-13.8 0-9.6 10.3-15.6 19.1-11.1zm-187.8 24.6c4.7 1.3 10.6 6.3 12.3 10.6 1 2.4 1.4 8.8 1.4 24.1v20.9l3-.5c2.7-.4 3.3.2 7.5 6.7l4.6 7.2 9.7-.3 9.7-.3 4.5-6.8c3.9-6 4.7-6.8 7.1-6.5 2.6.4 2.7.3 8.4-18.6 3.1-10.5 6.8-20.8 8.2-22.9 3.7-5.9 6.8-6.7 25.4-6.7 23.4 0 23.1-.3 32.4 30.2 4 12.9 5.6 19.4 5.1 21.2-.8 3.2-4.8 5.1-7.5 3.6-2.3-1.2-3.1-3.3-8.5-21.3-2.4-8.1-4.6-15.1-5-15.4-.3-.4-1.1-.2-1.7.4-.7.7 1.3 9.5 6.7 28.9 4.2 15.4 7.9 28.4 8.1 29.1.3.9-1.6 1.3-6.9 1.5l-7.3.3-.5 22.2c-.5 20.7-.6 22.3-2.5 23.7-3.7 2.8-7.8 1.8-10-2.5-1.2-2.2-1.5-7.3-1.5-23.4 0-19.1-.1-20.6-1.7-20.3-1.6.3-1.8 2.4-2.3 22.5-.5 20.7-.6 22.3-2.5 23.7-4 3-8.7 1.5-10.4-3.5-.7-1.9-1.1-11.1-1.1-23V350h-7c-3.8 0-7-.1-7-.3 0-.1 3.6-13 7.9-28.7 4.3-15.7 7.6-29.1 7.3-29.8-1-2.8-3.1 1.5-7.1 15.3-2.3 7.7-4.7 15.3-5.3 16.8-1.5 3.9-4.2 5.1-7.6 3.5l-2.7-1.4-5.6 10.1c-3.1 5.5-5.9 11.1-6.3 12.3-.4 1.3.5 6.8 2.3 13.8 1.7 6.4 3.1 11.8 3.1 12 0 .1-1.2.4-2.7.6l-2.8.3-.3 10.1c-.2 8.5-.6 10.4-2.2 11.9-2.6 2.3-6.8 1.3-8-2.1-.6-1.4-1-6.6-1-11.5 0-6.8-.3-9-1.2-8.7-.9.3-1.4 3.5-1.6 10.3-.2 7.4-.7 10.4-1.9 11.7-2 2.2-5.1 2.3-7.5.1-1.5-1.4-1.8-3.2-1.8-12V374h-5.8l3-11.2c1.8-6.6 2.8-12.4 2.5-14.2-.3-1.7-3.1-7.7-6.2-13.3-5-9.1-5.9-10.1-7.2-8.8-1.8 1.9-4.4 1.9-6.9.1-1.7-1.3-1.9-3-2.2-21-.3-18.6-.4-19.6-2.3-19.6s-1.9 1.2-1.9 52.5c0 36.8-.3 53.1-1.1 54.9-2.3 5-10.3 5.7-13.4 1.3-1.2-1.8-1.5-7.5-1.5-33.4 0-31.7-.4-35.2-3.7-30.8-1 1.5-1.3 8.4-1.3 32.6v30.8l-2.6 2c-3.4 2.7-6.4 2.7-9.8 0l-2.6-2v-52.7c0-29-.4-53.3-.9-54.1-.5-.8-1.6-1.1-2.5-.8-1.4.6-1.6 3.1-1.6 19.3 0 15.5-.3 19-1.5 20.4-1 1.1-4 14.4-8 36-3.6 18.8-6.8 34.6-7.1 35.1-.9 1.4-4.1 1-4.8-.6-.3-.8 2.4-16.9 5.9-35.7 4.3-22.6 6.1-34.6 5.5-35.2-.6-.6-1-10-1-23.5 0-19.8.3-23.1 1.9-26.6 2.1-4.7 7-9.2 10.9-10.1 1.5-.3 3.2-.7 3.7-.9 2.5-.9 33.4-.4 36.8.6zm317.2 1.5c2.5 1.3 5.1 3.9 7 6.9l3 4.8v23.4c0 22.1-.1 23.5-1.9 24.9-2.6 1.8-5.1 1.8-7-.2-1.3-1.3-1.6-4.5-1.6-19.7 0-10-.4-18.8-.9-19.6-.5-.8-1.6-1.1-2.5-.8-1.4.6-1.6 5.9-1.6 53.1v52.5l-2.3 2.7c-3 3.5-7.9 3.7-11 .5-2.1-2.1-2.2-2.9-2.7-33.9-.4-27.3-.7-31.7-2-31.7s-1.6 4.4-2 31.8l-.5 31.9-2.8 2.4c-3.6 3.1-7.1 3.1-10.2-.1l-2.5-2.4v-52.3c0-28.8-.4-52.9-.9-53.7-.5-.8-1.6-1.1-2.5-.8-1.4.6-1.6 3.1-1.6 19.3 0 16-.2 19-1.7 20.6-2.1 2.4-4.8 2.3-7.3-.2-1.9-1.9-2-3.3-2-23.3 0-11.8.5-22.9 1.1-25 1.3-4.9 7.6-11.1 12.5-12.5 2.2-.6 11.6-1 21.9-.9 16.1.2 18.4.4 22 2.3zM321 274.3c4.9 3.2 6.3 6.3 12.5 26.3 5.6 18.2 6.5 23.4 4.3 25.1-6 4.6-8.5 1.3-14.3-18.5-2.7-9-5.2-16.5-5.7-16.8-2.6-1.6-1.3 5.5 5.6 30.4 4.2 15.3 7.6 28.1 7.6 28.5 0 .4-3.1.7-7 .7h-7v21.5c0 21.6 0 21.6-2.5 24-3 3-5.4 3.1-8.9.4l-2.6-2v-22c0-21.2-.1-21.9-2-21.9s-2 .7-2 21.5c0 21.6 0 21.6-2.5 24-3 3-5.4 3.1-8.9.4l-2.6-2V350h-7c-4.6 0-7-.4-7-1.1 0-.7 3.4-13.5 7.6-28.6 6.9-25.2 8.1-31.4 5.5-29.8-.6.3-2.2 4.5-3.6 9.3-1.4 4.8-3.7 12.4-5.1 16.9-2.8 9.3-5.5 12.4-9.3 10.3-4.8-2.5-4.7-3.9 2-25.8 6.5-21.1 9-26.1 14.3-28.2 1.2-.5 9.6-.9 18.7-.9 15.6-.1 16.8 0 19.9 2.2zm-157.4 32.6c9.5 5.8 5.2 20.1-6.1 20.1-6.3 0-10.5-4.1-10.5-10.3 0-9.3 8.8-14.6 16.6-9.8zm202.7 1.1c4.1 3.5 5.2 7.8 3.3 12.4-1.8 4.4-5.2 6.6-10.1 6.6-7 0-12.3-6-11.1-12.4 1.8-8.9 11.3-12.4 17.9-6.6zm8.1 26.2c2.9 2.7 12.6 26.2 11.9 28.9-.5 2-3.7 3.4-5.2 2.5-.5-.4-2.4-4.8-4.3-9.9l-3.3-9.2-.5 23.6c-.5 21.5-.7 23.9-2.4 25.8-2.4 2.6-5 2.7-7.6.1-1.8-1.8-2-3.3-2-13 0-9.1-.3-11-1.5-11s-1.5 1.9-1.5 11c0 9.7-.2 11.2-2 13-1.1 1.1-2.9 2-4 2s-2.9-.9-4-2c-1.9-1.9-2-3.4-2.1-26.3l-.1-24.2-3.5 10.7c-3.3 10.3-4.7 12.3-7.8 11.2-2.8-1.1-2.5-4.3 1.5-14.4 8.6-21.5 8-21 23.6-21 11.3 0 12.5.2 14.8 2.2z"/><path d="M184.2 51.2c-.8.8-1.2 5.3-1.2 14.9 0 14.4.6 16.5 4.7 15.7 1.6-.3 1.8-1.7 1.8-15.8 0-14.8-.1-15.5-2-15.8-1.1-.1-2.6.3-3.3 1zm-1.2 62.4c-1.3 3.4-1.3 24 0 26.5 1.3 2.3 5.5 2.5 6.4.3.8-2 .8-25.8 0-27.8-1-2.6-5.3-2-6.4 1z"/></g></svg>