<svg version="1.0" xmlns="http://www.w3.org/2000/svg" width="684" height="680" viewBox="0 0 513 510"><path fill="#fff" d="M0 255v255h512V0H0v255zM85.7 41.5c6 1.8 11.6 7.4 13.2 13.2.6 2.1 1.1 6.9 1.1 10.6v6.8l-7.7-.3-7.8-.3-.5-6.6c-.6-8.5-1.9-10.1-7.9-9.7-6.8.4-8.1 3.6-8.1 19.8v12.5l2.3-2.7c2.6-3.3 8.3-5.8 13-5.8 4.6 0 11.8 3.9 14.4 7.8 3.4 5.2 4.6 13 4.1 28.6-.4 15.1-1.7 19.4-7 24.2-9.5 8.7-28.5 8.3-37-.7-6.5-6.9-7-10-6.6-48.1.4-35.6.5-36.3 5.8-43.1 5.2-6.6 17.9-9.4 28.7-6.2zm79.8 3c2.1 2 2.5 3.4 2.5 8 0 5.4 0 5.5-2.9 5.5-2.8 0-3-.3-3.3-4.1-.3-4.5-2.4-6.7-5.2-5.6-1.4.6-1.6 2.7-1.6 15.7s.2 15.1 1.6 15.7c3.1 1.2 4.9-1.1 5.2-6.6.3-4.9.4-5.1 3.3-5.1h2.9v6.5c0 5.8-.3 6.9-2.6 9-3.5 3.2-10 3.4-13.7.5-3.5-2.8-4.7-7.6-4.7-19.5.1-12.4 1.1-17.4 4.5-20.3 3.7-3.2 10.7-3.1 14 .3zm14.3 16.7L180 80h4c3.8 0 4 .2 4 3v3.1l-7.7-.3-7.8-.3-.3-20.5c-.1-11.2 0-21 .3-21.8.3-.8 1.7-1.2 3.7-1l3.3.3.3 18.7zM209 45c0 2.9-.1 3-5 3h-5v13h3.5c3.2 0 3.5.2 3.5 3s-.3 3-3.5 3H199v13h5c4.9 0 5 .1 5 3v3h-17V42h17v3zm19.5-.8c1.1 4.7 7.5 39.3 7.5 40.5 0 .8-1.3 1.3-3.4 1.3-3.6 0-4.6-1.2-4.6-5.6 0-2.1-.4-2.4-4-2.4-3.5 0-4 .3-4.6 2.7-.3 1.6-.7 3.4-1 4-.4 1.5-6.4 1.8-6.4.4 0-.9 6.6-36.7 7.5-40.9.5-1.8 1.2-2.2 4.5-2.2s4.1.4 4.5 2.2zm21.7 9.8l3.7 11.5.3-11.5.3-11.5 2.8-.3 2.7-.3V86h-3c-2.9 0-3-.2-6.7-12.2l-3.8-12.3-.5 12-.5 12h-6l-.3-20.5c-.1-11.2 0-21 .3-21.8.3-.8 1.7-1.2 3.7-1 3.2.3 3.3.5 7 11.8zm27.3-8.8c.3 1.8 1.1 7.8 1.8 13.3l1.3 10 1.3-9c2.3-16.9 2.4-17 5.3-17.3 3.1-.4 3.1-.3 4.8 12.3 2 14.9 2.3 14.9 4 1 1.3-11 1.8-13 3.3-13.3 4.8-.9 4.8-.9-1.3 43.5 0 .2-1.4.3-3 .3-3.7 0-4.2-1.2-6-13.8-.7-5.1-1.6-9.5-2-9.7-.4-.2-1.5 5-2.4 11.5l-1.8 12h-3.3c-3.9 0-3.4 1.8-6.5-22-1.1-8.5-2.3-17-2.5-18.8-.6-3.1-.5-3.2 2.9-3.2 3.2 0 3.6.3 4.1 3.2zm42-2c.3.7 2.2 10.5 4.3 21.6 4.1 21.5 4.1 21.8-.9 21-1.8-.2-2.6-1.2-3.2-4.1-.8-3.5-1.1-3.7-4.7-3.7s-3.8.2-4.4 4c-.6 3.6-.9 4-3.6 4-1.6 0-3.1-.3-3.3-.8-.4-.7 6.7-39.2 7.7-41.9.7-1.7 7.5-1.7 8.1-.1zM346 45c0 2.7-.3 3-3 3h-3v38h-7l-.2-18.8-.3-18.7-2.7-.3c-2.4-.3-2.8-.8-2.8-3.3V42h19v3zm20.8.2c.3 2.7.2 2.8-4.7 2.8H357v13h3.5c3.2 0 3.5.2 3.5 3s-.3 3-3.5 3H357v13h5.1c4.9 0 5 .1 4.7 2.7l-.3 2.8h-17l-.3-20.5c-.1-11.2 0-21 .3-21.8.3-.9 2.6-1.2 8.7-1 8.2.3 8.3.3 8.6 3zm21.8.1c2 2.4 2.4 3.9 2.4 9.8 0 6.3-.3 7.2-2.6 9.4l-2.7 2.5 3.2 8.8c1.7 4.8 3.1 9.1 3.1 9.5 0 .5-1.6.7-3.6.5-3.7-.3-3.7-.3-6.8-9.3l-3.1-9-.3 9.2-.3 9.3H371V41.8l7.6.4c6.9.3 7.9.6 10 3.1zm-142.1 58.1c2.7 1.2 3.6 2.3 4.5 5.6 1.5 5.4.8 7-3 7-2.6 0-3-.3-3-2.9 0-5.9-6.1-6.7-6.8-.9-.2 2 1.1 4.1 6 9.3 7.3 7.7 7.6 8.4 7.7 14.8.1 8-5.9 12.2-14.1 9.8-4.5-1.4-6.8-5.3-6.8-11.6 0-3.3.2-3.5 3.5-3.5 3.4 0 3.5.1 3.5 3.9 0 4.6 2.2 7.1 4.8 5.4 1.1-.7 1.7-2.3 1.6-4.8-.1-3.1-1.1-4.6-5.7-9.3-7.8-8-9.5-13.3-6-19.3 2.7-4.6 7.9-5.9 13.8-3.5zm162.3-.3c5.9 2 6.7 4.6 6.7 21.4 0 13-.3 15.4-1.9 17.7-2.3 3.6-7.7 5.1-12.8 3.7-6-1.6-6.8-4.2-6.8-21.4 0-17.3.7-19.5 7.5-21.7 3-.9 3.9-.9 7.3.3zm-245.8.7c0 .8 6.7 36.5 7.5 39.9.5 2.1.2 2.3-3.4 2.3-3.7 0-3.9-.1-4.5-4-.6-3.9-.7-4-4.6-4-3.7 0-4 .2-4 2.7 0 4.1-1.3 5.5-4.6 5.1l-3-.3 4-21.3 4-21.2h4.3c2.4 0 4.3.3 4.3.8zm22 11.2l3.8 11.5.1-11.8.1-11.7h6v43h-6.6l-4.1-12.8-4.1-12.7-.1 12.7-.1 12.8h-6v-43.1l3.6.3 3.6.3L185 115zm31-10.7c3.6 1.8 4.9 6.8 4.9 19.7.1 19.4-1.6 22-14.4 22H199v-43h7.3c3.9 0 8.3.6 9.7 1.3zm56.3 7.9c1 5.1 2.8 14.8 4.1 21.5l2.3 12.3h-3.8c-3.6 0-3.8-.2-4.4-4-.6-3.8-.8-4-4.5-4-3.6 0-3.8.2-4.4 4-.6 3.8-.8 4-4.1 4-3.2 0-3.5-.2-3-2.3.7-3 7.5-39.3 7.5-40.1 0-.3 2-.6 4.3-.6h4.4l1.6 9.2zm20.4 2.5l3.8 11.8.3-11.8.3-11.7h5.9v43h-6.7l-3.2-10.3c-1.8-5.6-3.6-11.3-4.1-12.7-.6-1.7-.9 1.7-.9 10.2L288 146h-6v-43h6.9l3.8 11.7zm21.3 9.8V146h-7v-43h7v21.5zm23-18.5c0 2.7-.3 3-3 3h-3v37h-8v-36.9l-2.7-.3c-2.2-.2-2.9-.9-3.1-3.1l-.3-2.7H337v3zm19.2 17c2 10.7 3.7 20.3 3.7 21.2.1 1.4-.7 1.8-3.4 1.8-3.3 0-3.5-.2-4.1-4-.6-3.8-.8-4-4.4-4-3.7 0-3.9.2-4.5 4-.6 3.8-.9 4-4.1 4-1.9 0-3.4-.2-3.4-.4 0-.5 5.6-30.1 7.1-37.4l1.1-5.3 4.1.3 4.1.3 3.8 19.5zm22.8-17c0 2.7-.3 3-3 3h-3v37h-8v-36.9l-2.7-.3c-2.2-.2-2.9-.9-3.1-3.1l-.3-2.7H379v3zm10 18.5V146h-7v-43h7v21.5zm41.7-9.8l3.8 11.8.3-11.8.3-11.7h5.9v43h-6.7l-4.1-12.8-4.1-12.7v12.7L426 146h-6v-43h6.9l3.8 11.7zm-81.3 91.1c.5.8-27.4 183.9-28.9 189.9-.5 2.3-.6 2.3-20.9 2.3h-20.3l-.7 9.2c-.4 5.1-.9 12.1-1.3 15.5l-.6 6.3h15.8l-18.8 18.7-18.7 18.8-18.7-18.8-18.8-18.7h16.7l-.6-3.8c-.3-2-.8-7.8-1.1-12.7-.4-5-.9-10.2-1.1-11.8l-.6-2.7h-19.4c-19.2 0-19.5 0-20.4-2.3-1-2.6-31-184.2-31-188.1V205h94.4c52 0 94.7.4 95 .8z"/><path fill="#fff" d="M71.3 95.4l-2.8 2.4v14.6c0 13.7.1 14.7 2.2 16.8 1.6 1.5 3.4 2.2 6 2.1 7-.2 9-6 8-23.7-.5-9.3-.7-10.2-3.2-12.3-3.4-3-6.7-2.9-10.2.1zm330.2 14.8c-.3.8-.4 7.7-.3 15.3l.3 14h6v-30l-2.8-.3c-1.6-.2-2.9.2-3.2 1zM206 124.5v15.6l3.3-.3 3.2-.3v-30l-3.2-.3-3.3-.3v15.6zm-38 89.2c0 .9 5.6 30.2 6.6 34.2.5 2.3.7 2.4 7.7 1.8 4.3-.3 12.4-2.2 20.2-4.7 17.4-5.6 22.5-5.4 41 1.7 16.4 6.3 25.5 8.4 37 8.4 10.5.1 17.5-1.4 34-7.2 10-3.4 12.8-4 17.1-3.6l5.1.5 1.2-7.6c.6-4.3 1.8-11.4 2.5-16l1.3-8.2h-86.8c-47.8 0-86.9.3-86.9.7zm75 80.9c-6.7 10.3-13.6 21.5-15.2 25-7.7 16.5-2.7 33.9 12 41.1 5.1 2.5 6.8 2.8 15.7 2.8 9.5 0 10.3-.2 16.2-3.4 13-7 17.9-22.2 12.2-37.7-1.8-5-12.7-22.8-25.4-41.7l-3.2-4.8-12.3 18.7z"/></svg>