<svg width="14" height="23" viewBox="0 0 14 23" fill="none" xmlns="http://www.w3.org/2000/svg">
<path d="M3.46221 22.5751C3.54682 22.8289 3.78431 23 4.0519 23H9.02486C9.29245 23 9.52994 22.8289 9.61455 22.5751L12.101 15.1157C12.1643 14.9261 12.1325 14.7177 12.0157 14.5555C11.8988 14.3935 11.7112 14.2974 11.5113 14.2974H1.56542C1.36558 14.2974 1.178 14.3935 1.06109 14.5555C0.944296 14.7177 0.91248 14.9261 0.97573 15.1157L3.46221 22.5751ZM10.6489 15.5406L8.57687 21.7568H4.49992L3.25672 18.0271H8.52757V16.7838H2.84233L2.42792 15.5406H10.6489V15.5406Z" fill="white"/>
<path d="M9.02486 3.35675V2.11349H7.16V0H5.91675V2.16363C4.49979 2.39468 3.43027 3.39927 3.43027 4.6C3.43027 5.8007 4.49979 6.80529 5.91675 7.03636V9.57298H4.05191V10.8162H5.91675V12.9297H7.16V10.7661C8.57697 10.535 9.64647 9.53043 9.64647 8.32973C9.64647 7.12903 8.57695 6.12441 7.16 5.89336V3.35675H9.02486ZM5.91677 5.76776C5.20106 5.59257 4.67352 5.12915 4.67352 4.6C4.67352 4.07084 5.20106 3.60742 5.91677 3.43224V5.76776ZM8.40325 8.32973C8.40325 8.85888 7.87571 9.32228 7.16 9.49749V7.16199C7.87571 7.33715 8.40325 7.80055 8.40325 8.32973Z" fill="white"/>
<path d="M2.02357 1.45351L1.14456 2.33252L2.3878 3.57576L3.26681 2.69675L2.02357 1.45351Z" fill="white"/>
<path d="M12.3149 4.16051L9.82843 6.64697L10.7074 7.52597L13.1939 5.03951L12.3149 4.16051Z" fill="white"/>
</svg>
