<svg width="21" height="20" viewBox="0 0 21 20" fill="none" xmlns="http://www.w3.org/2000/svg">
<path d="M9.95692 0.000499522C9.85946 0.00925006 9.76742 0.0492215 9.6945 0.114471C9.62157 0.17972 9.57165 0.266763 9.55216 0.362657L9.32492 1.48463C9.14838 1.54618 8.97788 1.61588 8.81364 1.69767L7.85499 1.06567C7.76729 1.00969 7.66303 0.985496 7.55964 0.997127C7.45625 1.00876 7.35997 1.05551 7.2869 1.12958C6.94323 1.47415 6.56757 1.81961 6.20753 2.18054C6.13281 2.25494 6.08629 2.35301 6.07592 2.45794C6.06556 2.56288 6.092 2.66815 6.15072 2.75573L6.79692 3.71438C6.71472 3.88222 6.64513 4.05457 6.58389 4.23277L5.44061 4.4813C5.33789 4.50262 5.2457 4.55882 5.17969 4.64036C5.11368 4.7219 5.07791 4.82377 5.07845 4.92868C5.07848 5.42756 5.07846 5.9139 5.07845 6.41281C5.07954 6.5165 5.11605 6.6167 5.18193 6.69678C5.2478 6.77686 5.33908 6.83201 5.44061 6.85308L6.58389 7.10162C6.64513 7.27981 6.71472 7.45216 6.79692 7.62L6.15072 8.58575C6.09385 8.67268 6.06846 8.77646 6.0788 8.87983C6.08914 8.98319 6.13457 9.0799 6.20753 9.15384C6.56756 9.51475 6.9432 9.86022 7.2869 10.2048C7.35997 10.2789 7.45625 10.3256 7.55964 10.3373C7.66303 10.3489 7.76729 10.3247 7.85499 10.2687L8.82074 9.64382C8.98478 9.72512 9.15573 9.79572 9.33202 9.85685L9.55216 10.9717C9.57202 11.0758 9.6276 11.1696 9.70928 11.237C9.79096 11.3044 9.89362 11.3412 9.99953 11.341H11.505C11.6109 11.3412 11.7135 11.3044 11.7952 11.237C11.8769 11.1696 11.9325 11.0758 11.9523 10.9717L12.1725 9.85685C12.3488 9.79572 12.5197 9.72512 12.6838 9.64382L13.6495 10.2687C13.7372 10.3247 13.8415 10.3489 13.9449 10.3373C14.0482 10.3256 14.1445 10.2789 14.2176 10.2048C14.5613 9.86022 14.9369 9.51475 15.297 9.15384C15.3699 9.0799 15.4154 8.98319 15.4257 8.87983C15.436 8.77646 15.4106 8.67268 15.3538 8.58575L14.7076 7.62C14.7898 7.45216 14.8594 7.27981 14.9206 7.10162L16.0639 6.85308C16.1654 6.83201 16.2567 6.77686 16.3226 6.69678C16.3884 6.6167 16.4249 6.5165 16.426 6.41281C16.426 5.9139 16.426 5.42756 16.426 4.92868C16.4266 4.82377 16.3908 4.7219 16.3248 4.64036C16.2588 4.55882 16.1666 4.50262 16.0639 4.4813L14.9206 4.23277C14.8594 4.05457 14.7898 3.88222 14.7076 3.71438L15.3538 2.75573C15.4125 2.66815 15.4389 2.56288 15.4286 2.45794C15.4182 2.35301 15.3717 2.25494 15.297 2.18054C14.9369 1.81961 14.5613 1.47415 14.2176 1.12958C14.1445 1.05551 14.0482 1.00876 13.9449 0.997127C13.8415 0.985496 13.7372 1.00969 13.6495 1.06567L12.6909 1.69767C12.5266 1.61588 12.3561 1.54618 12.1796 1.48463L11.9523 0.362657C11.931 0.259934 11.8748 0.167749 11.7933 0.10174C11.7117 0.0357299 11.6099 -3.94411e-05 11.505 0.000499522H9.99953C9.98533 -0.000166507 9.97112 -0.000166507 9.95692 0.000499522ZM10.3759 0.909442H11.1286L11.3274 1.8894C11.3448 1.97286 11.3854 2.04975 11.4444 2.11128C11.5034 2.1728 11.5785 2.21649 11.6612 2.23735C11.9638 2.31735 12.2423 2.44261 12.5133 2.59951C12.5862 2.64135 12.6692 2.66217 12.7532 2.65967C12.8372 2.65716 12.9189 2.63142 12.9891 2.58531L13.8412 2.03142C14.0248 2.21038 14.2086 2.38213 14.388 2.5569L13.8199 3.40904C13.7727 3.47861 13.7457 3.55992 13.742 3.64391C13.7382 3.7279 13.7578 3.8113 13.7986 3.88481C13.9505 4.14651 14.0793 4.45 14.1608 4.75115C14.1822 4.83159 14.2254 4.9046 14.2855 4.9622C14.3456 5.0198 14.4204 5.05979 14.5016 5.0778L15.5171 5.29083C15.5171 5.54125 15.5171 5.79318 15.5171 6.04355L14.5016 6.26369C14.4204 6.28169 14.3456 6.32168 14.2855 6.37928C14.2254 6.43689 14.1822 6.50989 14.1608 6.59034C14.0793 6.89149 13.9505 7.18788 13.7986 7.44957C13.7564 7.52391 13.736 7.60866 13.7398 7.69408C13.7435 7.77949 13.7713 7.86211 13.8199 7.93245L14.3809 8.77748C14.2015 8.95225 14.0247 9.1311 13.8412 9.31006L12.9891 8.74908C12.9182 8.70405 12.8362 8.67955 12.7522 8.67829C12.6682 8.67704 12.5855 8.69908 12.5133 8.74197C12.2423 8.89888 11.9638 9.01703 11.6612 9.09703C11.5785 9.11789 11.5034 9.16158 11.4444 9.22311C11.3854 9.28463 11.3448 9.36152 11.3274 9.44499L11.1286 10.432H10.3759L10.1771 9.44499C10.1597 9.36152 10.1191 9.28463 10.0601 9.22311C10.0011 9.16158 9.92597 9.11789 9.8433 9.09703C9.54066 9.01703 9.26216 8.89888 8.99117 8.74197C8.91895 8.69908 8.83626 8.67704 8.75228 8.67829C8.66829 8.67955 8.5863 8.70405 8.51539 8.74908L7.66326 9.31006C7.47975 9.13111 7.303 8.95225 7.12358 8.77748L7.68456 7.93245C7.73317 7.86211 7.76095 7.77949 7.76472 7.69408C7.76849 7.60866 7.74809 7.52391 7.70587 7.44957C7.55399 7.18788 7.42523 6.89149 7.34371 6.59034C7.32226 6.50989 7.27913 6.43689 7.21902 6.37928C7.15891 6.32168 7.08414 6.28169 7.00286 6.26369L5.9874 6.04355C5.9874 5.79318 5.9874 5.54125 5.9874 5.29083L7.00286 5.0778C7.08414 5.05979 7.15891 5.0198 7.21902 4.9622C7.27913 4.9046 7.32226 4.83159 7.34371 4.75115C7.42523 4.45 7.55399 4.14651 7.70587 3.88481C7.74667 3.8113 7.76628 3.7279 7.76252 3.64391C7.75876 3.55992 7.73177 3.47861 7.68456 3.40904L7.11647 2.5569C7.29586 2.38213 7.47971 2.21038 7.66326 2.03142L8.51539 2.58531C8.58564 2.63142 8.66729 2.65716 8.75127 2.65967C8.83526 2.66217 8.9183 2.64135 8.99117 2.59951C9.26216 2.44261 9.54066 2.31735 9.8433 2.23735C9.92597 2.21649 10.0011 2.1728 10.0601 2.11128C10.1191 2.04975 10.1597 1.97286 10.1771 1.8894L10.3759 0.909442ZM10.7522 3.8422C9.74926 3.8422 8.92726 4.66421 8.92726 5.66719C8.92726 6.67019 9.74926 7.49218 10.7522 7.49218C11.7552 7.49218 12.5772 6.67019 12.5772 5.66719C12.5772 4.66421 11.7552 3.8422 10.7522 3.8422ZM10.7522 4.75115C11.26 4.75115 11.6683 5.15943 11.6683 5.66719C11.6683 6.17498 11.26 6.58324 10.7522 6.58324C10.2445 6.58324 9.8362 6.17498 9.8362 5.66719C9.8362 5.15943 10.2445 4.75115 10.7522 4.75115ZM19.2026 9.15384C18.8466 9.15384 18.5247 9.31408 18.2936 9.5515L18.2865 9.5444C18.2865 9.5444 18.2795 9.5586 18.2794 9.5586C18.2692 9.56883 17.6562 10.1756 16.987 10.8439C16.3123 11.5177 15.6074 12.2181 15.3964 12.4488C15.3559 12.493 15.3245 12.5448 15.3041 12.6012C15.2837 12.6576 15.2746 12.7174 15.2774 12.7773C15.2802 12.8372 15.2948 12.896 15.3204 12.9502C15.346 13.0045 15.3821 13.0531 15.4266 13.0934C15.471 13.1336 15.523 13.1647 15.5795 13.1848C15.636 13.2049 15.6959 13.2136 15.7558 13.2104C15.8157 13.2073 15.8744 13.1923 15.9285 13.1664C15.9826 13.1405 16.031 13.1041 16.071 13.0595C16.2148 12.9021 16.9528 12.1626 17.6261 11.4901C18.2995 10.8176 18.9256 10.1906 18.9256 10.1906C18.9304 10.1883 18.9351 10.186 18.9398 10.1835C19.0184 10.1008 19.1046 10.0628 19.2026 10.0628C19.4066 10.0628 19.6144 10.2584 19.6144 10.5741C19.6144 10.7101 19.5714 10.8271 19.5079 10.9149C19.5067 10.9172 19.5091 10.9204 19.5079 10.922C19.4881 10.9458 16.7698 14.2077 15.0129 16.2621C14.5276 16.8296 13.8607 17.3911 12.9181 17.3911H7.52834C6.94854 17.3911 6.33963 17.4964 5.86668 17.9592L4.58138 19.2161C4.53758 19.2578 4.50253 19.3077 4.47828 19.3631C4.45403 19.4185 4.44106 19.4781 4.44013 19.5385C4.43921 19.599 4.45034 19.659 4.47289 19.715C4.49543 19.7711 4.52894 19.8221 4.57143 19.8651C4.61393 19.9081 4.66457 19.9421 4.7204 19.9653C4.77622 19.9885 4.8361 20.0003 4.89654 20C4.95697 19.9997 5.01675 19.9874 5.07237 19.9638C5.128 19.9402 5.17835 19.9057 5.22048 19.8623L6.50578 18.6054C6.76503 18.3517 7.03976 18.3001 7.52834 18.3001H12.9181C14.2231 18.3001 15.137 17.5118 15.7017 16.8514C17.4731 14.7802 20.218 11.483 20.218 11.483C20.223 11.476 20.2277 11.4689 20.2322 11.4617C20.4157 11.2145 20.5234 10.9055 20.5234 10.5741C20.5234 9.81916 19.9558 9.15384 19.2026 9.15384ZM7.21589 12.5411C6.25162 12.5411 5.2577 12.6766 4.46066 13.3293L1.14443 16.0419C1.05121 16.1191 0.992477 16.2302 0.981158 16.3507C0.969838 16.4713 1.00686 16.5913 1.08408 16.6846C1.16129 16.7778 1.27238 16.8365 1.3929 16.8479C1.51342 16.8592 1.6335 16.8222 1.72673 16.7449L5.03585 14.0323C5.58868 13.5796 6.33529 13.45 7.21589 13.45H13.9051C13.9829 13.6735 13.9732 13.9467 13.827 14.2169C13.6431 14.5569 13.3317 14.7431 13.1808 14.7282C13.1667 14.7252 13.1525 14.7228 13.1382 14.7211H8.79944C8.73922 14.7203 8.67942 14.7314 8.62354 14.7538C8.56765 14.7763 8.51678 14.8096 8.47389 14.8519C8.431 14.8942 8.39695 14.9446 8.3737 15.0002C8.35045 15.0557 8.33848 15.1154 8.33848 15.1756C8.33848 15.2358 8.35045 15.2954 8.3737 15.351C8.39695 15.4066 8.431 15.457 8.47389 15.4992C8.51678 15.5415 8.56765 15.5749 8.62354 15.5973C8.67942 15.6198 8.73922 15.6309 8.79944 15.6301H13.0885H13.1382V15.623C13.8041 15.6622 14.332 15.1928 14.6295 14.643C14.9347 14.0788 15.0343 13.3206 14.5797 12.7257C14.5379 12.6689 14.4833 12.6227 14.4205 12.5906C14.3576 12.5586 14.2881 12.5416 14.2176 12.5411H7.21589Z" fill="white"/>
</svg>
