<svg width="21" height="21" viewBox="0 0 21 21" fill="none" xmlns="http://www.w3.org/2000/svg">
<path d="M19.6912 7.59558C19.4282 6.78114 19.5403 5.55858 18.8566 4.61461C18.1676 3.6632 16.9693 3.39278 16.2926 2.89789C15.6231 2.40821 15.0002 1.34261 13.8739 0.975102C12.7794 0.617946 11.6602 1.1026 10.7925 1.1026C9.9248 1.1026 8.80568 0.617829 7.711 0.975063C6.58495 1.3425 5.96154 2.40832 5.29243 2.89777C4.6165 3.39208 3.41726 3.66324 2.72836 4.61449C2.04531 5.55768 2.15631 6.78305 1.89375 7.59555C1.64389 8.36884 0.826019 9.29693 0.826019 10.4988C0.826019 11.7014 1.64296 12.626 1.89375 13.4021C2.15677 14.2165 2.04465 15.4391 2.72829 16.383C3.41726 17.3345 4.61556 17.6049 5.29231 18.0998C5.96174 18.5894 6.58475 19.6551 7.711 20.0225C8.80474 20.3795 9.92569 19.895 10.7925 19.895C11.658 19.895 12.7816 20.379 13.8739 20.0226C15 19.6551 15.623 18.5895 16.2925 18.0999C16.9684 17.6056 18.1677 17.3344 18.8566 16.3831C19.5396 15.4399 19.4286 14.2147 19.6912 13.4021C19.941 12.6288 20.7589 11.7007 20.7589 10.4988C20.7589 9.29627 19.9422 8.37203 19.6912 7.59558ZM18.2094 12.9232C17.9028 13.8722 17.9831 14.9342 17.5954 15.4697C17.2024 16.0122 16.17 16.2601 15.3733 16.8428C14.5854 17.419 14.0332 18.3325 13.3909 18.542C12.7832 18.7404 11.793 18.3377 10.7925 18.3377C9.78472 18.3377 8.80466 18.7412 8.1941 18.542C7.55189 18.3325 7.00043 17.4197 6.21164 16.8428C5.41969 16.2636 4.38139 16.0106 3.98955 15.4696C3.60304 14.9359 3.68032 13.8665 3.3756 12.9233C3.07692 11.9991 2.38328 11.1988 2.38328 10.4988C2.38328 9.79809 3.07629 9.00062 3.37552 8.0744C3.68211 7.12549 3.60179 6.0634 3.98955 5.52798C4.38229 4.98574 5.41549 4.73708 6.21164 4.15483C7.00206 3.57673 7.55084 2.66547 8.19402 2.45559C8.80116 2.2575 9.79465 2.65994 10.7924 2.65994C11.802 2.65994 12.7796 2.25614 13.3908 2.45559C14.033 2.66512 14.5849 3.57829 15.3733 4.15487C16.1652 4.73405 17.2035 4.98699 17.5954 5.52802C17.982 6.0618 17.9043 7.13008 18.2093 8.07432V8.07436C18.508 8.99856 19.2016 9.79879 19.2016 10.4988C19.2016 11.1995 18.5086 11.997 18.2094 12.9232ZM14.3797 7.99962C14.6838 8.30371 14.6838 8.7967 14.3797 9.10075L10.4825 12.998C10.1784 13.3021 9.68533 13.3021 9.38128 12.998L7.20524 10.822C6.90115 10.5179 6.90111 10.0249 7.2052 9.72085C7.5093 9.4168 8.00236 9.41676 8.30634 9.72085L9.93184 11.3463L13.2785 7.99965C13.5826 7.69556 14.0756 7.69556 14.3797 7.99962Z" fill="white"/>
</svg>
