<svg height="100" width="100" xmlns="http://www.w3.org/2000/svg"><g fill="#fff"><circle cx="50" cy="10.907" r="2.649"/><path d="M54.323 6.193v7.916h-1.388l-5.938-.003-.667.003h-.652V6.193c0-1.592-2.078-1.592-2.074 0v8.086c0 1.758 1.036 3.482 3.094 3.482h.003l-.003 21.48a1.486 1.486 0 102.97 0l.001-12.459h.663l-.005 12.459a1.485 1.485 0 102.968 0l.008-21.48c2.059 0 3.094-1.724 3.094-3.482V6.193c.003-1.591-2.074-1.591-2.074 0z"/><circle cx="22.474" cy="77.627" r="2.914"/><path d="M15.559 77.004l5.598-5.598.46.462.521.52 5.618 5.624.476.47.46.462-5.598 5.598c-1.125 1.125.343 2.594 1.467 1.467l5.718-5.718c1.243-1.245 1.729-3.195.274-4.65l-.002-.002 15.191-15.187a1.487 1.487 0 00-2.102-2.102l-8.81 8.811-1.891-1.893 8.813-8.807c.58-.58.583-1.52 0-2.101a1.483 1.483 0 00-2.1.002L24.459 69.546c-1.454-1.455-3.406-.97-4.649.274l-5.718 5.717c-1.128 1.125.341 2.593 1.467 1.467zM50 86.445a2.649 2.649 0 100 5.296 2.648 2.648 0 100-5.296zm0 4.793a2.146 2.146 0 01-2.147-2.143 2.147 2.147 0 014.293 0A2.145 2.145 0 0150 91.238z"/><path d="M44.639 95.001c.519 0 1.039-.399 1.039-1.193V85.89h1.387l5.938.004.668-.004h.651v7.918c0 .794.52 1.193 1.038 1.193.52 0 1.037-.399 1.035-1.193V85.72c0-1.759-1.035-3.482-3.093-3.482h-.003l.003-21.478a1.486 1.486 0 10-2.97 0l-.002 12.457h-.662l.005-12.457a1.485 1.485 0 10-2.969 0l-.007 21.478c-2.058 0-3.093 1.724-3.093 3.482v8.088c-.002.794.516 1.193 1.035 1.193zm-.533-9.281c0-1.434.811-2.979 2.591-2.979h.503v-.503l.007-21.478c0-.545.44-.985.982-.985.541 0 .981.44.981.985l-.005 12.457-.001.503h1.669v-.503l.002-12.457a.983.983 0 111.964 0l-.004 21.478.003.503h.504c1.78 0 2.591 1.546 2.591 2.979v8.088c0 .235-.063.427-.184.548a.5.5 0 01-.35.143c-.246 0-.535-.181-.535-.69v-8.422h-1.158l-.664.004-5.938-.004h-1.889v8.421c0 .51-.289.69-.536.69a.498.498 0 01-.349-.143c-.121-.121-.184-.312-.184-.548V85.72z"/><circle cx="83.959" cy="49.188" r="2.649"/><path d="M87.161 53.511h-6.403v-1.387l.003-5.939-.003-.666v-.652h6.403c1.592 0 1.592-2.077 0-2.074h-6.574c-1.758 0-3.481 1.035-3.481 3.094v.003l-16.446-.003a1.485 1.485 0 100 2.968l7.426.003v.662l-7.426-.005a1.485 1.485 0 100 2.968l16.446.007c0 2.058 1.724 3.092 3.481 3.095l6.574-.003c1.591.006 1.591-2.071 0-2.071zM18.691 50.1a2.65 2.65 0 10-5.298 0 2.65 2.65 0 005.298 0zm-4.744 0c0-1.156.94-2.096 2.095-2.096 1.155 0 2.095.94 2.095 2.096 0 1.155-.94 2.096-2.095 2.096a2.098 2.098 0 01-2.095-2.096z"/><path d="M11.646 44.739c0 .518.397 1.039 1.193 1.039h6.406v1.387l-.003 5.938.003.668v.652h-6.406c-.796 0-1.193.518-1.193 1.038 0 .519.397 1.037 1.193 1.035h6.576c1.758 0 3.482-1.035 3.482-3.094v-.003l16.446.003a1.486 1.486 0 100-2.97l-10.448-.002v-.662l10.448.005a1.485 1.485 0 100-2.968l-16.446-.007c0-2.058-1.724-3.094-3.482-3.094h-6.576c-.796-.002-1.193.516-1.193 1.035zm7.769-.483c1.457 0 2.927.786 2.927 2.541v.553h.555l16.446.007c.515 0 .933.418.933.931s-.418.93-.933.93l-10.448-.005h-.553v1.77h.553l10.448.002a.931.931 0 110 1.863l-16.446-.003-.555.003v.555c0 1.755-1.471 2.539-2.927 2.539h-6.576c-.224.001-.4-.058-.512-.169a.43.43 0 01-.128-.312c0-.235.168-.485.64-.485h6.959v-1.209l-.003-.664.003-5.938v-1.942h-6.959c-.472 0-.64-.25-.64-.483 0-.12.045-.231.128-.314.111-.111.288-.168.512-.168h6.576zm4.617-19.658a2.649 2.649 0 00.777-1.873l1.321-1.322-2.298-.758-.022.023a2.64 2.64 0 00-3.524.184 2.636 2.636 0 00-.184 3.522l-.017.018.75 2.305 1.323-1.323c.679 0 1.357-.259 1.874-.776z"/><path d="M29.064 20.587l-5.716-5.717c-1.124-1.129-2.594.34-1.467 1.466l5.598 5.598-.461.461-.52.519-4.2 4.197-.47.474-.461.461-5.598-5.598c-1.125-1.126-2.596.342-1.465 1.466l5.716 5.717c1.245 1.244 3.194 1.731 4.65.275l.004-.002 3.816 3.819 3.876 6.642 1.38-1.38 6.112 6.114a1.487 1.487 0 002.1-2.102l-6.111-6.114.468-.468 6.109 6.118a1.487 1.487 0 002.1-2.102l-6.111-6.116 1.384-1.384-6.638-3.872-3.818-3.823c1.453-1.455.968-3.405-.277-4.649zm38.69 56.506l5.007 5.006c.562.563 1.21.48 1.578.113.367-.368.452-1.017-.111-1.58l-4.887-4.885.462-.461.877-.878 4.2-4.194.825-.831.461-.461 4.887 4.887c.562.562 1.213.477 1.58.109.365-.366.451-1.015-.113-1.577l-5.008-5.008c-1.241-1.241-3.549-1.373-5.004.083l.392.393c1.268-1.27 3.243-1.062 4.221-.083l5.009 5.008c.158.156.242.322.242.48a.432.432 0 01-.132.31c-.167.167-.462.226-.794-.107l-4.887-4.887-.393-.392-.392.392-.461.464-.825.828-4.2 4.197-.876.875-.461.462-.393.392.391.392 4.887 4.885c.333.335.275.63.111.796a.447.447 0 01-.312.131c-.158 0-.322-.085-.482-.243l-5.006-5.006c-1.032-1.03-1.516-2.626-.275-3.867l.392-.393-.392-.392-2.396-2.399-.062-.062-.08-.038-4.887-2.463.841-.843.39-.392-.388-.393-6.111-6.114a.93.93 0 010-1.317c.36-.36.95-.36 1.314.003l6.111 6.114.392.393.393-.393 1.179-1.181.392-.39-.392-.393-6.11-6.114a.932.932 0 011.317-1.318l6.11 6.115.393.392.391-.392.84-.842 2.467 4.893.037.08.062.062 2.396 2.397.039-.039.354-.354-2.396-2.396-2.81-5.573-1.38 1.38-6.111-6.113a1.487 1.487 0 00-2.102 2.102l6.111 6.114-1.18 1.179-6.111-6.114a1.483 1.483 0 10-2.098 2.099l6.111 6.114-1.385 1.384 5.57 2.806 2.396 2.399c-1.453 1.455-.967 3.406.275 4.649z"/><path d="M73.344 76.679l.023-.024c1.041.834 2.559.781 3.523-.185s1.019-2.482.185-3.521l.016-.018-2.014-2.144-3.868 3.871 2.135 2.021zm1.723-5.094l1.4 1.49.175.22c.673.836.61 2.032-.142 2.785a2.085 2.085 0 01-2.785.142l-.178-.124-1.534-1.45 3.064-3.063zm-.882-45.62a2.645 2.645 0 003.698.038 2.86 2.86 0 001.049-.666 2.914 2.914 0 00-4.121-4.12 2.898 2.898 0 00-.666 1.047 2.649 2.649 0 00.04 3.701zm4.355-4.356a2.36 2.36 0 01.002 3.336 2.361 2.361 0 01-.851.541l-.105.038-.083.08a2.085 2.085 0 01-2.926-.031 2.082 2.082 0 01-.033-2.925l.08-.083.04-.106a2.34 2.34 0 01.539-.85 2.36 2.36 0 013.337 0z"/><path d="M78.393 31.195l4.648-4.649c.402-.401.486-.803.486-1.07.002-.986-1.304-1.828-2.342-.789l-4.336 4.333-5.721-5.723 4.334-4.332c1.04-1.04.197-2.346-.791-2.344-.266 0-.67.085-1.066.485l-4.649 4.651c-1.228 1.228-1.86 3.232-.462 4.842l-1.816 1.819-10.462 7.623 1.414 1.415-2.356 2.357a1.764 1.764 0 00-.002 2.492 1.764 1.764 0 002.492 0l2.357-2.356.076.074-2.357 2.357c-.688.688-.688 1.805-.002 2.492s1.805.687 2.492-.002l2.357-2.356 1.416 1.418 7.594-10.42 1.857-1.854c1.607 1.396 3.612.765 4.839-.463zm-7.113 1.96l-7.238 9.928-1.352-1.353-2.75 2.75a1.21 1.21 0 01-1.709 0 1.21 1.21 0 010-1.709l2.75-2.747-.857-.858-2.75 2.749a1.208 1.208 0 11-1.709-1.709l2.75-2.747-1.348-1.349 9.971-7.271 2.037-2.036.193-.198-.195-.198c-1.368-1.367-.816-3.167.275-4.257l4.647-4.649c.212-.211.446-.323.679-.323.562-.005 1.072.722.396 1.398L70.346 23.3l6.503 6.504 4.726-4.725c.677-.673 1.399-.165 1.399.398 0 .232-.113.465-.324.676l-4.649 4.651c-1.093 1.091-2.889 1.643-4.259.274l-.194-.194-2.268 2.271z"/></g></svg>