<?xml version="1.0" encoding="UTF-8"?>
<svg width="19px" height="18px" viewBox="0 0 19 18" version="1.1" xmlns="http://www.w3.org/2000/svg" xmlns:xlink="http://www.w3.org/1999/xlink">
    <!-- Generator: sketchtool 50.2 (55047) - http://www.bohemiancoding.com/sketch -->
    <title>246B0F04-F423-469A-8FCA-77830D58537B</title>
    <desc>Created with sketchtool.</desc>
    <defs></defs>
    <g id="ixo-platform" stroke="none" stroke-width="1" fill="none" fill-rule="evenodd">
        <g id="Projects-Public-Logged-In" transform="translate(-1075.000000, -90.000000)" fill="#FFFFFF" fill-rule="nonzero">
            <g id="Group-15" transform="translate(920.000000, 80.000000)">
                <g id="Table-Icon" transform="translate(155.000000, 10.000000)">
                    <path d="M9.5,0 C8.06917045,0 6.90909091,1.09881818 6.90909091,2.45454545 L6.90909091,15.5454545 C6.90909091,16.9011818 8.06917045,18 9.5,18 C10.9308295,18 12.0909091,16.9011818 12.0909091,15.5454545 L12.0909091,2.45454545 C12.0909091,1.09881818 10.9308295,0 9.5,0 Z M10.3636364,15.5454545 C10.3636364,15.9972955 9.97694318,16.3636364 9.5,16.3636364 C9.02305682,16.3636364 8.63636364,15.9972955 8.63636364,15.5454545 L8.63636364,2.45454545 C8.63636364,2.00270455 9.02305682,1.63636364 9.5,1.63636364 C9.97694318,1.63636364 10.3636364,2.00270455 10.3636364,2.45454545 L10.3636364,15.5454545 Z M16.4090909,4.90909091 C14.9782614,4.90909091 13.8181818,6.00790909 13.8181818,7.36363636 L13.8181818,15.5454545 C13.8181818,16.9011818 14.9782614,18 16.4090909,18 C17.8399205,18 19,16.9011818 19,15.5454545 L19,7.36363636 C19,6.00790909 17.8399205,4.90909091 16.4090909,4.90909091 Z M17.2727273,15.5454545 C17.2727273,15.9972955 16.8860341,16.3636364 16.4090909,16.3636364 C15.9321477,16.3636364 15.5454545,15.9972955 15.5454545,15.5454545 L15.5454545,7.36363636 C15.5454545,6.91179545 15.9321477,6.54545455 16.4090909,6.54545455 C16.8860341,6.54545455 17.2727273,6.91179545 17.2727273,7.36363636 L17.2727273,15.5454545 Z M2.59090909,9.81818182 C1.16007955,9.81818182 0,10.917 0,12.2727273 L0,15.5454545 C0,16.9011818 1.16007955,18 2.59090909,18 C4.02173864,18 5.18181818,16.9011818 5.18181818,15.5454545 L5.18181818,12.2727273 C5.18181818,10.917 4.02173864,9.81818182 2.59090909,9.81818182 Z M3.45454545,15.5454545 C3.45454545,15.9972955 3.06785227,16.3636364 2.59090909,16.3636364 C2.11396591,16.3636364 1.72727273,15.9972955 1.72727273,15.5454545 L1.72727273,12.2727273 C1.72727273,11.8208864 2.11396591,11.4545455 2.59090909,11.4545455 C3.06785227,11.4545455 3.45454545,11.8208864 3.45454545,12.2727273 L3.45454545,15.5454545 Z" id="graph-view-icon"></path>
                </g>
            </g>
        </g>
    </g>
</svg>