<svg width="16" height="17" viewBox="0 0 16 17" fill="none" xmlns="http://www.w3.org/2000/svg">
<g clip-path="url(#clip0_0_4964)">
<path d="M7.5 8.89636V2.33386H7.03125C5.15313 2.33386 3.38744 3.06524 2.05941 4.39327C0.731375 5.7213 0 7.48699 0 9.36511C0 11.2432 0.731375 13.0089 2.05941 14.337C3.38744 15.665 5.15313 16.3964 7.03125 16.3964C8.90938 16.3964 10.6751 15.665 12.0031 14.337C13.3311 13.0089 14.0625 11.2432 14.0625 9.36511V8.89636H7.5ZM7.03125 15.4589C3.67116 15.4589 0.9375 12.7252 0.9375 9.36511C0.9375 6.16271 3.42056 3.52936 6.5625 3.28921V9.83386H13.1072C12.867 12.9758 10.2337 15.4589 7.03125 15.4589Z" fill="white"/>
<path d="M13.9406 2.45577C12.6126 1.12774 10.8469 0.396362 8.96875 0.396362H8.5V7.89636H16V7.42761C16 5.54949 15.2686 3.7838 13.9406 2.45577ZM9.4375 6.95886V1.35171C12.4247 1.58002 14.8163 3.97168 15.0447 6.95886H9.4375Z" fill="white"/>
</g>
<defs>
<clipPath id="clip0_0_4964">
<rect width="16" height="16" fill="white" transform="translate(0 0.396362)"/>
</clipPath>
</defs>
</svg>
