<svg width="32" height="32" viewBox="0 0 32 32" fill="none" xmlns="http://www.w3.org/2000/svg">
<path d="M21 4C19.207 4 17.582 4.33594 16.3125 4.96875C15.043 5.60156 14 6.63281 14 8L14 12C14 12.1289 14.043 12.2539 14.0625 12.375C13.1328 12.1328 12.1016 12 11 12C9.20703 12 7.58203 12.3359 6.3125 12.9688C5.04297 13.6016 4 14.6328 4 16L4 24C4 25.3672 5.04297 26.3984 6.3125 27.0312C7.58203 27.6641 9.20703 28 11 28C12.793 28 14.418 27.6641 15.6875 27.0312C16.957 26.3984 18 25.3672 18 24V23.5938C18.918 23.8359 19.9219 24 21 24C22.793 24 24.418 23.6641 25.6875 23.0312C26.957 22.3984 28 21.3672 28 20L28 8C28 6.63281 26.957 5.60156 25.6875 4.96875C24.418 4.33594 22.793 4 21 4ZM21 6C22.5234 6 23.8789 6.32812 24.7812 6.78125C25.6836 7.23437 26 7.71094 26 8C26 8.28906 25.6836 8.76562 24.7812 9.21875C23.8789 9.67187 22.5234 10 21 10C19.4766 10 18.1211 9.67187 17.2188 9.21875C16.3164 8.76562 16 8.28906 16 8C16 7.71094 16.3164 7.23437 17.2188 6.78125C18.1211 6.32812 19.4766 6 21 6ZM16 10.8437C16.1055 10.9023 16.2031 10.9766 16.3125 11.0312C17.582 11.6641 19.207 12 21 12C22.793 12 24.418 11.6641 25.6875 11.0312C25.7969 10.9766 25.8945 10.9023 26 10.8437V12C26 12.2891 25.6836 12.7656 24.7812 13.2187C23.8789 13.6719 22.5234 14 21 14C19.4766 14 18.1211 13.6719 17.2188 13.2187C16.3164 12.7656 16 12.2891 16 12V10.8437ZM11 14C12.5234 14 13.8789 14.3281 14.7813 14.7812C15.6836 15.2344 16 15.7109 16 16C16 16.2891 15.6836 16.7656 14.7813 17.2188C13.8789 17.6719 12.5234 18 11 18C9.47656 18 8.12109 17.6719 7.21875 17.2188C6.31641 16.7656 6 16.2891 6 16C6 15.7109 6.31641 15.2344 7.21875 14.7812C8.12109 14.3281 9.47656 14 11 14ZM26 14.8437V16C26 16.2891 25.6836 16.7656 24.7812 17.2188C23.8789 17.6719 22.5234 18 21 18C19.8633 18 18.8359 17.8125 18 17.5312V16C18 15.8711 17.957 15.7461 17.9375 15.625C18.8672 15.8672 19.8984 16 21 16C22.793 16 24.418 15.6641 25.6875 15.0312C25.7969 14.9766 25.8945 14.9023 26 14.8437ZM6 18.8438C6.10547 18.9023 6.20313 18.9766 6.3125 19.0312C7.58203 19.6641 9.20703 20 11 20C12.793 20 14.418 19.6641 15.6875 19.0312C15.7969 18.9766 15.8945 18.9023 16 18.8438V20C16 20.2891 15.6836 20.7656 14.7813 21.2188C13.8789 21.6719 12.5234 22 11 22C9.47656 22 8.12109 21.6719 7.21875 21.2188C6.31641 20.7656 6 20.2891 6 20V18.8438ZM26 18.8437V20C26 20.2891 25.6836 20.7656 24.7813 21.2187C23.8789 21.6719 22.5234 22 21 22C19.8633 22 18.8359 21.8398 18 21.5625V19.625C18.918 19.8672 19.918 20 21 20C22.793 20 24.418 19.6641 25.6875 19.0312C25.7969 18.9766 25.8945 18.9023 26 18.8437ZM6 22.8438C6.10547 22.9023 6.20313 22.9766 6.3125 23.0312C7.58203 23.6641 9.20703 24 11 24C12.793 24 14.418 23.6641 15.6875 23.0312C15.7969 22.9766 15.8945 22.9023 16 22.8438V24C16 24.2891 15.6836 24.7656 14.7813 25.2188C13.8789 25.6719 12.5234 26 11 26C9.47656 26 8.12109 25.6719 7.21875 25.2188C6.31641 24.7656 6 24.2891 6 24L6 22.8438Z" fill="black"/>
</svg>
