<svg width="56" height="56" viewBox="0 0 56 56" fill="none" xmlns="http://www.w3.org/2000/svg">
<g clip-path="url(#clip0_15397_335195)">
<path fill-rule="evenodd" clip-rule="evenodd" d="M20.0525 7.60347C20.3792 3.34785 23.8126 0 28 0C32.1873 0 35.6207 3.34785 35.9474 7.60347C45.2511 11.001 51.9185 20.196 51.9185 31.0078C51.9185 31.3739 51.9109 31.7381 51.8958 32.1003C54.2914 33.5267 55.905 36.2061 55.905 39.2765C55.905 43.8432 52.3354 47.5452 47.9321 47.5452C47.2768 47.5452 46.6399 47.4632 46.0306 47.3086C41.646 52.5208 35.1942 55.814 28 55.814C20.8058 55.814 14.3539 52.5208 9.96938 47.3086C9.36001 47.4632 8.72315 47.5452 8.06783 47.5452C3.66454 47.5452 0.0949707 43.8432 0.0949707 39.2765C0.0949707 36.2061 1.70853 33.5267 4.10418 32.1003C4.08905 31.7381 4.0814 31.3739 4.0814 31.0078C4.0814 20.196 10.7488 11.001 20.0525 7.60347ZM35.0752 12.0841C33.7457 14.7305 31.0763 16.5375 28 16.5375C24.9236 16.5375 22.2542 14.7305 20.9247 12.0841C13.6204 15.0313 8.43059 22.4023 8.43059 31.0078C8.43059 31.0106 8.43059 31.0134 8.43059 31.0162C12.6655 31.2128 16.0407 34.8359 16.0407 39.2765C16.0407 41.4937 15.1992 43.5071 13.8294 44.992C17.3964 48.878 22.43 51.3034 28 51.3034C33.5699 51.3034 38.6035 48.878 42.1705 44.992C40.8007 43.5071 39.9593 41.4937 39.9593 39.2765C39.9593 34.8359 43.3344 31.2128 47.5693 31.0162C47.5693 31.0134 47.5693 31.0106 47.5693 31.0078C47.5693 22.4023 42.3795 15.0313 35.0752 12.0841Z" fill="white"/>
</g>
<defs>
<clipPath id="clip0_15397_335195">
<rect width="55.81" height="55.814" fill="white" transform="translate(0.0949707)"/>
</clipPath>
</defs>
</svg>
