<svg width="32" height="32" viewBox="0 0 32 32" fill="none"
  xmlns="http://www.w3.org/2000/svg">
  <path d="M16 4L11 8H21L16 4ZM8.5 5L5 9.65625V27H27V9.65625L23.5 5H18.5L21 7H22.5L24 9H8L9.5 7H11L13.5 5H8.5ZM7 11H25V25H7V11ZM12.8125 13C12.2617 13.0508 11.8555 13.543 11.9062 14.0938C11.957 14.6445 12.4492 15.0508 13 15H19C19.3594 15.0039 19.6953 14.8164 19.8789 14.5039C20.0586 14.1914 20.0586 13.8086 19.8789 13.4961C19.6953 13.1836 19.3594 12.9961 19 13H13C12.9688 13 12.9375 13 12.9062 13C12.875 13 12.8438 13 12.8125 13Z" fill="black"/>
</svg>
