<svg width="50" height="51" viewBox="0 0 50 51" fill="none"
  xmlns="http://www.w3.org/2000/svg">
  <path d="M11.0352 3.875L14.9414 6.70703C22.3083 12.0171 24.5422 17.2234 25 18.377L23.584 19.793V19.8418L22.5098 20.916L4.19922 39.9102L3.125 41.0332L9.76562 47.6738L10.8887 46.502L30.2734 26.4336L30.7617 25.8477L30.9082 25.75L32.4219 25.2129L32.7148 25.5059L32.1289 26.9219L31.6895 27.8984L36.8652 33.0742L46.8262 23.1133L42.3828 18.6699L41.6504 17.9863L40.7227 18.3281L39.3066 18.8652L38.9648 18.5234L39.4531 16.9609L39.6484 16.3262L39.3555 15.7402C39.3555 15.7402 37.7075 12.6824 33.9844 9.73438C30.2612 6.78638 24.3652 3.875 15.8691 3.875H11.0352ZM20.459 7.39062C25.7202 8.17188 29.5166 10.1494 32.0801 12.1758C34.8389 14.3608 35.9375 16.1309 36.2793 16.7168L35.6934 18.5234L35.4492 19.4023L36.084 20.0859L38.5742 22.5762L39.5508 22.1855L40.918 21.6484L42.3828 23.1133L36.8652 28.6309L35.4004 27.166L35.9863 25.75L36.4258 24.7734L35.6445 24.041L33.8867 22.2832L33.2031 21.5508L32.2266 21.8926L29.4434 23.0156L29.1504 23.1133L28.0273 22.0391L26.9043 20.916L28.7109 19.1094L28.3691 18.1816C28.3691 18.1816 26.2695 12.8777 20.459 7.39062ZM24.707 23.1133L26.9531 25.3594L9.7168 43.1816L7.51953 40.9844L24.707 23.1133Z" fill="white"/>
</svg>
