<svg width="13" height="18" viewBox="0 0 13 18" fill="none" xmlns="http://www.w3.org/2000/svg">
<path fill-rule="evenodd" clip-rule="evenodd" d="M0 10.9418C0 14.3707 2.74519 17.16 6.11978 17.16C9.49436 17.16 12.2401 14.3707 12.2396 10.9418C12.2396 7.72536 7.21644 1.79556 6.64382 1.12997L6.57558 1.0501C6.33485 0.770002 5.9058 0.770002 5.66452 1.0501L5.59574 1.12997C5.02312 1.79556 0 7.72536 0 10.9418ZM5.80754 3.0757C5.96857 2.8738 6.27153 2.8738 6.43256 3.0757C7.7188 4.68936 9.54829 7.21217 10.3905 9.18528C10.1327 8.97456 9.8013 8.81329 9.34912 8.73527C7.81799 8.47106 6.19827 9.2115 4.67269 11.2725C4.39669 11.563 4.04968 11.8682 3.68118 12.112C3.28901 12.3716 2.92723 12.5255 2.63516 12.5652C2.3762 12.6003 2.19448 12.5479 2.03014 12.3957C1.83228 12.2126 1.57041 11.7991 1.3945 10.92C1.39392 10.9171 1.39334 10.9143 1.39274 10.9114C1.42076 8.98245 4.09543 5.22364 5.80754 3.0757Z" fill="white"/>
</svg>
