<svg width="50" height="51" viewBox="0 0 50 51" fill="none" xmlns="http://www.w3.org/2000/svg">
  <path
    d="M39.5837 14.5916V15.0846H29.8614V4.66797H30.3216C30.8051 4.66797 31.2688 4.87378 31.6107 5.23999L39.0498 13.2104C39.3916 13.5768 39.5836 14.0736 39.5837 14.5916ZM29.2538 17.6888C28.2512 17.6888 27.4309 16.8099 27.4309 15.7357V4.66797H12.2399C11.2331 4.66797 10.417 5.5424 10.417 6.62109V44.3815C10.417 45.4602 11.2331 46.3346 12.2399 46.3346H37.7607C38.7675 46.3346 39.5837 45.4602 39.5837 44.3815V17.6888H29.2538ZM19.7751 37.2611C19.7382 37.3032 19.694 37.3372 19.645 37.361C19.5959 37.3847 19.5429 37.398 19.4891 37.3998C19.4352 37.4017 19.3816 37.3922 19.3312 37.3718C19.2808 37.3514 19.2346 37.3206 19.1953 37.2812L14.2684 32.3323C14.2275 32.2912 14.1949 32.2415 14.1726 32.1864C14.1503 32.1312 14.1388 32.0718 14.1388 32.0117C14.1388 31.9516 14.1503 31.8921 14.1726 31.837C14.1949 31.7818 14.2275 31.7322 14.2684 31.6911L19.1953 26.7422C19.2346 26.7027 19.2808 26.6719 19.3312 26.6516C19.3816 26.6312 19.4352 26.6217 19.4891 26.6235C19.5429 26.6254 19.5959 26.6386 19.645 26.6624C19.694 26.6862 19.7382 26.7201 19.7751 26.7622L21.2622 28.4618C21.2998 28.5048 21.3289 28.5554 21.3479 28.6106C21.3669 28.6659 21.3753 28.7247 21.3727 28.7835C21.37 28.8423 21.3564 28.8999 21.3326 28.953C21.3087 29.006 21.2752 29.0534 21.234 29.0923L18.1378 32.0117L21.234 34.9311C21.2752 34.97 21.3087 35.0174 21.3326 35.0705C21.3564 35.1235 21.37 35.1812 21.3727 35.24C21.3753 35.2988 21.3669 35.3575 21.3479 35.4128C21.3289 35.468 21.2998 35.5187 21.2622 35.5616L19.7751 37.2611ZM23.6712 41.3691L21.586 40.7205C21.4815 40.688 21.3934 40.6124 21.341 40.5103C21.2885 40.4081 21.2761 40.2879 21.3064 40.1759L25.9731 22.9538C26.0034 22.8419 26.074 22.7474 26.1693 22.6912C26.2647 22.6351 26.3769 22.6218 26.4814 22.6542L28.5665 23.3028C28.6182 23.3189 28.6665 23.3458 28.7085 23.3818C28.7506 23.4179 28.7856 23.4625 28.8115 23.5131C28.8375 23.5637 28.8539 23.6192 28.8598 23.6766C28.8657 23.7339 28.861 23.792 28.846 23.8474L24.1793 41.0696C24.1643 41.125 24.1393 41.1767 24.1057 41.2218C24.072 41.2669 24.0304 41.3044 23.9832 41.3322C23.936 41.36 23.8842 41.3776 23.8306 41.3839C23.7771 41.3903 23.7229 41.3852 23.6712 41.3691ZM35.8841 32.3323L30.9572 37.2812C30.9179 37.3206 30.8718 37.3514 30.8214 37.3718C30.771 37.3922 30.7173 37.4017 30.6635 37.3998C30.6097 37.398 30.5567 37.3847 30.5076 37.361C30.4585 37.3372 30.4143 37.3032 30.3775 37.2611L28.8903 35.5615C28.8527 35.5186 28.8236 35.468 28.8046 35.4127C28.7856 35.3575 28.7772 35.2987 28.7798 35.2399C28.7825 35.1811 28.7961 35.1234 28.8199 35.0704C28.8438 35.0173 28.8773 34.97 28.9185 34.9311L32.0148 32.0117L28.9186 29.0923C28.8774 29.0534 28.8438 29.006 28.82 28.953C28.7962 28.8999 28.7825 28.8423 28.7799 28.7835C28.7773 28.7247 28.7857 28.6659 28.8047 28.6106C28.8236 28.5554 28.8528 28.5048 28.8904 28.4618L30.3776 26.7622C30.4144 26.7201 30.4586 26.6862 30.5077 26.6624C30.5568 26.6386 30.6097 26.6254 30.6636 26.6235C30.7174 26.6217 30.7711 26.6312 30.8215 26.6516C30.8719 26.6719 30.918 26.7027 30.9573 26.7422L35.8842 31.6911C35.9251 31.7322 35.9577 31.7818 35.98 31.837C36.0023 31.8921 36.0138 31.9516 36.0138 32.0117C36.0138 32.0718 36.0023 32.1312 35.98 32.1864C35.9577 32.2415 35.9251 32.2912 35.8841 32.3323Z"
    fill="white" />
</svg>