<svg width="50" height="51" viewBox="0 0 50 51" fill="none" xmlns="http://www.w3.org/2000/svg">
  <path
    d="M35.8882 6.69954C35.6501 6.70564 35.3999 6.73616 35.1558 6.79719L9.76514 13.4866C7.71436 14.0238 6.24951 15.9036 6.24951 18.0277V39.512C6.24951 42.0816 8.36743 44.1995 10.937 44.1995H39.062C41.6316 44.1995 43.7495 42.0816 43.7495 39.512V19.1995C43.7495 16.63 41.6316 14.512 39.062 14.512H18.1636L35.937 9.82454V12.9495H39.062V9.82454C39.062 8.06672 37.5667 6.67512 35.8882 6.69954ZM10.937 17.637H39.062C39.947 17.637 40.6245 18.3145 40.6245 19.1995V39.512C40.6245 40.397 39.947 41.0745 39.062 41.0745H10.937C10.052 41.0745 9.37451 40.397 9.37451 39.512V19.1995C9.37451 18.3145 10.052 17.637 10.937 17.637ZM35.1558 27.012C33.8618 27.012 32.812 28.0618 32.812 29.3558C32.812 30.6497 33.8618 31.6995 35.1558 31.6995C36.4497 31.6995 37.4995 30.6497 37.4995 29.3558C37.4995 28.0618 36.4497 27.012 35.1558 27.012Z"
    fill="white" />
</svg>