<svg width="17" height="18" viewBox="0 0 17 18" fill="none" xmlns="http://www.w3.org/2000/svg">
<path d="M16.9674 17.116V17.1152H16.9716V10.8381C16.9716 7.76726 16.3161 5.40173 12.7563 5.40173C11.045 5.40173 9.89654 6.3488 9.42769 7.24666H9.37819V5.68842H6.00293V17.1152H9.5175V11.4571C9.5175 9.96733 9.79754 8.52676 11.627 8.52676C13.4295 8.52676 13.4564 10.2269 13.4564 11.5527V17.116H16.9674Z" fill="white"/>
<path d="M0.280273 5.68811H3.79907V17.1149H0.280273V5.68811Z" fill="white"/>
<path d="M2.03802 0C0.912937 0 0 0.920679 0 2.0553C0 3.18993 0.912937 4.12986 2.03802 4.12986C3.1631 4.12986 4.07604 3.18993 4.07604 2.0553C4.07533 0.920679 3.1624 0 2.03802 0V0Z" fill="white"/>
</svg>
