<svg width="24" height="24" viewBox="0 0 24 24" fill="white"
  xmlns="http://www.w3.org/2000/svg">
  <path fill-rule="evenodd" clip-rule="evenodd" d="M8.77049 4.04378C8.90324 2.37627 10.2985 1.06445 12.0002 1.06445C13.7018 1.06445 15.0971 2.37627 15.2298 4.04378C19.0106 5.37505 21.7202 8.978 21.7202 13.2145C21.7202 13.3579 21.717 13.5006 21.7109 13.6426C22.6844 14.2015 23.3402 15.2514 23.3402 16.4545C23.3402 18.2439 21.8896 19.6945 20.1002 19.6945C19.8338 19.6945 19.575 19.6623 19.3274 19.6017C17.5456 21.6441 14.9237 22.9345 12.0002 22.9345C9.07658 22.9345 6.4547 21.6441 4.67291 19.6017C4.42527 19.6623 4.16647 19.6945 3.90016 19.6945C2.11075 19.6945 0.660156 18.2439 0.660156 16.4545C0.660156 15.2514 1.31587 14.2015 2.28941 13.6426C2.28326 13.5006 2.28016 13.3579 2.28016 13.2145C2.28016 8.978 4.98966 5.37505 8.77049 4.04378ZM14.8754 5.79944C14.3351 6.8364 13.2503 7.54445 12.0002 7.54445C10.75 7.54445 9.66521 6.8364 9.12493 5.79944C6.15661 6.95427 4.04758 9.84252 4.04758 13.2145C4.04758 13.2156 4.04758 13.2166 4.04758 13.2177C5.76856 13.2948 7.14016 14.7145 7.14016 16.4545C7.14016 17.3232 6.7982 18.1122 6.24154 18.694C7.69111 20.2167 9.73666 21.167 12.0002 21.167C14.2637 21.167 16.3092 20.2167 17.7588 18.694C17.2021 18.1122 16.8602 17.3232 16.8602 16.4545C16.8602 14.7145 18.2318 13.2948 19.9527 13.2177C19.9527 13.2166 19.9527 13.2156 19.9527 13.2145C19.9527 9.84252 17.8437 6.95427 14.8754 5.79944Z" fill="white"/>
</svg>
