<svg width="32" height="32" viewBox="0 0 32 32" fill="none" xmlns="http://www.w3.org/2000/svg">
<path d="M22.9688 3.99971C22.8164 4.00362 22.6562 4.02315 22.5 4.06221L6.25 8.34346C4.9375 8.68721 4 9.89034 4 11.2497V24.9997C4 26.6442 5.35547 27.9997 7 27.9997H25C26.6445 27.9997 28 26.6442 28 24.9997V11.9997C28 10.3552 26.6445 8.99971 25 8.99971H11.625L23 5.99971V7.99971H25V5.99971C25 4.87471 24.043 3.98409 22.9688 3.99971ZM7 10.9997H25C25.5664 10.9997 26 11.4333 26 11.9997V24.9997C26 25.5661 25.5664 25.9997 25 25.9997H7C6.43359 25.9997 6 25.5661 6 24.9997V11.9997C6 11.4333 6.43359 10.9997 7 10.9997ZM22.5 16.9997C21.6719 16.9997 21 17.6716 21 18.4997C21 19.3278 21.6719 19.9997 22.5 19.9997C23.3281 19.9997 24 19.3278 24 18.4997C24 17.6716 23.3281 16.9997 22.5 16.9997Z" fill="black"/>
</svg>
