<svg width="18" height="18" viewBox="0 0 18 18" fill="none" xmlns="http://www.w3.org/2000/svg">
  <path
    d="M14.2266 -9.22807e-05C14.1123 0.00283722 13.9922 0.0174862 13.875 0.0467827L1.6875 3.25772C0.703125 3.51553 0 4.41788 0 5.43741V15.7499C0 16.9833 1.0166 17.9999 2.25 17.9999H15.75C16.9834 17.9999 18 16.9833 18 15.7499V5.99991C18 4.76651 16.9834 3.74991 15.75 3.74991H5.71875L14.25 1.49991V2.99991H15.75V1.49991C15.75 0.656158 15.0322 -0.011811 14.2266 -9.22807e-05ZM2.25 5.24991H15.75C16.1748 5.24991 16.5 5.5751 16.5 5.99991V15.7499C16.5 16.1747 16.1748 16.4999 15.75 16.4999H2.25C1.8252 16.4999 1.5 16.1747 1.5 15.7499V5.99991C1.5 5.5751 1.8252 5.24991 2.25 5.24991ZM13.875 9.74991C13.2539 9.74991 12.75 10.2538 12.75 10.8749C12.75 11.496 13.2539 11.9999 13.875 11.9999C14.4961 11.9999 15 11.496 15 10.8749C15 10.2538 14.4961 9.74991 13.875 9.74991Z"
    fill="white" />
</svg>