<svg width="21" height="20" viewBox="0 0 21 20" fill="none" xmlns="http://www.w3.org/2000/svg">
<path fill-rule="evenodd" clip-rule="evenodd" d="M10.5 13.3334C12.341 13.3334 13.8334 11.841 13.8334 10C13.8334 8.15907 12.341 6.66669 10.5 6.66669C8.65907 6.66669 7.16669 8.15907 7.16669 10C7.16669 11.841 8.65907 13.3334 10.5 13.3334ZM10.5 12.0834C11.6506 12.0834 12.5834 11.1506 12.5834 10C12.5834 8.84943 11.6506 7.91669 10.5 7.91669C9.34943 7.91669 8.41669 8.84943 8.41669 10C8.41669 11.1506 9.34943 12.0834 10.5 12.0834Z" fill="white"/>
<path d="M4.66669 10C4.66669 6.77836 7.27836 4.16669 10.5 4.16669V5.2778C7.89201 5.2778 5.7778 7.39201 5.7778 10C5.7778 12.608 7.89201 14.7222 10.5 14.7222C13.108 14.7222 15.2222 12.608 15.2222 10H16.3334C16.3334 13.2217 13.7217 15.8334 10.5 15.8334C7.27836 15.8334 4.66669 13.2217 4.66669 10Z" fill="white"/>
<path fill-rule="evenodd" clip-rule="evenodd" d="M10.5 18.3334C15.1024 18.3334 18.8334 14.6024 18.8334 10C18.8334 5.39765 15.1024 1.66669 10.5 1.66669C5.89765 1.66669 2.16669 5.39765 2.16669 10C2.16669 14.6024 5.89765 18.3334 10.5 18.3334ZM10.5 17.0834C14.412 17.0834 17.5834 13.912 17.5834 10C17.5834 6.088 14.412 2.91669 10.5 2.91669C6.588 2.91669 3.41669 6.088 3.41669 10C3.41669 13.912 6.588 17.0834 10.5 17.0834Z" fill="white"/>
</svg>
