<svg width="50" height="51" viewBox="0 0 50 51" fill="none"
  xmlns="http://www.w3.org/2000/svg">
  <g clip-path="url(#clip0_21002_5128)">
    <path fill-rule="evenodd" clip-rule="evenodd" d="M0 25.8578C0 12.0495 11.1917 0.857788 25 0.857788C38.8083 0.857788 50 12.0495 50 25.8578C50 39.6661 38.8083 50.8578 25 50.8578C11.1917 50.8578 0 39.6661 0 25.8578ZM45.8333 25.8578C45.8333 14.3703 36.4875 5.02445 25 5.02445C13.5125 5.02445 4.16667 14.3703 4.16667 25.8578C4.16667 37.3453 13.5125 46.6911 25 46.6911C36.4875 46.6911 45.8333 37.3453 45.8333 25.8578Z" fill="white"/>
    <path fill-rule="evenodd" clip-rule="evenodd" d="M21.5419 29.3499C22.4459 30.2539 22.4459 31.7195 21.5419 32.6235L16.1466 38.0188C15.2426 38.9228 13.777 38.9228 12.873 38.0188C11.969 37.1148 11.969 35.6492 12.873 34.7452L18.2683 29.3499C19.1723 28.4459 20.6379 28.4459 21.5419 29.3499Z" fill="white"/>
    <path fill-rule="evenodd" clip-rule="evenodd" d="M28.4577 22.3657C27.5537 21.4617 27.5537 19.9961 28.4577 19.0921L33.8529 13.6968C34.7569 12.7928 36.2226 12.7928 37.1266 13.6968C38.0306 14.6008 38.0306 16.0664 37.1266 16.9704L31.7313 22.3657C30.8273 23.2697 29.3616 23.2697 28.4577 22.3657Z" fill="white"/>
    <path fill-rule="evenodd" clip-rule="evenodd" d="M37.1265 38.0189C36.2225 38.9229 34.7569 38.9229 33.8529 38.0189L28.207 32.3731C27.3031 31.4691 27.3031 30.0034 28.207 29.0995C29.111 28.1955 30.5767 28.1955 31.4807 29.0995L37.1265 34.7453C38.0305 35.6493 38.0305 37.1149 37.1265 38.0189Z" fill="white"/>
    <path fill-rule="evenodd" clip-rule="evenodd" d="M12.873 13.6966C13.777 12.7926 15.2427 12.7926 16.1466 13.6966L21.7925 19.3425C22.6965 20.2465 22.6965 21.7121 21.7925 22.6161C20.8885 23.5201 19.4228 23.5201 18.5189 22.6161L12.873 16.9703C11.969 16.0663 11.969 14.6006 12.873 13.6966Z" fill="white"/>
  </g>
  <defs>
    <clipPath id="clip0_21002_5128">
      <rect width="50" height="50" fill="white" transform="translate(0 0.857788)"/>
    </clipPath>
  </defs>
</svg>
