<svg width="50" height="51" viewBox="0 0 50 51" fill="none" xmlns="http://www.w3.org/2000/svg">
<g clip-path="url(#clip0_1_36733)">
<path d="M25 8.3125C18.9062 8.3125 14.0625 13.1562 14.0625 19.25C14.0625 23.0586 15.9531 26.3774 18.8599 28.332C13.2969 30.7302 9.375 36.2712 9.375 42.6875H12.5C12.5 35.8125 18.125 30.1875 25 30.1875C26.875 30.1875 28.7506 30.6575 30.3131 31.4387C30.7819 30.5012 31.25 29.5619 32.0312 28.7806C31.7203 28.6252 31.3994 28.5017 31.0822 28.3656C34.0192 26.4158 35.9375 23.0819 35.9375 19.25C35.9375 13.1562 31.0938 8.3125 25 8.3125ZM25 11.4375C29.375 11.4375 32.8125 14.875 32.8125 19.25C32.8125 23.625 29.375 27.0625 25 27.0625C20.625 27.0625 17.1875 23.625 17.1875 19.25C17.1875 14.875 20.625 11.4375 25 11.4375ZM39.0625 28.625C35.625 28.625 32.8125 31.4375 32.8125 34.875V38H28.125V50.5H50V38H45.3125V34.875C45.3125 31.4375 42.5 28.625 39.0625 28.625ZM39.0625 31.75C40.7813 31.75 42.1875 33.1562 42.1875 34.875V38H35.9375V34.875C35.9375 33.1562 37.3437 31.75 39.0625 31.75ZM31.25 41.125H46.875V47.375H31.25V41.125Z" fill="white"/>
</g>
<defs>
<clipPath id="clip0_1_36733">
<rect width="50" height="50" fill="white" transform="translate(0 0.5)"/>
</clipPath>
</defs>
</svg>
