<svg width="25" height="24" viewBox="0 0 25 24" fill="none" xmlns="http://www.w3.org/2000/svg">
<path d="M9.73096 1.5C6.83936 1.5 4.48096 3.8584 4.48096 6.75C4.48096 8.55762 5.40381 10.1631 6.80127 11.1094C4.12647 12.2578 2.23096 14.9121 2.23096 18H3.73096C3.73096 14.6777 6.40869 12 9.73096 12C10.7622 12 11.7231 12.2695 12.5669 12.7266C11.7349 13.7578 11.231 15.0762 11.231 16.5C11.231 19.8047 13.9263 22.5 17.231 22.5C20.5356 22.5 23.231 19.8047 23.231 16.5C23.231 13.1953 20.5356 10.5 17.231 10.5C15.9214 10.5 14.7026 10.9307 13.7153 11.6484C13.3843 11.4404 13.0239 11.2646 12.6606 11.1094C14.0581 10.1631 14.981 8.55762 14.981 6.75C14.981 3.8584 12.6226 1.5 9.73096 1.5ZM9.73096 3C11.811 3 13.481 4.66992 13.481 6.75C13.481 8.83008 11.811 10.5 9.73096 10.5C7.65088 10.5 5.98096 8.83008 5.98096 6.75C5.98096 4.66992 7.65088 3 9.73096 3ZM17.231 12C19.7241 12 21.731 14.0068 21.731 16.5C21.731 18.9932 19.7241 21 17.231 21C14.7378 21 12.731 18.9932 12.731 16.5C12.731 14.0068 14.7378 12 17.231 12ZM15.52 13.7109L14.4419 14.7891L16.1528 16.5L14.4419 18.2109L15.52 19.2891L17.231 17.5781L18.9419 19.2891L20.02 18.2109L18.3091 16.5L20.02 14.7891L18.9419 13.7109L17.231 15.4219L15.52 13.7109Z" fill="white"/>
</svg>
