<svg width="20" height="20" viewBox="0 0 20 20" fill="none"
  xmlns="http://www.w3.org/2000/svg">
  <path d="M5.125 3.125C4.02043 3.125 3.125 4.02043 3.125 5.125V14.875C3.125 15.9796 4.02043 16.875 5.125 16.875H14.875C15.9796 16.875 16.875 15.9796 16.875 14.875V5.125C16.875 4.02043 15.9796 3.125 14.875 3.125H5.125ZM4.375 4.375H15.625V15.625H4.375V4.375ZM7.5 9.375C7.15482 9.375 6.875 9.65482 6.875 10V10C6.875 10.3452 7.15482 10.625 7.5 10.625H12.5C12.8452 10.625 13.125 10.3452 13.125 10V10C13.125 9.65482 12.8452 9.375 12.5 9.375H7.5Z" fill="#00D2FF"/>
</svg>
