<svg width="21" height="21" viewBox="0 0 21 21" fill="none"
  xmlns="http://www.w3.org/2000/svg">
  <path d="M8.6958 4.02588L8.20752 4.08447C8.20752 4.08447 6.01758 4.32373 4.41846 5.60791H4.39893L4.37939 5.62744C4.02051 5.95703 3.86426 6.3623 3.61768 6.95557C3.37109 7.54883 3.10742 8.30566 2.87549 9.14307C2.41162 10.8203 2.03564 12.8516 2.03564 14.7095V14.8657L2.11377 15.022C2.69238 16.0376 3.72022 16.6846 4.67236 17.1313C5.62451 17.5781 6.44727 17.8149 7.01611 17.8345L7.38721 17.854L7.58252 17.522L8.26611 16.311C8.99121 16.4746 9.82617 16.5845 10.7856 16.5845C11.7451 16.5845 12.5801 16.4746 13.3052 16.311L13.9888 17.522L14.1841 17.854L14.5552 17.8345C15.124 17.8149 15.9468 17.5781 16.8989 17.1313C17.8511 16.6846 18.8789 16.0376 19.4575 15.022L19.5356 14.8657V14.7095C19.5356 12.8516 19.1597 10.8203 18.6958 9.14307C18.4639 8.30566 18.2002 7.54883 17.9536 6.95557C17.707 6.3623 17.5508 5.95703 17.1919 5.62744L17.1724 5.60791H17.1528C15.5537 4.32373 13.3638 4.08447 13.3638 4.08447L12.8755 4.02588L12.6997 4.4751C12.6997 4.4751 12.519 4.93164 12.4067 5.45166C11.6987 5.35645 11.1201 5.33447 10.7856 5.33447C10.4512 5.33447 9.87256 5.35645 9.16455 5.45166C9.05225 4.93164 8.87158 4.4751 8.87158 4.4751L8.6958 4.02588ZM7.83643 5.45166C7.86328 5.53955 7.89014 5.61523 7.91455 5.68604C7.10645 5.88623 6.24463 6.19141 5.45361 6.68213L6.11768 7.73682C7.73877 6.73096 10.0679 6.58447 10.7856 6.58447C11.5034 6.58447 13.8325 6.73096 15.4536 7.73682L16.1177 6.68213C15.3267 6.19141 14.4648 5.88623 13.6567 5.68604C13.6812 5.61523 13.708 5.53955 13.7349 5.45166C14.3184 5.56885 15.4316 5.8374 16.3521 6.56494C16.3472 6.56738 16.5864 6.92871 16.8013 7.44385C17.021 7.97363 17.2651 8.6792 17.4849 9.4751C17.9072 11.001 18.2393 12.8589 18.2661 14.4946C17.873 15.0952 17.1431 15.6372 16.3716 15.9985C15.6978 16.3135 15.1655 16.4282 14.8481 16.4868L14.5356 15.9595C14.7212 15.8911 14.9043 15.8154 15.063 15.7446C16.0249 15.3223 16.5474 14.8657 16.5474 14.8657L15.7271 13.9282C15.7271 13.9282 15.3755 14.2505 14.5552 14.6118C13.7349 14.9731 12.4824 15.3345 10.7856 15.3345C9.08887 15.3345 7.83643 14.9731 7.01611 14.6118C6.1958 14.2505 5.84424 13.9282 5.84424 13.9282L5.02393 14.8657C5.02393 14.8657 5.54639 15.3223 6.5083 15.7446C6.66699 15.8154 6.8501 15.8911 7.03564 15.9595L6.72314 16.4868C6.40576 16.4282 5.87354 16.3135 5.19971 15.9985C4.42822 15.6372 3.69824 15.0952 3.30518 14.4946C3.33203 12.8589 3.66406 11.001 4.08643 9.4751C4.30615 8.6792 4.55029 7.97363 4.77002 7.44385C4.98486 6.92871 5.22412 6.56738 5.21924 6.56494C6.13965 5.8374 7.25293 5.56885 7.83643 5.45166ZM8.59814 9.70947C8.11475 9.70947 7.6875 9.98535 7.42627 10.3345C7.16504 10.6836 7.03564 11.1133 7.03564 11.5845C7.03564 12.0557 7.16504 12.4854 7.42627 12.8345C7.6875 13.1836 8.11475 13.4595 8.59814 13.4595C9.08154 13.4595 9.50879 13.1836 9.77002 12.8345C10.0313 12.4854 10.1606 12.0557 10.1606 11.5845C10.1606 11.1133 10.0313 10.6836 9.77002 10.3345C9.50879 9.98535 9.08154 9.70947 8.59814 9.70947ZM12.9731 9.70947C12.4897 9.70947 12.0625 9.98535 11.8013 10.3345C11.54 10.6836 11.4106 11.1133 11.4106 11.5845C11.4106 12.0557 11.54 12.4854 11.8013 12.8345C12.0625 13.1836 12.4897 13.4595 12.9731 13.4595C13.4565 13.4595 13.8838 13.1836 14.145 12.8345C14.4063 12.4854 14.5356 12.0557 14.5356 11.5845C14.5356 11.1133 14.4063 10.6836 14.145 10.3345C13.8838 9.98535 13.4565 9.70947 12.9731 9.70947ZM8.59814 10.9595C8.63232 10.9595 8.67627 10.9717 8.75439 11.0767C8.83252 11.1816 8.91064 11.3647 8.91064 11.5845C8.91064 11.8042 8.83252 11.9873 8.75439 12.0923C8.67627 12.1973 8.63232 12.2095 8.59814 12.2095C8.56397 12.2095 8.52002 12.1973 8.44189 12.0923C8.36377 11.9873 8.28564 11.8042 8.28564 11.5845C8.28564 11.3647 8.36377 11.1816 8.44189 11.0767C8.52002 10.9717 8.56397 10.9595 8.59814 10.9595ZM12.9731 10.9595C13.0073 10.9595 13.0513 10.9717 13.1294 11.0767C13.2075 11.1816 13.2856 11.3647 13.2856 11.5845C13.2856 11.8042 13.2075 11.9873 13.1294 12.0923C13.0513 12.1973 13.0073 12.2095 12.9731 12.2095C12.939 12.2095 12.895 12.1973 12.8169 12.0923C12.7388 11.9873 12.6606 11.8042 12.6606 11.5845C12.6606 11.3647 12.7388 11.1816 12.8169 11.0767C12.895 10.9717 12.939 10.9595 12.9731 10.9595Z" fill="black"/>
</svg>
