<svg width="42" height="50" viewBox="0 0 42 50" fill="none" xmlns="http://www.w3.org/2000/svg">
  <path fill-rule="evenodd" clip-rule="evenodd"
    d="M1.3103 17.5461C1.3103 14.756 3.57213 12.4941 6.36222 12.4941H9.07847V38.2007C9.07847 39.8748 10.4356 41.2319 12.1096 41.2319H29.1948V43.9479C29.1948 46.738 26.9329 48.9998 24.1429 48.9998H6.36222C3.57212 48.9998 1.3103 46.738 1.3103 43.9479V17.5461ZM6.36222 14.5149C4.68816 14.5149 3.33107 15.872 3.33107 17.5461V43.9479C3.33107 45.622 4.68816 46.9791 6.36222 46.9791H24.1429C25.8169 46.9791 27.174 45.622 27.174 43.9479V43.2526H12.1096C9.31952 43.2526 7.05771 40.9908 7.05771 38.2007V14.5149H6.36222Z"
    fill="white" stroke="white" />
  <path fill-rule="evenodd" clip-rule="evenodd"
    d="M7.05762 11.8C7.05762 9.00987 9.31944 6.74805 12.1095 6.74805H14.826V32.4541C14.826 34.1281 16.1831 35.4852 17.8571 35.4852H34.9421V38.2018C34.9421 40.9919 32.6803 43.2537 29.8902 43.2537H12.1095C9.31944 43.2537 7.05762 40.9919 7.05762 38.2018V11.8ZM12.1095 8.76881C10.4355 8.76881 9.07838 10.1259 9.07838 11.8V38.2018C9.07838 39.8759 10.4355 41.233 12.1095 41.233H29.8902C31.5642 41.233 32.9213 39.8759 32.9213 38.2018V37.506H17.8571C15.067 37.506 12.8052 35.2442 12.8052 32.4541V8.76881H12.1095Z"
    fill="white" stroke="white" />
  <path fill-rule="evenodd" clip-rule="evenodd"
    d="M40.6897 6.05191C40.6897 3.26182 38.4279 1 35.6378 1H17.8571C15.0671 1 12.8052 3.26182 12.8052 6.05191V32.4538C12.8052 35.2439 15.0671 37.5057 17.8571 37.5057H35.6378C38.4279 37.5057 40.6897 35.2439 40.6897 32.4538V6.05191ZM35.6378 3.02077C37.3118 3.02077 38.6689 4.37786 38.6689 6.05191V32.4538C38.6689 34.1278 37.3118 35.4849 35.6378 35.4849H17.8571C16.1831 35.4849 14.826 34.1278 14.826 32.4538V6.05191C14.826 4.37786 16.1831 3.02077 17.8571 3.02077H35.6378Z"
    fill="white" stroke="white" />
</svg>