<svg width="25" height="24" viewBox="0 0 25 24" fill="none"
  xmlns="http://www.w3.org/2000/svg">
  <path d="M7.2832 3V3.75H4.2832V20.25H20.7832V3.75H17.7832V3H16.2832V3.75H8.7832V3H7.2832ZM5.7832 5.25H7.2832V6H8.7832V5.25H16.2832V6H17.7832V5.25H19.2832V6.75H5.7832V5.25ZM5.7832 8.25H19.2832V18.75H5.7832V8.25ZM10.2832 9.75V11.25H11.7832V9.75H10.2832ZM13.2832 9.75V11.25H14.7832V9.75H13.2832ZM16.2832 9.75V11.25H17.7832V9.75H16.2832ZM7.2832 12.75V14.25H8.7832V12.75H7.2832ZM10.2832 12.75V14.25H11.7832V12.75H10.2832ZM13.2832 12.75V14.25H14.7832V12.75H13.2832ZM16.2832 12.75V14.25H17.7832V12.75H16.2832ZM7.2832 15.75V17.25H8.7832V15.75H7.2832ZM10.2832 15.75V17.25H11.7832V15.75H10.2832ZM13.2832 15.75V17.25H14.7832V15.75H13.2832Z" fill="black"/>
</svg>
