<svg width="50" height="50" viewBox="0 0 50 50" fill="none" xmlns="http://www.w3.org/2000/svg">
  <path fill-rule="evenodd" clip-rule="evenodd"
    d="M17.3138 30.0014C17.2013 28.6166 17.1423 27.1834 17.1423 25.7157C17.1423 24.248 17.2013 22.8147 17.3138 21.43H8.00651C7.67505 22.8044 7.49944 24.2395 7.49944 25.7157C7.49944 27.1918 7.67505 28.627 8.00651 30.0014L17.3138 30.0014ZM17.682 33.2157L9.11031 33.2157C11.3084 38.074 15.5761 41.7958 20.7889 43.2564C19.3859 40.7897 18.2921 37.2976 17.682 33.2157ZM20.9348 33.2157H30.4927C30.0914 35.7027 29.5018 37.8953 28.7903 39.6742C28.1043 41.389 27.368 42.561 26.7148 43.2517C26.0725 43.9308 25.7327 43.93 25.7134 43.93C25.694 43.93 25.3549 43.9308 24.7127 43.2517C24.0595 42.561 23.3231 41.389 22.6372 39.6742C21.9256 37.8953 21.3361 35.7027 20.9348 33.2157ZM30.8882 30.0014H20.5393C20.4203 28.6304 20.3566 27.1967 20.3566 25.7157C20.3566 24.2346 20.4203 22.8009 20.5393 21.43H30.8882C31.0071 22.8009 31.0709 24.2346 31.0709 25.7157C31.0709 27.1967 31.0071 28.6304 30.8882 30.0014ZM33.7455 33.2157C33.1354 37.2976 32.0416 40.7897 30.6385 43.2564C35.8513 41.7958 40.1191 38.074 42.3171 33.2157L33.7455 33.2157ZM43.4209 30.0014L34.1137 30.0014C34.2261 28.6166 34.2852 27.1834 34.2852 25.7157C34.2852 24.248 34.2261 22.8147 34.1137 21.43H43.4209C43.7524 22.8044 43.928 24.2395 43.928 25.7157C43.928 27.1918 43.7524 28.627 43.4209 30.0014ZM22.6372 11.7571C21.9256 13.536 21.3361 15.7287 20.9348 18.2157H30.4927C30.0914 15.7287 29.5018 13.536 28.7903 11.7571C28.1043 10.0424 27.368 8.87036 26.7148 8.17963C26.0725 7.50055 25.7334 7.50135 25.7141 7.50139L25.7127 7.50139C25.6821 7.50155 25.343 7.51312 24.7127 8.17963C24.0595 8.87036 23.3231 10.0424 22.6372 11.7571ZM33.7455 18.2157H42.3171C40.1191 13.3573 35.8513 9.63554 30.6385 8.17499C32.0416 10.6416 33.1354 14.1338 33.7455 18.2157ZM9.11031 18.2157H17.682C18.2921 14.1338 19.3858 10.6416 20.7889 8.17499C15.5761 9.63554 11.3084 13.3573 9.11031 18.2157ZM25.7137 4.28711C37.5484 4.28711 47.1423 13.881 47.1423 25.7157C47.1423 37.5504 37.5484 47.1442 25.7137 47.1442C13.8791 47.1442 4.28516 37.5504 4.28516 25.7157C4.28516 13.881 13.8791 4.28711 25.7137 4.28711Z"
    fill="white" />
</svg>