<svg width="50" height="50" viewBox="0 0 50 50" fill="none" xmlns="http://www.w3.org/2000/svg">
  <path fill-rule="evenodd" clip-rule="evenodd"
    d="M11.6113 25.7903C11.6113 24.3852 12.7504 23.2461 14.1555 23.2461H37.8998C39.3049 23.2461 40.444 24.3852 40.444 25.7903C40.444 27.1954 39.3049 28.3345 37.8998 28.3345H14.1555C12.7504 28.3345 11.6113 27.1954 11.6113 25.7903Z"
    fill="white" />
  <path fill-rule="evenodd" clip-rule="evenodd"
    d="M11.6113 14.5364C11.6113 13.1313 12.7504 11.9922 14.1555 11.9922H25.8042C27.2094 11.9922 28.3484 13.1313 28.3484 14.5364C28.3484 15.9415 27.2094 17.0806 25.8042 17.0806H14.1555C12.7504 17.0806 11.6113 15.9415 11.6113 14.5364Z"
    fill="white" />
  <path fill-rule="evenodd" clip-rule="evenodd"
    d="M11.6113 36.8899C11.6113 35.4848 12.7504 34.3457 14.1555 34.3457H37.8998C39.3049 34.3457 40.444 35.4848 40.444 36.8899C40.444 38.295 39.3049 39.4341 37.8998 39.4341H14.1555C12.7504 39.4341 11.6113 38.295 11.6113 36.8899Z"
    fill="white" />
</svg>