<svg width="32" height="32" viewBox="0 0 32 32" fill="none" xmlns="http://www.w3.org/2000/svg">
<path d="M16 3C8.83203 3 3 8.83203 3 16C3 23.168 8.83203 29 16 29C23.168 29 29 23.168 29 16C29 8.83203 23.168 3 16 3ZM16 5C22.0859 5 27 9.91406 27 16C27 22.0859 22.0859 27 16 27C9.91406 27 5 22.0859 5 16C5 9.91406 9.91406 5 16 5ZM16 8C13.25 8 11 10.25 11 13C11 14.5156 11.707 15.8633 12.7813 16.7812C10.5313 17.9492 9 20.3008 9 23H11C11 20.2266 13.2266 18 16 18C18.7734 18 21 20.2266 21 23H23C23 20.3008 21.4688 17.9492 19.2188 16.7812C20.293 15.8633 21 14.5156 21 13C21 10.25 18.75 8 16 8ZM16 10C17.668 10 19 11.332 19 13C19 14.668 17.668 16 16 16C14.332 16 13 14.668 13 13C13 11.332 14.332 10 16 10Z" fill="black"/>
</svg>
