<svg width="24" height="24" viewBox="0 0 24 24" fill="none" xmlns="http://www.w3.org/2000/svg">
  <path fill-rule="evenodd" clip-rule="evenodd"
    d="M8.08001 14C8.02754 13.3538 8 12.6849 8 12C8 11.3151 8.02754 10.6462 8.08001 10H3.73663C3.58195 10.6414 3.5 11.3111 3.5 12C3.5 12.6889 3.58195 13.3586 3.73663 14L8.08001 14ZM8.25184 15.5L4.25174 15.5C5.27749 17.7672 7.26912 19.5041 9.70176 20.1857C9.04699 19.0346 8.53657 17.4049 8.25184 15.5ZM9.76982 15.5H14.2302C14.0429 16.6606 13.7678 17.6838 13.4357 18.514C13.1156 19.3142 12.772 19.8611 12.4671 20.1835C12.1674 20.5004 12.0089 20.5 11.9998 20.5C11.9908 20.5 11.8326 20.5004 11.5329 20.1835C11.228 19.8611 10.8844 19.3142 10.5643 18.514C10.2322 17.6838 9.9571 16.6606 9.76982 15.5ZM14.4147 14H9.58527C9.52976 13.3602 9.5 12.6911 9.5 12C9.5 11.3089 9.52976 10.6398 9.58527 10H14.4147C14.4702 10.6398 14.5 11.3089 14.5 12C14.5 12.6911 14.4702 13.3602 14.4147 14ZM15.7482 15.5C15.4634 17.4049 14.953 19.0346 14.2982 20.1857C16.7309 19.5041 18.7225 17.7672 19.7483 15.5L15.7482 15.5ZM20.2634 14L15.92 14C15.9725 13.3538 16 12.6849 16 12C16 11.3151 15.9725 10.6462 15.92 10H20.2634C20.4181 10.6414 20.5 11.3111 20.5 12C20.5 12.6889 20.4181 13.3586 20.2634 14ZM10.5643 5.48602C10.2322 6.31617 9.9571 7.33941 9.76982 8.5H14.2302C14.0429 7.33941 13.7678 6.31617 13.4357 5.48602C13.1156 4.68578 12.772 4.13885 12.4671 3.81651C12.1674 3.49961 12.0092 3.49998 12.0002 3.5L11.9995 3.5C11.9852 3.50007 11.827 3.50546 11.5329 3.81651C11.228 4.13885 10.8844 4.68578 10.5643 5.48602ZM15.7482 8.5H19.7483C18.7225 6.23277 16.7309 4.49594 14.2982 3.81434C14.953 4.96544 15.4634 6.59511 15.7482 8.5ZM4.25174 8.5H8.25184C8.53657 6.59511 9.04699 4.96544 9.70176 3.81435C7.26912 4.49594 5.27749 6.23277 4.25174 8.5ZM12 2C17.5228 2 22 6.47715 22 12C22 17.5228 17.5228 22 12 22C6.47715 22 2 17.5228 2 12C2 6.47715 6.47715 2 12 2Z"
    fill="white" />
</svg>