<svg width="23" height="24" viewBox="0 0 23 24" fill="none" xmlns="http://www.w3.org/2000/svg">
<path d="M11.0493 13.1763C11.9455 13.1763 12.6719 12.5066 12.6719 11.6804C12.6719 10.8543 11.9455 10.1846 11.0493 10.1846C10.1532 10.1846 9.42676 10.8543 9.42676 11.6804C9.42676 12.5066 10.1532 13.1763 11.0493 13.1763Z" fill="#49BFE0"/>
<path d="M11.0487 16.471C11.7652 16.471 12.346 15.9356 12.346 15.2751C12.346 14.6145 11.7652 14.0791 11.0487 14.0791C10.3323 14.0791 9.75146 14.6145 9.75146 15.2751C9.75146 15.9356 10.3323 16.471 11.0487 16.471Z" fill="#49BFE0"/>
<path d="M11.0487 9.28058C11.7652 9.28058 12.346 8.74513 12.346 8.08463C12.346 7.42412 11.7652 6.88867 11.0487 6.88867C10.3323 6.88867 9.75146 7.42412 9.75146 8.08463C9.75146 8.74513 10.3323 9.28058 11.0487 9.28058Z" fill="#49BFE0"/>
<path d="M11.0494 4.80397C11.5011 4.80397 11.8673 4.46638 11.8673 4.04994C11.8673 3.63349 11.5011 3.2959 11.0494 3.2959C10.5976 3.2959 10.2314 3.63349 10.2314 4.04994C10.2314 4.46638 10.5976 4.80397 11.0494 4.80397Z" fill="#49BFE0"/>
<path d="M11.0479 0.914825C11.3219 0.914825 11.5441 0.710034 11.5441 0.457412C11.5441 0.20479 11.3219 0 11.0479 0C10.7739 0 10.5518 0.20479 10.5518 0.457412C10.5518 0.710034 10.7739 0.914825 11.0479 0.914825Z" fill="#49BFE0"/>
<path d="M11.0479 23.3719C11.3219 23.3719 11.5441 23.1671 11.5441 22.9144C11.5441 22.6618 11.3219 22.457 11.0479 22.457C10.7739 22.457 10.5518 22.6618 10.5518 22.9144C10.5518 23.1671 10.7739 23.3719 11.0479 23.3719Z" fill="#49BFE0"/>
<path d="M0.496157 6.52029C0.770177 6.52029 0.992314 6.3155 0.992314 6.06288C0.992314 5.81026 0.770177 5.60547 0.496157 5.60547C0.222137 5.60547 0 5.81026 0 6.06288C0 6.3155 0.222137 6.52029 0.496157 6.52029Z" fill="#49BFE0"/>
<path d="M21.6021 6.52029C21.8761 6.52029 22.0983 6.3155 22.0983 6.06288C22.0983 5.81026 21.8761 5.60547 21.6021 5.60547C21.3281 5.60547 21.106 5.81026 21.106 6.06288C21.106 6.3155 21.3281 6.52029 21.6021 6.52029Z" fill="#49BFE0"/>
<path d="M0.496157 17.7537C0.770177 17.7537 0.992314 17.5489 0.992314 17.2963C0.992314 17.0437 0.770177 16.8389 0.496157 16.8389C0.222137 16.8389 0 17.0437 0 17.2963C0 17.5489 0.222137 17.7537 0.496157 17.7537Z" fill="#49BFE0"/>
<path d="M21.6021 17.7537C21.8761 17.7537 22.0983 17.5489 22.0983 17.2963C22.0983 17.0437 21.8761 16.8389 21.6021 16.8389C21.3281 16.8389 21.106 17.0437 21.106 17.2963C21.106 17.5489 21.3281 17.7537 21.6021 17.7537Z" fill="#49BFE0"/>
<path d="M18.0845 19.6277C18.3586 19.6277 18.5807 19.4229 18.5807 19.1703C18.5807 18.9177 18.3586 18.7129 18.0845 18.7129C17.8105 18.7129 17.5884 18.9177 17.5884 19.1703C17.5884 19.4229 17.8105 19.6277 18.0845 19.6277Z" fill="#49BFE0"/>
<path d="M18.0845 4.64724C18.3586 4.64724 18.5807 4.44245 18.5807 4.18983C18.5807 3.93721 18.3586 3.73242 18.0845 3.73242C17.8105 3.73242 17.5884 3.93721 17.5884 4.18983C17.5884 4.44245 17.8105 4.64724 18.0845 4.64724Z" fill="#49BFE0"/>
<path d="M14.6329 21.4646C14.9069 21.4646 15.129 21.2598 15.129 21.0072C15.129 20.7546 14.9069 20.5498 14.6329 20.5498C14.3589 20.5498 14.1367 20.7546 14.1367 21.0072C14.1367 21.2598 14.3589 21.4646 14.6329 21.4646Z" fill="#49BFE0"/>
<path d="M7.53034 21.4646C7.80436 21.4646 8.0265 21.2598 8.0265 21.0072C8.0265 20.7546 7.80436 20.5498 7.53034 20.5498C7.25632 20.5498 7.03418 20.7546 7.03418 21.0072C7.03418 21.2598 7.25632 21.4646 7.53034 21.4646Z" fill="#49BFE0"/>
<path d="M7.53034 2.81229C7.80436 2.81229 8.0265 2.6075 8.0265 2.35487C8.0265 2.10225 7.80436 1.89746 7.53034 1.89746C7.25632 1.89746 7.03418 2.10225 7.03418 2.35487C7.03418 2.6075 7.25632 2.81229 7.53034 2.81229Z" fill="#49BFE0"/>
<path d="M4.08063 19.6277C4.35465 19.6277 4.57679 19.4229 4.57679 19.1703C4.57679 18.9177 4.35465 18.7129 4.08063 18.7129C3.80661 18.7129 3.58447 18.9177 3.58447 19.1703C3.58447 19.4229 3.80661 19.6277 4.08063 19.6277Z" fill="#49BFE0"/>
<path d="M4.08063 4.64724C4.35465 4.64724 4.57679 4.44245 4.57679 4.18983C4.57679 3.93721 4.35465 3.73242 4.08063 3.73242C3.80661 3.73242 3.58447 3.93721 3.58447 4.18983C3.58447 4.44245 3.80661 4.64724 4.08063 4.64724Z" fill="#49BFE0"/>
<path d="M14.6329 2.81229C14.9069 2.81229 15.129 2.6075 15.129 2.35487C15.129 2.10225 14.9069 1.89746 14.6329 1.89746C14.3589 1.89746 14.1367 2.10225 14.1367 2.35487C14.1367 2.6075 14.3589 2.81229 14.6329 2.81229Z" fill="#49BFE0"/>
<path d="M0.496157 14.0096C0.770177 14.0096 0.992314 13.8048 0.992314 13.5521C0.992314 13.2995 0.770177 13.0947 0.496157 13.0947C0.222137 13.0947 0 13.2995 0 13.5521C0 13.8048 0.222137 14.0096 0.496157 14.0096Z" fill="#49BFE0"/>
<path d="M21.6021 14.0096C21.8761 14.0096 22.0983 13.8048 22.0983 13.5521C22.0983 13.2995 21.8761 13.0947 21.6021 13.0947C21.3281 13.0947 21.106 13.2995 21.106 13.5521C21.106 13.8048 21.3281 14.0096 21.6021 14.0096Z" fill="#49BFE0"/>
<path d="M0.496157 10.2644C0.770177 10.2644 0.992314 10.0596 0.992314 9.80702C0.992314 9.5544 0.770177 9.34961 0.496157 9.34961C0.222137 9.34961 0 9.5544 0 9.80702C0 10.0596 0.222137 10.2644 0.496157 10.2644Z" fill="#49BFE0"/>
<path d="M21.6021 10.2644C21.8761 10.2644 22.0983 10.0596 22.0983 9.80702C22.0983 9.5544 21.8761 9.34961 21.6021 9.34961C21.3281 9.34961 21.106 9.5544 21.106 9.80702C21.106 10.0596 21.3281 10.2644 21.6021 10.2644Z" fill="#49BFE0"/>
<path d="M3.8809 8.6194C4.33262 8.6194 4.69881 8.28181 4.69881 7.86537C4.69881 7.44892 4.33262 7.11133 3.8809 7.11133C3.42918 7.11133 3.06299 7.44892 3.06299 7.86537C3.06299 8.28181 3.42918 8.6194 3.8809 8.6194Z" fill="#49BFE0"/>
<path d="M7.4639 6.7112C7.91562 6.7112 8.28181 6.37361 8.28181 5.95716C8.28181 5.54072 7.91562 5.20312 7.4639 5.20312C7.01219 5.20312 6.646 5.54072 6.646 5.95716C6.646 6.37361 7.01219 6.7112 7.4639 6.7112Z" fill="#49BFE0"/>
<path d="M18.2163 16.2493C18.6681 16.2493 19.0343 15.9117 19.0343 15.4952C19.0343 15.0788 18.6681 14.7412 18.2163 14.7412C17.7646 14.7412 17.3984 15.0788 17.3984 15.4952C17.3984 15.9117 17.7646 16.2493 18.2163 16.2493Z" fill="#49BFE0"/>
<path d="M3.8809 16.2493C4.33262 16.2493 4.69881 15.9117 4.69881 15.4952C4.69881 15.0788 4.33262 14.7412 3.8809 14.7412C3.42918 14.7412 3.06299 15.0788 3.06299 15.4952C3.06299 15.9117 3.42918 16.2493 3.8809 16.2493Z" fill="#49BFE0"/>
<path d="M18.2163 12.4339C18.6681 12.4339 19.0343 12.0963 19.0343 11.6798C19.0343 11.2634 18.6681 10.9258 18.2163 10.9258C17.7646 10.9258 17.3984 11.2634 17.3984 11.6798C17.3984 12.0963 17.7646 12.4339 18.2163 12.4339Z" fill="#49BFE0"/>
<path d="M3.8809 12.4339C4.33262 12.4339 4.69881 12.0963 4.69881 11.6798C4.69881 11.2634 4.33262 10.9258 3.8809 10.9258C3.42918 10.9258 3.06299 11.2634 3.06299 11.6798C3.06299 12.0963 3.42918 12.4339 3.8809 12.4339Z" fill="#49BFE0"/>
<path d="M18.2163 8.6194C18.6681 8.6194 19.0343 8.28181 19.0343 7.86537C19.0343 7.44892 18.6681 7.11133 18.2163 7.11133C17.7646 7.11133 17.3984 7.44892 17.3984 7.86537C17.3984 8.28181 17.7646 8.6194 18.2163 8.6194Z" fill="#49BFE0"/>
<path d="M11.0494 20.0647C11.5011 20.0647 11.8673 19.7271 11.8673 19.3107C11.8673 18.8942 11.5011 18.5566 11.0494 18.5566C10.5976 18.5566 10.2314 18.8942 10.2314 19.3107C10.2314 19.7271 10.5976 20.0647 11.0494 20.0647Z" fill="#49BFE0"/>
<path d="M14.6314 18.1575C15.0831 18.1575 15.4493 17.8199 15.4493 17.4034C15.4493 16.987 15.0831 16.6494 14.6314 16.6494C14.1797 16.6494 13.8135 16.987 13.8135 17.4034C13.8135 17.8199 14.1797 18.1575 14.6314 18.1575Z" fill="#49BFE0"/>
<path d="M7.4639 18.1575C7.91562 18.1575 8.28181 17.8199 8.28181 17.4034C8.28181 16.987 7.91562 16.6494 7.4639 16.6494C7.01219 16.6494 6.646 16.987 6.646 17.4034C6.646 17.8199 7.01219 18.1575 7.4639 18.1575Z" fill="#49BFE0"/>
<path d="M14.6314 6.7112C15.0831 6.7112 15.4493 6.37361 15.4493 5.95716C15.4493 5.54072 15.0831 5.20312 14.6314 5.20312C14.1797 5.20312 13.8135 5.54072 13.8135 5.95716C13.8135 6.37361 14.1797 6.7112 14.6314 6.7112Z" fill="#49BFE0"/>
<path d="M14.4271 14.6732C15.1436 14.6732 15.7244 14.1377 15.7244 13.4772C15.7244 12.8167 15.1436 12.2812 14.4271 12.2812C13.7107 12.2812 13.1299 12.8167 13.1299 13.4772C13.1299 14.1377 13.7107 14.6732 14.4271 14.6732Z" fill="#49BFE0"/>
<path d="M14.4271 11.0794C15.1436 11.0794 15.7244 10.544 15.7244 9.88346C15.7244 9.22295 15.1436 8.6875 14.4271 8.6875C13.7107 8.6875 13.1299 9.22295 13.1299 9.88346C13.1299 10.544 13.7107 11.0794 14.4271 11.0794Z" fill="#49BFE0"/>
<path d="M7.67177 14.6732C8.38823 14.6732 8.96904 14.1377 8.96904 13.4772C8.96904 12.8167 8.38823 12.2812 7.67177 12.2812C6.95532 12.2812 6.37451 12.8167 6.37451 13.4772C6.37451 14.1377 6.95532 14.6732 7.67177 14.6732Z" fill="#49BFE0"/>
<path d="M7.67177 11.0794C8.38823 11.0794 8.96904 10.544 8.96904 9.88346C8.96904 9.22295 8.38823 8.6875 7.67177 8.6875C6.95532 8.6875 6.37451 9.22295 6.37451 9.88346C6.37451 10.544 6.95532 11.0794 7.67177 11.0794Z" fill="#49BFE0"/>
</svg>
