<svg width="21" height="20" viewBox="0 0 21 20" fill="#0EB8DC" xmlns="http://www.w3.org/2000/svg">
<path d="M18.214 1.42578L11.964 7.67578L11.1632 6.875V6.85547L11.1437 6.83594C10.7433 6.47949 10.2208 6.30859 9.7179 6.30859C9.21497 6.30859 8.72913 6.49658 8.35071 6.875L8.25305 6.95312L7.94055 7.26562L7.72571 7.44141L2.02258 11.875L1.47571 12.3242L8.21399 19.0625L8.66321 18.5156L13.0773 12.8516L13.0968 12.8711L13.7218 12.2461H13.7413L13.7609 12.2266C14.4738 11.4233 14.4786 10.1904 13.7218 9.43359L12.8624 8.57422L19.1124 2.32422L18.214 1.42578ZM9.7179 7.55859C9.91077 7.55371 10.1232 7.61963 10.2843 7.75391C10.2916 7.75879 10.2965 7.76855 10.3038 7.77344L12.8429 10.3125C13.0773 10.5469 13.0992 11.0449 12.8429 11.3672C12.8331 11.3794 12.8331 11.394 12.8234 11.4062L12.6281 11.582L9.01477 7.96875L9.22961 7.75391C9.34924 7.63428 9.52502 7.56348 9.7179 7.55859ZM8.05774 8.76953L11.7687 12.4805L8.0968 17.168L7.19836 16.2695L8.54602 14.8633L7.64758 14.0039L6.31946 15.3906L5.49915 14.5703L7.92102 12.1289L7.04211 11.25L4.60071 13.6719L3.37024 12.4414L8.05774 8.76953Z"/>
</svg>
