<svg width="24" height="24" viewBox="0 0 24 24" fill="none"
  xmlns="http://www.w3.org/2000/svg">
  <path fill-rule="evenodd" clip-rule="evenodd" d="M20.2849 8.47824H21.7826C22.647 8.47824 23.3478 9.17901 23.3478 10.0435V14.7391C23.3478 15.6036 22.647 16.3043 21.7826 16.3043H19.9059C18.3795 19.102 15.4114 21 12 21C7.02944 21 3 16.9706 3 12C3 7.02944 7.02944 3 12 3C15.7208 3 18.9142 5.25788 20.2849 8.47824ZM12 19.8261C14.7321 19.8261 17.1373 18.4261 18.5371 16.3043H13.9565C13.0921 16.3043 12.3913 15.6036 12.3913 14.7391V10.0435C12.3913 9.17901 13.0921 8.47824 13.9565 8.47824H18.9908C17.702 5.92493 15.0555 4.17391 12 4.17391C7.67777 4.17391 4.17391 7.67777 4.17391 12C4.17391 16.3222 7.67777 19.8261 12 19.8261ZM13.9565 9.65215H21.7826C21.9987 9.65215 22.1739 9.82735 22.1739 10.0435V14.7391C22.1739 14.9552 21.9987 15.1304 21.7826 15.1304H13.9565C13.7404 15.1304 13.5652 14.9552 13.5652 14.7391V10.0435C13.5652 9.82735 13.7404 9.65215 13.9565 9.65215Z" fill="white"/>
  <path d="M21.0002 12.3917C21.0002 13.04 20.4746 13.5656 19.8263 13.5656C19.1779 13.5656 18.6523 13.04 18.6523 12.3917C18.6523 11.7434 19.1779 11.2178 19.8263 11.2178C20.4746 11.2178 21.0002 11.7434 21.0002 12.3917Z" fill="white"/>
</svg>
