<svg width="24" height="24" viewBox="0 0 24 24" fill="none"
  xmlns="http://www.w3.org/2000/svg">
  <path d="M19.2207 11.3689C18.8668 11.7186 18.2973 11.7186 17.9434 11.3689C17.5835 11.0132 17.5835 10.432 17.9434 10.0763L19.8747 8.16781C20.5885 7.46233 20.5885 6.31851 19.8747 5.61302L18.5821 4.33563C17.8682 3.63014 16.7107 3.63014 15.9969 4.33563L14.0503 6.25928C13.6964 6.60905 13.1269 6.60905 12.773 6.25928C12.4131 5.9036 12.4131 5.32244 12.773 4.96677L14.7043 3.05823C16.132 1.64726 18.4469 1.64726 19.8747 3.05823L21.1673 4.33563C22.595 5.7466 22.595 8.03424 21.1673 9.44521L19.2207 11.3689ZM11.4651 17.7407C11.825 18.0964 11.825 18.6776 11.4651 19.0332L9.53384 20.9418C8.10607 22.3527 5.7912 22.3527 4.36343 20.9418L3.07083 19.6644C1.64306 18.2534 1.64306 15.9658 3.07083 14.5548L5.01738 12.6311C5.37131 12.2814 5.94075 12.2814 6.29469 12.6311C6.65459 12.9868 6.65459 13.568 6.29469 13.9237L4.36343 15.8322C3.64954 16.5377 3.64954 17.6815 4.36343 18.387L5.65603 19.6644C6.36992 20.3699 7.52735 20.3699 8.24124 19.6644L10.1878 17.7407C10.5417 17.391 11.1112 17.391 11.4651 17.7407ZM15.8918 14.803C15.3929 14.803 14.9885 14.3986 14.9885 13.8997C14.9885 13.4009 15.3929 12.9965 15.8918 12.9965H18.6553C19.1542 12.9965 19.5586 13.4009 19.5586 13.8997C19.5586 14.3986 19.1542 14.803 18.6553 14.803H15.8918ZM13.7186 15.1547C14.2234 15.1547 14.6326 15.564 14.6326 16.0688V18.757C14.6326 19.2618 14.2234 19.671 13.7186 19.671C13.2138 19.671 12.8046 19.2618 12.8046 18.757V16.0688C12.8046 15.564 13.2138 15.1547 13.7186 15.1547ZM10.1642 9.13219C9.65942 9.13219 9.25021 8.72298 9.25021 8.21819V5.52993C9.25021 5.02513 9.65942 4.61592 10.1642 4.61592C10.669 4.61592 11.0782 5.02513 11.0782 5.52993V8.21819C11.0782 8.72298 10.669 9.13219 10.1642 9.13219ZM7.99101 9.48395C8.48986 9.48395 8.89427 9.88835 8.89427 10.3872C8.89427 10.8861 8.48986 11.2905 7.99101 11.2905H5.22748C4.72863 11.2905 4.32423 10.8861 4.32423 10.3872C4.32423 9.88835 4.72863 9.48395 5.22748 9.48395H7.99101Z" fill="#00D2FF"/>
</svg>
