<svg width="50" height="51" viewBox="0 0 50 51" fill="none" xmlns="http://www.w3.org/2000/svg">
  <path
    d="M32.5052 14.5625C31.3664 14.5625 30.2276 15.0044 29.3438 15.8882L12.1431 33.0889L12.0751 33.4288L10.8853 39.4117L10.5454 41.0094L12.1431 40.6694L18.1259 39.4797L18.4659 39.4117L35.6665 22.211C37.4342 20.4434 37.4342 17.6559 35.6665 15.8882C34.7827 15.0044 33.6439 14.5625 32.5052 14.5625ZM32.5052 16.6361C33.0533 16.6361 33.6057 16.8868 34.1368 17.4179C35.1949 18.476 35.1949 19.6233 34.1368 20.6813L33.355 21.4292L30.1256 18.1998L30.8735 17.4179C31.4046 16.8868 31.957 16.6361 32.5052 16.6361ZM28.5959 19.7295L31.8253 22.9589L18.6698 36.1143C17.956 34.7206 16.8342 33.5988 15.4405 32.8849L28.5959 19.7295ZM14.0467 34.6526C15.3512 35.1795 16.3753 36.2036 16.9022 37.5081L13.3329 38.2219L14.0467 34.6526Z"
    fill="white" />
  <path
    d="M25 45.615C25 44.9191 25.5659 44.3595 26.2602 44.3127C35.8787 43.6649 43.48 35.6577 43.48 25.875C43.48 15.6688 35.2062 7.395 25 7.395C14.7938 7.395 6.52 15.6688 6.52 25.875C6.52 29.8428 7.77049 33.5186 9.89888 36.5297L9.25439 39.7705C5.98437 36.068 4 31.2032 4 25.875C4 14.277 13.402 4.875 25 4.875C36.598 4.875 46 14.277 46 25.875C46 37.0499 37.2714 46.1861 26.2602 46.8378C25.5655 46.8789 25 46.3109 25 45.615Z"
    fill="white" />
</svg>