<svg width="24" height="24" viewBox="0 0 24 24" fill="none" xmlns="http://www.w3.org/2000/svg">
<path d="M5 3.75C3.89543 3.75 3 4.64543 3 5.75V6.25C3 7.35457 3.89543 8.25 5 8.25H5.5C6.60457 8.25 7.5 7.35457 7.5 6.25V5.75C7.5 4.64543 6.60457 3.75 5.5 3.75H5ZM4.5 5.25H6V6.75H4.5V5.25ZM9.75 5.25C9.33579 5.25 9 5.58579 9 6C9 6.41421 9.33579 6.75 9.75 6.75H19.5C19.9142 6.75 20.25 6.41421 20.25 6C20.25 5.58579 19.9142 5.25 19.5 5.25H9.75ZM5 9.75C3.89543 9.75 3 10.6454 3 11.75V12.25C3 13.3546 3.89543 14.25 5 14.25H5.5C6.60457 14.25 7.5 13.3546 7.5 12.25V11.75C7.5 10.6454 6.60457 9.75 5.5 9.75H5ZM4.5 11.25H6V12.75H4.5V11.25ZM9.75 11.25C9.33579 11.25 9 11.5858 9 12C9 12.4142 9.33579 12.75 9.75 12.75H19.5C19.9142 12.75 20.25 12.4142 20.25 12C20.25 11.5858 19.9142 11.25 19.5 11.25H9.75ZM5 15.75C3.89543 15.75 3 16.6454 3 17.75V18.25C3 19.3546 3.89543 20.25 5 20.25H5.5C6.60457 20.25 7.5 19.3546 7.5 18.25V17.75C7.5 16.6454 6.60457 15.75 5.5 15.75H5ZM4.5 17.25H6V18.75H4.5V17.25ZM9.75 17.25C9.33579 17.25 9 17.5858 9 18C9 18.4142 9.33579 18.75 9.75 18.75H19.5C19.9142 18.75 20.25 18.4142 20.25 18C20.25 17.5858 19.9142 17.25 19.5 17.25H9.75Z" fill="white"/>
</svg>
