<svg width="50" height="51" viewBox="0 0 50 51" fill="none" xmlns="http://www.w3.org/2000/svg">
  <path
    d="M24.9998 4.61914C13.5127 4.61914 4.1665 13.9653 4.1665 25.4525C4.1665 36.9396 13.5127 46.2858 24.9998 46.2858C36.487 46.2858 45.8332 36.9396 45.8332 25.4525C45.8332 13.9653 36.487 4.61914 24.9998 4.61914ZM24.9998 7.82427C34.7529 7.82427 42.628 15.6994 42.628 25.4525C42.628 35.2056 34.7529 43.0807 24.9998 43.0807C15.2467 43.0807 7.37163 35.2056 7.37163 25.4525C7.37163 15.6994 15.2467 7.82427 24.9998 7.82427ZM24.9998 12.632C20.5928 12.632 16.987 16.2377 16.987 20.6448C16.987 23.0737 18.1201 25.2334 19.8416 26.7045C16.6877 28.3417 14.415 31.43 13.8949 35.0731C13.7699 35.9493 14.4994 36.6704 15.3845 36.6704V36.6704C16.2695 36.6704 16.9703 35.9458 17.1434 35.0778C17.8765 31.4034 21.101 28.6576 24.9998 28.6576C28.8987 28.6576 32.1232 31.4034 32.8562 35.0778C33.0294 35.9458 33.7301 36.6704 34.6152 36.6704V36.6704C35.5003 36.6704 36.2298 35.9493 36.1047 35.0731C35.5847 31.43 33.312 28.3417 30.1581 26.7045C31.8796 25.2334 33.0127 23.0737 33.0127 20.6448C33.0127 16.2377 29.4069 12.632 24.9998 12.632ZM24.9998 15.8371C27.6729 15.8371 29.8075 17.9718 29.8075 20.6448C29.8075 23.3178 27.6729 25.4525 24.9998 25.4525C22.3268 25.4525 20.1921 23.3178 20.1921 20.6448C20.1921 17.9718 22.3268 15.8371 24.9998 15.8371Z"
    fill="white" />
</svg>