<svg width="25" height="24" viewBox="0 0 25 24" fill="none" xmlns="http://www.w3.org/2000/svg">
<path d="M18.6606 2.97656C17.8755 2.97656 17.0903 3.28125 16.481 3.89062L4.62158 15.75L4.57471 15.9844L3.75439 20.1094L3.52002 21.2109L4.62158 20.9766L8.74658 20.1562L8.98096 20.1094L20.8403 8.25C22.0591 7.03125 22.0591 5.10938 20.8403 3.89062C20.231 3.28125 19.4458 2.97656 18.6606 2.97656ZM18.6606 4.40625C19.0386 4.40625 19.4194 4.5791 19.7856 4.94531C20.5151 5.6748 20.5151 6.46582 19.7856 7.19531L19.2466 7.71094L17.02 5.48438L17.5356 4.94531C17.9019 4.5791 18.2827 4.40625 18.6606 4.40625ZM15.9653 6.53906L18.1919 8.76562L9.12158 17.8359C8.62939 16.875 7.85596 16.1016 6.89502 15.6094L15.9653 6.53906ZM5.93408 16.8281C6.8335 17.1914 7.53955 17.8975 7.90283 18.7969L5.44189 19.2891L5.93408 16.8281Z" fill="white"/>
</svg>
