<svg width="14" height="13" viewBox="0 0 14 13" fill="none" xmlns="http://www.w3.org/2000/svg">
  <path
    d="M2.09342 0.3125L1.96771 0.681641L0.854327 3.6875H0.836369V3.72266L0.297634 5.18164L0.261719 5.26953V5.9375H1.41102V5.46289L1.64447 4.8125H3.47617L3.70962 5.46289V5.9375H4.85892V5.26953L4.823 5.18164L4.28427 3.72266V3.6875H4.26631L3.15293 0.681641L3.02722 0.3125H2.09342ZM10.0308 0.3125V10.8242L8.54027 9.36523L7.73217 10.1562L10.1924 12.582L10.6054 12.9688L11.0185 12.582L13.4787 10.1562L12.6706 9.36523L11.1801 10.8242V0.3125H10.0308ZM2.56032 2.36914L3.04518 3.6875H2.07546L2.56032 2.36914ZM0.261719 7.0625V8.1875H3.45821L0.423339 11.1582L0.261719 11.334V12.6875H4.85892V11.5625H1.66243L4.6973 8.5918L4.85892 8.41602V7.0625H0.261719Z"
    fill="#436779" />
</svg>