<svg width="24" height="23" viewBox="0 0 24 23" fill="none" xmlns="http://www.w3.org/2000/svg">
  <path
    d="M11 0.533447C9.70703 0.533447 8.60547 1.3772 8.1875 2.53345H0V4.53345H8.1875C8.60547 5.6897 9.70703 6.53345 11 6.53345C12.293 6.53345 13.3945 5.6897 13.8125 4.53345H24V2.53345H13.8125C13.3945 1.3772 12.293 0.533447 11 0.533447ZM11 2.53345C11.5625 2.53345 12 2.97095 12 3.53345C12 4.09595 11.5625 4.53345 11 4.53345C10.4375 4.53345 10 4.09595 10 3.53345C10 2.97095 10.4375 2.53345 11 2.53345ZM18 8.53345C16.707 8.53345 15.6055 9.3772 15.1875 10.5334H0V12.5334H15.1875C15.6055 13.6897 16.707 14.5334 18 14.5334C19.293 14.5334 20.3945 13.6897 20.8125 12.5334H24V10.5334H20.8125C20.3945 9.3772 19.293 8.53345 18 8.53345ZM18 10.5334C18.5625 10.5334 19 10.9709 19 11.5334C19 12.0959 18.5625 12.5334 18 12.5334C17.4375 12.5334 17 12.0959 17 11.5334C17 10.9709 17.4375 10.5334 18 10.5334ZM7 16.5334C5.70703 16.5334 4.60547 17.3772 4.1875 18.5334H0V20.5334H4.1875C4.60547 21.6897 5.70703 22.5334 7 22.5334C8.29297 22.5334 9.39453 21.6897 9.8125 20.5334H24V18.5334H9.8125C9.39453 17.3772 8.29297 16.5334 7 16.5334ZM7 18.5334C7.5625 18.5334 8 18.9709 8 19.5334C8 20.0959 7.5625 20.5334 7 20.5334C6.4375 20.5334 6 20.0959 6 19.5334C6 18.9709 6.4375 18.5334 7 18.5334Z"
    fill="#00D2FF" />
</svg>