<svg width="21" height="21" viewBox="0 0 21 21" fill="none"
  xmlns="http://www.w3.org/2000/svg">
  <path d="M18.2856 6.30859C17.7339 6.55273 17.1406 6.71875 16.5181 6.79199C17.1528 6.41113 17.6411 5.80811 17.8706 5.09033C17.2773 5.44189 16.6182 5.69824 15.9175 5.8374C15.356 5.23926 14.5552 4.86328 13.6714 4.86328C11.9722 4.86328 10.5928 6.24268 10.5928 7.94189C10.5928 8.18359 10.6196 8.41797 10.6733 8.64258C8.11475 8.51562 5.84668 7.29004 4.33057 5.42725C4.06445 5.88135 3.91309 6.41113 3.91309 6.9751C3.91309 8.04199 4.45508 8.98438 5.28272 9.53613C4.77734 9.51904 4.30371 9.38232 3.88867 9.15039C3.88867 9.16504 3.88867 9.17725 3.88867 9.18945C3.88867 10.6812 4.94824 11.9263 6.35693 12.207C6.09814 12.2778 5.82715 12.3169 5.54639 12.3169C5.34863 12.3169 5.15332 12.2974 4.96777 12.2607C5.3584 13.4839 6.49609 14.3726 7.84131 14.3994C6.78906 15.2246 5.46094 15.7153 4.02051 15.7153C3.77148 15.7153 3.52734 15.7007 3.28564 15.6714C4.64795 16.5454 6.26416 17.0557 8.00244 17.0557C13.6641 17.0557 16.7598 12.3657 16.7598 8.29834C16.7598 8.1665 16.7549 8.03223 16.75 7.90039C17.3506 7.46582 17.873 6.92383 18.2856 6.30859Z" fill="black"/>
</svg>
