<svg width="63" height="51" viewBox="0 0 63 51" fill="none" xmlns="http://www.w3.org/2000/svg">
  <path fill-rule="evenodd" clip-rule="evenodd"
    d="M13.7677 11.0582L1.26673 23.5592C0.379187 24.4467 0.379187 25.8857 1.26673 26.7733L13.7677 39.2742C14.6552 40.1618 16.0942 40.1618 16.9818 39.2742L29.4827 26.7733C30.3703 25.8857 30.3703 24.4467 29.4827 23.5592L16.9818 11.0582C16.0942 10.1707 14.6552 10.1707 13.7677 11.0582ZM15.3747 34.4531L6.08787 25.1662L15.3747 15.8794L24.6616 25.1662L15.3747 34.4531Z"
    fill="#E8E8E9" />
  <path fill-rule="evenodd" clip-rule="evenodd"
    d="M19.5889 7.72398L22.5428 10.6779C26.3323 6.76699 31.6372 4.33268 37.5 4.33268C48.9875 4.33268 58.3333 13.6785 58.3333 25.166C58.3333 36.6535 48.9875 45.9993 37.5 45.9993C31.6371 45.9993 26.3321 43.565 22.5426 39.6539L19.5887 42.6078C24.1298 47.2705 30.4764 50.166 37.5 50.166C51.3083 50.166 62.5 38.9743 62.5 25.166C62.5 11.3577 51.3083 0.166016 37.5 0.166016C30.4765 0.166016 24.13 3.06147 19.5889 7.72398ZM29.409 32.7875L35.8956 39.274C36.7831 40.1615 38.2221 40.1615 39.1096 39.274L51.6106 26.7731C52.4981 25.8855 52.4981 24.4465 51.6106 23.559L39.1096 11.058C38.2221 10.1705 36.7831 10.1705 35.8956 11.058L29.4092 17.5443L32.6233 20.7584L37.5026 15.8792L46.7894 25.166L37.5026 34.4529L32.6231 29.5734L29.409 32.7875Z"
    fill="#E8E8E9" />
</svg>