<svg width="20" height="16" viewBox="0 0 20 16" fill="none" xmlns="http://www.w3.org/2000/svg">
<path d="M19.9644 1.87193C19.2468 2.18939 18.4821 2.39981 17.6849 2.50198C18.505 2.00816 19.131 1.23214 19.4253 0.296784C18.6606 0.756555 17.8163 1.08131 16.9166 1.26255C16.1905 0.482882 15.1556 0 14.0267 0C11.8364 0 10.073 1.79287 10.073 3.99077C10.073 4.30701 10.0996 4.61109 10.1647 4.90058C6.87561 4.73881 3.96524 3.14907 2.01012 0.727363C1.66879 1.32458 1.46857 2.00816 1.46857 2.74403C1.46857 4.12578 2.17415 5.35062 3.22589 6.05974C2.59027 6.04758 1.9667 5.86148 1.43842 5.56834C1.43842 5.58051 1.43842 5.59632 1.43842 5.61213C1.43842 7.55096 2.80978 9.16137 4.60811 9.53235C4.28607 9.62114 3.93509 9.66371 3.57084 9.66371C3.31756 9.66371 3.06186 9.64912 2.82184 9.5956C3.33444 11.1756 4.78903 12.3372 6.5186 12.3749C5.17257 13.4368 3.4635 14.0765 1.61331 14.0765C1.28886 14.0765 0.977683 14.062 0.666504 14.0218C2.419 15.1615 4.49594 15.8122 6.7357 15.8122C14.0158 15.8122 17.996 9.73061 17.996 4.45905C17.996 4.28269 17.99 4.1124 17.9816 3.94333C18.7668 3.38139 19.4265 2.67957 19.9644 1.87193Z" fill="white"/>
</svg>
