<svg width="20" height="21" viewBox="0 0 20 21" fill="none" xmlns="http://www.w3.org/2000/svg">
<path d="M3.125 3.625V17.375H16.875V3.625H3.125ZM4.375 4.875H15.625V16.125H4.375V4.875ZM12.5 6.75C12.3277 6.75015 12.1573 6.78591 11.9995 6.85504C11.8417 6.92418 11.6999 7.02519 11.5829 7.15173C11.466 7.27828 11.3765 7.42764 11.3201 7.59042C11.2636 7.7532 11.2414 7.92589 11.2549 8.09766L8.32519 9.5625C8.09726 9.36148 7.80391 9.25039 7.5 9.25C7.16848 9.25 6.85054 9.3817 6.61612 9.61612C6.3817 9.85054 6.25 10.1685 6.25 10.5C6.25 10.8315 6.3817 11.1495 6.61612 11.3839C6.85054 11.6183 7.16848 11.75 7.5 11.75C7.80391 11.7496 8.09726 11.6385 8.32519 11.4375L11.2549 12.9023C11.2414 13.0741 11.2636 13.2468 11.3201 13.4096C11.3765 13.5724 11.466 13.7217 11.5829 13.8483C11.6999 13.9748 11.8417 14.0758 11.9995 14.145C12.1573 14.2141 12.3277 14.2499 12.5 14.25C12.8315 14.25 13.1495 14.1183 13.3839 13.8839C13.6183 13.6495 13.75 13.3315 13.75 13C13.75 12.6685 13.6183 12.3505 13.3839 12.1161C13.1495 11.8817 12.8315 11.75 12.5 11.75C12.1961 11.7504 11.9027 11.8615 11.6748 12.0625L8.74512 10.5977C8.75021 10.5327 8.75021 10.4673 8.74512 10.4023L11.6748 8.9375C11.9027 9.13852 12.1961 9.24961 12.5 9.25C12.8315 9.25 13.1495 9.1183 13.3839 8.88388C13.6183 8.64946 13.75 8.33152 13.75 8C13.75 7.66848 13.6183 7.35054 13.3839 7.11612C13.1495 6.8817 12.8315 6.75 12.5 6.75Z" fill="#ffffff"/>
</svg>
