<svg width="25" height="25" viewBox="0 0 25 25" fill="none"
  xmlns="http://www.w3.org/2000/svg">
  <path d="M6.5 2.21606C5.39543 2.21606 4.5 3.1115 4.5 4.21606V19.7161C4.5 20.8206 5.39543 21.7161 6.5 21.7161H17.5C18.6046 21.7161 19.5 20.8206 19.5 19.7161V7.16138L19.2891 6.927L14.7891 2.427L14.5547 2.21606H6.5ZM6 3.71606H13.5V8.21606H18V20.2161H6V3.71606ZM15 4.79419L16.9219 6.71606H15V4.79419ZM8.25 9.71606V11.2161H15.75V9.71606H8.25ZM8.25 12.7161V14.2161H15.75V12.7161H8.25ZM8.25 15.7161V17.2161H15.75V15.7161H8.25Z" fill="white"/>
</svg>
