<svg width="36" height="35" viewBox="0 0 36 35" fill="none" xmlns="http://www.w3.org/2000/svg">
  <path
    d="M18.0005 0.0615234C17.1375 0.0615234 16.438 0.761079 16.438 1.62402V15.6865H2.37549C1.51254 15.6865 0.812988 16.3861 0.812988 17.249V17.249C0.812988 18.112 1.51254 18.8115 2.37549 18.8115H16.438V32.874C16.438 33.737 17.1375 34.4365 18.0005 34.4365V34.4365C18.8634 34.4365 19.563 33.737 19.563 32.874V18.8115H33.6255C34.4884 18.8115 35.188 18.112 35.188 17.249V17.249C35.188 16.3861 34.4884 15.6865 33.6255 15.6865H19.563V1.62402C19.563 0.761079 18.8634 0.0615234 18.0005 0.0615234V0.0615234Z"
    fill="white" />
</svg>