<svg width="18" height="18" viewBox="0 0 18 18" fill="none" xmlns="http://www.w3.org/2000/svg">
<path d="M16.1737 11.7714C15.0042 11.7714 13.8727 11.5812 12.8173 11.2389C12.4845 11.1248 12.1137 11.2104 11.8569 11.4671L10.3641 13.3402C7.67325 12.0566 5.15353 9.63197 3.81285 6.84602L5.66699 5.26763C5.92371 5.0014 5.99978 4.63057 5.89519 4.29778C5.54338 3.24235 5.36272 2.11086 5.36272 0.941328C5.36272 0.427876 4.93484 0 4.42139 0H1.1315C0.618044 0 0 0.228201 0 0.941328C0 9.7746 7.34997 17.1151 16.1737 17.1151C16.8488 17.1151 17.1151 16.516 17.1151 15.9931V12.7127C17.1151 12.1992 16.6872 11.7714 16.1737 11.7714Z" fill="white"/>
</svg>
