<svg width="81" height="80" viewBox="0 0 81 80" fill="none" xmlns="http://www.w3.org/2000/svg">
  <path fill-rule="evenodd" clip-rule="evenodd"
    d="M37.7088 17.4272L17.7073 37.4287C16.2872 38.8488 16.2872 41.1512 17.7073 42.5713L37.7088 62.5728C39.1288 63.9929 41.4312 63.9929 42.8513 62.5728L62.8528 42.5713C64.2729 41.1512 64.2729 38.8488 62.8528 37.4287L42.8513 17.4272C41.4312 16.0071 39.1288 16.0071 37.7088 17.4272ZM40.28 54.859L25.4211 40L40.28 25.141L55.139 40L40.28 54.859Z"
    fill="white" />
  <path fill-rule="evenodd" clip-rule="evenodd"
    d="M0.275879 40C0.275879 17.9067 18.1825 0 40.2759 0C62.3692 0 80.2759 17.9067 80.2759 40C80.2759 62.0933 62.3692 80 40.2759 80C18.1825 80 0.275879 62.0933 0.275879 40ZM73.6092 40C73.6092 21.62 58.6559 6.66667 40.2759 6.66667C21.8959 6.66667 6.94255 21.62 6.94255 40C6.94255 58.38 21.8959 73.3333 40.2759 73.3333C58.6559 73.3333 73.6092 58.38 73.6092 40Z"
    fill="white" />
</svg>