<svg width="42" height="42" viewBox="0 0 42 42" fill="none" xmlns="http://www.w3.org/2000/svg">
  <path
    d="M20.9998 0.0410156C9.51271 0.0410156 0.166504 9.38722 0.166504 20.8743C0.166504 32.3615 9.51271 41.7077 20.9998 41.7077C32.487 41.7077 41.8332 32.3615 41.8332 20.8743C41.8332 9.38722 32.487 0.0410156 20.9998 0.0410156ZM20.9998 3.24614C30.7529 3.24614 38.628 11.1212 38.628 20.8743C38.628 30.6275 30.7529 38.5025 20.9998 38.5025C11.2467 38.5025 3.37163 30.6275 3.37163 20.8743C3.37163 11.1212 11.2467 3.24614 20.9998 3.24614ZM20.9998 8.05384C16.5928 8.05384 12.987 11.6596 12.987 16.0667C12.987 18.4955 14.1201 20.6552 15.8416 22.1263C12.6877 23.7635 10.415 26.8519 9.89493 30.495C9.76985 31.3712 10.4994 32.0923 11.3845 32.0923V32.0923C12.2695 32.0923 12.9703 31.3677 13.1434 30.4997C13.8765 26.8252 17.101 24.0795 20.9998 24.0795C24.8987 24.0795 28.1232 26.8252 28.8562 30.4997C29.0294 31.3677 29.7301 32.0923 30.6152 32.0923V32.0923C31.5003 32.0923 32.2298 31.3712 32.1047 30.495C31.5847 26.8519 29.312 23.7635 26.1581 22.1263C27.8796 20.6552 29.0127 18.4955 29.0127 16.0667C29.0127 11.6596 25.4069 8.05384 20.9998 8.05384ZM20.9998 11.259C23.6729 11.259 25.8075 13.3936 25.8075 16.0667C25.8075 18.7397 23.6729 20.8743 20.9998 20.8743C18.3268 20.8743 16.1921 18.7397 16.1921 16.0667C16.1921 13.3936 18.3268 11.259 20.9998 11.259Z"
    fill="white" />
</svg>