<svg width="50" height="51" viewBox="0 0 50 51" fill="none" xmlns="http://www.w3.org/2000/svg">
<path d="M9.375 5.1875V45.8125H40.625V15.4902L40.1855 15.002L30.8105 5.62695L30.3223 5.1875H9.375ZM12.5 8.3125H28.125V17.6875H37.5V42.6875H12.5V8.3125ZM31.25 10.5586L35.2539 14.5625H31.25V10.5586ZM25 20.8125L21.875 39.5625H25L28.125 20.8125H25ZM19.0918 24.5234L15.1855 29.2109L14.3555 30.1875L15.1855 31.1641L19.0918 35.8516L21.5332 33.8984L18.457 30.1875L21.5332 26.4766L19.0918 24.5234ZM30.9082 24.5234L28.4668 26.4766L31.543 30.1875L28.4668 33.8984L30.9082 35.8516L34.8145 31.1641L35.6445 30.1875L34.8145 29.2109L30.9082 24.5234Z" fill="white"/>
</svg>
