<svg width="50" height="51" viewBox="0 0 50 51" fill="none" xmlns="http://www.w3.org/2000/svg">
<path d="M17.9688 9.875C14.9658 9.875 12.5 12.3408 12.5 15.3438C12.5 18.3467 14.9658 20.8125 17.9688 20.8125C20.9717 20.8125 23.4375 18.3467 23.4375 15.3438C23.4375 12.3408 20.9717 9.875 17.9688 9.875ZM32.0312 9.875C29.0283 9.875 26.5625 12.3408 26.5625 15.3438C26.5625 18.3467 29.0283 20.8125 32.0312 20.8125C35.0342 20.8125 37.5 18.3467 37.5 15.3438C37.5 12.3408 35.0342 9.875 32.0312 9.875ZM17.9688 13C19.281 13 20.3125 14.0315 20.3125 15.3438C20.3125 16.656 19.281 17.6875 17.9688 17.6875C16.6565 17.6875 15.625 16.656 15.625 15.3438C15.625 14.0315 16.6565 13 17.9688 13ZM32.0312 13C33.3435 13 34.375 14.0315 34.375 15.3438C34.375 16.656 33.3435 17.6875 32.0312 17.6875C30.719 17.6875 29.6875 16.656 29.6875 15.3438C29.6875 14.0315 30.719 13 32.0312 13ZM10.9375 19.25C7.50122 19.25 4.6875 22.0637 4.6875 25.5C4.6875 27.2395 5.43213 28.8081 6.5918 29.9434C4.5105 31.3533 3.125 33.752 3.125 36.4375H6.25C6.25 33.8313 8.3313 31.75 10.9375 31.75C13.5437 31.75 15.625 33.8313 15.625 36.4375H18.75C18.75 33.752 17.3645 31.3533 15.2832 29.9434C16.4429 28.8081 17.1875 27.2395 17.1875 25.5C17.1875 22.0637 14.3738 19.25 10.9375 19.25ZM18.75 36.4375C17.7734 37.7437 17.1875 39.3855 17.1875 41.125H20.3125C20.3125 38.5188 22.3938 36.4375 25 36.4375C27.6062 36.4375 29.6875 38.5188 29.6875 41.125H32.8125C32.8125 39.3855 32.2266 37.7437 31.25 36.4375C30.719 35.7295 30.0781 35.1252 29.3457 34.6309C30.5054 33.4956 31.25 31.927 31.25 30.1875C31.25 26.7512 28.4363 23.9375 25 23.9375C21.5637 23.9375 18.75 26.7512 18.75 30.1875C18.75 31.927 19.4946 33.4956 20.6543 34.6309C19.9219 35.1252 19.281 35.7295 18.75 36.4375ZM31.25 36.4375H34.375C34.375 33.8313 36.4563 31.75 39.0625 31.75C41.6687 31.75 43.75 33.8313 43.75 36.4375H46.875C46.875 33.752 45.4895 31.3533 43.4082 29.9434C44.5679 28.8081 45.3125 27.2395 45.3125 25.5C45.3125 22.0637 42.4988 19.25 39.0625 19.25C35.6262 19.25 32.8125 22.0637 32.8125 25.5C32.8125 27.2395 33.5571 28.8081 34.7168 29.9434C32.6355 31.3533 31.25 33.752 31.25 36.4375ZM10.9375 22.375C12.6831 22.375 14.0625 23.7544 14.0625 25.5C14.0625 27.2456 12.6831 28.625 10.9375 28.625C9.1919 28.625 7.8125 27.2456 7.8125 25.5C7.8125 23.7544 9.1919 22.375 10.9375 22.375ZM39.0625 22.375C40.8081 22.375 42.1875 23.7544 42.1875 25.5C42.1875 27.2456 40.8081 28.625 39.0625 28.625C37.3169 28.625 35.9375 27.2456 35.9375 25.5C35.9375 23.7544 37.3169 22.375 39.0625 22.375ZM25 27.0625C26.7456 27.0625 28.125 28.4419 28.125 30.1875C28.125 31.9331 26.7456 33.3125 25 33.3125C23.2544 33.3125 21.875 31.9331 21.875 30.1875C21.875 28.4419 23.2544 27.0625 25 27.0625Z" fill="white"/>
</svg>
