<svg width="20" height="21" viewBox="0 0 20 21" fill="none" xmlns="http://www.w3.org/2000/svg">
<path d="M7.5 1.75C5.09033 1.75 3.125 3.71533 3.125 6.125C3.125 7.63135 3.89404 8.96924 5.05859 9.75781C2.82959 10.7148 1.25 12.9268 1.25 15.5H2.5C2.5 12.7314 4.73145 10.5 7.5 10.5C8.35937 10.5 9.16016 10.7246 9.86328 11.1055C9.16992 11.9648 8.75 13.0635 8.75 14.25C8.75 17.0039 10.9961 19.25 13.75 19.25C16.5039 19.25 18.75 17.0039 18.75 14.25C18.75 11.4961 16.5039 9.25 13.75 9.25C12.6587 9.25 11.6431 9.60889 10.8203 10.207C10.5444 10.0337 10.2441 9.88721 9.94141 9.75781C11.106 8.96924 11.875 7.63135 11.875 6.125C11.875 3.71533 9.90967 1.75 7.5 1.75ZM7.5 3C9.2334 3 10.625 4.3916 10.625 6.125C10.625 7.8584 9.2334 9.25 7.5 9.25C5.7666 9.25 4.375 7.8584 4.375 6.125C4.375 4.3916 5.7666 3 7.5 3ZM13.75 10.5C15.8276 10.5 17.5 12.1724 17.5 14.25C17.5 16.3276 15.8276 18 13.75 18C11.6724 18 10 16.3276 10 14.25C10 12.1724 11.6724 10.5 13.75 10.5ZM15.8008 12.5508L13.75 14.6016L12.3242 13.1758L11.4258 14.0742L13.3008 15.9492L13.75 16.3789L14.1992 15.9492L16.6992 13.4492L15.8008 12.5508Z" fill="#ffffff"/>
</svg>
