<svg width="53" height="52" viewBox="0 0 53 52" fill="none" xmlns="http://www.w3.org/2000/svg">
  <path
    d="M35.0338 48.6737C27.0183 48.6737 20.4992 42.1798 20.4992 34.2016C20.4992 26.2234 27.0183 19.7295 35.0338 19.7295C43.0493 19.7295 49.5685 26.2234 49.5685 34.2016C49.5685 42.1798 43.0493 48.6737 35.0338 48.6737ZM11.0198 43.3377C9.78903 43.3377 8.78978 42.3405 8.78978 41.1185C8.78978 39.8965 9.78903 38.8993 11.0198 38.8993H18.4726C18.9265 40.484 19.6037 41.9754 20.4682 43.3377H11.0198ZM11.0198 31.7847H17.9863C17.8736 32.5745 17.8145 33.3812 17.8145 34.2016C17.8145 34.8857 17.8559 35.5601 17.9347 36.2231H11.0198C9.78903 36.2231 8.78978 35.2259 8.78978 34.0039C8.78978 32.7819 9.78903 31.7847 11.0198 31.7847ZM11.0198 24.6701H20.727C19.8136 26.0256 19.089 27.5174 18.591 29.1084H11.0198C9.78903 29.1084 8.78978 28.1113 8.78978 26.8893C8.78978 25.6674 9.78903 24.6701 11.0198 24.6701ZM11.0198 17.5555H30.8888C27.8448 18.3075 25.1179 19.8682 22.9525 21.9938H11.0198C9.78913 21.9938 8.78978 20.9966 8.78978 19.7747C8.78978 18.5528 9.78913 17.5555 11.0198 17.5555ZM5.66131 7.76461C4.43055 7.76461 3.4313 6.76736 3.4313 5.54545C3.4313 4.32353 4.43055 3.32628 5.66131 3.32628H29.9729C31.2037 3.32628 32.203 4.32353 32.203 5.54545C32.203 6.76736 31.2037 7.76461 29.9729 7.76461H5.66131ZM41.6822 10.4409C42.913 10.4409 43.9122 11.4381 43.9122 12.6601C43.9122 13.882 42.913 14.8792 41.6822 14.8792H35.3314H17.3706C16.1398 14.8792 15.1406 13.882 15.1406 12.6601C15.1406 11.4381 16.1398 10.4409 17.3706 10.4409H41.6822ZM52.2531 34.2016C52.2531 26.3877 46.9791 19.7816 39.7932 17.7204C39.7675 17.6648 39.7408 17.6098 39.7131 17.5555H41.6822C44.391 17.5555 46.5969 15.3611 46.5969 12.6601C46.5969 9.95905 44.391 7.76461 41.6822 7.76461H34.3523C34.6942 7.09823 34.8876 6.34387 34.8876 5.54545C34.8876 2.84444 32.6818 0.65 29.9729 0.65H5.66131C2.95251 0.65 0.74668 2.84444 0.74668 5.54545C0.74668 8.24645 2.95251 10.4409 5.66131 10.4409H12.9912C12.6494 11.1073 12.456 11.8616 12.456 12.6601C12.456 13.4585 12.6493 14.2128 12.9912 14.8792H11.0198C8.31099 14.8792 6.10516 17.0737 6.10516 19.7747C6.10516 21.1758 6.69985 22.4399 7.6483 23.332C6.69985 24.224 6.10516 25.4882 6.10516 26.8893C6.10516 28.2905 6.69986 29.5545 7.64831 30.4466C6.69987 31.3387 6.10516 32.6028 6.10516 34.0039C6.10516 35.4051 6.69986 36.6691 7.64831 37.5612C6.69987 38.4533 6.10516 39.7174 6.10516 41.1185C6.10516 43.8195 8.31099 46.0139 11.0198 46.0139H22.5636C25.702 49.2983 30.1316 51.35 35.0338 51.35C44.5275 51.35 52.2531 43.6589 52.2531 34.2016Z"
    fill="white" stroke="white" stroke-width="0.7" />
</svg>