<svg width="38" height="39" viewBox="0 0 38 39" fill="none" xmlns="http://www.w3.org/2000/svg">
  <path
    d="M29.8882 0.699535C29.6501 0.705638 29.3999 0.736157 29.1558 0.797191L3.76514 7.48664C1.71436 8.02375 0.249512 9.90364 0.249512 12.0277V33.512C0.249512 36.0816 2.36743 38.1995 4.93701 38.1995H33.062C35.6316 38.1995 37.7495 36.0816 37.7495 33.512V13.1995C37.7495 10.63 35.6316 8.51204 33.062 8.51204H12.1636L29.937 3.82454V6.94954H33.062V3.82454C33.062 2.06672 31.5667 0.675121 29.8882 0.699535ZM4.93701 11.637H33.062C33.947 11.637 34.6245 12.3145 34.6245 13.1995V33.512C34.6245 34.397 33.947 35.0745 33.062 35.0745H4.93701C4.052 35.0745 3.37451 34.397 3.37451 33.512V13.1995C3.37451 12.3145 4.052 11.637 4.93701 11.637ZM29.1558 21.012C27.8618 21.012 26.812 22.0618 26.812 23.3558C26.812 24.6497 27.8618 25.6995 29.1558 25.6995C30.4497 25.6995 31.4995 24.6497 31.4995 23.3558C31.4995 22.0618 30.4497 21.012 29.1558 21.012Z"
    fill="white" />
</svg>