<svg width="50" height="51" viewBox="0 0 50 51" fill="none" xmlns="http://www.w3.org/2000/svg">
<path d="M32.9855 15.5369H46.7674C47.8832 15.5369 48.7913 14.6288 48.7913 13.513V6.05618C48.7913 4.94042 47.8832 4.03237 46.7674 4.03237H39.8925C39.7464 4.03237 39.6054 3.97152 39.5055 3.86548L37.9915 2.25634C37.6107 1.8515 37.0736 1.61938 36.5176 1.61938H32.9855C31.8698 1.61938 30.9617 2.52744 30.9617 3.6432V8.81096H30.1626C28.3133 8.81096 26.8088 10.3152 26.8088 12.1644V24.7537H23.5285C23.5285 22.1599 23.5285 17.2259 23.5285 14.6601C23.5285 11.9021 16.224 11.1733 12.3615 11.1733C8.50405 11.1733 1.20898 11.9021 1.20898 14.6601C1.20898 20.0667 1.20898 30.848 1.20898 36.3497C1.20898 39.1077 8.50405 39.8365 12.3615 39.8365C16.224 39.8365 23.5285 39.1077 23.5285 36.3497C23.5285 33.7706 23.5285 30.7948 23.5285 26.2463H26.8088V38.8355C26.8088 40.6848 28.3133 42.189 30.1626 42.189H30.9617V47.3568C30.9617 48.4725 31.8698 49.3806 32.9855 49.3806H46.7674C47.8832 49.3806 48.7913 48.4725 48.7913 47.3568V39.8999C48.7913 38.7841 47.8832 37.8761 46.7674 37.8761H39.8925C39.7464 37.8761 39.6054 37.8152 39.5055 37.7092L37.9915 36.1001C37.6107 35.6952 37.0736 35.4631 36.5176 35.4631H32.9855C31.8698 35.4631 30.9617 36.3712 30.9617 37.4869V40.6965H30.1626C29.1361 40.6965 28.3013 39.8616 28.3013 38.8355V26.2463H30.9617V30.4349C30.9617 31.5507 31.8698 32.4587 32.9855 32.4587H46.7674C47.8832 32.4587 48.7913 31.5507 48.7913 30.4349V22.978C48.7913 21.8623 47.8832 20.9542 46.7674 20.9542H39.8925C39.7464 20.9542 39.6054 20.8934 39.5055 20.7873L37.9915 19.1782C37.6107 18.7734 37.0736 18.5412 36.5176 18.5412H32.9855C31.8698 18.5412 30.9617 19.4493 30.9617 20.5651V24.7537H28.3013V12.1644C28.3013 11.1383 29.1361 10.3035 30.1626 10.3035H30.9617V13.513C30.9617 14.6288 31.8698 15.5369 32.9855 15.5369ZM32.4543 3.6432C32.4543 3.35023 32.6926 3.11192 32.9855 3.11192H36.5176C36.6637 3.11192 36.8043 3.17277 36.9042 3.27881L38.4186 4.88832C38.7997 5.29279 39.3368 5.52491 39.8925 5.52491H46.7675C47.0604 5.52491 47.2987 5.76322 47.2987 6.05618V13.513C47.2987 13.806 47.0604 14.0443 46.7675 14.0443H32.9855C32.6926 14.0443 32.4543 13.806 32.4543 13.513V3.6432ZM22.036 36.3486C21.9635 36.9454 18.5849 38.344 12.3615 38.344C6.14026 38.344 2.77039 36.9454 2.70152 36.3497V32.8043C6.7477 34.9419 18.0019 34.9337 22.036 32.8033V36.3486H22.036ZM22.036 30.9195C21.9635 31.5164 18.5856 32.9142 12.3615 32.9142C6.13807 32.9142 2.76966 31.5157 2.70152 30.9199V27.3841C6.74834 29.5219 18.0021 29.5131 22.036 27.3831V30.9195H22.036ZM22.036 25.4992C21.9624 26.0961 18.5838 27.4943 12.3615 27.4943C6.14026 27.4943 2.77039 26.0958 2.70152 25.5V21.9642C6.74834 24.1019 18.0021 24.0932 22.036 21.9632V25.4992H22.036ZM22.036 20.0793C21.9624 20.6762 18.5834 22.074 12.3615 22.074C6.14063 22.074 2.77076 20.6758 2.70152 20.0801V16.5345C2.92828 16.5866 5.11454 18.1466 12.3615 18.1466C17.0783 18.1466 18.9336 17.6135 22.036 16.5335V20.0793ZM21.9906 14.7639C21.916 14.7879 20.3018 16.8954 11.2286 16.6382C5.73338 16.4824 2.76775 15.2193 2.70166 14.6605C2.77108 14.0637 6.13926 12.6658 12.3615 12.6658C17.2716 12.6658 22.5329 13.9093 21.9906 14.7639ZM32.4543 37.4869C32.4543 37.194 32.6926 36.9556 32.9855 36.9556H36.5176C36.6637 36.9556 36.8043 37.0165 36.9042 37.1225L38.4186 38.732C38.7997 39.1365 39.3368 39.3686 39.8925 39.3686H46.7675C47.0604 39.3686 47.2987 39.6069 47.2987 39.8999V47.3568C47.2987 47.6497 47.0604 47.888 46.7675 47.888H32.9855C32.6926 47.888 32.4543 47.6497 32.4543 47.3568V37.4869ZM32.4543 20.5651C32.4543 20.2721 32.6926 20.0338 32.9855 20.0338H36.5176C36.6637 20.0338 36.8043 20.0946 36.9042 20.2007L38.4186 21.8102C38.7997 22.2147 39.3368 22.4468 39.8925 22.4468H46.7675C47.0604 22.4468 47.2987 22.6851 47.2987 22.978V30.4349C47.2987 30.7279 47.0604 30.9662 46.7675 30.9662H32.9855C32.6926 30.9662 32.4543 30.7279 32.4543 30.4349V20.5651Z" fill="white"/>
</svg>
