<svg width="24" height="25" viewBox="0 0 24 25" fill="none"
  xmlns="http://www.w3.org/2000/svg">
  <path fill-rule="evenodd" clip-rule="evenodd" d="M12 20.7161C16.6944 20.7161 20.5 16.9105 20.5 12.2161C20.5 7.52164 16.6944 3.71606 12 3.71606C7.30558 3.71606 3.5 7.52164 3.5 12.2161C3.5 16.9105 7.30558 20.7161 12 20.7161ZM12 22.2161C17.5228 22.2161 22 17.7389 22 12.2161C22 6.69322 17.5228 2.21606 12 2.21606C6.47715 2.21606 2 6.69322 2 12.2161C2 17.7389 6.47715 22.2161 12 22.2161Z" fill="white"/>
  <path fill-rule="evenodd" clip-rule="evenodd" d="M12 14.7161C13.3807 14.7161 14.5 13.5968 14.5 12.2161C14.5 10.8354 13.3807 9.71606 12 9.71606C10.6193 9.71606 9.5 10.8354 9.5 12.2161C9.5 13.5968 10.6193 14.7161 12 14.7161ZM12 16.2161C14.2091 16.2161 16 14.4252 16 12.2161C16 10.0069 14.2091 8.21606 12 8.21606C9.79086 8.21606 8 10.0069 8 12.2161C8 14.4252 9.79086 16.2161 12 16.2161Z" fill="white"/>
</svg>
