<svg width="50" height="51" viewBox="0 0 50 51" fill="none" xmlns="http://www.w3.org/2000/svg">
<path d="M25 3.82031L23.584 7.04297L18.5059 18.4199L6.10352 19.7383L2.58789 20.1289L5.22461 22.4727L14.4531 30.8223L11.8652 43.0293L11.1328 46.4473L14.209 44.6895L25 38.4395L35.791 44.6895L38.8672 46.4473L38.1348 43.0293L35.5469 30.8223L44.7754 22.4727L47.4121 20.1289L43.8965 19.7383L31.4941 18.4199L26.416 7.04297L25 3.82031ZM25 11.4863L29.0039 20.5195L29.3945 21.3496L30.2734 21.4473L40.0879 22.4727L32.7637 29.0645L32.0801 29.6992L32.2754 30.5781L34.3262 40.1973L25.7812 35.3145L25 34.8262L24.2188 35.3145L15.6738 40.1973L17.7246 30.5781L17.9199 29.6992L17.2363 29.0645L9.91211 22.4727L19.7266 21.4473L20.6055 21.3496L20.9961 20.5195L25 11.4863Z" fill="white"/>
</svg>
