<svg width="21" height="20" viewBox="0 0 21 20" fill="none"
  xmlns="http://www.w3.org/2000/svg">
  <path d="M10.5 1.875C6.02002 1.875 2.375 5.52002 2.375 10C2.375 14.48 6.02002 18.125 10.5 18.125C14.98 18.125 18.625 14.48 18.625 10C18.625 5.52002 14.98 1.875 10.5 1.875ZM9.79688 3.16406C9.82373 3.16162 9.84814 3.1665 9.875 3.16406V10.2539L10.0508 10.4492L14.9141 15.293C13.7227 16.2891 12.1797 16.875 10.5 16.875C6.69629 16.875 3.625 13.8037 3.625 10C3.625 6.43311 6.3252 3.51562 9.79688 3.16406ZM11.125 3.16406C14.4282 3.46191 17.0381 6.07178 17.3359 9.375H11.125V3.16406ZM12.0234 10.625H17.3359C17.2065 12.0581 16.6646 13.3716 15.793 14.4141L12.0234 10.625Z" fill="black"/>
</svg>
