<svg width="38" height="39" viewBox="0 0 38 39" fill="none"
  xmlns="http://www.w3.org/2000/svg">
  <path d="M10.1995 14.164C9.53289 14.164 8.99248 14.7044 8.99248 15.3711L8.99248 28.4387V28.4387C9.00715 29.0992 9.53907 29.6311 10.1995 29.6458V29.6458L23.2672 29.6458C23.9338 29.6458 24.4742 29.1054 24.4742 28.4387V28.4387C24.4742 27.7721 23.9338 27.2317 23.2672 27.2317L13.086 27.2317L29.0925 11.2251C29.5563 10.7614 29.5563 10.0095 29.0925 9.54572V9.54572C28.6288 9.08198 27.8769 9.08198 27.4132 9.54572L11.4066 25.5523L11.4066 15.3711C11.4066 14.7044 10.8662 14.164 10.1995 14.164V14.164Z" fill="#00D2FF"/>
</svg>
