<svg width="21" height="21" viewBox="0 0 21 21" fill="none"
  xmlns="http://www.w3.org/2000/svg">
  <path d="M14.9984 10.6345C14.9984 12.961 13.1124 14.847 10.7859 14.847C8.45935 14.847 6.57335 12.961 6.57335 10.6345C6.57335 8.30798 8.45935 6.42198 10.7859 6.42198C13.1124 6.42198 14.9984 8.30798 14.9984 10.6345Z" fill="black"/>
  <path fill-rule="evenodd" clip-rule="evenodd" d="M2.36084 10.6345C2.36084 5.98107 6.13244 2.20947 10.7859 2.20947C15.4393 2.20947 19.2109 5.98107 19.2109 10.6345C19.2109 15.2879 15.4393 19.0595 10.7859 19.0595C6.13244 19.0595 2.36084 15.2879 2.36084 10.6345ZM17.6789 10.6345C17.6789 6.8334 14.5869 3.74142 10.7859 3.74142C6.98477 3.74142 3.89279 6.8334 3.89279 10.6345C3.89279 14.4356 6.98477 17.5275 10.7859 17.5275C14.5869 17.5275 17.6789 14.4356 17.6789 10.6345Z" fill="black"/>
</svg>
