<svg width="50" height="51" viewBox="0 0 50 51" fill="none" xmlns="http://www.w3.org/2000/svg">
<path d="M37.8469 8.83333C37.6189 8.8332 37.3931 8.87891 37.1824 8.96785C36.9717 9.0568 36.7802 9.18723 36.619 9.3517C36.4577 9.51616 36.3299 9.71143 36.2427 9.92634C36.1555 10.1412 36.1107 10.3716 36.1108 10.6042V11.7317C34.6466 13.5835 32.7959 15.0789 30.6937 16.1092C28.5914 17.1395 26.2903 17.6787 23.958 17.6875H13.5413C12.1605 17.689 10.8366 18.2492 9.86016 19.2452C8.88373 20.2411 8.33452 21.5915 8.33301 23V26.5417C8.33452 27.9502 8.88373 29.3005 9.86016 30.2965C10.8366 31.2924 12.1605 31.8526 13.5413 31.8542H14.3813L10.2098 41.7822C10.0965 42.0514 10.0505 42.3452 10.0759 42.6371C10.1014 42.929 10.1975 43.2099 10.3556 43.4545C10.5138 43.6992 10.729 43.8999 10.9821 44.0388C11.2351 44.1776 11.5179 44.2502 11.8052 44.25H18.7497C19.0895 44.2502 19.4219 44.1485 19.7056 43.9576C19.9892 43.7666 20.2116 43.4949 20.3451 43.1761L25.0738 31.9215C27.2103 32.0815 29.292 32.6865 31.1903 33.6992C33.0886 34.712 34.7633 36.1109 36.1108 37.8096V38.9375C36.1108 39.4071 36.2937 39.8576 36.6193 40.1897C36.9449 40.5218 37.3864 40.7083 37.8469 40.7083C38.3073 40.7083 38.7489 40.5218 39.0745 40.1897C39.4001 39.8576 39.583 39.4071 39.583 38.9375V10.6042C39.5831 10.3716 39.5383 10.1412 39.4511 9.92633C39.3639 9.71143 39.236 9.51616 39.0748 9.35169C38.9136 9.18723 38.7221 9.0568 38.5114 8.96785C38.3007 8.87891 38.0749 8.83319 37.8469 8.83333V8.83333ZM13.5413 28.3125C13.081 28.3122 12.6396 28.1255 12.3141 27.7935C11.9885 27.4615 11.8055 27.0112 11.8052 26.5417V23C11.8055 22.5304 11.9886 22.0802 12.3141 21.7482C12.6396 21.4162 13.081 21.2295 13.5413 21.2292H15.2775V28.3125H13.5413ZM17.6053 40.7083H14.4382L18.158 31.8542H21.325L17.6053 40.7083ZM36.1108 32.7782C32.6876 29.9017 28.3932 28.3236 23.958 28.3124H18.7497V21.2291H23.958C28.3933 21.2175 32.6877 19.6391 36.1108 16.7624V32.7782Z" fill="white"/>
</svg>
