<svg width="50" height="51" viewBox="0 0 50 51" fill="none" xmlns="http://www.w3.org/2000/svg">
<path d="M23.4375 6.75V8.50781C22.406 8.70923 21.405 9.06323 20.5566 9.63086L19.3359 8.41016L17.0898 10.6074L18.3594 11.877C17.8284 12.6826 17.4377 13.592 17.2363 14.5625H15.625V17.6875H17.2363C17.4377 18.658 17.8284 19.5674 18.3594 20.373L17.0898 21.6426L19.3359 23.8398L20.5566 22.6191C21.405 23.1868 22.406 23.5408 23.4375 23.7422V25.5H26.5625V23.7422C27.5146 23.5347 28.4119 23.1929 29.1992 22.668L30.3711 23.8398L32.5684 21.6426L31.3965 20.4707C31.958 19.6406 32.3608 18.7007 32.5684 17.6875H34.375V14.5625H32.5684C32.3608 13.5493 31.958 12.6094 31.3965 11.7793L32.5684 10.6074L30.3711 8.41016L29.1992 9.58203C28.4119 9.05713 27.5146 8.71533 26.5625 8.50781V6.75H23.4375ZM24.9023 11.4375C27.5085 11.4375 29.5898 13.5188 29.5898 16.125C29.5898 18.7312 27.5085 20.8125 24.9023 20.8125C22.2961 20.8125 20.2148 18.7312 20.2148 16.125C20.2148 13.5188 22.2961 11.4375 24.9023 11.4375ZM12.5 25.5V27.209C11.4502 27.4104 10.4736 27.801 9.61914 28.3809L8.39844 27.1602L6.15234 29.3574L7.42188 30.627C6.89087 31.4387 6.50024 32.3359 6.29883 33.3125H4.6875V36.4375H6.29883C6.50024 37.4141 6.89087 38.3113 7.42188 39.123L6.15234 40.3926L8.39844 42.5898L9.61914 41.3691C10.4736 41.949 11.4502 42.3396 12.5 42.541V44.25H15.625V42.4922C16.5771 42.2847 17.4744 41.9429 18.2617 41.418L19.4336 42.5898L21.6309 40.3926L20.459 39.2207C21.0144 38.4028 21.4172 37.4812 21.6309 36.4863L23.4863 36.4375L23.3887 33.3125L21.6309 33.3613C21.4233 32.3298 21.0327 31.3716 20.459 30.5293L21.6309 29.3574L19.4336 27.1602L18.2617 28.332C17.4744 27.8071 16.5771 27.4653 15.625 27.2578V25.5H12.5ZM34.375 25.5V27.2578C33.3435 27.4592 32.3425 27.8132 31.4941 28.3809L30.2734 27.1602L28.0273 29.3574L29.2969 30.627C28.7659 31.4326 28.3752 32.342 28.1738 33.3125H26.5625V36.4375H28.1738C28.3752 37.408 28.7659 38.3174 29.2969 39.123L28.0273 40.3926L30.2734 42.5898L31.4941 41.3691C32.3425 41.9368 33.3435 42.2908 34.375 42.4922V44.25H37.5V42.4922C38.446 42.2847 39.3005 41.8879 40.0879 41.3691L41.3086 42.5898L43.5059 40.3926L42.334 39.2207C42.8955 38.4028 43.2922 37.4873 43.5059 36.4863L45.3613 36.4375L45.2637 33.3125L43.5059 33.3613C43.3044 32.342 42.8467 31.4143 42.2852 30.5781L43.5059 29.3574L41.3086 27.1602L40.0879 28.3809C39.3127 27.8743 38.4277 27.5142 37.5 27.3066V25.5H34.375ZM13.9648 30.1875C16.571 30.1875 18.6523 32.2688 18.6523 34.875C18.6523 37.4812 16.571 39.5625 13.9648 39.5625C11.3586 39.5625 9.27734 37.4812 9.27734 34.875C9.27734 32.2688 11.3586 30.1875 13.9648 30.1875ZM35.8398 30.1875C38.446 30.1875 40.5273 32.2688 40.5273 34.875C40.5273 37.4812 38.446 39.5625 35.8398 39.5625C33.2336 39.5625 31.1523 37.4812 31.1523 34.875C31.1523 32.2688 33.2336 30.1875 35.8398 30.1875Z" fill="white"/>
</svg>
