<svg width="21" height="21" viewBox="0 0 21 21" fill="none"
  xmlns="http://www.w3.org/2000/svg">
  <path d="M17.0794 3.45693C16.8695 3.46669 16.6717 3.52773 16.4959 3.59609H16.4935C16.3153 3.66689 15.4681 4.02333 14.1815 4.56288C12.8949 5.10488 11.225 5.808 9.56724 6.50624C6.25669 7.90028 3.0023 9.27236 3.0023 9.27236L3.04136 9.25771C3.04136 9.25771 2.81675 9.33095 2.58238 9.49208C2.46275 9.57021 2.33091 9.67763 2.21617 9.84609C2.10142 10.0145 2.00865 10.2733 2.04283 10.5394C2.09898 10.9911 2.39195 11.2621 2.60191 11.411C2.81431 11.5624 3.01695 11.6332 3.01695 11.6332H3.02183L6.07359 12.661C6.21031 13.1005 7.00376 15.7079 7.19419 16.3085C7.3065 16.6674 7.41636 16.892 7.55308 17.0629C7.619 17.1508 7.69712 17.224 7.7899 17.2826C7.82652 17.3046 7.86558 17.3217 7.90464 17.3363C7.91685 17.3436 7.92906 17.3461 7.9437 17.3485L7.91197 17.3412C7.92173 17.3436 7.92906 17.351 7.93638 17.3534C7.96079 17.3607 7.97788 17.3632 8.00962 17.3681C8.49302 17.5145 8.8812 17.2142 8.8812 17.2142L8.90318 17.1972L10.7049 15.5565L13.725 17.8734L13.7933 17.9027C14.4232 18.1786 15.0604 18.0248 15.3973 17.7538C15.7367 17.4804 15.8685 17.1312 15.8685 17.1312L15.8905 17.0751L18.2245 5.11952C18.2904 4.82411 18.3075 4.54823 18.2342 4.27968C18.161 4.01113 17.973 3.75966 17.7459 3.62538C17.5165 3.48866 17.2894 3.44716 17.0794 3.45693ZM17.016 4.73866C17.0135 4.77773 17.0209 4.77284 17.0038 4.84853V4.85585L14.6918 16.6869C14.682 16.704 14.6649 16.7406 14.6185 16.7772C14.5697 16.8163 14.5306 16.8407 14.328 16.7601L10.6341 13.9281L8.40269 15.9618L8.87144 12.9686C8.87144 12.9686 14.6576 7.57558 14.9066 7.34364C15.1556 7.11171 15.0726 7.06288 15.0726 7.06288C15.0897 6.77968 14.6966 6.97988 14.6966 6.97988L7.08677 11.6942L7.08433 11.682L3.43687 10.454V10.4516C3.43443 10.4516 3.42954 10.4491 3.4271 10.4491C3.42954 10.4491 3.44663 10.4418 3.44663 10.4418L3.46617 10.432L3.4857 10.4247C3.4857 10.4247 6.74253 9.05263 10.0531 7.65859C11.7108 6.96034 13.3807 6.25722 14.6649 5.71523C15.9491 5.17568 16.8988 4.78017 16.9525 4.7582C17.0038 4.73866 16.9793 4.73866 17.016 4.73866Z" fill="black"/>
</svg>
