<svg width="50" height="51" viewBox="0 0 50 51" fill="none" xmlns="http://www.w3.org/2000/svg">
<path d="M15.625 6.75C13.0547 6.75 10.9375 8.86719 10.9375 11.4375V33.3125H6.25V39.5625C6.25 42.1328 8.36719 44.25 10.9375 44.25H32.8125H32.8613C35.4066 44.225 37.5 42.1141 37.5 39.5625V17.6875H43.75V11.4375C43.75 8.86719 41.6328 6.75 39.0625 6.75H15.625ZM15.625 9.875H34.668C34.4914 10.3688 34.375 10.8875 34.375 11.4375V39.5625C34.375 40.4469 33.6969 41.125 32.8125 41.125C31.9328 41.1375 31.2625 40.4406 31.25 39.5625L31.2012 33.3125H14.0625V11.4375C14.0625 10.5531 14.7406 9.875 15.625 9.875ZM39.0625 9.875C39.9469 9.875 40.625 10.5531 40.625 11.4375V14.5625H37.5V11.4375C37.5 10.5531 38.1781 9.875 39.0625 9.875ZM9.375 36.4375H21.875H28.0762H28.125V39.5625V39.6113C28.1313 40.1488 28.2414 40.6422 28.418 41.125H10.9375C10.0531 41.125 9.375 40.4469 9.375 39.5625V36.4375Z" fill="white"/>
</svg>
