<svg width="28" height="28" viewBox="0 0 28 28" fill="none" xmlns="http://www.w3.org/2000/svg">
<path d="M14 2.625C13.0327 2.625 12.25 3.40771 12.25 4.375C12.25 4.4502 12.2671 4.52197 12.2773 4.59375C9.25244 5.36621 7 8.11426 7 11.375V19.25C7 19.7456 6.62061 20.125 6.125 20.125H5.25V21.875H11.5391C11.4399 22.1519 11.375 22.4424 11.375 22.75C11.375 24.189 12.561 25.375 14 25.375C15.439 25.375 16.625 24.189 16.625 22.75C16.625 22.4424 16.5601 22.1519 16.4609 21.875H22.75V20.125H21.875C21.3794 20.125 21 19.7456 21 19.25V11.6211C21 8.33301 18.8022 5.40039 15.7227 4.59375C15.7329 4.52197 15.75 4.4502 15.75 4.375C15.75 3.40771 14.9673 2.625 14 2.625ZM13.6172 6.125C13.7437 6.11475 13.8701 6.125 14 6.125C14.0547 6.125 14.1094 6.125 14.1641 6.125C17.0215 6.21045 19.25 8.71582 19.25 11.6211V19.25C19.25 19.5576 19.3149 19.8481 19.4141 20.125H8.58594C8.68506 19.8481 8.75 19.5576 8.75 19.25V11.375C8.75 8.59619 10.8896 6.32324 13.6172 6.125ZM14 21.875C14.4922 21.875 14.875 22.2578 14.875 22.75C14.875 23.2422 14.4922 23.625 14 23.625C13.5078 23.625 13.125 23.2422 13.125 22.75C13.125 22.2578 13.5078 21.875 14 21.875Z" fill="#ffffff"/>
</svg>
