<svg width="24" height="24" viewBox="0 0 24 24" fill="none"
  xmlns="http://www.w3.org/2000/svg">
  <path d="M12 2.25C6.62402 2.25 2.25 6.62402 2.25 12C2.25 17.376 6.62402 21.75 12 21.75C17.376 21.75 21.75 17.376 21.75 12C21.75 6.62402 17.376 2.25 12 2.25ZM12 3.75C16.5645 3.75 20.25 7.43555 20.25 12C20.25 16.5645 16.5645 20.25 12 20.25C7.43555 20.25 3.75 16.5645 3.75 12C3.75 7.43555 7.43555 3.75 12 3.75ZM9.16406 8.08594L8.08594 9.16406L10.9219 12L8.08594 14.8359L9.16406 15.9141L12 13.0781L14.8359 15.9141L15.9141 14.8359L13.0781 12L15.9141 9.16406L14.8359 8.08594L12 10.9219L9.16406 8.08594Z" fill="#ffffff" />
</svg>
