<svg width="32" height="32" viewBox="0 0 32 32" fill="none" xmlns="http://www.w3.org/2000/svg">
<path d="M15 4C14.4766 4 13.9414 4.18359 13.5625 4.5625C13.1836 4.94141 13 5.47656 13 6V7H7V9H8V25C8 26.6445 9.35547 28 11 28H23C24.6445 28 26 26.6445 26 25V9H27V7H21V6C21 5.47656 20.8164 4.94141 20.4375 4.5625C20.0586 4.18359 19.5234 4 19 4H15ZM15 6H19V7H15V6ZM10 9H24V25C24 25.5547 23.5547 26 23 26H11C10.4453 26 10 25.5547 10 25V9ZM12 12V23H14V12H12ZM16 12V23H18V12H16ZM20 12V23H22V12H20Z" fill="white"/>
</svg>
