<svg width="20" height="20" viewBox="0 0 20 20" fill="none" xmlns="http://www.w3.org/2000/svg">
<path d="M9.99976 3.125C8.23664 3.125 6.73935 4.1416 6.04346 5.625H5.99951L5.90674 5.95215C5.86555 6.06262 5.82804 6.1744 5.79565 6.28906C5.79165 6.30145 5.78606 6.31322 5.78223 6.32568L3.49951 4.49951L2.75 5.50049L4.43701 6.875H2.49976V8.125H5.66626C5.69219 8.32429 5.73355 8.51851 5.79321 8.70483C5.82602 8.82165 5.8648 8.93537 5.90674 9.04785L5.99951 9.375H6.04346C6.37857 10.0893 6.89569 10.6971 7.5437 11.1328C5.31851 12.0921 3.74976 14.3085 3.74976 16.875H4.99976C4.99976 14.125 7.24976 11.875 9.99976 11.875C12.7498 11.875 14.9998 14.125 14.9998 16.875H16.2498C16.2498 14.3083 14.6813 12.0907 12.4558 11.1316C13.1032 10.6959 13.6212 10.0888 13.9561 9.375H14L14.0183 9.24438C14.2471 8.71105 14.3748 8.12249 14.3748 7.5C14.3748 5.0625 12.4373 3.125 9.99976 3.125ZM9.99976 4.375C11.0379 4.375 11.9355 4.86603 12.501 5.625H7.49854C8.06398 4.86603 8.96164 4.375 9.99976 4.375ZM6.93701 6.875H13.0625C13.069 6.89439 13.0683 6.91911 13.0735 6.9397C13.1053 7.12131 13.1248 7.30804 13.1248 7.5C13.1248 7.69196 13.1053 7.87869 13.0735 8.0603C13.0683 8.08089 13.069 8.10561 13.0625 8.125H6.93701C6.93055 8.10561 6.93122 8.08089 6.92603 8.0603C6.89426 7.87869 6.87476 7.69196 6.87476 7.5C6.87476 7.30804 6.89426 7.12131 6.92603 6.9397C6.93122 6.91911 6.93055 6.89439 6.93701 6.875ZM7.49854 9.375H12.501C11.9355 10.134 11.0379 10.625 9.99976 10.625C8.96164 10.625 8.06398 10.134 7.49854 9.375Z" fill="#ffffff"/>
</svg>
