<svg width="50" height="50" viewBox="0 0 50 50" fill="none" xmlns="http://www.w3.org/2000/svg">
  <path
    d="M37.5 25C37.5 31.9036 31.9036 37.5 25 37.5C18.0964 37.5 12.5 31.9036 12.5 25C12.5 18.0964 18.0964 12.5 25 12.5C31.9036 12.5 37.5 18.0964 37.5 25Z"
    fill="white" />
  <path fill-rule="evenodd" clip-rule="evenodd"
    d="M0 25C0 11.1917 11.1917 0 25 0C38.8083 0 50 11.1917 50 25C50 38.8083 38.8083 50 25 50C11.1917 50 0 38.8083 0 25ZM45.4542 25C45.4542 13.7208 36.2792 4.54583 25 4.54583C13.7208 4.54583 4.54583 13.7208 4.54583 25C4.54583 36.2792 13.7208 45.4542 25 45.4542C36.2792 45.4542 45.4542 36.2792 45.4542 25Z"
    fill="white" />
</svg>