<svg width="24" height="24" viewBox="0 0 24 24" fill="none"
  xmlns="http://www.w3.org/2000/svg">
  <path d="M19.3563 13.5652C20.0045 13.5652 20.53 13.0397 20.53 12.3913C20.53 11.743 20.0045 11.2174 19.3563 11.2174C18.7078 11.2174 18.1823 11.743 18.1823 12.3913C18.1823 13.0397 18.7078 13.5652 19.3563 13.5652Z" fill="white"/>
  <path fill-rule="evenodd" clip-rule="evenodd" d="M21.3126 8.47824H19.8148C18.4441 5.25787 15.2507 3 11.53 3C7.78552 3 4.57532 5.28653 3.21924 8.53949C3.44446 8.49925 3.67627 8.47824 3.91284 8.47824C4.11792 8.47824 4.3197 8.49403 4.51636 8.52448C5.79626 5.94608 8.45605 4.17393 11.53 4.17393C14.5857 4.17393 17.2319 5.92493 18.521 8.47824H13.4867C12.6221 8.47824 11.9215 9.17903 11.9215 10.0435V14.7391C11.9215 15.6036 12.6221 16.3044 13.4867 16.3044L18.0673 16.3043C16.6672 18.4261 14.2623 19.8261 11.53 19.8261C8.74316 19.8261 6.29651 18.3695 4.91003 16.1761C4.5918 16.2598 4.25745 16.3043 3.91284 16.3043C3.8136 16.3043 3.71545 16.3006 3.61804 16.2934C5.14258 19.097 8.11401 21 11.53 21C14.9413 21 17.9094 19.102 19.4358 16.3043L21.3126 16.3044C22.1772 16.3044 22.8778 15.6036 22.8778 14.7391V10.0435C22.8778 9.17903 22.1772 8.47824 21.3126 8.47824ZM21.3126 9.65218H13.4867C13.2703 9.65218 13.0952 9.82736 13.0952 10.0435V14.7391C13.0952 14.8631 13.1527 14.9736 13.2424 15.0453C13.3094 15.0986 13.3944 15.1304 13.4867 15.1304H21.3126C21.4214 15.1304 21.5195 15.0862 21.5906 15.0146C21.6609 14.9439 21.7041 14.8466 21.7041 14.7391V10.0435C21.7041 9.9278 21.6539 9.82388 21.5741 9.75224C21.5404 9.72194 21.5012 9.6974 21.4584 9.68019C21.4133 9.66211 21.3639 9.65218 21.3126 9.65218Z" fill="white"/>
  <path fill-rule="evenodd" clip-rule="evenodd" d="M3.91303 15.1806C5.45282 15.1806 6.70106 13.9323 6.70106 12.3925C6.70106 10.8527 5.45282 9.60449 3.91303 9.60449C2.37324 9.60449 1.125 10.8527 1.125 12.3925C1.125 13.9323 2.37324 15.1806 3.91303 15.1806ZM3.91303 16.3056C6.07414 16.3056 7.82606 14.5536 7.82606 12.3925C7.82606 10.2314 6.07414 8.47949 3.91303 8.47949C1.75192 8.47949 0 10.2314 0 12.3925C0 14.5536 1.75192 16.3056 3.91303 16.3056Z" fill="white"/>
</svg>
