<svg width="21" height="21" viewBox="0 0 21 21" fill="none"
  xmlns="http://www.w3.org/2000/svg">
  <path d="M5.47314 4.08447C4.61865 4.08447 3.91064 4.79248 3.91064 5.64697V16.272C3.91064 17.1265 4.61865 17.8345 5.47314 17.8345H16.0981C16.9526 17.8345 17.6606 17.1265 17.6606 16.272V5.64697C17.6606 4.79248 16.9526 4.08447 16.0981 4.08447H5.47314ZM5.47314 5.33447H16.0981C16.2764 5.33447 16.4106 5.46875 16.4106 5.64697V16.272C16.4106 16.4502 16.2764 16.5845 16.0981 16.5845H5.47314C5.29492 16.5845 5.16064 16.4502 5.16064 16.272V5.64697C5.16064 5.46875 5.29492 5.33447 5.47314 5.33447ZM7.30908 6.40869C6.71582 6.40869 6.23486 6.88965 6.23486 7.48291C6.23486 8.07617 6.71582 8.55713 7.30908 8.55713C7.90234 8.55713 8.3833 8.07617 8.3833 7.48291C8.3833 6.88965 7.90234 6.40869 7.30908 6.40869ZM12.9536 9.26025C12.0576 9.26025 11.4619 9.75098 11.2153 10.2173H11.1763V9.39697H9.41846V15.3345H11.2544V12.4048C11.2544 11.6309 11.4082 10.8813 12.3677 10.8813C13.3125 10.8813 13.3247 11.7554 13.3247 12.4438V15.3345H15.1606V12.0728C15.1606 10.4761 14.8213 9.26025 12.9536 9.26025ZM6.41064 9.39697V15.3345H8.26611V9.39697H6.41064Z" fill="black"/>
</svg>
