<svg width="50" height="51" viewBox="0 0 50 51" fill="none" xmlns="http://www.w3.org/2000/svg">
<path d="M8.33301 9.875H41.6663C42.4951 9.875 43.29 10.2042 43.876 10.7903C44.4621 11.3763 44.7913 12.1712 44.7913 13V36.9583H5.20801V13C5.20801 12.1712 5.53725 11.3763 6.1233 10.7903C6.70935 10.2042 7.50421 9.875 8.33301 9.875V9.875Z" stroke="white" stroke-width="1.5" stroke-linecap="round" stroke-linejoin="round"/>
<path d="M30.2082 36.9583L29.1665 38H20.8332L19.7915 36.9583H1.0415V38C1.0415 38.8288 1.37074 39.6236 1.9568 40.2097C2.54285 40.7957 3.3377 41.125 4.1665 41.125H45.8332C46.662 41.125 47.4568 40.7957 48.0429 40.2097C48.6289 39.6236 48.9582 38.8288 48.9582 38V36.9583H30.2082Z" stroke="white" stroke-width="1.5" stroke-linecap="round" stroke-linejoin="round"/>
</svg>
