<svg width="32" height="32" viewBox="0 0 32 32" fill="none" xmlns="http://www.w3.org/2000/svg">
<path d="M16.0002 3.96875C14.9455 3.96875 13.883 4.48437 13.2502 5.46875L10.4377 10.0938L12.1564 11.125L14.9689 6.53125C15.508 5.72656 16.5314 5.70703 17.0627 6.53125L20.1877 11.5312L18.6877 12.4062L23.3127 15V9.6875L21.8752 10.5312L18.7502 5.46875C18.1174 4.48437 17.0549 3.96875 16.0002 3.96875ZM10.4064 12.0938L5.90645 14.6875L7.15644 15.4375L4.59395 19.6562L4.5627 19.625C4.55098 19.6445 4.57441 19.668 4.5627 19.6875C3.09004 21.918 4.78926 25 7.50019 25H13.0002V23H7.50019C6.23457 23 5.55488 21.75 6.21895 20.7812L6.2502 20.75V20.7188L8.87519 16.4688L10.4064 17.4062L10.4064 12.0938ZM25.0627 15.6562L23.3439 16.7188L25.8439 20.7187C26.4846 21.8086 25.758 23 24.5939 23H19.0002V21L14.0939 24L19.0002 27L19.0002 25H24.5939C27.2307 25 28.9221 22 27.5627 19.6875V19.6562L25.0627 15.6562Z" fill="black"/>
</svg>
