<svg width="44" height="32" viewBox="0 0 44 32" fill="none" xmlns="http://www.w3.org/2000/svg">
  <path
    d="M4.8125 0.25V21.4414L1.24805 25.0547C0.540039 25.7627 0.125 26.7393 0.125 27.7402C0.125 29.8032 1.82178 31.5 3.88477 31.5H40.1152C42.1782 31.5 43.875 29.8032 43.875 27.7402C43.875 26.7393 43.46 25.7627 42.752 25.0547L39.1875 21.4414V0.25H4.8125ZM7.9375 3.375H36.0625V20.5625H7.9375V3.375ZM7.05859 23.6875H36.9414L40.5547 27.252C40.6768 27.374 40.75 27.5693 40.75 27.7402C40.75 28.1187 40.4937 28.375 40.1152 28.375H3.88477C3.50635 28.375 3.25 28.1187 3.25 27.7402C3.25 27.5693 3.32324 27.374 3.44531 27.252L7.05859 23.6875Z"
    fill="white" />
</svg>