<svg width="19" height="18" viewBox="0 0 19 18" fill="none" xmlns="http://www.w3.org/2000/svg">
<path d="M5.54093 2.8125L5.41522 3.18164L4.30184 6.1875H4.28388V6.22266L3.74514 7.68164L3.70923 7.76953V8.4375H4.85853V7.96289L5.09198 7.3125H6.92368L7.15713 7.96289V8.4375H8.30643V7.76953L8.27051 7.68164L7.73178 6.22266V6.1875H7.71382L6.60044 3.18164L6.47473 2.8125H5.54093ZM13.4783 2.8125V13.3242L11.9878 11.8652L11.1797 12.6562L13.6399 15.082L14.0529 15.4688L14.466 15.082L16.9262 12.6562L16.1181 11.8652L14.6276 13.3242V2.8125H13.4783ZM6.00783 4.86914L6.49269 6.1875H5.52297L6.00783 4.86914ZM3.70923 9.5625V10.6875H6.90572L3.87085 13.6582L3.70923 13.834V15.1875H8.30643V14.0625H5.10994L8.14481 11.0918L8.30643 10.916V9.5625H3.70923Z" fill="#FFFFFF"/>
</svg>
