<svg width="38" height="39" viewBox="0 0 38 39" fill="none"
  xmlns="http://www.w3.org/2000/svg">
  <path d="M27.9118 25.0013C28.5784 25.0013 29.1189 24.4608 29.1189 23.7942V10.7265V10.7265C29.1042 10.0661 28.5723 9.53417 27.9118 9.5195V9.5195L14.8441 9.5195C14.1775 9.5195 13.6371 10.0599 13.6371 10.7265V10.7265C13.6371 11.3932 14.1775 11.9336 14.8441 11.9336L25.0254 11.9336L9.01879 27.9402C8.55504 28.4039 8.55504 29.1558 9.01879 29.6196V29.6196C9.48254 30.0833 10.2344 30.0833 10.6982 29.6196L26.7047 13.613L26.7047 23.7942C26.7047 24.4608 27.2452 25.0013 27.9118 25.0013V25.0013Z" fill="url(#paint0_linear_1_3851)"/>
  <path d="M27.9118 25.0013C28.5784 25.0013 29.1189 24.4608 29.1189 23.7942V10.7265V10.7265C29.1042 10.0661 28.5723 9.53417 27.9118 9.5195V9.5195L14.8441 9.5195C14.1775 9.5195 13.6371 10.0599 13.6371 10.7265V10.7265C13.6371 11.3932 14.1775 11.9336 14.8441 11.9336L25.0254 11.9336L9.01879 27.9402C8.55504 28.4039 8.55504 29.1558 9.01879 29.6196V29.6196C9.48254 30.0833 10.2344 30.0833 10.6982 29.6196L26.7047 13.613L26.7047 23.7942C26.7047 24.4608 27.2452 25.0013 27.9118 25.0013V25.0013Z" fill="url(#paint1_radial_1_3851)" fill-opacity="0.3"/>
  <defs>
    <linearGradient id="paint0_linear_1_3851" x1="26.7966" y1="27.3235" x2="11.3148" y2="11.8418" gradientUnits="userSpaceOnUse">
      <stop stop-color="#00D2FF" stop-opacity="0.8"/>
      <stop offset="1" stop-color="#00D2FF"/>
    </linearGradient>
    <radialGradient id="paint1_radial_1_3851" cx="0" cy="0" r="1" gradientUnits="userSpaceOnUse" gradientTransform="translate(-5.38385 21.5736) rotate(-4.34129) scale(41.1645 40.9287)">
      <stop stop-color="white"/>
      <stop offset="1" stop-color="white" stop-opacity="0"/>
    </radialGradient>
  </defs>
</svg>
