<svg width="50" height="51" viewBox="0 0 50 51" fill="none" xmlns="http://www.w3.org/2000/svg">
<path d="M33.5938 6.75C30.7781 6.75 28.1576 7.88357 26.2451 9.90857L13.4949 22.6497C10.8386 25.3043 9.375 28.8345 9.375 32.5923V34.875L12.5427 31.7073C12.749 29.1198 13.8497 26.7138 15.7043 24.8591L28.4851 12.0845C29.832 10.6579 31.6469 9.875 33.5938 9.875C37.4703 9.875 40.625 13.0297 40.625 16.9062C40.625 18.8531 39.8413 20.6657 38.382 22.0454L35.2081 25.2223L29.6875 27.0625H33.3679L27.4017 33.0317L21.875 34.875H25.5524C23.4967 36.8874 20.7897 38 17.9077 38H14.7095L29.2297 23.4797L27.0203 21.2703L6.25 42.0405L8.45947 44.25L11.5845 41.125H17.9077C21.664 41.125 25.1957 39.6629 27.8503 37.0051L40.5579 24.2854C42.6172 22.3417 43.75 19.7219 43.75 16.9062C43.75 11.3062 39.1938 6.75 33.5938 6.75Z" fill="white"/>
</svg>
