<svg width="50" height="51" viewBox="0 0 50 51" fill="none"
  xmlns="http://www.w3.org/2000/svg">
  <path d="M26.5625 6.11523L23.877 8.75195L14.9414 17.6875H7.8125V33.3125H14.9414L23.877 42.248L26.5625 44.8848V6.11523ZM37.207 13.293L35.0098 15.4902C40.509 20.9895 40.509 29.8152 35.0098 35.3145L37.207 37.5605C43.8965 30.8711 43.8965 19.9824 37.207 13.293ZM23.4375 13.6836V37.3164L16.748 30.627L16.2598 30.1875H10.9375V20.8125H16.2598L16.748 20.373L23.4375 13.6836ZM32.666 17.834L30.4688 20.0312C33.4534 23.0159 33.4412 27.9597 30.4199 31.1152L32.7148 33.3125C36.8774 28.9668 36.8652 22.0332 32.666 17.834Z" fill="white"/>
</svg>
