<svg width="50" height="50" viewBox="0 0 50 50" fill="none" xmlns="http://www.w3.org/2000/svg">
  <path
    d="M9.35807 36.8258L14.2816 32.0244C16.8939 35.5075 20.0677 37.3955 24.5843 37.5094C27.0664 37.5664 29.4915 36.9398 31.6156 35.6865C32.0306 36.1178 33.1211 37.2734 33.3164 37.4769C30.696 39.1615 27.6523 40.0078 24.5192 39.9346C20.9954 39.8451 17.6344 38.5755 14.9408 36.3213C14.9652 36.2725 11.832 39.373 11.7995 39.4056C12.5726 41.8307 10.7334 44.4837 8.03158 44.4837C5.85059 44.4756 4.16602 42.7178 4.16602 40.5368C4.16602 37.7454 6.8597 35.9307 9.35807 36.8258V36.8258ZM38.2399 16.2855C39.7943 18.8327 40.6488 21.7705 40.5755 24.749C40.486 28.3949 39.0293 31.8698 36.6204 34.596C36.6449 34.6204 38.5573 36.6468 38.5817 36.6712C39.363 36.5654 40.1442 36.834 40.6894 37.4118C41.609 38.3883 41.5765 39.9264 40.5999 40.8623C39.6234 41.7819 38.0853 41.7493 37.1494 40.7728C36.6042 40.2031 36.3844 39.4056 36.5309 38.6325C34.5046 36.4678 32.9176 34.7913 32.9176 34.7913C36.3926 32.0163 38.069 28.3135 38.1585 24.6839C38.2155 22.332 37.5726 20.029 36.4414 17.9945L38.2399 16.2855V16.2855ZM12.6296 7.83822C13.1748 8.40788 13.3945 9.2054 13.248 9.97852L16.9834 13.8929C16.6009 14.2021 15.901 14.7393 15.1279 15.6263C13.0609 17.9456 11.9053 20.8997 11.8158 24.0003C11.7588 26.3522 12.3122 28.6553 13.4434 30.7061L11.653 32.4557C10.0824 29.8841 9.30111 26.9463 9.39062 23.9352C9.472 20.3057 10.8799 16.8063 13.2562 14.0801L11.1973 11.9316C10.416 12.0374 9.63477 11.7689 9.08952 11.1911C8.16992 10.2145 8.20247 8.67643 9.17904 7.74056C10.1475 6.8291 11.6693 6.85352 12.6296 7.83822ZM41.9997 4.16797C44.1156 4.16797 45.8327 5.99089 45.8327 8.09863C45.8327 10.2064 44.1156 11.9805 41.9997 11.9805C41.487 11.9886 40.8603 11.891 40.7057 11.834L35.5869 16.6924C32.9258 13.1442 29.3451 11.3294 25.2598 11.2236C22.7777 11.1667 20.3525 11.777 18.2448 13.0465L16.5277 11.2562C19.1481 9.56348 22.1917 8.72526 25.3249 8.7985C28.8486 8.88802 32.2096 10.1576 34.9033 12.4281L38.248 9.28678C38.126 8.9043 38.069 8.50553 38.069 8.10677C38.0609 5.93392 39.8838 4.16797 41.9997 4.16797ZM25.0563 12.7454C25.5039 12.7454 25.9434 12.778 26.3909 12.835C32.7467 13.6325 37.2471 19.4349 36.4658 25.7826C35.6683 32.1383 29.8659 36.6387 23.5182 35.8574C17.1624 35.0599 12.6621 29.2575 13.4434 22.9017C14.2002 17.0098 19.1481 12.7617 25.0563 12.7454V12.7454ZM20.2549 22.4622C20.3037 24.3096 21.2477 25.8639 22.8916 26.7103L21.9964 30.9176H27.9941L27.099 26.7103C28.7347 25.8232 29.7113 24.3503 29.7357 22.4622C29.7031 19.793 27.6361 17.7829 24.9912 17.7178C22.3789 17.7829 20.3281 19.736 20.2549 22.4622Z"
    fill="white" />
</svg>