<svg width="21" height="21" viewBox="0 0 21 21" fill="none"
  xmlns="http://www.w3.org/2000/svg">
  <path d="M11.8209 2.83444C11.6451 2.81979 11.4498 2.85397 11.274 2.91256C10.5684 3.14938 10.1973 3.90622 10.4341 4.61178L11.0006 6.27194L7.79743 7.34616L7.27009 5.74459C7.03327 5.03903 6.27643 4.66793 5.57087 4.90475C4.86286 5.14157 4.47468 5.8984 4.71149 6.60397L5.23884 8.186L3.57868 8.75241C2.87311 8.98922 2.50202 9.76559 2.73884 10.4712C2.97565 11.1767 3.73249 11.5478 4.43806 11.311L6.09821 10.7641L7.17243 13.9477L5.57087 14.4751C4.8653 14.7119 4.49421 15.4687 4.73102 16.1743C4.96784 16.8823 5.72468 17.2705 6.43024 17.0337L8.01227 16.5063L8.57868 18.1665C8.8155 18.872 9.59186 19.2431 10.2974 19.0063C11.003 18.7695 11.3741 18.0127 11.1373 17.3071L10.5904 15.6469L13.774 14.5727L14.3013 16.1743C14.5382 16.8798 15.295 17.2509 16.0006 17.0141C16.7086 16.7773 17.0967 16.0205 16.8599 15.3149L16.3326 13.7329L17.9927 13.1665C18.6983 12.9297 19.0694 12.1533 18.8326 11.4477C18.5958 10.7422 17.8389 10.3711 17.1334 10.6079L15.4732 11.1548L14.399 7.97116L16.0006 7.44381C16.7061 7.207 17.0772 6.45016 16.8404 5.74459C16.6036 5.03903 15.8467 4.6484 15.1412 4.88522L13.5591 5.41256L12.9927 3.75241C12.8145 3.22262 12.3458 2.87594 11.8209 2.83444ZM11.8404 8.83053L12.9146 12.0141L9.73102 13.0883L8.65681 9.90475L11.8404 8.83053Z" fill="black"/>
</svg>
