<svg width="50" height="51" viewBox="0 0 50 51" fill="none" xmlns="http://www.w3.org/2000/svg">
  <path
    d="M14.5907 23.3744L6.34473 35.4263C6.1041 35.8128 6.35254 36.3153 6.808 36.3648L23.0781 38.071L14.5907 23.3744V23.3744ZM6.82987 31.134L12.7118 21.6751L6.72441 18.1204C6.51582 17.9967 6.25098 18.1451 6.25098 18.3856V30.9724C6.25098 31.284 6.66425 31.3999 6.82987 31.134ZM7.67674 39.4966L22.864 46.2737C23.2781 46.4631 23.7507 46.1631 23.7507 45.7124V40.6354L7.84861 38.9114C7.50096 38.8728 7.3619 39.3436 7.67674 39.4966V39.4966ZM14.022 19.5676L20.2664 8.5169C20.6055 7.97109 19.9859 7.33792 19.4242 7.65567L7.64236 15.2792C7.4494 15.4045 7.45565 15.6859 7.65252 15.8034L14.022 19.5676V19.5676ZM25.0007 20.3546H33.5326L26.0655 7.33715C25.821 6.94441 25.4109 6.74805 25.0007 6.74805C24.5906 6.74805 24.1804 6.94441 23.9359 7.33715L16.4688 20.3546H25.0007ZM43.277 18.1204L37.2896 21.6759L43.1715 31.1348C43.3364 31.4007 43.7504 31.2848 43.7504 30.9724V18.3856C43.7504 18.1451 43.4856 17.9967 43.277 18.1204V18.1204ZM35.9795 19.5676L42.3489 15.8026C42.5465 15.6851 42.552 15.4037 42.359 15.2785L30.5772 7.65567C30.0155 7.33792 29.396 7.97109 29.735 8.5169L35.9795 19.5676ZM42.1528 38.9114L26.2507 40.6347V45.7116C26.2507 46.1631 26.7233 46.4623 27.1374 46.2729L42.3247 39.4959C42.6395 39.3436 42.5005 38.8728 42.1528 38.9114V38.9114ZM35.4107 23.3744L26.9241 38.071L43.1942 36.3648C43.6497 36.3146 43.8981 35.8128 43.6575 35.4263L35.4107 23.3744V23.3744ZM25.0007 22.8286H17.1547L25.0007 36.4158L32.8467 22.8286H25.0007Z"
    fill="white" />
</svg>