<svg width="50" height="51" viewBox="0 0 50 51" fill="none" xmlns="http://www.w3.org/2000/svg">
<path d="M32.8125 6.75C30.011 6.75 27.4719 7.2749 25.4883 8.26367C23.5046 9.25244 21.875 10.8638 21.875 13V19.25C21.875 19.4514 21.9421 19.6467 21.9727 19.8359C20.52 19.4575 18.9087 19.25 17.1875 19.25C14.386 19.25 11.8469 19.7749 9.86328 20.7637C7.87964 21.7524 6.25 23.3638 6.25 25.5V38C6.25 40.1362 7.87964 41.7476 9.86328 42.7363C11.8469 43.7251 14.386 44.25 17.1875 44.25C19.989 44.25 22.5281 43.7251 24.5117 42.7363C26.4954 41.7476 28.125 40.1362 28.125 38V37.3652C29.5593 37.7437 31.1279 38 32.8125 38C35.614 38 38.1531 37.4751 40.1367 36.4863C42.1204 35.4976 43.75 33.8862 43.75 31.75V13C43.75 10.8638 42.1204 9.25244 40.1367 8.26367C38.1531 7.2749 35.614 6.75 32.8125 6.75ZM32.8125 9.875C35.1929 9.875 37.3108 10.3877 38.7207 11.0957C40.1306 11.8037 40.625 12.5483 40.625 13C40.625 13.4517 40.1306 14.1963 38.7207 14.9043C37.3108 15.6123 35.1929 16.125 32.8125 16.125C30.4321 16.125 28.3142 15.6123 26.9043 14.9043C25.4944 14.1963 25 13.4517 25 13C25 12.5483 25.4944 11.8037 26.9043 11.0957C28.3142 10.3877 30.4321 9.875 32.8125 9.875ZM25 17.4434C25.1648 17.5349 25.3174 17.6509 25.4883 17.7363C27.4719 18.7251 30.011 19.25 32.8125 19.25C35.614 19.25 38.1531 18.7251 40.1367 17.7363C40.3076 17.6509 40.4602 17.5349 40.625 17.4434V19.25C40.625 19.7017 40.1306 20.4463 38.7207 21.1543C37.3108 21.8623 35.1929 22.375 32.8125 22.375C30.4321 22.375 28.3142 21.8623 26.9043 21.1543C25.4944 20.4463 25 19.7017 25 19.25V17.4434ZM17.1875 22.375C19.5679 22.375 21.6858 22.8877 23.0957 23.5957C24.5056 24.3037 25 25.0483 25 25.5C25 25.9517 24.5056 26.6963 23.0957 27.4043C21.6858 28.1123 19.5679 28.625 17.1875 28.625C14.8071 28.625 12.6892 28.1123 11.2793 27.4043C9.86938 26.6963 9.375 25.9517 9.375 25.5C9.375 25.0483 9.86938 24.3037 11.2793 23.5957C12.6892 22.8877 14.8071 22.375 17.1875 22.375ZM40.625 23.6934V25.5C40.625 25.9517 40.1306 26.6963 38.7207 27.4043C37.3108 28.1123 35.1929 28.625 32.8125 28.625C31.0364 28.625 29.4312 28.332 28.125 27.8926V25.5C28.125 25.2986 28.0579 25.1033 28.0273 24.9141C29.48 25.2925 31.0913 25.5 32.8125 25.5C35.614 25.5 38.1531 24.9751 40.1367 23.9863C40.3076 23.9009 40.4602 23.7849 40.625 23.6934ZM9.375 29.9434C9.5398 30.0349 9.69238 30.1509 9.86328 30.2363C11.8469 31.2251 14.386 31.75 17.1875 31.75C19.989 31.75 22.5281 31.2251 24.5117 30.2363C24.6826 30.1509 24.8352 30.0349 25 29.9434V31.75C25 32.2017 24.5056 32.9463 23.0957 33.6543C21.6858 34.3623 19.5679 34.875 17.1875 34.875C14.8071 34.875 12.6892 34.3623 11.2793 33.6543C9.86938 32.9463 9.375 32.2017 9.375 31.75V29.9434ZM40.625 29.9434V31.75C40.625 32.2017 40.1306 32.9463 38.7207 33.6543C37.3108 34.3623 35.1929 34.875 32.8125 34.875C31.0364 34.875 29.4312 34.6248 28.125 34.1914V31.1641C29.5593 31.5425 31.1218 31.75 32.8125 31.75C35.614 31.75 38.1531 31.2251 40.1367 30.2363C40.3076 30.1509 40.4602 30.0349 40.625 29.9434ZM9.375 36.1934C9.5398 36.2849 9.69238 36.4009 9.86328 36.4863C11.8469 37.4751 14.386 38 17.1875 38C19.989 38 22.5281 37.4751 24.5117 36.4863C24.6826 36.4009 24.8352 36.2849 25 36.1934V38C25 38.4517 24.5056 39.1963 23.0957 39.9043C21.6858 40.6123 19.5679 41.125 17.1875 41.125C14.8071 41.125 12.6892 40.6123 11.2793 39.9043C9.86938 39.1963 9.375 38.4517 9.375 38V36.1934Z" fill="white"/>
</svg>
