<svg width="50" height="51" viewBox="0 0 50 51" fill="none" xmlns="http://www.w3.org/2000/svg">
<g clip-path="url(#clip0_14678_224902)">
<path d="M16.7388 32.6562L7.39905 41.996C6.43828 41.3123 5.25568 41.0145 4.0857 41.1618C2.91571 41.309 1.84375 41.8905 1.08233 42.7909C0.320907 43.6913 -0.0743911 44.845 -0.0252007 46.0232C0.0239898 47.2014 0.514078 48.3181 1.34791 49.1519C2.18174 49.9857 3.29843 50.4758 4.47662 50.525C5.65481 50.5742 6.80847 50.1789 7.7089 49.4175C8.60934 48.6561 9.1908 47.5841 9.33803 46.4141C9.48526 45.2441 9.1875 44.0615 8.50379 43.1008L17.8436 33.761C17.4497 33.4193 17.0805 33.0501 16.7388 32.6562ZM4.6873 48.9375C4.06923 48.9375 3.46505 48.7542 2.95114 48.4108C2.43724 48.0675 2.0367 47.5794 1.80018 47.0084C1.56365 46.4374 1.50177 45.809 1.62235 45.2029C1.74292 44.5967 2.04055 44.0398 2.47759 43.6028C2.91463 43.1658 3.47145 42.8681 4.07764 42.7476C4.68383 42.627 5.31217 42.6889 5.88318 42.9254C6.4542 43.1619 6.94226 43.5624 7.28564 44.0763C7.62902 44.5903 7.8123 45.1944 7.8123 45.8125C7.81135 46.641 7.48181 47.4353 6.89596 48.0212C6.31011 48.607 5.51581 48.9366 4.6873 48.9375ZM45.3123 0.500006C44.4519 0.498633 43.6077 0.734489 42.8726 1.18165C42.1375 1.62882 41.5399 2.26998 41.1455 3.03467C40.7511 3.79937 40.5751 4.658 40.6369 5.51621C40.6987 6.37441 40.9959 7.19897 41.4958 7.89926L32.156 17.239C32.5499 17.5807 32.9191 17.9499 33.2608 18.3438L42.6006 9.00399C43.2016 9.43117 43.895 9.71044 44.6244 9.81909C45.3537 9.92775 46.0984 9.86271 46.7979 9.62927C47.4973 9.39583 48.1318 9.00058 48.6497 8.47568C49.1676 7.95077 49.5543 7.31103 49.7783 6.60849C50.0024 5.90595 50.0574 5.16045 49.939 4.43263C49.8205 3.70481 49.532 3.01522 49.0968 2.41996C48.6616 1.82469 48.092 1.34056 47.4344 1.00694C46.7768 0.673318 46.0497 0.499631 45.3123 0.500006ZM45.3123 8.31251C44.6942 8.31251 44.09 8.12923 43.5761 7.78585C43.0622 7.44247 42.6617 6.95441 42.4252 6.38339C42.1887 5.81237 42.1268 5.18404 42.2473 4.57785C42.3679 3.97166 42.6656 3.41484 43.1026 2.9778C43.5396 2.54076 44.0965 2.24313 44.7026 2.12255C45.3088 2.00197 45.9372 2.06386 46.5082 2.30038C47.0792 2.53691 47.5673 2.93745 47.9106 3.45135C48.254 3.96525 48.4373 4.56944 48.4373 5.18751C48.4364 6.01602 48.1068 6.81032 47.521 7.39617C46.9351 7.98201 46.1408 8.31156 45.3123 8.31251ZM41.7967 38C40.9273 37.9994 40.0784 38.2643 39.3636 38.759L33.2608 32.6562C32.9191 33.0501 32.5499 33.4193 32.156 33.761L38.2588 39.8638C37.7156 40.655 37.4531 41.6055 37.5132 42.5634C37.5733 43.5213 37.9526 44.4315 38.5905 45.1486C39.2284 45.8658 40.0882 46.3485 41.0326 46.5198C41.977 46.6912 42.9516 46.5412 43.8007 46.0938C44.6499 45.6465 45.3247 44.9275 45.7175 44.0518C46.1103 43.176 46.1984 42.1939 45.9677 41.2623C45.737 40.3306 45.2008 39.5031 44.4448 38.9118C43.6888 38.3204 42.7565 37.9995 41.7967 38ZM41.7967 45.0313C41.2559 45.0313 40.7272 44.8709 40.2775 44.5704C39.8279 44.27 39.4774 43.8429 39.2704 43.3433C39.0635 42.8436 39.0093 42.2938 39.1148 41.7634C39.2203 41.233 39.4808 40.7458 39.8632 40.3634C40.2456 39.981 40.7328 39.7206 41.2632 39.615C41.7936 39.5095 42.3434 39.5637 42.8431 39.7706C43.3427 39.9776 43.7698 40.3281 44.0702 40.7777C44.3707 41.2274 44.531 41.7561 44.531 42.2969C44.5302 43.0218 44.2418 43.7168 43.7292 44.2294C43.2166 44.7421 42.5216 45.0304 41.7967 45.0313ZM8.98417 13.7813C9.85357 13.7818 10.7024 13.517 11.4173 13.0222L16.7388 18.3438C17.0805 17.9499 17.4497 17.5807 17.8436 17.239L12.522 11.9175C13.0653 11.1262 13.3278 10.1758 13.2677 9.21786C13.2075 8.25994 12.8282 7.34978 12.1903 6.63265C11.5524 5.91551 10.6926 5.43275 9.74825 5.26143C8.80386 5.0901 7.8293 5.24009 6.98013 5.68744C6.13096 6.13479 5.45612 6.85372 5.06334 7.72948C4.67057 8.60523 4.58249 9.58732 4.81318 10.519C5.04386 11.4507 5.58 12.2782 6.33603 12.8695C7.09205 13.4608 8.02437 13.7818 8.98417 13.7813ZM8.98417 6.75001C9.52498 6.75001 10.0536 6.91037 10.5033 7.21083C10.953 7.51129 11.3034 7.93834 11.5104 8.43798C11.7174 8.93762 11.7715 9.48741 11.666 10.0178C11.5605 10.5482 11.3001 11.0355 10.9177 11.4179C10.5353 11.8003 10.048 12.0607 9.51762 12.1662C8.98721 12.2717 8.43742 12.2176 7.93777 12.0106C7.43813 11.8037 7.01108 11.4532 6.71062 11.0035C6.41017 10.5539 6.2498 10.0252 6.2498 9.48438C6.25064 8.75944 6.539 8.06443 7.05161 7.55182C7.56422 7.03921 8.25923 6.75085 8.98417 6.75001ZM24.2185 9.39385V14.5935C24.4769 14.5752 24.7368 14.5625 24.9998 14.5625C25.2628 14.5625 25.5227 14.5752 25.781 14.5935V9.39385C26.6238 9.20178 27.3662 8.70599 27.8665 8.00118C28.3669 7.29638 28.59 6.43196 28.4934 5.57304C28.3967 4.71413 27.9871 3.92091 27.3426 3.34491C26.6982 2.76892 25.8641 2.45051 24.9998 2.45051C24.1355 2.45051 23.3014 2.76892 22.657 3.34491C22.0125 3.92091 21.6029 4.71413 21.5062 5.57304C21.4096 6.43196 21.6327 7.29638 22.1331 8.00118C22.6334 8.70599 23.3758 9.20178 24.2185 9.39385ZM24.9998 4.01563C25.3861 4.01563 25.7637 4.13018 26.0849 4.34479C26.4061 4.5594 26.6564 4.86444 26.8043 5.22133C26.9521 5.57821 26.9908 5.97092 26.9154 6.34979C26.84 6.72866 26.654 7.07667 26.3809 7.34982C26.1077 7.62297 25.7597 7.80899 25.3808 7.88435C25.002 7.95971 24.6093 7.92104 24.2524 7.77321C23.8955 7.62538 23.5904 7.37504 23.3758 7.05385C23.1612 6.73266 23.0467 6.35505 23.0467 5.96876C23.0473 5.45094 23.2533 4.95451 23.6194 4.58836C23.9856 4.22221 24.482 4.01624 24.9998 4.01563ZM43.7498 21.5938C42.8497 21.5949 41.9776 21.9064 41.2804 22.4757C40.5831 23.0449 40.1035 23.8371 39.9223 24.7188H35.9063C35.9246 24.9771 35.9373 25.2371 35.9373 25.5C35.9373 25.763 35.9246 26.0229 35.9063 26.2813H39.9223C40.0701 27.0055 40.4203 27.6729 40.9323 28.206C41.4443 28.7391 42.097 29.116 42.8147 29.2929C43.5323 29.4698 44.2855 29.4395 44.9866 29.2055C45.6877 28.9714 46.308 28.5433 46.7755 27.9708C47.243 27.3982 47.5384 26.7048 47.6276 25.9711C47.7167 25.2373 47.5958 24.4934 47.2789 23.8256C46.9621 23.1578 46.4623 22.5936 45.8376 22.1986C45.2129 21.8035 44.4889 21.5938 43.7498 21.5938ZM43.7498 27.8438C43.2862 27.8438 42.8331 27.7063 42.4477 27.4488C42.0623 27.1912 41.7619 26.8252 41.5845 26.3969C41.4071 25.9687 41.3606 25.4974 41.4511 25.0428C41.5415 24.5881 41.7647 24.1705 42.0925 23.8427C42.4203 23.5149 42.8379 23.2917 43.2926 23.2013C43.7472 23.1109 44.2184 23.1573 44.6467 23.3347C45.075 23.5121 45.441 23.8125 45.6986 24.1979C45.9561 24.5833 46.0935 25.0365 46.0935 25.5C46.0929 26.1214 45.8457 26.7171 45.4063 27.1565C44.9669 27.5959 44.3712 27.8431 43.7498 27.8438ZM7.03105 28.625C7.72311 28.6237 8.39521 28.393 8.94209 27.9689C9.48896 27.5447 9.87973 26.9512 10.0532 26.2813H14.0933C14.075 26.0229 14.0623 25.763 14.0623 25.5C14.0623 25.2371 14.075 24.9771 14.0933 24.7188H10.0532C9.90679 24.1532 9.60472 23.6401 9.1813 23.2376C8.75788 22.8352 8.23008 22.5595 7.65786 22.442C7.08563 22.3245 6.49192 22.3698 5.94414 22.5727C5.39637 22.7757 4.9165 23.1283 4.55904 23.5903C4.20158 24.0523 3.98085 24.6054 3.92193 25.1865C3.86301 25.7677 3.96826 26.3538 4.22573 26.8782C4.48319 27.4025 4.88255 27.8442 5.37844 28.153C5.87433 28.4618 6.44688 28.6253 7.03105 28.625ZM7.03105 23.9375C7.34008 23.9375 7.64218 24.0291 7.89913 24.2008C8.15608 24.3725 8.35635 24.6166 8.47461 24.9021C8.59287 25.1876 8.62382 25.5017 8.56353 25.8048C8.50324 26.1079 8.35442 26.3863 8.1359 26.6049C7.91738 26.8234 7.63897 26.9722 7.33588 27.0325C7.03278 27.0928 6.71862 27.0618 6.43311 26.9436C6.1476 26.8253 5.90357 26.625 5.73188 26.3681C5.56019 26.1111 5.46855 25.809 5.46855 25.5C5.46899 25.0857 5.63375 24.6886 5.92668 24.3956C6.21961 24.1027 6.61678 23.9379 7.03105 23.9375ZM25.781 41.6062V36.4065C25.5227 36.4248 25.2628 36.4375 24.9998 36.4375C24.7368 36.4375 24.4769 36.4248 24.2185 36.4065V41.6062C23.3758 41.7982 22.6334 42.294 22.1331 42.9988C21.6327 43.7036 21.4096 44.5681 21.5062 45.427C21.6029 46.2859 22.0125 47.0791 22.657 47.6551C23.3014 48.2311 24.1355 48.5495 24.9998 48.5495C25.8641 48.5495 26.6982 48.2311 27.3426 47.6551C27.9871 47.0791 28.3967 46.2859 28.4934 45.427C28.59 44.5681 28.3669 43.7036 27.8665 42.9988C27.3662 42.294 26.6238 41.7982 25.781 41.6062ZM24.9998 46.9844C24.6135 46.9844 24.2359 46.8698 23.9147 46.6552C23.5935 46.4406 23.3432 46.1356 23.1953 45.7787C23.0475 45.4218 23.0088 45.0291 23.0842 44.6502C23.1596 44.2714 23.3456 43.9233 23.6187 43.6502C23.8919 43.377 24.2399 43.191 24.6188 43.1157C24.9976 43.0403 25.3903 43.079 25.7472 43.2268C26.1041 43.3746 26.4092 43.625 26.6238 43.9462C26.8384 44.2673 26.9529 44.645 26.9529 45.0313C26.9523 45.5491 26.7463 46.0455 26.3802 46.4117C26.014 46.7778 25.5176 46.9838 24.9998 46.9844Z" fill="white"/>
<path d="M25 16.125C23.1458 16.125 21.3332 16.6748 19.7915 17.705C18.2498 18.7351 17.0482 20.1993 16.3386 21.9123C15.6291 23.6254 15.4434 25.5104 15.8051 27.329C16.1669 29.1475 17.0598 30.818 18.3709 32.1291C19.682 33.4402 21.3525 34.3331 23.171 34.6949C24.9896 35.0566 26.8746 34.8709 28.5877 34.1614C30.3007 33.4518 31.7649 32.2502 32.795 30.7085C33.8252 29.1668 34.375 27.3542 34.375 25.5C34.3722 23.0145 33.3836 20.6315 31.626 18.874C29.8685 17.1164 27.4855 16.1278 25 16.125ZM25 33.3125C23.4548 33.3125 21.9444 32.8543 20.6596 31.9959C19.3749 31.1374 18.3735 29.9173 17.7822 28.4897C17.1909 27.0622 17.0362 25.4913 17.3376 23.9759C17.6391 22.4604 18.3831 21.0683 19.4757 19.9757C20.5683 18.8831 21.9604 18.1391 23.4759 17.8376C24.9913 17.5362 26.5622 17.6909 27.9897 18.2822C29.4173 18.8735 30.6374 19.8748 31.4959 21.1596C32.3543 22.4444 32.8125 23.9548 32.8125 25.5C32.8102 27.5713 31.9863 29.5571 30.5217 31.0217C29.0571 32.4863 27.0713 33.3102 25 33.3125Z" fill="white"/>
</g>
<defs>
<clipPath id="clip0_14678_224902">
<rect width="50" height="50" fill="white" transform="translate(0 0.5)"/>
</clipPath>
</defs>
</svg>
