<svg width="18" height="14" viewBox="0 0 18 14" fill="none" xmlns="http://www.w3.org/2000/svg">
  <path
    d="M7.5 0.625C7.20228 0.327284 6.71959 0.327284 6.42187 0.625L0.585938 6.46094V6.46094C0.297534 6.76245 0.297534 7.23755 0.585938 7.53906V7.53906L6.42188 13.375C6.71959 13.6727 7.20228 13.6727 7.5 13.375V13.375C7.79772 13.0773 7.79772 12.5946 7.5 12.2969L2.95312 7.75H17.25C17.6642 7.75 18 7.41421 18 7V7C18 6.58579 17.6642 6.25 17.25 6.25H2.95312L7.5 1.70313C7.79772 1.40541 7.79772 0.922716 7.5 0.625V0.625Z"
    fill="#4A4E50" />
</svg>