<svg width="50" height="50" viewBox="0 0 50 50" fill="none" xmlns="http://www.w3.org/2000/svg">
  <path
    d="M24.9337 8.33203C15.7652 8.33203 8.33301 15.7642 8.33301 24.9327C8.33301 34.1013 15.7652 41.5335 24.9337 41.5335C34.1023 41.5335 41.5344 34.1013 41.5344 24.9327C41.5344 15.7642 34.1023 8.33203 24.9337 8.33203ZM24.9337 37.2494C18.1268 37.2494 12.6171 31.741 12.6171 24.9327C12.6171 18.1258 18.1254 12.6161 24.9337 12.6161C31.7407 12.6161 37.2504 18.1244 37.2504 24.9327C37.2504 31.7397 31.742 37.2494 24.9337 37.2494ZM24.9337 16.3646C20.2019 16.3646 16.3656 20.2009 16.3656 24.9327C16.3656 29.6646 20.2019 33.5009 24.9337 33.5009C29.6656 33.5009 33.5018 29.6646 33.5018 24.9327C33.5018 20.2009 29.6656 16.3646 24.9337 16.3646ZM24.9337 29.2168C22.5715 29.2168 20.6497 27.295 20.6497 24.9327C20.6497 22.5705 22.5715 20.6487 24.9337 20.6487C27.296 20.6487 29.2178 22.5705 29.2178 24.9327C29.2178 27.295 27.296 29.2168 24.9337 29.2168Z"
    fill="white" />
</svg>