<svg width="50" height="51" viewBox="0 0 50 51" fill="none" xmlns="http://www.w3.org/2000/svg">
<path d="M26.562 6.75V8.60852C26.3354 8.69055 26.1152 8.7908 25.9059 8.90454C25.4872 9.13202 25.1075 9.41962 24.7767 9.75598C24.4459 10.0923 24.1642 10.476 23.9467 10.8973C23.6204 11.5293 23.437 12.2441 23.437 13C23.437 13.3203 23.4716 13.6335 23.5347 13.9369C23.6609 14.5436 23.9066 15.11 24.2457 15.6093C24.4153 15.8589 24.6066 16.0922 24.8195 16.3051C25.0323 16.5179 25.2656 16.7092 25.5153 16.8788C26.2642 17.3875 27.1636 17.6875 28.1245 17.6875C28.3472 17.6875 28.5558 17.7296 28.744 17.8065C28.9323 17.8834 29.0988 17.9965 29.2384 18.1361C29.3781 18.2758 29.4911 18.4423 29.568 18.6305C29.6449 18.8187 29.687 19.0273 29.687 19.25C29.687 19.918 29.3087 20.4628 28.744 20.6935C28.5558 20.7704 28.3472 20.8125 28.1245 20.8125C27.9019 20.8125 27.6932 20.7704 27.505 20.6935C27.3168 20.6166 27.1503 20.5035 27.0106 20.3639C26.871 20.2242 26.7579 20.0577 26.681 19.8695C26.6041 19.6813 26.562 19.4727 26.562 19.25H23.437C23.437 19.502 23.4586 19.7504 23.498 19.9916C23.5375 20.2328 23.5933 20.4661 23.6689 20.6935C23.896 21.3757 24.2805 21.9895 24.7767 22.494C24.9421 22.6622 25.1188 22.8185 25.3077 22.9609C25.4967 23.1034 25.6965 23.2317 25.9059 23.3455C26.1152 23.4592 26.3354 23.5594 26.562 23.6415V25.5H29.687V23.6415C31.4995 22.9852 32.812 21.2656 32.812 19.25C32.812 17.0078 31.1848 15.1019 29.0614 14.6602C28.7581 14.597 28.4448 14.5625 28.1245 14.5625C27.9019 14.5625 27.6932 14.5204 27.505 14.4435C27.3168 14.3666 27.1503 14.2535 27.0106 14.1139C26.871 13.9742 26.7579 13.8077 26.681 13.6195C26.6041 13.4313 26.562 13.2227 26.562 13C26.562 12.7773 26.6041 12.5687 26.681 12.3805C26.7579 12.1923 26.871 12.0258 27.0106 11.8861C27.2899 11.6068 27.6792 11.4375 28.1245 11.4375C29.0151 11.4375 29.687 12.1094 29.687 13H32.812C32.812 12.748 32.7904 12.4996 32.751 12.2584C32.7115 12.0172 32.6558 11.7839 32.5801 11.5565C32.126 10.192 31.0464 9.10071 29.687 8.60852V6.75H26.562ZM16.4302 28.625C14.8192 28.6313 13.592 29.04 13.592 29.04L13.5615 29.0522L4.69922 32.4519L7.7998 41.1555L15.5024 38.2014L26.6536 44.3416L45.9102 36.3643L44.7139 33.4834L26.8428 40.8809L15.7466 34.7712L9.66748 37.0967L8.6665 34.2769L14.5991 32.0002C14.6132 31.994 15.3427 31.75 16.4302 31.75C17.5286 31.75 18.8093 31.9938 19.9031 32.9829L19.9244 32.9951L19.9305 33.0012C21.5415 34.3997 22.7565 35.3768 24.4471 35.9065C26.1378 36.4377 28.0555 36.4988 31.2587 36.4863L31.2434 33.3613C28.0997 33.3738 26.4575 33.2625 25.384 32.9219C24.309 32.5922 23.5466 31.9997 21.9966 30.6575L21.9783 30.6453C20.1705 29.0218 18.0224 28.6187 16.4302 28.625Z" fill="white"/>
</svg>
