<?xml version="1.0" encoding="utf-8"?>
<!-- Generator: Adobe Illustrator 24.0.3, SVG Export Plug-In . SVG Version: 6.00 Build 0)  -->
<svg version="1.1" xmlns="http://www.w3.org/2000/svg" xmlns:xlink="http://www.w3.org/1999/xlink" x="0px" y="0px"
	 viewBox="0 0 230.4 300.8" style="enable-background:new 0 0 230.4 300.8;" xml:space="preserve" height="40px">
<style type="text/css">
	.st0{fill-rule:evenodd;clip-rule:evenodd;}
	.st1{fill:#FFFFFF;}
	.st2{fill-rule:evenodd;clip-rule:evenodd;fill:#4D4D4D;}
</style>
<g id="Layer_1">
</g>
<g id="penta">
	<g>
		
			<ellipse transform="matrix(0.1881 -0.9822 0.9822 0.1881 259.3997 682.8879)" class="st0" cx="542.7" cy="184.6" rx="139.4" ry="139.4"/>
		<g>
			<path class="st1" d="M115,230.8c0-10.7,1.8-20.3,5.4-28.9c3.6-8.6,8.4-16,14.5-22.1c6.1-6.1,13.2-10.8,21.4-14.1
				c8.2-3.3,16.8-4.9,26-4.9c7.3,0,13.7,0.7,19.4,2.2c5.7,1.5,10.5,3.1,14.6,5c4.7,2.1,8.8,4.5,12.2,7l-20.1,37
				c-2-1.6-4.3-3.1-6.7-4.6c-2.2-1.1-4.7-2.1-7.7-3.1c-3-1-6.4-1.5-10.2-1.5c-4,0-7.6,0.7-10.9,2.2c-3.3,1.5-6.2,3.5-8.7,6
				c-2.5,2.5-4.4,5.5-5.8,8.9c-1.4,3.4-2.1,7-2.1,10.9c0,3.9,0.7,7.5,2.2,10.9c1.5,3.4,3.5,6.4,6,8.9c2.5,2.5,5.5,4.5,9,6
				c3.4,1.5,7.2,2.2,11.3,2.2c4.1,0,7.7-0.5,10.9-1.6c3.2-1.1,5.9-2.3,8-3.6c2.5-1.5,4.8-3.2,6.7-5.2l20.1,37
				c-3.4,2.9-7.5,5.5-12.2,7.8c-4.1,1.9-9,3.6-14.7,5.2c-5.7,1.6-12.3,2.4-19.7,2.4c-9.9,0-19.1-1.7-27.5-5.1
				c-8.4-3.4-15.7-8.2-21.8-14.3c-6.1-6.1-10.9-13.5-14.3-22.1C116.7,250.7,115,241.2,115,230.8z"/>
		</g>
		<g>
			<path class="st1" d="M0,230.8c0-10.7,1.8-20.3,5.4-28.9c3.6-8.6,8.4-16,14.5-22.1c6.1-6.1,13.2-10.8,21.4-14.1
				c8.2-3.3,16.8-4.9,26-4.9c7.3,0,13.7,0.7,19.4,2.2c5.7,1.5,10.5,3.1,14.6,5c4.7,2.1,8.8,4.5,12.2,7l-20.1,37
				c-2-1.6-4.3-3.1-6.7-4.6c-2.2-1.1-4.7-2.1-7.7-3.1c-3-1-6.4-1.5-10.2-1.5c-4,0-7.6,0.7-10.9,2.2c-3.3,1.5-6.2,3.5-8.7,6
				c-2.5,2.5-4.4,5.5-5.8,8.9c-1.4,3.4-2.1,7-2.1,10.9c0,3.9,0.7,7.5,2.2,10.9c1.5,3.4,3.5,6.4,6,8.9c2.5,2.5,5.5,4.5,9,6
				c3.4,1.5,7.2,2.2,11.3,2.2c4.1,0,7.7-0.5,10.9-1.6c3.2-1.1,5.9-2.3,8-3.6c2.5-1.5,4.8-3.2,6.7-5.2l20.1,37
				c-3.4,2.9-7.5,5.5-12.2,7.8c-4.1,1.9-9,3.6-14.7,5.2c-5.7,1.6-12.3,2.4-19.7,2.4c-9.9,0-19.1-1.7-27.5-5.1
				c-8.4-3.4-15.7-8.2-21.8-14.3c-6.1-6.1-10.9-13.5-14.3-22.1C1.7,250.7,0,241.2,0,230.8z"/>
		</g>
		<g>
			<path class="st1" d="M121.8,141.8V0h34c11.5,0,21.8,1.5,30.8,4.5c9,3,16.6,7.4,22.8,13.4c6.2,6,10.9,13.4,14.1,22.2
				c3.2,8.9,4.9,19.1,4.9,30.7c0,11.6-1.6,21.9-4.9,30.7c-3.2,8.9-8,16.3-14.1,22.2c-6.2,6-13.8,10.5-22.8,13.5
				c-9,3-19.3,4.6-30.8,4.6H121.8z M160.9,101.4c9.2,0,16.3-2.5,21.3-7.5c5-5,7.5-12.7,7.5-23.1c0-10.3-2.5-18-7.5-23
				c-5-5-12.1-7.4-21.3-7.4V101.4z"/>
		</g>
		<g>
			<path class="st1" d="M45.6,0h45.2v141.8H45.6V0z"/>
		</g>
	</g>
	<g>
		<path class="st0" d="M1506.2-163.4c9.2,0,16.3-2.5,21.3-7.5c5-5,7.5-12.7,7.5-23.1c0-10.3-2.5-18-7.5-23c-5-5-12.1-7.4-21.3-7.4
			V-163.4z"/>
		<path class="st0" d="M1479.8,16.5c-6.1-6.1-10.9-13.5-14.3-22.1c-3.4-8.6-5.2-18.1-5.2-28.5c0-10.7,1.8-20.3,5.3-28.9
			c3.6-8.6,8.4-16,14.5-22.1c6.1-6.1,13.2-10.8,21.4-14.1c8.2-3.3,16.8-4.9,26-4.9c7.3,0,13.7,0.7,19.4,2.2c5.7,1.5,10.5,3.1,14.6,5
			c4.7,2.1,8.8,4.5,12.2,7l-20.1,37c-2-1.6-4.3-3.1-6.7-4.6c-2.2-1.1-4.7-2.1-7.7-3.1c-3-1-6.4-1.5-10.2-1.5c-4,0-7.6,0.7-10.9,2.2
			c-3.3,1.5-6.2,3.5-8.7,6c-2.5,2.5-4.4,5.5-5.8,8.9c-1.4,3.4-2.1,7-2.1,10.9c0,3.9,0.7,7.5,2.2,10.9c1.5,3.4,3.5,6.4,6,8.9
			c2.5,2.5,5.5,4.5,9,6c3.4,1.5,7.2,2.2,11.3,2.2c4.1,0,7.7-0.5,10.9-1.6c3.2-1.1,5.9-2.3,8-3.6c1.6-0.9,3.1-2,4.5-3.2
			c20.7-24.3,33.2-55.9,33.2-90.3c0-23.4-5.8-45.5-16-64.8c-0.6,2.1-1.2,4.2-1.9,6.2c-3.2,8.9-8,16.3-14.1,22.2
			c-6.2,6-13.8,10.5-22.8,13.5c-9,3.1-19.3,4.6-30.8,4.6h-34v-119.7c-6.5-0.9-13.1-1.4-19.8-1.4c-3.8,0-7.5,0.2-11.1,0.4V-123h-45.2
			v-109.3c-48.9,21.6-83.1,70.6-83.1,127.6c0,39.9,16.7,75.8,43.5,101.2c-0.3-0.7-0.6-1.4-0.9-2c-3.4-8.6-5.2-18.1-5.2-28.5
			c0-10.7,1.8-20.3,5.4-28.9c3.6-8.6,8.4-16,14.5-22.1c6.1-6.1,13.2-10.8,21.4-14.1c8.2-3.3,16.8-4.9,26-4.9
			c7.3,0,13.7,0.7,19.4,2.2c5.7,1.5,10.5,3.1,14.6,5c4.7,2.1,8.8,4.5,12.2,7l-20.1,37c-2-1.6-4.3-3.1-6.7-4.6
			c-2.2-1.1-4.7-2.1-7.7-3.1c-3-1-6.4-1.5-10.2-1.5c-4,0-7.6,0.7-10.9,2.2c-3.3,1.5-6.2,3.5-8.7,6c-2.5,2.5-4.4,5.5-5.8,8.9
			c-1.4,3.4-2.1,7-2.1,10.9c0,3.9,0.7,7.5,2.2,10.9c1.5,3.4,3.5,6.4,6,8.9c2.5,2.5,5.5,4.5,9,6c3.4,1.5,7.2,2.2,11.3,2.2
			c4.1,0,7.7-0.5,10.9-1.6c3.2-1.1,5.9-2.3,8-3.6c2.5-1.5,4.8-3.2,6.7-5.2l20.1,37c-3.4,2.9-7.5,5.5-12.2,7.8
			c-4.1,1.9-9,3.6-14.7,5.2c-0.5,0.1-1,0.2-1.4,0.4c4.9,0.5,9.9,0.8,14.9,0.8c16.2,0,31.7-2.8,46.2-7.8
			C1488.4,24,1483.8,20.6,1479.8,16.5z"/>
	</g>
	<g>
		<path class="st2" d="M1828.2-163.4c9.2,0,16.3-2.5,21.3-7.5c5-5,7.5-12.7,7.5-23.1c0-10.3-2.5-18-7.5-23c-5-5-12.1-7.4-21.3-7.4
			V-163.4z"/>
		<path class="st2" d="M1801.8,16.5c-6.1-6.1-10.9-13.5-14.3-22.1c-3.4-8.6-5.2-18.1-5.2-28.5c0-10.7,1.8-20.3,5.3-28.9
			c3.6-8.6,8.4-16,14.5-22.1c6.1-6.1,13.2-10.8,21.4-14.1c8.2-3.3,16.8-4.9,26-4.9c7.3,0,13.7,0.7,19.4,2.2c5.7,1.5,10.5,3.1,14.6,5
			c4.7,2.1,8.8,4.5,12.2,7l-20.1,37c-2-1.6-4.3-3.1-6.7-4.6c-2.2-1.1-4.7-2.1-7.7-3.1c-3-1-6.4-1.5-10.2-1.5c-4,0-7.6,0.7-10.9,2.2
			c-3.3,1.5-6.2,3.5-8.7,6c-2.5,2.5-4.4,5.5-5.8,8.9c-1.4,3.4-2.1,7-2.1,10.9c0,3.9,0.7,7.5,2.2,10.9c1.5,3.4,3.5,6.4,6,8.9
			c2.5,2.5,5.5,4.5,9,6c3.4,1.5,7.2,2.2,11.3,2.2c4.1,0,7.7-0.5,10.9-1.6c3.2-1.1,5.9-2.3,8-3.6c1.6-0.9,3.1-2,4.5-3.2
			c20.7-24.3,33.2-55.9,33.2-90.3c0-23.4-5.8-45.5-16-64.8c-0.6,2.1-1.2,4.2-1.9,6.2c-3.2,8.9-8,16.3-14.1,22.2
			c-6.2,6-13.8,10.5-22.8,13.5c-9,3.1-19.3,4.6-30.8,4.6h-34v-119.7c-6.5-0.9-13.1-1.4-19.8-1.4c-3.8,0-7.5,0.2-11.1,0.4V-123h-45.2
			v-109.3c-48.9,21.6-83.1,70.6-83.1,127.6c0,39.9,16.7,75.8,43.5,101.2c-0.3-0.7-0.6-1.4-0.9-2c-3.4-8.6-5.2-18.1-5.2-28.5
			c0-10.7,1.8-20.3,5.4-28.9c3.6-8.6,8.4-16,14.5-22.1c6.1-6.1,13.2-10.8,21.4-14.1c8.2-3.3,16.8-4.9,26-4.9
			c7.3,0,13.7,0.7,19.4,2.2c5.7,1.5,10.5,3.1,14.6,5c4.7,2.1,8.8,4.5,12.2,7l-20.1,37c-2-1.6-4.3-3.1-6.7-4.6
			c-2.2-1.1-4.7-2.1-7.7-3.1c-3-1-6.4-1.5-10.2-1.5c-4,0-7.6,0.7-10.9,2.2c-3.3,1.5-6.2,3.5-8.7,6c-2.5,2.5-4.4,5.5-5.8,8.9
			c-1.4,3.4-2.1,7-2.1,10.9c0,3.9,0.7,7.5,2.2,10.9c1.5,3.4,3.5,6.4,6,8.9c2.5,2.5,5.5,4.5,9,6c3.4,1.5,7.2,2.2,11.3,2.2
			c4.1,0,7.7-0.5,10.9-1.6c3.2-1.1,5.9-2.3,8-3.6c2.5-1.5,4.8-3.2,6.7-5.2l20.1,37c-3.4,2.9-7.5,5.5-12.2,7.8
			c-4.1,1.9-9,3.6-14.7,5.2c-0.5,0.1-1,0.2-1.4,0.4c4.9,0.5,9.9,0.8,14.9,0.8c16.2,0,31.7-2.8,46.2-7.8
			C1810.4,24,1805.8,20.6,1801.8,16.5z"/>
	</g>
	<text transform="matrix(1 0 0 1 1036.5596 98.8027)"><tspan x="0" y="0" style="font-family:'Calibri-Bold'; font-size:12px;">Logo: white font on black circle</tspan><tspan x="0" y="14.4" style="font-family:'Calibri-Bold'; font-size:12px;">Font: Phospate Solid 200pt</tspan></text>
	<text transform="matrix(1 0 0 1 1000.5596 -336.5308)" style="font-family:'Calibri-Bold'; font-size:18px;">Impact Data Consortium Chain (IDCC) Logos</text>
	<text transform="matrix(1 0 0 1 1355.2266 98.8027)"><tspan x="0" y="0" style="font-family:'Calibri-Bold'; font-size:12px;">Logo: vector lines only</tspan><tspan x="0" y="14.4" style="font-family:'Calibri-Bold'; font-size:12px;">Color:  Black</tspan></text>
	<text transform="matrix(1 0 0 1 1674.5601 98.8027)"><tspan x="0" y="0" style="font-family:'Calibri-Bold'; font-size:12px;">Logo: vector lines only</tspan><tspan x="0" y="14.4" style="font-family:'Calibri-Bold'; font-size:12px;">Color: Grey, R=77, G=77, B=77</tspan></text>
</g>
</svg>
