<svg width="54" height="54" viewBox="0 0 54 54" fill="none" xmlns="http://www.w3.org/2000/svg">
<g clip-path="url(#clip0_18858_355207)">
<path d="M37.4909 27C37.4909 37.0545 29.3398 45.2053 19.2854 45.2053C9.23083 45.2053 1.08002 37.0545 1.08002 27C1.08002 16.9455 9.23083 8.79468 19.2854 8.79468C29.3398 8.79468 37.4909 16.9455 37.4909 27Z" stroke="#0089D7" stroke-width="2.16"/>
<path d="M37.4917 26.9999C37.4917 32.794 32.7945 37.4912 27.0003 37.4912C21.2062 37.4912 16.5092 32.794 16.5092 26.9999C16.5092 21.2057 21.2062 16.5087 27.0003 16.5087C32.7945 16.5087 37.4917 21.2057 37.4917 26.9999Z" stroke="#0089D7" stroke-width="2.16"/>
<path d="M26.9999 16.5093C37.0546 16.5093 45.2053 24.6601 45.2053 34.7147C45.2053 44.7693 37.0546 52.92 26.9999 52.92C16.9454 52.92 8.79456 44.7693 8.79456 34.7147C8.79456 24.6601 16.9454 16.5093 26.9999 16.5093Z" stroke="#0089D7" stroke-width="2.16"/>
<path d="M52.92 27C52.92 37.0545 44.769 45.2053 34.7144 45.2053C24.66 45.2053 16.5092 37.0545 16.5092 27C16.5092 16.9455 24.66 8.79468 34.7144 8.79468C44.769 8.79468 52.92 16.9455 52.92 27Z" stroke="#0089D7" stroke-width="2.16"/>
<path d="M26.9999 1.07996C37.0546 1.07996 45.2053 9.23077 45.2053 19.2853C45.2053 29.3398 37.0546 37.4908 26.9999 37.4908C16.9454 37.4908 8.79456 29.3398 8.79456 19.2853C8.79456 9.23077 16.9454 1.07996 26.9999 1.07996Z" stroke="#0089D7" stroke-width="2.16"/>
</g>
<defs>
<clipPath id="clip0_18858_355207">
<rect width="54" height="54" fill="white"/>
</clipPath>
</defs>
</svg>
