<svg width="512" height="512" viewBox="0 0 512 512" fill="none" xmlns="http://www.w3.org/2000/svg">
<rect width="511.998" height="512" fill="url(#paint0_linear_128_572)"/>
<rect width="511.998" height="512" fill="url(#paint1_linear_128_572)" fill-opacity="0.3"/>
<path d="M326.138 256C326.138 323.141 271.71 377.57 204.569 377.57C137.428 377.57 82.9992 323.141 82.9992 256C82.9992 188.859 137.428 134.431 204.569 134.431C271.71 134.431 326.138 188.859 326.138 256Z" stroke="white" stroke-width="14"/>
<path d="M326.144 255.999C326.144 294.737 294.74 326.141 256.002 326.141C217.264 326.141 185.86 294.737 185.86 255.999C185.86 217.261 217.264 185.857 256.002 185.857C294.74 185.857 326.144 217.261 326.144 255.999Z" stroke="white" stroke-width="14"/>
<path d="M255.999 185.862C323.14 185.862 377.568 240.29 377.568 307.431C377.568 374.572 323.14 429.001 255.999 429.001C188.858 429.001 134.429 374.572 134.429 307.431C134.429 240.29 188.858 185.862 255.999 185.862Z" stroke="white" stroke-width="14"/>
<path d="M428.999 256C428.999 323.141 374.571 377.57 307.43 377.57C240.289 377.57 185.86 323.141 185.86 256C185.86 188.859 240.289 134.431 307.43 134.431C374.571 134.431 428.999 188.859 428.999 256Z" stroke="white" stroke-width="14"/>
<path d="M255.999 82.9996C323.14 82.9996 377.568 137.428 377.568 204.569C377.568 271.71 323.14 326.139 255.999 326.139C188.858 326.139 134.429 271.71 134.429 204.569C134.429 137.428 188.858 82.9996 255.999 82.9996Z" stroke="white" stroke-width="14"/>
<defs>
<linearGradient id="paint0_linear_128_572" x1="255.999" y1="0" x2="255.999" y2="512" gradientUnits="userSpaceOnUse">
<stop stop-color="#32A8EA"/>
<stop offset="1" stop-color="#0984C9"/>
</linearGradient>
<linearGradient id="paint1_linear_128_572" x1="-68" y1="221" x2="594.5" y2="476.5" gradientUnits="userSpaceOnUse">
<stop stop-color="#69E4FF"/>
<stop offset="1" stop-color="#69E4FF" stop-opacity="0"/>
</linearGradient>
</defs>
</svg>
