<svg width="14" height="17" viewBox="0 0 14 17" fill="none" xmlns="http://www.w3.org/2000/svg">
<path fill-rule="evenodd" clip-rule="evenodd" d="M12.4096 16.1455H2.23716C1.4562 16.1455 0.823242 15.4821 0.823242 14.664V6.96156C0.823242 6.14329 1.4562 5.48008 2.23716 5.48008H2.50933V5.18946H2.51829C2.51923 2.40378 4.67498 0.145508 7.33385 0.145508C9.99342 0.145508 12.1263 2.40452 12.1263 5.19119C12.1263 5.29316 12.1301 5.38773 12.1303 5.48008H12.4093C13.1903 5.48008 13.8232 6.14329 13.8232 6.96156V14.664C13.8235 15.4823 13.1908 16.1455 12.4096 16.1455ZM7.34351 1.92403C5.62537 1.92403 4.23266 3.38329 4.23195 5.18304H4.22606V5.48008H10.4412V5.45662C10.4492 5.37069 10.4553 5.2818 10.4553 5.18427C10.4551 3.38378 9.06188 1.92403 7.34351 1.92403ZM12.135 7.85736C12.135 7.52995 11.8817 7.26477 11.5695 7.26477H3.07867C2.76643 7.26477 2.51311 7.52995 2.51311 7.85736V13.7781C2.51311 14.1055 2.76643 14.3707 3.07867 14.3707H11.5695C11.8817 14.3707 12.135 14.1053 12.135 13.7781V7.85736ZM7.4611 12.5845H7.17832C6.78925 12.5845 6.47395 12.2541 6.47395 11.8465V9.79909C6.47395 9.39143 6.78925 9.06106 7.17832 9.06106H7.4611C7.85016 9.06106 8.16546 9.39143 8.16546 9.79909V11.8465C8.1657 12.2541 7.85016 12.5845 7.4611 12.5845Z" fill="#7D8498"/>
</svg>
