<?xml version="1.0" encoding="UTF-8"?>
<svg width="35px" height="31px" viewBox="0 0 35 31" version="1.1" xmlns="http://www.w3.org/2000/svg" xmlns:xlink="http://www.w3.org/1999/xlink">
    <!-- Generator: Sketch 52.3 (67297) - http://www.bohemiancoding.com/sketch -->
    <title>metamask-recreated faux shadow</title>
    <desc>Created with Sketch.</desc>
    <g id="Funding-Lifecycle" stroke="none" stroke-width="1" fill="none" fill-rule="evenodd">
        <g id="Unfunded-00" transform="translate(-688.000000, -972.000000)">
            <g id="Group-4" transform="translate(0.000000, 944.000000)">
                <g id="Group-14" transform="translate(688.000000, 20.000000)">
                    <g id="metamask-recreated-faux-shadow" transform="translate(0.000000, 8.000000)">
                        <polygon id="Path-16" fill="#CDBDB2" points="10.075 28.6294118 14.2944444 29.8147059 14.2944444 28.2647059 14.6388889 27.9 17.05 27.9 17.05 29.7235294 17.05 31 14.4666667 31 11.2805556 29.5411765"></polygon>
                        <polygon id="Path-16-Copy" fill="#CDBDB2" transform="translate(20.537500, 29.450000) scale(-1, 1) translate(-20.537500, -29.450000) " points="17.05 28.6294118 21.235 29.8147059 21.235 28.2647059 21.58375 27.9 24.025 27.9 24.025 29.7235294 24.025 31 21.409375 31 18.1834375 29.5411765"></polygon>
                        <polygon id="Path-17" fill="#393939" points="14.3436508 25.2078947 13.95 27.9 14.4420635 27.5736842 19.5595238 27.5736842 20.15 27.9 19.7563492 25.2078947 18.9690476 24.8 15.0325397 24.8815789"></polygon>
                        <polygon id="Path-20" fill="#F89C35" points="12.4 4.65 14.6388889 9.80251142 15.6650463 24.8 19.3032407 24.8 20.4226852 9.80251142 22.475 4.65"></polygon>
                        <g id="face/left">
                            <polygon id="Path-15" fill="#F89D35" points="2.67029703 15.7767857 0.0920792079 23.25 6.53762376 22.8809524 10.6811881 22.8809524 10.6811881 19.6517857 10.4970297 13.0089286 9.57623762 13.7470238"></polygon>
                            <polygon id="Path-8" fill="#D87C30" points="7.55049505 16.6071429 15.1009901 16.7916667 14.2722772 20.6666667 10.6811881 19.7440476"></polygon>
                            <polygon id="Path-9" fill="#EA8D3A" points="7.55049505 16.6994048 10.6811881 19.6517857 10.6811881 22.6041667"></polygon>
                            <polygon id="Path-10" fill="#F89D35" points="10.6811881 19.7440476 14.3643564 20.6666667 15.5613861 24.6339286 14.7326733 25.0952381 10.6811881 22.6964286"></polygon>
                            <polygon id="Path-11" fill="#EB8F35" points="10.6811881 22.6964286 9.94455446 28.4166667 14.8247525 25.0029762"></polygon>
                            <polygon id="Path-12" fill="#EA8E3A" points="15.1009901 16.7916667 15.5613861 24.6339286 14.180198 20.6205357"></polygon>
                            <polygon id="Path-13" fill="#D87C30" points="6.44554455 22.7886905 10.6811881 22.6964286 9.94455446 28.4166667"></polygon>
                            <polygon id="Path-14" fill="#D87C30" points="2.11782178 30.9077381 9.94455446 28.4166667 6.44554455 22.7886905 0.0920792079 23.25"></polygon>
                            <polygon id="Path-7" fill="#E8821E" points="14.5485149 9.5952381 10.5891089 12.9166667 7.55049505 16.6071429 15.1009901 16.8839286"></polygon>
                            <polygon id="Path-18" fill="#DFCEC3" points="9.94455446 28.4166667 14.8247525 25.0029762 14.4564356 27.9553571 14.4564356 29.6160714 11.1415842 28.9702381"></polygon>
                            <polygon id="Path-18-Copy" fill="#DFCEC3" transform="translate(22.283168, 27.309524) scale(-1, 1) translate(-22.283168, -27.309524) " points="19.8891089 28.4166667 24.6772277 25.0029762 24.3089109 27.9553571 24.3089109 29.6160714 20.9940594 28.9702381"></polygon>
                            <polygon id="Path-19-Copy" fill="#393939" transform="translate(12.292574, 19.513393) scale(-1, 1) translate(-12.292574, -19.513393) " points="11.509901 18.452381 10.4970297 20.5744048 14.0881188 19.6517857"></polygon>
                            <polygon id="Path-21" fill="#E88F35" points="2.02574257 0.0922619048 14.5485149 9.5952381 12.4306931 4.42857143"></polygon>
                            <path d="M2.02574257,0.0922619048 L0.368316832,5.16666667 L1.28910891,10.702381 L0.644554455,11.0714286 L1.56534653,11.9017857 L0.828712871,12.547619 L1.84158416,13.4702381 L1.1970297,14.0238095 L2.67029703,15.8690476 L9.57623762,13.7470238 C12.9524752,11.0406746 14.609901,9.65674603 14.5485149,9.5952381 C14.4871287,9.53373016 10.3128713,6.36607143 2.02574257,0.0922619048 Z" id="Path-22" fill="#8E5A30"></path>
                        </g>
                        <g id="face/left-copy" transform="translate(27.125000, 15.500000) scale(-1, 1) translate(-27.125000, -15.500000) translate(19.375000, 0.000000)">
                            <polygon id="Path-15" fill="#F89D35" points="2.63378906 15.7767857 0.0908203125 23.25 6.44824219 22.8809524 10.5351562 22.8809524 10.5351562 19.6517857 10.3535156 13.0089286 9.4453125 13.7470238"></polygon>
                            <polygon id="Path-8" fill="#D87C30" points="7.44726562 16.6071429 14.8945312 16.7916667 14.0771484 20.6666667 10.5351562 19.7440476"></polygon>
                            <polygon id="Path-9" fill="#EA8D3A" points="7.44726562 16.6994048 10.5351562 19.6517857 10.5351562 22.6041667"></polygon>
                            <polygon id="Path-10" fill="#F89D35" points="10.5351562 19.7440476 14.1679687 20.6666667 15.3486328 24.6339286 14.53125 25.0952381 10.5351562 22.6964286"></polygon>
                            <polygon id="Path-11" fill="#EB8F35" points="10.5351562 22.6964286 9.80859375 28.4166667 14.53125 25.0952381"></polygon>
                            <polygon id="Path-12" fill="#EA8E3A" points="14.8945312 16.7916667 15.3486328 24.6339286 13.9863281 20.6205357"></polygon>
                            <polygon id="Path-13" fill="#D87C30" points="6.35742187 22.7886905 10.5351562 22.6964286 9.80859375 28.4166667"></polygon>
                            <polygon id="Path-14" fill="#D87C30" points="2.08886719 30.9077381 9.80859375 28.4166667 6.35742187 22.7886905 0.0908203125 23.25"></polygon>
                            <polygon id="Path-7" fill="#E8821E" points="14.3496094 9.5952381 10.4443359 12.9166667 7.44726562 16.6071429 14.8945312 16.8839286"></polygon>
                            <polygon id="Path-19-Copy" fill="#393939" transform="translate(12.124512, 19.513393) scale(-1, 1) translate(-12.124512, -19.513393) " points="11.3525391 18.452381 10.3535156 20.5744048 13.8955078 19.6517857"></polygon>
                            <polygon id="Path-21" fill="#E88F35" points="1.99804687 0.0922619048 14.3496094 9.5952381 12.2607422 4.42857143"></polygon>
                            <path d="M1.99804688,0.0922619048 L0.36328125,5.16666667 L1.27148438,10.702381 L0.635742188,11.0714286 L1.54394531,11.9017857 L0.817382812,12.547619 L1.81640625,13.4702381 L1.18066406,14.0238095 L2.63378906,15.8690476 L9.4453125,13.7470238 C12.7753906,11.0406746 14.4101563,9.65674603 14.3496094,9.5952381 C14.2890625,9.53373016 10.171875,6.36607143 1.99804688,0.0922619048 Z" id="Path-22" fill="#8E5A30"></path>
                        </g>
                    </g>
                </g>
            </g>
        </g>
    </g>
</svg>