<svg width="120" height="20" viewBox="0 0 120 20" fill="none" xmlns="http://www.w3.org/2000/svg">
<path d="M6.01562 12.0391H2.97656V10.8125H6.01562C6.60417 10.8125 7.08073 10.7188 7.44531 10.5312C7.8099 10.3438 8.07552 10.0833 8.24219 9.75C8.41406 9.41667 8.5 9.03646 8.5 8.60938C8.5 8.21875 8.41406 7.85156 8.24219 7.50781C8.07552 7.16406 7.8099 6.88802 7.44531 6.67969C7.08073 6.46615 6.60417 6.35938 6.01562 6.35938H3.32812V16.5H1.82031V5.125H6.01562C6.875 5.125 7.60156 5.27344 8.19531 5.57031C8.78906 5.86719 9.23958 6.27865 9.54688 6.80469C9.85417 7.32552 10.0078 7.92188 10.0078 8.59375C10.0078 9.32292 9.85417 9.94531 9.54688 10.4609C9.23958 10.9766 8.78906 11.3698 8.19531 11.6406C7.60156 11.9062 6.875 12.0391 6.01562 12.0391ZM11.2031 12.3672V12.1875C11.2031 11.5781 11.2917 11.013 11.4688 10.4922C11.6458 9.96615 11.901 9.51042 12.2344 9.125C12.5677 8.73438 12.9714 8.43229 13.4453 8.21875C13.9193 8 14.4505 7.89062 15.0391 7.89062C15.6328 7.89062 16.1667 8 16.6406 8.21875C17.1198 8.43229 17.526 8.73438 17.8594 9.125C18.1979 9.51042 18.4557 9.96615 18.6328 10.4922C18.8099 11.013 18.8984 11.5781 18.8984 12.1875V12.3672C18.8984 12.9766 18.8099 13.5417 18.6328 14.0625C18.4557 14.5833 18.1979 15.0391 17.8594 15.4297C17.526 15.8151 17.1224 16.1172 16.6484 16.3359C16.1797 16.5495 15.6484 16.6562 15.0547 16.6562C14.4609 16.6562 13.9271 16.5495 13.4531 16.3359C12.9792 16.1172 12.5729 15.8151 12.2344 15.4297C11.901 15.0391 11.6458 14.5833 11.4688 14.0625C11.2917 13.5417 11.2031 12.9766 11.2031 12.3672ZM12.6484 12.1875V12.3672C12.6484 12.7891 12.6979 13.1875 12.7969 13.5625C12.8958 13.9323 13.0443 14.2604 13.2422 14.5469C13.4453 14.8333 13.6979 15.0599 14 15.2266C14.3021 15.388 14.6536 15.4688 15.0547 15.4688C15.4505 15.4688 15.7969 15.388 16.0938 15.2266C16.3958 15.0599 16.6458 14.8333 16.8438 14.5469C17.0417 14.2604 17.1901 13.9323 17.2891 13.5625C17.3932 13.1875 17.4453 12.7891 17.4453 12.3672V12.1875C17.4453 11.7708 17.3932 11.3776 17.2891 11.0078C17.1901 10.6328 17.0391 10.3021 16.8359 10.0156C16.638 9.72396 16.388 9.49479 16.0859 9.32812C15.7891 9.16146 15.4401 9.07812 15.0391 9.07812C14.6432 9.07812 14.2943 9.16146 13.9922 9.32812C13.6953 9.49479 13.4453 9.72396 13.2422 10.0156C13.0443 10.3021 12.8958 10.6328 12.7969 11.0078C12.6979 11.3776 12.6484 11.7708 12.6484 12.1875ZM22.8516 15L25.0234 8.04688H25.9766L25.7891 9.42969L23.5781 16.5H22.6484L22.8516 15ZM21.3906 8.04688L23.2422 15.0781L23.375 16.5H22.3984L19.9453 8.04688H21.3906ZM28.0547 15.0234L29.8203 8.04688H31.2578L28.8047 16.5H27.8359L28.0547 15.0234ZM26.1875 8.04688L28.3125 14.8828L28.5547 16.5H27.6328L25.3594 9.41406L25.1719 8.04688H26.1875ZM36.25 16.6562C35.6615 16.6562 35.1276 16.5573 34.6484 16.3594C34.1745 16.1562 33.7656 15.8724 33.4219 15.5078C33.0833 15.1432 32.8229 14.7109 32.6406 14.2109C32.4583 13.7109 32.3672 13.1641 32.3672 12.5703V12.2422C32.3672 11.5547 32.4688 10.9427 32.6719 10.4062C32.875 9.86458 33.151 9.40625 33.5 9.03125C33.849 8.65625 34.2448 8.3724 34.6875 8.17969C35.1302 7.98698 35.5885 7.89062 36.0625 7.89062C36.6667 7.89062 37.1875 7.99479 37.625 8.20312C38.0677 8.41146 38.4297 8.70312 38.7109 9.07812C38.9922 9.44792 39.2005 9.88542 39.3359 10.3906C39.4714 10.8906 39.5391 11.4375 39.5391 12.0312V12.6797H33.2266V11.5H38.0938V11.3906C38.0729 11.0156 37.9948 10.651 37.8594 10.2969C37.7292 9.94271 37.5208 9.65104 37.2344 9.42188C36.9479 9.19271 36.5573 9.07812 36.0625 9.07812C35.7344 9.07812 35.4323 9.14844 35.1562 9.28906C34.8802 9.42448 34.6432 9.6276 34.4453 9.89844C34.2474 10.1693 34.0938 10.5 33.9844 10.8906C33.875 11.2812 33.8203 11.7318 33.8203 12.2422V12.5703C33.8203 12.9714 33.875 13.349 33.9844 13.7031C34.099 14.0521 34.263 14.3594 34.4766 14.625C34.6953 14.8906 34.9583 15.099 35.2656 15.25C35.5781 15.401 35.9323 15.4766 36.3281 15.4766C36.8385 15.4766 37.2708 15.3724 37.625 15.1641C37.9792 14.9557 38.2891 14.6771 38.5547 14.3281L39.4297 15.0234C39.2474 15.2995 39.0156 15.5625 38.7344 15.8125C38.4531 16.0625 38.1068 16.2656 37.6953 16.4219C37.2891 16.5781 36.8073 16.6562 36.25 16.6562ZM42.6719 9.375V16.5H41.2266V8.04688H42.6328L42.6719 9.375ZM45.3125 8L45.3047 9.34375C45.1849 9.31771 45.0703 9.30208 44.9609 9.29688C44.8568 9.28646 44.737 9.28125 44.6016 9.28125C44.2682 9.28125 43.974 9.33333 43.7188 9.4375C43.4635 9.54167 43.2474 9.6875 43.0703 9.875C42.8932 10.0625 42.7526 10.2865 42.6484 10.5469C42.5495 10.8021 42.4844 11.0833 42.4531 11.3906L42.0469 11.625C42.0469 11.1146 42.0964 10.6354 42.1953 10.1875C42.2995 9.73958 42.4583 9.34375 42.6719 9C42.8854 8.65104 43.1562 8.38021 43.4844 8.1875C43.8177 7.98958 44.2135 7.89062 44.6719 7.89062C44.776 7.89062 44.8958 7.90365 45.0312 7.92969C45.1667 7.95052 45.2604 7.97396 45.3125 8ZM50 16.6562C49.4115 16.6562 48.8776 16.5573 48.3984 16.3594C47.9245 16.1562 47.5156 15.8724 47.1719 15.5078C46.8333 15.1432 46.5729 14.7109 46.3906 14.2109C46.2083 13.7109 46.1172 13.1641 46.1172 12.5703V12.2422C46.1172 11.5547 46.2188 10.9427 46.4219 10.4062C46.625 9.86458 46.901 9.40625 47.25 9.03125C47.599 8.65625 47.9948 8.3724 48.4375 8.17969C48.8802 7.98698 49.3385 7.89062 49.8125 7.89062C50.4167 7.89062 50.9375 7.99479 51.375 8.20312C51.8177 8.41146 52.1797 8.70312 52.4609 9.07812C52.7422 9.44792 52.9505 9.88542 53.0859 10.3906C53.2214 10.8906 53.2891 11.4375 53.2891 12.0312V12.6797H46.9766V11.5H51.8438V11.3906C51.8229 11.0156 51.7448 10.651 51.6094 10.2969C51.4792 9.94271 51.2708 9.65104 50.9844 9.42188C50.6979 9.19271 50.3073 9.07812 49.8125 9.07812C49.4844 9.07812 49.1823 9.14844 48.9062 9.28906C48.6302 9.42448 48.3932 9.6276 48.1953 9.89844C47.9974 10.1693 47.8438 10.5 47.7344 10.8906C47.625 11.2812 47.5703 11.7318 47.5703 12.2422V12.5703C47.5703 12.9714 47.625 13.349 47.7344 13.7031C47.849 14.0521 48.013 14.3594 48.2266 14.625C48.4453 14.8906 48.7083 15.099 49.0156 15.25C49.3281 15.401 49.6823 15.4766 50.0781 15.4766C50.5885 15.4766 51.0208 15.3724 51.375 15.1641C51.7292 14.9557 52.0391 14.6771 52.3047 14.3281L53.1797 15.0234C52.9974 15.2995 52.7656 15.5625 52.4844 15.8125C52.2031 16.0625 51.8568 16.2656 51.4453 16.4219C51.0391 16.5781 50.5573 16.6562 50 16.6562ZM60.3047 14.8594V4.5H61.7578V16.5H60.4297L60.3047 14.8594ZM54.6172 12.3672V12.2031C54.6172 11.5573 54.6953 10.9714 54.8516 10.4453C55.013 9.91406 55.2396 9.45833 55.5312 9.07812C55.8281 8.69792 56.1797 8.40625 56.5859 8.20312C56.9974 7.99479 57.4557 7.89062 57.9609 7.89062C58.4922 7.89062 58.9557 7.98438 59.3516 8.17188C59.7526 8.35417 60.0911 8.6224 60.3672 8.97656C60.6484 9.32552 60.8698 9.7474 61.0312 10.2422C61.1927 10.737 61.3047 11.2969 61.3672 11.9219V12.6406C61.3099 13.2604 61.1979 13.8177 61.0312 14.3125C60.8698 14.8073 60.6484 15.2292 60.3672 15.5781C60.0911 15.9271 59.7526 16.1953 59.3516 16.3828C58.9505 16.5651 58.4818 16.6562 57.9453 16.6562C57.4505 16.6562 56.9974 16.5495 56.5859 16.3359C56.1797 16.1224 55.8281 15.8229 55.5312 15.4375C55.2396 15.0521 55.013 14.599 54.8516 14.0781C54.6953 13.5521 54.6172 12.9818 54.6172 12.3672ZM56.0703 12.2031V12.3672C56.0703 12.7891 56.112 13.1849 56.1953 13.5547C56.2839 13.9245 56.4193 14.25 56.6016 14.5312C56.7839 14.8125 57.0156 15.0339 57.2969 15.1953C57.5781 15.3516 57.9141 15.4297 58.3047 15.4297C58.7839 15.4297 59.1771 15.3281 59.4844 15.125C59.7969 14.9219 60.0469 14.6536 60.2344 14.3203C60.4219 13.987 60.5677 13.625 60.6719 13.2344V11.3516C60.6094 11.0651 60.5182 10.7891 60.3984 10.5234C60.2839 10.2526 60.1328 10.013 59.9453 9.80469C59.763 9.59115 59.5365 9.42188 59.2656 9.29688C59 9.17188 58.6849 9.10938 58.3203 9.10938C57.9245 9.10938 57.5833 9.19271 57.2969 9.35938C57.0156 9.52083 56.7839 9.74479 56.6016 10.0312C56.4193 10.3125 56.2839 10.6406 56.1953 11.0156C56.112 11.3854 56.0703 11.7812 56.0703 12.2031ZM67.9688 4.5H69.4219V14.8594L69.2969 16.5H67.9688V4.5ZM75.1328 12.2031V12.3672C75.1328 12.9818 75.0599 13.5521 74.9141 14.0781C74.7682 14.599 74.5547 15.0521 74.2734 15.4375C73.9922 15.8229 73.6484 16.1224 73.2422 16.3359C72.8359 16.5495 72.3698 16.6562 71.8438 16.6562C71.3073 16.6562 70.8359 16.5651 70.4297 16.3828C70.0286 16.1953 69.6901 15.9271 69.4141 15.5781C69.138 15.2292 68.9167 14.8073 68.75 14.3125C68.5885 13.8177 68.4766 13.2604 68.4141 12.6406V11.9219C68.4766 11.2969 68.5885 10.737 68.75 10.2422C68.9167 9.7474 69.138 9.32552 69.4141 8.97656C69.6901 8.6224 70.0286 8.35417 70.4297 8.17188C70.8307 7.98438 71.2969 7.89062 71.8281 7.89062C72.3594 7.89062 72.8307 7.99479 73.2422 8.20312C73.6536 8.40625 73.9974 8.69792 74.2734 9.07812C74.5547 9.45833 74.7682 9.91406 74.9141 10.4453C75.0599 10.9714 75.1328 11.5573 75.1328 12.2031ZM73.6797 12.3672V12.2031C73.6797 11.7812 73.6406 11.3854 73.5625 11.0156C73.4844 10.6406 73.3594 10.3125 73.1875 10.0312C73.0156 9.74479 72.7891 9.52083 72.5078 9.35938C72.2266 9.19271 71.8802 9.10938 71.4688 9.10938C71.1042 9.10938 70.7865 9.17188 70.5156 9.29688C70.25 9.42188 70.0234 9.59115 69.8359 9.80469C69.6484 10.013 69.4948 10.2526 69.375 10.5234C69.2604 10.7891 69.1745 11.0651 69.1172 11.3516V13.2344C69.2005 13.599 69.3359 13.9505 69.5234 14.2891C69.7161 14.6224 69.9714 14.8958 70.2891 15.1094C70.612 15.3229 71.0104 15.4297 71.4844 15.4297C71.875 15.4297 72.2083 15.3516 72.4844 15.1953C72.7656 15.0339 72.9922 14.8125 73.1641 14.5312C73.3411 14.25 73.4714 13.9245 73.5547 13.5547C73.638 13.1849 73.6797 12.7891 73.6797 12.3672ZM79.2422 15.625L81.5938 8.04688H83.1406L79.75 17.8047C79.6719 18.013 79.5677 18.237 79.4375 18.4766C79.3125 18.7214 79.151 18.9531 78.9531 19.1719C78.7552 19.3906 78.5156 19.5677 78.2344 19.7031C77.9583 19.8438 77.6276 19.9141 77.2422 19.9141C77.1276 19.9141 76.9818 19.8984 76.8047 19.8672C76.6276 19.8359 76.5026 19.8099 76.4297 19.7891L76.4219 18.6172C76.4635 18.6224 76.5286 18.6276 76.6172 18.6328C76.7109 18.6432 76.776 18.6484 76.8125 18.6484C77.1406 18.6484 77.4193 18.6042 77.6484 18.5156C77.8776 18.4323 78.0703 18.2891 78.2266 18.0859C78.388 17.888 78.526 17.6146 78.6406 17.2656L79.2422 15.625ZM77.5156 8.04688L79.7109 14.6094L80.0859 16.1328L79.0469 16.6641L75.9375 8.04688H77.5156Z" fill="#436779"/>
<path fill-rule="evenodd" clip-rule="evenodd" d="M114.187 12.7665C113.06 12.7665 112.146 11.8524 112.146 10.7247C112.146 9.59706 113.06 8.68293 114.187 8.68293C115.315 8.68293 116.229 9.59706 116.229 10.7247C116.229 11.8524 115.315 12.7665 114.187 12.7665ZM114.187 4.94995C110.998 4.94995 108.412 7.53538 108.412 10.7249C108.412 13.9143 110.998 16.4999 114.187 16.4999C117.377 16.4999 119.962 13.9143 119.962 10.7249C119.962 7.53538 117.377 4.94995 114.187 4.94995Z" fill="#00D2FF"/>
<path fill-rule="evenodd" clip-rule="evenodd" d="M91.5 4.94995V16.4999H95.625V4.94995H95.6159H91.5Z" fill="#00D2FF"/>
<path fill-rule="evenodd" clip-rule="evenodd" d="M102.225 7.8374L99.3376 4.94995H96.45V7.8374L99.3376 10.7249L96.45 13.6123V16.4999H99.3376L102.225 13.6123L105.112 16.4999V16.4998V16.4999H108V13.6123L105.112 10.7249L108 7.8374V4.94995H105.112L102.225 7.8374Z" fill="#00D2FF"/>
<path fill-rule="evenodd" clip-rule="evenodd" d="M93.5625 4.12499C92.4234 4.12499 91.5 3.20158 91.5 2.0625C91.5 0.923408 92.4234 0 93.5625 0C94.7016 0 95.625 0.923408 95.625 2.0625C95.625 3.20158 94.7016 4.12499 93.5625 4.12499Z" fill="#00D2FF"/>
</svg>
