<?xml version="1.0" standalone="no"?>
<!DOCTYPE svg PUBLIC "-//W3C//DTD SVG 20010904//EN"
 "http://www.w3.org/TR/2001/REC-SVG-20010904/DTD/svg10.dtd">
<svg version="1.0" xmlns="http://www.w3.org/2000/svg"
 width="320.000000pt" height="320.000000pt" viewBox="0 0 320.000000 320.000000"
 preserveAspectRatio="xMidYMid meet">

<g transform="translate(0.000000,320.000000) scale(0.100000,-0.100000)"
fill="#000000" stroke="none">
<path d="M1540 2904 c-468 -60 -832 -398 -916 -849 -28 -154 -16 -390 27 -502
l9 -23 71 37 c44 24 73 34 76 27 2 -6 9 -19 16 -27 11 -15 16 -15 54 8 l41 25
-14 47 c-25 82 -35 212 -23 304 39 316 259 573 566 661 103 30 304 32 403 4
283 -81 494 -299 561 -581 18 -75 20 -109 16 -205 -7 -136 -24 -206 -78 -316
-95 -195 -287 -353 -499 -410 -101 -28 -302 -26 -405 4 -166 48 -335 168 -430
307 -21 30 -40 55 -41 55 -2 0 -19 -8 -39 -17 -35 -17 -38 -23 -21 -63 5 -11
-11 -24 -56 -49 -80 -43 -340 -192 -351 -201 -5 -4 58 12 140 36 151 44 183
50 183 36 0 -5 33 -42 73 -83 40 -41 106 -112 147 -159 41 -47 96 -107 121
-135 47 -51 148 -163 363 -403 65 -72 122 -132 126 -132 8 0 28 22 321 356
273 310 352 399 429 479 160 168 247 355 285 617 14 99 14 117 -1 220 -32 218
-90 364 -204 516 -139 185 -336 322 -551 382 -58 16 -290 55 -293 49 -1 -1
-48 -8 -106 -15z m643 -1748 c-5 -32 -3 -34 31 -46 20 -6 36 -16 36 -21 0 -16
-27 -21 -50 -9 -26 14 -38 6 -21 -14 13 -15 7 -36 -9 -36 -14 0 -72 99 -65
110 5 8 13 6 26 -6 18 -16 19 -16 19 7 0 24 16 49 31 49 4 0 5 -15 2 -34z
m-981 -13 c22 -20 24 -53 3 -53 -8 0 -15 6 -15 14 0 16 -18 31 -27 23 -2 -3 6
-20 19 -37 l23 -32 -23 -19 c-21 -17 -26 -17 -52 -4 -31 16 -42 36 -30 55 9
15 30 5 30 -15 0 -7 7 -15 15 -19 22 -8 18 14 -6 40 -41 43 18 88 63 47z m913
-74 c21 -39 24 -54 16 -62 -9 -9 -17 -6 -31 13 -14 19 -22 22 -30 14 -9 -9 -9
-17 -1 -32 11 -20 6 -32 -14 -32 -12 0 -55 82 -55 105 0 23 28 18 35 -6 10
-30 37 -5 29 27 -11 44 21 27 51 -27z m-816 20 c23 -14 30 -24 23 -31 -7 -7
-17 -6 -31 2 -12 6 -27 9 -34 7 -7 -2 0 -10 16 -17 30 -15 39 -47 10 -35 -59
24 -76 7 -22 -21 21 -10 28 -19 21 -26 -6 -6 -23 -3 -51 11 -22 12 -41 24 -41
27 0 17 52 104 63 104 6 0 27 -9 46 -21z m84 -34 c41 -17 47 -29 34 -70 -6
-16 -11 -36 -13 -42 -4 -15 -43 -17 -79 -3 -28 11 -28 27 1 98 15 37 12 36 57
17z m555 -17 c20 -20 14 -28 -20 -26 -29 3 -33 0 -36 -23 -2 -15 4 -31 13 -39
13 -11 19 -11 33 3 15 16 15 17 -2 17 -24 0 -15 24 11 28 15 2 23 -5 31 -27 6
-17 9 -32 6 -32 -2 -1 -7 -2 -11 -3 -5 -1 -19 -8 -32 -15 -31 -17 -68 -1 -81
35 -15 37 -12 51 12 74 24 22 58 26 76 8z m-416 -25 c20 -18 24 -43 7 -43 -7
0 -17 8 -24 17 -11 15 -15 15 -29 4 -19 -16 -21 -58 -3 -64 6 -2 20 1 29 7 27
16 36 -4 11 -24 -42 -33 -99 6 -86 59 13 57 58 78 95 44z m297 -7 c6 -7 11
-24 10 -37 0 -13 2 -34 6 -46 6 -18 3 -23 -10 -23 -9 0 -19 9 -22 20 -8 29
-33 25 -33 -5 0 -41 -28 -31 -35 13 -3 20 -8 47 -11 59 -3 15 2 23 13 26 36 9
71 7 82 -7z m-115 -18 c32 -45 7 -108 -42 -108 -35 0 -49 10 -61 43 -18 48 6
87 55 87 23 0 38 -7 48 -22z m319 -23 c1 -5 -6 -11 -15 -13 -11 -2 -18 3 -18
13 0 17 30 18 33 0z m-443 -60 c0 -8 -9 -15 -20 -15 -20 0 -26 11 -13 23 12
13 33 7 33 -8z"/>
<path d="M1350 1020 c0 -5 9 -10 21 -10 11 0 17 5 14 10 -3 6 -13 10 -21 10
-8 0 -14 -4 -14 -10z"/>
<path d="M1340 975 c0 -8 9 -15 20 -15 24 0 27 15 4 24 -22 9 -24 8 -24 -9z"/>
<path d="M1760 975 c0 -17 2 -18 24 -9 23 9 20 24 -4 24 -11 0 -20 -7 -20 -15z"/>
<path d="M1640 975 c-18 -22 -8 -60 16 -63 35 -5 42 59 9 72 -7 2 -19 -1 -25
-9z"/>
<path d="M1558 2543 c6 -2 18 -2 25 0 6 3 1 5 -13 5 -14 0 -19 -2 -12 -5z"/>
<path d="M1498 2533 c7 -3 16 -2 19 1 4 3 -2 6 -13 5 -11 0 -14 -3 -6 -6z"/>
<path d="M1328 2474 c-39 -21 -35 -28 5 -8 37 19 44 24 31 24 -5 -1 -21 -8
-36 -16z"/>
<path d="M1230 2406 c-62 -49 -95 -83 -134 -141 l-28 -40 28 35 c39 48 122
130 164 162 19 15 33 27 30 28 -3 0 -30 -20 -60 -44z"/>
<path d="M2087 2387 c187 -173 258 -453 177 -697 -74 -220 -267 -396 -490
-445 -94 -21 -264 -16 -339 10 -206 71 -360 213 -429 395 -14 36 -25 59 -25
53 -1 -23 49 -146 81 -197 74 -122 172 -211 300 -271 183 -87 395 -87 583 0
386 178 517 667 274 1022 -37 53 -113 131 -159 162 -20 14 -8 -1 27 -32z"/>
<path d="M1365 2311 c-94 -23 -143 -102 -116 -190 14 -47 56 -72 171 -101 113
-28 143 -61 100 -108 -17 -18 -32 -22 -78 -22 -64 0 -98 17 -112 56 -8 20 -17
24 -49 24 -22 0 -42 -3 -44 -8 -7 -11 19 -81 38 -102 32 -35 82 -51 159 -51
134 0 201 56 193 160 -3 47 -9 59 -37 82 -20 17 -63 36 -114 49 -111 29 -134
39 -141 62 -15 46 56 91 117 73 29 -9 68 -44 68 -62 0 -9 15 -13 51 -13 46 0
50 2 45 20 -3 11 -8 29 -11 39 -3 11 -21 33 -40 50 -52 45 -123 60 -200 42z"/>
<path d="M1680 2060 l0 -240 186 0 185 0 -3 38 -3 37 -132 3 -133 3 0 64 0 64
118 3 117 3 3 38 3 37 -120 0 -121 0 0 55 0 55 125 0 125 0 0 40 0 40 -175 0
-175 0 0 -240z"/>
<path d="M1040 2179 c-7 -11 -10 -23 -7 -25 2 -2 9 7 15 21 14 30 7 33 -8 4z"/>
<path d="M1006 2105 c-9 -26 -7 -32 5 -12 6 10 9 21 6 23 -2 3 -7 -2 -11 -11z"/>
<path d="M1270 1695 c0 -40 2 -45 23 -45 29 0 47 18 47 45 0 27 -18 45 -47 45
-21 0 -23 -5 -23 -45z m55 15 c7 -23 -10 -50 -31 -50 -9 0 -14 12 -14 35 0 28
4 35 19 35 11 0 23 -9 26 -20z"/>
<path d="M1363 1695 c0 -27 2 -38 4 -22 2 15 2 37 0 50 -2 12 -4 0 -4 -28z"/>
<path d="M1401 1693 c1 -27 4 -38 6 -25 3 14 12 22 24 22 13 0 19 -7 20 -22 1
-15 4 -10 8 12 10 48 4 60 -30 60 -28 0 -29 -1 -28 -47z m49 22 c0 -8 -9 -15
-20 -15 -11 0 -20 7 -20 15 0 8 9 15 20 15 11 0 20 -7 20 -15z"/>
<path d="M1490 1695 c0 -44 1 -45 33 -44 29 1 29 2 8 8 -36 10 -38 31 -4 32
27 1 27 1 4 8 -35 9 -37 29 -4 34 27 4 27 4 -4 6 -33 1 -33 0 -33 -44z"/>
<path d="M1580 1724 c-10 -11 -11 -23 -4 -42 11 -31 45 -40 64 -17 8 10 9 15
1 15 -6 0 -11 -4 -11 -10 0 -17 -29 -11 -39 9 -13 24 9 57 33 48 10 -4 15 -3
11 3 -9 15 -41 12 -55 -6z"/>
<path d="M1672 1733 c12 -3 18 -17 21 -46 l4 -42 1 42 c2 30 7 43 20 46 9 3
-1 5 -23 5 -22 0 -32 -2 -23 -5z"/>
<path d="M1754 1726 c-3 -8 -4 -27 -2 -43 3 -24 8 -28 33 -28 23 0 32 6 39 27
7 19 6 31 -4 42 -16 20 -59 21 -66 2z m55 -15 c13 -24 -9 -57 -33 -48 -16 6
-22 47 -9 60 12 13 32 7 42 -12z"/>
<path d="M1851 1693 c1 -26 4 -38 6 -25 5 25 43 32 43 8 0 -8 4 -17 9 -20 5
-4 9 13 8 36 -2 41 -4 43 -34 46 l-33 3 1 -48z m54 22 c0 -5 -10 -11 -22 -13
-16 -2 -23 2 -23 13 0 11 7 15 23 13 12 -2 22 -7 22 -13z"/>
<path d="M1955 1710 c8 -16 15 -37 16 -47 0 -12 3 -9 8 8 5 14 14 35 20 47 6
12 8 22 3 22 -5 0 -14 -10 -20 -22 l-11 -23 -7 23 c-3 12 -10 22 -15 22 -5 0
-3 -13 6 -30z"/>
<path d="M1280 1600 c0 -5 14 -10 30 -10 17 0 30 5 30 10 0 6 -13 10 -30 10
-16 0 -30 -4 -30 -10z"/>
<path d="M1374 1597 c-4 -12 -18 -17 -50 -17 -24 0 -44 -4 -44 -10 0 -5 5 -10
10 -10 6 0 10 -24 10 -52 1 -46 2 -51 14 -35 12 15 15 15 26 2 14 -17 66 -20
75 -5 3 6 -1 10 -9 10 -12 0 -16 11 -16 44 0 24 4 46 9 48 5 2 3 12 -4 22 -13
17 -15 17 -21 3z m-4 -73 c0 -53 -23 -58 -28 -6 -2 18 -9 32 -15 32 -16 0 14
20 31 20 8 0 12 -16 12 -46z"/>
<path d="M1486 1595 c-25 -19 -12 -33 14 -17 11 7 29 12 40 12 11 0 29 -5 40
-12 26 -16 39 -2 14 17 -25 19 -83 19 -108 0z"/>
<path d="M1700 1603 c0 -7 -7 -13 -15 -13 -8 0 -15 -4 -15 -10 0 -5 5 -10 11
-10 6 0 8 -7 5 -16 -3 -9 -9 -27 -12 -40 -5 -19 -3 -23 10 -18 9 3 16 1 16 -5
0 -6 -7 -11 -15 -11 -8 0 -15 -4 -15 -10 0 -14 30 -12 35 3 2 6 6 31 8 54 3
42 17 73 17 40 0 -14 9 -17 43 -15 36 1 38 2 10 5 -41 5 -43 23 -3 23 29 0 40
13 20 25 -5 3 -10 1 -10 -4 0 -15 -37 -14 -43 2 -4 9 -8 8 -16 -3 -10 -13 -12
-13 -21 0 -6 10 -10 11 -10 3z"/>
<path d="M1895 1599 c-39 -5 -36 -12 10 -22 15 -3 13 -5 -7 -6 -27 -1 -28 -3
-28 -58 1 -50 2 -56 14 -40 15 20 42 23 49 5 4 -10 6 -10 6 0 1 6 8 12 16 12
21 0 19 18 -2 23 -17 4 -17 5 0 6 10 0 17 7 15 14 -2 7 2 15 7 17 6 3 11 -12
13 -32 3 -31 0 -38 -14 -38 -13 0 -15 -3 -7 -11 20 -20 33 1 33 52 0 46 -1 49
-27 50 -27 2 -27 2 -3 6 75 14 7 34 -75 22z m8 -64 c-3 -10 1 -15 13 -16 17 0
17 -1 -1 -8 -16 -6 -21 -4 -26 13 -7 24 -2 39 11 31 5 -3 7 -12 3 -20z m42 15
c3 -5 -1 -10 -10 -10 -9 0 -13 5 -10 10 3 6 8 10 10 10 2 0 7 -4 10 -10z"/>
<path d="M1538 1528 c-4 -56 -28 -64 -28 -9 0 23 -4 41 -10 41 -5 0 -10 -18
-10 -40 0 -22 -4 -40 -10 -40 -5 0 -10 -4 -10 -10 0 -6 30 -10 70 -10 40 0 70
4 70 10 0 6 -11 10 -25 10 -34 0 -36 46 -2 53 l22 4 -22 2 c-13 0 -23 8 -23
16 0 8 -4 15 -9 15 -6 0 -11 -19 -13 -42z"/>
<path d="M1279 1515 c-6 -40 -4 -53 7 -43 3 3 4 23 2 44 l-3 39 -6 -40z"/>
<path d="M1737 1533 c-4 -3 -7 -19 -7 -35 0 -26 3 -28 40 -28 37 0 40 2 40 29
0 29 -14 41 -49 41 -10 0 -21 -3 -24 -7z m46 -20 c-7 -2 -19 -2 -25 0 -7 3 -2
5 12 5 14 0 19 -2 13 -5z m2 -23 c3 -5 -3 -10 -15 -10 -12 0 -18 5 -15 10 3 6
10 10 15 10 5 0 12 -4 15 -10z"/>
</g>
</svg>
