<svg width="36" height="36" fill="none" xmlns="http://www.w3.org/2000/svg">
  <rect x=".5" y=".5" width="34.985" height="34.985" rx="3.5" stroke="#033C50"/>
  <path d="M15.222 9c-1.038 0-1.9.712-2.146 1.674-.027 0-.048-.007-.076-.007a2.224 2.224 0 00-2.222 2.222c0 .167.02.33.059.486a2.778 2.778 0 00-1.726 2.57c0 .437.111.843.288 1.211A2.763 2.763 0 008 19.556c0 1.156.708 2.149 1.715 2.566a2.498 2.498 0 002.451 2.99c.143 0 .282-.018.417-.043a2.493 2.493 0 004.861-.791V11.222A2.224 2.224 0 0015.222 9zM28 19.556c0-1.032-.566-1.92-1.4-2.4.181-.368.289-.774.289-1.212 0-1.16-.712-2.152-1.726-2.569.035-.156.06-.32.06-.486A2.224 2.224 0 0023 10.667c-.028 0-.052.007-.076.007A2.216 2.216 0 0020.778 9a2.222 2.222 0 00-2.222 2.222v13.056a2.493 2.493 0 004.861.792c.135.024.274.041.416.041a2.498 2.498 0 002.452-2.99A2.778 2.778 0 0028 19.556z" fill="#063C53"/>
</svg>
