<svg width="36" height="36" fill="none" xmlns="http://www.w3.org/2000/svg">
  <rect x=".5" y=".5" width="34.985" height="34.985" rx="3.5" stroke="#033C50"/>
  <path fill-rule="evenodd" clip-rule="evenodd" d="M11 16.438c0-.655.532-1.187 1.187-1.187h11.08a1.187 1.187 0 110 2.375h-11.08A1.187 1.187 0 0111 16.438zm0-5.251c0-.655.532-1.187 1.187-1.187h5.436a1.187 1.187 0 010 2.375h-5.436A1.187 1.187 0 0111 11.187zm0 10.431c0-.656.532-1.187 1.187-1.187h11.08a1.187 1.187 0 110 2.374h-11.08A1.187 1.187 0 0111 21.618z" fill="#063C53"/>
</svg>
