<svg height='100px' width='100px'  fill="#000000" xmlns="http://www.w3.org/2000/svg" xmlns:xlink="http://www.w3.org/1999/xlink" version="1.1" x="0px" y="0px" viewBox="0 0 100 100" enable-background="new 0 0 100 100" xml:space="preserve"><g><g><circle cx="50" cy="10.907" r="2.649"></circle><path d="M54.323,6.193v7.916H53.67h-0.735l-5.938-0.003l-0.667,0.003h-0.652V6.193c0-1.592-2.078-1.592-2.074,0v8.086    c0,1.758,1.036,3.482,3.094,3.482h0.003l-0.003,21.48c0,0.82,0.666,1.486,1.484,1.486c0.822,0,1.486-0.666,1.486-1.486    l0.001-12.459h0.663l-0.005,12.459c0,0.82,0.664,1.486,1.484,1.486c0.822,0,1.484-0.666,1.484-1.486l0.008-21.48    c2.059,0,3.094-1.724,3.094-3.482V6.193C56.4,4.602,54.323,4.602,54.323,6.193z"></path></g><g><circle cx="22.474" cy="77.627" r="2.914"></circle><path d="M15.559,77.004l5.598-5.598l0.46,0.462l0.521,0.52l5.618,5.624l0.476,0.47l0.46,0.462l-5.598,5.598    c-1.125,1.125,0.343,2.594,1.467,1.467l5.718-5.718c1.243-1.245,1.729-3.195,0.274-4.65l-0.002-0.002l15.191-15.187    c0.58-0.58,0.58-1.521,0.001-2.101c-0.581-0.581-1.522-0.581-2.103-0.001l-8.81,8.811l-1.891-1.893l8.813-8.807    c0.58-0.58,0.583-1.52,0-2.101c-0.581-0.581-1.52-0.579-2.1,0.002L24.459,69.546c-1.454-1.455-3.406-0.97-4.649,0.274    l-5.718,5.717C12.964,76.662,14.433,78.13,15.559,77.004z"></path></g><g><path d="M50,86.445c-1.464,0-2.65,1.187-2.65,2.65c0,1.46,1.186,2.646,2.65,2.646c1.463,0,2.649-1.186,2.649-2.646    C52.65,87.631,51.463,86.445,50,86.445z M50,91.238c-1.184,0-2.147-0.96-2.147-2.143c0-1.187,0.963-2.147,2.147-2.147    s2.146,0.961,2.146,2.147C52.147,90.278,51.184,91.238,50,91.238z"></path><path d="M44.639,95.001c0.519,0,1.039-0.399,1.039-1.193V85.89h0.652h0.735l5.938,0.004l0.668-0.004h0.651v7.918    c0,0.794,0.52,1.193,1.038,1.193c0.52,0,1.037-0.399,1.035-1.193V85.72c0-1.759-1.035-3.482-3.093-3.482h-0.003l0.003-21.478    c0-0.822-0.666-1.488-1.484-1.488c-0.822,0-1.486,0.666-1.486,1.488L50.33,73.217h-0.662l0.005-12.457    c0-0.822-0.665-1.488-1.484-1.488c-0.822,0-1.485,0.666-1.485,1.488l-0.007,21.478c-2.058,0-3.093,1.724-3.093,3.482v8.088    C43.602,94.602,44.12,95.001,44.639,95.001z M44.106,85.72c0-1.434,0.811-2.979,2.591-2.979H47.2v-0.503l0.007-21.478    c0-0.545,0.44-0.985,0.982-0.985c0.541,0,0.981,0.44,0.981,0.985l-0.005,12.457l-0.001,0.503h0.504h0.662h0.503v-0.503    l0.002-12.457c0-0.545,0.441-0.985,0.983-0.985c0.541,0,0.981,0.44,0.981,0.985l-0.004,21.478l0.003,0.503h0.504    c1.78,0,2.591,1.546,2.591,2.979v8.088c0,0.235-0.063,0.427-0.184,0.548c-0.092,0.09-0.217,0.143-0.35,0.143    c-0.246,0-0.535-0.181-0.535-0.69V85.89v-0.503h-0.503h-0.655l-0.664,0.004l-5.938-0.004H46.33h-0.652h-0.503v0.503v7.918    c0,0.51-0.289,0.69-0.536,0.69c-0.133,0-0.257-0.053-0.349-0.143c-0.121-0.121-0.184-0.312-0.184-0.548V85.72z"></path></g><g><circle cx="83.959" cy="49.188" r="2.649"></circle><path d="M87.161,53.511h-6.403V52.86v-0.736l0.003-5.939l-0.003-0.666v-0.652h6.403c1.592,0,1.592-2.077,0-2.074h-6.574    c-1.758,0-3.481,1.035-3.481,3.094v0.003l-16.446-0.003c-0.822,0-1.486,0.666-1.486,1.482c0,0.825,0.664,1.488,1.486,1.486    l7.426,0.003v0.662l-7.426-0.005c-0.82,0.001-1.486,0.664-1.486,1.482c0,0.823,0.666,1.486,1.486,1.486l16.446,0.007    c0,2.058,1.724,3.092,3.481,3.095l6.574-0.003C88.752,55.588,88.752,53.511,87.161,53.511z"></path></g><g><path d="M18.691,50.1c0-1.463-1.186-2.649-2.65-2.649c-1.461,0-2.647,1.186-2.647,2.649c0,1.464,1.186,2.65,2.647,2.65    C17.505,52.75,18.691,51.564,18.691,50.1z M13.947,50.1c0-1.156,0.94-2.096,2.095-2.096c1.155,0,2.095,0.94,2.095,2.096    c0,1.155-0.94,2.096-2.095,2.096C14.887,52.196,13.947,51.255,13.947,50.1z"></path><path d="M11.646,44.739c0,0.518,0.397,1.039,1.193,1.039h6.406v0.652v0.735l-0.003,5.938l0.003,0.668v0.652h-6.406    c-0.796,0-1.193,0.518-1.193,1.038c0,0.519,0.397,1.037,1.193,1.035h6.576c1.758,0,3.482-1.035,3.482-3.094v-0.003l16.446,0.003    c0.82,0,1.486-0.665,1.486-1.484c0-0.822-0.666-1.486-1.486-1.486L28.895,50.43v-0.662l10.448,0.005    c0.82,0,1.486-0.664,1.486-1.484c0-0.822-0.666-1.484-1.486-1.484l-16.446-0.007c0-2.058-1.724-3.094-3.482-3.094h-6.576    C12.043,43.702,11.646,44.22,11.646,44.739z M19.415,44.256c1.457,0,2.927,0.786,2.927,2.541v0.553h0.555l16.446,0.007    c0.515,0,0.933,0.418,0.933,0.931s-0.418,0.93-0.933,0.93l-10.448-0.005h-0.553v0.555v0.662v0.553h0.553l10.448,0.002    c0.515,0,0.933,0.418,0.933,0.933c0,0.514-0.418,0.93-0.933,0.93l-16.446-0.003l-0.555,0.003v0.555    c0,1.755-1.471,2.539-2.927,2.539h-6.576c-0.224,0.001-0.4-0.058-0.512-0.169c-0.083-0.081-0.128-0.191-0.128-0.312    c0-0.235,0.168-0.485,0.64-0.485h6.406h0.553v-0.553v-0.656l-0.003-0.664l0.003-5.938v-0.735v-0.652v-0.555h-0.553h-6.406    c-0.472,0-0.64-0.25-0.64-0.483c0-0.12,0.045-0.231,0.128-0.314c0.111-0.111,0.288-0.168,0.512-0.168H19.415z"></path></g><g><path d="M24.032,24.598c0.517-0.517,0.775-1.194,0.777-1.873l1.321-1.322l-2.298-0.758l-0.022,0.023    c-1.041-0.835-2.56-0.782-3.524,0.184c-0.967,0.966-1.02,2.483-0.184,3.522l-0.017,0.018l0.75,2.305l1.323-1.323    C22.837,25.374,23.515,25.115,24.032,24.598z"></path><path d="M29.064,20.587l-5.716-5.717c-1.124-1.129-2.594,0.34-1.467,1.466l5.598,5.598l-0.461,0.461l-0.52,0.519l-4.2,4.197    l-0.47,0.474l-0.461,0.461l-5.598-5.598c-1.125-1.126-2.596,0.342-1.465,1.466l5.716,5.717c1.245,1.244,3.194,1.731,4.65,0.275    l0.004-0.002l3.816,3.819l3.876,6.642l1.38-1.38l6.112,6.114c0.581,0.579,1.521,0.579,2.1,0c0.583-0.583,0.579-1.522,0-2.102    l-6.111-6.114l0.468-0.468l6.109,6.118c0.581,0.579,1.521,0.579,2.1,0c0.583-0.583,0.579-1.519,0-2.102l-6.111-6.116l1.384-1.384    l-6.638-3.872l-3.818-3.823C30.794,23.781,30.309,21.831,29.064,20.587z"></path></g><g><path d="M67.754,77.093l5.007,5.006c0.562,0.563,1.21,0.48,1.578,0.113c0.367-0.368,0.452-1.017-0.111-1.58l-4.887-4.885    l0.462-0.461l0.877-0.878l4.2-4.194l0.825-0.831l0.461-0.461l4.887,4.887c0.562,0.562,1.213,0.477,1.58,0.109    c0.365-0.366,0.451-1.015-0.113-1.577l-5.008-5.008c-1.241-1.241-3.549-1.373-5.004,0.083l0.392,0.393    c1.268-1.27,3.243-1.062,4.221-0.083l5.009,5.008c0.158,0.156,0.242,0.322,0.242,0.48c0,0.116-0.047,0.227-0.132,0.31    c-0.167,0.167-0.462,0.226-0.794-0.107l-4.887-4.887l-0.393-0.392l-0.392,0.392l-0.461,0.464l-0.825,0.828l-4.2,4.197    l-0.876,0.875l-0.461,0.462l-0.393,0.392l0.391,0.392l4.887,4.885c0.333,0.335,0.275,0.63,0.111,0.796    c-0.087,0.084-0.196,0.131-0.312,0.131c-0.158,0-0.322-0.085-0.482-0.243l-5.006-5.006c-1.032-1.03-1.516-2.626-0.275-3.867    l0.392-0.393l-0.392-0.392l-2.396-2.399l-0.062-0.062l-0.08-0.038l-4.887-2.463l0.841-0.843l0.39-0.392l-0.388-0.393l-6.111-6.114    c-0.364-0.363-0.364-0.953,0-1.317c0.36-0.36,0.95-0.36,1.314,0.003l6.111,6.114l0.392,0.393l0.393-0.393l1.179-1.181l0.392-0.39    l-0.392-0.393l-6.11-6.114c-0.365-0.363-0.365-0.953,0-1.318c0.363-0.363,0.953-0.363,1.317,0l6.11,6.115l0.393,0.392l0.391-0.392    l0.84-0.842l2.467,4.893l0.037,0.08l0.062,0.062l2.396,2.397l0.039-0.039l0.354-0.354l-2.396-2.396l-2.81-5.573l-1.38,1.38    l-6.111-6.113c-0.579-0.58-1.522-0.58-2.102,0c-0.581,0.58-0.579,1.521,0,2.102l6.111,6.114l-1.18,1.179l-6.111-6.114    c-0.578-0.579-1.519-0.583-2.098-0.003c-0.582,0.582-0.579,1.521,0,2.102l6.111,6.114l-1.385,1.384l5.57,2.806l2.396,2.399    C66.026,73.899,66.512,75.85,67.754,77.093z"></path><path d="M73.344,76.679l0.023-0.024c1.041,0.834,2.559,0.781,3.523-0.185s1.019-2.482,0.185-3.521l0.016-0.018l-2.014-2.144    l-3.868,3.871L73.344,76.679z M75.067,71.585l1.4,1.49l0.175,0.22c0.673,0.836,0.61,2.032-0.142,2.785    c-0.754,0.753-1.949,0.813-2.785,0.142l-0.178-0.124l-1.534-1.45L75.067,71.585z"></path></g><g><path d="M74.185,25.965c1.02,1.02,2.661,1.028,3.698,0.038c0.382-0.141,0.742-0.357,1.049-0.666    c1.137-1.136,1.137-2.982-0.001-4.12c-1.138-1.139-2.983-1.138-4.12,0c-0.307,0.305-0.523,0.666-0.666,1.047    C73.155,23.305,73.165,24.946,74.185,25.965z M78.54,21.609c0.922,0.921,0.922,2.417,0.002,3.336    c-0.234,0.236-0.521,0.416-0.851,0.541l-0.105,0.038l-0.083,0.08c-0.832,0.791-2.115,0.777-2.926-0.031    c-0.81-0.81-0.824-2.095-0.033-2.925l0.08-0.083l0.04-0.106c0.123-0.33,0.304-0.616,0.539-0.85    C76.122,20.688,77.62,20.688,78.54,21.609z"></path><path d="M78.393,31.195l4.648-4.649c0.402-0.401,0.486-0.803,0.486-1.07c0.002-0.986-1.304-1.828-2.342-0.789l-4.336,4.333    l-5.721-5.723l4.334-4.332c1.04-1.04,0.197-2.346-0.791-2.344c-0.266,0-0.67,0.085-1.066,0.485l-4.649,4.651    c-1.228,1.228-1.86,3.232-0.462,4.842l-1.816,1.819l-10.462,7.623l1.414,1.415l-2.356,2.357c-0.688,0.688-0.688,1.805-0.002,2.492    c0.688,0.687,1.805,0.687,2.492,0l2.357-2.356l0.076,0.074L57.84,42.38c-0.688,0.688-0.688,1.805-0.002,2.492    s1.805,0.687,2.492-0.002l2.357-2.356l1.416,1.418l7.594-10.42l1.857-1.854C75.161,33.054,77.166,32.423,78.393,31.195z     M71.28,33.155l-7.238,9.928L62.69,41.73l-2.75,2.75c-0.473,0.472-1.238,0.47-1.709,0c-0.471-0.472-0.471-1.238,0-1.709    l2.75-2.747l-0.857-0.858l-2.75,2.749c-0.472,0.472-1.237,0.472-1.709,0c-0.471-0.472-0.472-1.238,0-1.709l2.75-2.747    l-1.348-1.349l9.971-7.271l2.037-2.036l0.193-0.198l-0.195-0.198c-1.368-1.367-0.816-3.167,0.275-4.257l4.647-4.649    c0.212-0.211,0.446-0.323,0.679-0.323c0.562-0.005,1.072,0.722,0.396,1.398l-4.724,4.724l6.503,6.504l4.726-4.725    c0.677-0.673,1.399-0.165,1.399,0.398c0,0.232-0.113,0.465-0.324,0.676l-4.649,4.651c-1.093,1.091-2.889,1.643-4.259,0.274    l-0.194-0.194L71.28,33.155z"></path></g></g></svg>