<?xml version="1.0" standalone="no"?>
<!DOCTYPE svg PUBLIC "-//W3C//DTD SVG 20010904//EN"
 "http://www.w3.org/TR/2001/REC-SVG-20010904/DTD/svg10.dtd">
<svg version="1.0" xmlns="http://www.w3.org/2000/svg"
 width="513.000000pt" height="511.000000pt" viewBox="0 0 513.000000 511.000000"
 preserveAspectRatio="xMidYMid meet">

<g transform="translate(0.000000,511.000000) scale(0.100000,-0.100000)"
fill="#000000" stroke="none">
<path d="M0 2555 l0 -2555 2565 0 2565 0 0 2555 0 2555 -2565 0 -2565 0 0
-2555z m660 1615 l0 -520 -85 0 -85 0 0 398 0 397 -61 -62 c-34 -35 -63 -63
-65 -63 -2 0 -4 38 -4 84 0 94 -7 81 113 219 l59 67 64 0 64 0 0 -520z m400 0
l0 -520 -85 0 -85 0 0 397 0 397 -65 -64 -65 -64 0 90 0 90 82 97 83 97 67 0
68 0 0 -520z m508 514 c27 -8 52 -52 52 -94 0 -26 -3 -30 -29 -30 -23 0 -30 6
-37 33 -8 25 -15 32 -34 32 -21 0 -26 -5 -28 -32 -3 -28 6 -42 61 -101 46 -49
66 -78 71 -106 16 -86 -22 -136 -106 -136 -67 0 -98 32 -98 101 l0 49 34 0
c34 0 35 -1 38 -42 3 -38 6 -43 28 -43 22 0 25 5 28 39 3 36 -2 44 -51 95 -66
68 -77 88 -77 141 0 75 64 116 148 94z m513 -25 c10 -13 19 -41 19 -61 0 -35
-2 -38 -28 -38 -23 0 -30 6 -37 33 -8 25 -15 32 -35 32 -20 0 -26 -6 -28 -28
-3 -22 9 -41 57 -94 35 -37 66 -82 72 -104 25 -82 -16 -149 -92 -149 -76 0
-109 33 -109 110 0 39 1 40 34 40 34 0 35 -1 38 -42 3 -38 6 -43 28 -43 22 0
25 5 28 39 3 36 -2 44 -51 95 -66 68 -77 88 -77 141 0 33 6 48 30 72 28 28 35
30 82 26 38 -4 55 -11 69 -29z m229 2 c0 -25 -4 -30 -27 -33 l-28 -3 -3 -187
-2 -188 -35 0 -35 0 0 190 0 190 -30 0 c-25 0 -30 4 -30 23 0 13 3 27 7 30 3
4 46 7 95 7 l88 0 0 -29z m155 7 c12 -55 75 -395 75 -406 0 -7 -14 -12 -34
-12 -36 0 -46 12 -46 56 0 21 -4 24 -39 24 -41 0 -51 -11 -51 -56 0 -21 -5
-24 -35 -24 -19 0 -35 4 -35 9 0 10 68 375 77 409 4 18 12 22 44 22 32 0 39
-4 44 -22z m173 -200 l2 -218 -35 0 -35 0 0 221 0 220 33 -3 32 -3 3 -217z
m144 102 l37 -115 3 115 3 115 28 3 27 3 0 -220 0 -221 -30 0 c-29 0 -30 2
-67 122 l-38 123 -5 -120 -5 -120 -30 0 -30 0 -3 205 c-1 112 0 210 3 218 3 8
17 12 37 10 32 -3 33 -5 70 -118z m293 98 c12 -55 75 -395 75 -406 0 -7 -14
-12 -34 -12 -36 0 -46 12 -46 56 0 21 -4 24 -39 24 -41 0 -51 -11 -51 -56 0
-21 -5 -24 -35 -24 -19 0 -35 4 -35 9 0 10 68 375 77 409 4 18 12 22 44 22 32
0 39 -4 44 -22z m279 -7 c15 -15 21 -37 24 -83 3 -54 1 -66 -17 -82 l-20 -19
24 -19 c22 -17 25 -27 25 -83 0 -53 -4 -69 -24 -92 -22 -25 -31 -28 -105 -31
l-81 -4 0 222 0 223 77 -6 c58 -4 81 -10 97 -26z m136 -161 l0 -190 45 0 c43
0 45 -1 45 -30 l0 -30 -80 0 -80 0 0 220 0 220 35 0 35 0 0 -190z m288 158 c3
-27 2 -28 -47 -28 l-51 0 0 -65 0 -65 35 0 c32 0 35 -2 35 -30 0 -28 -3 -30
-35 -30 l-35 0 0 -65 0 -65 50 0 c49 0 50 -1 50 -30 l0 -31 -87 3 -88 3 -3
205 c-1 112 0 210 3 218 3 9 26 12 87 10 82 -3 83 -3 86 -30z m273 3 c24 -25
29 -37 29 -80 l0 -51 -34 0 c-34 0 -35 1 -38 47 -2 38 -7 49 -22 51 -37 8 -46
-24 -46 -164 0 -138 7 -160 47 -152 14 3 19 15 21 61 l3 57 34 0 35 0 0 -61
c0 -54 -3 -64 -29 -90 -23 -23 -38 -29 -71 -29 -94 0 -110 32 -110 222 1 99 5
150 14 167 32 58 119 69 167 22z m134 -191 l0 -215 -37 -3 -38 -3 0 214 c0
117 3 217 7 221 4 4 21 6 38 4 l30 -3 0 -215z m215 191 c0 -25 -4 -30 -27 -33
l-28 -3 -3 -187 -2 -188 -35 0 -35 0 0 190 0 190 -30 0 c-25 0 -30 4 -30 23 0
13 3 27 7 30 3 4 46 7 95 7 l88 0 0 -29z m100 -191 l0 -220 -35 0 -35 0 0 213
c0 118 3 217 7 220 3 4 19 7 35 7 l28 0 0 -220z m210 191 c0 -28 -2 -30 -47
-33 l-48 -3 -3 -62 -3 -63 36 0 c32 0 35 -2 35 -30 0 -28 -3 -30 -35 -30 l-35
0 0 -65 0 -65 50 0 c49 0 50 -1 50 -30 l0 -30 -85 0 -85 0 0 220 0 220 85 0
85 0 0 -29z m183 18 c29 -13 47 -48 47 -89 0 -27 -3 -30 -34 -30 -32 0 -35 3
-38 33 -2 27 -7 32 -28 32 -21 0 -26 -5 -28 -32 -3 -28 6 -42 61 -101 73 -77
89 -125 63 -186 -18 -43 -42 -56 -101 -56 -65 0 -95 31 -95 100 0 49 1 50 30
50 26 0 30 -4 30 -28 0 -69 63 -86 68 -19 3 33 -3 43 -51 95 -67 71 -77 89
-77 145 0 38 5 49 31 71 33 28 81 34 122 15z m-3163 -172 c0 -178 4 -197 41
-197 9 0 20 7 23 16 3 9 6 92 6 185 l0 169 35 0 35 0 0 -170 c0 -228 -14 -260
-110 -260 -33 0 -48 6 -71 29 l-29 29 0 186 0 186 35 0 35 0 0 -173z m2898
-454 c15 -16 22 -37 22 -64 0 -37 -2 -39 -30 -39 -25 0 -30 4 -30 24 0 35 -26
59 -51 46 -35 -19 -23 -56 41 -125 64 -69 80 -98 80 -145 0 -86 -83 -135 -160
-95 -38 20 -50 43 -50 99 0 46 0 46 35 46 35 0 35 0 35 -44 0 -37 4 -46 22
-52 28 -9 50 20 41 55 -3 14 -33 56 -66 94 -52 58 -61 73 -65 116 -2 27 1 58
8 70 27 52 126 60 168 14z m-3012 -188 l40 -215 -37 0 c-36 0 -38 2 -44 40 -6
38 -8 40 -45 40 -36 0 -38 -2 -44 -40 -6 -38 -8 -40 -41 -40 -32 0 -35 2 -30
23 8 34 75 391 75 399 0 5 19 8 43 8 l42 0 41 -215z m174 95 l38 -115 1 118 1
117 30 0 30 0 0 -215 0 -215 -33 0 -32 0 -42 128 -41 127 -1 -127 -1 -128 -30
0 -30 0 0 216 0 215 36 -3 37 -3 37 -115z m294 110 c46 -17 56 -55 56 -215 l0
-147 -29 -29 c-28 -27 -34 -29 -110 -29 l-81 0 0 215 0 215 69 0 c38 0 81 -4
95 -10z m334 -12 c12 -14 23 -43 28 -75 l7 -53 -36 0 c-35 0 -36 1 -39 43 -3
36 -7 43 -27 45 -13 2 -28 -2 -32 -10 -5 -7 -9 -75 -9 -150 0 -129 1 -138 21
-148 32 -18 49 4 49 61 l0 49 35 0 c35 0 35 0 34 -42 -1 -73 -19 -110 -62
-127 -30 -11 -45 -12 -77 -2 -62 18 -70 44 -70 216 0 190 12 214 106 215 40 0
55 -5 72 -22z m234 11 c36 -19 48 -69 48 -204 0 -148 -12 -187 -63 -211 -48
-23 -98 -12 -131 27 -25 30 -26 35 -26 175 0 151 9 191 47 213 24 14 99 14
125 0z m188 -104 c12 -63 24 -115 25 -115 2 0 10 44 20 98 24 140 20 132 71
132 l44 0 0 -215 0 -215 -35 0 -35 0 -1 123 -1 122 -22 -120 c-19 -105 -24
-120 -41 -120 -17 0 -23 17 -45 130 l-25 130 -3 -132 -3 -133 -29 0 -30 0 0
215 0 215 44 0 43 0 23 -115z m289 63 c6 -29 15 -81 22 -116 6 -34 13 -61 16
-59 2 2 10 44 18 93 25 144 19 134 70 134 l45 0 0 -215 0 -215 -35 0 -35 0 -1
123 -1 122 -22 -120 c-16 -93 -25 -121 -38 -123 -19 -4 -20 -2 -50 148 l-23
115 -3 -132 -3 -133 -29 0 -30 0 0 215 0 215 44 0 45 0 10 -52z m281 -128 c0
-167 1 -180 19 -190 15 -7 23 -6 35 6 13 13 16 45 16 190 l0 174 36 0 36 0 -4
-184 c-3 -169 -5 -187 -24 -213 -48 -65 -155 -49 -181 27 -7 21 -12 100 -12
203 l-1 167 40 0 40 0 0 -180z m280 60 l38 -115 1 118 1 117 30 0 30 0 0 -215
0 -215 -33 0 -32 0 -42 128 -41 127 -1 -127 -1 -128 -30 0 -30 0 0 216 0 215
36 -3 37 -3 37 -115z m210 -95 l0 -215 -40 0 -40 0 0 215 0 215 40 0 40 0 0
-215z m220 185 c0 -27 -3 -30 -30 -30 l-30 0 0 -185 0 -185 -40 0 -40 0 0 185
0 185 -30 0 c-27 0 -30 3 -30 30 l0 30 100 0 100 0 0 -30z m100 -185 l0 -215
-40 0 -40 0 0 215 0 215 40 0 40 0 0 -215z m200 185 c0 -29 -1 -30 -50 -30
l-50 0 0 -59 0 -60 38 -3 c32 -3 37 -7 40 -30 3 -27 1 -28 -37 -28 l-41 0 0
-65 0 -65 50 0 c49 0 50 -1 50 -30 l0 -30 -85 0 -85 0 0 215 0 215 85 0 85 0
0 -30z m-1865 -2255 l0 -1290 -384 -3 c-301 -2 -386 1 -393 10 -9 16 -11 2562
-1 2571 4 4 180 6 392 5 l386 -3 0 -1290z m890 -235 l0 -1055 -390 0 -390 0
-3 580 -2 580 376 478 c257 325 382 477 393 475 15 -3 16 -96 16 -1058z
m-1971 -69 c108 -140 195 -259 193 -265 -4 -12 -741 -22 -785 -11 -16 4 -22
11 -18 21 13 35 389 515 401 512 7 -2 101 -117 209 -257z m2860 43 c11 -28 6
-150 -6 -162 -17 -17 -769 -17 -786 0 -12 12 -17 134 -6 162 5 14 50 16 399
16 349 0 394 -2 399 -16z m4 -628 c1 -279 -1 -393 -9 -402 -16 -19 -768 -21
-787 -2 -9 9 -12 109 -12 389 0 208 3 385 6 393 6 15 48 16 403 14 l396 -3 3
-389z m-2673 -86 l0 -315 -137 -3 -138 -3 -2 198 -3 198 -124 3 c-93 2 -126
-1 -133 -10 -4 -7 -8 -98 -8 -201 l0 -188 -127 3 -128 3 -3 318 -2 317 402 -2
403 -3 0 -315z"/>
<path d="M2406 4501 c-4 -30 -10 -67 -13 -82 -5 -26 -3 -29 22 -29 27 0 27 0
21 54 -4 30 -11 67 -15 82 -7 26 -8 24 -15 -25z"/>
<path d="M3016 4501 c-4 -30 -10 -67 -13 -82 -5 -26 -3 -29 22 -29 27 0 27 0
21 54 -4 30 -11 67 -15 82 -7 26 -8 24 -15 -25z"/>
<path d="M3250 4561 c0 -53 2 -61 19 -61 29 0 43 25 39 72 -3 39 -6 43 -30 46
-28 3 -28 3 -28 -57z"/>
<path d="M3250 4380 c0 -66 1 -70 23 -70 34 0 47 19 47 66 0 46 -19 74 -51 74
-17 0 -19 -8 -19 -70z"/>
<path d="M1527 3920 c-3 -8 -10 -41 -15 -72 l-9 -58 28 0 c26 0 28 3 23 28 -3
15 -8 47 -13 72 -5 26 -11 39 -14 30z"/>
<path d="M2000 3865 l0 -155 23 0 c42 0 47 16 47 155 0 139 -5 155 -47 155
l-23 0 0 -155z"/>
<path d="M2556 4004 c-3 -9 -6 -73 -6 -144 0 -104 3 -132 16 -144 8 -9 19 -16
24 -16 5 0 16 7 24 16 13 12 16 40 16 134 0 137 -8 170 -44 170 -13 0 -27 -7
-30 -16z"/>
<path d="M1912 2738 c-8 -8 -12 -46 -12 -105 l0 -94 98 3 97 3 3 80 c5 127 6
125 -91 125 -51 0 -88 -5 -95 -12z"/>
<path d="M2247 2744 c-4 -4 -7 -52 -7 -106 l0 -98 95 0 96 0 -3 103 -3 102
-85 3 c-47 1 -89 0 -93 -4z"/>
<path d="M1904 2297 c-3 -8 -4 -54 -2 -103 l3 -89 95 0 95 0 3 80 c5 128 7
125 -99 125 -65 0 -91 -4 -95 -13z"/>
<path d="M2247 2303 c-4 -3 -7 -51 -7 -105 l0 -98 95 0 95 0 0 105 0 105 -88
0 c-49 0 -92 -3 -95 -7z"/>
<path d="M1904 1857 c-2 -7 -4 -54 -2 -103 l3 -89 95 0 95 0 0 100 0 100 -93
3 c-71 2 -94 0 -98 -11z"/>
<path d="M2240 1765 l0 -105 95 0 95 0 0 105 0 105 -95 0 -95 0 0 -105z"/>
<path d="M1904 1417 c-2 -7 -4 -54 -2 -103 l3 -89 95 0 95 0 0 100 0 100 -93
3 c-71 2 -94 0 -98 -11z"/>
<path d="M2240 1325 l0 -105 95 0 95 0 0 105 0 105 -95 0 -95 0 0 -105z"/>
<path d="M1904 977 c-2 -7 -4 -54 -2 -103 l3 -89 95 0 95 0 0 100 0 100 -93 3
c-71 2 -94 0 -98 -11z"/>
<path d="M2242 888 l3 -103 93 -3 92 -3 0 106 0 105 -95 0 -96 0 3 -102z"/>
<path d="M3226 2219 c-53 -66 -95 -126 -93 -132 2 -8 41 -13 110 -15 127 -3
119 -13 115 153 -2 91 -6 110 -19 113 -10 2 -51 -41 -113 -119z"/>
<path d="M3104 1977 c-3 -8 -4 -47 -2 -88 l3 -74 125 0 125 0 0 85 0 85 -123
3 c-97 2 -124 0 -128 -11z"/>
<path d="M2871 1759 c-96 -121 -112 -146 -109 -173 l3 -31 105 -3 c165 -4 151
-21 148 176 -3 142 -5 167 -19 170 -10 2 -56 -49 -128 -139z"/>
<path d="M3107 1724 c-4 -4 -7 -42 -7 -85 0 -61 3 -78 16 -83 23 -9 217 -7
232 3 9 5 12 30 10 87 l-3 79 -121 3 c-66 1 -123 -1 -127 -4z"/>
<path d="M2760 1385 l0 -86 128 3 127 3 0 80 0 80 -127 3 -128 3 0 -86z"/>
<path d="M3107 1464 c-4 -4 -7 -43 -7 -86 l0 -79 128 3 127 3 0 80 0 80 -121
3 c-66 1 -123 -1 -127 -4z"/>
<path d="M2762 1128 l3 -83 125 0 125 0 0 80 0 80 -128 3 -128 3 3 -83z"/>
<path d="M3102 1128 l3 -83 125 0 125 0 0 80 0 80 -128 3 -128 3 3 -83z"/>
<path d="M2772 951 c-9 -5 -12 -30 -10 -87 l3 -79 125 0 125 0 3 73 c2 46 -2
79 -9 88 -8 10 -38 14 -118 14 -58 0 -112 -4 -119 -9z"/>
<path d="M3112 951 c-9 -5 -12 -30 -10 -87 l3 -79 125 0 125 0 3 79 c2 57 -1
82 -10 87 -7 5 -60 9 -118 9 -58 0 -111 -4 -118 -9z"/>
<path d="M3634 1197 c-3 -8 -4 -45 -2 -83 l3 -69 130 0 130 0 0 80 0 80 -128
3 c-101 2 -128 0 -133 -11z"/>
<path d="M3984 1197 c-3 -8 -4 -45 -2 -83 l3 -69 130 0 130 0 0 80 0 80 -128
3 c-101 2 -128 0 -133 -11z"/>
<path d="M3634 937 c-3 -8 -4 -45 -2 -83 l3 -69 130 0 130 0 3 83 3 82 -131 0
c-100 0 -132 -3 -136 -13z"/>
<path d="M3984 937 c-3 -8 -4 -45 -2 -83 l3 -69 130 0 130 0 0 80 0 80 -128 3
c-101 2 -128 0 -133 -11z"/>
</g>
</svg>
