<svg width="36" height="36" fill="none" xmlns="http://www.w3.org/2000/svg">
  <rect x=".5" y=".5" width="34.985" height="34.985" rx="3.5" stroke="#033C50"/>
  <path d="M10.492 23.676l2.363-2.305c1.254 1.672 2.778 2.578 4.946 2.633a6.337 6.337 0 003.375-.875c.199.207.722.762.816.86a7.456 7.456 0 01-4.223 1.179 7.442 7.442 0 01-4.597-1.734c.012-.024-1.492 1.464-1.508 1.48.371 1.164-.512 2.438-1.809 2.438C8.81 27.348 8 26.504 8 25.457c0-1.34 1.293-2.21 2.492-1.781zm13.863-9.86c.747 1.223 1.157 2.633 1.122 4.063-.043 1.75-.743 3.418-1.899 4.726l.942.997c.375-.051.75.078 1.011.355a1.176 1.176 0 01-.043 1.656 1.176 1.176 0 01-1.656-.043 1.166 1.166 0 01-.297-1.027c-.973-1.04-1.734-1.844-1.734-1.844 1.668-1.332 2.472-3.11 2.515-4.851.028-1.13-.28-2.235-.824-3.211l.863-.82zM12.063 9.762c.262.273.368.656.297 1.027l1.793 1.879c-.183.148-.52.406-.89.832a6.293 6.293 0 00-1.59 4.02 6.327 6.327 0 00.781 3.218l-.86.84a7.394 7.394 0 01-1.085-4.09 7.493 7.493 0 011.855-4.73l-.988-1.031a1.17 1.17 0 01-1.012-.356 1.176 1.176 0 01.043-1.656 1.176 1.176 0 011.656.047zM26.16 8C27.176 8 28 8.875 28 9.887c0 1.011-.824 1.863-1.84 1.863a2.493 2.493 0 01-.62-.07l-2.458 2.332c-1.277-1.703-2.996-2.575-4.957-2.625a6.224 6.224 0 00-3.367.875l-.824-.86a7.425 7.425 0 014.222-1.18 7.403 7.403 0 014.598 1.743l1.605-1.508a1.862 1.862 0 01-.086-.566C24.27 8.848 25.145 8 26.16 8zm-8.133 4.117a5.577 5.577 0 015.477 6.258 5.577 5.577 0 01-6.215 4.836 5.578 5.578 0 01-4.836-6.219c.363-2.828 2.738-4.867 5.574-4.875zm-2.304 4.664c.023.887.476 1.633 1.265 2.04l-.43 2.019h2.88l-.43-2.02c.785-.425 1.254-1.133 1.265-2.039-.015-1.281-1.007-2.246-2.277-2.277-1.254.031-2.238.969-2.273 2.277z" fill="#063C53"/>
</svg>
