<svg version="1.0" xmlns="http://www.w3.org/2000/svg" width="686.667" height="682.667" viewBox="0 0 515 512"><path fill="#fff" d="M0 255.5V511h513V0H0v255.5zM79.4 42c12 1.9 17.7 9 18.4 22.7.6 10.7-1 16.4-5.6 20.4l-3.5 3.1 3.2 2.5c6.2 4.8 7.5 9.1 7.6 24.3 0 12.6-.2 13.9-2.7 19.2-4.3 9.2-12.7 13.4-25.2 12.6-8.7-.6-14.5-3.4-18.5-8.8-4.2-5.9-5.4-12.3-4.9-25.9.5-13 1.6-15.9 7.3-20.9l3.5-3.1-2.4-1.7c-1.4-.8-3.5-3.6-4.7-6-1.8-3.9-2.1-5.8-1.7-14.2.3-7.5.9-10.7 2.6-13.9 2.7-5.3 8.4-9.2 14.9-10.3 2.6-.4 5-.8 5.3-.9.3 0 3.2.3 6.4.9zm71.9 1.1c5.6 1.5 6.9 4.4 7.5 15.9.6 13.2-.4 20.4-3.3 23.8-2.1 2.4-3.1 2.7-10.4 3l-8.1.4V42h5.3c2.8 0 6.9.5 9 1.1zM180 45c0 2.9-.1 3-5 3h-5v13h3.5c3.2 0 3.5.2 3.5 3s-.3 3-3.5 3H170v13h5c4.9 0 5 .1 5 3v3h-17V42h17v3zm19.9-1.5c3.5 1.7 4.1 3.2 4.1 9.6 0 4.8-.1 4.9-3 4.9-2.8 0-3-.2-3-3.9 0-4.4-1.9-6.6-5-5.6-1.9.6-2 1.4-2 15.6 0 12.9.2 15 1.6 15.6 3.1 1.2 4.9-1.1 5.2-6.6.3-4.9.4-5.1 3.3-5.1s2.9.1 2.9 5.5c0 6-1.9 10.9-4.5 11.9-.9.3-3.4.6-5.4.6-4.9 0-8.7-3-10.1-7.8-1.2-4.6-1.3-22.3 0-27.7 1.7-7.5 8.9-10.6 15.9-7zm25.9 1.7c.3 2.7.2 2.8-4.7 2.8H216v13h3.5c3.2 0 3.5.2 3.5 3s-.3 3-3.5 3H216v13h5.1c4.9 0 5 .1 4.7 2.7l-.3 2.8h-17l-.3-20.5c-.1-11.2 0-21 .3-21.8.3-.9 2.6-1.2 8.7-1 8.2.3 8.3.3 8.6 3zm14.7 9.3l4 12 .3-12.3.3-12.3 2.7.3 2.7.3v43l-3.1.3-3.1.3-3.9-12.6-3.9-12.5-.5 12.2-.5 12.3-2.7.3-2.8.3V41.9l3.3.3c3.2.3 3.2.4 7.2 12.3zm32.5-9.6c0 2.5-.4 3-2.7 3.3l-2.8.3-.3 18.7L267 86h-7V48h-3c-2.7 0-3-.3-3-3v-3h19v2.9zm16.4-1.2c.2 1 1 7 1.7 13.3.7 6.3 1.4 10.9 1.7 10.2.2-.8 1.2-6.6 2.1-13 1.6-11.4 1.7-11.7 4.3-12 3.1-.4 3.2-.2 4.9 12.8 1.8 14.4 2.5 14.7 3.8 2 .7-6.3 1.5-12.3 1.7-13.3.5-1.7 4.9-2.5 5.7-1 .3.6-4.3 38.6-5.2 43-.2.8-6.1.2-6.6-.6-.3-.6-1.3-6-2.2-12-.9-6.1-2-11.1-2.3-11.1-.3 0-1.2 4.2-1.9 9.2-2.1 15.4-1.9 14.8-5.6 14.8h-3.3l-1.2-8.3c-3.2-22.6-4.6-34.8-4.2-35.2 1.3-1.3 6.1-.4 6.6 1.2zm45.5-.3c4.3 2.3 5.1 5.4 5.1 20.7 0 18.3-1.7 21.9-10.4 21.9-4.8 0-8.1-1.7-9.7-4.9-1.5-3.1-2.4-22.1-1.4-28.8 1.3-8.7 8.8-12.8 16.4-8.9zm25.4.1c2.8 1.1 4.7 5.9 4.7 12 0 5-.4 6-2.9 8.4l-2.9 2.7 3.4 9.4c1.9 5.2 3.4 9.6 3.4 9.8 0 .2-1.7.2-3.7 0-3.8-.3-3.8-.3-6.8-8.8l-3-8.5-.5 8.5-.5 8.5h-7l-.3-20.5c-.1-11.2 0-21.1.3-21.9.4-1.1 2-1.3 7.3-.8 3.7.3 7.5.9 8.5 1.2zm15.9 7.7l.3 9.3 3.8-9.3c3.8-9.1 3.9-9.2 7.4-9.2 2.5 0 3.4.4 3 1.4-.3.7-2.2 5.2-4.3 9.9l-3.7 8.6 4.1 11.4c2.3 6.3 4.2 11.7 4.2 12.1 0 .4-1.7.6-3.7.4l-3.7-.3-3.5-9.9-3.6-9.8-.3 10.1-.3 10.1H369V42h6.9l.3 9.2zm40.7-4c2.2 10.6 7.1 37 7.1 37.9 0 .5-1.5.9-3.4.9-3.6 0-4.6-1.2-4.6-5.6 0-2.1-.4-2.4-4-2.4-3.5 0-4 .3-4.6 2.7-.3 1.6-.7 3.4-1 4-.4 1.6-6.4 1.7-6.4.2 0-1.1 6.5-36.4 7.5-40.7.4-1.8 1.2-2.2 4.4-2.2h4l1 5.2zm21.2 6.8l3.7 11.5.3-11.5.4-11.5 2.8-.3 2.7-.3V86h-3c-2.9 0-3-.2-7.2-13.3l-4.3-13.2-.3 13.3-.3 13.3-2.7-.3-2.7-.3-.3-20.5c-.1-11.2 0-21 .3-21.8.3-.8 1.7-1.2 3.7-1 3.2.3 3.3.5 6.9 11.8zm33.2-8c2.7 3 2.7 3.1 2.7 17.6 0 17-.9 19.7-6.8 21.4-2 .6-6.2 1-9.2.8l-5.5-.3-.3-20.5c-.1-11.2 0-21.1.3-21.9.4-1.1 2.1-1.3 8.3-.8 7 .5 8 .9 10.5 3.7zM154 106c0 2.9-.1 3-5 3h-5v12h3.5c3.2 0 3.5.2 3.5 3s-.3 3-3.5 3H144v13h5c4.9 0 5 .1 5 3v3h-17v-43h17v3zm21.8-.8c1.2 1.4 2.3 4.3 2.8 7.5l.7 5.3h-3.6c-3.5 0-3.6-.1-3.9-4.3-.3-3.9-.5-4.2-3.3-4.2h-3l-.3 14.5c-.2 12.6 0 14.6 1.4 15.7 3.1 2.3 5.4-.1 5.4-5.7v-5h7.3l-.6 5.7c-1 9.5-5.7 13.5-13.6 11.3-6.4-1.7-7.6-4.8-7.6-20.5 0-19.5 1.5-22.5 10.8-22.5 4.3 0 5.8.5 7.5 2.2zm25-.2c3.2 3 3.7 6 3.7 20.5 0 10.4-.4 13.6-1.8 16.2-3.6 6.7-14.8 6.6-18.5 0-1.4-2.6-1.7-5.8-1.7-16.2 0-7.2.3-14.2.8-15.7 1.3-4.7 4.5-6.8 10.2-6.8 3.8 0 5.7.5 7.3 2zm18.8 9.7l3.9 11.8.3-11.8.3-11.7h5.9v43h-6.8l-4-12.3-4-12.2-.1 12.2-.1 12.3h-6v-43h6.7l3.9 11.7zm32.1-10.2c1.2.9 2.7 3.2 3.3 5.3 1.4 5 1.2 25.9-.3 30.2-2.5 7.3-12.4 8.9-17.9 2.9L234 140v-31.2l2.9-2.9c2.5-2.4 3.8-2.9 7.8-2.9 2.7 0 5.8.7 7 1.5zm18.9 9.8c1.2 5.9 2.3 11 2.6 11.2.2.3 1.2-4.7 2.2-11l1.8-11.5h9.8l-.2 21.2-.3 21.3-3.2.3-3.3.3-.1-13.3c-.1-14.2-.3-13.9-3.4 3.4-1.4 7.9-2 9.8-3.4 9.8s-2.2-2.4-4.3-12.8l-2.6-12.7-.1 12.7-.1 12.8h-6v-43.1l4.2.3 4.2.3 2.2 10.8zm27.4 10.2V146h-7v-43h7v21.5zm22.5-19c2 1.9 2.5 3.4 2.5 7.5 0 4.8-.1 5-2.9 5-2.6 0-2.9-.4-3.5-4.5-.6-3.9-1-4.5-3.2-4.5-3.7 0-4.6 3.7-4.2 17.8.2 9.6.6 12.5 1.8 13.2 3.3 2.1 5.2.1 5.8-5.9.4-4.8.6-5.1 3.3-5.1 2.8 0 2.9.2 2.9 5 0 2.8-.7 6.4-1.5 8-3 5.8-12.8 6.2-16.9.6-1.8-2.3-2.2-4.5-2.4-14.3-.7-20.8 1.3-25.3 10.8-25.3 4.1 0 5.6.5 7.5 2.5zm31.5-.7c1.7 1.3 2.4 3.2 2.8 7.1l.5 5.2-3.4-.3c-3-.3-3.5-.7-3.9-3.8-.4-2.7-1-3.6-2.9-3.8-1.3-.2-2.8.2-3.2 1-.5.7-.9 7.2-.9 14.5 0 10.6.3 13.5 1.6 14.7 3.2 3.2 5.4.9 5.4-5.6 0-3.6-.4-4.8-1.5-4.8-1 0-1.5-1-1.5-3 0-2.9.1-3 5-3h5v23h-2.5c-1.6 0-2.5-.6-2.5-1.5 0-1.3-.6-1.1-2.9.6-3.9 2.9-8.5 1.9-11.2-2.4-1.8-2.9-1.9-4.7-1.7-19l.3-15.9 2.8-2.4c3.6-3 11.3-3.4 14.7-.6zm24.6.5c2.3 2 2.8 3.4 3.2 8.3.4 6.8-1 11.4-3.8 12.1-1.1.3-2 .7-2 .8 0 .1 1.6 4.6 3.5 9.9l3.5 9.6h-7.9l-2.8-8.7-2.8-8.6-.5 8.4-.5 8.4-3.7.3-3.8.3V103h7.4c6.4 0 7.9.3 10.2 2.3zm25.1-.8c1.2.9 2.7 3.2 3.3 5.3 1.4 5 1.2 25.9-.3 30.2-2.5 7.3-12.4 8.9-17.9 2.9L384 140v-15.4c0-15.2 0-15.5 2.6-18.5 2.3-2.7 3.2-3.1 7.8-3.1 3 0 6.1.6 7.3 1.5zm13.7.2c.2 1 1 6.7 1.7 12.8 1.4 12.4 1.9 11.8 3.9-4.3l1.2-10.2h2.9c3.3 0 3.1-.5 5.4 14.6.8 5.6 1.6 10.5 1.6 11 .1.5.9-5 1.8-12.1l1.6-13 3.3-.3c3-.3 3.2-.1 2.8 2-.3 1.3-1.5 9.9-2.6 19.3-2.8 22.9-2.4 21.5-6.4 21.5h-3.4l-1.8-11.5c-1-6.3-2.1-11.5-2.5-11.5-.3 0-.9 2.4-1.3 5.2-.4 2.9-1.2 8.1-1.7 11.5-1.1 6.2-1.1 6.3-4.4 6.3-3.8 0-3.4 1.5-6.5-22.5-1.1-8.8-2.3-17-2.5-18.3-.5-1.9-.1-2.2 2.9-2.2 2.4 0 3.6.5 4 1.7zM463 106c0 2.7-.3 3-3 3h-3v37h-7v-37h-3c-2.7 0-3-.3-3-3v-3h19v3zm11 6v9h7v-18h7v43h-7v-19h-7v19h-7v-43h7v9zm-97 79.7c0 3.7-8.7 41.7-9.6 42-.5.2-3.2-1.9-5.9-4.7l-5-5-51.7 51.7-51.8 51.8-21.3-21.3-21.2-21.2-33 33c-18.1 18.2-33.5 33-34 33-.6 0-3.7-2.7-7-6l-6-6 39.5-39.5c21.7-21.7 39.9-39.5 40.5-39.5.5 0 10.3 9.3 21.7 20.7l20.8 20.8 45.2-45.2 45.3-45.3-5.4-5.4c-4.4-4.4-5.1-5.7-3.8-6.2 2.4-.9 38.9-9.2 41-9.3 1-.1 1.7.6 1.7 1.6zm-19.5 158.4v99.4l-29.2.3-29.3.2V304l2.8-2.9c7.8-8.5 53.7-51.1 54.6-50.8.8.3 1.1 30.4 1.1 99.8zm-149.7 32.1l-.3 67.3-28.9.3c-22.5.2-29.1-.1-29.8-1-.9-1.5-1.1-75.2-.2-78.6.8-3 55.3-55.1 57.7-55.2 1.6 0 1.7 3.7 1.5 67.2zm75.7 4.4v62.9h-59v-61.9c0-52.8.2-62 1.4-62.4.9-.3 6.1 4.4 13.6 12.2 6.6 6.9 12.5 12.6 13 12.6s7.1-6.1 14.6-13.6c7.6-7.5 14.4-13.4 15.1-13.2 1.1.4 1.3 12.3 1.3 63.4z"/><path fill="#fff" d="M70.2 56c-3.1 1.3-4.2 4.9-4.2 13.6 0 6.6.3 7.8 2.5 9.9 2.5 2.6 6.3 3.2 9.5 1.5 5.7-3 5.3-22.2-.6-24.8-2.9-1.4-4.1-1.4-7.2-.2zm-2.1 41.6c-1.1 1.4-2.3 4.9-2.7 8.1-1 8 .1 20.9 2 23.8 3.1 4.7 10.8 4.4 13.3-.5.8-1.6 1.3-7.1 1.3-15.8 0-12.8-.1-13.4-2.5-15.7-3.4-3.4-8.6-3.4-11.4.1zm76.6-48.9c-.4.3-.7 7.5-.7 16V80h2.3c4.2 0 4.7-1.6 4.7-16.2 0-12.6-.2-13.8-1.9-14.8-2.3-1.2-3.5-1.3-4.4-.3zm182 0c-.4.3-.7 7.3-.7 15.5 0 12.8.2 14.9 1.6 15.5.9.3 2.4.2 3.3-.4 1.3-.8 1.6-3.4 1.9-14.8.2-9.3-.1-14.2-.9-15.1-1.2-1.5-4.1-1.9-5.2-.7zM460 64c0 15.1.1 16 1.9 16 4.4 0 5.1-2.4 5.1-16s-.7-16-5.1-16c-1.8 0-1.9.9-1.9 16zm-269.3 45.6c-.4.4-.7 7.2-.7 15 0 13 .2 14.4 1.9 15.3 1.3.7 2.3.7 3.5-.2 1.4-1.1 1.6-3.1 1.4-15.7l-.3-14.5-2.5-.3c-1.4-.2-2.9 0-3.3.4zm50.9.9c-.3.9-.6 7.4-.6 14.5 0 10.4.3 13.2 1.6 14.4 1.9 2 2.8 2 4.3.2.8-.9 1.1-6 .9-15.7l-.3-14.4-2.6-.3c-1.7-.2-2.9.3-3.3 1.3zm150 0c-.3.9-.6 7.7-.6 15 0 12.5.1 13.5 2.1 14.5 1.5.9 2.4.8 3.5-.1 1.2-1 1.4-4 1.2-15.8l-.3-14.6-2.6-.3c-1.7-.2-2.9.3-3.3 1.3z"/></svg>