<svg version="1.0" xmlns="http://www.w3.org/2000/svg" width="682.667" height="684" viewBox="0 0 512 513"><path fill="#fff" d="M0 255.5V511h511V0H0v255.5zM83 44.1c5.9 3.2 9.8 9.6 11.1 18.3.6 4 .9 18.7.7 36l-.3 29.2-3 5.9c-4.8 9.3-11.2 12.8-23.3 12.6-7.4 0-12.7-1.7-16.6-5.2-4.4-3.8-6.3-8.8-7.2-18.3l-.7-7.6H60v3.7c0 6.3 1.7 10.9 4.6 12.1 3.9 1.9 7.3 1.4 9.9-1.3 2.4-2.3 2.5-2.9 2.5-16.2 0-12.7-.1-13.6-1.6-11.5-4.5 6.5-18.2 7.3-24.8 1.4-1-.9-2.8-3.5-4-5.7-1.9-3.7-2.1-5.5-2.1-22.5 0-18.5 0-18.5 2.8-23.3 4.7-8 11.1-10.9 23.2-10.4 6.3.2 9.1.9 12.5 2.8zM127 64v22h-7V42h7v22zm13.1-10l3.7 11.5.4-11.5.3-11.5 2.8-.3 2.7-.3V86h-3c-2.9 0-3-.2-7.2-13.3l-4.3-13.2-.3 13.3-.3 13.3-2.7-.3-2.7-.3-.3-20.5c-.1-11.2 0-21 .3-21.8.3-.8 1.7-1.2 3.7-1 3.2.3 3.3.5 6.9 11.8zm29.2-10.5C173 45 174 49.2 174 64c0 19.7-1.6 22-15.1 22H153V41.7l7.3.6c3.9.3 8 .9 9 1.2zm46-.4c2.9 1.3 4.7 4.8 4.7 8.9 0 2.7-.3 3-3.4 3-3.2 0-3.5-.3-3.8-3.3-.2-2.7-.7-3.2-2.8-3.2-2.1 0-2.6.5-2.8 3.3-.3 2.8.5 4.1 5.8 9.6 6.9 7.2 8.6 11.6 6.9 17.9-1.4 5.2-4.6 7.1-11.1 6.5-6.5-.7-8.7-3.3-8.8-10.1 0-4.6.1-4.7 3-4.7 2.4 0 3 .4 3 2.2 0 5.1 1.1 6.9 3.9 6.6 2.2-.3 2.6-.8 2.9-4.1.3-3.4-.2-4.3-5.9-10.3-6-6.2-6.3-6.7-6.6-12.2-.4-5.9.4-7.8 4.2-10 2.6-1.5 7.7-1.5 10.8-.1zM240 45c0 2.7-.3 3-3 3h-3v38h-7l-.2-18.8-.3-18.7-2.7-.3c-2.4-.3-2.8-.8-2.8-3.3V42h19v3zm19.8.5c1.7 2.1 2.2 3.8 2.2 8.3 0 7.5-.7 9.7-3.5 11.2l-2.3 1.2 2.8 7.7c4.8 13.2 4.7 12.3.3 11.9l-3.8-.3-3.2-9-3.2-9v9.3l-.1 9.3-3.7-.3-3.8-.3-.3-20.5c-.1-11.2 0-21.1.3-21.9.4-1.1 2.1-1.3 8.3-.8 6.7.5 8 .9 10 3.2zm11.7 4.2c1.1 4 2.2 7.3 2.5 7.3.3 0 1.4-3.3 2.5-7.3 1.9-6.9 2.1-7.2 5.3-7.5 1.7-.2 3.2.1 3.2.6s-1.8 6.9-4 14.2c-3.2 10.6-4 14.9-4 21.2V86h-7v-8.7c0-7.1-.6-10.7-3.6-20.2-1.9-6.4-3.8-12.4-4.1-13.4-.4-1.6.1-1.8 3.4-1.5l3.8.3 2 7.2zM304 64v22h-7V42h7v22zm13.1-10.5l3.7 11 .3-11 .4-11h6v43l-3.1.3-3.1.3-3.6-11.4c-2.1-6.3-3.8-12.1-3.9-12.8-.1-.8-.5 4.2-.8 11.1-.5 12.2-.6 12.5-2.9 12.8-1.3.2-2.8-.2-3.2-1-1-1.6-1.2-41.2-.2-42.2.4-.4 2.1-.6 3.8-.4 2.9.3 3.1.7 6.6 11.3zm23.7.7l4 12.3.1-12.3.1-12.3 2.8.3 2.7.3.3 21.7.2 21.8h-2.9c-1.6 0-3.2-.4-3.5-.9-.3-.4-2.3-6.4-4.5-13.2l-4-12.4-.1 13.2V86h-6V42h6.8l4 12.2zm29.1-10.8c4.3 2.3 5.1 5.4 5.1 20.7 0 15.4-1 19.2-5.6 20.9-5.5 2.1-11.8.7-14.4-3.3-1.9-2.9-2.7-26.5-1.1-31.8 2.1-7 9.3-9.9 16-6.5zm13.8 6.6c3 18.5 3.6 21.4 4 20.3.2-.7 1.4-7.2 2.6-14.5l2.3-13.3 3.2-.3c2.3-.2 3.2.1 3.2 1.1 0 1.6-6.8 38.2-7.6 40.9-.6 2.2-8.4 2.6-8.4.5-.1-.6-1.8-10.2-3.9-21.2-2.1-11-3.7-20.4-3.4-20.8.3-.4 1.9-.7 3.6-.5 3.1.3 3.2.4 4.4 7.8zm28.3-7.7c0 .1 1.8 9.7 4 21.2s4 21.3 4 21.7c0 .5-1.5.8-3.4.8-3.6 0-4.6-1.2-4.6-5.6 0-2.3-.3-2.5-4.2-2.2-4.1.3-4.3.5-4.8 3.8-.4 3.1-.9 3.5-3.7 3.8-2.1.2-3.3-.1-3.3-.9 0-1.5 6.9-38.7 7.6-41.2.4-1.2 1.6-1.7 4.5-1.7 2.1 0 3.9.1 3.9.3zm24.8 2.9c.3 2.5 0 2.8-2.7 2.8H431l-.2 18.7-.3 18.8h-7l-.3-18.8L423 48h-3c-2.5 0-3-.4-3-2.3 0-1.3.3-2.7.7-3.1.4-.4 4.8-.5 9.8-.4 9 .3 9 .3 9.3 3zM445 64v22h-7V64.7c0-11.8.3-21.7.7-22 .3-.4 1.9-.7 3.5-.7h2.8v22zm20.3-20c3.6 2.9 4.7 7.6 4.7 20.8 0 12.3-1.2 16.8-5.1 19.6-4.7 3.3-12.8 1.5-15.4-3.3-2-4-2.1-30.3-.1-34 2.9-5.2 11.2-6.8 15.9-3.1zm17.6 10.2l4 12.3V54.2L487 42h6v44.1l-3.2-.3c-3.2-.3-3.2-.4-7.4-13.3l-4.2-13-.1 13.2L478 86h-6V64.7c0-11.8.3-21.7.7-22 .3-.4 1.9-.7 3.4-.7 2.7 0 3 .4 6.8 12.2zM184 59.9c0 9.3.3 17.6.6 18.5.8 2.1 5 2.1 5.8 0 .3-.9.6-9.2.6-18.5V43h7v16.2c0 9-.5 18-1 20-1.4 4.8-4.3 6.8-9.8 6.8-3.5 0-4.9-.6-7.3-2.9l-2.9-2.9V43h7v16.9zm127.9 45.5c1.1 1.2 2.1 3.8 2.3 6.1.3 3.9.2 4-2.9 4.3-3.1.3-3.3.1-3.3-2.6 0-3.9-2.2-5.7-4.9-4.2-3.7 2-2.6 5.6 3.8 12.3 6.9 7.3 8.1 9.4 8.1 14.1 0 6.6-4.2 11.6-9.8 11.6-6.9 0-11.2-4.6-11.2-12 0-3.9.1-4 3.5-4s3.5.1 3.5 3.8c0 5.8 3.8 8.4 6 4.1 1.8-3.3.3-6.7-5.5-12.8-7.7-8.1-9.3-13.3-5.8-19.2 2.9-4.9 12.2-5.8 16.2-1.5zM135 103.2c0 .2 1.8 9.5 4 20.8s4 20.9 4 21.3c0 .5-1.7.7-3.7.5-3.5-.3-3.8-.6-4.3-3.8-.4-3.1-.9-3.5-3.9-3.8-3.8-.4-5.1.9-5.1 5 0 2.5-.4 2.8-3.5 2.8-1.9 0-3.5-.5-3.5-1.1 0-1.3 7-38.7 7.6-40.7.3-1 8.4-1.9 8.4-1zm20.2 11l3.6 11.3.1-11.3.1-11.2h6v43.1l-3.1-.3c-3-.3-3.2-.6-6.9-12.3l-3.9-12-.3 12-.3 12-3.2.3-3.3.3V103h7.6l3.6 11.2zm30.9-8.3l2.9 2.9v31.4l-2.9 2.9c-2.7 2.7-3.5 2.9-10.5 2.9H168v-43h7.6c7 0 7.8.2 10.5 2.9zm17.9 18.7v21.5l-3.7-.3-3.8-.3-.3-21.3-.2-21.2h8v21.6zm13.1-9.6l3.7 11.5.1-11.8.1-11.7h6v43.1l-3.2-.3c-3.2-.3-3.3-.4-7.3-12.8l-4-12.5-.3 12.7-.3 12.8H206v-43.1l3.7.3 3.7.3 3.7 11.5zm28.9-9c0 2.9-.2 3-4.5 3H237v12h3.5c3.2 0 3.5.2 3.5 3s-.3 3-3.5 3H237v19h-8v-43h17v3zm19.5-.5c2.2 2.1 2.5 3.3 2.5 9.9 0 6.8-.2 7.6-2.6 9.5l-2.6 2 2.6 7.8c1.5 4.3 3 8.4 3.4 9.1.5.7 2.4-7.3 4.7-19.8l3.9-21h8.4l3.7 19.7c2 10.9 3.9 20.6 4.2 21.5.4 1.5-.2 1.8-3.6 1.8-3.8 0-4.1-.2-4.1-2.8 0-4.1-1.3-5.4-5.1-5-3 .3-3.5.7-3.9 3.8l-.5 3.5h-14.7l-3.3-9-3.4-9v9.2l-.1 9.3h-7v-43h7.5c6.7 0 7.9.3 10 2.5zm68.5.5c0 2.7-.3 3-3 3h-3v37h-7v-37h-3c-2.7 0-3-.3-3-3v-3h19v3zm18.7-1.5c5.1 3.5 5.4 16.7.6 20.5l-2.6 2 3.2 8.6c1.7 4.7 3.1 9 3.1 9.6 0 .5-1.7.8-3.7.6-3.6-.3-3.6-.3-6.7-9.3l-3.1-9-.3 9.2-.3 9.3H336v-43h7.3c4.9 0 8 .5 9.4 1.5zM366 121c0 16.2.2 18 1.8 18.9 1.1.6 2.4.6 3.5 0 1.5-.9 1.7-3 1.7-18.9v-18h7v17.2c0 14.5-.3 17.9-1.8 20.8-3.2 6.6-11.8 7.7-16.8 2.3-2.4-2.5-2.4-2.9-2.4-21.4V103h7v18zm34-16.2c1.8 1.4 2.4 3.2 2.8 7.5l.4 5.7h-3.5c-3.5 0-3.6-.1-3.9-4.2-.3-4.6-2.5-6.1-5.3-3.8-2.2 1.9-2.1 27.2.1 29.4 1.8 1.8 1.7 1.8 3.8 1 1.2-.5 1.6-2 1.6-6V129h7v5c0 6.7-2.1 10.5-6.4 12-4.9 1.6-9.6.1-12.3-4-2.1-3-2.3-4.5-2.3-16.7 0-18.9 1.7-22.2 11.1-22.3 3.1 0 5.5.6 6.9 1.8zm23 1.2c0 2.7-.3 3-3 3h-3v37h-7v-37h-3c-2.7 0-3-.3-3-3v-3h19v3zm9 15c0 16.2.2 18 1.8 18.9 1.1.6 2.4.6 3.5 0 1.5-.9 1.7-3 1.7-18.9v-18h7.2l-.4 18.3c-.3 15.6-.6 18.7-2.1 21-3.5 5.4-11.6 5.9-16.3 1.2-2.4-2.4-2.4-2.7-2.4-21.5v-19h7v18zm32.9-16.3c4.8 3.9 5 16.7.3 20.3l-2.5 2 3.2 8.6c1.7 4.7 3.1 9 3.1 9.6 0 .5-1.7.8-3.7.6-3.6-.3-3.6-.3-6.7-9.3l-3.1-9-.3 9.2-.3 9.3H448v-43h7.4c5.5 0 7.9.4 9.5 1.7zM488 106c0 2.9-.1 3-5 3h-5v12h3.5c3.2 0 3.5.2 3.5 3s-.3 3-3.5 3H478v13h5c4.9 0 5 .1 5 3v3h-17v-43h17v3zM293.7 209.1c17.1 9.9 31.6 18.6 32.2 19.3.7.8 1.2 13.6 1.3 37.1l.3 35.9 29.7 17.1c16.3 9.5 30.4 17.7 31.2 18.5 1.4 1.1 1.6 6.1 1.6 38.9 0 20.7-.4 38.1-.8 38.8-1.5 2.4-65.4 38.5-67.2 38-1.1-.3-15.2-8.2-31.5-17.6-16.2-9.4-30-17.1-30.6-17.1-.6 0-14.7 7.9-31.4 17.5-16.6 9.6-30.9 17.5-31.6 17.5-.8 0-16-8.5-33.9-18.8l-32.5-18.8-.3-38.5c-.2-34.8-.1-38.8 1.4-40 .9-.8 15-9.1 31.3-18.5l29.6-17.2.3-35.9c.2-32.7.4-36.2 2-37.6 1.4-1.3 52.2-30.9 61.7-36 1.7-.9 3.7-1.4 4.5-1.1.8.3 15.5 8.6 32.7 18.5z"/><path fill="#fff" d="M65.4 56.2C61.8 57.9 61 61.4 61 75c0 12 .2 13.1 2.3 15.4 3.2 3.6 8.4 3.9 11.7.6 1.8-1.8 2-3.3 2-16.5 0-14.2-.1-14.7-2.5-17-2.5-2.6-5.6-3.1-9.1-1.3zM160 64v16h2.3c4.2 0 4.7-1.6 4.7-16.2 0-12.6-.2-13.8-1.9-14.8-4.9-2.6-5.1-2.1-5.1 15zm201-13.4c-.6 1.4-1 7.4-1 13.4s.4 12 1 13.4c1 2.8 3.8 3.4 5.8 1.4 1.5-1.5 1.7-26.1.2-28.9-1.5-2.8-4.9-2.4-6 .7zm95.2-1.4c-.8.8-1.2 5.3-1.2 14.9 0 14.4.6 16.5 4.7 15.7 1.6-.3 1.8-1.7 1.8-15.8 0-14.8-.1-15.5-2-15.8-1.1-.1-2.6.3-3.3 1zM175 124.5V140h2.9c1.7 0 3.1-.6 3.5-1.6.3-.9.6-7.3.6-14.3 0-13.5-.5-15.1-4.7-15.1H175v15.5zM201 267v29.2l6.8-3.9c31.5-17.7 43.1-24.8 41.9-25.9-.6-.6-10.4-6.4-21.7-12.9-11.3-6.5-22-12.6-23.7-13.7l-3.3-2V267zm92.8-14.7c-13.6 7.8-24.8 14.5-24.8 14.8 0 .7 49.2 29.1 49.7 28.6.2-.2.2-13.3.1-29l-.3-28.6-24.7 14.2zm-63.1 36.5c-13 7.5-23.7 14.1-23.7 14.7-.1.9 46.6 28.4 48.3 28.5.4 0 .7-12.8.7-28.5s-.3-28.5-.7-28.5c-.5 0-11.5 6.2-24.6 13.8zm33.3 14.7c0 15.7.2 28.5.6 28.5.7 0 49.4-28.1 49.4-28.5 0-.4-48.6-28.5-49.4-28.5-.3 0-.6 12.8-.6 28.5zm31.3 20.7c-14.5 8.4-26.3 15.4-26.3 15.7 0 1 52.4 30.6 54.1 30.5 1.5 0 52.5-29 53.3-30.3.5-.7-51.8-31.1-53.6-31.1-.7 0-13.1 6.9-27.5 15.2zm-157.1 54.5l.3 31.7 26.5 15.3c14.5 8.4 26.8 15.3 27.2 15.3.5 0 .7-14.1.6-31.2l-.3-31.3-25.5-14.8c-14-8.1-26.3-15.2-27.3-15.8-1.6-.9-1.7.7-1.5 30.8zm92.6-17.4c-13.6 7.8-24.7 14.5-24.8 14.8 0 .8 49.1 29.2 49.6 28.6.2-.2.3-13.3.2-29l-.3-28.5-24.7 14.1zm123.5 1.5L327 378.5v31.2c0 17.2.3 31.3.6 31.3.8 0 50-28.2 52.7-30.2 1.6-1.2 1.7-3.7 1.5-32.5l-.3-31.1-27.2 15.6zM201 412.6c0 24.8.2 28.5 1.5 28 2-.7 46.8-26.6 47.8-27.5.6-.6-47.1-29.1-48.8-29.1-.3 0-.5 12.9-.5 28.6z"/></svg>