<svg width="18" height="16" viewBox="0 0 18 16" fill="none" xmlns="http://www.w3.org/2000/svg">
<path fill-rule="evenodd" clip-rule="evenodd" d="M12.0259 13.8566C10.8815 14.6447 9.49463 15.1062 8 15.1062C6.75744 15.1062 5.58936 14.7873 4.57316 14.2268H4.70594V14.1076C4.70594 12.0873 6.34982 10.4434 8.37017 10.4434C10.3061 10.4434 11.8964 11.9528 12.0259 13.8566ZM12.9251 13.1226C12.4731 11.0224 10.6055 9.44836 8.37017 9.44836C5.94077 9.44836 3.94568 11.3076 3.73018 13.6809C2.00765 12.3841 0.893832 10.3221 0.893832 8C0.893832 4.07537 4.07537 0.893832 8 0.893832C9.53042 0.893832 10.9478 1.37763 12.1077 2.20062C12.0375 2.45513 12 2.72318 12 3C12 4.59618 13.2466 5.9012 14.8193 5.99464C15.006 6.63062 15.1062 7.30361 15.1062 8C15.1062 10.0125 14.2695 11.8297 12.9251 13.1226ZM8 0C9.66003 0 11.202 0.505614 12.4802 1.37124C13.0147 0.546025 13.9436 0 15 0C16.6569 0 18 1.34315 18 3C18 4.40696 17.0315 5.5877 15.7247 5.91187C15.9042 6.57755 16 7.27759 16 8C16 10.5128 14.8415 12.755 13.0294 14.2217V14.2268H13.0231C11.65 15.3359 9.90253 16 8 16C3.58172 16 0 12.4183 0 8C0 3.58172 3.58172 0 8 0ZM5.4136 6.44615C5.4136 4.9699 6.61033 3.77317 8.08658 3.77317C9.56283 3.77317 10.7596 4.9699 10.7596 6.44615C10.7596 7.9224 9.56283 9.11913 8.08658 9.11913C6.61033 9.11913 5.4136 7.9224 5.4136 6.44615ZM8.08657 4.69552C7.12138 4.69552 6.336 5.48091 6.336 6.44609C6.336 7.41128 7.12138 8.19666 8.08657 8.19666C9.05176 8.19666 9.83714 7.41128 9.83714 6.44609C9.83714 5.48091 9.05176 4.69552 8.08657 4.69552ZM14.4561 3.38949L16.141 1.70584C16.2911 1.55585 16.5344 1.55591 16.6844 1.70596C16.8344 1.85603 16.8344 2.09929 16.6844 2.24936L14.456 4.47816L13.4129 3.43483C13.2623 3.28416 13.2627 3.03976 13.4139 2.88962C13.5644 2.74018 13.8074 2.74061 13.9573 2.89058L14.4561 3.38949Z" fill="white"/>
</svg>
