<svg width="26" height="15" viewBox="0 0 26 15" fill="none" xmlns="http://www.w3.org/2000/svg">
<path d="M13.0695 4.92666C10.6666 4.92666 8.65801 4.12323 8.65801 2.7209C8.65801 1.31856 10.6666 0.515137 13.0695 0.515137C15.4725 0.515137 17.4811 1.31856 17.4811 2.7209C17.4811 4.12323 15.4725 4.92666 13.0695 4.92666ZM16.0072 2.73241C16.0017 2.73242 15.9874 2.71651 15.9517 2.68271C15.8415 2.57853 15.6513 2.46586 15.396 2.36375C14.8037 2.12682 13.9692 1.98564 13.0695 1.98564C12.1699 1.98564 11.3354 2.12682 10.7431 2.36375C10.4878 2.46586 10.2975 2.57853 10.1874 2.68271C10.1339 2.73325 10.1285 2.74381 10.1285 2.7209C10.1285 2.69798 10.1339 2.70854 10.1874 2.75909C10.2975 2.86327 10.4878 2.97593 10.7431 3.07805C11.3354 3.31498 12.1699 3.45615 13.0695 3.45615C13.9692 3.45615 14.8037 3.31498 15.396 3.07805C15.6513 2.97593 15.8415 2.86327 15.9517 2.75909C15.9874 2.72529 16.0017 2.70938 16.0072 2.70939V2.73241ZM0.726009 10.8936C0.348967 10.4109 0.692941 9.70581 1.30547 9.70581C3.32758 9.70581 4.85512 9.16027 5.93236 8.08303C8.10573 5.90966 11.599 7.75364 11.599 10.4411C11.599 12.6744 9.78851 14.485 7.55513 14.485C4.87559 14.485 2.58304 13.2713 0.726009 10.8936ZM7.55513 13.0144C8.97637 13.0144 10.1285 11.8623 10.1285 10.4411C10.1285 8.9833 8.15397 7.941 6.97214 9.12282C5.91068 10.1843 4.5327 10.8315 2.85864 11.0708C4.22575 12.3752 5.78288 13.0144 7.55513 13.0144ZM25.4117 10.8936C23.5547 13.2713 21.2621 14.485 18.5826 14.485C16.3492 14.485 14.5387 12.6744 14.5387 10.4411C14.5387 7.75364 18.032 5.90966 20.2054 8.08303C21.2826 9.16027 22.8101 9.70581 24.8322 9.70581C25.4448 9.70581 25.7887 10.4109 25.4117 10.8936ZM18.5826 13.0144C20.3548 13.0144 21.912 12.3752 23.2791 11.0708C21.605 10.8315 20.227 10.1843 19.1656 9.12282C17.9837 7.941 16.0092 8.9833 16.0092 10.4411C16.0092 11.8623 17.1613 13.0144 18.5826 13.0144Z" fill="white"/>
</svg>
