<svg width="20" height="12" viewBox="0 0 20 12" fill="none" xmlns="http://www.w3.org/2000/svg">
<path d="M0.430542 0.34668V11.0686H19.73V0.34668H0.430542ZM19.0866 10.4253H1.07386V0.989994H19.0866V10.4253Z" fill="white"/>
<path d="M5.14817 5.70762C5.14817 3.99212 6.0917 2.49105 7.4641 1.6333H1.71716V9.78194H7.50699C6.0917 8.92419 5.14817 7.42312 5.14817 5.70762Z" fill="white"/>
<path d="M18.4433 1.6333H12.6535C14.0688 2.49105 14.9694 3.99212 14.9694 5.70762C14.9694 7.42312 14.0259 8.92419 12.6535 9.78194H18.4433V1.6333Z" fill="white"/>
<path d="M11.9244 6.73695C11.9244 6.52251 11.8815 6.30807 11.7958 6.13652C11.71 5.96497 11.6242 5.79342 11.4955 5.66476C11.3669 5.5361 11.1953 5.40743 10.9809 5.32166C10.8951 5.27877 10.6378 5.193 10.3376 5.15011V3.17728C10.552 3.22017 10.7236 3.30594 10.8093 3.43461C10.938 3.56327 11.0238 3.77771 11.0667 4.03503L11.7529 3.94926C11.71 3.52038 11.4955 3.17728 11.2382 2.91996C11.0238 2.74841 10.7236 2.61974 10.3376 2.57686V2.27664H9.82292V2.61974C9.39405 2.66263 9.09384 2.79129 8.8794 2.96284C8.5363 3.26306 8.36475 3.64904 8.36475 4.12081C8.36475 4.37813 8.40763 4.63546 8.5363 4.8499C8.66496 5.06433 8.83651 5.23589 9.05095 5.36455C9.30827 5.49321 9.5656 5.62187 9.82292 5.66476V7.80914C9.60849 7.76625 9.39405 7.63759 9.2225 7.42315C9.09384 7.2516 9.00806 6.99428 8.92228 6.60829L8.23608 6.73695C8.27897 7.08005 8.36475 7.38026 8.49341 7.63759C8.62207 7.89492 8.83651 8.06647 9.05095 8.15224C9.26539 8.23802 9.52271 8.32379 9.82292 8.36668V9.13866H10.3376V8.45246C10.8093 8.40957 11.1524 8.23802 11.4527 7.9378C11.7529 7.63759 11.9244 7.20871 11.9244 6.73695ZM9.2225 4.67835C9.09384 4.5068 9.00806 4.33525 9.00806 4.07792C9.00806 3.86348 9.09384 3.64904 9.2225 3.47749C9.35116 3.30594 9.5656 3.22017 9.78004 3.17728V5.02145C9.5656 4.93567 9.35116 4.80701 9.2225 4.67835ZM10.938 7.50893C10.7665 7.68048 10.552 7.80914 10.3376 7.85203V5.79342C10.6807 5.92209 10.8951 6.05075 11.0238 6.17941C11.1524 6.30807 11.1953 6.52251 11.1953 6.77984C11.1953 7.08005 11.1096 7.33738 10.938 7.50893Z" fill="white"/>
</svg>
