<svg xmlns="http://www.w3.org/2000/svg" viewBox="0 0 47 58.75"><g fill="#fff"><path d="M14.807 16.171a3.875 3.875 0 003.875-3.875 3.87 3.87 0 00-3.752-3.869l-.058-.096c-.055-.086-.152-.225-.132-.336.033-.123.174-.146.287-.184.134-.043.279-.113.392-.197.323-.242.465-.83.115-1.113-.232-.188-.504-.262-.798-.287-.072-.006-.171-.016-.261-.006-.115.014-.216.063-.224.199a.213.213 0 00.199.225c.138.008.731.152.643.365-.045.109-.205.133-.304.158a1.27 1.27 0 00-.422.166c-.408.264-.388.754-.236 1.162a3.873 3.873 0 00.676 7.688z"/><path d="M43.286 14.026a1.426 1.426 0 00-1.958-.479l-6.834 4.145a3.972 3.972 0 00-2.177-.646h-.25c-1.967 0-3.104 1.279-3.258 1.48l-5.31 6.961-5.31-6.961c-.154-.201-1.152-1.48-3.259-1.48h-.25c-.803 0-1.55.238-2.177.646l-6.834-4.145a1.425 1.425 0 00-1.478 2.438l6.63 4.021a3.996 3.996 0 00-.142 1.039v6.5c0 .379-2.443 11.059-2.443 11.059a1.75 1.75 0 001.695 2.192c.777 0 1.486-.521 1.691-1.309l2.104-8.061c.306.074.624.119.953.119h.25c.33 0 .648-.045.954-.119l2.103 8.061a1.753 1.753 0 002.135 1.252 1.75 1.75 0 001.251-2.135s-2.443-10.68-2.443-11.059v-3.348l2.617 3.432a1.42 1.42 0 001.951.299 1.419 1.419 0 001.95-.299l2.617-3.432v1.697l-1.875 4.875s.63.842 1.953 1.553l-.571 6.57a1.75 1.75 0 103.486.303l.516-5.924c.201.012.403.023.616.023s.415-.012.616-.023l.516 5.924a1.751 1.751 0 001.894 1.592 1.75 1.75 0 001.592-1.895l-.571-6.57c1.323-.711 1.953-1.553 1.953-1.553l-1.875-4.875v-4.85c0-.361-.052-.707-.142-1.039l6.631-4.021a1.424 1.424 0 00.483-1.958z"/><path d="M26.725 13.854s.645-1.049 1.502-1.613a3.874 3.874 0 007.747.147c.002-.088-.003-.172-.007-.26.951.521 1.693 1.727 1.693 1.727.833-.334 1-1.559 1-1.559-.843-1.027-2.049-1.219-2.883-1.211a3.872 3.872 0 00-7.359.002c-.819.021-1.913.258-2.693 1.209 0 0 .167 1.225 1 1.558z"/></g></svg>