<svg width="18" height="20" viewBox="0 0 18 20" fill="none" xmlns="http://www.w3.org/2000/svg">
<path d="M8.51563 0L0 2.51039V7.71887C0 10.4505 0.810793 13.0627 2.34466 15.2731C3.84575 17.4363 5.91452 19.0469 8.32727 19.931L8.51563 20L8.70399 19.931C11.1167 19.0469 13.1855 17.4362 14.6866 15.273C16.2205 13.0627 17.0313 10.4504 17.0313 7.71887V2.51039L8.51563 0ZM8.51563 16.2087C7.16307 15.528 5.98509 14.499 5.09747 13.22C4.18585 11.9062 3.6254 10.3966 3.45045 8.80316L8.51563 7.31004L13.5808 8.8032C13.4059 10.3966 12.8454 11.9062 11.9338 13.22C11.0462 14.4991 9.86818 15.5281 8.51563 16.2087ZM13.6401 7.60238L8.51563 6.09168L3.39118 7.60238V5.16566L8.51563 3.655L13.6401 5.16566V7.60238ZM1.13039 7.71887V3.39547L7.95043 1.38496V2.60328L2.26079 4.28059V7.71887C2.26079 9.95621 2.92436 12.0951 4.17989 13.9044C5.16134 15.3186 6.45952 16.4609 7.95043 17.2264V18.5178C3.83972 16.6595 1.13039 12.4208 1.13039 7.71887ZM15.9009 7.71887C15.9009 12.4209 13.1915 16.6596 9.08082 18.5178V17.2264C10.5717 16.4609 11.87 15.3186 12.8514 13.9044C14.1069 12.0951 14.7705 9.95621 14.7705 7.71887V4.28059L9.08082 2.60328V1.38496L15.9009 3.39547V7.71887Z" fill="white"/>
</svg>
