<svg width="21" height="20" viewBox="0 0 21 20" fill="none" xmlns="http://www.w3.org/2000/svg">
<path d="M20.1469 13.1535L13.9203 9.60013C13.6181 9.42617 13.2757 9.33424 12.927 9.33346H10.1403C9.62111 9.31151 9.10958 9.4645 8.6877 9.76792C8.26582 10.0713 7.95802 10.5076 7.81364 11.0068C7.71421 11.3815 7.71744 11.776 7.82301 12.149C7.92858 12.5221 8.13259 12.8598 8.41364 13.1268C8.62435 13.3382 8.87476 13.506 9.15047 13.6204C9.42619 13.7348 9.72179 13.7936 10.0203 13.7935H11.647C11.7634 13.7935 11.8787 13.8164 11.9863 13.8609C12.0939 13.9055 12.1916 13.9708 12.2739 14.0532C12.3563 14.1355 12.4216 14.2332 12.4661 14.3408C12.5107 14.4484 12.5336 14.5637 12.5336 14.6801C12.5336 14.7966 12.5107 14.9119 12.4661 15.0194C12.4216 15.127 12.3563 15.2248 12.2739 15.3071C12.1916 15.3894 12.0939 15.4547 11.9863 15.4993C11.8787 15.5438 11.7634 15.5668 11.647 15.5668H8.9203L4.43365 11.2335C4.02596 10.8226 3.4815 10.5759 2.90379 10.5403C2.32609 10.5046 1.75543 10.6825 1.30032 11.0401C1.04748 11.2461 0.842984 11.5052 0.701289 11.7989C0.559594 12.0927 0.48416 12.414 0.480323 12.7401C0.478599 13.0339 0.536833 13.325 0.651461 13.5955C0.76609 13.866 0.934704 14.1103 1.14699 14.3135L6.84698 19.8134C6.97056 19.9326 7.13533 19.9994 7.30697 20.0001H19.8136C19.9904 20.0001 20.16 19.9299 20.285 19.8048C20.41 19.6798 20.4803 19.5103 20.4803 19.3334V13.7335C20.4807 13.616 20.4502 13.5005 20.3916 13.3986C20.3331 13.2968 20.2487 13.2122 20.1469 13.1535ZM19.1469 18.6668H7.59364L2.08699 13.3335C2.00138 13.2558 1.93287 13.1611 1.88581 13.0555C1.83875 12.9499 1.81418 12.8357 1.81365 12.7201C1.81612 12.5912 1.84733 12.4645 1.90499 12.3491C1.96266 12.2338 2.04533 12.1328 2.14699 12.0535C2.34824 11.9146 2.59179 11.8505 2.83534 11.8724C3.0789 11.8943 3.30709 12.0008 3.48032 12.1735L8.14697 16.6934C8.27222 16.8142 8.43969 16.8812 8.61364 16.8801H11.6336C12.2224 16.8801 12.7871 16.6462 13.2034 16.2299C13.6197 15.8136 13.8536 15.2489 13.8536 14.6601C13.8536 14.0713 13.6197 13.5067 13.2034 13.0903C12.7871 12.674 12.2224 12.4401 11.6336 12.4401H10.047C9.92328 12.441 9.80064 12.4173 9.6862 12.3704C9.57175 12.3235 9.46777 12.2543 9.3803 12.1668C9.27065 12.0613 9.19119 11.9284 9.15016 11.7819C9.10914 11.6354 9.10804 11.4805 9.14697 11.3335C9.22228 11.1285 9.36136 10.9531 9.54377 10.8331C9.72618 10.7131 9.94229 10.6548 10.1603 10.6668H12.947C13.0635 10.6677 13.178 10.6975 13.2803 10.7535L19.1669 14.0868L19.1469 18.6668Z" fill="white"/>
<path d="M8.44031 6.50004C8.70787 6.76853 9.0258 6.98157 9.37587 7.12693C9.72594 7.27228 10.1013 7.34711 10.4803 7.34711C10.8594 7.34711 11.2347 7.27228 11.5847 7.12693C11.9348 6.98157 12.2527 6.76853 12.5203 6.50004L14.0936 4.93338C14.4959 4.52879 14.7696 4.0143 14.8803 3.4546C14.9909 2.8949 14.9337 2.31497 14.7156 1.78773C14.4976 1.26049 14.1286 0.809473 13.6549 0.491395C13.1813 0.173316 12.6242 0.00237099 12.0536 5.38875e-05C11.4948 -0.00221026 10.9476 0.160091 10.4803 0.46672C10.0446 0.183503 9.5406 0.0231366 9.02138 0.00254234C8.50216 -0.0180519 7.987 0.10189 7.53027 0.349711C7.07354 0.597532 6.69218 0.964043 6.42642 1.41057C6.16065 1.8571 6.02035 2.36708 6.02031 2.88671C6.01901 3.26691 6.09318 3.64358 6.23851 3.9949C6.38385 4.34623 6.59746 4.66521 6.86698 4.93338L8.44031 6.50004ZM7.77364 1.78672C8.06594 1.49604 8.46141 1.33288 8.87364 1.33288C9.28587 1.33288 9.68134 1.49604 9.97364 1.78672C10.0356 1.8492 10.1093 1.8988 10.1906 1.93264C10.2718 1.96649 10.359 1.98391 10.447 1.98391C10.535 1.98391 10.6221 1.96649 10.7034 1.93264C10.7846 1.8988 10.8583 1.8492 10.9203 1.78672C11.2167 1.50388 11.6106 1.34608 12.0203 1.34608C12.43 1.34608 12.8239 1.50388 13.1203 1.78672C13.268 1.92994 13.3859 2.10096 13.4672 2.28994C13.5486 2.47892 13.5917 2.68211 13.5942 2.88783C13.5967 3.09355 13.5584 3.29773 13.4817 3.48861C13.4049 3.67949 13.2912 3.85331 13.147 4.00005L11.5736 5.57338C11.2813 5.86405 10.8859 6.02721 10.4736 6.02721C10.0614 6.02721 9.66594 5.86405 9.37364 5.57338L7.81364 4.00005C7.52297 3.70774 7.35981 3.31227 7.35981 2.90005C7.35981 2.48782 7.52297 2.09235 7.81364 1.80005L7.77364 1.78672Z" fill="white"/>
</svg>
