<svg width="19" height="20" viewBox="0 0 19 20" fill="none" xmlns="http://www.w3.org/2000/svg">
<path d="M17.9366 19.9489H1.66934C1.43956 19.9489 1.2192 19.8576 1.05673 19.6951C0.894255 19.5326 0.802979 19.3123 0.802979 19.0825V1.4175C0.802979 1.18772 0.894255 0.967363 1.05673 0.80489C1.2192 0.642416 1.43956 0.55114 1.66934 0.55114C1.89911 0.55114 2.11947 0.642416 2.28194 0.80489C2.44441 0.967363 2.53569 1.18772 2.53569 1.4175V18.2161H17.9366C18.1664 18.2161 18.3868 18.3074 18.5492 18.4699C18.7117 18.6324 18.803 18.8527 18.803 19.0825C18.803 19.3123 18.7117 19.5326 18.5492 19.6951C18.3868 19.8576 18.1664 19.9489 17.9366 19.9489Z" fill="white"/>
<path d="M6.1224 16.1773C5.89263 16.1773 5.67227 16.086 5.50979 15.9236C5.34732 15.7611 5.25604 15.5407 5.25604 15.311V8.38011C5.25838 8.21122 5.31005 8.04669 5.40468 7.90677C5.4993 7.76685 5.63277 7.65765 5.78865 7.59259C5.94454 7.52754 6.11604 7.50947 6.28206 7.54062C6.44807 7.57176 6.60137 7.65076 6.72307 7.76789L9.16331 10.2081H10.3762V5.42873C10.3722 5.25397 10.4211 5.08209 10.5165 4.93565C10.612 4.78921 10.7495 4.67506 10.911 4.60821C11.0725 4.54136 11.2505 4.52492 11.4215 4.56107C11.5925 4.59721 11.7486 4.68424 11.8692 4.81073L13.5644 6.50878L16.227 3.84618C16.3898 3.68381 16.6104 3.59274 16.8403 3.59301C17.0702 3.59328 17.2905 3.68487 17.4529 3.84763C17.6153 4.01038 17.7063 4.23097 17.7061 4.46087C17.7058 4.69077 17.6142 4.91115 17.4515 5.07352L14.1795 8.35123C14.099 8.432 14.0034 8.49609 13.8981 8.53981C13.7928 8.58354 13.6799 8.60605 13.5658 8.60605C13.4518 8.60605 13.3389 8.58354 13.2336 8.53981C13.1283 8.49609 13.0327 8.432 12.9522 8.35123L12.1205 7.51953V11.0745C12.1205 11.3043 12.0292 11.5246 11.8667 11.6871C11.7043 11.8496 11.4839 11.9408 11.2541 11.9408H8.81677C8.58749 11.9414 8.36733 11.8511 8.20454 11.6896L6.98876 10.4709V15.311C6.98876 15.5407 6.89748 15.7611 6.73501 15.9236C6.57253 16.086 6.35217 16.1773 6.1224 16.1773Z" fill="white"/>
</svg>
