<svg width="21" height="22" viewBox="0 0 21 22" fill="none" xmlns="http://www.w3.org/2000/svg">
<path d="M10.7209 17.7026C13.7486 17.7026 16.2148 15.2364 16.2148 12.2087C16.2148 9.81576 14.6765 7.78912 12.5522 7.03219V5.4939C12.5522 4.68812 12.0394 4.02886 11.3313 3.76027V0.610433C11.3313 0.26859 11.0627 0 10.7209 0C10.379 0 10.1104 0.26859 10.1104 0.610433V3.76027C9.40232 4.00444 8.88956 4.68812 8.88956 5.4939V7.03219C6.76525 7.78912 5.22696 9.81576 5.22696 12.2087C5.22696 15.2364 7.69311 17.7026 10.7209 17.7026ZM10.1104 5.4939C10.1104 5.15205 10.379 4.88346 10.7209 4.88346C11.0627 4.88346 11.3313 5.15205 11.3313 5.4939V6.73918C11.1359 6.71476 10.9162 6.71476 10.7209 6.71476C10.5255 6.71476 10.3058 6.73918 10.1104 6.73918V5.4939ZM10.7209 7.93563C13.0649 7.93563 14.9939 9.86459 14.9939 12.2087C14.9939 14.5527 13.0649 16.4817 10.7209 16.4817C8.37679 16.4817 6.44782 14.5527 6.44782 12.2087C6.44782 9.86459 8.37679 7.93563 10.7209 7.93563Z" fill="white"/>
<path d="M10.7208 18.6304C10.379 18.6304 10.1104 18.899 10.1104 19.2408V21.3896C10.1104 21.7314 10.379 22 10.7208 22C11.0627 22 11.3313 21.7314 11.3313 21.3896V19.2408C11.3313 18.899 11.0627 18.6304 10.7208 18.6304Z" fill="white"/>
<path d="M14.7497 17.9711C14.5788 17.6781 14.2125 17.5805 13.9195 17.7514C13.6265 17.9223 13.5288 18.2886 13.6998 18.5816L14.7741 20.4373C14.8962 20.6326 15.0916 20.7547 15.3113 20.7547C15.409 20.7547 15.5311 20.7303 15.6043 20.6815C15.8973 20.5105 15.995 20.1443 15.8241 19.8513L14.7497 17.9711Z" fill="white"/>
<path d="M18.9495 16.2619L17.0938 15.1876C16.8008 15.0167 16.4345 15.1143 16.2636 15.4073C16.0927 15.7003 16.1903 16.0666 16.4833 16.2375L18.339 17.3119C18.4367 17.3607 18.5344 17.3851 18.6321 17.3851C18.8518 17.3851 19.0472 17.2875 19.1692 17.0677C19.3402 16.7991 19.2425 16.4329 18.9495 16.2619Z" fill="white"/>
<path d="M19.8774 11.5982H17.7286C17.3868 11.5982 17.1182 11.8668 17.1182 12.2087C17.1182 12.5505 17.3868 12.8191 17.7286 12.8191H19.8774C20.2192 12.8191 20.4878 12.5505 20.4878 12.2087C20.4878 11.8668 20.2192 11.5982 19.8774 11.5982Z" fill="white"/>
<path d="M16.8008 9.30299C16.8984 9.30299 17.0205 9.27858 17.0938 9.22974L18.9495 8.15538C19.2425 7.98446 19.3402 7.6182 19.1692 7.32519C18.9983 7.03218 18.6321 6.93451 18.339 7.10544L16.4833 8.1798C16.1903 8.35072 16.0927 8.71698 16.2636 9.00999C16.3857 9.20533 16.581 9.30299 16.8008 9.30299Z" fill="white"/>
<path d="M7.52216 17.7514C7.22916 17.5805 6.8629 17.6781 6.69197 17.9711L5.61761 19.8269C5.44669 20.1199 5.54436 20.4861 5.83737 20.657C5.93504 20.7059 6.03271 20.7303 6.13038 20.7303C6.35013 20.7303 6.54547 20.6326 6.66756 20.4129L7.74192 18.5572C7.91284 18.313 7.81517 17.9223 7.52216 17.7514Z" fill="white"/>
<path d="M4.34793 15.1876L2.49221 16.2619C2.19921 16.4329 2.10154 16.7991 2.27246 17.0921C2.39455 17.2875 2.58988 17.4096 2.80964 17.4096C2.90731 17.4096 3.0294 17.3851 3.10265 17.3363L4.95836 16.2619C5.25137 16.091 5.34904 15.7248 5.17812 15.4317C5.0072 15.1143 4.61652 15.0167 4.34793 15.1876Z" fill="white"/>
<path d="M4.32351 12.2087C4.32351 11.8668 4.05492 11.5982 3.71307 11.5982H1.56435C1.22251 11.5982 0.953918 11.8668 0.953918 12.2087C0.953918 12.5505 1.22251 12.8191 1.56435 12.8191H3.71307C4.0305 12.8191 4.32351 12.5505 4.32351 12.2087Z" fill="white"/>
<path d="M2.49221 8.15538L4.34793 9.22975C4.4456 9.27858 4.54327 9.303 4.64094 9.303C4.86069 9.303 5.05603 9.20533 5.17812 8.98557C5.34904 8.69256 5.25137 8.32631 4.95836 8.15538L3.10265 7.08102C2.80964 6.9101 2.44338 7.00777 2.27246 7.30078C2.10154 7.6182 2.19921 7.98446 2.49221 8.15538Z" fill="white"/>
<path d="M8.08377 13.7469C8.62095 14.6992 9.64647 15.2852 10.7208 15.2852C11.7952 15.2852 12.8207 14.6992 13.3579 13.7469C13.5288 13.4539 13.4312 13.0877 13.1382 12.9168C12.8451 12.7458 12.4789 12.8435 12.308 13.1365C11.9905 13.6981 11.3801 14.0644 10.7208 14.0644C10.0616 14.0644 9.45114 13.7225 9.13371 13.1365C8.81629 12.5505 8.81629 11.8668 9.13371 11.3052C9.45114 10.7436 10.0616 10.3774 10.7208 10.3774C11.3801 10.3774 11.9905 10.7192 12.308 11.3052C12.4789 11.5982 12.8451 11.6959 13.1382 11.525C13.4312 11.3541 13.5288 10.9878 13.3579 10.6948C12.8207 9.74251 11.7952 9.15649 10.7208 9.15649C9.64647 9.15649 8.62095 9.74251 8.08377 10.6948C7.52217 11.6226 7.52217 12.7947 8.08377 13.7469Z" fill="white"/>
</svg>
