<svg xmlns="http://www.w3.org/2000/svg" viewBox="0 0 90 112.5"><switch><g fill="#fff" fill-rule="evenodd" clip-rule="evenodd"><path d="M45.78 7.127c3.906-.002 6.898 2.96 6.903 6.835.005 3.782-3.113 6.863-6.927 6.843-3.717-.02-6.813-3.146-6.801-6.869a6.816 6.816 0 016.825-6.809zm18.716 22.372c-1.604-1.021-3.199-2.056-4.816-3.058a281.281 281.281 0 00-5.373-3.263c-.225-.131-1.128-.731-1.493-.731H39.089c-.34 0-1.608.573-2.261.976a835.841 835.841 0 00-9.76 6.135c-.967.614-1.534 1.549-1.179 2.684 1.188 3.818 2.449 7.612 3.708 11.406.387 1.168 1.343 2.208 2.486 1.713 2.975-1.288 3.353 2.754 4.606 3.851.762.668.954 1.391.951 2.341-.025 8.525-.015 17.051-.013 25.575 0 .544-.012 1.095.05 1.633.182 1.575 1.343 2.782 2.996 3.166 1.337.307 3.064-.305 3.735-1.571.435-.82.715-1.828.72-2.754.053-8.449.031-12.696.031-21.145v-1.388h1.388v9.978c-.002 4.361-.008 8.721-.006 13.081.002 1.699.823 2.89 2.348 3.568 1.539.685 2.885.222 4.069-.854.942-.857 1.124-1.997 1.124-3.191.002-8.837-.011-17.674.033-26.509.004-.58.304-1.28.697-1.714 1.146-1.263 2.668-4.963 4.854-4.056 1.054.437 1.975-.527 2.336-1.602a607.12 607.12 0 003.688-11.291c.417-1.33-.02-2.233-1.194-2.98zM37.552 45.414c-1.071-.468-2.042-.882-3.003-1.321-.116-.054-.246-.236-.245-.359.017-2.748-1.33-5.132-2.045-7.685-.302-1.078-.664-2.139-1.032-3.313 2.132-1.323 4.165-2.587 6.325-3.929v16.607zm22.667-12.019c-.797 2.596-1.657 5.172-2.447 7.77-.221.727-.252 1.509-.413 2.257-.056.259-.179.613-.378.714-.885.452-1.811.827-2.871 1.297V28.81c2.096 1.293 4.035 2.469 5.94 3.702.179.114.249.62.169.883z"/></g></switch></svg>