<?xml version="1.0" standalone="no"?>
<!DOCTYPE svg PUBLIC "-//W3C//DTD SVG 20010904//EN"
 "http://www.w3.org/TR/2001/REC-SVG-20010904/DTD/svg10.dtd">
<svg version="1.0" xmlns="http://www.w3.org/2000/svg"
 width="48.000000pt" height="48.000000pt" viewBox="0 0 48.000000 48.000000"
 preserveAspectRatio="xMidYMid meet">

<g transform="translate(0.000000,48.000000) scale(0.100000,-0.100000)"
fill="#000000" stroke="none">
<path d="M369 416 c-3 -3 -43 -15 -89 -27 -131 -32 -181 -64 -199 -126 -13
-44 -3 -80 32 -114 26 -27 28 -33 18 -55 -17 -37 -14 -94 4 -94 10 0 15 10 15
30 0 50 53 141 133 226 19 22 25 34 17 39 -14 9 -50 -24 -97 -87 -19 -27 -40
-48 -47 -48 -23 0 -46 36 -46 73 0 59 31 84 145 117 54 16 101 27 104 25 7 -8
14 -212 7 -239 -14 -57 -73 -74 -126 -36 -18 13 -31 16 -35 10 -10 -16 5 -31
51 -51 40 -18 46 -18 79 -5 51 22 69 68 67 176 -2 84 -22 197 -33 186z"/>
</g>
</svg>
