<svg xmlns="http://www.w3.org/2000/svg" viewBox="0 0 100 125"><g fill="#fff"><path d="M85.677 31.593c-.729-10.707-8.096-20.571-18.775-25.137-4.263-1.824-8.607-2.566-12.707-2.263-5.697-2.978-14.698-3.643-21.612.434-5.72 3.38-11.91 10.951-10.417 27.902-4.53.946-7.946 4.969-7.946 9.779 0 5.512 4.484 9.992 9.996 9.992 5.507 0 9.992-4.48 9.992-9.992 0-4.973-3.652-9.109-8.417-9.865-1.403-15.241 3.797-21.843 8.634-24.698 4.131-2.439 8.978-2.765 13.032-2.014a21.703 21.703 0 00-5.824 3.471c-9.575 7.982-9.575 15.983-8.725 20.042 1.285 6.104 5.982 11.168 11.974 12.892 5.475 1.584 10.974.05 15.087-4.204l.059-.063c4.285-4.878 6.254-10.507 5.693-16.277-.484-4.973-2.851-9.788-6.625-13.621 2.109.299 4.254.901 6.38 1.81 9.439 4.036 15.951 12.693 16.585 22.056.67 9.82-2.009 16.992-7.964 21.304l2.127 2.932c6.928-5.021 10.195-13.488 9.453-24.48zm-59.624 3.209a7.729 7.729 0 01-1.837 15.236 7.732 7.732 0 01-7.734-7.729 7.724 7.724 0 015.919-7.512 7.48 7.48 0 011.815-.217c.634 0 1.249.077 1.837.222zm36.066-12.861c.462 4.738-1.195 9.408-4.783 13.508-4.303 4.426-9.023 3.914-11.453 3.213-4.643-1.339-8.435-5.426-9.43-10.159C35.271 22.864 37.932 17 43.95 11.986c2.706-2.258 5.955-3.62 9.462-4.068.281.176.538.353.778.538 4.544 3.494 7.431 8.408 7.929 13.485z"/><path d="M29.262 42.309a5.048 5.048 0 01-10.096 0 5.05 5.05 0 0110.096 0z"/><path d="M29.262 42.309a5.048 5.048 0 01-10.096 0 5.05 5.05 0 0110.096 0zM71.54 59.934c3.471 6.566 4.222 18.589-5.086 24.617-4.109 2.656-10.779 6.304-15.653 8.969-1.941 1.063-3.62 1.982-4.797 2.647-1.729.982-3.96 2.068-6.29 2.068-.272 0-.548-.018-.824-.05-2.774-.317-5.118-2.199-7.154-5.747-.873.113-1.801-.19-2.308-.819l-.919-1.14c-.674-.833-.371-1.932.67-2.444l2.525-1.244c1.045-.511 2.1-.081 2.353.959l.344 1.421c.176.742-.1 1.602-.652 2.217 1.638 2.833 3.407 4.322 5.399 4.552 1.977.226 4.104-.81 5.738-1.742 1.19-.674 2.878-1.597 4.828-2.665 4.842-2.643 11.471-6.272 15.508-8.883 8.295-5.367 7.358-16.318 4.113-22.024l-1.222-2.154c-2.742-4.824-11.521-13.037-21.187-7.652-4.227 2.349-10.688 6.046-15.413 8.743-1.91 1.091-3.575 2.041-4.76 2.715-1.634.932-3.616 2.231-4.435 4.041-.828 1.842-.443 4.14 1.177 7.023.815-.104 1.67.149 2.177.71l.982 1.086c.72.796.48 1.91-.534 2.484l-2.448 1.385c-1.009.57-2.091.199-2.398-.824l-.425-1.403c-.24-.783.041-1.733.643-2.389-1.968-3.53-2.371-6.471-1.235-9.001 1.086-2.407 3.444-3.978 5.38-5.077 1.186-.674 2.846-1.625 4.756-2.715 4.729-2.702 11.2-6.399 15.435-8.756 9.2-5.122 18.368.299 22.952 6.521l.068-.041 1.638-.959a1.701 1.701 0 012.285.425l1.258 1.738a1.523 1.523 0 01-.407 2.181l-2.082 1.227z"/></g></svg>