<svg width="100%" height="100%" viewBox="0 0 2134 1885" version="1.1" xmlns="http://www.w3.org/2000/svg" xmlns:xlink="http://www.w3.org/1999/xlink" xml:space="preserve" xmlns:serif="http://www.serif.com/" style="fill-rule:evenodd;clip-rule:evenodd;stroke-linejoin:round;stroke-miterlimit:2;"><g><g><path d="M1977.68,185.142c-105.22,-119.392 -251.191,-185.142 -411.016,-185.142c-224.784,0 -367.096,134.25 -446.896,246.875c-20.704,29.225 -38.317,58.529 -53.104,86.104c-14.788,-27.575 -32.396,-56.879 -53.104,-86.104c-79.8,-112.625 -222.113,-246.875 -446.896,-246.875c-159.825,0 -305.796,65.754 -411.021,185.146c-100.367,113.892 -155.646,266.425 -155.646,429.5c0,177.512 69.304,342.617 218.104,519.583c132.988,158.167 324.309,321.2 545.854,509.988c82.554,70.35 167.925,143.1 258.813,222.621l2.729,2.391c11.783,10.317 26.475,15.471 41.167,15.471c14.691,0 29.383,-5.158 41.166,-15.471l2.73,-2.391c90.887,-79.521 176.258,-152.267 258.825,-222.63c221.533,-188.775 412.854,-351.808 545.841,-509.979c148.8,-176.971 218.104,-342.071 218.104,-519.583c0,-163.075 -55.279,-315.609 -155.65,-429.504Zm-689.379,1363.93c-71.166,60.642 -144.408,123.054 -221.637,190.192c-77.225,-67.129 -150.471,-129.546 -221.65,-190.2c-433.579,-369.471 -720.017,-613.559 -720.017,-934.421c0,-132.625 44.188,-255.808 124.425,-346.854c81.158,-92.079 193.821,-142.792 317.242,-142.792c171.371,0 282.15,105.575 344.9,194.142c56.287,79.433 85.658,159.508 95.675,190.246c8.379,25.729 32.366,43.141 59.425,43.141c27.058,0 51.046,-17.412 59.425,-43.141c10.016,-30.738 39.387,-110.813 95.675,-190.25c62.75,-88.563 173.529,-194.138 344.9,-194.138c123.421,0 236.083,50.713 317.237,142.792c80.242,91.046 124.429,214.229 124.429,346.854c0,320.862 -286.437,564.95 -720.029,934.429Z" style="fill:#fff;fill-rule:nonzero;"/></g></g></svg>