<svg width="19" height="18" viewBox="0 0 19 18" fill="none" xmlns="http://www.w3.org/2000/svg">
<path d="M17.8252 1.73008H15.1013V0.73621C15.1013 0.404922 14.8068 0.110443 14.4755 0.110443H4.46322C4.13193 0.110443 3.83746 0.404922 3.83746 0.73621V1.73008H1.11353C0.782241 1.73008 0.487762 2.02455 0.487762 2.35584V6.55216C0.487762 8.28222 1.88653 9.68099 3.6166 9.68099H4.68408C4.72089 9.68099 4.7577 9.68099 4.79451 9.64419C5.71476 10.9693 7.15034 11.8896 8.84359 12.0736V14.2454H7.81292C6.08285 14.2454 4.68408 15.6442 4.68408 17.3742C4.68408 17.7055 4.97856 18 5.30985 18H13.6657C13.997 18 14.2914 17.7055 14.2914 17.3742C14.2914 15.6442 12.8927 14.2454 11.1626 14.2454H10.1319V12.0736C11.8252 11.8896 13.2608 10.9693 14.181 9.64419C14.2178 9.64419 14.2546 9.68099 14.2914 9.68099H15.3589C17.089 9.68099 18.4878 8.28222 18.4878 6.55216V2.35584C18.451 1.98774 18.1933 1.73008 17.8252 1.73008ZM12.9295 16.7853H6.00923C6.2669 16.0491 6.96629 15.5338 7.77611 15.5338H11.1258C11.9724 15.5338 12.6718 16.0491 12.9295 16.7853ZM3.6166 8.42946C2.58592 8.42946 1.7393 7.58284 1.7393 6.55216V2.98161H3.83746V6.47854C3.83746 7.17793 3.94789 7.80369 4.20555 8.42946H3.6166ZM9.46936 10.8589C7.03991 10.8589 5.08899 8.87118 5.08899 6.47854V1.36198H13.8865V6.47854C13.8497 8.90799 11.8988 10.8589 9.46936 10.8589ZM17.1994 6.55216C17.1994 7.58284 16.3528 8.42946 15.3221 8.42946H14.77C14.9908 7.8405 15.1381 7.17793 15.1381 6.47854V2.98161H17.1994V6.55216Z" fill="white"/>
</svg>
