<svg version="1.0" xmlns="http://www.w3.org/2000/svg" width="676" height="676" viewBox="0 0 507 507"><path fill="#fff" d="M0 253.5V507h507V0H0v253.5zM114.5 40.9c4.8 2.1 8.9 6.7 10.3 11.3.6 1.8 1.3 6.6 1.7 10.5l.6 7.3H111v-3.3c-.1-8.8-2.9-13.6-8.1-13.7-6.6 0-8.8 5.5-8.9 21.9v10.5l3.6-3.5c3.4-3.3 3.8-3.4 11.2-3.4 9.3 0 12.8 2 16.4 9.3 2.2 4.4 2.3 5.9 2.3 22.8v18.1l-3 4.9c-4.4 7-9.6 9.7-20.1 10.2-7.2.4-8.9.1-13.7-2.1-5.6-2.6-9.3-6.5-11.8-12.7-2-5-2-69.7 0-75.3 1.8-5.2 6.7-10.6 11.6-12.8 5.5-2.5 18.5-2.5 24 0zm61.5-.6c3.1 1.5 4.9 6.5 4.9 13.5.1 9.7-3.3 14.2-11 14.2H167v15h-7V39h6.8c3.7 0 7.8.6 9.2 1.3zm26 1.7c0 2.9-.1 3-5 3h-5v13h3.5c3.1 0 3.5.3 3.5 2.5s-.4 2.5-3.5 2.5H192v14h5.1c4.9 0 5 .1 4.7 2.7l-.3 2.8h-17l-.3-20.5c-.1-11.2 0-21 .2-21.7.4-.9 3.1-1.3 9.1-1.3h8.5v3zm22.9 18.4c2.2 11.7 4.1 21.6 4.1 22 0 .4-1.7.6-3.7.4-3.5-.3-3.8-.6-4.3-3.8-.5-3.3-.7-3.5-4.7-3.8l-4.2-.3-.3 3.8c-.3 3.5-.6 3.8-3.5 4.1-2.6.3-3.3 0-3.3-1.5 0-1.8 6.8-38.8 7.5-41.1.3-.7 2.1-1.2 4.3-1.2h4l4.1 21.4zm24.2-19.5c1.8 1.4 2.3 3.1 2.7 8l.4 6.1h-3.1c-2.6 0-3.1-.4-3.1-2.4 0-4.2-1.8-7.6-4-7.6-3.1 0-4 3.8-4 16 0 12.1.9 16 3.9 16 2.6 0 4.1-2.9 4.1-7.9 0-3.9.2-4.1 3-4.1h3v6.1c0 5.4-.3 6.4-2.9 9-3.2 3.2-7.9 3.8-12.5 1.8-4.4-2-5.6-6.4-5.6-20.1 0-13.8 1.1-19 4.3-21.3 3.1-2.1 10.9-2 13.8.4zm24.7 1.3c.3 2.6.1 2.7-5 3l-5.3.3v12l3.8.3c3.1.3 3.7.7 3.7 2.7s-.6 2.4-3.7 2.7l-3.8.3v13l5.3.3c5.1.3 5.3.4 5 3-.3 2.7-.3 2.7-8.8 2.7h-8.5l-.3-21.8-.2-21.8 8.7.3c8.7.3 8.8.3 9.1 3zM315 58.1v19.1l-2.9 2.9c-3.8 3.7-9.7 4-13.6.6-2.3-1.9-2.8-3.3-3.2-9l-.6-6.7h7.3v4.7c0 6 1.3 8.2 3.7 6.7 1.6-1 1.8-3.1 2.1-19.3L308 39h7v19.1zm11-1.8c0 18.3.7 21.3 4.6 20.5 1.8-.3 1.9-1.5 2.4-18.8l.5-18.5 3.3-.3 3.2-.3v38.3l-2.9 2.9c-3.3 3.3-8.3 3.9-13 1.5-4.5-2.4-5.1-5.1-5.1-24.6V39h7v17.3zm35.5-14.8c1.8 1.8 2.5 3.5 2.5 6.5 0 3.7-.2 4-2.8 4-2.3 0-3-.6-3.7-3.3-.8-2.5-1.5-3.2-3.5-3.2s-2.6.6-2.8 2.8c-.3 2.3.7 4 5.3 8.7 7.8 8.3 10.2 14.8 7.4 20.3-1.9 3.8-5.1 5.7-9.7 5.7-3.5 0-4.9-.6-7.3-2.9-2.4-2.5-2.9-3.7-2.9-8.1v-5.1l3.3.3c3 .3 3.2.6 3.7 4.8.4 4 .8 4.5 3 4.5s2.5-.5 2.8-3.9c.3-3.5-.2-4.4-4.6-9-6.9-7.1-8.2-9.4-8.2-14.2 0-3.1.7-5.1 2.6-7.3 2.2-2.7 3.2-3.1 7.5-3.1 4 0 5.5.5 7.4 2.5zm24.5.5c0 2.7-.3 3-3 3h-3v38h-7l-.2-18.8-.3-18.7-2.7-.3c-2.4-.3-2.8-.8-2.8-3.3V39h19v3zm10.5 19v21.5h-7l-.3-20.5c-.1-11.2 0-21 .3-21.8.3-.8 1.7-1.2 3.7-1l3.3.3V61zm22.9-18.9c2 2.4 2.6 4.1 2.6 8v5l-3.2-.3c-3.1-.3-3.3-.6-3.8-4.8-.4-3.3-1-4.6-2.3-4.8-4.1-.8-4.7 1.3-4.7 15.8 0 14.7.7 16.9 5 15.5 1.7-.5 2-1.5 2-6.1V65h7.2l-.4 6.6c-.4 5.8-.8 7-3.2 9-4.8 4.2-13.9 2.5-16.4-3.1-.7-1.6-1.2-7.9-1.2-16.6 0-18.8 1.5-21.8 11.2-21.9 4 0 5 .4 7.2 3.1zM443 42c0 2.9-.1 3-5 3h-5.1l.3 6.2c.3 6.3.3 6.3 3.6 6.6 2.6.3 3.2.8 3.2 2.7 0 1.9-.6 2.4-3.2 2.7l-3.3.3v13l4.8.3c4.5.3 4.7.5 4.7 3.3V83h-17V39h17v3zM67 91.5V143H50v-39c0-23.2-.4-39-.9-39s-3.1 2.5-5.6 5.5c-2.6 3-5.1 5.5-5.6 5.5s-.9-3.8-.9-8.5v-8.6l8.1-9.4 8.1-9.5H67v51.5zm216.2-10.8c-1.3 3.6-2.3 4.9-4.1 5.1-2.2.4-2.4.1-1.8-3.5.4-2.1.7-4.4.7-5.1 0-.7 1.4-1.2 3.5-1.2h3.5l-1.8 4.7zm-21.5 21.8c1.6 1.8 2.3 3.9 2.3 6.6 0 3.9-.1 4-3.2 3.7-2.8-.3-3.3-.7-3.6-3.3-.4-3.8-1.5-4.9-4.1-4-1.5.5-2.1 1.5-2.1 3.7 0 2.5 1.3 4.5 5.9 9.3 3.7 3.8 6.3 7.5 7 9.9 2.7 10-3.5 17.1-12.7 14.6-5.2-1.4-7.2-4.2-7.2-10.2 0-4.7.1-4.8 3-4.8 2.4 0 3 .4 3 2.2 0 5.9 2.7 9.1 5.6 6.7 2.4-2 1.7-7.3-1.2-10-1.5-1.3-4.4-4.6-6.5-7.2-3.3-4.1-3.9-5.6-3.9-9.6 0-7.8 4-11.5 11.5-10.6 2.7.2 4.7 1.2 6.2 3zm69-1.5c4.2 2.5 5.3 6.7 5.3 20.5 0 18.7-2.2 22.2-13.8 21.6-1.3-.1-3.7-1.4-5.3-3l-2.9-2.9v-15.1c0-16.6.6-19.2 5.4-21.5 4.2-2.1 7.5-2 11.3.4zm53.1 1.5c1.6 1.9 2.2 3.9 2.2 7.1 0 4.2-.1 4.4-2.9 4.4-2.5 0-2.9-.4-3.5-4-.6-3.6-.9-4-3.5-4-1.7 0-3.1.6-3.5 1.6-.9 2.4-.7 26.7.3 28.2.4.8 1.9 1.2 3.2 1 2.1-.3 2.4-.9 2.7-5.6.2-4.2 0-5.2-1.2-5.2-1.1 0-1.6-1-1.6-3 0-2.9.1-3 5-3h5v23h-2.5c-1.7 0-2.5-.6-2.5-1.7 0-1.5-.2-1.5-1.7 0-2.2 1.9-4.9 2.3-8.6 1.4-4.6-1.2-5.7-5.5-5.7-21.5 0-12.8.2-14.2 2.3-17.3 3.7-5.6 12.2-6.3 16.5-1.4zm-208.4-.8c.7 2.6 7.6 38.8 7.6 40.2 0 .6-1.5 1.1-3.4 1.1-3.6 0-4.6-1.2-4.6-5.6 0-2.1-.4-2.4-4-2.4-3.9 0-4 .1-4.6 4-.6 3.7-.9 4-4 4-1.9 0-3.4-.3-3.4-.7 0-1.1 7-38.6 7.6-40.6.4-1.2 1.6-1.7 4.4-1.7 2.8 0 4 .5 4.4 1.7zm21.8 9.5l3.6 11.3.1-11.3.1-11.2h6v43.1l-3.1-.3c-3.1-.3-3.2-.5-6.8-12.1l-3.6-11.8-.3 12-.3 12.1H186v-43h7.6l3.6 11.2zm32.9-8.3l2.9 2.9v31.4l-2.9 2.9c-2.8 2.7-3.4 2.9-11 2.9H211v-43h8.1c7.6 0 8.2.2 11 2.9zm55.9.1c0 2.7-.3 3-3 3h-3v37h-8v-37h-2.5c-2.1 0-2.5-.5-2.5-3v-3h19v3zm20.8-1c2.5 2.4 3.6 7.5 2.9 13.8-.4 4.1-2 6.5-4.8 7.4-.5.2.7 4.7 2.6 10l3.5 9.8h-7.8l-3-8.8-3-8.7-.1 8.7-.1 8.8h-8v-43h7.8c6.4 0 8.2.4 10 2zm44 9.7l4 11.8.1-11.8.1-11.7h6v43h-6.6l-4.1-12.8-4.1-12.7-.1 12.7-.1 12.8h-6v-43h6.8l4 11.7zM167 182v22h-7v-44h7v22zm15.2-10l3.7 11.5.1-11.8V160h6v44h-3c-2.9 0-3-.2-7.2-13.3l-4.3-13.2-.3 13.3-.3 13.3-2.7-.3-2.7-.3-.3-21.8-.2-21.8 3.7.3 3.7.3 3.8 11.5zm31.3-9.5c1.4 1.3 2.5 3.2 2.5 4.2s.3 2.8.6 4c.6 2.1.3 2.3-3 2.3-3.1 0-3.6-.3-3.6-2.3 0-3.3-1.5-4.9-4.1-4.5-1.8.2-2.5 1-2.7 3.1-.3 2.1.8 3.9 5.1 8.5 7.7 8.2 8.7 10 8.7 15.5 0 4-.5 5.3-2.9 7.8-2.4 2.4-3.8 2.9-7.6 2.9s-5.2-.5-7.6-2.9c-2.4-2.5-2.9-3.7-2.9-8V188h3.5c3.5 0 3.5 0 3.5 4.5 0 4.9 1.9 6.7 4.9 4.8 3.2-2.1 1.7-6.9-4.4-13.4-3.1-3.4-6.1-7.3-6.6-8.6-1.7-4.4-1-9 1.7-12.2 2.2-2.7 3.2-3.1 7.5-3.1 4 0 5.5.5 7.4 2.5zm24.5.5c0 2.7-.3 3-3 3h-3v38h-7v-38h-3c-2.7 0-3-.3-3-3v-3h19v3zm10.8 18.7l-.3 21.8-3.2.3-3.3.3V160h7l-.2 21.7zm23-18.5c.3 2.5 0 2.8-2.7 2.8H266l-.2 18.7-.3 18.8h-7l-.3-18.8-.2-18.7h-3c-2.7 0-3-.3-3-3v-3.1l9.8.3 9.7.3.3 2.7zm10.2 14.7c0 19.1.5 21 4.9 19.6 2-.6 2.1-1.5 2.3-18.8l.3-18.2 3.3-.3 3.3-.3-.3 19.6-.3 19.7-2.8 2.4c-4.9 4.2-13.4 2.9-16.2-2.5-1.2-2.4-1.5-6.7-1.5-21.1v-18h7v17.9zm36.8-14.7c.3 2.5 0 2.8-2.7 2.8H313l-.2 18.7-.3 18.8h-7l-.3-18.8-.2-18.7h-3c-2.7 0-3-.3-3-3v-3.1l9.8.3 9.7.3.3 2.7zM329 182v22h-7v-44h7v22zm23.1-19.1l2.9 2.9v16.1c0 15.5-.1 16.1-2.4 18.8-2.1 2.4-3.1 2.8-8 2.8-9.3 0-11.6-4.2-11.5-21 0-17.5 2.6-22.5 11.5-22.5 3.7 0 5.1.6 7.5 2.9zm17.9 7.8c1.8 6 3.7 11.2 4.1 11.8.5.5.9-4.3.9-10.9v-11.7l2.8.3 2.7.3v43h-3c-3 0-3.1-.2-7.2-12.5l-4.1-12.5-.4 12.5-.3 12.5-2.7.3-2.8.3V160h6.7l3.3 10.7zm31.4-8.5c1.7 1.5 2.8 3.8 3.2 6.5l.7 4.3h-3.6c-3.3 0-3.6-.2-3.9-3.3-.5-5.4-6.7-4.9-6.8.6 0 1 2.6 4.6 5.9 8 7.2 7.6 8.1 9.3 8.1 15.2 0 8.3-7.1 12.7-15.5 9.5-3.1-1.2-5.7-6.8-5.3-11.4.3-2.7.7-3.1 3.6-3.4 3.1-.3 3.2-.2 3.2 3.2 0 1.9.3 4.1.6 5 .8 2.1 5 2.1 5.8 0 1.5-4 .4-6.5-5.4-12.8-6.5-6.9-8.4-11.1-7.4-16.4 1.3-6.9 11.3-9.8 16.8-5zM372.2 226c-.8 8.2-6.7 14-14.2 14-2.5 0-3-.4-3-2.5 0-6.9 4.8-13 11.5-14.6 5.1-1.2 6-.7 5.7 3.1zm-26.7 5c2.6 5.1 1.4 14.3-2 15.7-2.2.8-7.2-4.1-8.6-8.4-1.2-3.7-.5-8.6 1.7-12.1l1.5-2.3 3 2.1c1.6 1.2 3.6 3.4 4.4 5zm-16.6 10.6c4.1 3.4 5.8 9.1 4.3 14.3-1.7 5.6-3.3 6.6-6.6 4-5.4-4.3-7.2-12-4.1-17.9 1.9-3.7 2.5-3.7 6.4-.4zm24.2 3.3c-.6 1-4.8 6-9.4 10.9-7.9 8.6-13.7 17.9-13.7 21.9 0 1.1 1.8 3 4.2 4.6l4.2 2.7h-9.5l.6 4.7c.7 4.8 2.1 11.2 3.2 13.9.3.8-.1 1.4-.9 1.4-1.7 0-3.7-6.1-4.5-13.7-.7-6.1-1-6.2-8.5-3.3-11.9 4.5-16.8 14-16.8 32.4-.1 23.1-6.4 36.7-22.3 47.3-8.3 5.6-21.4 10.7-31.8 12.5l-6.9 1.2V406h21.6c11.9 0 26.8-.5 33-1.2l11.4-1.2v-7.2c0-6.2.3-7.5 1.9-8.4 1.2-.6 10.4-1 23-1 20.6 0 21 0 22.5 2.2 1.3 1.9 1.6 5.8 1.6 23 0 20.2 0 20.7-2.2 22.2-1.9 1.3-5.8 1.6-22.6 1.6-12.1 0-21.1-.4-22.3-1-1.6-.9-1.9-2.2-1.9-8.4v-7.3l-13.7-1.3c-11.4-1.1-24.2-1.1-72.3-.2-32.2.7-62.7 1.2-67.8 1.2h-9.3l.3-7.7.3-7.8 15.5.3c8.5.1 25.3.5 37.3.8l21.7.7v-22.8l-10.9-2.1c-12.1-2.4-19.7-5.5-34.1-14.3-5.2-3.2-11.2-6.7-13.4-7.8l-3.9-2 10.4.1c11.7 0 16.3-1.5 27.9-9.4 7.4-5 15.6-9 19-9.1 1.4 0-.6-.9-4.3-2-9.7-2.8-14.4-5.4-20.2-11.5-7.1-7.3-11-16-15.6-34.6-5.9-23.8-9.3-31.4-16.2-35.7l-3.1-1.9 3.8-.7c4.7-.9 16.6.1 24.3 2 12.9 3.3 22.8 9.6 40.8 25.7 11.4 10.3 19.3 14.6 28.8 15.5 12.2 1.1 20.4-2.6 35.7-16 9.8-8.6 17.3-12.7 23.4-12.7 4.3 0 5.2.5 10 5 5.6 5.3 6.6 5.8 6.6 3.6 0-.7 1.2-3.6 2.8-6.5 3-5.8 20-25.1 22-25.1.9 0 1 .5.3 1.9zm14.6 5.2c2.4 1.1 4.3 2.4 4.3 2.8 0 1.3-3.4 4-7.2 5.5-3.8 1.6-8.6.9-12.3-1.8-2-1.4-2-1.4 0-3.6 2.1-2.4 6.9-4.9 9.4-5 .8 0 3.4.9 5.8 2.1zM356 266c3.8 2.7 3.8 4.5 0 6.5-4.9 2.5-9.4 2.2-13.5-.9-4.2-3.2-4.1-4.5.6-6.9 4.1-2.2 8.7-1.7 12.9 1.3zm1.5 106.5c3.1 3 3.2 5.8.3 8.5-2.1 1.9-3.4 2-26.3 2-20.1 0-24.4-.3-26.3-1.6-3.1-2.2-2.9-6.7.4-9.3 2.5-2 3.9-2.1 26.1-2.1h23.4l2.4 2.5zm-218.7 28.7c.7.7 1.2 4.4 1.2 9.7 0 9.6-1.3 12.1-6.3 12.1-5.5 0-6.7-2.2-6.7-12 0-5.3.5-9.1 1.2-9.8 1.6-1.6 9-1.6 10.6 0zM358 442c2.6 2.6 2.5 6.2-.1 8.6-2 1.8-3.9 1.9-26.4 1.9s-24.4-.1-26.4-1.9c-2.5-2.3-2.7-6.3-.4-8.8 1.5-1.6 3.7-1.8 26.5-1.8 23.5 0 24.9.1 26.8 2z"/><path fill="#fff" d="M100.2 91.8c-4.5.7-5.7 4.5-5.7 18.2 0 6.9.3 13.7.7 15.1 1.4 4.7 8.8 6.4 12.6 2.9 2.9-2.7 3.5-7.1 3-20.5-.5-14.2-2.4-16.9-10.6-15.7zM167 53.6v8.5l2.8-.3c2.6-.3 2.7-.5 3-7.7.3-7.7-.3-9.1-4-9.1-1.6 0-1.8 1.1-1.8 8.6zm48.2 5.5c-1.7 9.3-1.6 9.9 1.3 9.9 2.9 0 3-.6 1.1-10l-1.2-6.5-1.2 6.6zm107.4 47.5c-1.3 1.2-1.6 4.1-1.6 14.7 0 7.3.4 13.8.9 14.5.4.8 1.9 1.2 3.2 1 2.4-.3 2.4-.4 2.7-15 .2-13.7.1-14.8-1.7-15.7-1.5-.8-2.3-.7-3.5.5zm-153 11.3c-.4 3-1 6.7-1.3 8.2-.5 2.6-.3 2.9 2.2 2.9 2.7 0 2.7 0 2.1-5.4-.4-3-1.1-6.7-1.5-8.2-.7-2.6-.8-2.4-1.5 2.5zm49.4 3.6V137h2.3c4.2 0 4.7-1.6 4.7-15.5s-.5-15.5-4.7-15.5H219v15.5zm78-9c0 6.3.1 6.6 2.3 6.3 2-.3 2.2-.8 2.2-6.3s-.2-6-2.2-6.3c-2.2-.3-2.3 0-2.3 6.3zm44.5 55.7c-.3 1.3-.4 8.1-.3 15.2.3 10.7.6 13.1 2 13.9 1.2.8 2.1.7 3.2-.2 1.3-1.1 1.6-3.8 1.6-15 0-9.3-.4-14.1-1.2-14.9-1.9-1.9-4.7-1.4-5.3 1zM225.7 382.7c-.4.3-.7 5.5-.7 11.5V405h9v-23h-3.8c-2.1 0-4.2.3-4.5.7z"/></svg>