<svg width="23" height="23" viewBox="0 0 23 23" fill="none" xmlns="http://www.w3.org/2000/svg">
<path fill-rule="evenodd" clip-rule="evenodd" d="M11.4374 1.958C5.8891 1.958 1.39224 6.45047 1.39224 11.991C1.39224 17.5316 5.8891 22.0241 11.4374 22.0241C16.9858 22.0241 21.4826 17.5316 21.4826 11.991C21.4826 6.45047 16.9858 1.958 11.4374 1.958ZM0.425262 11.991C0.425262 5.91537 5.35611 0.991028 11.4374 0.991028C17.5188 0.991028 22.4496 5.91537 22.4496 11.991C22.4496 18.0667 17.5188 22.991 11.4374 22.991C5.35611 22.991 0.425262 18.0667 0.425262 11.991Z" fill="white"/>
<path fill-rule="evenodd" clip-rule="evenodd" d="M11.4374 4.29609C7.18188 4.29609 3.73303 7.74176 3.73303 11.991C3.73303 16.2403 7.18188 19.686 11.4374 19.686C15.693 19.686 19.1418 16.2403 19.1418 11.991C19.1418 7.74176 15.693 4.29609 11.4374 4.29609ZM2.76605 11.991C2.76605 7.20666 6.64889 3.32912 11.4374 3.32912C16.226 3.32912 20.1088 7.20666 20.1088 11.991C20.1088 16.7754 16.226 20.6529 11.4374 20.6529C6.64889 20.6529 2.76605 16.7754 2.76605 11.991Z" fill="white"/>
<path fill-rule="evenodd" clip-rule="evenodd" d="M11.4374 3.32912C11.7045 3.32912 11.9209 3.54558 11.9209 3.8126V5.86444C11.9209 6.13146 11.7045 6.34792 11.4374 6.34792C11.1704 6.34792 10.9539 6.13146 10.9539 5.86444V3.8126C10.9539 3.54558 11.1704 3.32912 11.4374 3.32912Z" fill="white"/>
<path fill-rule="evenodd" clip-rule="evenodd" d="M11.4374 17.6299C11.7045 17.6299 11.9209 17.8464 11.9209 18.1134V20.1653C11.9209 20.4323 11.7045 20.6487 11.4374 20.6487C11.1704 20.6487 10.9539 20.4323 10.9539 20.1653V18.1134C10.9539 17.8464 11.1704 17.6299 11.4374 17.6299Z" fill="white"/>
<path fill-rule="evenodd" clip-rule="evenodd" d="M17.0853 11.9892C17.0853 11.7221 17.3018 11.5057 17.5688 11.5057H19.6235C19.8905 11.5057 20.1069 11.7221 20.1069 11.9892C20.1069 12.2562 19.8905 12.4727 19.6235 12.4727H17.5688C17.3018 12.4727 17.0853 12.2562 17.0853 11.9892Z" fill="white"/>
<path fill-rule="evenodd" clip-rule="evenodd" d="M2.76791 11.9892C2.76791 11.7221 2.98438 11.5057 3.2514 11.5057H5.30607C5.5731 11.5057 5.78956 11.7221 5.78956 11.9892C5.78956 12.2562 5.5731 12.4727 5.30607 12.4727H3.2514C2.98438 12.4727 2.76791 12.2562 2.76791 11.9892Z" fill="white"/>
<path d="M9.85693 13.0229H8.18493C8.1776 13.5069 8.2656 13.9249 8.44893 14.2769C8.63227 14.6289 8.87793 14.9186 9.18593 15.1459C9.50127 15.3733 9.8606 15.5383 10.2639 15.6409C10.6746 15.7509 11.0963 15.8059 11.5289 15.8059C12.0643 15.8059 12.5336 15.7436 12.9369 15.6189C13.3476 15.4943 13.6886 15.3219 13.9599 15.1019C14.2386 14.8746 14.4476 14.6069 14.5869 14.2989C14.7263 13.9909 14.7959 13.6573 14.7959 13.2979C14.7959 12.8579 14.7006 12.4986 14.5099 12.2199C14.3266 11.9339 14.1066 11.7066 13.8499 11.5379C13.5933 11.3693 13.3329 11.2483 13.0689 11.1749C12.8123 11.0943 12.6106 11.0393 12.4639 11.0099C11.9726 10.8853 11.5729 10.7826 11.2649 10.7019C10.9643 10.6213 10.7259 10.5406 10.5499 10.4599C10.3813 10.3793 10.2676 10.2913 10.2089 10.1959C10.1503 10.1006 10.1209 9.97594 10.1209 9.82194C10.1209 9.65328 10.1576 9.51394 10.2309 9.40394C10.3043 9.29394 10.3959 9.20228 10.5059 9.12894C10.6233 9.05561 10.7516 9.00428 10.8909 8.97494C11.0303 8.94561 11.1696 8.93094 11.3089 8.93094C11.5216 8.93094 11.7159 8.94928 11.8919 8.98594C12.0753 9.02261 12.2366 9.08494 12.3759 9.17294C12.5153 9.26094 12.6253 9.38194 12.7059 9.53594C12.7939 9.68994 12.8453 9.88428 12.8599 10.1189H14.5319C14.5319 9.66428 14.4439 9.27928 14.2679 8.96394C14.0993 8.64128 13.8683 8.37728 13.5749 8.17194C13.2816 7.96661 12.9443 7.81994 12.5629 7.73194C12.1889 7.63661 11.7966 7.58894 11.3859 7.58894C11.0339 7.58894 10.6819 7.63661 10.3299 7.73194C9.97793 7.82728 9.6626 7.97394 9.38393 8.17194C9.10527 8.36994 8.87793 8.61928 8.70193 8.91994C8.53327 9.21328 8.44893 9.56161 8.44893 9.96494C8.44893 10.3243 8.51493 10.6323 8.64693 10.8889C8.78627 11.1383 8.96593 11.3473 9.18593 11.5159C9.40593 11.6846 9.65527 11.8239 9.93393 11.9339C10.2126 12.0366 10.4986 12.1246 10.7919 12.1979C11.0779 12.2786 11.3603 12.3519 11.6389 12.4179C11.9176 12.4839 12.1669 12.5609 12.3869 12.6489C12.6069 12.7369 12.7829 12.8469 12.9149 12.9789C13.0543 13.1109 13.1239 13.2833 13.1239 13.4959C13.1239 13.6939 13.0726 13.8589 12.9699 13.9909C12.8673 14.1156 12.7389 14.2146 12.5849 14.2879C12.4309 14.3613 12.2659 14.4126 12.0899 14.4419C11.9139 14.4639 11.7489 14.4749 11.5949 14.4749C11.3676 14.4749 11.1476 14.4493 10.9349 14.3979C10.7223 14.3393 10.5353 14.2549 10.3739 14.1449C10.2199 14.0276 10.0953 13.8773 9.99993 13.6939C9.9046 13.5106 9.85693 13.2869 9.85693 13.0229Z" fill="white"/>
</svg>
