<svg width="55" height="55" viewBox="0 0 55 55" fill="none" xmlns="http://www.w3.org/2000/svg">
<g clip-path="url(#clip0_4645_5881)">
<path d="M27.0896 53.6792C41.7746 53.6792 53.6792 41.7746 53.6792 27.0896C53.6792 12.4046 41.7746 0.5 27.0896 0.5C12.4046 0.5 0.5 12.4046 0.5 27.0896C0.5 41.7746 12.4046 53.6792 27.0896 53.6792Z" fill="url(#paint0_linear_4645_5881)" stroke="#00D2FF"/>
<path fill-rule="evenodd" clip-rule="evenodd" d="M27.0772 20.2766L20.0793 13.2432H13.0811V20.2766L20.0793 27.31L13.0811 34.3433V41.3771H20.0793L27.0772 34.3433L34.075 41.3771H41.0729V34.3433L34.075 27.31L41.0729 20.2766V13.2432H34.075L27.0772 20.2766Z" fill="#00D2FF"/>
</g>
<defs>
<linearGradient id="paint0_linear_4645_5881" x1="27.0896" y1="3.53459e-08" x2="27.0896" y2="54.1791" gradientUnits="userSpaceOnUse">
<stop stop-color="#002A3F"/>
<stop offset="1" stop-color="#03374F"/>
</linearGradient>
<clipPath id="clip0_4645_5881">
<rect width="55" height="55" fill="white"/>
</clipPath>
</defs>
</svg>
