<svg width="32" height="25" viewBox="0 0 32 25" fill="none"
  xmlns="http://www.w3.org/2000/svg">
  <path d="M26.7236 14.876C27.5879 14.876 28.2886 14.1753 28.2886 13.3109C28.2886 12.4464 27.5879 11.7456 26.7236 11.7456C25.8589 11.7456 25.1582 12.4464 25.1582 13.3109C25.1582 14.1753 25.8589 14.876 26.7236 14.876Z" fill="white"/>
  <path fill-rule="evenodd" clip-rule="evenodd" d="M29.332 8.09338H27.335C25.5073 3.79956 21.2495 0.789062 16.2886 0.789062C11.2959 0.789062 7.01562 3.83777 5.20752 8.17505C5.50781 8.1214 5.81689 8.09338 6.13232 8.09338C6.40576 8.09338 6.6748 8.11444 6.93701 8.15503C8.64355 4.71716 12.1899 2.35431 16.2886 2.35431C20.3628 2.35431 23.8911 4.68896 25.6099 8.09338H18.8975C17.7446 8.09338 16.8105 9.02777 16.8105 10.1804V16.4412C16.8105 17.5938 17.7446 18.5282 18.8975 18.5282L25.0049 18.5281C23.1382 21.3572 19.9316 23.2238 16.2886 23.2238C12.5728 23.2238 9.31055 21.2817 7.46191 18.3572C7.0376 18.4688 6.5918 18.5281 6.13232 18.5281C6 18.5281 5.86914 18.5232 5.73926 18.5135C7.77197 22.2518 11.7339 24.7891 16.2886 24.7891C20.8369 24.7891 24.7944 22.2584 26.8296 18.5281L29.332 18.5282C30.4849 18.5282 31.4189 17.5938 31.4189 16.4412V10.1804C31.4189 9.02777 30.4849 8.09338 29.332 8.09338ZM29.332 9.65863H18.8975C18.6089 9.65863 18.3755 9.89221 18.3755 10.1804V16.4412C18.3755 16.6065 18.4521 16.7538 18.5718 16.8494C18.6611 16.9205 18.7744 16.963 18.8975 16.963H29.332C29.4771 16.963 29.6079 16.9039 29.7026 16.8086C29.7964 16.7143 29.854 16.5845 29.854 16.4412V10.1804C29.854 10.0261 29.7871 9.88757 29.6807 9.79205C29.6357 9.75165 29.5835 9.71893 29.5264 9.69598C29.4663 9.67188 29.4004 9.65863 29.332 9.65863Z" fill="white"/>
  <path fill-rule="evenodd" clip-rule="evenodd" d="M6.13242 17.0281C8.18547 17.0281 9.84979 15.3638 9.84979 13.3108C9.84979 11.2577 8.18547 9.59338 6.13242 9.59338C4.07937 9.59338 2.41504 11.2577 2.41504 13.3108C2.41504 15.3638 4.07937 17.0281 6.13242 17.0281ZM6.13242 18.5281C9.01389 18.5281 11.3498 16.1922 11.3498 13.3108C11.3498 10.4293 9.01389 8.09338 6.13242 8.09338C3.25094 8.09338 0.915039 10.4293 0.915039 13.3108C0.915039 16.1922 3.25094 18.5281 6.13242 18.5281Z" fill="white"/>
</svg>
