<svg width="26" height="26" viewBox="0 0 26 26" fill="none" xmlns="http://www.w3.org/2000/svg" >
<path d="M13.0363 17.9711C15.7368 17.9711 17.926 15.7819 17.926 13.0814C17.926 10.3809 15.7368 8.19171 13.0363 8.19171C10.3358 8.19171 8.14659 10.3809 8.14659 13.0814C8.14659 15.7819 10.3358 17.9711 13.0363 17.9711Z" fill="white" />
<path d="M23.4531 11.7499L23.6305 11.7121L23.8245 11.7275C24.4834 11.7799 25 12.3302 25 12.9997C25 13.6631 24.4934 14.2097 23.8444 14.2715L23.6594 14.2891L23.4738 14.2528C22.8853 14.1375 22.4428 13.6187 22.4428 12.9993C22.4428 12.3868 22.8753 11.8727 23.4531 11.7499ZM11.7285 23.8566L11.7093 23.6731L11.7451 23.4828C11.8564 22.8902 12.377 22.4428 13.0003 22.4428C13.6256 22.4428 14.1486 22.8943 14.2566 23.4925L14.2903 23.6792L14.2693 23.8663C14.198 24.5039 13.6558 24.9997 13 24.9997C12.3399 24.9997 11.7957 24.4989 11.7285 23.8566ZM2.38627 14.2846L2.1969 14.2726C1.52738 14.2303 1 13.6759 1 12.9997C1 12.3163 1.53824 11.7577 2.21681 11.7257L2.40628 11.7167L2.58514 11.7607C3.14533 11.8985 3.55751 12.4026 3.55751 12.9997C3.55751 13.6044 3.13524 14.1133 2.56524 14.2436L2.38627 14.2846ZM11.7657 2.60259L11.7187 2.42295L11.7246 2.23701C11.7468 1.54891 12.3098 1 13.0003 1C13.6865 1 14.2481 1.54405 14.275 2.22724L14.2823 2.41397L14.2366 2.59399C14.0956 3.14884 13.5939 3.5562 13.0003 3.5562C12.4096 3.5562 11.9101 3.15331 11.7657 2.60259Z" fill="white" stroke="white" stroke-width="2"/>
</svg>
