<svg width="25" height="25" viewBox="0 0 25 25" fill="none" xmlns="http://www.w3.org/2000/svg">
<path fill-rule="evenodd" clip-rule="evenodd" d="M22.7696 12.7371C22.7696 18.624 17.9973 23.3963 12.1104 23.3963C6.22341 23.3963 1.4511 18.624 1.4511 12.7371C1.4511 6.85012 6.22341 2.07781 12.1104 2.07781C17.9973 2.07781 22.7696 6.85012 22.7696 12.7371ZM24.1104 12.7371C24.1104 19.3645 18.7378 24.7371 12.1104 24.7371C5.48293 24.7371 0.110352 19.3645 0.110352 12.7371C0.110352 6.10964 5.48293 0.737061 12.1104 0.737061C18.7378 0.737061 24.1104 6.10964 24.1104 12.7371ZM12.9103 5.5425V12.239L17.8561 17.1848C18.1686 17.4972 18.1686 18.0038 17.8561 18.3162C17.5437 18.6286 17.0372 18.6286 16.7248 18.3162L11.3103 12.9017V5.5425C11.3103 5.10067 11.6685 4.7425 12.1103 4.7425C12.5521 4.7425 12.9103 5.10067 12.9103 5.5425Z" fill="white"/>
</svg>
