<svg width="25" height="25" viewBox="0 0 25 25" fill="none" xmlns="http://www.w3.org/2000/svg">
<path fill-rule="evenodd" clip-rule="evenodd" d="M23.1446 12.7954C23.1446 18.6824 18.3723 23.4547 12.4854 23.4547C6.59841 23.4547 1.8261 18.6824 1.8261 12.7954C1.8261 6.90847 6.59841 2.13616 12.4854 2.13616C18.3723 2.13616 23.1446 6.90847 23.1446 12.7954ZM24.4854 12.7954C24.4854 19.4228 19.1128 24.7954 12.4854 24.7954C5.85793 24.7954 0.485352 19.4228 0.485352 12.7954C0.485352 6.16799 5.85793 0.79541 12.4854 0.79541C19.1128 0.79541 24.4854 6.16799 24.4854 12.7954ZM13.2853 5.60085V12.2973L18.2311 17.2432C18.5436 17.5556 18.5436 18.0621 18.2311 18.3745C17.9187 18.6869 17.4122 18.6869 17.0998 18.3745L11.6853 12.96V5.60085C11.6853 5.15902 12.0435 4.80085 12.4853 4.80085C12.9271 4.80085 13.2853 5.15902 13.2853 5.60085Z" fill="white"/>
</svg>
