<svg width="25" height="25" fill="none" xmlns="http://www.w3.org/2000/svg">
  <path fill-rule="evenodd" clip-rule="evenodd" d="M2.34 12.774c0 5.799 4.701 10.5 10.5 10.5 5.8 0 10.5-4.701 10.5-10.5 0-5.8-4.7-10.5-10.5-10.5-5.799 0-10.5 4.7-10.5 10.5zm-1.5 0c0 6.627 5.373 12 12 12 6.628 0 12-5.373 12-12s-5.372-12-12-12c-6.627 0-12 5.373-12 12z" fill="#fff"/>
  <path fill-rule="evenodd" clip-rule="evenodd" d="M8.198 13.411a3.355 3.355 0 01-2.027.455 3.244 3.244 0 01-1.541-.547c.017.616.101 1.216.246 1.79a8.217 8.217 0 0016.068-.67c.044-.267.075-.538.093-.813a3.314 3.314 0 01-3.098-.281 20.928 20.928 0 01-.125-.085c-.147-.1-.29-.198-.447-.28l-.006-.004a2.836 2.836 0 00-.043-.022l-.006-.003a2.4 2.4 0 00-.049-.023 2.838 2.838 0 00-.529-.143 2.897 2.897 0 00-.59 0 2.78 2.78 0 00-.538.146 3.156 3.156 0 00-.042.019l-.006.003a2.44 2.44 0 00-.043.02l-.006.004a2.761 2.761 0 00-.36.214l-.037.027c-.13.092-.257.183-.397.26a3.4 3.4 0 01-2.263.337 3.209 3.209 0 01-1.274-.559 2.853 2.853 0 00-.446-.277l-.006-.003a2.133 2.133 0 00-.043-.021l-.006-.003-.044-.02a2.834 2.834 0 00-.535-.145 2.896 2.896 0 00-.59 0c-.183.03-.361.078-.533.144l-.046.021-.006.003a3.48 3.48 0 00-.043.021l-.007.003a2.872 2.872 0 00-.457.284 3.218 3.218 0 01-.218.148zm.723-.459l-.044.018.044-.018zm.631 1.365a1.36 1.36 0 00-.145.084l-.01.006a3.04 3.04 0 00-.104.073l-.01.008c-.066.047-.18.13-.31.208a4.833 4.833 0 01-2.446.684 6.717 6.717 0 0012.639-.032 4.744 4.744 0 01-.762-.156l-.003-.001a4.827 4.827 0 01-1.29-.595l-.006-.005a19.069 19.069 0 01-.135-.09l-.002-.002a3.686 3.686 0 00-.29-.188 1.349 1.349 0 00-.147-.038 1.413 1.413 0 00-.185 0 1.316 1.316 0 00-.163.044 1.251 1.251 0 00-.167.098l-.032.023-.018.013c-.12.086-.312.223-.534.344l-.007.004a4.9 4.9 0 01-3.255.49 4.708 4.708 0 01-1.858-.808l-.012-.009m-.748-.155c.05-.017.102-.031.158-.043.061-.004.123-.004.185 0 .057.012.11.027.16.044m.673-1.348l-.044-.018.044.018zm4.829-.02l-.044.018.044-.018zm1.807.018l-.044-.018.044.018z" fill="#fff"/>
</svg>
