<?xml version="1.0" encoding="UTF-8"?>
<svg width="18px" height="19px" viewBox="0 0 18 19" version="1.1" xmlns="http://www.w3.org/2000/svg" xmlns:xlink="http://www.w3.org/1999/xlink">
    <!-- Generator: sketchtool 52.3 (67297) - http://www.bohemiancoding.com/sketch -->
    <title>E1E5C3F2-60FC-48EF-ACA3-E40EE686250E@1,5x</title>
    <desc>Created with sketchtool.</desc>
    <g id="Funding-Lifecycle" stroke="none" stroke-width="1" fill="none" fill-rule="evenodd">
        <g id="Launching-project" transform="translate(-981.000000, -973.000000)" fill="#FFFFFF">
            <g id="Button-01" transform="translate(657.000000, 952.000000)">
                <g id="sync" transform="translate(324.000000, 21.000000)">
                    <path d="M17.1902675,10.7771064 L13.2722446,12.9247359 C12.911591,13.1224454 12.8955048,13.6452362 13.2432491,13.8657902 L14.2220867,14.4866107 C12.2684961,16.7538767 9.03955742,17.6072148 6.17182703,16.3672755 C4.01889869,15.4363284 2.45838621,13.4791375 1.99748386,11.1318904 C1.88785566,10.5734149 1.35620429,10.2116693 0.81013082,10.3237769 C0.264057346,10.4359361 -0.0897381564,10.9795602 0.0199404664,11.537984 C0.612255456,14.5546797 2.6183405,17.070243 5.38622553,18.2671234 C6.53671646,18.7645946 7.73208738,19 8.90915332,19 C11.6158704,19 14.223902,17.7543367 15.9553619,15.5859256 L17.0210347,16.2617685 C17.368779,16.4823225 17.8195959,16.2352113 17.8324548,15.8169477 L17.9726921,11.2732883 C17.9856014,10.8550763 17.5509211,10.5793968 17.1902675,10.7771064" id="Fill-3"></path>
                    <path d="M17.953084,7.46190641 C17.3617709,4.44525674 15.3594203,1.92966301 12.5968387,0.732770538 C8.8113883,-0.907161412 4.53544199,0.300767081 2.05472571,3.40575648 L0.950115897,2.70383466 C0.603018964,2.48326897 0.153091544,2.73039331 0.140206275,3.14867909 L0.000280307557,7.69257985 C-0.0126049614,8.11081407 0.421266205,8.38650829 0.781198074,8.18883976 L4.69192754,6.04104461 C5.05190975,5.84332451 5.06801633,5.32050596 4.7209194,5.09994026 L3.78457307,4.50497502 C5.73523167,2.24382859 8.95378059,1.39415819 11.8126996,2.63271937 C13.9615699,3.56366439 15.5190768,5.52085613 15.9791715,7.8680732 C16.075207,8.35804155 16.4953373,8.69659983 16.9650456,8.69659983 C17.0307303,8.69659983 17.0974719,8.68999884 17.1643143,8.6762296 C17.7094215,8.56406444 18.0625081,8.02041153 17.953084,7.46190641" id="Fill-4"></path>
                </g>
            </g>
        </g>
    </g>
</svg>