<svg width="100" height="100" viewBox="0 0 100 100" fill="none" xmlns="http://www.w3.org/2000/svg">
<path fill-rule="evenodd" clip-rule="evenodd" d="M76.25 50C76.25 35.5025 64.4975 23.75 50 23.75C35.5025 23.75 23.75 35.5025 23.75 50C23.75 64.4975 35.5025 76.25 50 76.25C64.4975 76.25 76.25 64.4975 76.25 50ZM80 50C80 33.4315 66.5685 20 50 20C33.4315 20 20 33.4315 20 50C20 66.5685 33.4315 80 50 80C66.5685 80 80 66.5685 80 50Z" fill="white"/>
<path d="M60.045 55.2569C60.045 55.7807 60.0095 56.3006 59.9383 56.8204C59.9621 56.6497 59.9858 56.4752 60.0095 56.3044C59.8672 57.3442 59.5828 58.3607 59.1679 59.3306C59.2351 59.1754 59.3022 59.0202 59.3654 58.8689C58.9624 59.8001 58.4409 60.673 57.8127 61.4722C57.9154 61.3403 58.0182 61.2123 58.1209 61.0803C57.4848 61.8873 56.7459 62.6128 55.9241 63.2375C56.0584 63.1366 56.1888 63.0357 56.3232 62.9348C55.5053 63.5517 54.6163 64.0638 53.672 64.4596C53.8301 64.3936 53.9881 64.3276 54.1422 64.2656C53.1544 64.6729 52.1232 64.9523 51.0604 65.0919C51.2342 65.0687 51.412 65.0454 51.5859 65.0221C50.5112 65.1618 49.4207 65.1579 48.346 65.0144C48.5199 65.0376 48.6977 65.0609 48.8715 65.0842C47.8324 64.9406 46.813 64.6691 45.845 64.2695C46.0031 64.3354 46.1611 64.4014 46.3152 64.4634C45.3551 64.0638 44.4503 63.5439 43.6206 62.9193C43.755 63.0202 43.8853 63.1211 44.0197 63.2219C43.2137 62.6089 42.4906 61.899 41.8624 61.1075C41.9651 61.2394 42.0679 61.3674 42.1706 61.4994C41.5345 60.6885 41.005 59.8001 40.5981 58.8573C40.6653 59.0125 40.7324 59.1677 40.7956 59.319C40.3926 58.3684 40.1161 57.3675 39.9738 56.3471C39.9975 56.5178 40.0212 56.6924 40.0449 56.8631C39.8948 55.7419 39.9146 54.609 40.0647 53.4878C40.041 53.6585 40.0173 53.8331 39.9936 54.0038C40.2306 52.2618 40.7719 50.578 41.4634 48.9641C41.3962 49.1193 41.329 49.2745 41.2658 49.4258C42.7949 45.8797 44.9995 42.6324 47.299 39.5325C48.0497 38.5238 48.8162 37.5267 49.5946 36.5374C49.4918 36.6693 49.3891 36.7974 49.2864 36.9293C49.9778 36.0486 50.6811 35.1757 51.3844 34.3066C50.4519 34.3066 49.5234 34.3066 48.591 34.3066C49.314 35.1951 50.0292 36.0874 50.7364 36.9875C50.6337 36.8556 50.531 36.7275 50.4282 36.5956C52.9687 39.8274 55.4539 43.1523 57.4176 46.7604C57.8878 47.6217 58.3224 48.4985 58.7096 49.3986C58.6424 49.2434 58.5752 49.0882 58.512 48.9369C59.2035 50.547 59.7447 52.2308 59.9818 53.965C59.9581 53.7943 59.9344 53.6197 59.9107 53.449C60.0016 54.0465 60.045 54.6478 60.045 55.2569C60.045 55.7535 60.2663 56.2773 60.6219 56.6303C60.9656 56.9679 61.5267 57.2201 62.0205 57.1968C62.5302 57.1735 63.0597 57.0106 63.4192 56.6303C63.7748 56.2501 64 55.7846 63.9961 55.2569C63.9921 52.1299 62.9727 49.1309 61.6254 46.3336C60.0964 43.1601 58.0774 40.227 55.9715 37.4026C54.4938 35.4201 52.9569 33.4841 51.3962 31.5675C51.1118 31.2184 50.4361 30.9817 49.9976 31.0011C49.5076 31.0244 48.9189 31.1757 48.5989 31.5675C46.7696 33.8178 44.964 36.0951 43.2611 38.4462C41.8466 40.3977 40.4993 42.4074 39.3298 44.5102C38.267 46.4306 37.3266 48.4558 36.7142 50.5625C36.4179 51.5906 36.2283 52.6343 36.0979 53.6973C35.9872 54.6245 35.9635 55.5595 36.0623 56.4907C36.1808 57.6274 36.3902 58.7448 36.7853 59.8233C37.1725 60.8708 37.6625 61.8912 38.2986 62.8184C39.555 64.6497 41.2223 66.2093 43.1979 67.2762C45.2247 68.3742 47.5163 68.9678 49.8316 68.9988C52.1667 69.0298 54.482 68.4595 56.5484 67.4004C58.5555 66.3684 60.2386 64.8281 61.5385 63.0202C62.1983 62.1007 62.6922 61.0959 63.111 60.0522C63.5377 58.9814 63.759 57.8796 63.9052 56.7429C63.9684 56.2501 64 55.7535 64 55.2569C64 54.7603 63.7787 54.2366 63.4232 53.8835C63.0794 53.546 62.5184 53.2938 62.0245 53.3171C61.5148 53.3404 60.9854 53.5033 60.6258 53.8835C60.2702 54.2637 60.045 54.7293 60.045 55.2569Z" fill="white"/>
</svg>
