<svg width="100" height="100" viewBox="0 0 100 100" fill="none" xmlns="http://www.w3.org/2000/svg">
<path d="M77.1854 61.0134V35.5992C79.3982 34.8778 80.9994 32.8044 80.9994 30.357C80.9994 27.31 78.5203 24.8395 75.4651 24.8395C73.5372 24.8395 71.8421 25.8231 70.8516 27.3135L54.8766 22.0275C54.8928 21.8579 54.9194 21.691 54.9194 21.5176C54.9194 18.4706 52.4404 16 49.3845 16C46.3275 16 43.8503 18.4706 43.8503 21.5176C43.8503 21.6968 43.8606 21.873 43.877 22.0468L28.142 27.3005C27.1499 25.8168 25.4569 24.8388 23.5343 24.8388C20.478 24.8388 18 27.3092 18 30.3562C18 33.0051 19.8728 35.2149 22.3694 35.7488V60.8631C19.8728 61.397 18 63.6065 18 66.2557C18 69.3025 20.478 71.7735 23.5343 71.7735C25.8393 71.7735 27.8148 70.367 28.6465 68.3684L44.573 75.7556C44.1129 76.5596 43.8501 77.4901 43.8501 78.4825C43.8501 81.5299 46.3273 84 49.3844 84C52.4403 84 54.9193 81.5299 54.9193 78.4825C54.9193 77.495 54.6488 76.5758 54.1918 75.7737L70.3459 68.3487C71.1723 70.358 73.1523 71.7741 75.466 71.7741C78.522 71.7741 81 69.3039 81 66.2566C80.9994 63.8073 79.3982 61.7355 77.1854 61.0134ZM25.2558 61.0134V35.5992C26.2447 35.2768 27.0985 34.6742 27.7552 33.9006L43.9751 41.4233C43.8947 41.7977 43.8504 42.1853 43.8504 42.5832C43.8504 45.2319 45.7232 47.4418 48.2198 47.9756V51.6166V54.6534L26.7984 61.8045C26.3332 61.4659 25.8147 61.1962 25.2558 61.0134ZM28.6611 64.2169L48.2192 57.6873V73.0901C47.714 73.1975 47.237 73.3772 46.793 73.6118L28.9962 65.3574C28.9302 64.9579 28.8077 64.5814 28.6611 64.2169ZM51.1058 73.2399V57.8666L70.3232 64.2262C70.1824 64.5792 70.0754 64.9508 70.0104 65.336L51.9835 73.6204C51.703 73.4724 51.4113 73.3395 51.1058 73.2399ZM51.1058 54.8354V51.2682V47.8253C53.3185 47.104 54.9194 45.0304 54.9194 42.5832C54.9194 42.1912 54.876 41.8092 54.7984 41.4405L71.2207 33.8919C71.9971 34.8176 73.0721 35.4869 74.3007 35.7496V60.8642C73.5246 61.0291 72.8087 61.3592 72.1901 61.8116L51.1058 54.8354ZM69.9471 30.0456C69.9409 30.15 69.9319 30.2521 69.9319 30.3571C69.9319 30.6722 69.9602 30.9798 70.0105 31.2807L53.4784 38.8795C52.84 38.1782 52.0279 37.6411 51.1058 37.3403V26.7605C52.2335 26.3922 53.1984 25.6701 53.8783 24.7286L69.9471 30.0456ZM44.897 24.7408C45.6854 25.8278 46.8584 26.6196 48.219 26.9107V37.1907C47.0736 37.4351 46.0647 38.0348 45.3024 38.8657L28.9864 31.297C29.0381 30.9904 29.0695 30.6775 29.0695 30.3562C29.0695 30.2464 29.0594 30.1382 29.0526 30.0297L44.897 24.7408Z" fill="white"/>
</svg>
