<svg width="100" height="100" viewBox="0 0 100 100" fill="none" xmlns="http://www.w3.org/2000/svg">
<path d="M50.0922 62.6194C56.9474 62.6194 62.5046 57.0621 62.5046 50.2069C62.5046 43.3517 56.9474 37.7945 50.0922 37.7945C43.2369 37.7945 37.6797 43.3517 37.6797 50.2069C37.6797 57.0621 43.2369 62.6194 50.0922 62.6194Z" fill="white"/>
<path d="M76.2155 45.3221L76.8847 45.1798L77.6001 45.2367C80.0638 45.4323 82.0009 47.4888 82.0009 49.9996C82.0009 52.4858 80.1028 54.5286 77.6746 54.7598L76.9828 54.8256L76.2924 54.6904C74.0921 54.2595 72.4325 52.3221 72.4325 49.9988C72.4325 47.7017 74.054 45.7816 76.2155 45.3221ZM54.7042 76.3621L54.8297 77.0573L54.7516 77.7556C54.4843 80.1434 52.458 82 50.0004 82C47.5285 82 45.4942 80.1254 45.2426 77.7199L45.1706 77.0308L45.3028 76.3269C45.7193 74.1099 47.6638 72.4325 50.0013 72.4325C52.3482 72.4325 54.3006 74.1266 54.7042 76.3621ZM23.8547 54.6572L23.183 54.8108L22.4798 54.7663C19.9789 54.6083 18 52.5372 18 49.9996C18 47.4363 20.0188 45.3485 22.5548 45.2288L23.2589 45.1955L23.9298 45.3605C26.0201 45.8745 27.5692 47.7561 27.5692 49.9996C27.5692 52.2708 25.983 54.1707 23.8547 54.6572ZM54.8017 23.2903L54.6306 23.9637C54.1044 26.0352 52.2312 27.5659 50.0013 27.5659C47.7821 27.5659 45.9178 26.0517 45.3791 23.9968L45.2028 23.3245L45.2252 22.6291C45.308 20.0581 47.4122 18 50.0013 18C52.5754 18 54.6737 20.0397 54.7742 22.5933L54.8017 23.2903Z" fill="white" stroke="white" stroke-width="2"/>
<circle cx="50" cy="50" r="28.5" stroke="white" stroke-width="3"/>
</svg>
