<svg width="100" height="100" viewBox="0 0 100 100" fill="none" xmlns="http://www.w3.org/2000/svg">
<path fill-rule="evenodd" clip-rule="evenodd" d="M60.0821 78.5494C49.9049 78.5494 41.6251 70.3044 41.6251 60.17C41.6251 50.0356 49.9049 41.7906 60.0821 41.7906C70.2593 41.7906 78.5391 50.0356 78.5391 60.17C78.5391 70.3044 70.2593 78.5494 60.0821 78.5494ZM30.3047 71.9327C28.5405 71.9327 27.1055 70.5036 27.1055 68.7469C27.1055 66.9902 28.5405 65.5612 30.3047 65.5612H39.876C40.4969 67.8663 41.5055 70.0146 42.8282 71.9327H30.3047ZM30.3047 56.7391H39.4495C39.2628 57.8557 39.1641 59.0014 39.1641 60.17C39.1641 61.1681 39.2366 62.1496 39.3736 63.1106H30.3047C28.5405 63.1106 27.1055 61.6815 27.1055 59.9248C27.1055 58.1681 28.5405 56.7391 30.3047 56.7391ZM30.3047 47.9169H43.1772C41.7804 49.8226 40.7004 51.972 40.0145 54.2885H30.3047C28.5405 54.2885 27.1055 52.8594 27.1055 51.1027C27.1055 49.3461 28.5405 47.9169 30.3047 47.9169ZM30.3047 39.0948H60.4511C60.9467 39.0948 61.4213 39.2095 61.8471 39.4149C61.265 39.3662 60.6766 39.34 60.0821 39.34C54.3056 39.34 49.0688 41.6839 45.2797 45.4664H30.3047C28.5407 45.4664 27.1055 44.0372 27.1055 42.2806C27.1055 40.524 28.5407 39.0948 30.3047 39.0948ZM23.6601 27.8221C21.896 27.8221 20.4609 26.3929 20.4609 24.6364C20.4609 22.8798 21.896 21.4506 23.6601 21.4506H53.8066C55.5707 21.4506 57.0058 22.8798 57.0058 24.6364C57.0058 26.3929 55.5707 27.8221 53.8066 27.8221H23.6601ZM68.3261 30.2727C70.0902 30.2727 71.5253 31.7019 71.5253 33.4585C71.5253 35.2151 70.0902 36.6442 68.3261 36.6442H60.4511H38.1796C36.4155 36.6442 34.9804 35.2151 34.9804 33.4585C34.9804 31.7019 36.4155 30.2727 38.1796 30.2727H68.3261ZM65.6694 40.0956C65.5196 39.7403 65.3362 39.4054 65.1227 39.0948H68.3261C71.447 39.0948 73.9862 36.5663 73.9862 33.4585C73.9862 30.3506 71.447 27.8221 68.3261 27.8221H58.4725C59.0989 26.9152 59.4667 25.8179 59.4667 24.6364C59.4667 21.5285 56.9275 19 53.8066 19H23.6601C20.5392 19 18 21.5285 18 24.6364C18 27.7442 20.5392 30.2727 23.6601 30.2727H33.5137C32.8873 31.1797 32.5195 32.2769 32.5195 33.4585C32.5195 34.64 32.8872 35.7373 33.5137 36.6442H30.3047C27.1837 36.6442 24.6445 39.1728 24.6445 42.2806C24.6445 44.0655 25.483 45.6582 26.7874 46.6916C25.483 47.7251 24.6445 49.3179 24.6445 51.1027C24.6445 52.8876 25.483 54.4804 26.7874 55.5138C25.483 56.5473 24.6445 58.1401 24.6445 59.9248C24.6445 61.7097 25.483 63.3025 26.7874 64.3359C25.483 65.3694 24.6445 66.9622 24.6445 68.7469C24.6445 71.8548 27.1837 74.3833 30.3047 74.3833H44.8057C48.6259 78.4521 54.0604 81 60.0821 81C71.6162 81 81 71.6557 81 60.17C81 50.6106 74.4994 42.5358 65.6694 40.0956Z" fill="white"/>
<path d="M60 74C67.732 74 74 67.732 74 60C74 52.268 67.732 46 60 46C52.268 46 46 52.268 46 60C46 67.732 52.268 74 60 74Z" stroke="white" stroke-width="2.5"/>
<mask id="mask0_8_3757" style="mask-type:alpha" maskUnits="userSpaceOnUse" x="54" y="54" width="13" height="13">
<path d="M67 57.25L63.75 60.5L67 63.75V67H63.75L60.5 63.75L57.25 67H54V63.75L57.25 60.5L54 57.25V54H57.25L60.5 57.25L63.75 54H67V57.25Z" fill="white"/>
</mask>
<g mask="url(#mask0_8_3757)">
</g>
<path d="M60.3 58.9C58.03 58.31 57.3 57.7 57.3 56.75C57.3 55.66 58.31 54.9 60 54.9C61.42 54.9 62.13 55.44 62.39 56.3C62.51 56.7 62.84 57 63.26 57H63.56C64.22 57 64.69 56.35 64.46 55.73C64.04 54.55 63.06 53.57 61.5 53.19V52.5C61.5 51.67 60.83 51 60 51C59.17 51 58.5 51.67 58.5 52.5V53.16C56.56 53.58 55 54.84 55 56.77C55 59.08 56.91 60.23 59.7 60.9C62.2 61.5 62.7 62.38 62.7 63.31C62.7 64 62.21 65.1 60 65.1C58.35 65.1 57.5 64.51 57.17 63.67C57.02 63.28 56.68 63 56.27 63H55.99C55.32 63 54.85 63.68 55.1 64.3C55.67 65.69 57 66.51 58.5 66.83V67.5C58.5 68.33 59.17 69 60 69C60.83 69 61.5 68.33 61.5 67.5V66.85C63.45 66.48 65 65.35 65 63.3C65 60.46 62.57 59.49 60.3 58.9Z" fill="white"/>
</svg>
