<svg width="100" height="100" viewBox="0 0 100 100" fill="none" xmlns="http://www.w3.org/2000/svg">
<path fill-rule="evenodd" clip-rule="evenodd" d="M49.8266 18.0005C49.8844 18.0002 49.9422 18 50 18C67.6731 18 82 32.3269 82 50C82 67.6731 67.6731 82 50 82C32.3269 82 18 67.6731 18 50C18 32.4269 32.1651 18.1623 49.7002 18.0014V18C49.7424 18 49.7845 18.0002 49.8266 18.0005ZM49.8217 22.0006C34.4398 22.0965 22 34.5955 22 50C22 60.189 27.4422 69.1068 35.5784 74.0053C33.9445 71.3941 33 68.3073 33 65C33 55.7113 40.4497 48.1626 49.7002 48.0026V48C56.8799 48 62.7002 42.1797 62.7002 35C62.7002 27.8608 56.9454 22.0658 49.8217 22.0006ZM50 78C65.464 78 78 65.464 78 50C78 39.6116 72.3427 30.5446 63.9408 25.7118C65.6858 28.3817 66.7002 31.5724 66.7002 35C66.7002 44.2887 59.2505 51.8374 50 51.9974V52C42.8203 52 37 57.8203 37 65C37 72.1797 42.8203 78 50 78Z" fill="white"/>
<circle cx="50" cy="35" r="4" fill="white"/>
<circle cx="50" cy="65" r="4" fill="white"/>
</svg>
