<svg width="100" height="100" viewBox="0 0 100 100" fill="none" xmlns="http://www.w3.org/2000/svg">
<path fill-rule="evenodd" clip-rule="evenodd" d="M47.0278 43.5C52.9649 43.5 57.7778 38.6871 57.7778 32.75C57.7778 26.8129 52.9649 22 47.0278 22C41.0907 22 36.2778 26.8129 36.2778 32.75C36.2778 38.6871 41.0907 43.5 47.0278 43.5ZM47.0278 24.8795C51.3677 24.8795 54.8983 28.4101 54.8983 32.75C54.8983 37.0899 51.3677 40.6205 47.0278 40.6205C42.6879 40.6205 39.1572 37.0899 39.1572 32.75C39.1572 28.4101 42.6879 24.8795 47.0278 24.8795Z" fill="white"/>
<path d="M56 51.1057V47.5379C53.624 46.4781 50.9919 45.8889 48.2222 45.8889C38.2035 45.8889 29.9855 53.5979 29.1765 63.4079C29.1042 64.2845 29.8241 65 30.7037 65V65C31.5833 65 32.2879 64.2849 32.3751 63.4097C33.1756 55.3719 39.9773 49.0741 48.2222 49.0741C51.0449 49.0741 53.6985 49.8122 56 51.1057Z" fill="white"/>
<path fill-rule="evenodd" clip-rule="evenodd" d="M78.818 43H65.1264C63.4496 41.2784 62.4167 38.9265 62.4167 36.3333C62.4167 31.0559 66.6948 26.7778 71.9722 26.7778C77.2497 26.7778 81.5278 31.0559 81.5278 36.3333C81.5278 38.9265 80.4949 41.2784 78.818 43ZM71.9722 30.1903C68.5852 30.1903 65.8292 32.9463 65.8292 36.3333C65.8292 39.7204 68.5852 42.4764 71.9722 42.4764C75.3593 42.4764 78.1152 39.7204 78.1152 36.3333C78.1152 32.9463 75.3593 30.1903 71.9722 30.1903Z" fill="white"/>
<path d="M13.0602 62.9608C13.0602 63.0472 13.0612 63.1333 13.0632 63.2191C13.0847 64.1531 12.3856 65 11.4514 65V65C10.7021 65 10.0583 64.4475 10.0193 63.6992C10.0066 63.4546 10 63.2085 10 62.9608C10 54.8515 16.5764 48.2778 24.6891 48.2778C27.148 48.2778 29.4638 48.8846 31.5 49.9522C30.7583 50.702 30.0728 51.5065 29.4474 52.3584C27.9937 51.7038 26.3841 51.3367 24.6891 51.3367C18.2768 51.3367 13.0602 56.5511 13.0602 62.9608Z" fill="white"/>
<path fill-rule="evenodd" clip-rule="evenodd" d="M24.3333 45.8889C29.6108 45.8889 33.8889 41.6108 33.8889 36.3333C33.8889 31.0559 29.6108 26.7778 24.3333 26.7778C19.0559 26.7778 14.7778 31.0559 14.7778 36.3333C14.7778 41.6108 19.0559 45.8889 24.3333 45.8889ZM24.3333 30.1903C27.7204 30.1903 30.4764 32.9463 30.4764 36.3333C30.4764 39.7204 27.7204 42.4764 24.3333 42.4764C20.9463 42.4764 18.1903 39.7204 18.1903 36.3333C18.1903 32.9463 20.9463 30.1903 24.3333 30.1903Z" fill="white"/>
<path d="M87.4444 45H62.5556C60.5822 45 59 46.6 59 48.5556V73.4444C59 75.4 60.5822 77 62.5556 77H87.4444C89.4 77 91 75.4 91 73.4444V48.5556C91 46.6 89.4 45 87.4444 45ZM83.8889 62.7778H76.7778V69.8889H73.2222V62.7778H66.1111V59.2222H73.2222V52.1111H76.7778V59.2222H83.8889V62.7778Z" fill="white"/>
</svg>
