<svg width="100" height="100" viewBox="0 0 100 100" fill="none" xmlns="http://www.w3.org/2000/svg">
<path d="M14 50.3409V48.2273C15.8977 48.2273 17.2216 47.8295 17.9716 47.0341C18.733 46.2386 19.1136 44.9091 19.1136 43.0454V37.5909C19.1136 36.0227 19.2614 34.6648 19.5568 33.517C19.8636 32.3693 20.358 31.4204 21.0398 30.6704C21.7216 29.9204 22.6307 29.3636 23.767 29C24.5024 28.7647 25.3496 28.6055 26.3086 28.5225C27.2277 28.4429 27.9773 29.2024 27.9773 30.125V30.125C27.9773 31.0476 27.2222 31.7653 26.3143 31.929C25.7496 32.0308 25.2642 32.1908 24.858 32.4091C24.108 32.8182 23.5739 33.4545 23.2557 34.3182C22.9489 35.1704 22.7955 36.2613 22.7955 37.5909V44.4091C22.7955 45.2954 22.6761 46.1023 22.4375 46.8295C22.2102 47.5568 21.7841 48.1818 21.1591 48.7045C20.5341 49.2273 19.642 49.6307 18.483 49.9148C17.3352 50.1988 15.8409 50.3409 14 50.3409ZM27.9773 70.4204C27.9773 71.343 27.2277 72.1026 26.3086 72.023C25.3496 71.9399 24.5024 71.7808 23.767 71.5454C22.6307 71.1818 21.7216 70.625 21.0398 69.875C20.358 69.125 19.8636 68.1761 19.5568 67.0284C19.2614 65.8807 19.1136 64.5227 19.1136 62.9545V57.5C19.1136 55.6363 18.733 54.3068 17.9716 53.5113C17.2216 52.7159 15.8977 52.3182 14 52.3182V50.2045C15.8409 50.2045 17.3352 50.3466 18.483 50.6307C19.642 50.9148 20.5341 51.3182 21.1591 51.8409C21.7841 52.3636 22.2102 52.9886 22.4375 53.7159C22.6761 54.4432 22.7955 55.25 22.7955 56.1363V62.9545C22.7955 64.2841 22.9489 65.375 23.2557 66.2273C23.5739 67.0795 24.108 67.7102 24.858 68.1193C25.2643 68.3437 25.7498 68.5082 26.3147 68.6128C27.2218 68.7809 27.9773 69.4979 27.9773 70.4204V70.4204Z" fill="white"/>
<path d="M85.7315 50.2045V52.3182C83.8338 52.3182 82.5043 52.7159 81.7429 53.5113C80.9929 54.3068 80.6179 55.6363 80.6179 57.5V62.9545C80.6179 64.5227 80.4645 65.8807 80.1577 67.0284C79.8622 68.1761 79.3736 69.125 78.6918 69.875C78.0099 70.625 77.1009 71.1818 75.9645 71.5454C75.2291 71.7808 74.382 71.9399 73.423 72.023C72.5038 72.1026 71.7543 71.343 71.7543 70.4204V70.4204C71.7543 69.4979 72.5098 68.7815 73.4167 68.6122C73.9772 68.5075 74.4571 68.3432 74.8565 68.1193C75.6179 67.7102 76.152 67.0795 76.4588 66.2273C76.777 65.375 76.9361 64.2841 76.9361 62.9545V56.1363C76.9361 55.25 77.0497 54.4432 77.277 53.7159C77.5156 52.9886 77.9474 52.3636 78.5724 51.8409C79.1974 51.3182 80.0838 50.9148 81.2315 50.6307C82.3906 50.3466 83.8906 50.2045 85.7315 50.2045ZM71.7543 30.125C71.7543 29.2024 72.5038 28.4429 73.423 28.5225C74.382 28.6055 75.2291 28.7647 75.9645 29C77.1009 29.3636 78.0099 29.9204 78.6918 30.6704C79.3736 31.4204 79.8622 32.3693 80.1577 33.517C80.4645 34.6648 80.6179 36.0227 80.6179 37.5909V43.0454C80.6179 44.9091 80.9929 46.2386 81.7429 47.0341C82.5043 47.8295 83.8338 48.2273 85.7315 48.2273V50.3409C83.8906 50.3409 82.3906 50.1988 81.2315 49.9148C80.0838 49.6307 79.1974 49.2273 78.5724 48.7045C77.9474 48.1818 77.5156 47.5568 77.277 46.8295C77.0497 46.1023 76.9361 45.2954 76.9361 44.4091V37.5909C76.9361 36.2613 76.777 35.1704 76.4588 34.3182C76.152 33.4545 75.6179 32.8182 74.8565 32.4091C74.4572 32.1913 73.9774 32.0315 73.4171 31.9296C72.5094 31.7646 71.7543 31.0476 71.7543 30.125V30.125Z" fill="white"/>
<path fill-rule="evenodd" clip-rule="evenodd" d="M60.4715 44.5555C62.8095 43.5591 64.4485 41.24 64.4485 38.5381C64.4485 34.9272 61.5212 32 57.9103 32C54.2994 32 51.3722 34.9272 51.3722 38.5381C51.3722 39.0697 51.4357 39.5865 51.5554 40.0814L42.6174 45.6974C41.4992 44.8035 40.0811 44.2691 38.5381 44.2691C34.9272 44.2691 32 47.1963 32 50.8072C32 54.4181 34.9272 57.3453 38.5381 57.3453C40.1517 57.3453 41.6287 56.7608 42.769 55.792L52.3029 60.7079C52.2745 60.9553 52.2599 61.2069 52.2599 61.4619C52.2599 65.0728 55.1872 68 58.7981 68C62.409 68 65.3362 65.0728 65.3362 61.4619C65.3362 58.6019 63.4999 56.1709 60.9421 55.2834L60.4715 44.5555ZM56.5008 55.3387L56.0387 44.8044C55.298 44.5835 54.6123 44.2348 54.0073 43.7839L44.9415 49.4802C45.0298 49.9087 45.0762 50.3525 45.0762 50.8072C45.0762 51.1924 45.0429 51.5697 44.979 51.9366L54.2824 56.7337C54.9143 56.13 55.6671 55.6517 56.5008 55.3387Z" fill="white"/>
</svg>
