<svg width="233" height="37" viewBox="0 0 233 37" fill="none" xmlns="http://www.w3.org/2000/svg">
<rect width="233" height="37" rx="8" fill="#00D2FF"/>
<g clip-path="url(#clip0_7370_92432)">
<path fill-rule="evenodd" clip-rule="evenodd" d="M14.7065 9L25.1388 27.7185L28.5936 21.4556L21.6162 9H14.7065Z" fill="white"/>
<path fill-rule="evenodd" clip-rule="evenodd" d="M14.7065 21.8076L18.2969 27.7187H25.4775L21.8872 21.8076H14.7065Z" fill="white"/>
<path fill-rule="evenodd" clip-rule="evenodd" d="M11.5903 14.9111L8 21.3148L11.5903 27.7185L18.8387 14.9111H11.5903Z" fill="white"/>
</g>
<path d="M43.4844 24H41.0312L41.0469 22.3125H43.4844C44.1458 22.3125 44.7005 22.1667 45.1484 21.875C45.5964 21.5781 45.9349 21.1536 46.1641 20.6016C46.3932 20.0443 46.5078 19.3776 46.5078 18.6016V18.0156C46.5078 17.4167 46.4427 16.888 46.3125 16.4297C46.1823 15.9714 45.9896 15.5859 45.7344 15.2734C45.4844 14.9609 45.1745 14.724 44.8047 14.5625C44.4349 14.401 44.0104 14.3203 43.5312 14.3203H40.9844V12.625H43.5312C44.2917 12.625 44.9844 12.7526 45.6094 13.0078C46.2396 13.263 46.7839 13.6302 47.2422 14.1094C47.7057 14.5833 48.0599 15.151 48.3047 15.8125C48.5547 16.474 48.6797 17.2135 48.6797 18.0312V18.6016C48.6797 19.4141 48.5547 20.1536 48.3047 20.8203C48.0599 21.4818 47.7057 22.0495 47.2422 22.5234C46.7839 22.9974 46.237 23.362 45.6016 23.6172C44.9661 23.8724 44.2604 24 43.4844 24ZM42.2344 12.625V24H40.0859V12.625H42.2344ZM54.1484 24.1562C53.5078 24.1562 52.9323 24.0521 52.4219 23.8438C51.9115 23.6354 51.4766 23.3464 51.1172 22.9766C50.763 22.6016 50.4896 22.1667 50.2969 21.6719C50.1094 21.1719 50.0156 20.6354 50.0156 20.0625V19.75C50.0156 19.099 50.1094 18.5078 50.2969 17.9766C50.4844 17.4401 50.75 16.9792 51.0938 16.5938C51.4375 16.2083 51.849 15.9115 52.3281 15.7031C52.8073 15.4948 53.3359 15.3906 53.9141 15.3906C54.513 15.3906 55.0417 15.4922 55.5 15.6953C55.9583 15.8932 56.3411 16.1745 56.6484 16.5391C56.9557 16.9036 57.1875 17.3411 57.3438 17.8516C57.5 18.3568 57.5781 18.9167 57.5781 19.5312V20.3984H50.9531V18.9766H55.5469V18.8203C55.5365 18.4922 55.474 18.1927 55.3594 17.9219C55.2448 17.6458 55.0677 17.4271 54.8281 17.2656C54.5885 17.099 54.2786 17.0156 53.8984 17.0156C53.5911 17.0156 53.3229 17.0833 53.0938 17.2188C52.8698 17.349 52.6823 17.5365 52.5312 17.7812C52.3854 18.0208 52.276 18.3073 52.2031 18.6406C52.1302 18.974 52.0938 19.3438 52.0938 19.75V20.0625C52.0938 20.4167 52.1406 20.7448 52.2344 21.0469C52.3333 21.349 52.4766 21.612 52.6641 21.8359C52.8568 22.0547 53.0859 22.2266 53.3516 22.3516C53.6224 22.4714 53.9297 22.5312 54.2734 22.5312C54.7057 22.5312 55.0964 22.4479 55.4453 22.2812C55.7995 22.1094 56.1068 21.8568 56.3672 21.5234L57.4062 22.6016C57.2292 22.862 56.9896 23.112 56.6875 23.3516C56.3906 23.5911 56.0312 23.7865 55.6094 23.9375C55.1875 24.0833 54.7005 24.1562 54.1484 24.1562ZM61.0234 17.1719V27.25H58.9531V15.5469H60.8672L61.0234 17.1719ZM66.4531 19.6875V19.8516C66.4531 20.4661 66.3802 21.0365 66.2344 21.5625C66.0938 22.0833 65.8854 22.5391 65.6094 22.9297C65.3333 23.3151 64.9896 23.6172 64.5781 23.8359C64.1719 24.0495 63.7031 24.1562 63.1719 24.1562C62.651 24.1562 62.1979 24.0573 61.8125 23.8594C61.4271 23.6562 61.1016 23.3698 60.8359 23C60.5703 22.6302 60.3568 22.2005 60.1953 21.7109C60.0391 21.2161 59.9219 20.6771 59.8438 20.0938V19.5703C59.9219 18.9505 60.0391 18.388 60.1953 17.8828C60.3568 17.3724 60.5703 16.9323 60.8359 16.5625C61.1016 16.1875 61.4245 15.8984 61.8047 15.6953C62.1901 15.4922 62.6406 15.3906 63.1562 15.3906C63.6927 15.3906 64.1641 15.4922 64.5703 15.6953C64.9818 15.8984 65.3281 16.1901 65.6094 16.5703C65.8906 16.9505 66.1016 17.4036 66.2422 17.9297C66.3828 18.4557 66.4531 19.0417 66.4531 19.6875ZM64.3828 19.8516V19.6875C64.3828 19.3125 64.349 18.9661 64.2812 18.6484C64.2135 18.3255 64.1094 18.0443 63.9688 17.8047C63.8281 17.5599 63.6458 17.3698 63.4219 17.2344C63.1979 17.099 62.9271 17.0312 62.6094 17.0312C62.2917 17.0312 62.0182 17.0833 61.7891 17.1875C61.5599 17.2917 61.3724 17.4401 61.2266 17.6328C61.0807 17.8255 60.9661 18.0547 60.8828 18.3203C60.8047 18.5807 60.7526 18.8698 60.7266 19.1875V20.4844C60.7734 20.8698 60.8646 21.2161 61 21.5234C61.1354 21.8307 61.3333 22.0755 61.5938 22.2578C61.8594 22.4401 62.2031 22.5312 62.625 22.5312C62.9427 22.5312 63.2135 22.4609 63.4375 22.3203C63.6615 22.1797 63.8438 21.987 63.9844 21.7422C64.125 21.4922 64.2266 21.2057 64.2891 20.8828C64.3516 20.5599 64.3828 20.2161 64.3828 19.8516ZM70.1484 12V24H68.0781V12H70.1484ZM71.75 19.8594V19.6953C71.75 19.0755 71.8385 18.5052 72.0156 17.9844C72.1927 17.4583 72.4505 17.0026 72.7891 16.6172C73.1276 16.2318 73.5417 15.9323 74.0312 15.7188C74.5208 15.5 75.0781 15.3906 75.7031 15.3906C76.3385 15.3906 76.901 15.5 77.3906 15.7188C77.8854 15.9323 78.3021 16.2318 78.6406 16.6172C78.9792 17.0026 79.237 17.4583 79.4141 17.9844C79.5911 18.5052 79.6797 19.0755 79.6797 19.6953V19.8594C79.6797 20.474 79.5911 21.0443 79.4141 21.5703C79.237 22.0911 78.9792 22.5469 78.6406 22.9375C78.3021 23.3229 77.888 23.6224 77.3984 23.8359C76.9089 24.0495 76.349 24.1562 75.7188 24.1562C75.0938 24.1562 74.5339 24.0495 74.0391 23.8359C73.5443 23.6224 73.1276 23.3229 72.7891 22.9375C72.4505 22.5469 72.1927 22.0911 72.0156 21.5703C71.8385 21.0443 71.75 20.474 71.75 19.8594ZM73.8125 19.6953V19.8594C73.8125 20.2292 73.849 20.5755 73.9219 20.8984C73.9948 21.2214 74.1068 21.5052 74.2578 21.75C74.4089 21.9948 74.6042 22.1875 74.8438 22.3281C75.0885 22.4635 75.3802 22.5312 75.7188 22.5312C76.0521 22.5312 76.3385 22.4635 76.5781 22.3281C76.8177 22.1875 77.013 21.9948 77.1641 21.75C77.3203 21.5052 77.4349 21.2214 77.5078 20.8984C77.5807 20.5755 77.6172 20.2292 77.6172 19.8594V19.6953C77.6172 19.3307 77.5807 18.9896 77.5078 18.6719C77.4349 18.349 77.3203 18.0651 77.1641 17.8203C77.013 17.5703 76.8151 17.375 76.5703 17.2344C76.3307 17.0885 76.0417 17.0156 75.7031 17.0156C75.3698 17.0156 75.0833 17.0885 74.8438 17.2344C74.6042 17.375 74.4089 17.5703 74.2578 17.8203C74.1068 18.0651 73.9948 18.349 73.9219 18.6719C73.849 18.9896 73.8125 19.3307 73.8125 19.6953ZM83.5312 23.0625L85.7969 15.5469H88.0078L84.6172 25.2812C84.5391 25.4896 84.4375 25.7161 84.3125 25.9609C84.1927 26.2057 84.0312 26.4375 83.8281 26.6562C83.625 26.8802 83.3698 27.0625 83.0625 27.2031C82.7604 27.3438 82.3932 27.4141 81.9609 27.4141C81.7734 27.4141 81.6068 27.401 81.4609 27.375C81.3151 27.349 81.1615 27.3151 81 27.2734V25.7266C81.0521 25.7318 81.112 25.7344 81.1797 25.7344C81.2526 25.7396 81.3151 25.7422 81.3672 25.7422C81.6693 25.7422 81.9193 25.7057 82.1172 25.6328C82.3151 25.5651 82.474 25.4531 82.5938 25.2969C82.7188 25.1458 82.8229 24.9479 82.9062 24.7031L83.5312 23.0625ZM82.4141 15.5469L84.3281 21.7734L84.6641 23.9531L83.2422 24.2109L80.1875 15.5469H82.4141ZM96.9922 15.5469V17.0312H92.1484V15.5469H96.9922ZM93.4453 13.4688H95.5156V21.5625C95.5156 21.8125 95.5495 22.0052 95.6172 22.1406C95.6849 22.276 95.7865 22.3672 95.9219 22.4141C96.0573 22.4609 96.2188 22.4844 96.4062 22.4844C96.5417 22.4844 96.6667 22.4766 96.7812 22.4609C96.8958 22.4453 96.9922 22.4297 97.0703 22.4141L97.0781 23.9609C96.9062 24.0182 96.7109 24.0651 96.4922 24.1016C96.2786 24.138 96.0365 24.1562 95.7656 24.1562C95.3021 24.1562 94.8958 24.0781 94.5469 23.9219C94.1979 23.7604 93.9271 23.5026 93.7344 23.1484C93.5417 22.7891 93.4453 22.3151 93.4453 21.7266V13.4688ZM97.7969 19.8594V19.6953C97.7969 19.0755 97.8854 18.5052 98.0625 17.9844C98.2396 17.4583 98.4974 17.0026 98.8359 16.6172C99.1745 16.2318 99.5885 15.9323 100.078 15.7188C100.568 15.5 101.125 15.3906 101.75 15.3906C102.385 15.3906 102.948 15.5 103.438 15.7188C103.932 15.9323 104.349 16.2318 104.688 16.6172C105.026 17.0026 105.284 17.4583 105.461 17.9844C105.638 18.5052 105.727 19.0755 105.727 19.6953V19.8594C105.727 20.474 105.638 21.0443 105.461 21.5703C105.284 22.0911 105.026 22.5469 104.688 22.9375C104.349 23.3229 103.935 23.6224 103.445 23.8359C102.956 24.0495 102.396 24.1562 101.766 24.1562C101.141 24.1562 100.581 24.0495 100.086 23.8359C99.5911 23.6224 99.1745 23.3229 98.8359 22.9375C98.4974 22.5469 98.2396 22.0911 98.0625 21.5703C97.8854 21.0443 97.7969 20.474 97.7969 19.8594ZM99.8594 19.6953V19.8594C99.8594 20.2292 99.8958 20.5755 99.9688 20.8984C100.042 21.2214 100.154 21.5052 100.305 21.75C100.456 21.9948 100.651 22.1875 100.891 22.3281C101.135 22.4635 101.427 22.5312 101.766 22.5312C102.099 22.5312 102.385 22.4635 102.625 22.3281C102.865 22.1875 103.06 21.9948 103.211 21.75C103.367 21.5052 103.482 21.2214 103.555 20.8984C103.628 20.5755 103.664 20.2292 103.664 19.8594V19.6953C103.664 19.3307 103.628 18.9896 103.555 18.6719C103.482 18.349 103.367 18.0651 103.211 17.8203C103.06 17.5703 102.862 17.375 102.617 17.2344C102.378 17.0885 102.089 17.0156 101.75 17.0156C101.417 17.0156 101.13 17.0885 100.891 17.2344C100.651 17.375 100.456 17.5703 100.305 17.8203C100.154 18.0651 100.042 18.349 99.9688 18.6719C99.8958 18.9896 99.8594 19.3307 99.8594 19.6953ZM115.891 14.3516L112.648 24H110.375L114.625 12.625H116.078L115.891 14.3516ZM118.602 24L115.344 14.3516L115.148 12.625H116.609L120.883 24H118.602ZM118.453 19.7734V21.4688H112.352V19.7734H118.453ZM123.961 11.9922V24H121.898V11.9922H123.961ZM129.258 15.5469L125.578 19.6797L123.586 21.7031L122.93 20.1016L124.469 18.1641L126.766 15.5469H129.258ZM127.148 24L124.531 20.0625L125.906 18.7266L129.539 24H127.148ZM135.008 22.2031V18.3047C135.008 18.0182 134.958 17.7708 134.859 17.5625C134.76 17.3542 134.609 17.1927 134.406 17.0781C134.203 16.9635 133.945 16.9062 133.633 16.9062C133.357 16.9062 133.115 16.9531 132.906 17.0469C132.703 17.1406 132.547 17.2734 132.438 17.4453C132.328 17.612 132.273 17.8047 132.273 18.0234H130.203C130.203 17.6745 130.286 17.3438 130.453 17.0312C130.62 16.7135 130.857 16.4323 131.164 16.1875C131.477 15.9375 131.849 15.7422 132.281 15.6016C132.719 15.4609 133.208 15.3906 133.75 15.3906C134.391 15.3906 134.961 15.5 135.461 15.7188C135.966 15.9323 136.362 16.2552 136.648 16.6875C136.94 17.1198 137.086 17.6641 137.086 18.3203V22.0078C137.086 22.4297 137.112 22.7917 137.164 23.0938C137.221 23.3906 137.305 23.6484 137.414 23.8672V24H135.312C135.214 23.7865 135.138 23.5156 135.086 23.1875C135.034 22.8542 135.008 22.526 135.008 22.2031ZM135.297 18.8516L135.312 20.0781H134.008C133.685 20.0781 133.401 20.112 133.156 20.1797C132.911 20.2422 132.711 20.3359 132.555 20.4609C132.398 20.5807 132.281 20.7266 132.203 20.8984C132.125 21.0651 132.086 21.2552 132.086 21.4688C132.086 21.6771 132.133 21.8646 132.227 22.0312C132.326 22.1979 132.466 22.3307 132.648 22.4297C132.836 22.5234 133.055 22.5703 133.305 22.5703C133.669 22.5703 133.987 22.4974 134.258 22.3516C134.529 22.2005 134.74 22.0182 134.891 21.8047C135.042 21.5911 135.122 21.388 135.133 21.1953L135.727 22.0859C135.654 22.2995 135.544 22.526 135.398 22.7656C135.253 23.0052 135.065 23.2292 134.836 23.4375C134.607 23.6458 134.331 23.8177 134.008 23.9531C133.685 24.0885 133.31 24.1562 132.883 24.1562C132.336 24.1562 131.846 24.0469 131.414 23.8281C130.982 23.6094 130.641 23.3099 130.391 22.9297C130.141 22.5495 130.016 22.1172 130.016 21.6328C130.016 21.1849 130.099 20.7891 130.266 20.4453C130.432 20.1016 130.68 19.8125 131.008 19.5781C131.336 19.3385 131.742 19.1589 132.227 19.0391C132.716 18.9141 133.276 18.8516 133.906 18.8516H135.297ZM143.594 21.6875C143.594 21.5104 143.547 21.3516 143.453 21.2109C143.359 21.0703 143.182 20.9427 142.922 20.8281C142.667 20.7083 142.292 20.5964 141.797 20.4922C141.359 20.3984 140.956 20.2812 140.586 20.1406C140.216 20 139.898 19.8307 139.633 19.6328C139.367 19.4297 139.159 19.1927 139.008 18.9219C138.862 18.6458 138.789 18.3281 138.789 17.9688C138.789 17.6198 138.865 17.2917 139.016 16.9844C139.167 16.6719 139.385 16.3984 139.672 16.1641C139.958 15.9245 140.307 15.737 140.719 15.6016C141.13 15.4609 141.594 15.3906 142.109 15.3906C142.828 15.3906 143.445 15.5078 143.961 15.7422C144.482 15.9766 144.88 16.2995 145.156 16.7109C145.432 17.1172 145.57 17.5755 145.57 18.0859H143.508C143.508 17.862 143.456 17.6589 143.352 17.4766C143.253 17.2943 143.099 17.1484 142.891 17.0391C142.682 16.9245 142.419 16.8672 142.102 16.8672C141.815 16.8672 141.573 16.9141 141.375 17.0078C141.182 17.1016 141.036 17.224 140.938 17.375C140.839 17.526 140.789 17.6927 140.789 17.875C140.789 18.0104 140.815 18.1328 140.867 18.2422C140.924 18.3464 141.016 18.4427 141.141 18.5312C141.266 18.6198 141.435 18.7005 141.648 18.7734C141.867 18.8464 142.135 18.9167 142.453 18.9844C143.083 19.1094 143.633 19.276 144.102 19.4844C144.576 19.6875 144.945 19.9583 145.211 20.2969C145.477 20.6354 145.609 21.0677 145.609 21.5938C145.609 21.9688 145.529 22.3125 145.367 22.625C145.206 22.9323 144.971 23.2005 144.664 23.4297C144.357 23.6589 143.99 23.8385 143.562 23.9688C143.135 24.0938 142.654 24.1562 142.117 24.1562C141.341 24.1562 140.685 24.0182 140.148 23.7422C139.612 23.4609 139.206 23.1068 138.93 22.6797C138.654 22.2474 138.516 21.7995 138.516 21.3359H140.492C140.508 21.6641 140.596 21.9271 140.758 22.125C140.919 22.3229 141.122 22.4661 141.367 22.5547C141.617 22.638 141.88 22.6797 142.156 22.6797C142.469 22.6797 142.732 22.638 142.945 22.5547C143.159 22.4661 143.32 22.349 143.43 22.2031C143.539 22.0521 143.594 21.8802 143.594 21.6875ZM149.203 12V24H147.133V12H149.203ZM148.875 19.4688H148.266C148.266 18.8802 148.344 18.3385 148.5 17.8438C148.656 17.349 148.878 16.9193 149.164 16.5547C149.451 16.1849 149.792 15.8984 150.188 15.6953C150.589 15.4922 151.031 15.3906 151.516 15.3906C151.932 15.3906 152.31 15.4505 152.648 15.5703C152.992 15.6849 153.286 15.8698 153.531 16.125C153.776 16.3802 153.964 16.7135 154.094 17.125C154.229 17.5312 154.297 18.026 154.297 18.6094V24H152.219V18.5938C152.219 18.2031 152.161 17.8958 152.047 17.6719C151.932 17.4427 151.768 17.2786 151.555 17.1797C151.346 17.0807 151.089 17.0312 150.781 17.0312C150.448 17.0312 150.161 17.0964 149.922 17.2266C149.682 17.3516 149.484 17.526 149.328 17.75C149.177 17.974 149.062 18.2318 148.984 18.5234C148.911 18.8151 148.875 19.1302 148.875 19.4688ZM169.398 12.625V24H167.242L162.406 16.1094V24H160.258V12.625H162.406L167.258 20.5234V12.625H169.398ZM175.227 24.1562C174.586 24.1562 174.01 24.0521 173.5 23.8438C172.99 23.6354 172.555 23.3464 172.195 22.9766C171.841 22.6016 171.568 22.1667 171.375 21.6719C171.188 21.1719 171.094 20.6354 171.094 20.0625V19.75C171.094 19.099 171.188 18.5078 171.375 17.9766C171.562 17.4401 171.828 16.9792 172.172 16.5938C172.516 16.2083 172.927 15.9115 173.406 15.7031C173.885 15.4948 174.414 15.3906 174.992 15.3906C175.591 15.3906 176.12 15.4922 176.578 15.6953C177.036 15.8932 177.419 16.1745 177.727 16.5391C178.034 16.9036 178.266 17.3411 178.422 17.8516C178.578 18.3568 178.656 18.9167 178.656 19.5312V20.3984H172.031V18.9766H176.625V18.8203C176.615 18.4922 176.552 18.1927 176.438 17.9219C176.323 17.6458 176.146 17.4271 175.906 17.2656C175.667 17.099 175.357 17.0156 174.977 17.0156C174.669 17.0156 174.401 17.0833 174.172 17.2188C173.948 17.349 173.76 17.5365 173.609 17.7812C173.464 18.0208 173.354 18.3073 173.281 18.6406C173.208 18.974 173.172 19.3438 173.172 19.75V20.0625C173.172 20.4167 173.219 20.7448 173.312 21.0469C173.411 21.349 173.555 21.612 173.742 21.8359C173.935 22.0547 174.164 22.2266 174.43 22.3516C174.701 22.4714 175.008 22.5312 175.352 22.5312C175.784 22.5312 176.174 22.4479 176.523 22.2812C176.878 22.1094 177.185 21.8568 177.445 21.5234L178.484 22.6016C178.307 22.862 178.068 23.112 177.766 23.3516C177.469 23.5911 177.109 23.7865 176.688 23.9375C176.266 24.0833 175.779 24.1562 175.227 24.1562ZM184.039 15.5469V17.0312H179.195V15.5469H184.039ZM180.492 13.4688H182.562V21.5625C182.562 21.8125 182.596 22.0052 182.664 22.1406C182.732 22.276 182.833 22.3672 182.969 22.4141C183.104 22.4609 183.266 22.4844 183.453 22.4844C183.589 22.4844 183.714 22.4766 183.828 22.4609C183.943 22.4453 184.039 22.4297 184.117 22.4141L184.125 23.9609C183.953 24.0182 183.758 24.0651 183.539 24.1016C183.326 24.138 183.083 24.1562 182.812 24.1562C182.349 24.1562 181.943 24.0781 181.594 23.9219C181.245 23.7604 180.974 23.5026 180.781 23.1484C180.589 22.7891 180.492 22.3151 180.492 21.7266V13.4688ZM187.766 21.9688L189.617 15.5469H190.93L190.539 17.7656L188.672 24H187.539L187.766 21.9688ZM186.742 15.5469L188.133 21.9844L188.258 24H186.953L184.734 15.5469H186.742ZM192.648 21.8906L194.008 15.5469H196.008L193.805 24H192.5L192.648 21.8906ZM191.133 15.5469L192.969 21.9062L193.211 24H192.078L190.195 17.7656L189.812 15.5469H191.133ZM196.859 19.8594V19.6953C196.859 19.0755 196.948 18.5052 197.125 17.9844C197.302 17.4583 197.56 17.0026 197.898 16.6172C198.237 16.2318 198.651 15.9323 199.141 15.7188C199.63 15.5 200.188 15.3906 200.812 15.3906C201.448 15.3906 202.01 15.5 202.5 15.7188C202.995 15.9323 203.411 16.2318 203.75 16.6172C204.089 17.0026 204.346 17.4583 204.523 17.9844C204.701 18.5052 204.789 19.0755 204.789 19.6953V19.8594C204.789 20.474 204.701 21.0443 204.523 21.5703C204.346 22.0911 204.089 22.5469 203.75 22.9375C203.411 23.3229 202.997 23.6224 202.508 23.8359C202.018 24.0495 201.458 24.1562 200.828 24.1562C200.203 24.1562 199.643 24.0495 199.148 23.8359C198.654 23.6224 198.237 23.3229 197.898 22.9375C197.56 22.5469 197.302 22.0911 197.125 21.5703C196.948 21.0443 196.859 20.474 196.859 19.8594ZM198.922 19.6953V19.8594C198.922 20.2292 198.958 20.5755 199.031 20.8984C199.104 21.2214 199.216 21.5052 199.367 21.75C199.518 21.9948 199.714 22.1875 199.953 22.3281C200.198 22.4635 200.49 22.5312 200.828 22.5312C201.161 22.5312 201.448 22.4635 201.688 22.3281C201.927 22.1875 202.122 21.9948 202.273 21.75C202.43 21.5052 202.544 21.2214 202.617 20.8984C202.69 20.5755 202.727 20.2292 202.727 19.8594V19.6953C202.727 19.3307 202.69 18.9896 202.617 18.6719C202.544 18.349 202.43 18.0651 202.273 17.8203C202.122 17.5703 201.924 17.375 201.68 17.2344C201.44 17.0885 201.151 17.0156 200.812 17.0156C200.479 17.0156 200.193 17.0885 199.953 17.2344C199.714 17.375 199.518 17.5703 199.367 17.8203C199.216 18.0651 199.104 18.349 199.031 18.6719C198.958 18.9896 198.922 19.3307 198.922 19.6953ZM208.352 17.2734V24H206.289V15.5469H208.242L208.352 17.2734ZM210.922 15.4922L210.891 17.4141C210.776 17.3932 210.646 17.3776 210.5 17.3672C210.359 17.3568 210.227 17.3516 210.102 17.3516C209.784 17.3516 209.505 17.3958 209.266 17.4844C209.026 17.5677 208.826 17.6901 208.664 17.8516C208.508 18.013 208.388 18.2109 208.305 18.4453C208.221 18.6745 208.174 18.9349 208.164 19.2266L207.719 19.1719C207.719 18.6354 207.773 18.138 207.883 17.6797C207.992 17.2214 208.151 16.8203 208.359 16.4766C208.568 16.1328 208.828 15.8672 209.141 15.6797C209.458 15.487 209.823 15.3906 210.234 15.3906C210.349 15.3906 210.471 15.401 210.602 15.4219C210.737 15.4375 210.844 15.4609 210.922 15.4922ZM214.117 11.9922V24H212.055V11.9922H214.117ZM219.414 15.5469L215.734 19.6797L213.742 21.7031L213.086 20.1016L214.625 18.1641L216.922 15.5469H219.414ZM217.305 24L214.688 20.0625L216.062 18.7266L219.695 24H217.305Z" fill="white"/>
<defs>
<clipPath id="clip0_7370_92432">
<rect width="21" height="19" fill="white" transform="translate(8 9)"/>
</clipPath>
</defs>
</svg>
