<svg width="36" height="36" fill="none" xmlns="http://www.w3.org/2000/svg">
  <rect x=".5" y=".5" width="34.985" height="34.985" rx="3.5" stroke="#033C50"/>
  <path d="M12.448 15.96L8.05 22.457a.333.333 0 00.247.506l8.677.92-4.526-7.921zm-4.14 4.183l3.138-5.098-3.194-1.916a.167.167 0 00-.252.143v6.784c0 .168.22.23.309.087zm.452 4.507l8.1 3.652a.333.333 0 00.473-.302v-2.736l-8.48-.93c-.186-.02-.26.233-.093.316zm3.385-10.74l3.33-5.957c.18-.294-.15-.635-.45-.464l-6.283 4.109a.166.166 0 00.005.282l3.398 2.03zm5.855.423h4.55l-3.982-7.016A.662.662 0 0018 7a.662.662 0 00-.568.317l-3.982 7.016H18zm9.747-1.204l-3.193 1.916 3.137 5.098c.088.143.309.081.309-.087v-6.784c0-.13-.142-.21-.253-.143zm-3.892.78l3.397-2.03a.167.167 0 00.006-.282L20.974 7.49c-.3-.171-.63.17-.45.464l3.331 5.956zm3.293 10.425l-8.482.93v2.735c0 .244.253.405.473.303l8.1-3.653c.168-.082.094-.335-.091-.315zm-3.596-8.373l-4.526 7.92 8.677-.92a.333.333 0 00.247-.505l-4.398-6.495zM18 15.666h-4.185L18 22.99l4.184-7.323H18z" fill="#063C53"/>
</svg>
