<svg width="36" height="36" fill="none" xmlns="http://www.w3.org/2000/svg">
  <rect x=".5" y=".5" width="34.985" height="34.985" rx="3.5" stroke="#033C50"/>
  <path d="M11.56 14.082h0c-.578-.497-.71-1.01-.71-1.364 0-.354.132-.868.71-1.363.37-.318.88-.594 1.506-.82l-1.506 3.547zm0 0c.37.317.88.593 1.506.82l-1.506-.82zm12.046-2.727h0c.578.496.71 1.009.71 1.363 0 .355-.132.869-.71 1.364-.37.317-.88.593-1.506.82-1.222.443-2.827.685-4.517.685-1.69 0-3.295-.242-4.517-.685l10.54-3.547zm0 0c-.37-.318-.88-.594-1.506-.82-1.222-.443-2.827-.685-4.517-.685-1.69 0-3.295.242-4.517.685l10.54.82zm-10.083.436h0c1.07-.388 2.511-.604 4.06-.604 1.549 0 2.99.216 4.06.604h0c.52.188.861.385 1.07.558.215.179.265.311.265.37 0 .057-.05.19-.265.369-.209.173-.55.37-1.07.557h0c-1.07.388-2.511.605-4.06.605-1.549 0-2.99-.217-4.06-.605h0c-.52-.188-.861-.384-1.07-.557-.215-.18-.265-.312-.265-.37 0-.058.05-.19.265-.369.209-.173.55-.37 1.07-.558zm-1.964 5.477h0c-.577-.496-.709-1.009-.709-1.363v-.15h1.337v.15c0 .058.05.19.266.37.208.172.55.369 1.07.557h0c1.069.388 2.51.604 4.06.604 1.548 0 2.99-.216 4.06-.604h0c.519-.188.86-.385 1.07-.558.215-.178.265-.311.265-.369v-.15h1.337v.15c0 .354-.132.867-.71 1.363h0c-.37.318-.88.594-1.506.82l-10.54-.82zm0 0c.37.318.88.594 1.507.82l-1.507-.82zm6.023 1.505c-1.69 0-3.295-.241-4.516-.684l4.516.684zm0 0c1.69 0 3.295-.24 4.517-.684l-4.517.684zm-6.023 1.684h0c-.577-.497-.709-1.01-.709-1.364v-.15h1.337v.15c0 .058.05.19.266.37.208.173.55.37 1.07.557h0c1.069.388 2.51.605 4.06.605 1.548 0 2.99-.217 4.06-.605h0c.519-.188.86-.384 1.07-.558.215-.178.265-.31.265-.369v-.15h1.337v.15c0 .355-.132.867-.71 1.363h0c-.37.319-.88.594-1.506.82-1.222.444-2.826.686-4.517.686-1.69 0-3.295-.242-4.516-.685l-1.507-.82zm0 0c.37.317.88.593 1.507.82l-1.507-.82z" fill="#063C53" stroke="#033C50" stroke-width=".3"/>
  <path d="M11.559 23.645h0c-.577-.497-.709-1.009-.709-1.363v-9.714h1.337v.15c0 .058.05.191.266.37.208.173.55.37 1.07.557h0c1.069.388 2.51.605 4.06.605 1.548 0 2.99-.217 4.06-.605h0c.519-.188.86-.384 1.07-.557.215-.179.265-.312.265-.37v-.15h1.337v9.714c0 .354-.132.868-.71 1.363-.37.318-.88.594-1.506.82-1.222.443-2.826.685-4.517.685-1.69 0-3.295-.242-4.516-.685l-1.507-.82zm0 0c.372.32.881.594 1.507.82l-1.507-.82zm1.963-.436h0c-.52-.189-.86-.385-1.07-.558-.215-.179-.265-.311-.265-.37V14.51c.259.143.553.275.877.393h0c1.222.443 2.826.685 4.517.685 1.692 0 3.294-.242 4.516-.685.327-.118.622-.25.88-.393v7.773c0 .058-.05.19-.265.369-.209.173-.55.37-1.07.558h0c-1.07.388-2.51.604-4.06.604-1.548 0-2.99-.216-4.06-.604z" fill="#063C53" stroke="#033C50" stroke-width=".3"/>
</svg>
