<svg width="36" height="36" fill="none" xmlns="http://www.w3.org/2000/svg">
  <rect x=".5" y=".5" width="34.985" height="34.985" rx="3.5" stroke="#033C50"/>
  <path d="M11.083 26h13.584a2.09 2.09 0 002.083-2.083V13.083A2.09 2.09 0 0024.667 11H11.083A2.09 2.09 0 009 13.083v10.834A2.09 2.09 0 0011.083 26zm-.416-2.083V21.02l5.208-3.396 6.396 6.708H11.083a.418.418 0 01-.416-.416zm14 .416h-.105L19.959 19.5l1.896-1.792 3.23 3.105v3.104a.418.418 0 01-.417.416zM11.083 12.667h13.584c.229 0 .416.187.416.416V18.5l-2.645-2.563a.817.817 0 00-1.146 0l-2.48 2.355-2.208-2.313c-.27-.291-.729-.333-1.062-.125l-4.875 3.167v-5.938c0-.229.187-.416.416-.416z" fill="#063C53"/>
</svg>
