<svg width="36" height="36" fill="none" xmlns="http://www.w3.org/2000/svg">
  <rect x=".5" y=".5" width="34.985" height="34.985" rx="3.5" stroke="#033C50"/>
  <path d="M17.968 10a7.968 7.968 0 100 15.937 7.968 7.968 0 100-15.937zm0 13.88a5.909 5.909 0 01-5.912-5.912 5.909 5.909 0 015.912-5.912 5.909 5.909 0 015.912 5.912 5.909 5.909 0 01-5.912 5.912zm0-10.024a4.113 4.113 0 100 8.225 4.113 4.113 0 000-8.225zm0 6.169a2.059 2.059 0 01-2.056-2.057c0-1.134.922-2.056 2.056-2.056s2.057.922 2.057 2.056a2.059 2.059 0 01-2.057 2.057z" fill="#063C53"/>
</svg>
