<svg width="37" height="37" fill="none" xmlns="http://www.w3.org/2000/svg">
  <rect x=".807" y="1.248" width="34.985" height="34.985" rx="3.5" stroke="#033C50"/>
  <path d="M27.581 20.809c-1.344-1.198-5.018-.71-5.9-.621a14.003 14.003 0 01-2.485-2.794 11.33 11.33 0 00.828-3.683c0-1.108-.515-2.306-1.964-2.306-.51.015-.98.249-1.24.622-.62.934-.36 2.793.62 4.701a30.03 30.03 0 01-2.533 5.06c-1.507.527-4.66 1.77-4.92 3.101-.099.408.058.825.411 1.109.36.263.823.402 1.293.397 1.912 0 3.778-2.261 5.07-4.17a38.255 38.255 0 014.504-1.019c2.016 1.511 3.778 1.73 4.711 1.73 1.24 0 1.71-.442 1.86-.845.232-.427.134-.94-.255-1.282zm-1.298.755c-.052.308-.516.622-1.344.443a7.568 7.568 0 01-2.637-1.153c.672-.09 2.173-.224 3.263-.045.411.09.822.308.718.755zm-8.64-9.145a.55.55 0 01.411-.224c.464 0 .568.488.568.89a8.61 8.61 0 01-.62 2.754c-.771-1.775-.614-3.017-.36-3.42zm-.099 8.613c.446-.81.846-1.64 1.188-2.485a11.858 11.858 0 001.657 1.82c0 .04-1.605.308-2.845.665zm-3.054 1.775c-1.188 1.685-2.434 2.753-3.106 2.753a.86.86 0 01-.313-.09c-.157-.084-.22-.253-.157-.397.157-.626 1.507-1.47 3.576-2.266z" fill="#063C53"/>
</svg>
