<svg version="1.0" xmlns="http://www.w3.org/2000/svg" width="684" height="681.333" viewBox="0 0 513 511"><path fill="#fff" d="M0 255.5V511h513V0H0v255.5zM66 94v52H49V66.5l-6.1 6.2c-3.4 3.5-6.3 6.3-6.5 6.3-.2 0-.4-3.8-.4-8.4 0-9.4-.7-8.1 11.3-21.9l5.9-6.7H66v52zm40 0v52H89V66.6L82.5 73 76 79.4v-18l8.2-9.7 8.3-9.7H106v52zm50.8-51.4c2.7.8 5.2 5.2 5.2 9.4 0 2.6-.3 3-2.9 3-2.3 0-3-.6-3.7-3.3-.8-2.5-1.5-3.2-3.4-3.2-2.1 0-2.6.5-2.8 3.2-.3 2.8.6 4.2 6.1 10.1 4.6 4.9 6.6 7.8 7.1 10.6C164 81 160.2 86 151.8 86c-6.7 0-9.8-3.2-9.8-10.1V71h3.4c3.4 0 3.5.1 3.8 4.2.3 3.8.6 4.3 2.8 4.3 2.2 0 2.5-.5 2.8-3.9.3-3.6-.2-4.4-5.1-9.5-6.6-6.8-7.7-8.8-7.7-14.1 0-7.5 6.4-11.6 14.8-9.4zm51.3 2.5c1 1.3 1.9 4.1 1.9 6.1 0 3.5-.2 3.8-2.8 3.8-2.3 0-3-.6-3.7-3.3-.8-2.5-1.5-3.2-3.5-3.2s-2.6.6-2.8 2.8c-.3 2.2.9 4.1 5.7 9.4 3.5 3.7 6.6 8.2 7.2 10.4 2.5 8.2-1.6 14.9-9.2 14.9S190 82.7 190 75c0-3.9.1-4 3.4-4 3.4 0 3.5.1 3.8 4.2.3 3.8.6 4.3 2.8 4.3 2.2 0 2.5-.5 2.8-3.9.3-3.6-.2-4.4-5.1-9.5-6.6-6.8-7.7-8.8-7.7-14.1 0-3.3.6-4.8 3-7.2 2.8-2.8 3.5-3 8.2-2.6 3.8.4 5.5 1.1 6.9 2.9zm22.9-.2c0 2.5-.4 3-2.7 3.3l-2.8.3-.3 18.7L225 86h-7V48h-3c-2.5 0-3-.4-3-2.3 0-1.3.3-2.7.7-3 .3-.4 4.6-.7 9.5-.7h8.8v2.9zm15.5-.7c1.2 5.5 7.5 39.5 7.5 40.6 0 .7-1.4 1.2-3.4 1.2-3.6 0-4.6-1.2-4.6-5.6 0-2.1-.4-2.4-3.9-2.4-4.1 0-5.1 1.1-5.1 5.6 0 2.1-.5 2.4-3.5 2.4-1.9 0-3.5-.4-3.5-.9 0-1 6.8-37.5 7.7-40.9.4-1.8 1.2-2.2 4.4-2.2s3.9.4 4.4 2.2zm17.3 20L264 86h-7V41.9l3.3.3 3.2.3.3 21.7zM278.2 54l3.7 11.5.3-11.5.3-11.5 2.8-.3 2.7-.3V86h-3c-2.9 0-3-.2-6.7-12.2l-3.8-12.3-.5 12-.5 12h-6l-.3-20.5c-.1-11.2 0-21 .3-21.8.3-.8 1.7-1.2 3.7-1 3.2.3 3.3.5 7 11.8zm29.3-9.8c1.2 5.5 7.5 39.5 7.5 40.6 0 .7-1.4 1.2-3.4 1.2-3.6 0-4.6-1.2-4.6-5.6 0-2.1-.4-2.4-3.9-2.4-4.1 0-5.1 1.1-5.1 5.6 0 2.1-.5 2.4-3.5 2.4-1.9 0-3.5-.4-3.5-.9 0-1 6.8-37.5 7.7-40.9.4-1.8 1.2-2.2 4.4-2.2s3.9.4 4.4 2.2zm27.9.7c1.5 1.5 2.1 3.7 2.4 8.3.3 5.4.1 6.6-1.7 8.2l-2 1.9 2.4 1.9c2.2 1.7 2.5 2.7 2.5 8.3 0 5.3-.4 6.9-2.4 9.2-2.2 2.5-3.1 2.8-10.5 3.1l-8.1.4V41.7l7.7.6c5.8.4 8.1 1 9.7 2.6zM349 61v19h4.5c4.3 0 4.5.1 4.5 3v3h-16V42h7v19zm28.8-15.8c.3 2.7.2 2.8-4.7 2.8H368v13h3.5c3.2 0 3.5.2 3.5 3s-.3 3-3.5 3H368v13h5c4.9 0 5 .1 5 3v3.1l-8.7-.3-8.8-.3-.3-20.5c-.1-11.2 0-21 .3-21.8.3-.9 2.6-1.2 8.7-1 8.2.3 8.3.3 8.6 3zm27.3-.3c2.4 2.5 2.9 3.7 2.9 8V58h-3.4c-3.4 0-3.5-.1-3.8-4.7-.2-3.8-.7-4.9-2.2-5.1-3.7-.8-4.6 2.4-4.6 16.4 0 13.8.7 16 4.7 15.2 1.4-.3 1.9-1.5 2.1-6.1l.3-5.7h6.9v6.1c0 5.4-.3 6.4-2.9 9-2.3 2.3-3.8 2.9-7.1 2.9-9.4 0-11-3.2-11-22.2.1-9.9.5-15 1.4-16.7 3.2-5.8 11.9-6.9 16.7-2.2zM418.5 64v21.5l-3.7.3-3.8.3V64.7c0-11.7.3-21.7.7-22.1.4-.4 2.1-.6 3.8-.4l3 .3V64zM440 44.9c0 2.5-.4 3-2.7 3.3l-2.8.3-.3 18.7L434 86h-7V48h-3c-2.5 0-3-.4-3-2.3 0-1.3.3-2.7.7-3 .3-.4 4.6-.7 9.5-.7h8.8v2.9zM450 64v22h-7V64.7c0-11.8.3-21.7.7-22 .3-.4 1.9-.7 3.5-.7h2.8v22zm21-19.1c0 2.8-.2 3-4.7 3.3l-4.8.3-.3 6.2-.3 6.3h3.6c3.2 0 3.5.2 3.5 3s-.3 3-3.5 3H461v13h5c4.9 0 5 .1 5 3v3h-17V42h17v2.9zm18.3-1.8c2.9 1.3 4.7 4.8 4.7 8.9 0 2.7-.3 3-3.4 3-3.2 0-3.5-.3-3.8-3.3-.2-2.7-.7-3.2-2.8-3.2-2.1 0-2.6.5-2.8 3.2-.3 2.8.6 4.2 6.1 10.1 7.3 7.7 8.9 12.5 6.3 18.6-1.8 4.3-4.2 5.6-10.1 5.6-6.5 0-9.5-3.1-9.5-10 0-4.9.1-5 3-5 2.6 0 3 .4 3 2.8 0 6.9 6.3 8.6 6.8 1.9.3-3.3-.3-4.3-5.1-9.5-6.7-7.1-7.7-8.9-7.7-14.5 0-3.8.5-4.9 3.1-7.1 3.3-2.8 8.1-3.4 12.2-1.5zM173 60.3c0 17.8.4 19.7 4.1 19.7.9 0 2-.7 2.3-1.6.3-.9.6-9.2.6-18.5V43h7v17c0 22.8-1.4 26-11 26-3.3 0-4.8-.6-7.1-2.9l-2.9-2.9V43h7v17.3zm289.8 45.4c1.5 1.6 2.2 3.7 2.2 6.4 0 3.7-.2 3.9-3 3.9-2.5 0-3-.4-3-2.4 0-3.5-2.6-5.9-5.1-4.6-3.5 1.9-2.3 5.6 4.1 12.5 6.4 6.9 8 9.8 8 14.5 0 8.6-8.3 13.5-16 9.5-3.8-2-5-4.3-5-9.9 0-4.6 0-4.6 3.5-4.6s3.5 0 3.5 4.4c0 3.7.4 4.6 2.2 5.2 2.8.9 5-2 4.1-5.5-.3-1.4-3.3-5.6-6.6-9.4-5.2-5.8-6.1-7.3-6.5-11.6-.2-2.7.1-5.8.8-7 2.7-5.2 12.6-6 16.8-1.4zm-301.2 18.8l4 21.5h-3.7c-3.6 0-3.8-.2-4.4-4-.6-3.8-.8-4-4.5-4-3.6 0-3.8.2-4.4 4-.6 3.8-.8 4-4.1 4-3.2 0-3.5-.2-3-2.3.8-3.4 7.5-39.1 7.5-39.9 0-.5 1.9-.8 4.3-.8h4.2l4.1 21.5zM179 115l3.8 11.5.1-11.8.1-11.7h6v43h-6.5l-4.2-12.8-4.1-12.7-.1 12.7-.1 12.8h-6v-43.1l3.6.3 3.7.3L179 115zm29.4-11c4.6 1.7 5.6 5.5 5.6 21.5v14.7l-2.9 2.9c-2.8 2.7-3.4 2.9-11 2.9H192v-43h6.9c3.8 0 8.1.4 9.5 1zm33.4 1.2c1.2 1.4 2.3 4.3 2.8 7.5l.7 5.3h-3.6c-3.5 0-3.6-.1-3.9-4.3-.3-3.6-.7-4.3-2.7-4.5-1.3-.2-2.8.2-3.2 1-.5.7-.9 7.5-.9 15 0 12.9.1 13.8 2.1 14.8 3.2 1.8 4.9-.4 4.9-6.1V129h3.5c3.5 0 3.5 0 3.4 4.2-.1 7.3-1.9 11-6.2 12.7-3 1.1-4.5 1.2-7.7.2-6.2-1.8-7-4.4-7-21.6 0-19 1.2-21.4 10.6-21.5 4 0 5.5.5 7.2 2.2zm23.4-1.1c3.6 1.9 4.8 6.9 4.8 20.4 0 14.8-1.2 18.7-6.3 21.1-4.8 2.3-9.8 1.2-13.1-2.7-2.5-3-2.6-3.5-2.6-17.5 0-15.1.9-19.1 4.7-21.3 2.4-1.4 9.9-1.4 12.5 0zm18.8 10.4c1.2 6.3 2.4 11.5 2.5 11.5.2 0 1-4.4 2-9.8 2.4-14 2-13.2 7.1-13.2h4.4v43h-7l-.1-12.3-.1-12.2-2.2 12c-1.9 10.5-2.4 12-4.1 12-1.7 0-2.3-1.7-4.5-13l-2.5-13-.3 13.2-.3 13.3H273v-43h8.7l2.3 11.5zm28.9-6.3c.6 2.9 1.5 8.1 2.2 11.6.6 3.4 1.3 6.1 1.6 5.9.2-.2 1-4.4 1.8-9.3 2.5-14.4 1.9-13.4 7-13.4h4.5v43h-7l-.1-12.3-.1-12.2-2.2 12c-1.6 9.3-2.5 12.1-3.8 12.3-1.9.4-2 .2-5-14.8l-2.3-11.5-.3 13.2-.3 13.3H303v-43h8.9l1 5.2zM341 121c0 16.7.1 18 1.9 19 1.5.7 2.3.6 3.5-.6 1.3-1.3 1.6-4.5 1.6-19V103h7.2l-.4 18.4c-.3 16.9-.5 18.7-2.4 21.3-4.8 6.5-15.5 4.9-18.1-2.7-.7-2.1-1.2-10-1.2-20.3L333 103h8v18zm28-6l3.8 11.5.1-11.8.1-11.7h6v43h-6.5l-4.2-12.8-4.1-12.7-.1 12.7-.1 12.8h-6v-43.1l3.6.3 3.7.3L369 115zm21 9.5V146h-8v-43h8v21.5zm22-18.5c0 2.7-.3 3-3 3h-3v37h-8v-37h-3c-2.7 0-3-.3-3-3v-3h20v3zm10 18.5V146h-8v-43h8v21.5zm20-18.5c0 2.9-.1 3-5 3h-5v11.9l3.8.3c3.2.3 3.7.7 4 3 .3 2.7.1 2.8-3.7 2.8H432v13h5c4.9 0 5 .1 5 3v3h-17v-43h17v3zM255.5 331.5v129l-38.4.3c-30.1.2-38.6-.1-39.3-1-.9-1.6-1.1-256.2-.1-257.1.4-.4 18-.6 39.2-.5l38.6.3v129zm89 23.5v105.5h-78l-.3-58-.2-58 37.6-47.8c25.7-32.5 38.2-47.7 39.3-47.5 1.5.3 1.6 9.6 1.6 105.8zm-197.1 6.9c10.8 14 19.5 25.9 19.3 26.5-.4 1.2-74.1 2.2-78.5 1.1-1.6-.4-2.2-1.1-1.8-2.1 1.3-3.5 38.9-51.5 40.1-51.2.7.2 10.1 11.7 20.9 25.7zm286-4.3c1.1 2.8.6 15-.6 16.2-1.7 1.7-76.9 1.7-78.6 0-1.2-1.2-1.7-13.4-.6-16.2.5-1.4 5-1.6 39.9-1.6s39.4.2 39.9 1.6zm.4 62.8c.1 27.9-.1 39.3-.9 40.2-1.6 1.9-76.8 2.1-78.7.2-.9-.9-1.2-10.9-1.2-38.9 0-20.8.3-38.5.6-39.3.6-1.5 4.8-1.6 40.3-1.4l39.6.3.3 38.9zM166.5 429v31.5l-13.7.3-13.8.3-.2-19.8-.3-19.8-12.4-.3c-9.3-.2-12.6.1-13.3 1-.4.7-.8 9.8-.8 20.1v18.8l-12.7-.3-12.8-.3-.3-31.8L86 397l40.2.2 40.3.3V429z"/><path fill="#fff" d="M240.6 60.9c-.4 3-1 6.7-1.3 8.2-.5 2.6-.3 2.9 2.2 2.9 2.7 0 2.7 0 2.1-5.4-.4-3-1.1-6.7-1.5-8.2-.7-2.6-.8-2.4-1.5 2.5zm61 0c-.4 3-1 6.7-1.3 8.2-.5 2.6-.3 2.9 2.2 2.9 2.7 0 2.7 0 2.1-5.4-.4-3-1.1-6.7-1.5-8.2-.7-2.6-.8-2.4-1.5 2.5zm23.4-6c0 5.3.2 6.1 1.9 6.1 2.9 0 4.3-2.5 3.9-7.2-.3-3.9-.6-4.3-3-4.6-2.8-.3-2.8-.3-2.8 5.7zm0 18.1c0 6.6.1 7 2.3 7 3.4 0 4.7-1.9 4.7-6.6 0-4.6-1.9-7.4-5.1-7.4-1.7 0-1.9.8-1.9 7zm-172.3 46c-.3.8-1 4.1-1.5 7.2l-.9 5.8h2.8c2.6 0 2.8-.3 2.3-2.8-.3-1.5-.8-4.7-1.3-7.2-.5-2.6-1.1-3.9-1.4-3zm47.3 5.5V140h2.3c4.2 0 4.7-1.6 4.7-15.5s-.5-15.5-4.7-15.5H200v15.5zm55.6-13.9c-.3.9-.6 7.3-.6 14.4 0 10.4.3 13.2 1.6 14.4.8.9 1.9 1.6 2.4 1.6s1.6-.7 2.4-1.6c1.3-1.2 1.6-4 1.6-13.4 0-13.7-.8-17-4.4-17-1.3 0-2.7.7-3 1.6zm-64.4 126.6c-.8.8-1.2 4.6-1.2 10.5v9.4l9.8-.3 9.7-.3.3-8c.5-12.7.6-12.5-9.1-12.5-5.1 0-8.8.5-9.5 1.2zm33.5-.6c-.4.4-.7 5.2-.7 10.6v9.8h19.1l-.3-10.3-.3-10.2-8.5-.3c-4.7-.1-8.9 0-9.3.4zm-34.3 44.7c-.3.8-.4 5.4-.2 10.3l.3 8.9h19l.3-8c.5-12.8.7-12.5-9.9-12.5-6.5 0-9.1.4-9.5 1.3zm34.3-.6c-.4.3-.7 5.1-.7 10.5v9.8h19v-21h-8.8c-4.9 0-9.2.3-9.5.7zm-34.3 44.6c-.2.7-.4 5.4-.2 10.3l.3 8.9h19v-20l-9.3-.3c-7.1-.2-9.4 0-9.8 1.1zm33.6 9.2V345h19v-21h-19v10.5zm-33.6 34.8c-.2.7-.4 5.4-.2 10.3l.3 8.9h19v-20l-9.3-.3c-7.1-.2-9.4 0-9.8 1.1zm33.6 9.2V389h19v-21h-19v10.5zm-33.6 34.8c-.2.7-.4 5.4-.2 10.3l.3 8.9h19v-20l-9.3-.3c-7.1-.2-9.4 0-9.8 1.1zm33.8 8.9l.3 10.3 9.3.3 9.2.3V412h-19.1l.3 10.2zm98.4-133.1c-5.3 6.6-9.5 12.6-9.3 13.2.2.8 4.1 1.3 11 1.5 12.7.3 11.9 1.3 11.5-15.3-.2-9.1-.6-11-1.9-11.3-1-.2-5.1 4.1-11.3 11.9zm-12.2 24.2c-.3.8-.4 4.7-.2 8.8l.3 7.4h25v-17l-12.3-.3c-9.7-.2-12.4 0-12.8 1.1zm-23.3 21.8c-9.6 12.1-11.2 14.6-10.9 17.3l.3 3.1 10.5.3c16.5.4 15.1 2.1 14.8-17.6-.3-14.2-.5-16.7-1.9-17-1-.2-5.6 4.9-12.8 13.9zm23.6 3.5c-.4.4-.7 4.2-.7 8.5 0 6.1.3 7.8 1.6 8.3 2.3.9 21.7.7 23.2-.3.9-.5 1.2-3 1-8.7l-.3-7.9-12.1-.3c-6.6-.1-12.3.1-12.7.4zM276 372.5v8.6l12.8-.3 12.7-.3v-16l-12.7-.3-12.8-.3v8.6zm34.7-7.9c-.4.4-.7 4.3-.7 8.6v7.9l12.8-.3 12.7-.3v-16l-12.1-.3c-6.6-.1-12.3.1-12.7.4zm-34.5 33.6l.3 8.3h25v-16l-12.8-.3-12.8-.3.3 8.3zm34 0l.3 8.3h25v-16l-12.8-.3-12.8-.3.3 8.3zm-33 17.7c-.9.5-1.2 3-1 8.7l.3 7.9h25l.3-7.3c.2-4.6-.2-7.9-.9-8.8-.8-1-3.8-1.4-11.8-1.4-5.8 0-11.2.4-11.9.9zm34 0c-.9.5-1.2 3-1 8.7l.3 7.9h25l.3-7.9c.2-5.7-.1-8.2-1-8.7-.7-.5-6-.9-11.8-.9-5.8 0-11.1.4-11.8.9zm52.2-24.6c-.3.8-.4 4.5-.2 8.3l.3 6.9h26v-16l-12.8-.3c-10.1-.2-12.8 0-13.3 1.1zm35 0c-.3.8-.4 4.5-.2 8.3l.3 6.9h26v-16l-12.8-.3c-10.1-.2-12.8 0-13.3 1.1zm-35 26c-.3.8-.4 4.5-.2 8.3l.3 6.9h26l.3-8.3.3-8.2H377c-10 0-13.2.3-13.6 1.3zm35 0c-.3.8-.4 4.5-.2 8.3l.3 6.9h26v-16l-12.8-.3c-10.1-.2-12.8 0-13.3 1.1z"/></svg>