<svg width="17" height="23" viewBox="0 0 17 23" fill="none" xmlns="http://www.w3.org/2000/svg">
  <path
    d="M16.8365 6.02117V6.27268H11.5232V0.959351H11.7747C12.0389 0.959351 12.2923 1.06433 12.4791 1.25113L16.5447 5.3167C16.7315 5.50355 16.8365 5.75695 16.8365 6.02117ZM11.1911 7.60102C10.6431 7.60102 10.1948 7.1527 10.1948 6.60477V0.959351H1.89273C1.34251 0.959351 0.896484 1.40538 0.896484 1.9556V21.2164C0.896484 21.7667 1.34251 22.2127 1.89273 22.2127H15.8402C16.3905 22.2127 16.8365 21.7667 16.8365 21.2164V7.60102H11.1911ZM6.01082 17.5845C5.99068 17.606 5.96652 17.6233 5.9397 17.6354C5.91288 17.6475 5.88393 17.6543 5.85451 17.6552C5.82508 17.6562 5.79576 17.6513 5.76822 17.6409C5.74067 17.6305 5.71544 17.6148 5.69397 17.5947L3.00135 15.0704C2.97899 15.0494 2.96116 15.0241 2.94898 14.9959C2.93679 14.9678 2.93051 14.9375 2.93051 14.9068C2.93051 14.8762 2.93679 14.8458 2.94898 14.8177C2.96116 14.7896 2.97899 14.7643 3.00135 14.7433L5.69397 12.219C5.71544 12.1988 5.74067 12.1831 5.76822 12.1727C5.79576 12.1624 5.82508 12.1575 5.85451 12.1585C5.88393 12.1594 5.91288 12.1661 5.9397 12.1783C5.96652 12.1904 5.99068 12.2077 6.01082 12.2292L6.82355 13.0961C6.84409 13.118 6.86001 13.1438 6.87039 13.172C6.88076 13.2002 6.88536 13.2302 6.88392 13.2602C6.88248 13.2902 6.87502 13.3196 6.862 13.3466C6.84898 13.3737 6.83065 13.3979 6.80811 13.4177L5.11602 14.9069L6.80811 16.396C6.83065 16.4158 6.84898 16.44 6.862 16.4671C6.87502 16.4941 6.88248 16.5235 6.88392 16.5535C6.88536 16.5835 6.88076 16.6135 6.87039 16.6417C6.86001 16.6699 6.84409 16.6957 6.82355 16.7176L6.01082 17.5845ZM8.14009 19.6799L7.00051 19.349C6.94342 19.3325 6.89525 19.2939 6.8666 19.2418C6.83794 19.1897 6.83115 19.1284 6.84771 19.0713L9.39811 10.2866C9.4147 10.2295 9.45328 10.1813 9.50537 10.1527C9.55746 10.124 9.6188 10.1172 9.67589 10.1338L10.8154 10.4646C10.8437 10.4728 10.8701 10.4865 10.8931 10.5049C10.916 10.5233 10.9352 10.5461 10.9494 10.5719C10.9635 10.5977 10.9725 10.626 10.9757 10.6553C10.979 10.6845 10.9764 10.7141 10.9682 10.7424L8.4178 19.5271C8.40961 19.5554 8.39593 19.5817 8.37753 19.6047C8.35914 19.6277 8.3364 19.6468 8.31061 19.661C8.28482 19.6752 8.25649 19.6842 8.22723 19.6874C8.19797 19.6907 8.16836 19.6881 8.14009 19.6799ZM14.8146 15.0704L12.122 17.5947C12.1005 17.6148 12.0753 17.6305 12.0478 17.6409C12.0202 17.6513 11.9909 17.6562 11.9615 17.6552C11.9321 17.6543 11.9031 17.6475 11.8763 17.6354C11.8495 17.6233 11.8253 17.606 11.8052 17.5845L10.9924 16.7175C10.9719 16.6956 10.9559 16.6698 10.9456 16.6416C10.9352 16.6135 10.9306 16.5835 10.932 16.5535C10.9335 16.5235 10.9409 16.4941 10.9539 16.467C10.967 16.44 10.9853 16.4158 11.0078 16.396L12.7 14.9069L11.0079 13.4177C10.9853 13.3979 10.967 13.3737 10.954 13.3466C10.941 13.3196 10.9335 13.2902 10.9321 13.2602C10.9306 13.2302 10.9352 13.2002 10.9456 13.172C10.956 13.1438 10.9719 13.118 10.9924 13.0961L11.8052 12.2292C11.8253 12.2077 11.8495 12.1904 11.8763 12.1783C11.9032 12.1661 11.9321 12.1594 11.9615 12.1585C11.9909 12.1575 12.0203 12.1624 12.0478 12.1727C12.0754 12.1831 12.1006 12.1988 12.1221 12.219L14.8147 14.7433C14.837 14.7643 14.8549 14.7896 14.867 14.8177C14.8792 14.8459 14.8855 14.8762 14.8855 14.9068C14.8855 14.9375 14.8792 14.9678 14.867 14.9959C14.8548 15.0241 14.837 15.0494 14.8146 15.0704Z"
    fill="white" />
</svg>