<svg width="60" height="70" viewBox="0 0 60 70" fill="none"
  xmlns="http://www.w3.org/2000/svg">
  <path d="M56.3359 0.996826H48.1149L59.3359 12.2178V3.99683C59.3359 2.34683 57.9859 0.996826 56.3359 0.996826Z" fill="#00D2FF"/>
  <path d="M3.66992 0.996826C2.01992 0.996826 0.669922 2.34683 0.669922 3.99683V66.6638C0.669922 68.3138 2.01992 69.6638 3.66992 69.6638H56.3369C57.9869 69.6638 59.3369 68.3138 59.3369 66.6638V18.2278L42.1049 0.996826H3.66992Z" fill="#00D2FF"/>
  <path fill-rule="evenodd" clip-rule="evenodd" d="M9.81601 50.702C9.81601 50.43 9.86959 50.1607 9.97368 49.9095C10.0778 49.6582 10.2304 49.4299 10.4227 49.2377C10.615 49.0454 10.8434 48.8929 11.0946 48.7889C11.3459 48.6849 11.6152 48.6314 11.8872 48.6315H24.3097C24.8588 48.6315 25.3855 48.8496 25.7738 49.2379C26.1621 49.6262 26.3802 50.1528 26.3802 50.702V61.0547C26.3802 61.6038 26.1621 62.1305 25.7738 62.5188C25.3855 62.9071 24.8588 63.1252 24.3097 63.1252H11.8872C11.6152 63.1253 11.3459 63.0718 11.0946 62.9678C10.8434 62.8638 10.615 62.7113 10.4227 62.519C10.2304 62.3267 10.0778 62.0985 9.97368 61.8472C9.86959 61.596 9.81601 61.3267 9.81601 61.0547V50.702ZM10.8521 60.0193L13.5914 57.5822C13.676 57.4979 13.7872 57.4454 13.9061 57.4337C14.025 57.4219 14.1442 57.4517 14.2437 57.5179L16.9975 59.3533L20.8383 55.5128C20.9151 55.436 21.0141 55.3852 21.1213 55.3678C21.2285 55.3503 21.3385 55.3671 21.4357 55.4156L25.3458 57.4306V61.054C25.3459 61.1901 25.3191 61.3248 25.2671 61.4505C25.215 61.5762 25.1387 61.6904 25.0425 61.7866C24.9462 61.8828 24.832 61.9591 24.7063 62.0111C24.5805 62.0631 24.4458 62.0899 24.3097 62.0898H11.8872C11.6126 62.0898 11.3492 61.9807 11.155 61.7865C10.9609 61.5923 10.8518 61.329 10.8518 61.0544V60.0193H10.8521ZM16.0282 53.2903C16.0282 53.5975 15.9371 53.8977 15.7664 54.1531C15.5958 54.4085 15.3533 54.6075 15.0695 54.7251C14.7857 54.8426 14.4735 54.8734 14.1722 54.8134C13.871 54.7535 13.5943 54.6056 13.3771 54.3884C13.1599 54.1712 13.012 53.8945 12.9521 53.5933C12.8922 53.2921 12.9229 52.9798 13.0405 52.696C13.158 52.4123 13.3571 52.1697 13.6124 51.9991C13.8678 51.8285 14.1681 51.7374 14.4752 51.7374C14.8871 51.7374 15.2821 51.901 15.5733 52.1922C15.8645 52.4835 16.0282 52.8785 16.0282 53.2903V53.2903Z" fill="white"/>
</svg>
