<svg width="60" height="69" viewBox="0 0 60 69" fill="none"
  xmlns="http://www.w3.org/2000/svg">
  <path d="M56.5925 0.211182H48.3715L59.5925 11.4322V3.21118C59.5925 1.56118 58.2425 0.211182 56.5925 0.211182Z" fill="#9F2415"/>
  <path d="M3.92651 0.211182C2.27651 0.211182 0.926514 1.56118 0.926514 3.21118V65.8782C0.926514 67.5282 2.27651 68.8782 3.92651 68.8782H56.5935C58.2435 68.8782 59.5935 67.5282 59.5935 65.8782V17.4422L42.3615 0.211182H3.92651Z" fill="#9F2415"/>
  <g clip-path="url(#clip0_2907_2843)">
    <path d="M26.8833 56.7487C25.5388 55.5508 21.8646 56.0379 20.9838 56.1274C20.016 55.2924 19.1815 54.353 18.4976 53.3341C18.9786 52.1463 19.2626 50.9087 19.3263 49.6512C19.3263 48.5429 18.8106 47.3451 17.3618 47.3451C16.8518 47.36 16.3824 47.5936 16.1216 47.9663C15.5015 48.9007 15.7623 50.7596 16.7417 52.6681C16.0694 54.4127 15.2175 56.1075 14.2091 57.7278C12.7024 58.2546 9.54978 59.4972 9.28899 60.8292C9.19047 61.2367 9.34694 61.6542 9.70045 61.9375C10.0598 62.2009 10.5234 62.3401 10.9928 62.3351C12.9052 62.3351 14.7713 60.0737 16.0636 58.1652C17.5356 57.7377 19.0424 57.3948 20.5665 57.1463C22.5833 58.6572 24.345 58.8759 25.278 58.8759C26.5182 58.8759 26.9876 58.4335 27.1383 58.031C27.3701 57.6035 27.2716 57.0916 26.8833 56.7487ZM25.5852 57.5041C25.533 57.8123 25.0694 58.1254 24.2407 57.9465C23.2787 57.7278 22.3746 57.3302 21.6039 56.7934C22.2761 56.7039 23.7771 56.5697 24.8666 56.7487C25.278 56.8381 25.6895 57.0568 25.5852 57.5041ZM16.9445 48.359C17.0314 48.2298 17.1879 48.1502 17.356 48.1353C17.8196 48.1353 17.9239 48.6224 17.9239 49.025C17.8717 49.9644 17.6631 50.8888 17.3038 51.7785C16.533 50.0041 16.6895 48.7616 16.9445 48.359ZM16.846 56.9723C17.2922 56.1622 17.6921 55.3322 18.034 54.4872C18.515 55.1383 19.0655 55.7497 19.6914 56.3063C19.6914 56.3461 18.0862 56.6145 16.846 56.9723ZM13.7919 58.7467C12.6039 60.4316 11.3579 61.5001 10.6856 61.5001C10.5755 61.4902 10.4712 61.4604 10.3727 61.4107C10.2162 61.3262 10.1525 61.1572 10.2162 61.0131C10.3727 60.3868 11.723 59.5419 13.7919 58.7467Z" fill="white"/>
  </g>
  <defs>
    <clipPath id="clip0_2907_2843">
      <rect width="18" height="15" fill="white" transform="translate(9.26001 47.3396)"/>
    </clipPath>
  </defs>
</svg>
