<svg width="60" height="70" viewBox="0 0 60 70" fill="none"
  xmlns="http://www.w3.org/2000/svg">
  <path d="M56.2515 0.996826H48.0305L59.2515 12.2178V3.99683C59.2515 2.34683 57.9015 0.996826 56.2515 0.996826Z" fill="#405681"/>
  <path d="M3.58545 0.996826C1.93545 0.996826 0.585449 2.34683 0.585449 3.99683V66.6638C0.585449 68.3138 1.93545 69.6638 3.58545 69.6638H56.2524C57.9025 69.6638 59.2524 68.3138 59.2524 66.6638V18.2278L42.0205 0.996826H3.58545Z" fill="#405681"/>
  <path fill-rule="evenodd" clip-rule="evenodd" d="M10.6048 55.914C10.6048 55.2583 11.1364 54.7267 11.7921 54.7267H22.8728C23.5285 54.7267 24.06 55.2583 24.06 55.914C24.06 56.5697 23.5285 57.1013 22.8728 57.1013H11.7921C11.1364 57.1013 10.6048 56.5697 10.6048 55.914Z" fill="white"/>
  <path fill-rule="evenodd" clip-rule="evenodd" d="M10.6048 50.6629C10.6048 50.0072 11.1364 49.4756 11.7921 49.4756H17.2282C17.8839 49.4756 18.4155 50.0072 18.4155 50.6629C18.4155 51.3186 17.8839 51.8502 17.2282 51.8502H11.7921C11.1364 51.8502 10.6048 51.3186 10.6048 50.6629Z" fill="white"/>
  <path fill-rule="evenodd" clip-rule="evenodd" d="M10.6048 61.0938C10.6048 60.438 11.1364 59.9065 11.7921 59.9065H22.8728C23.5285 59.9065 24.06 60.438 24.06 61.0938C24.06 61.7495 23.5285 62.281 22.8728 62.281H11.7921C11.1364 62.281 10.6048 61.7495 10.6048 61.0938Z" fill="white"/>
</svg>
