<svg width="38" height="38" viewBox="0 0 38 38" fill="none" xmlns="http://www.w3.org/2000/svg">
  <circle cx="19" cy="19" r="19" fill="white" />
  <path
    d="M24.861 20.6809L21.2636 24.2915C20.9588 24.5974 20.9591 25.0947 21.2641 25.4002L24.0132 28.1531C24.4817 28.6156 25.2477 28.6156 25.7162 28.1531L34.1421 19.8368C34.6106 19.3744 34.6106 18.6183 34.1421 18.1559L25.7162 9.84682C25.2477 9.38439 24.4817 9.38439 24.0132 9.84682L21.2641 12.5998C20.9591 12.9054 20.9588 13.4026 21.2636 13.7085L24.861 17.3192C25.798 18.244 25.798 19.756 24.861 20.6809Z"
    fill="#0A6E5C" />
  <path
    d="M14.0427 20.6809L17.6401 24.2915C17.9449 24.5974 17.9446 25.0947 17.6395 25.4002L14.8904 28.1531C14.4219 28.6156 13.656 28.6156 13.1874 28.1531L4.76155 19.8368C4.29303 19.3744 4.29303 18.6183 4.76155 18.1559L13.1874 9.84682C13.656 9.38439 14.4219 9.38439 14.8904 9.84682L17.6395 12.5998C17.9446 12.9054 17.9449 13.4026 17.6401 13.7085L14.0427 17.3192C13.1056 18.244 13.1056 19.756 14.0427 20.6809Z"
    fill="#21BF73" />
  <path
    d="M14.9877 19.687C14.6083 19.3076 14.6083 18.6924 14.9877 18.313L18.7662 14.5346C19.1456 14.1551 19.7607 14.1551 20.1401 14.5346L23.9186 18.313C24.298 18.6924 24.298 19.3076 23.9186 19.687L20.1401 23.4654C19.7607 23.8449 19.1456 23.8449 18.7662 23.4654L14.9877 19.687Z"
    fill="#21BF73" />
</svg>