<svg width="20" height="17" viewBox="0 0 20 17" fill="none" xmlns="http://www.w3.org/2000/svg">
<path d="M10.0908 11.6487C9.93 11.6487 9.76921 11.6101 9.62182 11.5327L7.59855 10.4114C7.31717 10.2568 7.12958 9.96034 7.12958 9.63813V7.36975C7.12958 7.04753 7.30377 6.75109 7.59855 6.59643L9.62182 5.47513C9.9166 5.32047 10.265 5.32047 10.5464 5.47513L12.5696 6.59643C12.851 6.75109 13.0386 7.04753 13.0386 7.36975V9.61235C13.0386 9.93457 12.8644 10.231 12.5696 10.3857L10.5464 11.507C10.4124 11.6101 10.2516 11.6487 10.0908 11.6487ZM8.26851 9.50925L10.0908 10.5146L11.9131 9.50925V7.48574L10.0908 6.48043L8.26851 7.48574V9.50925ZM12.0069 9.4448C12.0069 9.45769 12.0069 9.45769 12.0069 9.4448V9.4448ZM12.0069 7.55018C12.0069 7.55018 12.0203 7.55018 12.0069 7.55018V7.55018Z" fill="white"/>
<path d="M13.4942 6.28783C13.3334 6.28783 13.1727 6.24917 13.0253 6.17184L11.002 5.05053C10.7206 4.89587 10.533 4.59943 10.533 4.27722V2.02172C10.533 1.69951 10.7072 1.40307 11.002 1.24841L13.0253 0.127105C13.32 -0.0275573 13.6684 -0.0275573 13.9498 0.127105L15.9731 1.24841C16.2545 1.40307 16.442 1.69951 16.442 2.02172V4.26433C16.442 4.58654 16.2679 4.88298 15.9731 5.03764L13.9498 6.15895C13.8158 6.24917 13.655 6.28783 13.4942 6.28783ZM11.6719 4.14833L13.4942 5.15364L15.3165 4.14833V2.13772L13.4942 1.11952L11.6719 2.12483V4.14833ZM11.5648 4.08389C11.5648 4.09678 11.5648 4.08389 11.5648 4.08389V4.08389ZM15.4103 2.18927C15.4103 2.18927 15.4237 2.20216 15.4103 2.18927V2.18927Z" fill="white"/>
<path d="M6.94199 6.28783C6.7812 6.28783 6.62041 6.24917 6.47302 6.17184L4.44974 5.05053C4.16836 4.89587 3.98077 4.59943 3.98077 4.27722V2.02172C3.98077 1.69951 4.15496 1.40307 4.44974 1.24841L6.47302 0.127105C6.7678 -0.0275573 7.11617 -0.0275573 7.39756 0.127105L9.42083 1.24841C9.70221 1.40307 9.8898 1.69951 9.8898 2.02172V4.26433C9.8898 4.58654 9.71561 4.88298 9.42083 5.03764L7.39756 6.15895C7.26357 6.24917 7.10278 6.28783 6.94199 6.28783ZM5.1197 4.14833L6.94199 5.15364L8.76427 4.14833V2.13772L6.94199 1.11952L5.1197 2.12483V4.14833ZM5.01251 4.08389C5.01251 4.09678 5.01251 4.08389 5.01251 4.08389V4.08389ZM8.85806 2.18927C8.85806 2.18927 8.85806 2.20216 8.85806 2.18927V2.18927Z" fill="white"/>
<path d="M16.6296 11.7132C16.4688 11.7132 16.308 11.6745 16.1606 11.5972L14.1374 10.4759C13.856 10.3212 13.6684 10.0248 13.6684 9.70258V7.4342C13.6684 7.11198 13.8426 6.81555 14.1374 6.66089L16.1606 5.53958C16.4554 5.38492 16.8038 5.38492 17.0852 5.53958L19.1084 6.66089C19.3898 6.81555 19.5774 7.11198 19.5774 7.4342V9.67681C19.5774 9.99902 19.4032 10.2955 19.1084 10.4501L17.0852 11.5714C16.9512 11.6616 16.7904 11.7132 16.6296 11.7132ZM14.8073 9.5737L16.6296 10.579L18.4519 9.5737V7.5502L16.6296 6.54489L14.8073 7.5502V9.5737ZM18.5457 7.61464C18.5457 7.61464 18.5591 7.61464 18.5457 7.61464V7.61464Z" fill="white"/>
<path d="M3.55203 11.7132C3.39124 11.7132 3.23045 11.6745 3.08306 11.5972L1.05979 10.463C0.778408 10.3083 0.59082 10.0119 0.59082 9.6897V7.4342C0.59082 7.11198 0.765009 6.81555 1.05979 6.66089L3.08306 5.53958C3.37784 5.38492 3.72622 5.38492 4.0076 5.53958L6.03088 6.66089C6.31226 6.81555 6.49985 7.11198 6.49985 7.4342V9.67681C6.49985 9.99902 6.32566 10.2955 6.03088 10.4501L4.0076 11.5714C3.87361 11.6616 3.71282 11.7132 3.55203 11.7132ZM1.72975 9.5737L3.55203 10.579L5.37432 9.5737V7.5502L3.55203 6.54489L1.72975 7.5502V9.5737ZM1.63595 7.61464C1.62256 7.61464 1.63595 7.61464 1.63595 7.61464V7.61464Z" fill="white"/>
<path d="M13.4272 16.9975C13.2664 16.9975 13.1056 16.9588 12.9582 16.8815L10.935 15.7602C10.6536 15.6055 10.466 15.3091 10.466 14.9869V12.7185C10.466 12.3963 10.6402 12.0999 10.935 11.9452L12.9582 10.8239C13.253 10.6692 13.6014 10.6692 13.8828 10.8239L15.9061 11.9452C16.1874 12.0999 16.375 12.3963 16.375 12.7185V14.9611C16.375 15.2833 16.2008 15.5798 15.9061 15.7344L13.8828 16.8557C13.7488 16.946 13.588 16.9975 13.4272 16.9975ZM11.6049 14.858L13.4272 15.8633L15.2495 14.858V12.8345L13.4272 11.8292L11.6049 12.8345V14.858ZM15.3433 12.8989C15.3433 12.8989 15.3567 12.8989 15.3433 12.8989V12.8989Z" fill="white"/>
<path d="M6.98221 16.9975C6.82142 16.9975 6.66063 16.9588 6.51324 16.8815L4.48997 15.7602C4.20858 15.6055 4.021 15.3091 4.021 14.9869V12.7185C4.021 12.3963 4.19519 12.0999 4.48997 11.9452L6.52664 10.8239C6.82142 10.6692 7.1698 10.6692 7.45118 10.8239L9.47445 11.9452C9.75583 12.0999 9.94342 12.3963 9.94342 12.7185V14.9611C9.94342 15.2833 9.76923 15.5798 9.47445 15.7344L7.45118 16.8557C7.31719 16.946 7.143 16.9975 6.98221 16.9975ZM5.17332 14.858L6.99561 15.8633L8.81789 14.858V12.8345L6.99561 11.8292L5.17332 12.8345V14.858Z" fill="white"/>
</svg>
