<svg width="19" height="18" viewBox="0 0 19 18" fill="none" xmlns="http://www.w3.org/2000/svg">
<path d="M16.0541 5.59053L15.0069 7.16558C15.5119 8.17282 15.7591 9.28962 15.7264 10.4159C15.6937 11.5422 15.3821 12.6428 14.8196 13.619H3.01933C2.28813 12.3506 1.98515 10.8802 2.15529 9.42604C2.32544 7.97185 2.95966 6.61118 3.96393 5.54577C4.9682 4.48036 6.28905 3.76691 7.73068 3.51121C9.17232 3.2555 10.658 3.47114 11.9674 4.12616L13.5425 3.07897C11.9389 2.05069 10.0367 1.58991 8.14033 1.77034C6.24392 1.95078 4.46281 2.76199 3.0819 4.07424C1.70099 5.38648 0.800071 7.12392 0.523247 9.00865C0.246424 10.8934 0.609691 12.8165 1.55494 14.4704C1.70352 14.7278 1.91686 14.9417 2.17376 15.0911C2.43066 15.2405 2.72217 15.32 3.01933 15.3218H14.811C15.1111 15.323 15.4061 15.2449 15.6663 15.0953C15.9264 14.9458 16.1424 14.7302 16.2925 14.4704C17.0769 13.1115 17.4706 11.5623 17.43 9.99382C17.3894 8.42531 16.9162 6.89852 16.0626 5.58202L16.0541 5.59053Z" fill="white"/>
<path d="M7.71904 11.4139C7.87718 11.5722 8.06497 11.6978 8.27169 11.7835C8.4784 11.8692 8.69998 11.9133 8.92375 11.9133C9.14752 11.9133 9.3691 11.8692 9.57581 11.7835C9.78252 11.6978 9.97032 11.5722 10.1285 11.4139L14.9473 4.18567L7.71904 9.00447C7.56072 9.16261 7.43512 9.3504 7.34943 9.55711C7.26374 9.76382 7.21964 9.9854 7.21964 10.2092C7.21964 10.4329 7.26374 10.6545 7.34943 10.8612C7.43512 11.0679 7.56072 11.2557 7.71904 11.4139Z" fill="white"/>
</svg>
