<svg width="15" height="16" viewBox="0 0 15 16" fill="none" xmlns="http://www.w3.org/2000/svg">
<path d="M7.42932 15.2344C8.88159 15.2344 10.3012 14.8037 11.5087 13.9969C12.7163 13.1901 13.6574 12.0433 14.2132 10.7016C14.7689 9.35985 14.9143 7.88346 14.631 6.4591C14.3477 5.03474 13.6484 3.72639 12.6214 2.69948C11.5945 1.67257 10.2862 0.973243 8.86183 0.689921C7.43747 0.406598 5.96108 0.55201 4.61936 1.10777C3.27765 1.66352 2.13086 2.60467 1.32403 3.81218C0.517194 5.01969 0.0865479 6.43934 0.0865479 7.89161C0.0865479 9.83903 0.860159 11.7067 2.2372 13.0837C3.61423 14.4608 5.4819 15.2344 7.42932 15.2344ZM13.3035 7.89161C13.3037 9.07529 12.9462 10.2314 12.2779 11.2084C11.6097 12.1854 10.6619 12.9378 9.55873 13.3669C10.0213 12.5703 10.2073 11.643 10.0878 10.7297C9.96824 9.81633 9.54986 8.96819 8.89788 8.31749L7.01078 6.42794C6.69946 6.11803 6.46762 5.73748 6.33501 5.3187C6.20239 4.89991 6.17293 4.45528 6.24912 4.02265C6.32531 3.59003 6.5049 3.18222 6.7726 2.83393C7.04031 2.48564 7.3882 2.20719 7.78667 2.02228C9.28101 2.11335 10.6842 2.77156 11.7095 3.86242C12.7349 4.95329 13.3051 6.39449 13.3035 7.89161ZM5.28523 2.42369C4.83081 3.2223 4.65081 4.1479 4.77282 5.05861C4.89484 5.96932 5.31214 6.8149 5.96077 7.46572L7.84786 9.35527C8.15918 9.66518 8.39102 10.0457 8.52363 10.4645C8.65625 10.8833 8.68571 11.3279 8.60952 11.7606C8.53333 12.1932 8.35374 12.601 8.08604 12.9493C7.81833 13.2976 7.47044 13.576 7.07197 13.7609C5.73592 13.681 4.46723 13.1472 3.47592 12.2479C2.48461 11.3486 1.83014 10.1377 1.62085 8.81574C1.41156 7.49376 1.66001 6.13994 2.32505 4.97842C2.9901 3.81689 4.03186 2.9173 5.27789 2.42858L5.28523 2.42369Z" fill="white"/>
</svg>
