<svg width="17" height="19" viewBox="0 0 17 19" fill="none" xmlns="http://www.w3.org/2000/svg">
<g clip-path="url(#clip0)">
<path d="M8.09669 18.1574C7.79815 18.1574 7.49961 18.0668 7.23093 17.9158L1.05114 14.2917C0.513766 13.9896 0.155518 13.3856 0.155518 12.7514V5.53327C0.155518 4.89904 0.513766 4.29502 1.05114 3.993L7.23093 0.368844C7.7683 0.0668306 8.45494 0.0668306 8.99232 0.368844L15.1721 3.993C15.7095 4.29502 16.0677 4.89904 16.0677 5.53327V12.7514C16.0677 13.3856 15.7095 13.9896 15.1721 14.2917L8.99232 17.9158C8.69378 18.0668 8.39524 18.1574 8.09669 18.1574ZM8.09669 1.45609C8.00713 1.45609 7.94742 1.48629 7.85786 1.51649L1.67807 5.14066C1.5288 5.23126 1.43924 5.38227 1.43924 5.53327V12.7514C1.43924 12.9326 1.5288 13.0534 1.64822 13.144L7.82801 16.7682C7.97728 16.8588 8.1564 16.8588 8.27582 16.7682L14.4556 13.144C14.6049 13.0534 14.6944 12.9024 14.6944 12.7514V5.53327C14.6944 5.35206 14.6049 5.23126 14.4855 5.14066L8.30567 1.51649C8.24596 1.48629 8.18626 1.45609 8.09669 1.45609Z" fill="white"/>
<path d="M8.1564 13.4462C5.79793 13.4462 3.88727 11.5133 3.88727 9.12739C3.88727 6.74148 5.79793 4.80859 8.1564 4.80859C10.5149 4.80859 12.3957 6.77168 12.3957 9.15759C12.3957 11.5435 10.485 13.4462 8.1564 13.4462ZM8.1564 6.13745C6.51442 6.13745 5.20085 7.49651 5.20085 9.12739C5.20085 10.7885 6.54428 12.1173 8.1564 12.1173C9.76852 12.1173 11.1119 10.7583 11.1119 9.12739C11.1119 7.49651 9.76852 6.13745 8.1564 6.13745Z" fill="white"/>
</g>
<defs>
<clipPath id="clip0">
<rect width="15.8824" height="18" fill="white" transform="translate(0.155518 0.157471)"/>
</clipPath>
</defs>
</svg>
