<svg width="17" height="19" viewBox="0 0 17 19" fill="none" xmlns="http://www.w3.org/2000/svg">
<path d="M15.2919 4.72921L8.91482 1.05702C8.40215 0.770708 7.76444 0.770708 7.25178 1.05702L0.874692 4.72921C0.34952 5.01552 0.0244141 5.58814 0.0244141 6.1732V13.5051C0.0244141 14.1151 0.34952 14.6628 0.862188 14.9491L7.23927 18.6213C7.50186 18.7707 7.78945 18.8454 8.07705 18.8454C8.36464 18.8454 8.65223 18.7707 8.91482 18.6213L15.2794 14.9491C15.8046 14.6628 16.1297 14.1027 16.1297 13.5051V6.1732C16.1297 5.56324 15.8046 5.00307 15.2919 4.72921ZM14.7167 5.62548L11.5532 7.39312C10.8905 6.45951 9.85263 5.79975 8.65223 5.63793V2.12755L14.7167 5.62548ZM8.07705 13.0072C6.31397 13.0072 4.8885 11.5757 4.8885 9.83295C4.8885 8.07776 6.32647 6.65868 8.07705 6.65868C9.84012 6.65868 11.2781 8.07776 11.2781 9.83295C11.2781 11.5881 9.84012 13.0072 8.07705 13.0072ZM7.58939 2.07776V5.62548C6.47652 5.74996 5.4887 6.31013 4.81348 7.11926L1.79999 5.41386L7.58939 2.07776ZM1.08726 6.22299L4.23829 8.00307C3.97571 8.55079 3.82566 9.1732 3.82566 9.83295C3.82566 10.4429 3.9507 11.0155 4.18827 11.5259L1.08726 13.2686V6.22299ZM1.64995 14.1649L4.72595 12.4346C5.41367 13.306 6.42651 13.9035 7.58939 14.0404V17.5881L1.64995 14.1649ZM14.7542 14.028L8.65223 17.5383V14.028C9.89014 13.8661 10.953 13.169 11.6157 12.1856L14.8042 13.9906C14.7917 14.0031 14.7792 14.0155 14.7542 14.028ZM15.0668 12.9201L12.0909 11.2396C12.2409 10.8039 12.3284 10.3309 12.3284 9.83295C12.3284 9.29768 12.2284 8.79975 12.0533 8.32673L15.0668 6.63378V12.9201Z" fill="white"/>
</svg>
