<svg width="27" height="24" viewBox="0 0 27 24" fill="none" xmlns="http://www.w3.org/2000/svg">
<path fill-rule="evenodd" clip-rule="evenodd" d="M20.2709 17.0039C18.4822 19.715 15.409 21.5039 11.918 21.5039C6.39512 21.5039 1.91797 17.0268 1.91797 11.5039C1.91797 5.98106 6.39512 1.50391 11.918 1.50391C15.8222 1.50391 19.2039 3.74133 20.8507 7.00391H22.5042C20.7528 2.88899 16.6723 0.00390625 11.918 0.00390625C5.56669 0.00390625 0.417969 5.15263 0.417969 11.5039C0.417969 17.8552 5.56669 23.0039 11.918 23.0039C16.277 23.0039 20.0696 20.5787 22.02 17.0039H20.2709Z" fill="white"/>
<path fill-rule="evenodd" clip-rule="evenodd" d="M24.418 8.50391H14.418C14.1418 8.50391 13.918 8.72776 13.918 9.00391V15.0039C13.918 15.28 14.1418 15.5039 14.418 15.5039H24.418C24.6941 15.5039 24.918 15.28 24.918 15.0039V9.00391C24.918 8.72776 24.6941 8.50391 24.418 8.50391ZM14.418 7.00391C13.3134 7.00391 12.418 7.89934 12.418 9.00391V15.0039C12.418 16.1085 13.3134 17.0039 14.418 17.0039H24.418C25.5225 17.0039 26.418 16.1085 26.418 15.0039V9.00391C26.418 7.89934 25.5225 7.00391 24.418 7.00391H14.418Z" fill="white"/>
<path d="M23.418 12.0039C23.418 12.8323 22.7464 13.5039 21.918 13.5039C21.0895 13.5039 20.418 12.8323 20.418 12.0039C20.418 11.1755 21.0895 10.5039 21.918 10.5039C22.7464 10.5039 23.418 11.1755 23.418 12.0039Z" fill="white"/>
</svg>
