<svg width="25" height="25" viewBox="0 0 25 25" fill="none"
  xmlns="http://www.w3.org/2000/svg">
  <path fill-rule="evenodd" clip-rule="evenodd" d="M12.5 23.1573C18.1333 23.1573 22.7 18.5906 22.7 12.9573C22.7 7.32397 18.1333 2.75728 12.5 2.75728C6.8667 2.75728 2.3 7.32397 2.3 12.9573C2.3 18.5906 6.8667 23.1573 12.5 23.1573ZM12.5 24.9573C19.1274 24.9573 24.5 19.5847 24.5 12.9573C24.5 6.32986 19.1274 0.957275 12.5 0.957275C5.87258 0.957275 0.5 6.32986 0.5 12.9573C0.5 19.5847 5.87258 24.9573 12.5 24.9573Z" fill="white"/>
  <path fill-rule="evenodd" clip-rule="evenodd" d="M12.5002 15.9572C14.1571 15.9572 15.5002 14.6141 15.5002 12.9572C15.5002 11.3004 14.1571 9.95723 12.5002 9.95723C10.8433 9.95723 9.5002 11.3004 9.5002 12.9572C9.5002 14.6141 10.8433 15.9572 12.5002 15.9572ZM12.5002 17.7572C15.1512 17.7572 17.3002 15.6082 17.3002 12.9572C17.3002 10.3063 15.1512 8.15723 12.5002 8.15723C9.84923 8.15723 7.7002 10.3063 7.7002 12.9572C7.7002 15.6082 9.84923 17.7572 12.5002 17.7572Z" fill="white"/>
</svg>
