<svg width="50" height="50" viewBox="0 0 50 50" fill="none" xmlns="http://www.w3.org/2000/svg">
<path d="M24.975 0C11.175 0 0 11.2 0 25C0 38.8 11.175 50 24.975 50C38.8 50 50 38.8 50 25C50 11.2 38.8 0 24.975 0ZM42.3 15H34.925C34.125 11.875 32.975 8.875 31.475 6.1C36.075 7.675 39.9 10.875 42.3 15ZM25 5.1C27.075 8.1 28.7 11.425 29.775 15H20.225C21.3 11.425 22.925 8.1 25 5.1ZM5.65 30C5.25 28.4 5 26.725 5 25C5 23.275 5.25 21.6 5.65 20H14.1C13.9 21.65 13.75 23.3 13.75 25C13.75 26.7 13.9 28.35 14.1 30H5.65ZM7.7 35H15.075C15.875 38.125 17.025 41.125 18.525 43.9C13.925 42.325 10.1 39.15 7.7 35ZM15.075 15H7.7C10.1 10.85 13.925 7.675 18.525 6.1C17.025 8.875 15.875 11.875 15.075 15ZM25 44.9C22.925 41.9 21.3 38.575 20.225 35H29.775C28.7 38.575 27.075 41.9 25 44.9ZM30.85 30H19.15C18.925 28.35 18.75 26.7 18.75 25C18.75 23.3 18.925 21.625 19.15 20H30.85C31.075 21.625 31.25 23.3 31.25 25C31.25 26.7 31.075 28.35 30.85 30ZM31.475 43.9C32.975 41.125 34.125 38.125 34.925 35H42.3C39.9 39.125 36.075 42.325 31.475 43.9ZM35.9 30C36.1 28.35 36.25 26.7 36.25 25C36.25 23.3 36.1 21.65 35.9 20H44.35C44.75 21.6 45 23.275 45 25C45 26.725 44.75 28.4 44.35 30H35.9Z" fill="black"/>
</svg>
