<svg width="23" height="16" viewBox="0 0 23 16" fill="none" xmlns="http://www.w3.org/2000/svg">
<path d="M11.8066 0.0273438C6.80664 0.0273438 2.53664 3.13734 0.806641 7.52734C2.53664 11.9173 6.80664 15.0273 11.8066 15.0273C16.8066 15.0273 21.0766 11.9173 22.8066 7.52734C21.0766 3.13734 16.8066 0.0273438 11.8066 0.0273438ZM11.8066 12.5273C9.04664 12.5273 6.80664 10.2873 6.80664 7.52734C6.80664 4.76734 9.04664 2.52734 11.8066 2.52734C14.5666 2.52734 16.8066 4.76734 16.8066 7.52734C16.8066 10.2873 14.5666 12.5273 11.8066 12.5273ZM11.8066 4.52734C10.1466 4.52734 8.80664 5.86734 8.80664 7.52734C8.80664 9.18734 10.1466 10.5273 11.8066 10.5273C13.4666 10.5273 14.8066 9.18734 14.8066 7.52734C14.8066 5.86734 13.4666 4.52734 11.8066 4.52734Z" fill="#FFFFFF"/>
</svg>
