<svg width="44" height="33" viewBox="0 0 44 33" fill="none" xmlns="http://www.w3.org/2000/svg">
<path d="M4.8125 0.875C2.24292 0.875 0.125 2.99292 0.125 5.5625V27.4375C0.125 30.0071 2.24292 32.125 4.8125 32.125H39.1875C41.7571 32.125 43.875 30.0071 43.875 27.4375V5.5625C43.875 2.99292 41.7571 0.875 39.1875 0.875H4.8125ZM4.8125 4H39.1875C40.0725 4 40.75 4.67749 40.75 5.5625V27.4375C40.75 28.3225 40.0725 29 39.1875 29H4.8125C3.92749 29 3.25 28.3225 3.25 27.4375V5.5625C3.25 4.67749 3.92749 4 4.8125 4ZM14.1875 7.125C10.7512 7.125 7.9375 9.93872 7.9375 13.375C7.9375 15.1145 8.68213 16.6831 9.8418 17.8184C7.7605 19.2283 6.375 21.627 6.375 24.3125H9.5C9.5 21.7063 11.5813 19.625 14.1875 19.625C16.7937 19.625 18.875 21.7063 18.875 24.3125H22C22 21.627 20.6145 19.2283 18.5332 17.8184C19.6929 16.6831 20.4375 15.1145 20.4375 13.375C20.4375 9.93872 17.6238 7.125 14.1875 7.125ZM25.125 8.6875V11.8125H37.625V8.6875H25.125ZM14.1875 10.25C15.9331 10.25 17.3125 11.6294 17.3125 13.375C17.3125 15.1206 15.9331 16.5 14.1875 16.5C12.4419 16.5 11.0625 15.1206 11.0625 13.375C11.0625 11.6294 12.4419 10.25 14.1875 10.25ZM25.125 14.9375V18.0625H37.625V14.9375H25.125ZM25.125 21.1875V24.3125H32.9375V21.1875H25.125Z" fill="white"/>
</svg>
