<svg width="50" height="52" viewBox="0 0 50 52" fill="none" xmlns="http://www.w3.org/2000/svg">
  <path
    d="M12.5173 18.1962L12.5171 18.196C11.3378 17.153 11.0767 16.0859 11.0767 15.3582C11.0767 14.6307 11.3376 13.5597 12.5174 12.5201C13.2776 11.8494 14.3291 11.2639 15.6264 10.7803L12.5173 18.1962ZM12.5173 18.1962C13.2775 18.8669 14.3291 19.4525 15.6265 19.936C18.1587 20.8804 21.4904 21.3974 25.0043 21.3974C28.5182 21.3974 31.8499 20.8804 34.3821 19.936C35.6794 19.4525 36.731 18.867 37.4912 18.1963C38.671 17.1567 38.9319 16.0856 38.9319 15.3582C38.9319 14.6304 38.6708 13.5634 37.4915 12.5203L37.4913 12.5202M12.5173 18.1962L37.4913 12.5202M37.4913 12.5202C36.7311 11.8494 35.6795 11.2639 34.3822 10.7803M37.4913 12.5202L15.6265 10.7803C18.1587 9.83594 21.4904 9.31892 25.0043 9.31892C28.5182 9.31892 31.85 9.83594 34.3822 10.7803M34.3822 10.7803L34.3073 10.9811L34.3822 10.7803ZM16.5141 13.2705L16.5143 13.2704C18.7554 12.4338 21.7707 11.9693 25.0043 11.9693C28.2379 11.9693 31.2532 12.4338 33.4943 13.2704L33.4944 13.2705C34.5829 13.6759 35.3056 14.1019 35.7519 14.4825C36.2071 14.8706 36.3432 15.1828 36.3432 15.3582C36.3432 15.5335 36.2071 15.8457 35.7519 16.2338C35.3056 16.6144 34.5829 17.0404 33.4944 17.4459L33.4943 17.4459C31.2532 18.2825 28.2379 18.747 25.0043 18.747C21.7707 18.747 18.7554 18.2825 16.5143 17.4459L16.5141 17.4459C15.4257 17.0404 14.703 16.6144 14.2567 16.2338C13.8015 15.8457 13.6654 15.5335 13.6654 15.3582C13.6654 15.1828 13.8015 14.8706 14.2567 14.4825C14.703 14.1019 15.4257 13.6759 16.5141 13.2705Z"
    fill="white" stroke="white" stroke-width="0.428571" />
  <path
    d="M12.5152 25.0234L12.5154 25.0236C13.2755 25.6943 14.3271 26.2799 15.6245 26.7634C18.1567 27.7078 21.4884 28.2248 25.0023 28.2248C28.5159 28.2248 31.8477 27.7116 34.3802 26.7634C35.6775 26.2799 36.7291 25.6943 37.4893 25.0236L37.4895 25.0234C38.6688 23.9804 38.9299 22.9133 38.9299 22.1855V21.9713H38.7156H36.5555H36.3412V22.1855C36.3412 22.3609 36.2051 22.6731 35.75 23.0612C35.3036 23.4418 34.581 23.8678 33.4925 24.2733L33.4924 24.2733C31.2512 25.1099 28.236 25.5744 25.0023 25.5744C21.7687 25.5744 18.7535 25.1099 16.5123 24.2733L16.5122 24.2733C15.4237 23.8678 14.701 23.4418 14.2547 23.0612C13.7996 22.6731 13.6635 22.3609 13.6635 22.1855V21.9713H13.4492H11.2891H11.0748V22.1855C11.0748 22.9133 11.3359 23.9804 12.5152 25.0234Z"
    fill="white" stroke="white" stroke-width="0.428571" />
  <path
    d="M12.5152 31.8574L12.5154 31.8575C13.2755 32.5283 14.3271 33.1138 15.6245 33.5974C18.1567 34.5418 21.4884 35.0588 25.0023 35.0588C28.5163 35.0588 31.848 34.5418 34.3802 33.5974C35.6775 33.1138 36.7291 32.5283 37.4893 31.8575L37.4895 31.8574C38.6688 30.8143 38.9299 29.7473 38.9299 29.0195V28.8052H38.7156H36.5555H36.3412V29.0195C36.3412 29.1949 36.2051 29.5071 35.75 29.8952C35.3036 30.2758 34.581 30.7018 33.4925 31.1072L33.4924 31.1073C31.2512 31.9439 28.236 32.4084 25.0023 32.4084C21.7687 32.4084 18.7535 31.9439 16.5123 31.1073L16.5122 31.1072C15.4237 30.7018 14.701 30.2758 14.2547 29.8952C13.7996 29.5071 13.6635 29.1949 13.6635 29.0195V28.8052H13.4492H11.2891H11.0748V29.0195C11.0748 29.7473 11.3359 30.8143 12.5152 31.8574Z"
    fill="white" stroke="white" stroke-width="0.428571" />
  <path
    d="M12.5152 38.6902L12.5153 38.6903C13.2792 39.3648 14.3273 39.9467 15.6245 40.4301C18.1567 41.3745 21.4884 41.8916 25.0023 41.8916C28.5163 41.8916 31.848 41.3745 34.3802 40.4301C35.6776 39.9466 36.7292 39.361 37.4893 38.6903C38.669 37.6508 38.9299 36.5797 38.9299 35.8523V15.3594V15.1451H38.7156H36.5555H36.3412V15.3594C36.3412 15.5347 36.2051 15.8469 35.75 16.235C35.3036 16.6156 34.581 17.0416 33.4925 17.4471L33.4924 17.4471C31.2512 18.2837 28.236 18.7482 25.0023 18.7482C21.7687 18.7482 18.7535 18.2837 16.5123 17.4471L16.5122 17.4471C15.4237 17.0416 14.701 16.6156 14.2547 16.235C13.7996 15.8469 13.6635 15.5347 13.6635 15.3594V15.1451H13.4492H11.2891H11.0748V15.3594V35.8523C11.0748 36.58 11.3359 37.6471 12.5152 38.6902ZM16.5123 37.9401L16.5122 37.94C15.4237 37.5346 14.701 37.1085 14.2547 36.728C13.7996 36.3398 13.6635 36.0276 13.6635 35.8523V19.0185C14.2317 19.3549 14.8887 19.6622 15.6204 19.937L15.6209 19.9372C18.1531 20.8816 21.4848 21.3986 24.9987 21.3986C28.5163 21.3986 31.8443 20.8816 34.3765 19.9372C35.1145 19.6623 35.7727 19.3549 36.3412 19.0184V35.8523C36.3412 36.0276 36.2051 36.3398 35.75 36.728C35.3036 37.1085 34.581 37.5346 33.4925 37.94L33.4924 37.9401C31.2512 38.7766 28.236 39.2411 25.0023 39.2411C21.7687 39.2411 18.7535 38.7766 16.5123 37.9401Z"
    fill="white" stroke="white" stroke-width="0.428571" />
</svg>