<svg width="20" height="20" viewBox="0 0 20 20" fill="none" xmlns="http://www.w3.org/2000/svg">
<path d="M10 1.875C6.90186 1.875 4.375 4.40186 4.375 7.5C4.375 8.37891 4.73145 9.38721 5.21484 10.4883C5.69824 11.5894 6.3208 12.7588 6.95312 13.8477C8.21777 16.0278 9.49219 17.8516 9.49219 17.8516L10 18.5938L10.5078 17.8516C10.5078 17.8516 11.7822 16.0278 13.0469 13.8477C13.6792 12.7588 14.3018 11.5894 14.7852 10.4883C15.2686 9.38721 15.625 8.37891 15.625 7.5C15.625 4.40186 13.0981 1.875 10 1.875ZM10 3.125C12.4243 3.125 14.375 5.07568 14.375 7.5C14.375 8.00049 14.1064 8.94775 13.6523 9.98047C13.1982 11.0132 12.5708 12.1582 11.9531 13.2227C10.9717 14.917 10.3613 15.813 10 16.3477C9.63867 15.813 9.02832 14.917 8.04687 13.2227C7.4292 12.1582 6.80176 11.0132 6.34766 9.98047C5.89355 8.94775 5.625 8.00049 5.625 7.5C5.625 5.07568 7.57568 3.125 10 3.125ZM10 6.25C9.30908 6.25 8.75 6.80908 8.75 7.5C8.75 8.19092 9.30908 8.75 10 8.75C10.6909 8.75 11.25 8.19092 11.25 7.5C11.25 6.80908 10.6909 6.25 10 6.25Z" fill="white"/>
</svg>
