<svg width="14" height="16" viewBox="0 0 14 16" fill="none" xmlns="http://www.w3.org/2000/svg">
<path d="M6.92499 0.570557L0.539062 2.45312V6.35899C0.539062 8.40743 1.14708 10.3664 2.29734 12.0239C3.42301 13.6461 4.9744 14.854 6.78373 15.517L6.92499 15.5687L7.06624 15.5169C8.87558 14.8539 10.427 13.6461 11.5526 12.0239C12.7029 10.3663 13.3109 8.4074 13.3109 6.35899V2.45312L6.92499 0.570557ZM6.92499 12.7256C5.9107 12.2151 5.02732 11.4435 4.36169 10.4843C3.67806 9.4991 3.25777 8.36704 3.12658 7.17211L6.92499 6.0524L10.7234 7.17214C10.5922 8.36704 10.1719 9.49913 9.48829 10.4843C8.82265 11.4435 7.93928 12.2152 6.92499 12.7256ZM10.7678 6.27163L6.92499 5.13875L3.08213 6.27163V4.44432L6.92499 3.31147L10.7678 4.44432V6.27163ZM1.38675 6.35899V3.11684L6.50114 1.60915V2.52277L2.23444 3.7806V6.35899C2.23444 8.03678 2.73206 9.64076 3.67359 10.9975C4.40958 12.0581 5.3831 12.9147 6.50114 13.4887V14.4572C3.41849 13.0636 1.38675 9.88501 1.38675 6.35899ZM12.4632 6.35899C12.4632 9.88504 10.4315 13.0637 7.34883 14.4572V13.4887C8.46688 12.9147 9.44042 12.0581 10.1764 10.9975C11.1179 9.64076 11.6155 8.03678 11.6155 6.35899V3.7806L7.34883 2.52277V1.60915L12.4632 3.11684V6.35899Z" fill="#49BFE0"/>
</svg>
