<svg width="16" height="20" viewBox="0 0 16 20" fill="none" xmlns="http://www.w3.org/2000/svg">
  <path
    d="M8 0.25C5.11719 0.25 2.75 2.61719 2.75 5.5V7.75H2.5C1.39543 7.75 0.5 8.64543 0.5 9.75V17.75C0.5 18.8546 1.39543 19.75 2.5 19.75H13.5C14.6046 19.75 15.5 18.8546 15.5 17.75V9.75C15.5 8.64543 14.6046 7.75 13.5 7.75H13.25V5.5C13.25 2.61719 10.8828 0.25 8 0.25ZM8 1.75C10.0654 1.75 11.75 3.43457 11.75 5.5V7.75H4.25V5.5C4.25 3.43457 5.93457 1.75 8 1.75ZM2 9.25H14V18.25H2V9.25Z"
    fill="#73B556" />
</svg>