<svg width="83" height="80" viewBox="0 0 83 80" fill="none" xmlns="http://www.w3.org/2000/svg">
  <g clip-path="url(#clip0_12884_287925)">
    <path fill-rule="evenodd" clip-rule="evenodd"
      d="M11.0579 61.8112C12.5791 60.465 14.9047 60.6055 16.2524 62.1249C20.9807 67.4556 27.3684 71.2583 34.6101 72.7256C36.6018 73.1292 37.8889 75.0691 37.4848 77.0585C37.0808 79.048 35.1387 80.3336 33.147 79.93C24.2922 78.1359 16.4993 73.4885 10.7439 66.9998C9.3962 65.4804 9.53681 63.1574 11.0579 61.8112Z"
      fill="#E8E8E9" />
    <path fill-rule="evenodd" clip-rule="evenodd"
      d="M37.4853 2.94399C37.888 4.93369 36.5997 6.87278 34.6077 7.27506C27.3757 8.73558 20.9815 12.5437 16.2524 17.8753C14.9047 19.3947 12.5791 19.5352 11.0579 18.189C9.53681 16.8429 9.3962 14.5199 10.7439 13.0004C16.4985 6.51267 24.2984 1.85716 33.1493 0.069707C35.1413 -0.332574 37.0826 0.954286 37.4853 2.94399Z"
      fill="#E8E8E9" />
    <path fill-rule="evenodd" clip-rule="evenodd"
      d="M75.2969 24.7472C77.2249 24.1053 79.3088 25.1461 79.9515 27.0719C81.3065 31.1324 82.0562 35.4665 82.0562 39.9929C82.0562 44.5184 81.3069 48.8599 79.9508 52.9159C79.3071 54.8414 77.2226 55.881 75.295 55.238C73.3674 54.595 72.3265 52.5129 72.9703 50.5875C74.0834 47.2581 74.6967 43.702 74.6967 39.9929C74.6967 36.2849 74.0837 32.7349 72.9696 29.3965C72.327 27.4707 73.3689 25.3892 75.2969 24.7472Z"
      fill="#E8E8E9" />
    <path fill-rule="evenodd" clip-rule="evenodd"
      d="M45.0667 2.94109C45.4711 0.951712 47.4134 -0.333586 49.405 0.0702982C58.2519 1.86435 66.0516 6.51113 71.8075 13.0004C73.1552 14.5199 73.0146 16.8429 71.4935 18.189C69.9723 19.5352 67.6467 19.3947 66.299 17.8753C61.5713 12.5452 55.1769 8.74188 47.9408 7.27448C45.9491 6.87059 44.6624 4.93047 45.0667 2.94109Z"
      fill="#E8E8E9" />
    <path fill-rule="evenodd" clip-rule="evenodd"
      d="M7.26008 24.756C9.18701 25.4011 10.2256 27.4843 9.57974 29.4091C8.46092 32.7435 7.84781 36.2982 7.84781 39.9998C7.84781 43.7017 8.46103 47.2558 9.57909 50.5819C10.226 52.5062 9.18857 54.5901 7.262 55.2362C5.33542 55.8824 3.24922 54.8461 2.60234 52.9218C1.2378 48.8624 0.488281 44.5189 0.488281 39.9998C0.488281 35.4803 1.2379 31.1375 2.6017 27.073C3.24752 25.1483 5.33315 24.1109 7.26008 24.756Z"
      fill="#E8E8E9" />
    <path fill-rule="evenodd" clip-rule="evenodd"
      d="M71.4935 61.8044C73.0146 63.1505 73.1552 65.4735 71.8075 66.9929C66.053 73.4807 58.2531 78.1362 49.4021 79.9237C47.4102 80.326 45.4689 79.0391 45.0661 77.0494C44.6634 75.0597 45.9517 73.1206 47.9437 72.7183C55.1758 71.2578 61.5699 67.4497 66.299 62.1181C67.6467 60.5987 69.9723 60.4582 71.4935 61.8044Z"
      fill="#E8E8E9" />
  </g>
  <defs>
    <clipPath id="clip0_12884_287925">
      <rect width="81.5686" height="80" fill="#E8E8E9" transform="translate(0.491455)" />
    </clipPath>
  </defs>
</svg>