<svg width="20" height="20" viewBox="0 0 20 20" fill="none" xmlns="http://www.w3.org/2000/svg">
<path d="M9.99986 2.5C6.87486 2.5 4.37486 5 4.37486 8.125C4.18736 8.125 3.99937 8.25024 3.87437 8.37524C3.74937 8.56274 3.68711 8.75049 3.81211 8.93799L4.43711 10.813C4.49961 11.063 4.74986 11.25 4.99986 11.25H5.31358C5.43325 11.43 5.56386 11.6008 5.70298 11.7651C5.8957 12.0628 6.12398 12.3336 6.38169 12.5745C5.12113 13.6335 4.37486 15.207 4.37486 16.875H5.62486C5.62486 15.4565 6.29997 14.1465 7.45225 13.3081C8.03162 13.5886 8.68148 13.75 9.37486 13.75H10.6249C11.3094 13.75 11.9516 13.5929 12.5255 13.3191C13.6653 14.1235 14.3749 15.4717 14.3749 16.875H15.6249C15.6249 15.2155 14.8842 13.6505 13.5997 12.5916C13.865 12.3465 14.0994 12.0699 14.2967 11.7651C14.4359 11.6008 14.5665 11.43 14.6861 11.25H14.9999C15.2499 11.25 15.5001 11.063 15.5626 10.813L16.1876 8.93799C16.3126 8.75049 16.2503 8.56274 16.1253 8.37524C16.0003 8.25024 15.8124 8.125 15.6249 8.125C15.6249 5 13.1249 2.5 9.99986 2.5ZM9.99986 3.75C12.1982 3.75 13.9846 5.32818 14.315 7.42554C13.7467 6.71067 12.8777 6.25 11.8749 6.25H8.12486C7.12203 6.25 6.25304 6.71067 5.68467 7.42554C6.0151 5.32818 7.80152 3.75 9.99986 3.75ZM8.12486 7.5H11.8749C12.9374 7.5 13.7499 8.3125 13.7499 9.375C13.7499 9.82201 13.6587 10.2436 13.4959 10.625H10.6249C10.2499 10.625 9.99986 10.9375 9.99986 11.25C9.99986 11.625 10.3124 11.875 10.6249 11.875H12.2618C11.6033 12.2697 10.8323 12.5 9.99986 12.5C8.68699 12.5 7.52286 11.9347 6.72471 11.0352C6.42756 10.5557 6.24986 9.99103 6.24986 9.375C6.24986 8.3125 7.06236 7.5 8.12486 7.5Z" fill="#ffffff"/>
</svg>
