<svg width="15" height="16" viewBox="0 0 15 16" fill="none" xmlns="http://www.w3.org/2000/svg">
<path fill-rule="evenodd" clip-rule="evenodd" d="M14.162 8.09839C14.162 11.7777 11.1793 14.7604 7.5 14.7604C3.82066 14.7604 0.837968 11.7777 0.837968 8.09839C0.837968 4.41905 3.82066 1.43636 7.5 1.43636C11.1793 1.43636 14.162 4.41905 14.162 8.09839ZM15 8.09839C15 12.2405 11.6421 15.5984 7.5 15.5984C3.35786 15.5984 0 12.2405 0 8.09839C0 3.95625 3.35786 0.598389 7.5 0.598389C11.6421 0.598389 15 3.95625 15 8.09839ZM4.0531 6.62111C4.0531 4.71546 5.59436 3.17419 7.50002 3.17419C9.40567 3.17419 10.9469 4.71546 10.9469 6.62111C10.9469 9.2063 7.50002 13.0225 7.50002 13.0225C7.50002 13.0225 4.0531 9.2063 4.0531 6.62111ZM6.26898 6.62111C6.26898 7.30064 6.82048 7.85215 7.50002 7.85215C8.17955 7.85215 8.73106 7.30064 8.73106 6.62111C8.73106 5.94158 8.17955 5.39007 7.50002 5.39007C6.82048 5.39007 6.26898 5.94158 6.26898 6.62111Z" fill="white"/>
</svg>
