<svg width="50" height="51" viewBox="0 0 50 51" fill="none" xmlns="http://www.w3.org/2000/svg">
  <g clip-path="url(#clip0_13822_223984)">
    <path fill-rule="evenodd" clip-rule="evenodd"
      d="M5.29545 9.63477C2.38636 9.63477 0 12.0072 0 14.8993V35.9565C0 38.8486 2.38636 41.2211 5.29545 41.2211H34.2807C35.6864 41.2347 37.0375 40.6302 38.0159 39.6169L47.9318 29.1973C49.9295 27.0881 49.9295 23.7531 47.9318 21.6586L38.0159 11.2537C37.5384 10.7434 36.9604 10.3363 36.3177 10.0578C35.6751 9.77929 34.9817 9.63528 34.2807 9.63477H5.29545ZM5.29545 13.1437H34.2955C34.708 13.1437 35.1216 13.3087 35.4534 13.6634L45.3659 24.0694C46.0568 24.7958 46.0568 26.0589 45.3659 26.7853L35.4534 37.2015C35.1216 37.5461 34.708 37.7246 34.2943 37.7099H5.29545C5.06378 37.7105 4.83427 37.6656 4.62009 37.5777C4.40592 37.4899 4.21131 37.3609 4.04744 37.1981C3.88357 37.0352 3.75366 36.8419 3.66517 36.629C3.57669 36.4161 3.53137 36.188 3.53182 35.9577V14.8982C3.53182 13.9266 4.31591 13.1437 5.29659 13.1437H5.29545ZM37.0659 23.6729C36.0852 23.6729 35.3011 24.4558 35.3011 25.4274C35.3011 26.3989 36.0852 27.1819 37.0659 27.1819C37.2978 27.1823 37.5275 27.1372 37.7418 27.0492C37.9561 26.9612 38.1508 26.832 38.3148 26.669C38.4788 26.506 38.6087 26.3124 38.6973 26.0993C38.7858 25.8862 38.8311 25.6579 38.8307 25.4274C38.8311 25.1968 38.7858 24.9685 38.6973 24.7554C38.6087 24.5424 38.4788 24.3488 38.3148 24.1858C38.1508 24.0228 37.9561 23.8935 37.7418 23.8055C37.5275 23.7175 37.2978 23.6724 37.0659 23.6729Z"
      fill="white" />
  </g>
  <defs>
    <clipPath id="clip0_13822_223984">
      <rect width="50" height="31.6327" fill="white" transform="translate(0 9.63477)" />
    </clipPath>
  </defs>
</svg>