<svg width="50" height="51" viewBox="0 0 50 51" fill="none" xmlns="http://www.w3.org/2000/svg">
<path d="M15.9846 9.90681H29.8983C30.0992 9.90681 30.2919 9.827 30.4339 9.68493C30.576 9.54285 30.6558 9.35016 30.6558 9.14924C30.6558 8.94832 30.576 8.75562 30.4339 8.61355C30.2919 8.47148 30.0992 8.39166 29.8983 8.39166H15.9846C15.7837 8.39166 15.591 8.47148 15.4489 8.61355C15.3069 8.75562 15.2271 8.94832 15.2271 9.14924C15.2271 9.35016 15.3069 9.54285 15.4489 9.68493C15.591 9.827 15.7837 9.90681 15.9846 9.90681ZM30.6558 13.0561C30.6558 12.8551 30.576 12.6624 30.4339 12.5204C30.2919 12.3783 30.0992 12.2985 29.8983 12.2985H15.9846C15.7837 12.2985 15.591 12.3783 15.4489 12.5204C15.3069 12.6624 15.2271 12.8551 15.2271 13.0561C15.2271 13.257 15.3069 13.4497 15.4489 13.5917C15.591 13.7338 15.7837 13.8136 15.9846 13.8136H29.8983C30.0992 13.8136 30.2919 13.7338 30.4339 13.5917C30.576 13.4497 30.6558 13.257 30.6558 13.0561Z" fill="white"/>
<path d="M45.8434 36.1644H43.4836V13.1379C43.4836 12.9833 43.4086 12.7492 43.2639 12.6045L34.7298 4.07043L34.7283 4.06968L34.7215 4.06437C34.574 3.9345 34.3873 3.85769 34.1911 3.84619H12.3654C11.576 3.84619 10.9336 4.48862 10.9336 5.27801V24.7439H9.05024V14.1098C9.04923 13.1986 8.68679 12.3249 8.04242 11.6805C7.39805 11.0362 6.52439 10.6737 5.61312 10.6727H5.51766C5.19569 9.69695 4.2866 8.98634 3.20402 8.98634C2.55536 8.98714 1.93351 9.24523 1.47491 9.70398C1.01631 10.1627 0.758414 10.7847 0.757812 11.4333C0.757813 12.7773 1.8563 13.8719 3.20478 13.8719C4.28736 13.8719 5.19721 13.1621 5.51842 12.1879H5.61312C6.12267 12.1885 6.61118 12.3911 6.97149 12.7515C7.3318 13.1118 7.53448 13.6003 7.53509 14.1098V24.7439H5.51766C5.19569 23.7682 4.2866 23.0568 3.20402 23.0568C2.55543 23.0578 1.93369 23.316 1.47513 23.7747C1.01657 24.2334 0.758614 24.8552 0.757812 25.5038C0.757812 26.8485 1.8563 27.9432 3.20478 27.9432C4.28736 27.9432 5.19721 27.2326 5.51842 26.2591H7.53509V36.8939C7.53448 37.4035 7.3318 37.892 6.97149 38.2523C6.61118 38.6126 6.12267 38.8153 5.61312 38.8159H5.51766C5.19569 37.8401 4.2866 37.1288 3.20402 37.1288C2.55543 37.1298 1.93369 37.3879 1.47513 37.8466C1.01657 38.3053 0.758614 38.9271 0.757812 39.5757C0.757812 40.9204 1.8563 42.0151 3.20478 42.0151C4.28736 42.0151 5.19721 41.3045 5.51842 40.331H5.61312C6.52439 40.33 7.39805 39.9676 8.04242 39.3232C8.68679 38.6789 9.04923 37.8052 9.05024 36.8939V26.2591H10.9343V45.7212C10.9343 46.5113 11.576 47.153 12.3661 47.153H42.0518C42.8411 47.153 43.4836 46.5113 43.4836 45.7212V42.9644H45.8427C47.7177 42.9644 49.2427 41.4386 49.2427 39.5644C49.2427 37.6901 47.7177 36.1644 45.8434 36.1644ZM3.20478 12.356C2.69115 12.356 2.27296 11.9416 2.27296 11.4318C2.27296 10.9189 2.69115 10.5 3.20478 10.5C3.71842 10.5 4.13584 10.9189 4.13584 11.4318C4.13584 11.9416 3.71766 12.356 3.20402 12.356H3.20478ZM3.20478 26.4265C2.69115 26.4265 2.27296 26.0129 2.27296 25.503C2.27296 24.9894 2.69115 24.5712 3.20478 24.5712C3.71842 24.5712 4.13584 24.9894 4.13584 25.503C4.13584 26.0121 3.71766 26.4273 3.20402 26.4273L3.20478 26.4265ZM3.20478 40.4977C2.69115 40.4977 2.27296 40.0833 2.27296 39.5735C2.27296 39.0606 2.69115 38.6424 3.20478 38.6424C3.71842 38.6424 4.13584 39.0606 4.13584 39.5742C4.13584 40.0833 3.71766 40.4985 3.20402 40.4985L3.20478 40.4977ZM23.851 41.4447V40.3212H43.4002V41.4485L23.851 41.4447ZM18.8821 39.5621L22.3366 38.0682V41.0568L18.8821 39.5621ZM43.4002 38.806H23.851V37.6788H43.4002V38.806ZM34.9518 6.43483L40.8972 12.3803H36.7328C36.261 12.3799 35.8085 12.1924 35.4747 11.859C35.1408 11.5255 34.9528 11.0733 34.9518 10.6015V6.43483ZM41.9677 45.6386H12.4502V5.36134H33.4351V10.5962C33.4359 11.471 33.7836 12.3099 34.4019 12.9288C35.0202 13.5477 35.8587 13.8961 36.7336 13.8977H41.9684V36.1613H23.0775C22.7268 36.1613 21.8237 36.6818 16.6684 38.8659C16.0548 39.1326 16.0684 39.9985 16.6707 40.2598C23.026 42.9856 22.7881 42.9644 23.0798 42.9644H41.9684V45.6386H41.9677ZM45.8434 41.4492H44.9154V37.6795H45.8434C46.3431 37.6801 46.822 37.8789 47.1753 38.2323C47.5285 38.5857 47.7271 39.0647 47.7275 39.5644C47.7271 40.064 47.5285 40.5431 47.1753 40.8965C46.822 41.2498 46.3431 41.4486 45.8434 41.4492Z" fill="white"/>
<path d="M18.4846 25.0531C18.4846 29.8637 22.3975 33.7773 27.2081 33.7773C32.0187 33.7773 35.9324 29.8637 35.9324 25.0531C35.9324 20.2485 32.0187 16.3394 27.2081 16.3394C22.3975 16.3394 18.4839 20.2485 18.4839 25.0531H18.4846ZM34.4165 25.0531C34.4165 29.0288 31.1831 32.2621 27.2081 32.2621C23.2331 32.2621 19.9998 29.0281 19.9998 25.0531C19.9998 21.0834 23.2331 17.8546 27.2081 17.8546C31.1831 17.8546 34.4172 21.0841 34.4172 25.0531H34.4165Z" fill="white"/>
<path d="M23.843 25.2258C23.7731 25.1534 23.6895 25.0957 23.5971 25.056C23.5047 25.0163 23.4053 24.9954 23.3047 24.9945C23.2041 24.9937 23.1043 25.0128 23.0112 25.0509C22.9181 25.089 22.8335 25.1453 22.7624 25.2164C22.6913 25.2875 22.635 25.3721 22.5969 25.4652C22.5588 25.5583 22.5397 25.6581 22.5406 25.7587C22.5414 25.8593 22.5623 25.9587 22.602 26.0511C22.6417 26.1435 22.6994 26.2271 22.7718 26.297L24.9036 28.4288C25.0457 28.5708 25.2383 28.6506 25.4392 28.6506C25.6401 28.6506 25.8328 28.5708 25.9748 28.4288L31.6453 22.7584C31.7156 22.688 31.7714 22.6044 31.8095 22.5125C31.8475 22.4205 31.8671 22.322 31.867 22.2225C31.867 22.123 31.8474 22.0245 31.8093 21.9325C31.7711 21.8406 31.7153 21.7571 31.6449 21.6868C31.5745 21.6164 31.491 21.5606 31.399 21.5226C31.3071 21.4846 31.2085 21.465 31.109 21.465C31.0095 21.4651 30.911 21.4847 30.8191 21.5228C30.7272 21.5609 30.6437 21.6168 30.5733 21.6871L25.4392 26.822L23.843 25.2258Z" fill="white"/>
</svg>
