<svg width="19" height="18" viewBox="0 0 19 18" fill="none" xmlns="http://www.w3.org/2000/svg">
<path d="M2.8125 2.8125V3.9375H5.94141L2.9707 6.9082L2.8125 7.08398V8.4375H7.3125V7.3125H4.18359L7.1543 4.3418L7.3125 4.16602V2.8125H2.8125ZM12.375 2.8125V13.3242L10.916 11.8652L10.125 12.6562L12.5332 15.082L12.9375 15.4688L13.3418 15.082L15.75 12.6562L14.959 11.8652L13.5 13.3242V2.8125H12.375ZM4.60547 9.5625L4.48242 9.93164L3.39258 12.9375H3.375V12.9727L2.84766 14.4316L2.8125 14.5195V15.1875H3.9375V14.7129L4.16602 14.0625H5.95898L6.1875 14.7129V15.1875H7.3125V14.5195L7.27734 14.4316L6.75 12.9727V12.9375H6.73242L5.64258 9.93164L5.51953 9.5625H4.60547ZM5.0625 11.6191L5.53711 12.9375H4.58789L5.0625 11.6191Z" fill="#00D2FF"/>
</svg>
