<svg width="50" height="51" viewBox="0 0 50 51" fill="none" xmlns="http://www.w3.org/2000/svg">
<path d="M48.0469 16.3398V10.0256C48.0469 7.81836 46.3184 6.06641 44.1941 6.06641H5.80547C3.68164 6.06641 1.95312 7.81836 1.95312 10.0256V40.9744C1.95312 43.1816 3.68164 44.9336 5.80547 44.9336H44.1941C46.3184 44.9336 48.0469 43.1816 48.0469 40.9744V16.3545C48.0469 16.352 48.0469 16.3495 48.0469 16.347C48.0469 16.3444 48.0469 16.342 48.0469 16.3398ZM5.80547 7.62891H44.1941C45.4567 7.62891 46.4844 8.67988 46.4844 10.0256V15.5391H3.51562V10.0256C3.51562 8.67988 4.54287 7.62891 5.80547 7.62891ZM44.1941 43.3711H5.80547C4.54287 43.3711 3.51562 42.3201 3.51562 40.9744V17.1016H46.4844V40.9744C46.4844 42.3201 45.4567 43.3711 44.1941 43.3711Z" fill="white"/>
<path d="M13.995 14.5656C15.5548 14.5656 16.8237 13.2516 16.8237 11.6365C16.8237 10.0214 15.5548 8.7074 13.995 8.7074C12.4353 8.7074 11.1663 10.0215 11.1663 11.6365C11.1663 13.2515 12.4353 14.5656 13.995 14.5656ZM13.995 10.2699C14.6932 10.2699 15.2612 10.883 15.2612 11.6365C15.2612 12.39 14.6932 13.0031 13.995 13.0031C13.2969 13.0031 12.7288 12.39 12.7288 11.6365C12.7288 10.883 13.2969 10.2699 13.995 10.2699ZM20.6491 14.5656C22.2089 14.5656 23.4778 13.2516 23.4778 11.6365C23.4778 10.0214 22.2089 8.7074 20.6491 8.7074C19.0894 8.7074 17.8204 10.0215 17.8204 11.6365C17.8204 13.2515 19.0894 14.5656 20.6491 14.5656ZM20.6491 10.2699C21.3474 10.2699 21.9153 10.883 21.9153 11.6365C21.9153 12.39 21.3474 13.0031 20.6491 13.0031C19.9509 13.0031 19.3829 12.39 19.3829 11.6365C19.3829 10.883 19.9511 10.2699 20.6491 10.2699ZM7.34092 14.5656C8.90068 14.5656 10.1696 13.2516 10.1696 11.6365C10.1696 10.0214 8.90068 8.7074 7.34092 8.7074C5.78115 8.7074 4.51221 10.0215 4.51221 11.6365C4.51221 13.2515 5.78115 14.5656 7.34092 14.5656ZM7.34092 10.2699C8.03906 10.2699 8.60713 10.883 8.60713 11.6365C8.60713 12.39 8.03906 13.0031 7.34092 13.0031C6.64277 13.0031 6.07471 12.39 6.07471 11.6365C6.07471 10.883 6.64268 10.2699 7.34092 10.2699ZM17.3151 23.6476C15.9823 23.6476 14.6906 24.1097 13.6603 24.9553C12.6299 25.8008 11.9247 26.9775 11.6646 28.2847C11.4046 29.592 11.6058 30.949 12.2341 32.1245C12.8624 33.3 13.8789 34.2213 15.1103 34.7313C16.3417 35.2414 17.7119 35.3087 18.9874 34.9218C20.2628 34.5349 21.3647 33.7177 22.1052 32.6095C22.8457 31.5013 23.1791 30.1705 23.0484 28.8441C22.9178 27.5176 22.3313 26.2775 21.3888 25.335C20.8551 24.7984 20.2202 24.3729 19.521 24.0832C18.8217 23.7936 18.072 23.6455 17.3151 23.6476ZM20.2839 32.3773C19.5971 33.0641 18.6934 33.4914 17.7268 33.5866C16.7602 33.6817 15.7906 33.4388 14.983 32.8991C14.1755 32.3595 13.58 31.5566 13.2981 30.6271C13.0162 29.6977 13.0653 28.6993 13.437 27.8019C13.8087 26.9046 14.48 26.164 15.3366 25.7061C16.1932 25.2483 17.182 25.1016 18.1346 25.2911C19.0872 25.4806 19.9446 25.9945 20.5607 26.7453C21.1769 27.4961 21.5137 28.4373 21.5137 29.4086C21.5152 29.9601 21.4072 30.5065 21.1962 31.0161C20.9851 31.5257 20.675 31.9884 20.2839 32.3773Z" fill="white"/>
<path d="M40.0392 27.4531H25.1396C24.7819 26.0328 24.0477 24.7352 23.0145 23.6971C22.2699 22.95 21.3845 22.358 20.4095 21.9554C19.4346 21.5528 18.3894 21.3476 17.3346 21.3517C15.1189 21.3517 13.0496 22.2118 11.6522 23.7126C10.9033 24.4588 10.3088 25.3453 9.90246 26.3213C9.49616 27.2973 9.28607 28.3437 9.28419 29.4009C9.2804 31.536 10.1249 33.5852 11.632 35.0976C13.139 36.61 15.1852 37.4618 17.3203 37.4656C19.4554 37.4694 21.5045 36.6249 23.0169 35.1178C24.0657 34.0898 24.8037 32.7873 25.1466 31.3594H30.1759V33.8008C30.1759 34.008 30.2582 34.2067 30.4048 34.3532C30.5513 34.4997 30.75 34.5821 30.9572 34.5821H33.3009C33.5081 34.5821 33.7068 34.4997 33.8534 34.3532C33.9999 34.2067 34.0822 34.008 34.0822 33.8008V31.3594H35.1501L35.134 35.1723C35.1332 35.3781 35.2136 35.576 35.3578 35.7229C35.5021 35.8697 35.6984 35.9538 35.9043 35.9567L38.2032 35.9892C38.3064 35.9906 38.4089 35.9716 38.5048 35.9332C38.6006 35.8948 38.6879 35.8378 38.7616 35.7655C38.8352 35.6931 38.8939 35.6069 38.934 35.5118C38.9741 35.4166 38.995 35.3145 38.9955 35.2113L39.0115 31.3594H40.0392C40.2464 31.3594 40.4451 31.2771 40.5916 31.1306C40.7382 30.9841 40.8205 30.7853 40.8205 30.5781V28.2344C40.8205 28.0272 40.7382 27.8285 40.5916 27.682C40.4451 27.5355 40.2464 27.4531 40.0392 27.4531ZM39.258 29.7969H38.2335C38.0268 29.7969 37.8286 29.8788 37.6822 30.0246C37.5357 30.1704 37.4531 30.3683 37.4522 30.5749L37.4363 34.4157L36.6998 34.4053L36.7158 30.5814C36.7162 30.4785 36.6963 30.3766 36.6572 30.2814C36.6182 30.1863 36.5607 30.0997 36.4881 30.0269C36.4155 29.954 36.3292 29.8961 36.2342 29.8567C36.1392 29.8172 36.0374 29.7969 35.9345 29.7969H33.3009C33.0937 29.7969 32.895 29.8792 32.7485 30.0257C32.602 30.1722 32.5197 30.3709 32.5197 30.5781V33.0196H31.7384V30.5781C31.7384 30.3709 31.6561 30.1722 31.5096 30.0257C31.3631 29.8792 31.1644 29.7969 30.9572 29.7969H24.5038C24.3169 29.7969 24.1362 29.8639 23.9945 29.9858C23.8528 30.1076 23.7594 30.2762 23.7314 30.461C23.528 31.8116 22.8892 33.0589 21.9121 34.0133C21.31 34.6191 20.5943 35.1 19.8059 35.4285C19.0176 35.7571 18.1721 35.9267 17.3181 35.9277C16.464 35.9287 15.6181 35.7611 14.829 35.4345C14.0399 35.1079 13.323 34.6286 12.7195 34.0243C12.116 33.42 11.6378 32.7024 11.3122 31.9128C10.9867 31.1233 10.8202 30.2772 10.8224 29.4231C10.8246 28.569 10.9955 27.7238 11.3251 26.9359C11.6547 26.148 12.1366 25.433 12.7432 24.8318C12.7562 24.8196 12.7689 24.8068 12.7811 24.7935C13.8676 23.6169 15.5699 22.9146 17.3346 22.9146C18.1842 22.9111 19.0259 23.0761 19.8113 23.4002C20.5966 23.7242 21.3098 24.2007 21.9097 24.8023C22.8728 25.7695 23.5101 27.0133 23.7327 28.36C23.7624 28.5431 23.8564 28.7097 23.9977 28.8299C24.1391 28.9501 24.3186 29.0161 24.5042 29.016H39.258V29.7969Z" fill="white"/>
</svg>
