<svg width="50" height="51" viewBox="0 0 50 51" fill="none" xmlns="http://www.w3.org/2000/svg">
<path d="M30.1758 11.3887C29.3091 11.3948 28.4485 11.4375 27.5391 11.6816C26.6296 11.9258 25.7202 12.3164 24.7559 12.9512C23.5596 12.2493 22.3999 11.6694 21.2891 11.5352C19.9097 11.3643 18.6279 11.4558 17.1387 11.4863C15.3748 11.523 14.2212 12.4263 12.3535 13.1465C10.4858 13.8667 8.08105 14.5625 4.6875 14.5625H3.125V29.6016L4.00391 30.041L6.88477 31.457L17.1387 42.8828L17.1875 42.9316C18.3594 44.0913 19.9402 44.3782 21.3379 44.2988C22.7356 44.2195 24.0479 43.8106 25.0977 43.1758C27.4048 41.7842 33.6914 37.4141 33.6914 37.4141L33.8379 37.3164L33.9355 37.2188C34.6802 36.4802 35.0525 35.5769 35.3027 34.6309L41.3086 31.6035L45.8008 30.0898L46.875 29.7481V14.5625H45.3125C41.925 14.5625 39.5142 13.8301 37.6465 13.0977C35.7788 12.3652 34.6436 11.4741 32.8613 11.4375C31.9092 11.4192 31.0425 11.3826 30.1758 11.3887ZM30.2246 14.5137C30.9265 14.5076 31.7383 14.5442 32.7637 14.5625C32.9285 14.5686 34.4299 15.2095 36.5234 16.0274C38.2935 16.7232 40.7532 17.3396 43.75 17.541V27.502L40.1367 28.7227H40.0391L39.9414 28.7715L35.2051 31.1641C34.9426 30.45 34.5825 29.7908 34.0332 29.2109L33.9355 29.0645L27.2949 20.9102L26.3184 19.6895L25.0977 20.666L20.8984 24.084C19.4885 25.0606 18.3472 24.7798 17.1875 24.2305C16.8518 24.0718 16.8701 24.023 16.6016 23.8398L23.7305 17.9316L23.8281 17.834C25.946 15.7344 27.2461 15.0081 28.3691 14.709C28.9307 14.5564 29.5227 14.5198 30.2246 14.5137ZM19.3359 14.5625C19.9341 14.5503 20.4346 14.5564 20.8984 14.6113C21.3074 14.6602 21.7712 15.0081 22.168 15.1484C22.0093 15.2949 21.8933 15.3804 21.7285 15.5391C21.6919 15.5757 21.6675 15.6001 21.6309 15.6367L13.0859 22.7168L11.7676 23.791L12.9395 25.0117C12.9395 25.0117 14.0686 26.2324 15.8203 27.0625C17.572 27.8926 20.2759 28.3626 22.7051 26.6719L22.8027 26.5742L25.8301 24.084L31.5918 31.1641L31.6406 31.2617L31.6895 31.3106C32.7209 32.3298 32.6965 33.9351 31.6895 34.9727C31.6772 34.9849 31.7017 35.0093 31.6895 35.0215C31.6772 35.0276 31.4697 35.1497 31.4453 35.168L29.3945 32.3848L26.8555 34.2402L28.8574 36.9258C28.0457 37.4751 27.6794 37.762 26.8066 38.3418L24.707 35.5098L22.168 37.3652L24.1699 40.0508C23.9929 40.1607 23.6267 40.4048 23.4863 40.4902C22.9919 40.7893 22.0398 41.125 21.1914 41.1738C20.3918 41.2166 19.7815 41.0335 19.4824 40.7832L19.4336 40.7344L8.98438 29.1621L8.78906 28.918L6.25 27.6484V17.541C9.23462 17.3457 11.7126 16.7537 13.4766 16.0762C15.564 15.2766 17.0532 14.6174 17.2363 14.6113C18.0359 14.593 18.7378 14.5747 19.3359 14.5625Z" fill="white"/>
</svg>
