<svg width="38" height="39" viewBox="0 0 38 39" fill="none"
  xmlns="http://www.w3.org/2000/svg">
  <g clip-path="url(#clip0_1_3867)">
    <path d="M16.625 5.33264C11.9937 5.33264 8.3125 9.01389 8.3125 13.6451C8.3125 16.4951 9.73704 19.1086 11.9933 20.5336C7.71829 22.3148 4.75 26.5889 4.75 31.4576H7.125C7.125 26.2326 11.4 21.9576 16.625 21.9576C18.2875 21.9576 19.8322 22.4326 21.1384 23.1451C19.8322 24.8076 19 26.8264 19 29.0826C19 34.3076 23.275 38.5826 28.5 38.5826C33.725 38.5826 38 34.3076 38 29.0826C38 23.8576 33.725 19.5826 28.5 19.5826C26.4812 19.5826 24.4634 20.2951 22.9197 21.3639C22.4447 21.0076 21.8505 20.7711 21.2567 20.5336C23.513 18.9898 24.9375 16.4951 24.9375 13.6451C24.9375 9.01389 21.2563 5.33264 16.625 5.33264ZM16.625 7.70764C19.95 7.70764 22.5625 10.3201 22.5625 13.6451C22.5625 16.9701 19.95 19.5826 16.625 19.5826C13.3 19.5826 10.6875 16.9701 10.6875 13.6451C10.6875 10.3201 13.3 7.70764 16.625 7.70764ZM28.5 21.9576C32.4187 21.9576 35.625 25.1639 35.625 29.0826C35.625 33.0014 32.4187 36.2076 28.5 36.2076C24.5813 36.2076 21.375 33.0014 21.375 29.0826C21.375 25.1639 24.5813 21.9576 28.5 21.9576ZM23.75 27.8951V30.2701H33.25V27.8951H23.75Z" fill="#ED9526"/>
  </g>
  <defs>
    <clipPath id="clip0_1_3867">
      <rect width="38" height="38" fill="white" transform="translate(0 0.582642)"/>
    </clipPath>
  </defs>
</svg>
