<svg width="50" height="51" viewBox="0 0 50 51" fill="none" xmlns="http://www.w3.org/2000/svg">
<path fill-rule="evenodd" clip-rule="evenodd" d="M5.95283 4.13104C4.84947 4.13104 3.95508 5.02543 3.95508 6.1288V34.1767C3.95508 35.2801 4.84947 36.1745 5.95283 36.1745H15.5407C15.9549 36.1745 16.2907 36.5103 16.2907 36.9245C16.2907 37.3387 15.9549 37.6745 15.5407 37.6745H5.95283C4.02104 37.6745 2.45508 36.1085 2.45508 34.1767V6.1288C2.45508 4.197 4.02104 2.63104 5.95283 2.63104H44.3221C46.2537 2.63104 47.8198 4.19699 47.8198 6.1288V34.1767C47.8198 36.1085 46.2539 37.6745 44.3221 37.6745H34.6575C34.2433 37.6745 33.9075 37.3387 33.9075 36.9245C33.9075 36.5103 34.2433 36.1745 34.6575 36.1745H44.3221C45.4254 36.1745 46.3198 35.2801 46.3198 34.1767V6.1288C46.3198 5.02545 45.4254 4.13104 44.3221 4.13104H5.95283Z" fill="white"/>
<path d="M7.19189 7.995C7.72449 7.995 8.15625 7.56324 8.15625 7.03064C8.15625 6.49804 7.72449 6.06628 7.19189 6.06628C6.6593 6.06628 6.22754 6.49804 6.22754 7.03064C6.22754 7.56324 6.6593 7.995 7.19189 7.995Z" fill="white"/>
<path d="M10.4741 7.995C11.0067 7.995 11.4385 7.56324 11.4385 7.03064C11.4385 6.49804 11.0067 6.06628 10.4741 6.06628C9.94152 6.06628 9.50977 6.49804 9.50977 7.03064C9.50977 7.56324 9.94152 7.995 10.4741 7.995Z" fill="white"/>
<path d="M13.7559 7.995C14.2885 7.995 14.7202 7.56324 14.7202 7.03064C14.7202 6.49804 14.2885 6.06628 13.7559 6.06628C13.2233 6.06628 12.7915 6.49804 12.7915 7.03064C12.7915 7.56324 13.2233 7.995 13.7559 7.995Z" fill="white"/>
<path fill-rule="evenodd" clip-rule="evenodd" d="M33.0659 10.5036C33.0659 10.0894 33.4017 9.7536 33.8159 9.7536H43.5668C43.981 9.7536 44.3168 10.0894 44.3168 10.5036C44.3168 10.9178 43.981 11.2536 43.5668 11.2536H33.8159C33.4017 11.2536 33.0659 10.9178 33.0659 10.5036Z" fill="white"/>
<path fill-rule="evenodd" clip-rule="evenodd" d="M5.91943 10.5036C5.91943 10.0894 6.25522 9.7536 6.66943 9.7536H16.3728C16.787 9.7536 17.1228 10.0894 17.1228 10.5036C17.1228 10.9178 16.787 11.2536 16.3728 11.2536H6.66943C6.25522 11.2536 5.91943 10.9178 5.91943 10.5036Z" fill="white"/>
<path fill-rule="evenodd" clip-rule="evenodd" d="M24.9759 16.1264C25.0803 16.1039 25.1884 16.1039 25.2928 16.1264L34.4541 18.1068C34.7992 18.1814 35.0456 18.4867 35.0456 18.8399V28.3582C35.0456 30.1262 34.1315 31.7685 32.6289 32.7001L25.5296 37.1018C25.2875 37.2519 24.9813 37.2519 24.7392 37.1018L17.6399 32.7001C17.6399 32.7001 17.6399 32.7 17.6398 32.7C16.1372 31.7684 15.2231 30.1262 15.2231 28.3582V18.8399C15.2231 18.4867 15.4695 18.1814 15.8147 18.1068L24.9759 16.1264ZM16.7231 19.4451V28.3582C16.7231 29.6071 17.3688 30.7671 18.4303 31.4252L18.4303 31.4252L25.1344 35.5819L31.8385 31.4252L31.8385 31.4252C32.8999 30.7671 33.5456 29.6071 33.5456 28.3582V19.4451L25.1344 17.6268L16.7231 19.4451Z" fill="white"/>
<path fill-rule="evenodd" clip-rule="evenodd" d="M25.0864 35.8664C25.5006 35.8664 25.8364 36.2022 25.8364 36.6164V44.9596C25.8364 45.3738 25.5006 45.7096 25.0864 45.7096C24.6722 45.7096 24.3364 45.3738 24.3364 44.9596V36.6164C24.3364 36.2022 24.6722 35.8664 25.0864 35.8664Z" fill="white"/>
<path fill-rule="evenodd" clip-rule="evenodd" d="M25.0863 45.7097C24.7188 45.7097 24.4209 46.0076 24.4209 46.3751C24.4209 46.7426 24.7188 47.0405 25.0863 47.0405C25.4538 47.0405 25.7518 46.7426 25.7518 46.3751C25.7518 46.0076 25.4538 45.7097 25.0863 45.7097ZM22.9209 46.3751C22.9209 45.1791 23.8904 44.2097 25.0863 44.2097C26.2823 44.2097 27.2518 45.1792 27.2518 46.3751C27.2518 47.571 26.2823 48.5405 25.0863 48.5405C23.8904 48.5405 22.9209 47.571 22.9209 46.3751Z" fill="white"/>
<path fill-rule="evenodd" clip-rule="evenodd" d="M31.3556 42.8179C30.9459 42.8179 30.6138 43.15 30.6138 43.5597C30.6138 43.9694 30.9459 44.3015 31.3556 44.3015C31.7652 44.3015 32.0974 43.9694 32.0974 43.5597C32.0974 43.15 31.7652 42.8179 31.3556 42.8179ZM29.1138 43.5597C29.1138 42.3216 30.1175 41.3179 31.3556 41.3179C32.5937 41.3179 33.5974 42.3216 33.5974 43.5597C33.5974 44.7978 32.5937 45.8015 31.3556 45.8015C30.1175 45.8015 29.1138 44.7978 29.1138 43.5597Z" fill="white"/>
<path fill-rule="evenodd" clip-rule="evenodd" d="M18.9132 40.5255C18.5035 40.5255 18.1714 40.8576 18.1714 41.2673C18.1714 41.677 18.5035 42.0091 18.9132 42.0091C19.3229 42.0091 19.655 41.677 19.655 41.2673C19.655 40.8576 19.3229 40.5255 18.9132 40.5255ZM16.6714 41.2673C16.6714 40.0292 17.6751 39.0255 18.9132 39.0255C20.1513 39.0255 21.155 40.0292 21.155 41.2673C21.155 42.5054 20.1513 43.5091 18.9132 43.5091C17.6751 43.5091 16.6714 42.5054 16.6714 41.2673Z" fill="white"/>
<path fill-rule="evenodd" clip-rule="evenodd" d="M22.4405 34.3243C22.8547 34.3243 23.1905 34.6601 23.1905 35.0743V37.6065C23.1905 37.8054 23.1115 37.9961 22.9709 38.1368L20.5196 40.5881C20.2267 40.881 19.7518 40.881 19.4589 40.5881C19.166 40.2952 19.166 39.8203 19.4589 39.5274L21.6905 37.2958V35.0743C21.6905 34.6601 22.0263 34.3243 22.4405 34.3243Z" fill="white"/>
<path fill-rule="evenodd" clip-rule="evenodd" d="M27.7856 34.3505C28.1999 34.3505 28.5356 34.6863 28.5356 35.1005V39.6544L30.7296 41.8868C31.0199 42.1823 31.0158 42.6571 30.7203 42.9475C30.4249 43.2378 29.95 43.2337 29.6597 42.9382L27.2507 40.487C27.1129 40.3467 27.0356 40.1579 27.0356 39.9613V35.1005C27.0356 34.6863 27.3714 34.3505 27.7856 34.3505Z" fill="white"/>
<path fill-rule="evenodd" clip-rule="evenodd" d="M25.1342 24.4919C24.7667 24.4919 24.4688 24.7898 24.4688 25.1573C24.4688 25.5248 24.7667 25.8227 25.1342 25.8227C25.5017 25.8227 25.7996 25.5248 25.7996 25.1573C25.7996 24.7898 25.5017 24.4919 25.1342 24.4919ZM22.9688 25.1573C22.9688 23.9614 23.9382 22.9919 25.1342 22.9919C26.3301 22.9919 27.2996 23.9614 27.2996 25.1573C27.2996 26.3532 26.3301 27.3227 25.1342 27.3227C23.9382 27.3227 22.9688 26.3532 22.9688 25.1573Z" fill="white"/>
<path fill-rule="evenodd" clip-rule="evenodd" d="M25.1343 25.8228C25.5485 25.8228 25.8843 26.1585 25.8843 26.5728V30.1352C25.8843 30.5494 25.5485 30.8852 25.1343 30.8852C24.7201 30.8852 24.3843 30.5494 24.3843 30.1352V26.5728C24.3843 26.1585 24.7201 25.8228 25.1343 25.8228Z" fill="white"/>
<path fill-rule="evenodd" clip-rule="evenodd" d="M17.9868 13.8967C17.9868 10.1672 21.2451 7.24493 25.1346 7.24493C29.024 7.24493 32.2823 10.1672 32.2823 13.8967V17.9339C32.2823 18.3481 31.9465 18.6839 31.5323 18.6839C31.1181 18.6839 30.7823 18.3481 30.7823 17.9339V13.8967C30.7823 11.1073 28.3119 8.74493 25.1346 8.74493C21.9573 8.74493 19.4868 11.1073 19.4868 13.8967V17.9339C19.4868 18.3481 19.151 18.6839 18.7368 18.6839C18.3226 18.6839 17.9868 18.3481 17.9868 17.9339V13.8967Z" fill="white"/>
</svg>
