<svg width="21" height="21" viewBox="0 0 21 21" fill="none"
  xmlns="http://www.w3.org/2000/svg">
  <path d="M10.7856 3.45947C6.65091 3.45947 3.28564 6.82474 3.28564 10.9595C3.28564 15.0942 6.65091 18.4595 10.7856 18.4595C14.9204 18.4595 18.2856 15.0942 18.2856 10.9595C18.2856 6.82474 14.9204 3.45947 10.7856 3.45947ZM10.7856 4.70947C14.2448 4.70947 17.0356 7.50029 17.0356 10.9595C17.0356 14.1016 14.7304 16.6853 11.7158 17.1338V12.782H13.4956L13.7751 10.9741H11.7158V9.98657C11.7158 9.23595 11.9624 8.56934 12.6643 8.56934H13.7922V6.99219C13.5941 6.96531 13.1748 6.90674 12.3823 6.90674C10.7273 6.90674 9.75781 7.78048 9.75781 9.77173V10.9741H8.05615V12.782H9.75781V17.1179C6.79118 16.6286 4.53564 14.0676 4.53564 10.9595C4.53564 7.50029 7.32646 4.70947 10.7856 4.70947Z" fill="black"/>
</svg>
