<svg width="21" height="21" viewBox="0 0 21 21" fill="none"
  xmlns="http://www.w3.org/2000/svg">
  <path fill-rule="evenodd" clip-rule="evenodd" d="M5.45703 12.6647C5.45703 15.6504 7.84739 18.0792 10.7858 18.0792C13.7242 18.0792 16.115 15.6504 16.1145 12.6647C16.1145 9.86401 11.7407 4.70067 11.2421 4.12112L11.1827 4.05157C10.9731 3.80768 10.5995 3.80768 10.3894 4.05157L10.3295 4.12112C9.83088 4.70067 5.45703 9.86401 5.45703 12.6647ZM10.5139 5.81535C10.6541 5.63955 10.9179 5.63955 11.0581 5.81535C12.1781 7.22043 13.7711 9.41715 14.5045 11.1352C14.28 10.9517 13.9914 10.8113 13.5977 10.7434C12.2645 10.5133 10.8541 11.1581 9.52574 12.9526C9.28542 13.2056 8.98327 13.4713 8.66239 13.6837C8.32091 13.9097 8.0059 14.0437 7.75158 14.0782C7.52609 14.1089 7.36786 14.0632 7.22476 13.9307C7.05248 13.7712 6.82445 13.4112 6.67128 12.6457C6.67078 12.6432 6.67027 12.6407 6.66975 12.6383C6.69415 10.9586 9.0231 7.68565 10.5139 5.81535Z" fill="black"/>
</svg>
