<svg width="24" height="24" viewBox="0 0 24 24" fill="none" xmlns="http://www.w3.org/2000/svg">
<path d="M12 3.75C9.075 3.75 6.75 6.075 6.75 9C6.75 10.8281 7.65747 12.4211 9.05273 13.3594C6.38251 14.5105 4.5 17.1702 4.5 20.25H6C6 16.95 8.7 14.25 12 14.25C12.9 14.25 13.8003 14.4756 14.5503 14.8506C14.7753 14.4006 15 13.9497 15.375 13.5747C15.2257 13.5001 15.0717 13.4408 14.9194 13.3755C16.3292 12.4396 17.25 10.8393 17.25 9C17.25 6.075 14.925 3.75 12 3.75ZM12 5.25C14.1 5.25 15.75 6.9 15.75 9C15.75 11.1 14.1 12.75 12 12.75C9.9 12.75 8.25 11.1 8.25 9C8.25 6.9 9.9 5.25 12 5.25ZM18.75 13.5C17.1 13.5 15.75 14.85 15.75 16.5V18H13.5V24H24V18H21.75V16.5C21.75 14.85 20.4 13.5 18.75 13.5ZM18.75 15C19.575 15 20.25 15.675 20.25 16.5V18H17.25V16.5C17.25 15.675 17.925 15 18.75 15ZM15 19.5H22.5V22.5H15V19.5Z" fill="white"/>
</svg>
