<svg width="56" height="56" viewBox="0 0 56 56" fill="none" xmlns="http://www.w3.org/2000/svg">
	<path
		d="M8.51001 48.2379C8.53472 48.2626 8.55696 48.2897 8.58167 48.3144C8.56684 48.307 8.54461 48.3045 8.53967 48.2947C8.52731 48.2749 8.52731 48.2527 8.5199 48.2305L8.51001 48.2379Z"
		fill="white" />
	<path
		d="M39.8765 10.038C39.8765 8.16871 39.8741 6.29699 39.8765 4.42774C39.8765 3.86474 39.8864 3.83264 40.3979 3.88943C41.3468 3.99067 42.2882 4.1413 43.1481 4.60553C44.3243 5.23766 45.0853 6.22291 45.4238 7.48225C45.8933 9.24038 45.9156 11.0207 45.3522 12.7764C44.7344 14.7024 43.3754 15.7445 41.4184 16.0877C41.028 16.1569 40.6425 16.2285 40.2447 16.226C39.9778 16.2235 39.8543 16.1396 39.879 15.8605C39.8938 15.6976 39.879 15.5346 39.879 15.3692C39.8765 13.5913 39.8765 11.8158 39.8765 10.038Z"
		fill="white" />
	<path
		d="M8.51992 48.2305C8.51498 48.2305 8.51251 48.2305 8.50757 48.2305C8.50757 48.2329 8.51003 48.2354 8.51003 48.2379L8.51992 48.2305Z"
		fill="white" />
	<path
		d="M55.9453 24.7278C55.9453 24.7278 55.9008 23.2783 55.6611 22.2955C55.5475 21.8288 55.419 21.377 55.3176 21.0313C55.3176 21.0189 55.3152 21.009 55.3152 20.9967C55.2633 20.8337 55.2089 20.6683 55.157 20.5053C55.1422 20.4584 55.1323 20.4263 55.1249 20.4065C54.9989 20.009 54.8704 19.6114 54.7394 19.2139C54.3861 18.1545 53.9858 17.115 53.4965 16.1124C53.4348 15.9865 53.3928 15.8458 53.3087 15.7396C53.0518 15.4186 52.7973 15.463 52.6638 15.8581C52.3352 16.831 51.9324 17.7693 51.374 18.636C49.8766 20.9621 47.7861 22.5153 45.1792 23.4067C43.919 23.8388 42.6267 24.0981 41.3072 24.2315C38.5991 24.5055 35.8859 24.3031 33.1753 24.3574C32.8071 24.3648 32.35 24.5253 32.093 24.2784C31.8311 24.0265 32.004 23.5672 32.004 23.2018C31.9966 15.8556 31.9991 8.51197 31.9966 1.16583C31.9966 0.825072 32.0609 0.474433 31.8632 0.0916934C29.5553 -0.0342403 27.2524 -0.0268325 25.7895 0.0916934C25.8068 0.254666 25.7945 0.417639 25.7945 0.583082C25.7945 8.25022 25.7945 15.9174 25.792 23.5845C25.792 24.4636 25.918 24.3599 25.0087 24.3599C22.4117 24.3648 19.8147 24.3623 17.2177 24.3599C16.6692 24.3599 16.6593 24.3525 16.6593 23.8487C16.6618 16.7421 16.6667 9.63796 16.6692 2.53135C16.6692 2.50913 16.6741 2.48443 16.6791 2.46221C16.4641 2.23997 16.2837 2.47703 16.1404 2.54617C14.0228 3.54623 12.0386 4.75618 10.2397 6.26491C9.41687 6.95632 8.59157 7.64278 7.84781 8.4206C5.1075 11.285 3.00471 14.5494 1.62096 18.2755C0.882144 20.2633 0.402772 22.3079 0.0889589 24.3994C0.079075 24.4685 0.0815421 24.5401 0 24.5846L0.0395365 31.4492C0.192737 32.2863 0.331112 33.1258 0.50408 33.9605C1.06746 36.6619 2.01137 39.22 3.36052 41.6325C4.25007 43.2228 5.2607 44.7315 6.42947 46.1266C6.98297 46.7884 7.58342 47.4107 8.16657 48.0477C8.25799 48.149 8.35436 48.2502 8.51003 48.2305C8.25552 47.3193 7.88734 46.4427 7.75391 45.497C7.67237 44.9216 7.58588 44.3488 7.50681 43.7734C7.37585 42.7931 7.45493 41.8202 7.52659 40.8473C7.73168 37.9607 8.71512 35.3704 10.5165 33.0888C12.303 30.8245 14.6356 29.4071 17.3882 28.6564C18.1023 28.4613 18.8337 28.3157 19.5825 28.2762C20.2101 28.2416 20.8328 28.1354 21.4653 28.1675C24.5244 28.3181 27.3784 29.1108 29.9679 30.7874C30.2793 30.9899 30.3089 31.1455 30.1434 31.4492C28.898 33.7185 27.6675 35.9927 26.4295 38.2644C26.3974 38.3237 26.3406 38.3706 26.2788 38.4422C26.1083 38.3434 25.9378 38.2644 25.792 38.1558C24.2007 36.9705 22.4018 36.489 20.4547 36.7409C18.7077 36.9656 17.3882 37.9335 16.5135 39.462C15.2286 41.7041 15.5301 44.9117 18.006 46.8082C18.9449 47.5292 20.0346 47.9144 21.2454 47.9564C23.3111 48.028 25.073 47.3094 26.5975 45.9958C26.7705 45.9859 26.8249 46.1019 26.8768 46.2007C28.1122 48.4749 29.3403 50.7516 30.5807 53.0209C30.729 53.29 30.6623 53.4036 30.43 53.579C29.1501 54.5469 27.7169 55.1988 26.1948 55.6754C25.9971 55.7371 25.7945 55.789 25.5993 55.8606C25.5276 55.8853 25.5177 55.9421 25.5202 55.9989C28.725 56.0063 31.5024 55.984 32.9726 55.7445C34.2477 55.5371 35.493 55.1914 36.731 54.821C36.8817 54.7766 37.025 54.6975 37.1758 54.6309C37.0967 54.3667 36.857 54.3494 36.6939 54.2382C34.5714 52.7764 32.9183 50.9294 31.9027 48.5342C31.3838 47.3094 31.0329 46.0526 30.8353 44.734C30.6228 43.3117 30.6153 41.8795 30.7488 40.4744C31.0107 37.7113 32.004 35.2025 33.7757 33.0271C35.8365 30.4985 38.4977 29.012 41.6902 28.4317C42.7009 28.249 43.7189 28.1231 44.7493 28.1749C47.6823 28.3206 50.435 29.0861 52.9455 30.6393C53.0641 30.7133 53.1778 30.7948 53.2939 30.8714C53.4891 30.9948 53.5114 31.1306 53.3903 31.3381C53.1778 31.6986 53.0023 32.0838 52.8022 32.4517C51.7767 34.3358 50.7463 36.2149 49.7258 38.099C49.6567 38.2249 49.5924 38.341 49.412 38.4397C48.5768 37.7582 47.6107 37.2619 46.5432 36.968C44.7839 36.4816 43.0641 36.5162 41.5074 37.5607C39.7703 38.7237 38.9425 40.4004 39.0018 42.4968C39.0636 44.613 40.0619 46.1785 41.8731 47.2181C43.6596 48.2453 45.5276 48.1687 47.4006 47.4675C47.8355 47.3045 48.2334 47.0526 48.6559 46.8551C49.2736 46.5662 49.669 46.0353 50.0693 45.5266C51.8731 43.2474 53.3186 40.7584 54.3342 38.0274C55.0335 36.1507 55.5104 34.2173 55.8588 32.2492C55.8959 32.0443 55.8786 31.8295 55.8983 31.6196C55.9057 31.5554 55.9181 31.4961 55.9453 31.4492V31.4467C56.0367 29.6738 55.9972 26.0093 55.9453 24.7278Z"
		fill="white" />
</svg>