<svg width="314" height="84" viewBox="0 0 314 84" fill="none" xmlns="http://www.w3.org/2000/svg">
<path d="M40.5287 53.5V30.9444H44.4276V53.5H40.5287ZM58.5342 53.5V30.9444H65.7842L70.1664 50.89H70.7142L75.1286 30.9444H82.3464V53.5H78.6086V33.7478H78.0608L73.6786 53.5H67.2342L62.8519 33.7478H62.3042V53.5H58.5342ZM96.4897 53.5V30.9444H105.609C107.026 30.9444 108.272 31.2237 109.346 31.7822C110.42 32.3407 111.269 33.1356 111.892 34.1667C112.515 35.1763 112.826 36.3793 112.826 37.7756V38.2267C112.826 39.6015 112.504 40.8044 111.86 41.8356C111.237 42.8667 110.377 43.6615 109.282 44.22C108.208 44.7785 106.983 45.0578 105.609 45.0578H100.389V53.5H96.4897ZM100.389 41.5456H105.222C106.339 41.5456 107.23 41.2448 107.896 40.6433C108.584 40.0419 108.927 39.2148 108.927 38.1622V37.84C108.927 36.7874 108.594 35.9604 107.929 35.3589C107.263 34.7574 106.36 34.4567 105.222 34.4567H100.389V41.5456ZM122.23 53.5L128.417 30.9444H135.152L141.338 53.5H137.343L135.989 48.3444H127.579L126.226 53.5H122.23ZM128.482 44.8H135.087L132.058 33.3611H131.51L128.482 44.8ZM162.121 53.9511C159.371 53.9511 157.18 53.1778 155.547 51.6311C153.915 50.063 153.099 47.8181 153.099 44.8967V39.5478C153.099 36.6263 153.915 34.3922 155.547 32.8456C157.18 31.2774 159.371 30.4933 162.121 30.4933C164.87 30.4933 166.986 31.2452 168.469 32.7489C169.972 34.2526 170.724 36.3148 170.724 38.9356V39.1289H166.922V38.8389C166.922 37.4211 166.525 36.2611 165.73 35.3589C164.956 34.4352 163.753 33.9733 162.121 33.9733C160.531 33.9733 159.275 34.4674 158.351 35.4556C157.449 36.4222 156.997 37.7648 156.997 39.4833V44.9611C156.997 46.6581 157.449 48.0007 158.351 48.9889C159.275 49.977 160.531 50.4711 162.121 50.4711C163.753 50.4711 164.956 50.02 165.73 49.1178C166.525 48.1941 166.922 47.0233 166.922 45.6056V45.0578H170.724V45.5089C170.724 48.1296 169.972 50.1919 168.469 51.6956C166.986 53.1993 164.87 53.9511 162.121 53.9511ZM188.863 53.5V34.4567H182.129V30.9444H199.464V34.4567H192.73V53.5H188.863ZM219.481 53.9511C217.763 53.9511 216.237 53.6504 214.906 53.0489C213.595 52.4259 212.564 51.5344 211.812 50.3744C211.06 49.2144 210.684 47.7967 210.684 46.1211V45.2833H214.519V46.1211C214.519 47.6033 214.97 48.7096 215.872 49.44C216.774 50.1704 217.977 50.5356 219.481 50.5356C221.006 50.5356 222.156 50.2241 222.929 49.6011C223.702 48.9781 224.089 48.1726 224.089 47.1844C224.089 46.5185 223.906 45.9815 223.541 45.5733C223.176 45.1437 222.639 44.8 221.93 44.5422C221.243 44.2844 220.405 44.0374 219.417 43.8011L218.45 43.6078C216.968 43.2641 215.679 42.8344 214.583 42.3189C213.509 41.7819 212.682 41.0944 212.102 40.2567C211.522 39.4189 211.232 38.3233 211.232 36.97C211.232 35.6167 211.554 34.4567 212.199 33.49C212.843 32.5233 213.756 31.7822 214.938 31.2667C216.119 30.7511 217.505 30.4933 219.094 30.4933C220.684 30.4933 222.102 30.7619 223.348 31.2989C224.594 31.8359 225.571 32.6415 226.28 33.7156C227.01 34.7896 227.376 36.1322 227.376 37.7433V38.8067H223.541V37.7433C223.541 36.8196 223.359 36.0785 222.993 35.52C222.628 34.9615 222.113 34.5533 221.447 34.2956C220.781 34.0378 219.997 33.9089 219.094 33.9089C217.763 33.9089 216.753 34.1667 216.066 34.6822C215.378 35.1978 215.034 35.9281 215.034 36.8733C215.034 37.4748 215.185 37.9904 215.486 38.42C215.808 38.8281 216.27 39.1719 216.871 39.4511C217.494 39.7089 218.267 39.9344 219.191 40.1278L220.158 40.3533C221.704 40.697 223.058 41.1374 224.218 41.6744C225.378 42.19 226.28 42.8774 226.924 43.7367C227.59 44.5959 227.923 45.713 227.923 47.0878C227.923 48.4411 227.569 49.6333 226.86 50.6644C226.173 51.6956 225.195 52.5011 223.928 53.0811C222.682 53.6611 221.2 53.9511 219.481 53.9511Z" fill="white"/>
<path d="M239.665 53.5L247.044 30.9444H250.717L258.096 53.5H255.937L254.004 47.5067H243.757L241.824 53.5H239.665ZM244.337 45.6378H253.424L249.074 32.1689H248.687L244.337 45.6378ZM271.434 53.5V30.9444H273.496V53.5H271.434Z" fill="#00D2A0"/>
<path d="M42.6053 19.9C43.6547 19.9 44.5053 19.0493 44.5053 18C44.5053 16.9506 43.6547 16.1 42.6053 16.1C41.556 16.1 40.7053 16.9506 40.7053 18C40.7053 19.0493 41.556 19.9 42.6053 19.9Z" fill="#00D2A0"/>
<path opacity="0.2" d="M42.6053 11.9C43.6547 11.9 44.5053 11.0493 44.5053 9.99998C44.5053 8.95063 43.6547 8.09998 42.6053 8.09998C41.556 8.09998 40.7053 8.95063 40.7053 9.99998C40.7053 11.0493 41.556 11.9 42.6053 11.9Z" fill="#00D2A0"/>
<path d="M42.6053 67.9C43.6547 67.9 44.5053 67.0493 44.5053 66C44.5053 64.9506 43.6547 64.1 42.6053 64.1C41.556 64.1 40.7053 64.9506 40.7053 66C40.7053 67.0493 41.556 67.9 42.6053 67.9Z" fill="#00D2A0"/>
<path opacity="0.2" d="M42.6053 75.9C43.6547 75.9 44.5053 75.0493 44.5053 74C44.5053 72.9506 43.6547 72.1 42.6053 72.1C41.556 72.1 40.7053 72.9506 40.7053 74C40.7053 75.0493 41.556 75.9 42.6053 75.9Z" fill="#00D2A0"/>
<path d="M42.6053 83.9C43.6547 83.9 44.5053 83.0493 44.5053 82C44.5053 80.9506 43.6547 80.1 42.6053 80.1C41.556 80.1 40.7053 80.9506 40.7053 82C40.7053 83.0493 41.556 83.9 42.6053 83.9Z" fill="#00D2A0"/>
<path opacity="0.5" d="M42.6053 3.89998C43.6547 3.89998 44.5053 3.04932 44.5053 1.99998C44.5053 0.950634 43.6547 0.0999756 42.6053 0.0999756C41.556 0.0999756 40.7053 0.950634 40.7053 1.99998C40.7053 3.04932 41.556 3.89998 42.6053 3.89998Z" fill="#00D2A0"/>
<path opacity="0.2" d="M48.8053 20.7C49.8546 20.7 50.7053 19.8493 50.7053 18.8C50.7053 17.7506 49.8546 16.9 48.8053 16.9C47.7559 16.9 46.9053 17.7506 46.9053 18.8C46.9053 19.8493 47.7559 20.7 48.8053 20.7Z" fill="#00D2A0"/>
<path d="M50.9054 13C51.9547 13 52.8054 12.1493 52.8054 11.1C52.8054 10.0506 51.9547 9.19995 50.9054 9.19995C49.856 9.19995 49.0054 10.0506 49.0054 11.1C49.0054 12.1493 49.856 13 50.9054 13Z" fill="#00D2A0"/>
<path d="M36.4054 67.1C37.4547 67.1 38.3054 66.2493 38.3054 65.2C38.3054 64.1506 37.4547 63.3 36.4054 63.3C35.356 63.3 34.5054 64.1506 34.5054 65.2C34.5054 66.2493 35.356 67.1 36.4054 67.1Z" fill="#00D2A0"/>
<path d="M34.3053 74.8C35.3546 74.8 36.2053 73.9493 36.2053 72.9C36.2053 71.8507 35.3546 71 34.3053 71C33.2559 71 32.4053 71.8507 32.4053 72.9C32.4053 73.9493 33.2559 74.8 34.3053 74.8Z" fill="#00D2A0"/>
<path opacity="0.5" d="M32.2054 82.5C33.2548 82.5 34.1054 81.6493 34.1054 80.6C34.1054 79.5506 33.2548 78.7 32.2054 78.7C31.1561 78.7 30.3054 79.5506 30.3054 80.6C30.3054 81.6493 31.1561 82.5 32.2054 82.5Z" fill="#00D2A0"/>
<path opacity="0.2" d="M52.9054 5.3C53.9547 5.3 54.8054 4.44934 54.8054 3.4C54.8054 2.35066 53.9547 1.5 52.9054 1.5C51.856 1.5 51.0054 2.35066 51.0054 3.4C51.0054 4.44934 51.856 5.3 52.9054 5.3Z" fill="#00D2A0"/>
<path opacity="0.5" d="M54.6053 23.1C55.6547 23.1 56.5053 22.2493 56.5053 21.2C56.5053 20.1506 55.6547 19.3 54.6053 19.3C53.556 19.3 52.7053 20.1506 52.7053 21.2C52.7053 22.2493 53.556 23.1 54.6053 23.1Z" fill="#00D2A0"/>
<path d="M58.6053 16.2C59.6547 16.2 60.5053 15.3493 60.5053 14.3C60.5053 13.2506 59.6547 12.4 58.6053 12.4C57.556 12.4 56.7053 13.2506 56.7053 14.3C56.7053 15.3493 57.556 16.2 58.6053 16.2Z" fill="#00D2A0"/>
<path opacity="0.2" d="M30.6053 64.7C31.6547 64.7 32.5053 63.8493 32.5053 62.8C32.5053 61.7506 31.6547 60.9 30.6053 60.9C29.556 60.9 28.7053 61.7506 28.7053 62.8C28.7053 63.8493 29.556 64.7 30.6053 64.7Z" fill="#00D2A0"/>
<path d="M26.6053 71.6C27.6547 71.6 28.5053 70.7493 28.5053 69.7C28.5053 68.6506 27.6547 67.8 26.6053 67.8C25.556 67.8 24.7053 68.6506 24.7053 69.7C24.7053 70.7493 25.556 71.6 26.6053 71.6Z" fill="#00D2A0"/>
<path opacity="0.2" d="M22.6053 78.5C23.6547 78.5 24.5053 77.6493 24.5053 76.6C24.5053 75.5506 23.6547 74.7 22.6053 74.7C21.556 74.7 20.7053 75.5506 20.7053 76.6C20.7053 77.6493 21.556 78.5 22.6053 78.5Z" fill="#00D2A0"/>
<path d="M62.6053 9.3C63.6547 9.3 64.5053 8.44934 64.5053 7.4C64.5053 6.35066 63.6547 5.5 62.6053 5.5C61.556 5.5 60.7053 6.35066 60.7053 7.4C60.7053 8.44934 61.556 9.3 62.6053 9.3Z" fill="#00D2A0"/>
<path opacity="0.2" d="M59.6053 26.9C60.6547 26.9 61.5053 26.0493 61.5053 25C61.5053 23.9506 60.6547 23.1 59.6053 23.1C58.556 23.1 57.7053 23.9506 57.7053 25C57.7053 26.0493 58.556 26.9 59.6053 26.9Z" fill="#00D2A0"/>
<path opacity="0.5" d="M65.2054 21.3C66.2548 21.3 67.1054 20.4493 67.1054 19.4C67.1054 18.3507 66.2548 17.5 65.2054 17.5C64.1561 17.5 63.3054 18.3507 63.3054 19.4C63.3054 20.4493 64.1561 21.3 65.2054 21.3Z" fill="#00D2A0"/>
<path d="M25.6053 60.9C26.6547 60.9 27.5053 60.0493 27.5053 59C27.5053 57.9506 26.6547 57.1 25.6053 57.1C24.556 57.1 23.7053 57.9506 23.7053 59C23.7053 60.0493 24.556 60.9 25.6053 60.9Z" fill="#00D2A0"/>
<path d="M20.0052 66.5C21.0546 66.5 21.9052 65.6493 21.9052 64.6C21.9052 63.5506 21.0546 62.7 20.0052 62.7C18.9559 62.7 18.1052 63.5506 18.1052 64.6C18.1052 65.6493 18.9559 66.5 20.0052 66.5Z" fill="#00D2A0"/>
<path d="M14.3053 72.2C15.3546 72.2 16.2053 71.3493 16.2053 70.3C16.2053 69.2506 15.3546 68.4 14.3053 68.4C13.2559 68.4 12.4053 69.2506 12.4053 70.3C12.4053 71.3493 13.2559 72.2 14.3053 72.2Z" fill="#00D2A0"/>
<path opacity="0.5" d="M70.9054 15.6C71.9547 15.6 72.8054 14.7493 72.8054 13.7C72.8054 12.6506 71.9547 11.8 70.9054 11.8C69.856 11.8 69.0054 12.6506 69.0054 13.7C69.0054 14.7493 69.856 15.6 70.9054 15.6Z" fill="#00D2A0"/>
<path d="M70.3053 27.9C71.3546 27.9 72.2053 27.0493 72.2053 26C72.2053 24.9506 71.3546 24.1 70.3053 24.1C69.2559 24.1 68.4053 24.9506 68.4053 26C68.4053 27.0493 69.2559 27.9 70.3053 27.9Z" fill="#00D2A0"/>
<path d="M21.8053 55.9C22.8546 55.9 23.7053 55.0493 23.7053 54C23.7053 52.9506 22.8546 52.1 21.8053 52.1C20.7559 52.1 19.9053 52.9506 19.9053 54C19.9053 55.0493 20.7559 55.9 21.8053 55.9Z" fill="#00D2A0"/>
<path opacity="0.5" d="M14.9054 59.9C15.9547 59.9 16.8054 59.0493 16.8054 58C16.8054 56.9506 15.9547 56.1 14.9054 56.1C13.856 56.1 13.0054 56.9506 13.0054 58C13.0054 59.0493 13.856 59.9 14.9054 59.9Z" fill="#00D2A0"/>
<path opacity="0.5" d="M8.00522 63.9C9.05457 63.9 9.90522 63.0493 9.90522 62C9.90522 60.9506 9.05457 60.1 8.00522 60.1C6.95588 60.1 6.10522 60.9506 6.10522 62C6.10522 63.0493 6.95588 63.9 8.00522 63.9Z" fill="#00D2A0"/>
<path opacity="0.2" d="M77.2054 23.9C78.2548 23.9 79.1054 23.0493 79.1054 22C79.1054 20.9506 78.2548 20.1 77.2054 20.1C76.1561 20.1 75.3054 20.9506 75.3054 22C75.3054 23.0493 76.1561 23.9 77.2054 23.9Z" fill="#00D2A0"/>
<path opacity="0.2" d="M19.4054 50.1C20.4547 50.1 21.3054 49.2493 21.3054 48.2C21.3054 47.1506 20.4547 46.3 19.4054 46.3C18.356 46.3 17.5054 47.1506 17.5054 48.2C17.5054 49.2493 18.356 50.1 19.4054 50.1Z" fill="#00D2A0"/>
<path opacity="0.5" d="M11.7054 52.2C12.7548 52.2 13.6054 51.3493 13.6054 50.3C13.6054 49.2506 12.7548 48.4 11.7054 48.4C10.6561 48.4 9.80542 49.2506 9.80542 50.3C9.80542 51.3493 10.6561 52.2 11.7054 52.2Z" fill="#00D2A0"/>
<path d="M4.00522 54.2C5.05457 54.2 5.90522 53.3493 5.90522 52.3C5.90522 51.2506 5.05457 50.4 4.00522 50.4C2.95588 50.4 2.10522 51.2506 2.10522 52.3C2.10522 53.3493 2.95588 54.2 4.00522 54.2Z" fill="#00D2A0"/>
<path d="M18.6053 43.9C19.6547 43.9 20.5053 43.0493 20.5053 42C20.5053 40.9506 19.6547 40.1 18.6053 40.1C17.556 40.1 16.7053 40.9506 16.7053 42C16.7053 43.0493 17.556 43.9 18.6053 43.9Z" fill="#00D2A0"/>
<path d="M10.6053 43.9C11.6547 43.9 12.5053 43.0493 12.5053 42C12.5053 40.9506 11.6547 40.1 10.6053 40.1C9.55598 40.1 8.70532 40.9506 8.70532 42C8.70532 43.0493 9.55598 43.9 10.6053 43.9Z" fill="#00D2A0"/>
<path d="M2.60532 43.9C3.65466 43.9 4.50532 43.0493 4.50532 42C4.50532 40.9506 3.65466 40.1 2.60532 40.1C1.55598 40.1 0.705322 40.9506 0.705322 42C0.705322 43.0493 1.55598 43.9 2.60532 43.9Z" fill="#00D2A0"/>
<path opacity="0.2" d="M19.4054 37.7C20.4547 37.7 21.3054 36.8493 21.3054 35.8C21.3054 34.7506 20.4547 33.9 19.4054 33.9C18.356 33.9 17.5054 34.7506 17.5054 35.8C17.5054 36.8493 18.356 37.7 19.4054 37.7Z" fill="#00D2A0"/>
<path d="M11.7054 35.6C12.7548 35.6 13.6054 34.7493 13.6054 33.7C13.6054 32.6506 12.7548 31.8 11.7054 31.8C10.6561 31.8 9.80542 32.6506 9.80542 33.7C9.80542 34.7493 10.6561 35.6 11.7054 35.6Z" fill="#00D2A0"/>
<path opacity="0.5" d="M4.00522 33.5C5.05457 33.5 5.90522 32.6493 5.90522 31.6C5.90522 30.5506 5.05457 29.7 4.00522 29.7C2.95588 29.7 2.10522 30.5506 2.10522 31.6C2.10522 32.6493 2.95588 33.5 4.00522 33.5Z" fill="#00D2A0"/>
<path opacity="0.2" d="M21.8053 31.9C22.8546 31.9 23.7053 31.0493 23.7053 30C23.7053 28.9506 22.8546 28.1 21.8053 28.1C20.7559 28.1 19.9053 28.9506 19.9053 30C19.9053 31.0493 20.7559 31.9 21.8053 31.9Z" fill="#00D2A0"/>
<path d="M14.9054 27.9C15.9547 27.9 16.8054 27.0493 16.8054 26C16.8054 24.9506 15.9547 24.1 14.9054 24.1C13.856 24.1 13.0054 24.9506 13.0054 26C13.0054 27.0493 13.856 27.9 14.9054 27.9Z" fill="#00D2A0"/>
<path opacity="0.2" d="M8.00522 23.9C9.05457 23.9 9.90522 23.0493 9.90522 22C9.90522 20.9506 9.05457 20.1 8.00522 20.1C6.95588 20.1 6.10522 20.9506 6.10522 22C6.10522 23.0493 6.95588 23.9 8.00522 23.9Z" fill="#00D2A0"/>
<path opacity="0.5" d="M77.2054 63.9C78.2548 63.9 79.1054 63.0493 79.1054 62C79.1054 60.9506 78.2548 60.1 77.2054 60.1C76.1561 60.1 75.3054 60.9506 75.3054 62C75.3054 63.0493 76.1561 63.9 77.2054 63.9Z" fill="#00D2A0"/>
<path opacity="0.2" d="M59.6053 60.9C60.6547 60.9 61.5053 60.0493 61.5053 59C61.5053 57.9506 60.6547 57.1 59.6053 57.1C58.556 57.1 57.7053 57.9506 57.7053 59C57.7053 60.0493 58.556 60.9 59.6053 60.9Z" fill="#00D2A0"/>
<path d="M65.2054 66.5C66.2548 66.5 67.1054 65.6493 67.1054 64.6C67.1054 63.5506 66.2548 62.7 65.2054 62.7C64.1561 62.7 63.3054 63.5506 63.3054 64.6C63.3054 65.6493 64.1561 66.5 65.2054 66.5Z" fill="#00D2A0"/>
<path d="M25.6053 26.9C26.6547 26.9 27.5053 26.0493 27.5053 25C27.5053 23.9506 26.6547 23.1 25.6053 23.1C24.556 23.1 23.7053 23.9506 23.7053 25C23.7053 26.0493 24.556 26.9 25.6053 26.9Z" fill="#00D2A0"/>
<path opacity="0.5" d="M20.0052 21.3C21.0546 21.3 21.9052 20.4493 21.9052 19.4C21.9052 18.3507 21.0546 17.5 20.0052 17.5C18.9559 17.5 18.1052 18.3507 18.1052 19.4C18.1052 20.4493 18.9559 21.3 20.0052 21.3Z" fill="#00D2A0"/>
<path d="M14.3053 15.6C15.3546 15.6 16.2053 14.7493 16.2053 13.7C16.2053 12.6506 15.3546 11.8 14.3053 11.8C13.2559 11.8 12.4053 12.6506 12.4053 13.7C12.4053 14.7493 13.2559 15.6 14.3053 15.6Z" fill="#00D2A0"/>
<path d="M70.9054 72.2C71.9547 72.2 72.8054 71.3493 72.8054 70.3C72.8054 69.2506 71.9547 68.4 70.9054 68.4C69.856 68.4 69.0054 69.2506 69.0054 70.3C69.0054 71.3493 69.856 72.2 70.9054 72.2Z" fill="#00D2A0"/>
<path d="M54.6053 64.7C55.6547 64.7 56.5053 63.8493 56.5053 62.8C56.5053 61.7506 55.6547 60.9 54.6053 60.9C53.556 60.9 52.7053 61.7506 52.7053 62.8C52.7053 63.8493 53.556 64.7 54.6053 64.7Z" fill="#00D2A0"/>
<path opacity="0.5" d="M58.6053 71.6C59.6547 71.6 60.5053 70.7493 60.5053 69.7C60.5053 68.6506 59.6547 67.8 58.6053 67.8C57.556 67.8 56.7053 68.6506 56.7053 69.7C56.7053 70.7493 57.556 71.6 58.6053 71.6Z" fill="#00D2A0"/>
<path opacity="0.2" d="M30.6053 23.1C31.6547 23.1 32.5053 22.2493 32.5053 21.2C32.5053 20.1506 31.6547 19.3 30.6053 19.3C29.556 19.3 28.7053 20.1506 28.7053 21.2C28.7053 22.2493 29.556 23.1 30.6053 23.1Z" fill="#00D2A0"/>
<path d="M26.6053 16.2C27.6547 16.2 28.5053 15.3493 28.5053 14.3C28.5053 13.2506 27.6547 12.4 26.6053 12.4C25.556 12.4 24.7053 13.2506 24.7053 14.3C24.7053 15.3493 25.556 16.2 26.6053 16.2Z" fill="#00D2A0"/>
<path opacity="0.2" d="M22.6053 9.3C23.6547 9.3 24.5053 8.44934 24.5053 7.4C24.5053 6.35066 23.6547 5.5 22.6053 5.5C21.556 5.5 20.7053 6.35066 20.7053 7.4C20.7053 8.44934 21.556 9.3 22.6053 9.3Z" fill="#00D2A0"/>
<path d="M62.6053 78.5C63.6547 78.5 64.5053 77.6493 64.5053 76.6C64.5053 75.5506 63.6547 74.7 62.6053 74.7C61.556 74.7 60.7053 75.5506 60.7053 76.6C60.7053 77.6493 61.556 78.5 62.6053 78.5Z" fill="#00D2A0"/>
<path opacity="0.5" d="M48.8053 67.1C49.8546 67.1 50.7053 66.2493 50.7053 65.2C50.7053 64.1506 49.8546 63.3 48.8053 63.3C47.7559 63.3 46.9053 64.1506 46.9053 65.2C46.9053 66.2493 47.7559 67.1 48.8053 67.1Z" fill="#00D2A0"/>
<path d="M50.9054 74.8C51.9547 74.8 52.8054 73.9493 52.8054 72.9C52.8054 71.8507 51.9547 71 50.9054 71C49.856 71 49.0054 71.8507 49.0054 72.9C49.0054 73.9493 49.856 74.8 50.9054 74.8Z" fill="#00D2A0"/>
<path opacity="0.5" d="M36.4054 20.7C37.4547 20.7 38.3054 19.8493 38.3054 18.8C38.3054 17.7506 37.4547 16.9 36.4054 16.9C35.356 16.9 34.5054 17.7506 34.5054 18.8C34.5054 19.8493 35.356 20.7 36.4054 20.7Z" fill="#00D2A0"/>
<path opacity="0.5" d="M34.3053 13C35.3546 13 36.2053 12.1493 36.2053 11.1C36.2053 10.0506 35.3546 9.19995 34.3053 9.19995C33.2559 9.19995 32.4053 10.0506 32.4053 11.1C32.4053 12.1493 33.2559 13 34.3053 13Z" fill="#00D2A0"/>
<path d="M32.2054 5.3C33.2548 5.3 34.1054 4.44934 34.1054 3.4C34.1054 2.35066 33.2548 1.5 32.2054 1.5C31.1561 1.5 30.3054 2.35066 30.3054 3.4C30.3054 4.44934 31.1561 5.3 32.2054 5.3Z" fill="#00D2A0"/>
<path opacity="0.2" d="M52.9054 82.5C53.9547 82.5 54.8054 81.6493 54.8054 80.6C54.8054 79.5506 53.9547 78.7 52.9054 78.7C51.856 78.7 51.0054 79.5506 51.0054 80.6C51.0054 81.6493 51.856 82.5 52.9054 82.5Z" fill="#00D2A0"/>
</svg>
