<?xml version="1.0" encoding="UTF-8"?>
<svg width="69px" height="40px" viewBox="0 0 69 40" version="1.1"
  xmlns="http://www.w3.org/2000/svg"
  xmlns:xlink="http://www.w3.org/1999/xlink">
  <!-- Generator: Sketch 51.2 (57519) - http://www.bohemiancoding.com/sketch -->
  <title>ixo logo</title>
  <desc>Created with Sketch.</desc>
  <defs></defs>
  <g id="Symbols" stroke="none" stroke-width="1" fill="#00D2FF" fill-rule="evenodd">
    <g id="Header-Singed-In-Final" transform="translate(-27.000000, -14.000000)" fill="#00D2FF">
      <g id="ixo-logo" transform="translate(27.000000, 14.000000)" fill="#00D2FF">
        <path d="M55,30.9496176 C52.266717,30.9496176 50.0502559,28.733517 50.0502559,25.9998042 C50.0502559,23.2660915 52.266717,21.0499909 55,21.0499909 C57.7336745,21.0499909 59.9497441,23.2660915 59.9497441,25.9998042 C59.9497441,28.733517 57.7336745,30.9496176 55,30.9496176 M55,12 C47.2680314,12 41,18.2677275 41,25.9998042 C41,33.7318809 47.2680314,40 55,40 C62.7319686,40 69,33.7318809 69,25.9998042 C69,18.2677275 62.7319686,12 55,12" id="Fill-2"></path>
        <polygon id="Fill-4" points="0 12 0 40 10 40 10 12 9.97785161 12"></polygon>
        <polygon id="Fill-6" points="26.0001958 18.9999021 19.0002937 12 12 12 12 18.9999021 19.0002937 25.9998042 12 32.9997063 12 40 19.0002937 40 26.0001958 32.9997063 33.0000979 40 33.0000979 39.9996085 33.0000979 40 40 40 40 32.9997063 33.0000979 25.9998042 40 18.9999021 40 12 33.0000979 12"></polygon>
        <path d="M5,10 C2.23856985,10 0,7.76143015 0,5 C0,2.23856985 2.23856985,0 5,0 C7.76143015,0 10,2.23856985 10,5 C10,7.76143015 7.76143015,10 5,10" id="Fill-8"></path>
      </g>
    </g>
  </g>
</svg>