<svg xmlns="http://www.w3.org/2000/svg" xmlns:xlink="http://www.w3.org/1999/xlink" version="1.1" x="0px" y="0px" viewBox="0 0 47 58.75" enable-background="new 0 0 47 47" xml:space="preserve"><path d="M14.807,16.171c2.141,0,3.875-1.736,3.875-3.875c0-2.1-1.669-3.805-3.752-3.869c-0.02-0.033-0.039-0.066-0.058-0.096  c-0.055-0.086-0.152-0.225-0.132-0.336c0.033-0.123,0.174-0.146,0.287-0.184c0.134-0.043,0.279-0.113,0.392-0.197  c0.323-0.242,0.465-0.83,0.115-1.113c-0.232-0.188-0.504-0.262-0.798-0.287c-0.072-0.006-0.171-0.016-0.261-0.006  c-0.115,0.014-0.216,0.063-0.224,0.199c-0.007,0.117,0.082,0.217,0.199,0.225c0.138,0.008,0.731,0.152,0.643,0.365  c-0.045,0.109-0.205,0.133-0.304,0.158c-0.149,0.035-0.292,0.08-0.422,0.166c-0.408,0.264-0.388,0.754-0.236,1.162  c-1.817,0.32-3.2,1.902-3.2,3.813C10.932,14.435,12.667,16.171,14.807,16.171z"/><path d="M43.286,14.026c-0.408-0.672-1.285-0.887-1.958-0.479l-6.834,4.145c-0.626-0.408-1.373-0.646-2.177-0.646h-0.25  c-1.967,0-3.104,1.279-3.258,1.48l-5.31,6.961l-5.31-6.961c-0.154-0.201-1.152-1.48-3.259-1.48h-0.25  c-0.803,0-1.55,0.238-2.177,0.646l-6.834-4.145c-0.673-0.408-1.549-0.193-1.957,0.479c-0.408,0.674-0.193,1.551,0.479,1.959  l6.63,4.021c-0.089,0.332-0.142,0.678-0.142,1.039v6.5c0,0.379-2.443,11.059-2.443,11.059c-0.243,0.934,0.316,1.891,1.252,2.135  c0.148,0.037,0.297,0.057,0.443,0.057c0.777,0,1.486-0.521,1.691-1.309l2.104-8.061c0.306,0.074,0.624,0.119,0.953,0.119h0.25  c0.33,0,0.648-0.045,0.954-0.119l2.103,8.061c0.206,0.787,0.916,1.309,1.692,1.309c0.146,0,0.295-0.02,0.443-0.057  c0.935-0.244,1.495-1.201,1.251-2.135c0,0-2.443-10.68-2.443-11.059v-3.348l2.617,3.432c0.281,0.367,0.705,0.561,1.135,0.561  c0.283,0,0.568-0.088,0.816-0.262c0.248,0.174,0.532,0.262,0.816,0.262c0.43,0,0.854-0.193,1.134-0.561l2.617-3.432v1.697  l-1.875,4.875c0,0,0.63,0.842,1.953,1.553l-0.571,6.57c-0.084,0.963,0.629,1.811,1.592,1.895c0.051,0.006,0.103,0.008,0.153,0.008  c0.897,0,1.662-0.688,1.741-1.6l0.516-5.924c0.201,0.012,0.403,0.023,0.616,0.023s0.415-0.012,0.616-0.023l0.516,5.924  c0.079,0.912,0.844,1.6,1.741,1.6c0.051,0,0.103-0.002,0.153-0.008c0.963-0.084,1.676-0.932,1.592-1.895l-0.571-6.57  c1.323-0.711,1.953-1.553,1.953-1.553l-1.875-4.875v-4.85c0-0.361-0.052-0.707-0.142-1.039l6.631-4.021  C43.479,15.577,43.694,14.7,43.286,14.026z"/><path d="M26.725,13.854c0,0,0.645-1.049,1.502-1.613c-0.029,2.123,1.654,3.877,3.779,3.928c2.141,0.051,3.916-1.641,3.968-3.781  c0.002-0.088-0.003-0.172-0.007-0.26c0.951,0.521,1.693,1.727,1.693,1.727c0.833-0.334,1-1.559,1-1.559  c-0.843-1.027-2.049-1.219-2.883-1.211c-0.498-1.514-1.9-2.623-3.585-2.664c-1.75-0.041-3.255,1.084-3.774,2.666  c-0.819,0.021-1.913,0.258-2.693,1.209C25.725,12.296,25.892,13.521,26.725,13.854z"/><text x="0" y="62" fill="#000000" font-size="5px" font-weight="bold" font-family="'Helvetica Neue', Helvetica, Arial-Unicode, Arial, Sans-serif">Created by Thak Ka</text><text x="0" y="67" fill="#000000" font-size="5px" font-weight="bold" font-family="'Helvetica Neue', Helvetica, Arial-Unicode, Arial, Sans-serif">from the Noun Project</text></svg>