<svg viewBox="0 0 512 512" xmlns="http://www.w3.org/2000/svg"><path fill="#fff" d="m256 0c-140.949219 0-256 115.03125-256 256 0 140.949219 115.03125 256 256 256 140.949219 0 256-115.027344 256-256 0-140.949219-115.03125-256-256-256zm0 482c-124.617188 0-226-101.382812-226-226s101.382812-226 226-226 226 101.382812 226 226-101.382812 226-226 226zm0 0"/><path fill="#fff" d="m256 151c-57.898438 0-105 47.101562-105 105s47.101562 105 105 105 105-47.101562 105-105-47.101562-105-105-105zm0 180c-41.355469 0-75-33.644531-75-75s33.644531-75 75-75 75 33.644531 75 75-33.644531 75-75 75zm0 0"/></svg>