<svg xmlns="http://www.w3.org/2000/svg" xmlns:xlink="http://www.w3.org/1999/xlink" version="1.1" x="0px" y="0px" viewBox="0 0 95 118.75" enable-background="new 0 0 95 95" xml:space="preserve"><path d="M92.3,3.8H26.7c-0.9,0-1.7,0.8-1.7,1.7v37.1c0,0.9,0.8,1.7,1.7,1.7h0c0.9,0,1.7-0.8,1.7-1.7V7.2h62.2v38.6H45.9  c-0.9,0-1.7,0.8-1.7,1.7v0c0,0.9,0.8,1.7,1.7,1.7h46.4c0.9,0,1.7-0.8,1.7-1.7v-42C94,4.6,93.3,3.8,92.3,3.8z"/><circle cx="11.2" cy="32.9" r="9.1"/><circle cx="79" cy="60.7" r="8.1"/><circle cx="48.8" cy="60.7" r="8.1"/><path d="M42.8,41.7l11.7-15.1c0.4-0.5,0.3-1.2-0.2-1.6c-0.5-0.4-1.2-0.3-1.6,0.2L41.1,40.4C40,40,38.7,40.2,37.8,41L30,47.7  l-15.9-3.2c-0.2,0-0.5-0.1-0.7-0.1c-0.7-0.1-1.4-0.2-2.2-0.2h-0.2c-5.2,0-9.5,3.6-9.5,8.1v25.7h19.1V52.8l9.5,1.9  c0.2,0,0.4,0.1,0.7,0.1c0.8,0,1.6-0.3,2.2-0.8l9-7.8C43.5,45,43.8,43.1,42.8,41.7z"/><path d="M79.1,70.5h-0.2c-5.7,0-10.2,3.2-10.2,7.2v0.4h20.7v-0.4C89.4,73.7,84.8,70.5,79.1,70.5z"/><path d="M48.9,70.5h-0.2c-5.7,0-10.2,3.2-10.2,7.2v0.4h20.7v-0.4C59.1,73.7,54.5,70.5,48.9,70.5z"/><path d="M82.4,12.7h-41c-0.9,0-1.7,0.8-1.7,1.7c0,0.9,0.8,1.7,1.7,1.7h41c0.9,0,1.7-0.8,1.7-1.7C84.1,13.5,83.4,12.7,82.4,12.7z"/><path d="M82.4,24.8H61.6c-0.9,0-1.7,0.8-1.7,1.7c0,0.9,0.8,1.7,1.7,1.7h20.9c0.9,0,1.7-0.8,1.7-1.7C84.1,25.5,83.4,24.8,82.4,24.8z"/><path d="M82.4,37.6H56.7c-0.9,0-1.7,0.8-1.7,1.7c0,0.9,0.8,1.7,1.7,1.7h25.8c0.9,0,1.7-0.8,1.7-1.7C84.1,38.3,83.4,37.6,82.4,37.6z"/><text x="0" y="110" fill="#000000" font-size="5px" font-weight="bold" font-family="'Helvetica Neue', Helvetica, Arial-Unicode, Arial, Sans-serif">Created by DPIcons</text><text x="0" y="115" fill="#000000" font-size="5px" font-weight="bold" font-family="'Helvetica Neue', Helvetica, Arial-Unicode, Arial, Sans-serif">from the Noun Project</text></svg>