<svg xmlns="http://www.w3.org/2000/svg" viewBox="0 0 95 118.75"><g fill="#fff"><path d="M92.3 3.8H26.7c-.9 0-1.7.8-1.7 1.7v37.1c0 .9.8 1.7 1.7 1.7.9 0 1.7-.8 1.7-1.7V7.2h62.2v38.6H45.9c-.9 0-1.7.8-1.7 1.7 0 .9.8 1.7 1.7 1.7h46.4c.9 0 1.7-.8 1.7-1.7v-42c0-.9-.7-1.7-1.7-1.7z"/><circle cx="11.2" cy="32.9" r="9.1"/><circle cx="79" cy="60.7" r="8.1"/><circle cx="48.8" cy="60.7" r="8.1"/><path d="M42.8 41.7l11.7-15.1c.4-.5.3-1.2-.2-1.6-.5-.4-1.2-.3-1.6.2L41.1 40.4c-1.1-.4-2.4-.2-3.3.6L30 47.7l-15.9-3.2c-.2 0-.5-.1-.7-.1-.7-.1-1.4-.2-2.2-.2H11c-5.2 0-9.5 3.6-9.5 8.1V78h19.1V52.8l9.5 1.9c.2 0 .4.1.7.1.8 0 1.6-.3 2.2-.8l9-7.8c1.5-1.2 1.8-3.1.8-4.5zm36.3 28.8h-.2c-5.7 0-10.2 3.2-10.2 7.2v.4h20.7v-.4c0-4-4.6-7.2-10.3-7.2zm-30.2 0h-.2c-5.7 0-10.2 3.2-10.2 7.2v.4h20.7v-.4c-.1-4-4.7-7.2-10.3-7.2zm33.5-57.8h-41c-.9 0-1.7.8-1.7 1.7 0 .9.8 1.7 1.7 1.7h41c.9 0 1.7-.8 1.7-1.7 0-.9-.7-1.7-1.7-1.7zm0 12.1H61.6c-.9 0-1.7.8-1.7 1.7 0 .9.8 1.7 1.7 1.7h20.9c.9 0 1.7-.8 1.7-1.7-.1-1-.8-1.7-1.8-1.7zm0 12.8H56.7c-.9 0-1.7.8-1.7 1.7 0 .9.8 1.7 1.7 1.7h25.8c.9 0 1.7-.8 1.7-1.7-.1-1-.8-1.7-1.8-1.7z"/></g></svg>