<svg xmlns="http://www.w3.org/2000/svg" viewBox="0 0 265.131 284.045"><g fill="#fff"><ellipse transform="rotate(-76.891 76.91 23.495)" cx="76.906" cy="23.494" rx="23.489" ry="23.49"/><path d="M265.129 120.815c-.001-6.552-3.605-12.252-8.934-15.252-3.452-19.341-13.873-32.055-23.713-39.334-10.872-8.126-20.861-10.329-21.545-10.5a7.959 7.959 0 00-3.726.076 7.278 7.278 0 00-.535-.045 23.475 23.475 0 01-17.839 8.15c-1.799 0-3.609-.209-5.375-.621a23.42 23.42 0 01-12.893-8.04c-.043.003-.084 0-.126.004v-.002c-.787.097-11.008.943-22.026 8.381-4.516 3.064-9.119 7.328-13.008 13.015a49.566 49.566 0 00-1.33 2.052c-3.635-9.556-8.162-16.883-12.721-22.375-.014-.017-.025-.035-.039-.052a62.243 62.243 0 00-4.348-4.715c-7.731-7.583-14.455-10.078-15.299-10.363a8.016 8.016 0 00-1.744-.382 8.034 8.034 0 00-2.852-.528h-.971a25.347 25.347 0 01-19.18 8.707c-1.941 0-3.895-.226-5.803-.671-5.272-1.228-9.909-4.033-13.398-8.036h-.992c-.998 0-1.949.189-2.832.521-4.195.673-11.589 2.557-19.291 7.951-5.608 3.948-11.266 9.859-15.454 18.216-3.025 6.017-5.282 13.252-6.427 21.855C5.301 91.581.001 98.707 0 107.095v113.498a5 5 0 1010 0V107.094a9.475 9.475 0 012.066-5.896 8.003 8.003 0 007.851 6.468c3.566 0 6.604-2.346 7.626-5.603a9.468 9.468 0 011.458 5.03H29a5 5 0 1010 0c-.003-7.433-4.159-13.888-10.273-17.179.965-6.544 2.68-11.685 4.725-15.758 4.329-8.541 10.147-12.734 15.212-15.114v60.726c0 .044.006.086.007.129-2.492 12.963-6.428 41.723-6.434 94.268 0 7.18 5.819 12.998 13.001 12.998 7.18 0 12.999-5.818 12.999-12.998 0-36.29 1.934-60.507 3.814-75.439.559-4.428 1.108-8.02 1.603-10.889h6.501c2.16 12.549 5.421 39.298 5.416 86.328 0 7.18 5.819 12.998 13.001 12.998 7.18 0 12.999-5.818 12.999-12.998-.006-52.534-3.94-81.293-6.432-94.259.001-.047.007-.091.007-.138V62.369l.067.063a46.132 46.132 0 013.789 4.057l.018.019c6.084 7.374 12.844 19.703 15.62 40.601a7.96 7.96 0 00.637 2.234c-.012.229-.037.445-.048.676a7.964 7.964 0 00.605 3.415c1.151 2.779 3.821 4.795 7.024 4.939.123.006.246.009.367.009 4.117 0 7.56-3.143 7.95-7.237.013-.134.032-.266.038-.401.143-3.085.462-5.899.924-8.474 1.028-5.742 2.765-10.288 4.821-13.962 4.115-7.304 9.677-11.419 14.657-13.883-4.052 20.349-11.985 63.09-11.621 84.078.095 5.497.756 9.511 2.209 11.227 4.264 5.033 20.34 8.92 36.611 9.836 16.272-.916 32.35-4.803 36.613-9.836 1.453-1.716 2.113-5.729 2.209-11.226.361-20.869-7.481-63.251-11.554-83.736a47.478 47.478 0 017.554 4.842c6.542 5.214 13.104 12.917 16.129 25.588-5.711 2.881-9.636 8.783-9.639 15.618a4.488 4.488 0 008.976 0h-.002a8.504 8.504 0 012.361-5.872 8.006 8.006 0 008.397 5.581 7.972 7.972 0 005.581-3.105 8.525 8.525 0 01.713 3.396v101.859a4.488 4.488 0 004.486 4.488 4.491 4.491 0 004.488-4.488l.003-101.86z"/><path d="M159.379 215.735c0 6.352 5.149 11.501 11.501 11.501 6.353 0 11.501-5.149 11.501-11.501-.001-12.787.261-23.941.68-33.619-8.669-.86-16.88-2.522-22.807-4.701-.534 10.877-.873 23.578-.875 38.32zm35.873 0c0 6.352 5.149 11.501 11.501 11.501 6.351 0 11.501-5.149 11.501-11.501-.002-14.742-.341-27.442-.875-38.319-5.928 2.178-14.138 3.84-22.807 4.7.42 9.676.681 20.834.68 33.619zm-1.078-198.438a23.53 23.53 0 016.558 2.608c-.463-6.183-5.614-11.058-11.915-11.058-6.294 0-11.442 4.865-11.914 11.039a23.55 23.55 0 0111.895-3.211c1.8.001 3.608.208 5.376.622z"/><circle transform="rotate(-76.891 188.829 40.292)" cx="188.817" cy="40.293" r="21.613"/></g></svg>