<svg xmlns="http://www.w3.org/2000/svg" xmlns:xlink="http://www.w3.org/1999/xlink" version="1.1" x="0px" y="0px" viewBox="0 0 100 125" style="enable-background:new 0 0 100 100;" xml:space="preserve"><g><path d="M88.1708984,68.1054688c-1.1611328-0.8632813-2.6171875-1.1191406-3.9990234-0.703125l-2.1793213,0.6542358   c-0.0198364-1.0524292-0.512207-2.0088501-1.3695068-2.6298218c-0.8720703-0.6308594-1.9550781-0.8007813-2.9794922-0.4648438   l-21.2871094,7.0957031L60.9375,67.4765625C61.8671875,66.546875,62.3798828,65.3115234,62.3798828,64   s-0.5126953-2.546875-1.4423828-3.4765625c-1.6289063-1.6289063-4.2070313-1.9052734-6.1289063-0.6542969l-11.0068359,7.0732422   C43.3925781,66.9814453,42.9628906,67,42.4902344,67H34v-2c0-0.5527344-0.4472656-1-1-1H11c-0.5527344,0-1,0.4472656-1,1v24   c0,0.5527344,0.4472656,1,1,1h22c0.5527344,0,1-0.4472656,1-1v-2.914917l21.5458984,1.7537842   c0.2285156,0.0078125,0.4570313,0.0126953,0.6855469,0.0126953c2.8154297,0,5.6416016-0.5966797,8.2167969-1.7382813   l22.9355469-10.2568359C88.9726563,75.1123047,90,73.5009766,90,71.75v-0.0097656   C90,70.2939453,89.3330078,68.96875,88.1708984,68.1054688z M19,88h-7V66h7V88z M32,68v17v3H21V66h11V68z M78.2724609,66.8603516   c0.4023438-0.1337891,0.8310547-0.0644531,1.1777344,0.1865234C79.7998047,67.2998047,80,67.6914063,80,68.1201172   c0,0.2034912-0.0458374,0.3981934-0.1332397,0.574585l-18.9517212,5.6890869   c-0.0693359,0.0224609-0.1396484,0.0400391-0.2490234,0.0673828c-0.0292969,0.0039063-0.0576172,0.0097656-0.0869141,0.015625   c-0.8828125,0.2109375-1.9736328,0.078125-2.7861328-0.3115234l-0.3457031-0.1904297   c-0.0547485-0.0331421-0.0977173-0.0773926-0.149353-0.1136475L78.2724609,66.8603516z M88,71.75   c0,0.9775391-0.5742188,1.8789063-1.4482422,2.2871094L63.6347656,84.2861328   c-2.5068359,1.1123047-5.2841797,1.6484375-7.9736328,1.5566406L34,84.078125V69h8.4902344   c0.4316406,0,0.8339844-0.0136719,1.2197266-0.0429688c0.2724609,0.0820313,0.5703125,0.0458984,0.8144531-0.1054688   l11.3701172-7.3027344c1.1386719-0.7402344,2.6621094-0.5751953,3.6289063,0.3886719   c0.5527344,0.5527344,0.8564453,1.2851563,0.8564453,2.0625s-0.3037109,1.5097656-0.8564453,2.0625l-5.0605469,5.0605469   c-0.1972656,0.1972656-0.3027344,0.4667969-0.2919922,0.7460938c0.0273438,0.7119141,0.2050781,1.3769531,0.5136719,1.9453125   c0.0771484,0.1572266,0.1689453,0.3134766,0.2636719,0.4560547c0.3574219,0.5566406,0.8632813,1.0419922,1.4980469,1.4248047   l0.4267578,0.234375c0.2959595,0.1436157,0.6063232,0.2550659,0.9216309,0.3513184   c0.0541992,0.0162964,0.1074829,0.0321045,0.1621704,0.0469971c0.5548706,0.1536865,1.1280518,0.2423096,1.7033081,0.2423096   c0.0846558,0,0.1665039-0.010376,0.2503662-0.0137329c0.0557861-0.0020142,0.1102295-0.0056152,0.1657104-0.0090942   c0.3204346-0.0212402,0.6362305-0.0579834,0.9384155-0.1275635c0.0488281-0.0087891,0.0957031-0.0185547,0.1289063-0.0273438   c0.1162109-0.0283203,0.2382813-0.0595703,0.3535156-0.0947266l19.2900391-5.7900391   c0.0026245-0.0007935,0.0046997-0.0026855,0.0073242-0.003479l3.9536133-1.1869507   c0.7734375-0.2285156,1.5839844-0.0878906,2.2294922,0.3925781C87.6269531,70.1933594,88,70.9326172,88,71.7402344V71.75z"/><path d="M26,76c2.2060547,0,4-1.7939453,4-4s-1.7939453-4-4-4s-4,1.7939453-4,4S23.7939453,76,26,76z M26,70   c1.1025391,0,2,0.8974609,2,2s-0.8974609,2-2,2s-2-0.8974609-2-2S24.8974609,70,26,70z"/><path d="M77.8099976,10H49.1900024C47.9799805,10,47,10.9799805,47,12.1900024v13.2600098   C45.8800049,25.1599731,44.710022,25,43.5,25c-8,0-14.5,6.5-14.5,14.5S35.5,54,43.5,54   c1.210022,0,2.3800049-0.1600342,3.5-0.4500122v2.7600098C47,57.5199585,47.9799805,58.5,49.1900024,58.5h28.6199951   C79.0200195,58.5,80,57.5199585,80,56.3099976V12.1900024C80,10.9799805,79.0200195,10,77.8099976,10z M48.2399902,51.0599976   C46.7800293,51.6599731,45.1799927,52,43.5,52C36.6099854,52,31,46.3900146,31,39.5S36.6099854,27,43.5,27   c1.6799927,0,3.2800293,0.3399658,4.7399902,0.9400024C48.289978,27.9599609,48.3499756,27.9799805,48.4000244,28   c1.0599976,0.4599609,2.039978,1.0499878,2.9199829,1.7600098c0.0899658,0.0799561,0.1799927,0.1499634,0.2700195,0.2299805   c0.2299805,0.1900024,0.4499512,0.3900146,0.6699829,0.5999756c0.0899658,0.1000366,0.1900024,0.2000122,0.2799683,0.3099976   c0.1799927,0.1799927,0.3500366,0.3600464,0.5100098,0.5500488c0.2999878,0.3599854,0.5800171,0.7299805,0.8400269,1.1099854   c0.0899658,0.1300049,0.1599731,0.2600098,0.2399902,0.3999634c0.1799927,0.2900391,0.3499756,0.5800171,0.5,0.8900146   c0.1300049,0.25,0.2600098,0.5,0.3699951,0.75c0.0100098,0.0200195,0.0200195,0.0400391,0.0200195,0.0599976   C55.1699829,35,55.289978,35.3399658,55.4000244,35.6900024c0.0499878,0.1499634,0.0899658,0.2999878,0.1300049,0.4500122   c0.0599976,0.2199707,0.1199951,0.4299927,0.1699829,0.6499634c0.0299683,0.1500244,0.0599976,0.2999878,0.0800171,0.4500122   c0.0499878,0.2399902,0.0899658,0.4899902,0.1199951,0.7299805c0.0099487,0.1300049,0.0299683,0.2600098,0.039978,0.3900146   C55.9799805,38.7299805,56,39.1099854,56,39.5s-0.0200195,0.7600098-0.0599976,1.1400146   c-0.0100098,0.1299438-0.0300293,0.2599487-0.039978,0.3899536C55.8699951,41.2699585,55.8300171,41.5100098,55.789978,41.75   c-0.0299683,0.1599731-0.0599976,0.3099976-0.0999756,0.4699707c-0.039978,0.210022-0.0999756,0.4100342-0.1599731,0.6199951   C55.4899902,43,55.4500122,43.1599731,55.4000244,43.3099976c-0.0200195,0.0700073-0.0500488,0.1400146-0.0700073,0.2099609   c-0.1100464,0.3000488-0.2200317,0.6000366-0.3400269,0.9000244c-0.1099854,0.25-0.2299805,0.4899902-0.3499756,0.7299805   c-0.0700073,0.1199951-0.1199951,0.25-0.1900024,0.3699951C53.1099854,47.9500122,50.9799805,49.8900146,48.4000244,51   C48.3499756,51.0199585,48.289978,51.039978,48.2399902,51.0599976z M52.5800171,28.1900024v-1.2900391h2.7699585v2.7700195   h-1.1900024c-0.2399902-0.2700195-0.5-0.5299683-0.7599487-0.7700195c-0.0200195-0.0199585-0.0300293-0.0299683-0.0400391-0.039978   C53.1099854,28.6300049,52.8499756,28.3999634,52.5800171,28.1900024z M55.3499756,50.1499634v2.7700195h-2.7699585v-2.1099854   c0.0599976-0.0499878,0.1099854-0.1000366,0.1699829-0.1500244c0.1400146-0.1099854,0.2700195-0.2199707,0.3900146-0.3300171   c0.0700073-0.0599976,0.1400146-0.1199951,0.2099609-0.1799927H55.3499756z M78,56.3099976   C78,56.4199829,77.9199829,56.5,77.8099976,56.5H49.1900024C49.0800171,56.5,49,56.4199829,49,56.3099976v-3.3900146   c0.0300293-0.0100098,0.0499878-0.0299683,0.0800171-0.039978c0.4799805-0.2000122,0.9500122-0.4299927,1.4099731-0.6799927   c0.0300293-0.0200195,0.0599976-0.0300293,0.0900269-0.0500488v1.7700195c0,0.5499878,0.4500122,1,1,1h4.7699585   c0.5500488,0,1-0.4500122,1-1v-4.7700195c0-0.5499878-0.4499512-1-1-1h-1.2199707   c0.2399902-0.3200073,0.460022-0.6499634,0.6699829-0.9799805h0.5499878c0.5500488,0,1-0.4500122,1-1v-2.3699951   c0.0400391-0.1400146,0.0700073-0.2800293,0.1100464-0.4099731c0.0599976-0.25,0.1300049-0.5,0.1900024-0.7400513   c0.039978-0.1799927,0.0699463-0.3599854,0.0999756-0.539978c0.0499878-0.2700195,0.0900269-0.5499878,0.1300049-0.8300171   c0.0200195-0.1499634,0.039978-0.2999878,0.0499878-0.4599609C57.9699707,40.3800049,58,39.9400024,58,39.5   s-0.0300293-0.8900146-0.0700073-1.3300171c-0.0100098-0.1400146-0.0299683-0.289978-0.0499878-0.4400024   c-0.0300293-0.289978-0.0800171-0.5700073-0.1300049-0.8599854c-0.0300293-0.1699829-0.0599976-0.3300171-0.0999756-0.5   c-0.0599976-0.2700195-0.1300049-0.5300293-0.2000122-0.7999878c-0.0400391-0.1199951-0.0599976-0.25-0.1000366-0.3699951   v-1.5500488c0-0.5499878-0.4499512-1-1-1h-0.0799561v-0.0099487c-0.0100098-0.0200195-0.0200195-0.0500488-0.0400391-0.0700073   c-0.1599731-0.3000488-0.3399658-0.6100464-0.5299683-0.9000244h0.6499634c0.5500488,0,1-0.4500122,1-1v-4.7700195   c0-0.5499878-0.4499512-1-1-1h-4.7699585c-0.5499878,0-1,0.4500122-1,1v0.9500122   c-0.0300293-0.0200195-0.0599976-0.0299683-0.1000366-0.0499878c-0.4499512-0.25-0.9199829-0.4799805-1.3999634-0.6799927   C49.0499878,26.1099854,49.0300293,26.0899658,49,26.0799561V12.1900024C49,12.0799561,49.0800171,12,49.1900024,12h28.6199951   C77.9199829,12,78,12.0799561,78,12.1900024V56.3099976z"/><path d="M76.0200195,14.1699829H50.9799805c-0.5499878,0-1,0.4500122-1,1v7.1599731c0,0.5500488,0.4500122,1,1,1h25.0400391   c0.5499878,0,1-0.4499512,1-1v-7.1599731C77.0200195,14.6199951,76.5700073,14.1699829,76.0200195,14.1699829z    M75.0200195,21.3299561H51.9799805v-1.3899536h2.7900391c0.5499878,0,1-0.4400024,1-1c0-0.5499878-0.4500122-1-1-1h-2.7900391   v-1.7700195h23.0400391V21.3299561z"/><path d="M65.8847656,24.9042969h-4.7695313c-0.5527344,0-1,0.4472656-1,1v4.7685547c0,0.5527344,0.4472656,1,1,1h4.7695313   c0.5527344,0,1-0.4472656,1-1v-4.7685547C66.8847656,25.3515625,66.4375,24.9042969,65.8847656,24.9042969z M64.8847656,29.6728516   h-2.7695313v-2.7685547h2.7695313V29.6728516z"/><path d="M75.4228516,24.9042969h-4.7685547c-0.5527344,0-1,0.4472656-1,1v4.7685547c0,0.5527344,0.4472656,1,1,1h4.7685547   c0.5527344,0,1-0.4472656,1-1v-4.7685547C76.4228516,25.3515625,75.9755859,24.9042969,75.4228516,24.9042969z    M74.4228516,29.6728516h-2.7685547v-2.7685547h2.7685547V29.6728516z"/><path d="M65.8847656,32.6542969h-4.7695313c-0.5527344,0-1,0.4472656-1,1v4.7685547c0,0.5527344,0.4472656,1,1,1h4.7695313   c0.5527344,0,1-0.4472656,1-1v-4.7685547C66.8847656,33.1015625,66.4375,32.6542969,65.8847656,32.6542969z M64.8847656,37.4228516   h-2.7695313v-2.7685547h2.7695313V37.4228516z"/><path d="M75.4228516,32.6542969h-4.7685547c-0.5527344,0-1,0.4472656-1,1v4.7685547c0,0.5527344,0.4472656,1,1,1h4.7685547   c0.5527344,0,1-0.4472656,1-1v-4.7685547C76.4228516,33.1015625,75.9755859,32.6542969,75.4228516,32.6542969z    M74.4228516,37.4228516h-2.7685547v-2.7685547h2.7685547V37.4228516z"/><path d="M65.8847656,40.4042969h-4.7695313c-0.5527344,0-1,0.4472656-1,1v4.7685547c0,0.5527344,0.4472656,1,1,1h4.7695313   c0.5527344,0,1-0.4472656,1-1v-4.7685547C66.8847656,40.8515625,66.4375,40.4042969,65.8847656,40.4042969z M64.8847656,45.1728516   h-2.7695313v-2.7685547h2.7695313V45.1728516z"/><path d="M75.4228516,40.4042969h-4.7685547c-0.5527344,0-1,0.4472656-1,1v12.5185547c0,0.5527344,0.4472656,1,1,1h4.7685547   c0.5527344,0,1-0.4472656,1-1V41.4042969C76.4228516,40.8515625,75.9755859,40.4042969,75.4228516,40.4042969z    M74.4228516,52.9228516h-2.7685547V42.4042969h2.7685547V52.9228516z"/><path d="M65.8847656,48.1542969h-4.7695313c-0.5527344,0-1,0.4472656-1,1v4.7685547c0,0.5527344,0.4472656,1,1,1h4.7695313   c0.5527344,0,1-0.4472656,1-1v-4.7685547C66.8847656,48.6015625,66.4375,48.1542969,65.8847656,48.1542969z M64.8847656,52.9228516   h-2.7695313v-2.7685547h2.7695313V52.9228516z"/><path d="M64.0253906,17.9423828h-4.6279297c-0.5527344,0-1,0.4472656-1,1s0.4472656,1,1,1h4.6279297c0.5527344,0,1-0.4472656,1-1   S64.578125,17.9423828,64.0253906,17.9423828z"/><path d="M70.6542969,17.9423828h-2c-0.5527344,0-1,0.4472656-1,1s0.4472656,1,1,1h2c0.5527344,0,1-0.4472656,1-1   S71.2070313,17.9423828,70.6542969,17.9423828z"/><path d="M44.2724609,44H40c-0.5527344,0-1,0.4472656-1,1s0.4472656,1,1,1h3v1c0,0.5527344,0.4472656,1,1,1s1-0.4472656,1-1   v-1.0735474c1.7080688-0.3395386,3-1.8474731,3-3.6539917v-0.7929688C48,39.5644531,46.3066406,38.0058594,44.2236328,38   c-0.0019531,0-0.0039063,0-0.0058594,0H42.5c-0.8271484,0-1.5-0.6728516-1.5-1.5s0.6728516-1.5,1.5-1.5H47   c0.5527344,0,1-0.4472656,1-1s-0.4472656-1-1-1h-2v-1c0-0.5527344-0.4472656-1-1-1s-1,0.4472656-1,1v1h-0.5   c-1.9296875,0-3.5,1.5703125-3.5,3.5s1.5703125,3.5,3.5,3.5h1.7119141C45.1982422,40,46,40.6640625,46,41.4794922v0.7929688   C46,43.2246094,45.2246094,44,44.2724609,44z"/></g><text x="0" y="115" fill="#000000" font-size="5px" font-weight="bold" font-family="'Helvetica Neue', Helvetica, Arial-Unicode, Arial, Sans-serif">Created by Edwin PM</text><text x="0" y="120" fill="#000000" font-size="5px" font-weight="bold" font-family="'Helvetica Neue', Helvetica, Arial-Unicode, Arial, Sans-serif">from the Noun Project</text></svg>