<svg height='100px' width='100px'  fill="#000000" xmlns="http://www.w3.org/2000/svg" xmlns:xlink="http://www.w3.org/1999/xlink" version="1.1" x="0px" y="0px" viewBox="0 0 100 100" enable-background="new 0 0 100 100" xml:space="preserve"><g><path fill="#000000" d="M86.183,46.923V33.71c0-0.001-0.001-0.003-0.001-0.004c0-0.117-0.009-0.233-0.024-0.349   c-0.003-0.022-0.007-0.043-0.011-0.064c-0.016-0.099-0.035-0.196-0.062-0.293c-0.006-0.018-0.01-0.035-0.015-0.051   c-0.032-0.107-0.069-0.213-0.117-0.317c-0.009-0.022-0.02-0.042-0.031-0.064c-0.023-0.051-0.046-0.103-0.074-0.153   c-0.016-0.028-0.034-0.053-0.052-0.081c-0.015-0.028-0.032-0.055-0.051-0.083c-0.056-0.083-0.112-0.165-0.175-0.24   c-0.007-0.009-0.014-0.017-0.021-0.026c-0.075-0.087-0.152-0.167-0.235-0.243c-0.019-0.017-0.037-0.032-0.057-0.048   c-0.07-0.062-0.144-0.119-0.222-0.173c-0.02-0.014-0.038-0.027-0.058-0.04c-0.092-0.061-0.188-0.117-0.288-0.165   c-0.009-0.004-0.015-0.01-0.022-0.013l-17.645-8.475c-1.035,1.509-2.352,2.876-3.888,4.061l14.56,6.993L52.02,48.118   c1.176-8.104,0.342-15.626-0.372-19.852c8.307-2.309,15.473-9.09,16.358-17.743c-11.524-0.822-15.164,1.573-18.078,12.38   C49.928,1.29,29.9,0.235,29.9,0.235c-4.197,14.569,2.963,23.786,14.307,27.782c0,0,0.858,0.21,2.031,0.373   c0.715,3.945,1.807,12.406,0.131,21.087L18.243,33.88l15.205-7.303c-1.493-1.211-2.757-2.604-3.742-4.13l-18.436,8.854   c-0.006,0.002-0.011,0.007-0.018,0.01c-0.102,0.05-0.201,0.107-0.297,0.169c-0.016,0.011-0.031,0.022-0.047,0.033   c-0.08,0.057-0.157,0.117-0.231,0.182c-0.017,0.015-0.035,0.029-0.051,0.044c-0.083,0.076-0.163,0.157-0.237,0.245   c-0.007,0.009-0.013,0.017-0.02,0.026c-0.062,0.075-0.121,0.156-0.175,0.239c-0.018,0.028-0.036,0.057-0.053,0.085   c-0.017,0.027-0.035,0.052-0.05,0.08c-0.026,0.049-0.049,0.1-0.073,0.149c-0.011,0.023-0.023,0.046-0.034,0.07   c-0.045,0.103-0.084,0.208-0.115,0.313c-0.005,0.019-0.01,0.038-0.015,0.057c-0.026,0.095-0.046,0.19-0.062,0.285   c-0.003,0.023-0.007,0.047-0.01,0.071c-0.015,0.114-0.024,0.23-0.024,0.345c0,0.001,0,0.003,0,0.006v13.216   c0,0.004,0,0.009,0,0.013v30.68c0,0.972,0.527,1.865,1.375,2.337l35.542,19.709c0.002,0.001,0.004,0.002,0.006,0.003   c0.092,0.052,0.188,0.097,0.288,0.137c0.018,0.007,0.037,0.014,0.055,0.021c0.078,0.028,0.159,0.055,0.241,0.078   c0.027,0.008,0.054,0.015,0.082,0.021c0.076,0.019,0.154,0.033,0.233,0.045c0.027,0.004,0.053,0.009,0.079,0.012   c0.103,0.012,0.205,0.02,0.311,0.02c0.106,0,0.209-0.008,0.311-0.02c0.026-0.003,0.052-0.008,0.079-0.012   c0.079-0.012,0.158-0.026,0.234-0.045c0.027-0.006,0.054-0.013,0.081-0.021c0.083-0.023,0.163-0.05,0.242-0.078   c0.019-0.007,0.037-0.014,0.055-0.021c0.1-0.04,0.196-0.085,0.289-0.137c0.001-0.001,0.004-0.002,0.006-0.003l35.542-19.709   c0.849-0.472,1.376-1.365,1.376-2.337V46.945C86.183,46.938,86.183,46.931,86.183,46.923z M15.099,38.246l30.199,16.747v7.138   L15.099,45.384V38.246z M50.641,54.992l30.198-16.747v7.138L50.641,62.13V54.992z M15.099,51.492L45.298,68.24v24.553   L15.099,76.047V51.492z M50.641,92.793V68.24l30.198-16.748v24.555L50.641,92.793z"></path><path fill="#000000" d="M45.4,40.574c-2.667-10.629-12.136-8.123-12.136-8.123S33.265,41.203,45.4,40.574z"></path></g></svg>