<svg xmlns="http://www.w3.org/2000/svg" xmlns:xlink="http://www.w3.org/1999/xlink" version="1.1" x="0px" y="0px" viewBox="0 0 100 125" enable-background="new 0 0 100 100" xml:space="preserve"><path fill="#000000" d="M95.8571,65.8103l-9.2005-21.1309c-0.0649-0.1453-0.0989-0.3092-0.0989-0.4699  C86.4247,21.6843,68.101,3.4688,45.5202,3.4688c-22.6674,0-41.0406,18.3515-41.0406,40.988c0,13.8255,6.854,26.0527,17.356,33.4755  c0.4205,0.2937,0.674,0.7729,0.674,1.2892v17.3097h46.2962v-9.519c0-0.8687,0.7049-1.5705,1.5705-1.5705h11.9829  c0.6276,0,1.1501-0.473,1.2119-1.0944c0.2473-2.4423,0.8656-8.6842,1.4777-15.7237c0.0557-0.6276,0.5813-1.1099,1.212-1.1099h8.4801  C95.619,67.5137,96.2065,66.611,95.8571,65.8103z M44.4814,11.2843c12.8857-0.5039,24.5378,6.4892,29.9078,17.319  c1.0326,2.0839,1.8929,4.2623,2.3512,6.3971H58.0535l-1.5213-4.6488c-0.2159-0.6603-0.842-1.0887-1.5394-1.0636  c-0.6938,0.0317-1.2813,0.522-1.4365,1.1989l-2.1351,9.3179l-1.9588-7.4654c-0.1751-0.6675-0.7714-1.1382-1.4613-1.1533  c-0.6784-0.0196-1.3061,0.429-1.5105,1.0881l-1.0331,3.3349l-3.0738-19.5629c-0.1217-0.7726-0.797-1.332-1.5826-1.3049  c-0.7816,0.0281-1.419,0.6355-1.4848,1.4151l-2.3643,28.0563l-2.7634-16.5791c-0.1229-0.7382-0.7572-1.2822-1.5056-1.2916  c-0.0066,0-0.013,0-0.0193,0c-0.7403,0-1.3779,0.5256-1.5177,1.2544l-1.6982,8.8493l-1.0935-7.0859  c-0.1102-0.7149-0.7016-1.2578-1.4232-1.3064c-0.7195-0.0471-1.3806,0.4091-1.5865,1.1029l-1.7327,5.8441h-9.0341  C18.2102,21.7831,30.0563,11.847,44.4814,11.2843z M57.4165,49.867c-5.3546,0.1886-17.1984,3.5893-15.9247,14.2738  c1.1253,9.4478-12.5765,11.5223-14.2274,1.4932C25.221,53.2183,14.1006,61.4697,13.4514,44.834  c-0.0898-2.3028,0.0654-4.558,0.4391-6.7421h10.8753c0.6844,0,1.2873-0.4501,1.4821-1.1065l0.102-0.3442l1.4051,9.1041  c0.1147,0.7433,0.7475,1.2961,1.4996,1.3097c0.0094,0.0003,0.019,0.0003,0.0284,0.0003c0.74,0,1.3779-0.5253,1.5177-1.2544  l1.7565-9.1527l3.3742,20.2452c0.1247,0.7478,0.7717,1.2916,1.5237,1.2916c0.0211,0,0.0423-0.0003,0.0634-0.0012  c0.7789-0.0317,1.4123-0.6382,1.4779-1.4148l2.3238-27.5747l2.1167,13.4713c0.1117,0.7101,0.6983,1.2499,1.4154,1.3018  c0.717,0.0507,1.3755-0.3973,1.5884-1.0845l1.4036-4.5302l2.1834,8.3219c0.1784,0.6805,0.7934,1.1536,1.4948,1.1536  c0.0082,0,0.0163,0,0.0245-0.0003c0.7116-0.0112,1.3236-0.5066,1.4827-1.2001l2.2963-10.0222l0.138,0.4212  c0.208,0.6355,0.8007,1.0651,1.4691,1.0651h20.1629C77.1165,44.2023,72.583,49.3319,57.4165,49.867z"/></svg>