<svg xmlns="http://www.w3.org/2000/svg" xmlns:xlink="http://www.w3.org/1999/xlink" version="1.1" x="0px" y="0px" viewBox="0 0 100 125" enable-background="new 0 0 100 100" xml:space="preserve"><g><circle cx="41.243" cy="12.897" r="7.897"/><path d="M83.061,87.559L68.609,55.71c-0.638-1.406-2.039-2.309-3.582-2.309h-19.82V41.394h20.655c2.173,0,3.935-1.762,3.935-3.935   s-1.762-3.935-3.935-3.935H45.207V29.59c0-2.173-1.762-3.935-3.935-3.935s-3.935,1.762-3.935,3.935v27.746   c0,2.172,1.762,3.934,3.935,3.934h21.22l13.402,29.54c0.659,1.451,2.088,2.31,3.585,2.31c0.544,0,1.097-0.113,1.623-0.353   C83.081,91.87,83.958,89.538,83.061,87.559z"/><path d="M63.84,77.169c-0.76-0.293-1.613,0.084-1.908,0.845c-3.241,8.395-11.465,14.036-20.461,14.036   c-12.094,0-21.933-9.839-21.933-21.933c0-8.326,4.625-15.833,12.071-19.589c0.727-0.368,1.019-1.254,0.652-1.982   c-0.367-0.728-1.255-1.02-1.982-0.653c-8.445,4.261-13.692,12.777-13.692,22.224C16.587,83.837,27.75,95,41.471,95   c10.206,0,19.535-6.399,23.214-15.923C64.978,78.316,64.601,77.463,63.84,77.169z"/></g><text x="0" y="115" fill="#000000" font-size="5px" font-weight="bold" font-family="'Helvetica Neue', Helvetica, Arial-Unicode, Arial, Sans-serif">Created by fauzan akbar</text><text x="0" y="120" fill="#000000" font-size="5px" font-weight="bold" font-family="'Helvetica Neue', Helvetica, Arial-Unicode, Arial, Sans-serif">from the Noun Project</text></svg>