<svg xmlns="http://www.w3.org/2000/svg" viewBox="-24.421 -25.512 1024 1280"><g fill="#fff"><path d="M332.725 136.838a121.669 121.669 0 01-.343 8.345c-.104 1.372-.264 2.738-.424 4.104.735-6.273.157-1.494-.069-.191-.991 5.73-2.599 11.34-4.573 16.803-.427 1.181-2.24 5.557.152-.098a98.9 98.9 0 01-1.638 3.603c-1.119 2.378-2.378 4.687-3.682 6.968-1.298 2.273-2.729 4.467-4.201 6.63-.734 1.08-1.511 2.13-2.287 3.18 3.777-5.111.076-.19-.792.837-3.363 3.982-7.106 7.63-11.042 11.042-.985.854-2.003 1.669-3.02 2.484 4.706-3.769 1.094-.889.073-.155-2.479 1.783-5.071 3.401-7.7 4.95-2.265 1.333-4.606 2.532-6.969 3.682-1.186.578-2.395 1.108-3.603 1.638 5.602-2.458 1.287-.599.098-.151-5.442 2.05-11.093 3.505-16.804 4.573-1.283.24-6.097.893.191.069-1.364.179-2.734.301-4.104.423-2.774.249-5.562.324-8.346.343-2.786.019-5.569-.133-8.345-.343-1.372-.104-2.738-.264-4.104-.423 6.619.775.243-.059-1.142-.318-5.271-.986-10.431-2.503-15.47-4.324-1.181-.427-5.557-2.24.098.151-1.215-.514-2.409-1.076-3.603-1.638-2.773-1.305-5.458-2.792-8.098-4.347-2.254-1.327-4.428-2.786-6.571-4.285-1.019-.712-4.697-3.566.073.155-1.028-.802-2.024-1.643-3.02-2.484-4.314-3.644-8.242-7.727-11.882-12.037-.805-.953-3.605-4.655.05.159a99.097 99.097 0 01-2.287-3.18c-1.5-2.145-2.874-4.375-4.201-6.63-1.333-2.265-2.531-4.606-3.682-6.968a99.682 99.682 0 01-1.638-3.603c2.593 5.911.161.123-.3-1.151-1.826-5.052-3.135-10.278-4.121-15.554-.24-1.283-.893-6.097-.069.191-.179-1.364-.301-2.734-.423-4.104-.29-3.24-.356-6.497-.333-9.748.019-2.777.208-5.551.456-8.316.117-1.306.834-6.135-.076.145.195-1.345.445-2.681.694-4.017 1.067-5.707 2.748-11.285 4.792-16.712 1.671-4.438-1.989 4.462-.088.13a96.266 96.266 0 011.684-3.577c1.149-2.361 2.438-4.652 3.77-6.914 1.327-2.254 2.786-4.428 4.284-6.571.713-1.019 3.566-4.698-.155.073 1.069-1.371 2.199-2.691 3.337-4.004 3.415-3.938 7.205-7.538 11.184-10.898.953-.805 4.654-3.605-.159.05 1.04-.79 2.11-1.539 3.18-2.287 2.503-1.751 5.117-3.337 7.769-4.851 2.284-1.305 4.643-2.473 7.022-3.593 1.148-.541 5.502-2.282-.163.026 1.229-.501 2.478-.952 3.725-1.403 5.479-1.98 11.158-3.361 16.892-4.353 4.813-.833-5.041.574-.167.003 1.37-.16 2.745-.264 4.12-.368 2.784-.211 5.579-.249 8.37-.229 2.778.019 5.551.209 8.316.456 1.306.117 6.135.834-.145-.076 1.792.26 3.569.604 5.344.961 5.249 1.055 10.38 2.64 15.385 4.524 4.438 1.671-4.462-1.989-.13-.088 1.207.529 2.393 1.107 3.577 1.684 2.754 1.341 5.417 2.862 8.034 4.449 2.235 1.356 4.389 2.842 6.511 4.368 3.794 2.729-3.76-3.021-.116-.102 1.017.815 2.002 1.669 2.987 2.522 4.267 3.699 8.142 7.833 11.726 12.19 2.967 3.607-2.879-3.874-.102-.116.776 1.05 1.512 2.131 2.246 3.21 1.473 2.166 2.818 4.415 4.116 6.688 1.305 2.284 2.473 4.643 3.593 7.022.541 1.148 2.281 5.502-.026-.163.501 1.229.952 2.477 1.403 3.725 1.826 5.052 3.135 10.278 4.122 15.553.24 1.284.893 6.097.069-.191.179 1.364.301 2.734.424 4.104.251 2.778.327 5.564.346 8.348.079 11.446 9.493 21 21 21 11.388 0 21.079-9.552 21-21-.362-52.78-34.739-98.944-84.624-115.476-24-7.953-51.61-7.396-75.433.854-24.984 8.654-45.482 24.832-60.84 46.188-14.617 20.326-21.734 46.354-21.221 71.234.554 26.873 10.428 51.999 26.832 73.03 31.212 40.018 88.246 55.732 135.675 37.87 47.373-17.84 79.262-62.926 79.611-113.702.079-11.448-9.612-21-21-21-11.507.002-20.922 9.556-21 21.002z"/><path d="M284.487 265.34l-48.77 96.97h36.266l-48.77-96.97c-3.263-6.488-11.098-10.401-18.133-10.401h-36.487c-16.873 0-33.585.054-49.687 6.057-35.611 13.276-65.508 47.852-65.508 87.114v253.459c0 27.872 17.576 51.671 43.078 61.793 29.115 11.557 66.182-1.814 80.048-30.208 6.091-12.473 7.145-25.645 7.145-39.196V419.076c0-11.447-9.552-21-21-21s-21 9.553-21 21V891.18c0 28.687 20.344 52.711 46.219 62.601 28.816 11.014 61.803-3.499 77.495-28.677 11.64-18.676 9.249-41.296 9.249-62.25v-88.797l-.002-127.034c0-11.447-9.552-21-21-21s-21 9.553-21 21l-.001 138.42v84.941l.001 20.712c.003 22.79 12.083 43.149 30.625 55.813 25.635 17.507 62.446 11.79 83.249-10.372 11.836-12.609 17.842-29.284 17.843-46.467l.003-35.807.014-166.637.015-187.311.007-81.24h-42v178.662c0 1.785-.006 3.569.021 5.354.238 15.804 6.515 29.564 16.093 41.771 19.261 24.545 55.957 28.312 82.164 13.906 20.845-11.459 33.236-34.848 33.236-58.255V355.425c0-24.793-9.332-47.712-25.224-66.479-19.26-22.743-49.044-34.009-78.322-34.009h-47.733c-11.448 0-21 9.553-21 21s9.552 21 21 21h50.082c2.34 0 4.671.117 7.003.294 1.308.1 6.144.806-.118-.101 1.348.195 2.686.458 4.021.721 2.645.52 5.246 1.238 7.823 2.02 1.277.388 2.534.838 3.79 1.289.832.306 1.657.626 2.478.959-2.974-1.276-3.433-1.453-1.376-.532 4.781 2.176 9.278 4.933 13.537 7.996 3.791 2.727-3.745-3.033-.144-.068 1.006.828 1.97 1.704 2.934 2.58 2.249 2.043 4.326 4.265 6.326 6.549.823.94 3.659 4.607-.017-.194.793 1.036 1.534 2.109 2.274 3.182 1.486 2.154 2.809 4.415 4.073 6.704.801 1.451 4.292 9.484 1.785 3.329 1.174 2.88 2.099 5.854 2.921 8.85.716 2.609 1.228 5.27 1.67 7.937-1.12-6.747.091 2.274.167 4.031.05 1.149.049 2.299.049 3.449v245.333c0 1.743-.103 3.474-.262 5.209.517-5.629-.091-.629-.375.559-.359 1.496-.874 2.95-1.386 4.398 1.806-5.104.157-.543-.394.524-.923 1.79-2.05 3.466-3.198 5.115 3.078-4.422.25-.479-.528.378-1.006 1.108-2.117 2.116-3.226 3.119-3.785 3.428 3.701-2.543-.508.356-1.239.854-2.561 1.58-3.877 2.304-1.012.557-5.658 2.313-.519.34-1.432.55-2.915.949-4.393 1.348-1.107.298-6.264 1.046-.551.338-2.045.254-4.113.262-6.169.23-1.338-.021-6.152-.619.119.249-1.333-.185-2.646-.49-3.957-.795-1.294-.302-2.558-.72-3.818-1.137-4.461-1.477 4.399 2.087.169.101-2.355-1.106-4.553-2.521-6.672-4.02 4.82 3.409 1.277.916.256-.001-1.283-1.152-2.445-2.432-3.584-3.723-3.059-3.465 2.787 3.93.146.13-.743-1.069-1.391-2.2-2.038-3.328-.651-1.137-1.201-2.326-1.749-3.514 2.52 5.457.686 1.373.263.073-.58-1.781-1.782-10.343-1.075-3.669-.15-1.414-.188-2.85-.188-4.271V419.073c0-11.447-9.552-21-21-21s-20.999 9.553-21 21l-.007 91.55-.016 189.833-.013 160.889-.002 29.832c0 1.465-.078 2.922-.188 4.382.461-6.076.221-1.657-.067-.211-.261 1.313-.639 2.598-1.016 3.88-.366 1.244-2.152 5.545.255-.073-.688 1.604-1.537 3.133-2.406 4.644-.649 1.129-1.395 2.197-2.138 3.263 3.362-4.819.935-1.26.019-.225-1.158 1.308-7.676 6.64-2.493 2.754-2.086 1.564-4.368 2.846-6.69 4.02-4.178 2.11 4.58-1.709.158-.101-1.671.608-3.401 1.038-5.131 1.44-1.358.315-5.969.737.216.073-1.38.148-2.77.169-4.156.19-1.598.024-3.19-.111-4.78-.252 5.621.495.61-.063-.579-.337-1.504-.348-2.967-.848-4.425-1.347-4.927-1.686 4.06 1.983-.564-.337-1.353-.678-2.632-1.49-3.908-2.301-1.875-1.322-1.67-1.116.613.617a44.453 44.453 0 01-2.259-1.969c-1.138-1.025-2.162-2.166-3.181-3.307-3.498-3.91 2.473 3.625-.467-.777-.885-1.324-1.63-2.735-2.374-4.142-2.516-4.756 1.462 4.176-.398-.903-.558-1.524-.958-3.101-1.356-4.672-.271-1.07-.872-6.374-.286-.859a16.107 16.107 0 01-.113-1.832c-.024-48.071-.002-96.143-.001-144.213l.001-101.563h-42l.002 137.975v84.976l-.001 20.967v2.038c0 .465-.052 1.066-.069 1.398-.216 2.333-.116 1.829.297-1.512-.14.888-.307 1.771-.5 2.648-.356 1.741-3.433 9.793-.808 3.77-1.044 2.396-2.398 4.641-3.841 6.812-2.563 3.859 3.096-3.681.11-.148-.837.99-1.757 1.905-2.675 2.818-.919.915-1.915 1.747-2.908 2.578 4.789-4.006.174-.331-1.071.437-1.113.686-2.283 1.272-3.45 1.857-4.188 2.1 4.577-1.711.151-.11-2.521.911-5.15 1.477-7.787 1.922 6.13-1.034 1.539-.316.123-.252-1.532.07-3.065-.01-4.595-.091-5.376-.284 4.58.891-.636-.127-2.018-.395-3.979-1.029-5.918-1.696-4.911-1.687 4.067 1.985-.539-.337-1.346-.679-2.62-1.49-3.889-2.301-4.312-2.75 3.381 2.943-.516-.349-1.145-.967-2.189-2.046-3.232-3.118-1.059-1.088-2.028-2.26-2.996-3.429 3.431 4.148.289.134-.289-.754-.845-1.3-1.567-2.674-2.286-4.045-.99-2.109-.912-1.859.235.75a42.065 42.065 0 01-1.001-2.955c-.476-1.496-.778-3.04-1.076-4.579 1.058 5.466.23.515.202-.758v-472.33c0-11.447-9.552-21-21-21s-21 9.553-21 21v178.662c0 1.855.003 3.71-.021 5.565-.021 1.583-.169 3.159-.319 4.733.546-5.707-.026-.702-.286.483-.321 1.47-.782 2.903-1.245 4.333-1.568 4.845 2.032-4.113-.185.424-.644 1.318-1.432 2.559-2.219 3.794-2.69 4.223 2.991-3.393-.348.378-.99 1.118-2.11 2.119-3.214 3.119-1.758 1.465-1.516 1.3.728-.494a45.34 45.34 0 01-2.501 1.661c-1.271.813-2.619 1.495-3.963 2.176-4.607 2.331 4.289-1.537-.62.155-1.457.502-2.96.852-4.458 1.199-5.17 1.201 4.73-.346-.623.128-1.526.135-3.063.114-4.592.091-1.334-.021-6.155-.617.111.249-3.098-.428-6.113-1.319-9.045-2.384 5.576 2.023 1.476.596.219-.037-1.167-.588-2.281-1.277-3.391-1.964-1.099-.681-4.667-3.496.037.232-1.018-.807-1.964-1.7-2.907-2.591-.944-.892-1.809-1.862-2.672-2.831-3.082-3.46 2.781 3.927.116.13-.75-1.069-1.405-2.2-2.058-3.328-.721-1.246-3.007-6.853-.659-.934-.986-2.486-1.632-5.093-2.156-7.709-.952-4.747.459 5.038.086.159-.058-.75-.085-2.036-.085-2.786V342.216c0 5.222.99-2.071 1.404-3.537.749-2.649 1.705-5.235 2.726-7.79-2.397 5.997 1.228-2.113 2.021-3.56 1.515-2.766 3.265-5.396 5.098-7.958 2.777-3.882-3 3.689.031.008.854-1.039 1.761-2.033 2.667-3.026 1.813-1.987 3.773-3.833 5.775-5.626 1.002-.897 2.05-1.744 3.096-2.589-4.593 3.711-.925.783.081.077 2.585-1.815 5.319-3.408 8.098-4.903 1.198-.645 2.428-1.228 3.657-1.81 4.369-2.07-4.494 1.761.02-.011 3-1.178 6.096-2.094 9.214-2.901 1.624-.42 10.724-1.92 4.077-1.042 3.324-.439 6.68-.584 10.03-.613 4.466-.039 8.934 0 13.4 0h38.286l-18.133-10.401 48.77 96.97c6.892 13.703 29.374 13.703 36.266 0l48.77-96.97c5.144-10.227 2.796-22.681-7.534-28.732-9.404-5.504-23.594-2.682-28.733 7.538zm167.71 654.581l81.705-103.043 87.611-110.492.298-.375-25.449 3.283L705.28 777.71c7.976 5.01 18.919 3.215 25.449-3.283a8573620.874 8573620.874 0 01184.58-183.685c8.11-8.071 8.075-21.623 0-29.699-8.105-8.104-21.589-8.07-29.699 0a8573620.874 8573620.874 0 01-184.58 183.685l25.449-3.283-108.918-68.416c-7.282-4.574-19.801-3.84-25.449 3.283l-81.704 103.043-87.611 110.492-.298.375c-7.105 8.961-8.785 20.914 0 29.699 7.394 7.394 22.574 8.985 29.698 0z"/><path d="M799.671 596.687h101.088l-21-21v101.087c0 11.447 9.553 21 21 21s21-9.553 21-21V575.687c0-11.447-9.553-21-21-21H799.671c-11.447 0-21 9.553-21 21s9.553 21 21 21zM617.458 454.951h105.699c22.742 0 43.07-7.844 60.609-22.082 42.485-34.487 40.639-104.892-2.036-138.231-10.911-8.524-22.966-14.971-36.563-18.092-8.418-1.932-16.974-2.367-25.559-2.367-13.532 0-27.482.976-40.96-.489 6.784.737-2.021-.578-3.729-1.005-2.585-.646-5.109-1.516-7.6-2.457-4.425-1.67 4.444 2.017.174.021-1.189-.556-2.346-1.179-3.501-1.802-2.685-1.446-5.227-3.142-7.695-4.927 5.273 3.812-1.481-1.425-2.708-2.583-1.893-1.786-3.631-3.726-5.311-5.709-3.009-3.554 2.846 3.896.108.124-.766-1.056-1.472-2.154-2.178-3.251-1.654-2.574-3.063-5.298-4.361-8.066-2.004-4.27 1.781 4.558.104.133-.471-1.243-.87-2.513-1.268-3.781-.806-2.566-1.385-5.197-1.885-7.837-.906-4.781.53 5.047-.001.176-.15-1.375-.219-2.757-.287-4.138-.16-3.244-.001-6.495.287-9.727.435-4.881-.812 4.974.001.176.226-1.331.528-2.647.831-3.962.6-2.602 1.425-5.145 2.321-7.656 1.591-4.457-2.026 4.439-.104.133.536-1.2 1.14-2.368 1.742-3.535 1.4-2.71 3.054-5.282 4.797-7.782 2.667-3.823-3.05 3.733-.108.124.822-1.008 1.699-1.97 2.576-2.93 1.753-1.921 3.665-3.692 5.62-5.404.953-.834 4.639-3.58-.178.041 1.042-.784 2.128-1.508 3.213-2.231 2.544-1.698 5.241-3.151 7.983-4.497 4.231-2.077-4.565 1.774-.174.02 1.232-.493 2.493-.914 3.752-1.334 2.546-.851 5.159-1.477 7.784-2.025 1.292-.271 6.066-.909-.208-.102 1.367-.176 2.742-.271 4.116-.365 1.455-.101 2.918-.124 4.377-.124h106.94c11.447 0 21-9.553 21-21s-9.553-21-21-21H688.375c-22.74 0-43.068 7.845-60.606 22.082-42.483 34.488-40.639 104.893 2.036 138.232 10.911 8.524 22.965 14.971 36.563 18.091 8.417 1.932 16.973 2.367 25.557 2.367 13.532 0 27.482-.976 40.961.489-6.784-.737 2.021.578 3.729 1.005 2.585.646 5.109 1.516 7.601 2.457 4.424 1.669-4.444-2.017-.175-.021 1.189.556 2.347 1.18 3.502 1.802 2.685 1.446 5.227 3.142 7.696 4.927-5.273-3.812 1.481 1.425 2.708 2.583 1.892 1.785 3.631 3.726 5.31 5.709 3.01 3.554-2.846-3.896-.108-.124.767 1.056 1.473 2.154 2.179 3.251 1.654 2.574 3.063 5.298 4.361 8.066 2.004 4.27-1.781-4.558-.104-.133.471 1.244.87 2.513 1.268 3.781.806 2.566 1.385 5.197 1.885 7.837.906 4.782-.53-5.047.001-.176.15 1.375.219 2.757.287 4.138.16 3.244.001 6.495-.287 9.727-.435 4.88.812-4.975-.001-.177-.226 1.331-.528 2.647-.831 3.962-.6 2.602-1.425 5.145-2.321 7.656-1.591 4.457 2.026-4.44.104-.133-.536 1.2-1.14 2.368-1.742 3.535-1.4 2.71-3.055 5.282-4.798 7.781-2.666 3.823 3.051-3.733.108-.124-.821 1.008-1.699 1.969-2.575 2.93-1.754 1.921-3.665 3.691-5.621 5.404-.952.834-4.639 3.579.179-.041-1.043.784-2.129 1.508-3.214 2.232-2.544 1.697-5.241 3.151-7.984 4.497-4.231 2.077 4.565-1.774.175-.021-1.233.493-2.494.914-3.753 1.334-2.546.851-5.16 1.477-7.785 2.025-1.292.271-6.066.909.208.102-1.367.176-2.743.271-4.117.365-1.455.101-2.918.124-4.377.124H617.458c-11.447 0-21 9.553-21 21s9.553 21.002 21 21.002z"/><path d="M727.294 156.406V87.024c0-11.448-9.553-21-21-21s-21 9.552-21 21v69.382c0 11.447 9.553 21 21 21s21-9.553 21-21zm0 346.93V433.95c0-11.447-9.553-21-21-21s-21 9.553-21 21v69.386c0 11.447 9.553 21 21 21s21-9.552 21-21z"/><text x="-24.421" y="1013.488" font-size="5" font-weight="bold" font-family="'Helvetica Neue', Helvetica, Arial-Unicode, Arial, Sans-serif">Created by shashank singh</text><text x="-24.421" y="1018.488" font-size="5" font-weight="bold" font-family="'Helvetica Neue', Helvetica, Arial-Unicode, Arial, Sans-serif">from the Noun Project</text></g></svg>