<svg version="1.0" xmlns="http://www.w3.org/2000/svg" width="677.333" height="677.333" viewBox="0 0 508 508"><path fill="#fff" d="M0 254v254h508V0H0v254zM166 59v19h4.6c4.4 0 4.5.1 4.2 2.7-.3 2.8-.4 2.8-8 3.1l-7.8.3V40h7v19zm19 3v22h-7V40h7v22zm21-19c0 2.9-.2 3-4.5 3H197v13h3.5c3.1 0 3.5.3 3.5 2.5s-.4 2.5-3.5 2.5h-3.4l-.3 9.7-.3 9.8h-7l-.3-20.5c-.1-11.2 0-21 .2-21.7.4-.9 3-1.3 8.6-1.3h8v3zm21 0c0 2.9-.1 3-5 3h-5v13h3.5c3.1 0 3.5.3 3.5 2.5s-.4 2.5-3.5 2.5H217v14h5.1c4.9 0 5 .1 4.7 2.7-.3 2.8-.4 2.8-8.5 3.1l-8.3.3V40h17v3zM62 92.5V144H45V64.5L39 71l-5.9 6.5-.1-9.3v-9.4l7.6-8.9 7.7-8.9H62v51.5zM119 48v7H89v25.3l2.3-2c3.7-3.4 6.8-4.6 12.2-4.6 5.9 0 10.5 2.1 13.3 6 3.8 5.4 4.4 9.8 4 31.3-.3 19.4-.4 20.7-2.6 24.3-1.3 2-4.5 5-7 6.5-4.2 2.4-5.6 2.7-14.2 2.7-8.3 0-10.1-.3-13.9-2.5-7.1-3.9-9.5-9.7-9.9-23.2l-.4-10.8H89v8.9c0 10.7 1.4 13.2 7.3 13.4 6.7.2 7.2-1.1 7.5-20.3.4-18.1-.1-20.4-4.4-22C94 85.9 89 90 89 96.5c0 2.5-.1 2.5-8 2.5h-8V41h46v7zm56.7 54c4.2 2.5 5.3 6.7 5.3 20.5 0 18.7-2.2 22.2-13.8 21.6-1.3-.1-3.7-1.4-5.3-3l-2.9-2.9V123c0-15.3.6-18.4 3.9-20.5 4.6-2.9 8.7-3 12.8-.5zm20.3 11l3.8 11.5.1-11.8.1-11.7h6v43h-6.6l-4.1-12.8-4.1-12.7-.1 12.7-.1 12.8h-6v-43.1l3.6.3 3.6.3L196 113zm35 6.5V138h4c3.8 0 4 .2 4 3v3h-16v-43h8v18.5zm27.9-13.3c1.5 7.3 7.1 36.9 7.1 37.4 0 .2-1.6.4-3.5.4-3.6 0-3.8-.3-5-5.3-.5-2.5-.9-2.8-4.3-2.5-3.4.3-3.7.6-4.2 3.8-.4 3.1-.9 3.5-3.7 3.8-2.4.2-3.3-.1-3.3-1.1 0-1.7 6.8-38.6 7.5-40.5.3-.7 2.1-1.2 4.4-1.2h4l1 5.2zm21.3 6.8l3.7 11.5v-11.8l.1-11.7h6v43.1l-3.2-.3c-3.2-.3-3.3-.4-7.3-12.8l-4-12.5-.3 12.7-.3 12.8H269v-43.1l3.7.3 3.7.3 3.8 11.5zm30.9-11c3.9 2.2 4.9 6.1 4.9 20.4 0 8.3-.5 14.5-1.2 16.1-1.8 3.9-5.7 5.5-13.8 5.5h-7v-43h7.6c4.1 0 8.4.5 9.5 1zM215 204.2c10.7 4.6 17.8 12.3 21.1 22.9 2.3 7.4 2.4 13.8.3 20.8-.8 2.9-1.4 5.4-1.2 5.5.2.2 3.3 1.7 7 3.4 8.8 4 15.9 11.1 20.1 20 3 6.2 3.2 7.4 3.2 17.2 0 9.5-.3 11-3 16.5-3.7 7.7-12.3 16.3-20 20.1l-6 2.9-34.9.3c-29.5.3-35.6.1-39.4-1.3-17.9-6-25.4-25.9-15.8-41.7l3.2-5.4-4.2-3.7c-11.8-10.3-11.6-29.2.4-39.7 4.3-3.9 11.9-7 16.9-7 1.7 0 2.4-.7 2.9-2.8 2.1-9.6 6.9-18.1 12.7-22.5 11-8.3 25.2-10.5 36.7-5.5zm118-.2c1.9 1 4.5 2.9 5.8 4.2 2.1 2.3 2.6 2.4 7.1 1.4 3.7-.7 6.1-.6 9.2.3 4.7 1.4 11.9 7.8 11.9 10.5 0 2.6-2.7 3-5.5.8-3.9-3.1-9.3-3.6-17-1.7l-6.8 1.7-3.9-4.6c-4.9-5.7-8.4-7.6-14.6-8-4.2-.2-4.7-.5-4.7-2.7 0-2 .7-2.6 4.5-3.5 5.2-1.3 9-.9 14 1.6zm-6.2 29.2c3.7 1.9 4.8 3 5 5.2.3 2.7.2 2.8-3 1.9-8.6-2.2-20.8.9-26.4 6.8-3.4 3.5-4.9 3.6-9.5.5-4.1-2.8-12.9-5.6-17.6-5.6-1.9 0-5 .7-7 1.5-6.4 2.7-8.5-.1-3.5-4.8 6.7-6.4 17.8-7.9 27.4-3.4 5 2.2 5.8 2.4 6.9 1.1 3-3.7 11.9-6.5 18.7-6 2.3.2 6.4 1.5 9 2.8zm-3 65.9c6.9 3.6 6.9 3.6 9.5 1.7 4-2.9 13.5-5.8 19.2-5.8 9.2 0 23.2 8.7 19.6 12.3-.8.8-2 .8-4.7-.2-8.9-3.2-23-.4-31.6 6.4-2.3 1.9-4.9 3.5-5.6 3.5-.7 0-3-1.3-5-2.9-10.2-8.1-20.4-10.1-33.4-6.6-2.2.6-2.9.3-3.5-1.1-.5-1.3.4-2.6 3.1-5 8.7-7.5 20.6-8.3 32.4-2.3zM212.5 364v19.5l-8.2.3-8.3.3v-40.2l8.3.3 8.2.3V364zM379 408.5v8.5H128v-17h251v8.5zm-.5 30.5v8.5h-250l-.3-8.8-.3-8.7 125.3.2 125.3.3v8.5z"/><path fill="#fff" d="M167.6 107.6c-1.3 1.2-1.6 4.1-1.6 14.7 0 7.3.4 13.8.9 14.5.4.8 1.9 1.2 3.2 1 2.4-.3 2.4-.4 2.7-15 .2-13.7.1-14.8-1.7-15.7-1.5-.8-2.3-.7-3.5.5zm84.6 13.5c-1.6 8.8-1.6 8.9 1.4 8.9 2.5 0 2.6-.1 1.9-5.1-1.4-10.3-2.1-11-3.3-3.8zm49.8 1.4V138h2.5c3.7 0 4.5-2.8 4.5-16.2 0-13.1-.5-14.8-4.7-14.8H302v15.5z"/></svg>