<?xml version="1.0" standalone="no"?>
<!DOCTYPE svg PUBLIC "-//W3C//DTD SVG 20010904//EN"
 "http://www.w3.org/TR/2001/REC-SVG-20010904/DTD/svg10.dtd">
<svg version="1.0" xmlns="http://www.w3.org/2000/svg"
 width="508.000000pt" height="508.000000pt" viewBox="0 0 508.000000 508.000000"
 preserveAspectRatio="xMidYMid meet">

<g transform="translate(0.000000,508.000000) scale(0.100000,-0.100000)"
fill="#000000" stroke="none">
<path d="M0 2540 l0 -2540 2540 0 2540 0 0 2540 0 2540 -2540 0 -2540 0 0
-2540z m1660 1950 l0 -190 46 0 c44 0 45 -1 42 -27 -3 -28 -4 -28 -80 -31
l-78 -3 0 221 0 220 35 0 35 0 0 -190z m190 -30 l0 -220 -35 0 -35 0 0 220 0
220 35 0 35 0 0 -220z m210 190 c0 -29 -2 -30 -45 -30 l-45 0 0 -65 0 -65 35
0 c31 0 35 -3 35 -25 0 -22 -4 -25 -35 -25 l-34 0 -3 -97 -3 -98 -35 0 -35 0
-3 205 c-1 112 0 210 2 217 4 9 30 13 86 13 l80 0 0 -30z m210 0 c0 -29 -1
-30 -50 -30 l-50 0 0 -65 0 -65 35 0 c31 0 35 -3 35 -25 0 -22 -4 -25 -35 -25
l-35 0 0 -70 0 -70 51 0 c49 0 50 -1 47 -27 -3 -28 -4 -28 -85 -31 l-83 -3 0
221 0 220 85 0 85 0 0 -30z m-1650 -495 l0 -515 -85 0 -85 0 0 397 0 398 -60
-65 -59 -65 -1 93 0 94 76 89 77 89 68 0 69 0 0 -515z m570 445 l0 -70 -150 0
-150 0 0 -127 0 -126 23 20 c37 34 68 46 122 46 59 0 105 -21 133 -60 38 -54
44 -98 40 -313 -3 -194 -4 -207 -26 -243 -13 -20 -45 -50 -70 -65 -42 -24 -56
-27 -142 -27 -83 0 -101 3 -139 25 -71 39 -95 97 -99 232 l-4 108 81 0 81 0 0
-89 c0 -107 14 -132 73 -134 67 -2 72 11 75 203 4 181 -1 204 -44 220 -54 21
-104 -20 -104 -85 0 -25 -1 -25 -80 -25 l-80 0 0 290 0 290 230 0 230 0 0 -70z
m567 -540 c42 -25 53 -67 53 -205 0 -187 -22 -222 -138 -216 -13 1 -37 14 -53
30 l-29 29 0 152 c0 153 6 184 39 205 46 29 87 30 128 5z m203 -110 l38 -115
1 118 1 117 30 0 30 0 0 -215 0 -215 -33 0 -33 0 -41 128 -41 127 -1 -127 -1
-128 -30 0 -30 0 0 216 0 215 36 -3 36 -3 38 -115z m350 -65 l0 -185 40 0 c38
0 40 -2 40 -30 l0 -30 -80 0 -80 0 0 215 0 215 40 0 40 0 0 -185z m279 133
c15 -73 71 -369 71 -374 0 -2 -16 -4 -35 -4 -36 0 -38 3 -50 53 -5 25 -9 28
-43 25 -34 -3 -37 -6 -42 -38 -4 -31 -9 -35 -37 -38 -24 -2 -33 1 -33 11 0 17
68 386 75 405 3 7 21 12 44 12 l40 0 10 -52z m213 -68 l37 -115 0 118 1 117
30 0 30 0 0 -216 0 -215 -32 3 c-32 3 -33 4 -73 128 l-40 125 -3 -127 -3 -128
-29 0 -30 0 0 216 0 215 37 -3 37 -3 38 -115z m309 110 c39 -22 49 -61 49
-204 0 -83 -5 -145 -12 -161 -18 -39 -57 -55 -138 -55 l-70 0 0 215 0 215 76
0 c41 0 84 -5 95 -10z m-961 -1022 c107 -46 178 -123 211 -229 23 -74 24 -138
3 -208 -8 -29 -14 -54 -12 -55 2 -2 33 -17 70 -34 88 -40 159 -111 201 -200
30 -62 32 -74 32 -172 0 -95 -3 -110 -30 -165 -37 -77 -123 -163 -200 -201
l-60 -29 -349 -3 c-295 -3 -356 -1 -394 13 -179 60 -254 259 -158 417 l32 54
-42 37 c-118 103 -116 292 4 397 43 39 119 70 169 70 17 0 24 7 29 28 21 96
69 181 127 225 110 83 252 105 367 55z m1180 2 c19 -10 45 -29 58 -42 21 -23
26 -24 71 -14 37 7 61 6 92 -3 47 -14 119 -78 119 -105 0 -26 -27 -30 -55 -8
-39 31 -93 36 -170 17 l-68 -17 -39 46 c-49 57 -84 76 -146 80 -42 2 -47 5
-47 27 0 20 7 26 45 35 52 13 90 9 140 -16z m-62 -292 c37 -19 48 -30 50 -52
3 -27 2 -28 -30 -19 -86 22 -208 -9 -264 -68 -34 -35 -49 -36 -95 -5 -41 28
-129 56 -176 56 -19 0 -50 -7 -70 -15 -64 -27 -85 1 -35 48 67 64 178 79 274
34 50 -22 58 -24 69 -11 30 37 119 65 187 60 23 -2 64 -15 90 -28z m-30 -659
c69 -36 69 -36 95 -17 40 29 135 58 192 58 92 0 232 -87 196 -123 -8 -8 -20
-8 -47 2 -89 32 -230 4 -316 -64 -23 -19 -49 -35 -56 -35 -7 0 -30 13 -50 29
-102 81 -204 101 -334 66 -22 -6 -29 -3 -35 11 -5 13 4 26 31 50 87 75 206 83
324 23z m-1113 -649 l0 -195 -82 -3 -83 -3 0 201 0 201 83 -3 82 -3 0 -195z
m1665 -445 l0 -85 -1255 0 -1255 0 0 85 0 85 1255 0 1255 0 0 -85z m-5 -305
l0 -85 -1250 0 -1250 0 -3 88 -3 87 1253 -2 1253 -3 0 -85z"/>
<path d="M1676 4004 c-13 -12 -16 -41 -16 -147 0 -73 4 -138 9 -145 4 -8 19
-12 32 -10 24 3 24 4 27 150 2 137 1 148 -17 157 -15 8 -23 7 -35 -5z"/>
<path d="M2522 3869 c-16 -88 -16 -89 14 -89 25 0 26 1 19 51 -14 103 -21 110
-33 38z"/>
<path d="M3020 3855 l0 -155 25 0 c37 0 45 28 45 162 0 131 -5 148 -47 148
l-23 0 0 -155z"/>
</g>
</svg>
