<?xml version="1.0" standalone="no"?>
<!DOCTYPE svg PUBLIC "-//W3C//DTD SVG 20010904//EN"
 "http://www.w3.org/TR/2001/REC-SVG-20010904/DTD/svg10.dtd">
<svg version="1.0" xmlns="http://www.w3.org/2000/svg"
 width="511.000000pt" height="510.000000pt" viewBox="0 0 511.000000 510.000000"
 preserveAspectRatio="xMidYMid meet">

<g transform="translate(0.000000,510.000000) scale(0.100000,-0.100000)"
fill="#000000" stroke="none">
<path d="M0 2550 l0 -2550 2555 0 2555 0 0 2550 0 2550 -2555 0 -2555 0 0
-2550z m1730 1970 l0 -190 40 0 c38 0 40 -2 40 -30 l0 -31 -77 3 -78 3 -3 205
c-1 112 0 210 2 217 3 7 21 13 41 13 l35 0 0 -190z m190 -30 l0 -220 -35 0
-35 0 0 220 0 220 35 0 35 0 0 -220z m210 191 c0 -28 -2 -30 -47 -33 l-48 -3
0 -60 0 -60 38 -3 c31 -3 37 -7 37 -27 0 -20 -6 -24 -37 -27 l-38 -3 -3 -98
-3 -98 -32 3 -32 3 -3 218 -2 217 85 0 85 0 0 -29z m210 -1 c0 -29 -1 -30 -50
-30 l-50 0 0 -65 0 -65 35 0 c31 0 35 -3 35 -25 0 -22 -4 -25 -35 -25 l-35 0
0 -70 0 -70 51 0 c49 0 50 -1 47 -27 l-3 -28 -85 0 -85 0 -3 205 c-1 112 0
210 2 217 4 9 31 13 91 13 l85 0 0 -30z m-1690 -495 l0 -515 -90 0 -90 0 0
392 0 392 -60 -59 -60 -59 0 89 0 90 81 93 80 92 70 0 69 0 0 -515z m530 150
l0 -365 35 0 35 0 0 -65 0 -65 -35 0 -35 0 0 -85 0 -85 -85 0 -85 0 0 85 0 85
-150 0 -150 0 0 55 c0 48 20 107 148 430 l147 375 88 0 87 0 0 -365z m1284
-239 c50 -21 61 -59 61 -211 0 -180 -19 -217 -110 -217 -91 0 -110 37 -110
217 0 150 11 190 59 211 40 17 59 17 100 0z m-644 -6 c38 -20 52 -132 22 -170
-18 -22 -18 -23 5 -46 42 -42 27 -170 -23 -193 -14 -6 -58 -11 -99 -11 l-75 0
0 215 0 215 76 0 c41 0 84 -5 94 -10z m260 -20 c0 -29 -1 -30 -50 -30 l-50 0
0 -60 0 -60 35 0 c32 0 35 -2 35 -30 0 -28 -3 -30 -35 -30 l-35 0 0 -65 0 -65
50 0 c49 0 50 -1 50 -30 l0 -30 -90 0 -90 0 0 215 0 215 90 0 90 0 0 -30z
m110 -154 l0 -185 43 -3 c38 -3 42 -6 45 -30 l3 -28 -80 0 -81 0 0 215 0 215
35 0 35 0 0 -184z m434 147 c3 -21 11 -76 17 -123 6 -47 12 -86 13 -88 2 -1 9
39 15 90 21 163 20 158 51 158 32 0 33 -2 51 -142 7 -54 15 -98 19 -98 3 0 12
54 19 120 l13 120 29 0 c36 0 36 11 4 -232 -14 -105 -25 -193 -25 -195 0 -2
-15 -3 -34 -3 -39 0 -34 -11 -61 150 -9 52 -18 96 -19 97 -2 2 -11 -53 -21
-123 l-18 -125 -36 3 -35 3 -22 160 c-11 88 -24 184 -28 213 l-7 52 35 0 c32
0 35 -3 40 -37z m435 -93 c16 -139 21 -136 41 29 l12 102 32 -3 31 -3 16 -118
c10 -65 19 -121 22 -123 2 -3 11 51 18 118 l14 123 33 3 c30 3 32 1 28 -20 -3
-13 -15 -99 -26 -193 -28 -229 -24 -215 -64 -215 -38 0 -34 -10 -57 148 -7 45
-16 82 -19 82 -4 0 -10 -24 -14 -52 -4 -29 -12 -81 -17 -115 -11 -62 -11 -63
-44 -63 -38 0 -34 -15 -65 220 -11 85 -22 168 -25 183 -5 27 -3 28 33 25 l37
-3 14 -125z m411 121 c0 -12 70 -382 76 -403 4 -15 -1 -18 -34 -18 -38 0 -40
1 -46 40 -6 39 -7 40 -46 40 -37 0 -40 -2 -40 -27 0 -41 -13 -55 -47 -51 l-30
3 17 90 c10 50 28 145 40 213 l23 122 43 0 c24 0 44 -4 44 -9z m260 -21 c0
-27 -3 -30 -30 -30 l-30 0 0 -185 0 -185 -35 0 -35 0 0 185 0 185 -30 0 c-27
0 -30 3 -30 30 l0 30 95 0 95 0 0 -30z m210 0 c0 -29 -1 -30 -50 -30 l-50 0 0
-60 0 -60 35 0 c32 0 35 -2 35 -30 0 -28 -3 -30 -35 -30 l-35 0 0 -65 0 -65
50 0 c49 0 50 -1 50 -30 l0 -30 -90 0 -90 0 0 215 0 215 90 0 90 0 0 -30z
m215 5 c22 -21 25 -33 25 -95 0 -63 -3 -74 -26 -97 l-26 -26 31 -88 c17 -48
31 -91 31 -94 0 -3 -16 -5 -36 -3 -37 3 -37 4 -70 93 l-33 90 0 -92 -1 -93
-35 0 -35 0 0 215 0 215 75 0 c67 0 79 -3 100 -25z m-2319 -1006 c114 -78 269
-125 380 -115 74 6 154 35 218 78 101 68 85 67 157 16 96 -68 166 -91 274 -92
112 -1 202 26 317 95 l80 49 39 -34 c131 -112 330 -149 491 -91 108 39 103 41
106 -40 l3 -70 -48 -32 c-168 -113 -356 -97 -529 43 l-53 44 -63 -48 c-139
-105 -289 -132 -447 -81 -52 17 -149 67 -197 101 l-42 30 -48 -35 c-115 -82
-227 -120 -349 -119 -111 1 -233 49 -312 124 l-32 31 -43 -35 c-132 -107 -273
-151 -398 -123 -40 9 -121 48 -162 78 -26 19 -28 25 -28 95 0 66 2 74 18 69 9
-4 44 -16 77 -28 90 -33 233 -38 322 -10 67 20 174 81 202 114 17 22 15 22 67
-14z m10 -430 c96 -66 229 -109 340 -109 106 0 189 34 328 134 8 6 33 -7 74
-37 178 -131 397 -127 611 10 50 32 58 34 77 22 12 -8 45 -30 75 -50 72 -47
125 -67 214 -80 87 -12 181 1 264 35 31 14 59 22 63 19 5 -2 8 -35 8 -73 l0
-68 -55 -36 c-103 -69 -200 -89 -304 -62 -75 19 -164 65 -220 112 -21 19 -44
34 -51 34 -7 0 -31 -16 -53 -36 -81 -69 -204 -114 -311 -114 -90 0 -223 49
-326 119 l-56 39 -71 -48 c-129 -87 -269 -123 -390 -103 -76 13 -174 59 -233
108 -23 19 -46 35 -51 35 -5 0 -33 -18 -61 -41 -91 -71 -210 -119 -299 -119
-56 0 -158 35 -216 75 l-53 36 0 68 c0 37 3 70 6 73 3 3 32 -5 64 -18 88 -35
185 -48 272 -34 83 12 219 73 257 114 31 33 43 33 97 -5z m-513 -665 c152 -52
313 -184 417 -342 l53 -80 61 48 c249 195 577 352 826 396 360 62 734 -86
1070 -426 121 -123 166 -182 153 -203 -23 -41 -158 -188 -233 -254 -326 -287
-671 -408 -991 -347 -248 47 -558 194 -811 384 l-76 58 -35 -57 c-133 -213
-348 -364 -564 -395 -56 -8 -56 -1 6 122 91 182 140 355 141 495 0 153 -65
382 -156 544 -48 87 -47 97 18 88 28 -4 83 -18 121 -31z"/>
<path d="M1007 4370 c-4 -8 -38 -100 -76 -205 l-69 -190 75 -3 c42 -2 77 -1
79 1 3 2 3 96 2 208 -2 112 -6 197 -11 189z"/>
<path d="M2396 4037 c-14 -11 -16 -31 -14 -157 l3 -145 30 0 30 0 3 147 c2
135 1 148 -16 157 -14 7 -24 7 -36 -2z"/>
<path d="M1730 3980 c0 -51 3 -60 18 -60 27 0 42 20 42 56 0 48 -9 64 -36 64
-23 0 -24 -3 -24 -60z"/>
<path d="M1730 3795 l0 -66 28 3 c26 3 27 5 27 63 0 58 -1 60 -27 63 l-28 3 0
-66z"/>
<path d="M3417 3940 c-4 -14 -11 -49 -15 -77 l-9 -53 29 0 c27 0 29 2 23 33
-23 127 -22 123 -28 97z"/>
<path d="M4050 3975 l0 -66 28 3 c26 3 27 5 27 63 0 58 -1 60 -27 63 l-28 3 0
-66z"/>
<path d="M3089 1627 c-107 -72 -106 -226 3 -287 126 -71 279 37 248 176 -26
113 -160 173 -251 111z"/>
</g>
</svg>
