<?xml version="1.0" standalone="no"?>
<!DOCTYPE svg PUBLIC "-//W3C//DTD SVG 20010904//EN"
 "http://www.w3.org/TR/2001/REC-SVG-20010904/DTD/svg10.dtd">
<svg version="1.0" xmlns="http://www.w3.org/2000/svg"
 width="512.000000pt" height="511.000000pt" viewBox="0 0 512.000000 511.000000"
 preserveAspectRatio="xMidYMid meet">

<g transform="translate(0.000000,511.000000) scale(0.100000,-0.100000)"
fill="#000000" stroke="none">
<path d="M0 2555 l0 -2555 2560 0 2560 0 0 2555 0 2555 -2560 0 -2560 0 0
-2555z m1137 2103 c57 -26 83 -71 95 -164 12 -90 -1 -223 -27 -278 -10 -21
-61 -85 -114 -143 -132 -145 -144 -163 -149 -234 l-4 -59 146 0 146 0 0 -70 0
-70 -231 0 -232 0 5 135 c7 170 20 199 156 351 130 144 135 154 136 280 1 118
-7 134 -65 134 -50 0 -59 -18 -59 -119 l0 -81 -81 0 -81 0 4 109 c3 98 6 112
30 147 15 22 41 48 58 58 67 39 189 41 267 4z m656 7 c28 -11 47 -59 47 -120
0 -49 -4 -60 -28 -85 l-29 -28 34 -94 c18 -51 33 -94 33 -95 0 -2 -17 -3 -38
-3 l-37 0 -30 87 -30 86 -5 -84 -5 -84 -37 -3 -38 -3 0 214 c0 117 3 217 8
221 8 9 127 1 155 -9z m247 -14 c0 -28 -2 -30 -47 -33 l-48 -3 -3 -62 -3 -63
36 0 c32 0 35 -2 35 -30 0 -28 -3 -30 -35 -30 l-35 0 0 -65 0 -65 50 0 c49 0
50 -1 50 -30 l0 -30 -85 0 -85 0 0 220 0 220 85 0 85 0 0 -29z m195 6 c18 -15
28 -36 32 -65 l6 -42 -36 0 c-33 0 -36 2 -39 33 -4 39 -40 51 -57 18 -16 -28
-1 -58 54 -111 60 -58 75 -88 75 -150 0 -69 -31 -100 -102 -100 -69 0 -98 30
-98 100 0 49 1 50 30 50 27 0 30 -3 30 -32 0 -44 12 -60 41 -56 20 2 25 10 27
39 3 32 -4 44 -62 108 -64 69 -66 73 -66 125 0 44 4 58 26 80 35 35 101 36
139 3z m253 -12 c19 -23 22 -37 22 -114 0 -82 -2 -90 -26 -115 -20 -19 -37
-26 -65 -26 l-38 0 -3 -72 -3 -73 -37 -3 -38 -3 0 214 c0 117 3 217 8 221 4 5
41 6 82 3 65 -5 78 -9 98 -32z m221 19 c40 -28 51 -73 51 -207 0 -68 -5 -138
-11 -155 -14 -40 -49 -62 -99 -62 -93 0 -110 33 -110 213 0 149 10 191 49 212
35 19 91 19 120 -1z m192 -104 l37 -115 3 115 4 115 28 3 27 3 0 -221 0 -221
-31 3 c-31 3 -32 5 -74 133 l-43 130 -1 -132 -1 -133 -30 0 -30 0 0 213 c0
118 3 217 7 221 4 4 21 6 37 4 28 -3 31 -7 67 -118z m311 90 c10 -13 18 -38
18 -61 0 -37 -2 -39 -30 -39 -25 0 -30 4 -30 24 0 51 -62 63 -68 13 -3 -24 8
-40 57 -92 67 -69 81 -97 81 -156 0 -60 -42 -99 -105 -99 -38 0 -52 5 -76 29
-24 24 -29 38 -29 75 0 46 0 46 34 46 34 0 35 -1 38 -42 3 -38 6 -43 30 -46
19 -2 28 2 33 17 10 34 -4 62 -61 123 -59 62 -74 91 -74 144 0 26 8 44 30 66
28 28 35 30 82 26 38 -4 57 -12 70 -28z m128 -190 l0 -220 -35 0 -35 0 0 220
0 220 35 0 35 0 0 -220z m199 200 c40 -21 52 -143 18 -178 -12 -12 -11 -17 9
-37 45 -45 24 -174 -32 -195 -15 -6 -57 -10 -93 -8 l-66 3 -3 205 c-1 112 0
211 3 219 4 11 20 13 75 8 38 -3 78 -11 89 -17z m149 -172 l2 -188 40 0 c38 0
40 -2 40 -30 l0 -31 -77 3 -78 3 -3 205 c-1 112 0 210 3 218 3 8 17 12 37 10
l33 -3 3 -187z m282 162 c0 -29 -1 -30 -50 -30 l-50 0 0 -65 0 -65 35 0 c32 0
35 -2 35 -30 0 -28 -3 -30 -35 -30 l-35 0 0 -65 0 -65 50 0 c49 0 50 -1 50
-30 l0 -30 -85 0 -85 0 0 220 0 220 85 0 85 0 0 -30z m-3300 -495 l0 -515 -85
0 -85 0 0 398 -1 397 -57 -63 c-31 -34 -60 -62 -64 -62 -5 0 -8 38 -8 84 l0
85 80 95 81 96 69 0 70 0 0 -515z m1853 -92 c23 -6 47 -54 47 -93 0 -28 -3
-30 -35 -30 -32 0 -35 2 -35 30 0 32 -27 54 -49 40 -29 -17 -15 -61 36 -113
74 -77 83 -94 83 -157 0 -46 -4 -60 -22 -77 -30 -27 -62 -36 -104 -28 -52 9
-74 39 -74 102 0 52 0 53 30 53 27 0 30 -3 30 -33 0 -18 6 -42 14 -53 20 -26
50 -8 54 35 3 26 -5 40 -51 89 -30 31 -59 67 -66 79 -18 36 -14 107 9 136 27
34 62 40 133 20z m-704 -19 c15 -19 21 -41 21 -75 0 -48 -1 -49 -30 -49 -27 0
-30 3 -30 33 0 43 -12 59 -41 55 -24 -3 -24 -4 -27 -150 -2 -137 -1 -148 17
-157 30 -16 51 11 51 65 0 42 1 44 30 44 30 0 30 0 30 -59 0 -48 -5 -65 -23
-86 -30 -36 -91 -43 -134 -16 -42 26 -53 69 -53 201 1 183 20 220 115 220 46
0 57 -4 74 -26z m245 -5 c25 -30 26 -34 26 -180 0 -176 -8 -202 -69 -220 -49
-15 -102 1 -128 39 -15 23 -18 48 -18 162 0 74 3 147 8 162 13 47 44 68 103
68 46 0 55 -4 78 -31z m173 -86 l38 -118 3 118 3 117 29 0 30 0 0 -215 0 -215
-34 0 -34 0 -37 118 c-20 64 -38 122 -40 127 -2 6 -4 -47 -4 -117 l-1 -128
-30 0 -30 0 0 215 0 215 34 0 34 0 39 -117z m443 -63 c0 -167 1 -180 19 -190
15 -7 23 -6 35 6 13 13 16 45 16 190 l0 174 30 0 30 0 0 -189 c0 -183 -1 -191
-23 -216 -26 -31 -89 -42 -127 -23 -51 27 -60 66 -60 256 l0 172 40 0 40 0 0
-180z m253 167 c3 -7 13 -59 23 -116 20 -117 24 -115 49 32 l17 97 44 0 44 0
0 -215 0 -215 -30 0 -30 0 -1 128 c0 142 -7 138 -34 -20 -15 -90 -21 -108 -36
-108 -18 0 -19 3 -53 175 l-14 70 -1 -122 -1 -123 -30 0 -30 0 0 215 0 215 39
0 c22 0 41 -5 44 -13z m398 -16 c15 -19 19 -39 19 -111 0 -108 -16 -135 -85
-146 l-45 -6 0 -69 0 -69 -40 0 -40 0 0 216 0 216 86 -3 c76 -4 88 -7 105 -28z
m229 -1 c0 -27 -3 -30 -30 -30 l-30 0 0 -185 0 -185 -35 0 -35 0 0 185 0 185
-30 0 c-27 0 -30 3 -30 30 l0 30 95 0 95 0 0 -30z m100 -185 l0 -215 -35 0
-35 0 0 215 0 215 35 0 35 0 0 -215z m224 184 c25 -30 26 -34 26 -180 0 -176
-8 -202 -69 -220 -29 -9 -47 -9 -75 1 -57 19 -70 48 -74 167 -8 212 14 263
112 263 48 0 57 -3 80 -31z m166 -76 c19 -60 38 -112 42 -118 4 -5 8 44 8 108
l0 117 30 0 30 0 0 -215 0 -215 -35 0 -34 0 -40 123 -39 122 -1 -122 -1 -123
-30 0 -30 0 0 215 0 215 33 0 33 0 34 -107z m-1743 -515 c33 -27 43 -75 43
-204 0 -188 -19 -214 -156 -214 l-64 0 0 213 c0 118 3 217 8 221 11 12 151 -1
169 -16z m301 3 c31 -16 45 -74 39 -154 -4 -61 -8 -74 -31 -94 -19 -16 -40
-23 -67 -23 l-39 0 0 -75 0 -75 -35 0 -35 0 0 221 0 222 74 -6 c41 -3 83 -10
94 -16z m250 -16 c31 -36 32 -155 2 -185 -11 -11 -24 -20 -29 -20 -4 0 4 -35
19 -77 48 -135 47 -125 4 -121 l-38 3 -32 90 -33 90 0 -92 -1 -93 -35 0 -35 0
0 221 0 222 78 -6 c67 -5 80 -9 100 -32z m221 21 c43 -23 51 -54 51 -207 0
-183 -17 -219 -104 -219 -44 0 -78 15 -96 43 -16 25 -26 220 -15 294 13 87 88
128 164 89z m274 -26 c27 -30 27 -31 27 -176 0 -203 -17 -228 -151 -222 l-64
3 -3 205 c-1 112 0 211 3 219 4 11 21 13 83 8 70 -5 80 -9 105 -37z m137 -150
c5 -168 7 -185 23 -188 43 -8 47 11 47 199 l0 179 30 0 30 0 0 -195 c0 -195 0
-196 -25 -220 -35 -36 -116 -36 -149 0 -13 14 -26 39 -30 56 -8 44 -8 344 1
353 4 4 21 6 38 4 l30 -3 5 -185z m345 168 c20 -18 27 -35 32 -80 l6 -58 -36
0 c-35 0 -36 1 -39 41 -3 49 -27 71 -52 50 -13 -11 -16 -38 -16 -151 0 -145 6
-166 47 -158 14 3 19 15 21 61 l3 57 34 0 c35 0 35 0 35 -45 0 -55 -21 -110
-48 -124 -12 -6 -39 -11 -62 -11 -33 0 -48 6 -71 29 l-29 29 0 152 c0 199 14
228 112 229 25 1 46 -7 63 -21z m562 -12 c12 -14 25 -46 28 -71 10 -66 1 -256
-14 -286 -16 -33 -50 -49 -102 -49 -33 0 -47 6 -70 31 l-29 31 0 152 c1 161 7
187 51 213 37 21 109 10 136 -21z m-2607 16 c0 -8 67 -365 75 -399 5 -21 2
-23 -34 -23 -37 0 -39 1 -45 40 -6 39 -8 40 -45 40 -37 0 -39 -1 -45 -40 -6
-38 -8 -40 -41 -40 -32 0 -35 2 -30 23 8 34 75 391 75 399 0 5 20 8 45 8 25 0
45 -3 45 -8z m209 -107 l36 -110 3 113 3 112 29 0 30 0 0 -216 0 -215 -32 3
c-32 3 -33 4 -75 133 l-42 130 0 -132 -1 -133 -30 0 -30 0 0 216 0 215 37 -3
37 -3 35 -110z m2081 90 c0 -21 -5 -25 -30 -25 l-30 0 0 -191 0 -190 -37 3
-38 3 -3 188 -2 187 -30 0 c-25 0 -30 4 -30 25 l0 25 100 0 100 0 0 -25z m90
-190 l0 -215 -35 0 -35 0 0 215 0 215 35 0 35 0 0 -215z m401 95 l37 -115 1
118 1 117 30 0 30 0 0 -216 0 -215 -32 3 c-32 3 -33 4 -74 133 l-42 130 -1
-132 -1 -133 -30 0 -30 0 0 216 0 215 37 -3 37 -3 37 -115z m-2694 -750 c298
-71 504 -273 754 -740 119 -222 161 -283 269 -391 84 -84 109 -102 200 -148
157 -77 296 -99 423 -66 225 58 350 233 364 505 17 338 -132 556 -419 614 -98
20 -155 20 -237 0 -152 -37 -280 -125 -401 -273 -36 -44 -72 -81 -80 -81 -22
0 -123 185 -115 210 11 34 187 203 263 253 244 160 545 182 806 58 248 -117
387 -329 415 -631 18 -192 -16 -388 -91 -533 -50 -96 -168 -222 -260 -275
-262 -154 -611 -121 -903 86 -161 113 -285 268 -422 527 -145 272 -226 389
-349 504 -115 107 -265 171 -404 171 -132 0 -317 -75 -391 -158 -97 -109 -145
-274 -136 -467 5 -126 27 -199 83 -283 98 -148 250 -225 444 -225 104 0 154
11 237 50 l54 26 -57 58 c-36 36 -54 62 -49 67 18 16 488 143 497 134 4 -4
-10 -119 -32 -255 -22 -135 -40 -249 -40 -252 0 -15 -40 -2 -61 21 -13 14 -36
35 -52 46 l-28 20 -47 -31 c-64 -41 -165 -85 -232 -102 -83 -21 -318 -18 -400
5 -144 40 -301 140 -385 244 -61 76 -132 221 -150 307 -18 85 -20 293 -4 395
48 311 254 537 551 605 40 9 78 18 83 20 37 12 229 3 302 -15z"/>
<path d="M1710 4551 c0 -64 2 -71 20 -71 27 0 43 36 37 82 -6 45 -5 43 -34 52
-22 7 -23 5 -23 -63z"/>
<path d="M2380 4534 l0 -85 28 3 c26 3 27 5 30 76 3 70 2 72 -23 82 -15 6 -28
10 -31 10 -2 0 -4 -39 -4 -86z"/>
<path d="M2620 4601 c-15 -28 -13 -274 2 -289 18 -18 46 -14 58 7 13 25 13
241 0 275 -11 31 -45 35 -60 7z"/>
<path d="M3450 4550 c0 -53 2 -60 20 -60 22 0 40 28 40 64 0 40 -11 56 -36 56
-23 0 -24 -3 -24 -60z"/>
<path d="M3450 4370 c0 -72 5 -79 44 -64 12 5 16 20 16 64 0 44 -4 59 -16 64
-39 15 -44 8 -44 -64z"/>
<path d="M1957 4004 c-4 -4 -7 -72 -7 -150 0 -130 2 -144 19 -153 13 -7 23 -7
35 2 14 11 16 31 14 157 l-3 145 -25 3 c-14 2 -29 0 -33 -4z"/>
<path d="M3220 3926 c0 -77 2 -86 19 -86 32 0 42 24 39 97 -3 66 -4 68 -30 71
l-28 3 0 -85z"/>
<path d="M3777 4003 c-4 -3 -7 -71 -7 -149 0 -127 2 -144 18 -153 11 -6 24 -6
35 0 15 9 17 28 17 144 0 73 -3 140 -6 149 -6 16 -45 22 -57 9z"/>
<path d="M2205 3398 c-3 -8 -4 -79 -3 -158 3 -139 4 -145 24 -148 45 -6 54 20
54 152 0 129 -6 148 -48 161 -14 4 -24 2 -27 -7z"/>
<path d="M2517 3404 c-4 -4 -7 -43 -7 -86 l0 -78 30 0 30 0 0 80 c0 44 -4 80
-9 80 -5 0 -16 2 -23 5 -8 3 -17 2 -21 -1z"/>
<path d="M2750 3340 c0 -61 2 -70 18 -70 30 0 42 21 42 72 0 43 -3 50 -26 58
-14 6 -27 10 -30 10 -2 0 -4 -31 -4 -70z"/>
<path d="M3000 3400 c-12 -7 -16 -36 -18 -132 -4 -132 5 -178 36 -178 37 0 42
19 42 160 0 154 -11 181 -60 150z"/>
<path d="M3240 3251 c0 -152 1 -161 19 -161 43 0 51 24 51 158 0 70 -4 132 -8
139 -4 6 -20 15 -35 18 l-27 7 0 -161z"/>
<path d="M4291 3396 c-8 -9 -11 -58 -9 -151 3 -114 6 -140 19 -148 9 -6 24 -7
33 -4 14 6 16 27 16 156 0 126 -2 150 -16 155 -23 9 -30 8 -43 -8z"/>
<path d="M1737 3300 c-4 -14 -11 -49 -15 -77 l-9 -53 29 0 c27 0 29 2 23 33
-23 127 -22 123 -28 97z"/>
</g>
</svg>
