<svg version="1.0" xmlns="http://www.w3.org/2000/svg" width="682.667" height="681.333" viewBox="0 0 512 511"><path fill="#fff" d="M0 255.5V511h512V0H0v255.5zM113.7 45.2c5.7 2.6 8.3 7.1 9.5 16.4 1.2 9-.1 22.3-2.7 27.8-1 2.1-6.1 8.5-11.4 14.3-13.2 14.5-14.4 16.3-14.9 23.4l-.4 5.9H123v14H76.7l.5-13.5c.7-17 2-19.9 15.6-35.1 13-14.4 13.5-15.4 13.6-28 .1-11.8-.7-13.4-6.5-13.4-5 0-5.9 1.8-5.9 11.9V77H77.8l.4-10.9c.3-9.8.6-11.2 3-14.7 1.5-2.2 4.1-4.8 5.8-5.8 6.7-3.9 18.9-4.1 26.7-.4zm65.6-.7c2.8 1.1 4.7 5.9 4.7 12 0 4.9-.4 6-2.8 8.5l-2.9 2.8 3.4 9.4c1.8 5.1 3.3 9.4 3.3 9.5 0 .2-1.7.3-3.8.3h-3.7l-3-8.7-3-8.6-.5 8.4-.5 8.4-3.7.3-3.8.3V65.7c0-11.7.3-21.7.8-22.1.8-.9 12.7-.1 15.5.9zm24.7 1.4c0 2.8-.2 3-4.7 3.3l-4.8.3-.3 6.2-.3 6.3h3.6c3.2 0 3.5.2 3.5 3s-.3 3-3.5 3H194v13h5c4.9 0 5 .1 5 3v3h-17V43h17v2.9zm19.5-.6c1.8 1.5 2.8 3.6 3.2 6.5l.6 4.2h-3.6c-3.3 0-3.6-.2-3.9-3.3-.4-3.9-4-5.1-5.7-1.8-1.6 2.8-.1 5.8 5.4 11.1 6 5.8 7.5 8.8 7.5 15 0 6.9-3.1 10-10.2 10-6.9 0-9.8-3-9.8-10 0-4.9.1-5 3-5 2.7 0 3 .3 3 3.2 0 4.4 1.2 6 4.1 5.6 2-.2 2.5-1 2.7-3.9.3-3.2-.4-4.4-6.2-10.8-6.4-6.9-6.6-7.3-6.6-12.5 0-4.4.4-5.8 2.6-8 3.5-3.5 10.1-3.6 13.9-.3zm25.3 1.2c1.9 2.3 2.2 3.7 2.2 11.4 0 8.2-.2 9-2.6 11.5-2 1.9-3.7 2.6-6.5 2.6h-3.8l-.3 7.2-.3 7.3-3.7.3-3.8.3V65.7c0-11.7.3-21.7.8-22.1.4-.5 4.1-.6 8.2-.3 6.5.5 7.8.9 9.8 3.2zm22.1-1.9c4 2.8 5.1 7.3 5.1 20.7 0 6.8-.5 13.8-1.1 15.5-1.4 4-4.9 6.2-9.9 6.2-9.3 0-11-3.3-11-21.3 0-14.9 1-19.1 4.9-21.2 3.5-1.9 9.1-1.9 12 .1zM290.1 55l3.7 11.5.3-11.5.4-11.5 2.8-.3 2.7-.3v44.2l-3.1-.3c-3.1-.3-3.2-.5-7.4-13.3l-4.3-13-.1 13.2L285 87h-6V65.7c0-11.8.3-21.7.7-22.1.4-.4 2.1-.6 3.7-.4 2.8.3 3.1.7 6.7 11.8zm31.1-9c1 1.3 1.8 3.8 1.8 6.1 0 3.7-.2 3.9-3 3.9-2.5 0-3-.4-3-2.4 0-5.1-6.2-6.3-6.8-1.3-.3 2.4.8 4 5.7 9.2 6.7 6.9 8.1 9.7 8.1 15.6 0 6-4.2 9.9-10.5 9.9-3.8 0-5.2-.5-7.6-2.9-2.4-2.4-2.9-3.8-2.9-7.5 0-4.6 0-4.6 3.4-4.6s3.5.1 3.8 4.2c.3 3.8.6 4.3 3 4.6 1.9.2 2.8-.2 3.3-1.7 1-3.4-.4-6.2-6.1-12.3-5.9-6.2-7.4-9.1-7.4-14.4 0-2.6.8-4.4 3-6.6 2.8-2.8 3.5-3 8.2-2.6 3.8.4 5.7 1.2 7 2.8zM334 65v22h-7V43h7v22zm19.9-20c4 2.1 5.2 14.3 1.8 17.8-1.2 1.2-1.1 1.7.9 3.7 4.5 4.5 2.4 17.4-3.2 19.5-1.5.6-5.7 1-9.3.8l-6.6-.3-.3-20.5c-.1-11.2 0-21.1.3-21.9.4-1.1 2-1.3 7.5-.8 3.8.3 7.8 1.1 8.9 1.7zm14.9 17.2L369 81h4c3.8 0 4 .2 4 3v3.1l-7.7-.3-7.8-.3-.3-20.5c-.1-11.2 0-21 .3-21.8.3-.8 1.7-1.2 3.7-1l3.3.3.3 18.7zM397 46c0 2.9-.1 3-5 3h-5v13h3.5c3.2 0 3.5.2 3.5 3s-.3 3-3.5 3H387v13h5c4.9 0 5 .1 5 3v3h-17V43h17v3zM67 95.5V147H50v-39.8l-.1-39.7-5.7 6.3c-3.1 3.4-6 6.2-6.4 6.2-.5 0-.8-3.8-.8-8.4v-8.5l8-9.5 8.1-9.6H67v51.5zm185.3 9.2c2.3.6 4.7 5.4 4.7 9.3 0 2.8-.3 3-3.5 3s-3.5-.2-3.5-3c0-3.2-2.7-5.4-4.9-4-2.9 1.7-1.5 6.1 3.6 11.3 7.4 7.7 8.3 9.4 8.3 15.7 0 4.6-.4 6-2.2 7.7-3 2.7-6.2 3.6-10.4 2.8-5.2-.9-7.4-3.9-7.4-10.2 0-5.2 0-5.3 3-5.3 2.7 0 3 .3 3 3.3 0 1.8.6 4.2 1.4 5.3 2 2.6 5 .8 5.4-3.5.3-2.6-.5-4-5.1-8.9-3-3.1-5.9-6.7-6.6-7.9-1.8-3.6-1.4-10.7.9-13.6 2.7-3.4 6.2-4 13.3-2zm-70.4 1.9c1.5 1.9 2.1 4.1 2.1 7.5 0 4.8-.1 4.9-3 4.9-2.7 0-3-.3-3-3.3 0-4.3-1.2-5.9-4.1-5.5-2.4.3-2.4.4-2.7 15-.2 13.7-.1 14.8 1.7 15.7 3 1.6 5.1-1.1 5.1-6.5 0-4.2.1-4.4 3-4.4 3 0 3 0 3 5.9 0 4.8-.5 6.5-2.3 8.6-3 3.6-9.1 4.3-13.4 1.6-4.2-2.6-5.3-6.9-5.3-20.1.1-18.3 2-22 11.5-22 4.6 0 5.7.4 7.4 2.6zm24.5.5c2.5 3 2.6 3.4 2.6 18 0 17.6-.8 20.2-6.9 22-4.9 1.5-10.2-.1-12.8-3.9-1.5-2.3-1.8-4.8-1.8-16.2 0-7.4.3-14.7.8-16.2 1.3-4.7 4.4-6.8 10.3-6.8 4.6 0 5.5.4 7.8 3.1zm17.3 8.6l3.8 11.8.3-11.8.3-11.7h5.9v43h-6.8l-3.7-11.8c-2-6.4-3.8-12.2-4-12.7-.2-.6-.4 4.7-.4 11.7L219 147h-6v-43h6.8l3.9 11.7zM268 122c0 16.7.1 18 1.9 19 1.5.7 2.3.6 3.5-.6 1.3-1.3 1.6-4.5 1.6-19V104h6v18.9c0 18.3-.1 19.1-2.3 21.6-2.6 3.1-8.9 4.2-12.7 2.3-5.1-2.7-6-6.6-6-25.6V104h8v18zm25.3-16.7c.3.7 1.3 5.9 2.3 11.6 2 11.7 2.4 11.5 4.9-3.2l1.7-9.7h8.8v43h-6l-.1-12.8c0-14.2-.7-13.8-3.4 2-1.5 9-2.1 10.8-3.6 10.8-1.8 0-1.9-.3-5.3-17.5l-1.4-7-.1 12.2-.1 12.3h-6v-43h3.9c2.2 0 4.1.5 4.4 1.3zm39.8 1.6c1.5 1.9 1.9 3.9 1.9 11.1 0 10.8-1.6 13.5-8.5 14.6l-4.5.6V147h-8v-43.2l8.6.3c7.6.4 8.8.7 10.5 2.8zm22.9.1c0 2.7-.3 3-3 3h-3v37h-7v-37h-3c-2.7 0-3-.3-3-3v-3h19v3zm10 18.5V147h-7v-43h7v21.5zm22.4-18.4c2.5 3 2.6 3.4 2.6 18 0 17.6-.8 20.2-6.9 22-2.9.9-4.7.9-7.5-.1-5.7-1.9-7-4.8-7.4-16.7-.8-21.2 1.4-26.3 11.2-26.3 4.8 0 5.7.3 8 3.1zm16.6 7.6c1.9 6 3.8 11.2 4.2 11.8.4.5.8-4.4.8-10.8V104h6v43h-6.9l-4-12.3-3.9-12.2-.1 12.2-.1 12.3h-6v-43h6.6l3.4 10.7zm-174.3 51.5c3.3 2.7 4.3 7.5 4.3 20.4 0 18.8-1.9 21.4-15.6 21.4H213v-21.3c0-11.8.3-21.7.8-22.1 1.1-1.2 15.1.1 16.9 1.6zm30.1-.3c3.1 1.6 4.5 7.4 3.9 15.4-.4 6.1-.8 7.4-3.1 9.4-1.9 1.6-4 2.3-6.7 2.3H251v15h-7v-44.3l7.4.6c4.1.3 8.3 1 9.4 1.6zm25 1.6c3.1 3.6 3.2 15.5.2 18.5-1.1 1.1-2.4 2-2.9 2-.4 0 .4 3.5 1.9 7.7 4.8 13.5 4.7 12.5.4 12.1l-3.8-.3-3.2-9-3.3-9v9.2l-.1 9.3h-7v-44.3l7.8.6c6.7.5 8 .9 10 3.2zm22.1-2.1c4.3 2.3 5.1 5.4 5.1 20.7 0 18.3-1.7 21.9-10.4 21.9-4.4 0-7.8-1.5-9.6-4.3-1.6-2.5-2.6-22-1.5-29.4 1.3-8.7 8.8-12.8 16.4-8.9zm27.4 2.6c2.7 3 2.7 3.1 2.7 17.6 0 20.3-1.7 22.8-15.1 22.2l-6.4-.3-.3-20.5c-.1-11.2 0-21.1.3-21.9.4-1.1 2.1-1.3 8.3-.8 7 .5 8 .9 10.5 3.7zm13.7 15c.5 16.8.7 18.5 2.3 18.8 4.3.8 4.7-1.1 4.7-19.9V164h6v19.5c0 19.5 0 19.6-2.5 22-3.5 3.6-11.6 3.6-14.9 0-1.3-1.4-2.6-3.9-3-5.6-.8-4.4-.8-34.4.1-35.3.4-.4 2.1-.6 3.8-.4l3 .3.5 18.5zm34.5-16.8c2 1.8 2.7 3.5 3.2 8l.6 5.8h-3.6c-3.5 0-3.6-.1-3.9-4.1-.3-4.9-2.7-7.1-5.2-5-1.3 1.1-1.6 3.8-1.6 15.1 0 14.5.6 16.6 4.7 15.8 1.4-.3 1.9-1.5 2.1-6.1l.3-5.7h3.4c3.5 0 3.5 0 3.5 4.5 0 5.5-2.1 11-4.8 12.4-1.2.6-3.9 1.1-6.2 1.1-3.3 0-4.8-.6-7.1-2.9l-2.9-2.9V187c0-19.9 1.4-22.8 11.2-22.9 2.5-.1 4.6.7 6.3 2.1zm56.2 1.2c1.2 1.4 2.5 4.6 2.8 7.1 1 6.6.1 25.6-1.4 28.6-1.6 3.3-5 4.9-10.2 4.9-3.3 0-4.7-.6-7-3.1l-2.9-3.1v-15.2c.1-16.1.7-18.7 5.1-21.3 3.7-2.1 10.9-1 13.6 2.1zM179 165.8c0 .8 6.7 36.5 7.5 39.9.5 2.1.2 2.3-3.4 2.3-3.7 0-3.9-.1-4.5-4-.6-3.9-.8-4-4.5-4s-3.9.1-4.5 4c-.6 3.8-.8 4-4.1 4-3.2 0-3.5-.2-3-2.3.8-3.4 7.5-39.1 7.5-39.9 0-.5 2-.8 4.5-.8s4.5.3 4.5.8zm20.9 10.7l3.6 11 .3-11.3.3-11.2h5.9v43.1l-3.2-.3c-3.2-.3-3.3-.4-7.5-13.3l-4.2-13v13.2L195 208h-6v-43.1l3.7.3 3.7.3 3.5 11zm208.1-9c0 2.1-.5 2.5-3 2.5h-3v38.1l-3.7-.3-3.8-.3-.3-18.8-.2-18.7h-3c-2.5 0-3-.4-3-2.5V165h20v2.5zm9 19V208h-7v-43h7v21.5zm40.1-9.5l3.7 11.5.1-11.8.1-11.7h6v43.1l-3.2-.3c-3.2-.3-3.3-.4-7.4-13.3l-4.2-13-.1 13.2-.1 13.3h-6v-43.1l3.7.3 3.7.3 3.7 11.5zm-269.4 75c29.8 7.1 50.4 27.3 75.4 74 11.9 22.2 16.1 28.3 26.9 39.1 8.4 8.4 10.9 10.2 20 14.8 15.7 7.7 29.6 9.9 42.3 6.6 22.5-5.8 35-23.3 36.4-50.5 1.7-33.8-13.2-55.6-41.9-61.4-9.8-2-15.5-2-23.7 0-15.2 3.7-28 12.5-40.1 27.3-3.6 4.4-7.2 8.1-8 8.1-2.2 0-12.3-18.5-11.5-21 1.1-3.4 18.7-20.3 26.3-25.3 24.4-16 54.5-18.2 80.6-5.8 24.8 11.7 38.7 32.9 41.5 63.1 1.8 19.2-1.6 38.8-9.1 53.3-5 9.6-16.8 22.2-26 27.5-26.2 15.4-61.1 12.1-90.3-8.6-16.1-11.3-28.5-26.8-42.2-52.7-14.5-27.2-22.6-38.9-34.9-50.4-11.5-10.7-26.5-17.1-40.4-17.1-13.2 0-31.7 7.5-39.1 15.8-9.7 10.9-14.5 27.4-13.6 46.7.5 12.6 2.7 19.9 8.3 28.3 9.8 14.8 25 22.5 44.4 22.5 10.4 0 15.4-1.1 23.7-5l5.4-2.6-5.7-5.8c-3.6-3.6-5.4-6.2-4.9-6.7 1.8-1.6 48.8-14.3 49.7-13.4.4.4-1 11.9-3.2 25.5-2.2 13.5-4 24.9-4 25.2 0 1.5-4 .2-6.1-2.1-1.3-1.4-3.6-3.5-5.2-4.6l-2.8-2-4.7 3.1c-6.4 4.1-16.5 8.5-23.2 10.2-8.3 2.1-31.8 1.8-40-.5-14.4-4-30.1-14-38.5-24.4-6.1-7.6-13.2-22.1-15-30.7-1.8-8.5-2-29.3-.4-39.5 4.8-31.1 25.4-53.7 55.1-60.5 4-.9 7.8-1.8 8.3-2 3.7-1.2 22.9-.3 30.2 1.5z"/><path fill="#fff" d="M171 55.9c0 6.4.2 7.1 2 7.1 2.7 0 4.3-3.6 3.7-8.2-.6-4.5-.5-4.3-3.4-5.2-2.2-.7-2.3-.5-2.3 6.3zm67 1.7v8.5l2.8-.3c2.6-.3 2.7-.5 3-7.6.3-7 .2-7.2-2.3-8.2-1.5-.6-2.8-1-3.1-1-.2 0-.4 3.9-.4 8.6zm24-6.7c-1.5 2.8-1.3 27.4.2 28.9 1.8 1.8 4.6 1.4 5.8-.7 1.3-2.5 1.3-24.1 0-27.5-1.1-3.1-4.5-3.5-6-.7zm83 5.1c0 5.3.2 6 2 6 2.2 0 4-2.8 4-6.4 0-4-1.1-5.6-3.6-5.6-2.3 0-2.4.3-2.4 6zm0 18c0 7.2.5 7.9 4.4 6.4 1.2-.5 1.6-2 1.6-6.4s-.4-5.9-1.6-6.4c-3.9-1.5-4.4-.8-4.4 6.4zm-149.3 36.6c-.4.4-.7 7.2-.7 15 0 13 .2 14.4 1.9 15.3 1.3.7 2.3.7 3.5-.2 1.4-1.1 1.6-3.1 1.4-15.7l-.3-14.5-2.5-.3c-1.4-.2-2.9 0-3.3.4zm126.3 7.8c0 7.7.2 8.6 1.9 8.6 3.2 0 4.2-2.4 3.9-9.7-.3-6.6-.4-6.8-3-7.1l-2.8-.3v8.5zm55.7-7.7c-.4.3-.7 7.1-.7 14.9 0 12.7.2 14.4 1.8 15.3 1.1.6 2.4.6 3.5 0 1.5-.9 1.7-2.8 1.7-14.4 0-7.3-.3-14-.6-14.9-.6-1.6-4.5-2.2-5.7-.9zm-157.2 60.5c-.3.8-.4 7.9-.3 15.8.3 13.9.4 14.5 2.4 14.8 4.5.6 5.4-2 5.4-15.2 0-12.9-.6-14.8-4.8-16.1-1.4-.4-2.4-.2-2.7.7zm31.2-.6c-.4.4-.7 4.3-.7 8.6v7.8h6v-8c0-4.4-.4-8-.9-8s-1.6-.2-2.3-.5c-.8-.3-1.7-.2-2.1.1zM275 177c0 6.1.2 7 1.8 7 3 0 4.2-2.1 4.2-7.2 0-4.3-.3-5-2.6-5.8-1.4-.6-2.7-1-3-1-.2 0-.4 3.1-.4 7zm25-6c-1.2.7-1.6 3.6-1.8 13.2-.4 13.2.5 17.8 3.6 17.8 3.7 0 4.2-1.9 4.2-16 0-15.4-1.1-18.1-6-15zm24 14.9c0 15.2.1 16.1 1.9 16.1 4.3 0 5.1-2.4 5.1-15.8 0-7-.4-13.2-.8-13.9-.4-.6-2-1.5-3.5-1.8l-2.7-.7v16.1zm105.1-14.5c-.8.9-1.1 5.8-.9 15.1.3 11.4.6 14 1.9 14.8.9.6 2.4.7 3.3.4 1.4-.6 1.6-2.7 1.6-15.6 0-12.6-.2-15-1.6-15.5-2.3-.9-3-.8-4.3.8zM173.7 181c-.4 1.4-1.1 4.9-1.5 7.7l-.9 5.3h2.9c2.7 0 2.9-.2 2.3-3.3-2.3-12.7-2.2-12.3-2.8-9.7z"/></svg>