<?xml version="1.0" standalone="no"?>
<!DOCTYPE svg PUBLIC "-//W3C//DTD SVG 20010904//EN"
 "http://www.w3.org/TR/2001/REC-SVG-20010904/DTD/svg10.dtd">
<svg version="1.0" xmlns="http://www.w3.org/2000/svg"
 width="512.000000pt" height="507.000000pt" viewBox="0 0 512.000000 507.000000"
 preserveAspectRatio="xMidYMid meet">

<g transform="translate(0.000000,507.000000) scale(0.100000,-0.100000)"
fill="#000000" stroke="none">
<path d="M0 2535 l0 -2535 2560 0 2560 0 0 2535 0 2535 -2560 0 -2560 0 0
-2535z m1169 2106 c54 -28 98 -83 116 -145 13 -46 16 -107 13 -383 l-3 -328
-28 -50 c-93 -168 -351 -169 -443 -2 l-29 52 0 355 c0 347 0 356 22 396 29 55
97 112 142 120 20 3 41 7 46 10 23 9 128 -7 164 -25z m-501 -504 l2 -518 -87
3 -88 3 -3 394 -2 393 -60 -63 -59 -64 -1 93 0 93 82 95 82 95 65 -3 66 -3 3
-518z m1152 503 c28 -15 40 -50 40 -116 0 -48 -4 -60 -28 -84 l-29 -28 28 -77
c46 -127 46 -117 2 -113 l-38 3 -32 90 -32 90 0 -93 -1 -93 -37 3 -38 3 -3
205 c-1 112 0 211 3 219 4 11 20 13 75 8 38 -3 78 -11 90 -17z m250 -9 c0 -28
-2 -30 -47 -33 l-48 -3 -3 -62 -3 -63 36 0 c32 0 35 -2 35 -30 0 -28 -3 -30
-35 -30 l-35 0 0 -65 0 -65 50 0 c49 0 50 -1 50 -30 l0 -30 -85 0 -85 0 0 220
0 220 85 0 85 0 0 -29z m190 16 c60 -21 71 -57 68 -224 -3 -141 -3 -143 -31
-170 -24 -25 -36 -28 -107 -31 l-80 -4 0 214 c0 118 3 218 7 221 10 11 105 7
143 -6z m523 2 c32 -14 47 -49 47 -104 0 -43 -1 -45 -29 -45 -26 0 -29 4 -34
41 -6 49 -18 63 -45 55 -25 -8 -32 -43 -32 -167 0 -111 10 -149 39 -149 26 0
41 29 41 79 0 39 2 41 30 41 30 0 30 0 30 -56 0 -87 -27 -123 -93 -124 -52 0
-93 23 -106 61 -14 40 -14 252 -1 301 19 66 88 97 153 67z m265 -21 c3 -27 2
-28 -47 -28 l-51 0 0 -65 0 -65 35 0 c32 0 35 -2 35 -30 0 -28 -3 -30 -35 -30
l-35 0 0 -65 0 -65 51 0 c49 0 50 -1 47 -27 -3 -28 -3 -28 -90 -31 l-88 -3 0
214 c0 117 3 217 7 221 4 4 43 5 88 4 79 -3 80 -3 83 -30z m225 -8 c27 -30 27
-31 27 -176 0 -203 -17 -228 -151 -222 l-64 3 -3 205 c-1 112 0 211 3 219 4
11 21 13 83 8 70 -5 80 -9 105 -37z m-831 -146 c3 -150 5 -178 19 -187 9 -6
24 -7 33 -4 14 6 16 29 16 187 l0 180 35 0 35 0 0 -186 0 -186 -29 -29 c-24
-24 -38 -29 -76 -29 -40 0 -52 5 -76 31 l-29 31 0 184 0 184 35 0 35 0 2 -176z
m1578 -451 c12 -16 20 -41 20 -64 0 -37 -2 -39 -30 -39 -25 0 -30 4 -30 24 0
35 -26 59 -51 46 -36 -20 -23 -57 40 -124 62 -64 81 -98 81 -146 0 -87 -82
-135 -160 -95 -38 20 -50 43 -50 99 0 46 0 46 35 46 35 0 35 0 35 -44 0 -42
10 -56 40 -56 17 0 31 39 24 66 -4 14 -34 55 -67 90 -49 53 -60 72 -64 107 -7
58 17 104 58 115 50 13 97 3 119 -25z m-2290 -188 l0 -215 -40 0 -40 0 0 215
0 215 40 0 40 0 0 -215z m147 98 l38 -118 3 118 3 117 29 0 30 0 0 -215 0
-215 -33 0 -34 0 -40 128 -41 127 -1 -127 -1 -128 -30 0 -30 0 0 215 0 215 35
0 34 0 38 -117z m313 87 c0 -29 -1 -30 -50 -30 l-50 0 0 -60 0 -60 35 0 c32 0
35 -2 35 -30 0 -28 -3 -30 -35 -30 l-35 0 0 -65 0 -65 50 0 c49 0 50 -1 50
-30 l0 -30 -85 0 -85 0 0 215 0 215 85 0 85 0 0 -30z m211 17 c32 -24 43 -63
47 -169 5 -129 -2 -188 -29 -217 l-20 -21 26 -10 c22 -8 34 -38 20 -52 -3 -2
-33 0 -67 7 -45 8 -64 16 -66 28 -2 9 -12 19 -22 22 -11 3 -29 18 -40 32 -18
23 -20 40 -20 179 0 149 1 153 26 183 23 27 32 31 77 31 29 0 59 -6 68 -13z
m159 -167 c0 -162 2 -180 18 -189 11 -6 24 -6 35 0 15 9 17 30 17 189 l0 180
35 0 35 0 0 -167 c0 -200 -8 -238 -54 -260 -44 -20 -100 -10 -132 24 -24 25
-24 29 -24 214 l0 189 35 0 35 0 0 -180z m361 -20 c21 -107 38 -203 38 -212 1
-14 -7 -18 -34 -18 -30 0 -35 4 -41 28 -11 49 -13 52 -49 52 -33 0 -35 -2 -41
-40 -6 -37 -9 -40 -40 -40 -19 0 -34 2 -34 4 0 7 71 380 77 404 5 20 11 23 46
20 l41 -3 37 -195z m149 15 l0 -185 40 0 c38 0 40 -2 40 -30 l0 -30 -80 0 -80
0 0 215 0 215 40 0 40 0 0 -185z m190 -30 l0 -215 -35 0 -35 0 0 215 0 215 35
0 35 0 0 -215z m230 185 c0 -27 -3 -30 -30 -30 l-30 0 0 -185 0 -185 -40 0
-40 0 0 185 0 185 -30 0 c-27 0 -30 3 -30 30 l0 30 100 0 100 0 0 -30z m100
-185 l0 -215 -35 0 -35 0 0 215 0 215 35 0 35 0 0 -215z m220 185 c0 -29 -1
-30 -50 -30 l-50 0 0 -60 0 -60 35 0 c32 0 35 -2 35 -30 0 -28 -3 -30 -35 -30
l-35 0 0 -65 0 -65 50 0 c49 0 50 -1 50 -30 l0 -30 -90 0 -90 0 0 215 0 215
90 0 90 0 0 -30z m-800 -1292 c0 -5 -205 -8 -455 -8 -250 0 -455 3 -455 7 0 5
102 110 227 235 l228 228 227 -227 c126 -125 228 -231 228 -235z m-1320 -872
c0 -250 -4 -457 -8 -460 -5 -3 -111 98 -238 225 l-229 229 230 230 c126 127
233 230 237 230 5 0 8 -204 8 -454z m1348 296 l3 -152 -483 2 -483 3 -3 130
c-1 72 0 140 3 153 l5 22 478 -2 477 -3 3 -153z m624 -534 l-232 -233 0 465 0
465 232 -233 233 -232 -233 -232z m-622 -68 l0 -150 -482 2 -483 3 -3 134 c-1
74 0 141 2 148 4 10 101 13 486 13 l480 0 0 -150z m-250 -805 l-235 -235 -227
227 c-126 125 -228 231 -228 235 0 5 208 8 462 8 l463 0 -235 -235z"/>
<path d="M998 4509 c-32 -18 -38 -79 -38 -379 0 -261 2 -299 18 -330 16 -33
20 -35 67 -35 47 0 51 2 67 35 16 31 18 69 18 330 0 300 -5 352 -37 376 -21
16 -71 18 -95 3z"/>
<path d="M1730 4531 c0 -63 2 -71 19 -71 31 0 44 26 38 76 -5 51 -4 49 -34 58
-22 7 -23 5 -23 -63z"/>
<path d="M2185 4588 c-3 -8 -4 -79 -3 -158 3 -136 4 -145 23 -148 45 -5 50 9
50 152 0 77 -4 139 -10 144 -19 18 -55 24 -60 10z"/>
<path d="M3160 4441 c0 -152 1 -161 19 -161 43 0 51 24 51 158 0 70 -4 132 -8
139 -4 6 -20 15 -35 18 l-27 7 0 -161z"/>
<path d="M2307 3984 c-4 -4 -7 -71 -7 -149 0 -118 3 -145 16 -156 11 -9 20
-10 32 -2 15 9 17 31 17 159 l0 149 -25 3 c-14 2 -29 0 -33 -4z"/>
<path d="M2826 3859 c-4 -29 -10 -64 -13 -76 -4 -20 -1 -23 22 -23 l27 0 -7
57 c-11 92 -21 105 -29 42z"/>
</g>
</svg>
