<svg version="1.0" xmlns="http://www.w3.org/2000/svg" width="681.333" height="680" viewBox="0 0 511 510"><path fill="#fff" d="M0 255v255h511V0H0v255zM173 58v19h4c3.8 0 4 .2 4 3v3.1l-7.7-.3-7.8-.3-.3-20.5c-.1-11.2 0-21 .2-21.7.3-.7 2.1-1.3 4.1-1.3h3.5v19zm19 3v22h-7V39h7v22zm21-19.1c0 2.8-.2 3-4.7 3.3l-4.8.3v12l3.8.3c3.1.3 3.7.7 3.7 2.7s-.6 2.4-3.7 2.7l-3.8.3-.3 9.8-.3 9.8-3.2-.3-3.2-.3-.3-21.8L196 39h17v2.9zm21 .1c0 2.9-.1 3-5 3h-5v13h3.5c3.1 0 3.5.3 3.5 2.5s-.4 2.5-3.5 2.5H224v14h5.1c4.9 0 5 .1 4.7 2.7l-.3 2.8h-17l-.3-20.5c-.1-11.2 0-21 .2-21.7.4-.9 3.1-1.3 9.1-1.3h8.5v3zM65 91.5V143H47V64.6l-6 5.9-6 5.9V58.5l8.1-9.3 8-9.2H65v51.5zm53-15V113h7v13h-7v17h-17v-17H71v-5.5c0-4.8 2-10.7 14.8-43L100.5 40H118v36.5zm128.4 23.9c5 2.1 6.1 5.9 6.1 21.1 0 18-1.9 21.7-11 21.7s-11-3.7-11-21.7c0-15 1.1-19 5.9-21.1 4-1.7 5.9-1.7 10 0zm-64.4.6c3.8 2 5.2 13.2 2.2 17-1.8 2.2-1.8 2.3.5 4.6 4.2 4.2 2.7 17-2.3 19.3-1.4.6-5.8 1.1-9.9 1.1H165v-43h7.6c4.1 0 8.4.5 9.4 1zm26 2c0 2.9-.1 3-5 3h-5v12h3.5c3.2 0 3.5.2 3.5 3s-.3 3-3.5 3H198v13h5c4.9 0 5 .1 5 3v3h-18v-43h18v3zm11 15.4v18.5l4.3.3c3.8.3 4.2.6 4.5 3l.3 2.8H212v-43h7v18.4zm43.4-14.7c.3 2.1 1.1 7.6 1.7 12.3.6 4.7 1.2 8.6 1.3 8.8.2.1.9-3.9 1.5-9 2.1-16.3 2-15.8 5.1-15.8 3.2 0 3.3.2 5.1 14.2.7 5.4 1.5 9.8 1.9 9.8.3 0 1.2-5.4 1.9-12l1.3-12h2.9c3.6 0 3.6-1.1.4 23.2-1.4 10.5-2.5 19.3-2.5 19.5 0 .2-1.5.3-3.4.3-3.9 0-3.4 1.1-6.1-15-.9-5.2-1.8-9.6-1.9-9.7-.2-.2-1.1 5.3-2.1 12.3l-1.8 12.5-3.6-.3-3.5-.3-2.2-16c-1.1-8.8-2.4-18.4-2.8-21.3l-.7-5.2h3.5c3.2 0 3.5.3 4 3.7zm43.5 9.3c1.6 13.9 2.1 13.6 4.1-2.9l1.2-10.2 3.2.3 3.1.3 1.6 11.8c1 6.5 1.9 12.1 2.2 12.3.2.3 1.1-5.1 1.8-11.8l1.4-12.3 3.3-.3c3-.3 3.2-.1 2.8 2-.3 1.3-1.5 9.9-2.6 19.3-2.8 22.9-2.4 21.5-6.4 21.5-3.8 0-3.4 1-5.7-14.8-.7-4.5-1.6-8.2-1.9-8.2-.4 0-1 2.4-1.4 5.2-.4 2.9-1.2 8.1-1.7 11.5-1.1 6.2-1.1 6.3-4.4 6.3-3.8 0-3.4 1.5-6.5-22-1.1-8.5-2.2-16.8-2.5-18.3-.5-2.7-.3-2.8 3.3-2.5l3.7.3 1.4 12.5zm41.1-12.1c0 1.2 7 38.2 7.6 40.3.4 1.5-.1 1.8-3.4 1.8-3.8 0-4-.1-4.6-4-.6-3.9-.7-4-4.6-4-3.7 0-4 .2-4 2.7 0 4.1-1.3 5.5-4.7 5.1l-3-.3 1.7-9c1-5 2.8-14.5 4-21.3l2.3-12.2h4.3c2.4 0 4.4.4 4.4.9zm26 2.1c0 2.7-.3 3-3 3h-3v37h-7v-37h-3c-2.7 0-3-.3-3-3v-3h19v3zm21 0c0 2.9-.1 3-5 3h-5v12h3.5c3.2 0 3.5.2 3.5 3s-.3 3-3.5 3H384v13h5c4.9 0 5 .1 5 3v3h-18v-43h18v3zm21.5-.5c2.2 2.1 2.5 3.3 2.5 9.5 0 6.3-.3 7.4-2.6 9.7l-2.6 2.6 3.1 8.8c1.7 4.8 3.1 9.1 3.1 9.4 0 .3-1.6.5-3.6.3-3.7-.3-3.7-.4-7-9.3l-3.3-9v9.2l-.1 9.3h-7v-43h7.5c6.7 0 7.9.3 10 2.5zM183.6 203.1c11.4 7.8 26.9 12.5 38 11.5 7.4-.6 15.4-3.5 21.8-7.8 10.1-6.8 8.5-6.7 15.7-1.6 9.6 6.8 16.6 9.1 27.4 9.2 11.2.1 20.2-2.6 31.7-9.5l8-4.9 3.9 3.4c13.1 11.2 33 14.9 49.1 9.1 10.8-3.9 10.3-4.1 10.6 4l.3 7-4.8 3.2c-16.8 11.3-35.6 9.7-52.9-4.3l-5.3-4.4-6.3 4.8c-13.9 10.5-28.9 13.2-44.7 8.1-5.2-1.7-14.9-6.7-19.7-10.1l-4.2-3-4.8 3.5c-11.5 8.2-22.7 12-34.9 11.9-11.1-.1-23.3-4.9-31.2-12.4l-3.2-3.1-4.3 3.5c-13.2 10.7-27.3 15.1-39.8 12.3-4-.9-12.1-4.8-16.2-7.8-2.6-1.9-2.8-2.5-2.8-9.5 0-6.6.2-7.4 1.8-6.9.9.4 4.4 1.6 7.7 2.8 9 3.3 23.3 3.8 32.2 1 6.7-2 17.4-8.1 20.2-11.4 1.7-2.2 1.5-2.2 6.7 1.4zm1 43c9.6 6.6 22.9 10.9 34 10.9 10.6 0 18.9-3.4 32.8-13.4.8-.6 3.3.7 7.4 3.7 17.8 13.1 39.7 12.7 61.1-1 5-3.2 5.8-3.4 7.7-2.2l7.5 5c7.2 4.7 12.5 6.7 21.4 8 8.7 1.2 18.1-.1 26.4-3.5 3.1-1.4 5.9-2.2 6.3-1.9.5.2.8 3.5.8 7.3v6.8l-5.5 3.6c-10.3 6.9-20 8.9-30.4 6.2-7.5-1.9-16.4-6.5-22-11.2-2.1-1.9-4.4-3.4-5.1-3.4-.7 0-3.1 1.6-5.3 3.6-8.1 6.9-20.4 11.4-31.1 11.4-9 0-22.3-4.9-32.6-11.9l-5.6-3.9-7.1 4.8c-12.9 8.7-26.9 12.3-39 10.3-7.6-1.3-17.4-5.9-23.3-10.8-2.3-1.9-4.6-3.5-5.1-3.5s-3.3 1.8-6.1 4.1c-9.1 7.1-21 11.9-29.9 11.9-5.6 0-15.8-3.5-21.6-7.5l-5.3-3.6v-6.8c0-3.7.3-7 .6-7.3.3-.3 3.2.5 6.4 1.8 8.8 3.5 18.5 4.8 27.2 3.4 8.3-1.2 21.9-7.3 25.7-11.4 3.1-3.3 4.3-3.3 9.7.5zm-51.3 66.5c15.2 5.2 31.3 18.4 41.7 34.2l5.3 8 6.1-4.8c24.9-19.5 57.7-35.2 82.6-39.6 36-6.2 73.4 8.6 107 42.6 12.1 12.3 16.6 18.2 15.3 20.3-2.3 4.1-15.8 18.8-23.3 25.4-32.6 28.7-67.1 40.8-99.1 34.7-24.8-4.7-55.8-19.4-81.1-38.4l-7.6-5.8-3.5 5.7c-13.3 21.3-34.8 36.4-56.4 39.5-5.6.8-5.6.1.6-12.2 9.1-18.2 14-35.5 14.1-49.5 0-15.3-6.5-38.2-15.6-54.4-4.8-8.7-4.7-9.7 1.8-8.8 2.8.4 8.3 1.8 12.1 3.1z"/><path fill="#fff" d="M100.7 73c-.4.8-3.8 10-7.6 20.5l-6.9 19 7.5.3c4.2.2 7.7.1 7.9-.1.3-.2.3-9.6.2-20.8-.2-11.2-.6-19.7-1.1-18.9zm138.9 33.3c-1.4 1.1-1.6 3.1-1.4 15.7l.3 14.5h6l.3-14.7c.2-13.5.1-14.8-1.6-15.7-1.4-.7-2.4-.7-3.6.2zM173 112c0 5.1.3 6 1.8 6 2.7 0 4.2-2 4.2-5.6 0-4.8-.9-6.4-3.6-6.4-2.3 0-2.4.3-2.4 6zm0 18.5v6.6l2.8-.3c2.6-.3 2.7-.5 2.7-6.3s-.1-6-2.7-6.3l-2.8-.3v6.6zM341.7 116c-.4 1.4-1.1 4.9-1.5 7.7l-.9 5.3h2.9c2.7 0 2.9-.2 2.3-3.3-2.3-12.7-2.2-12.3-2.8-9.7zm63.3-3.5v6.6l2.8-.3c2.6-.3 2.7-.5 2.7-6.3s-.1-6-2.7-6.3l-2.8-.3v6.6zm-96.1 234.8c-10.7 7.2-10.6 22.6.3 28.7 12.6 7.1 27.9-3.7 24.8-17.6-2.6-11.3-16-17.3-25.1-11.1z"/></svg>