<?xml version="1.0" standalone="no"?>
<!DOCTYPE svg PUBLIC "-//W3C//DTD SVG 20010904//EN"
 "http://www.w3.org/TR/2001/REC-SVG-20010904/DTD/svg10.dtd">
<svg version="1.0" xmlns="http://www.w3.org/2000/svg"
 width="508.000000pt" height="508.000000pt" viewBox="0 0 508.000000 508.000000"
 preserveAspectRatio="xMidYMid meet">

<g transform="translate(0.000000,508.000000) scale(0.100000,-0.100000)"
fill="#000000" stroke="none">
<path d="M0 2540 l0 -2540 2540 0 2540 0 0 2540 0 2540 -2540 0 -2540 0 0
-2540z m1107 2108 c61 -40 84 -97 90 -221 4 -93 2 -106 -19 -147 -13 -25 -37
-54 -55 -66 l-32 -21 37 -24 c67 -44 77 -75 77 -234 0 -129 -2 -144 -25 -190
-37 -75 -96 -107 -205 -113 -73 -4 -90 -1 -137 21 -93 42 -118 97 -118 258 l0
109 75 0 75 0 0 -67 c1 -81 13 -140 34 -161 24 -25 85 -20 107 7 16 20 19 41
19 151 0 127 0 129 -26 149 -20 15 -41 21 -80 21 l-54 0 0 65 0 65 39 0 c50 0
99 18 111 40 6 10 10 60 10 110 0 84 -2 93 -26 117 -20 20 -31 24 -57 19 -17
-4 -35 -10 -40 -15 -13 -13 -27 -81 -27 -139 l0 -53 -77 3 -78 3 2 80 c3 103
18 156 57 200 43 50 93 66 197 63 74 -3 91 -7 126 -30z m633 7 c17 -18 25 -40
28 -80 l4 -55 -35 0 c-36 0 -36 0 -39 47 -2 37 -7 49 -21 51 -41 8 -47 -13
-47 -158 0 -147 7 -169 50 -155 17 5 20 15 20 61 l0 54 35 0 35 0 0 -50 c0
-56 -20 -104 -49 -120 -49 -25 -128 -2 -149 45 -7 16 -12 79 -12 166 0 188 15
218 111 219 36 0 50 -5 69 -25z m142 -162 l3 -188 43 -3 c40 -3 43 -5 40 -30
-3 -26 -5 -27 -80 -30 l-78 -3 0 221 0 220 35 0 35 0 2 -187z m188 -33 l0
-220 -35 0 -35 0 0 220 0 220 35 0 35 0 0 -220z m138 173 c6 -27 16 -79 23
-116 15 -79 22 -72 38 38 20 131 17 125 67 125 l44 0 0 -220 0 -220 -30 0 -30
0 -1 133 c0 149 -8 145 -34 -17 -12 -69 -23 -110 -32 -113 -8 -3 -16 -3 -19 0
-3 2 -15 58 -27 123 l-22 119 -5 -120 -5 -120 -27 -3 -28 -3 0 220 0 221 39 0
c39 0 39 -1 49 -47z m407 -160 c21 -115 38 -212 39 -218 0 -5 -15 -10 -34 -10
-31 0 -35 3 -43 38 -8 35 -11 37 -47 37 -36 0 -38 -1 -44 -41 -6 -38 -8 -40
-39 -37 -17 2 -31 8 -31 13 1 6 18 103 39 218 l39 207 41 0 41 0 39 -207z
m225 177 c0 -27 -3 -30 -30 -30 l-30 0 0 -190 0 -190 -35 0 -35 0 0 190 0 190
-30 0 c-27 0 -30 3 -30 30 l0 30 95 0 95 0 0 -30z m210 0 c0 -29 -1 -30 -50
-30 l-50 0 0 -65 0 -65 35 0 c31 0 35 -3 35 -25 0 -22 -4 -25 -35 -25 l-35 0
0 -70 0 -70 51 0 c49 0 50 -1 47 -27 l-3 -28 -85 0 -85 0 -3 205 c-1 112 0
210 2 217 4 9 31 13 91 13 l85 0 0 -30z m-2430 -495 l0 -515 -85 0 -85 0 0
394 0 394 -60 -61 -60 -62 0 93 0 93 77 89 77 90 68 0 68 0 0 -515z m1376
-106 c19 -18 24 -33 24 -76 0 -52 0 -53 -30 -53 -27 0 -30 3 -30 34 0 44 -24
70 -51 55 -18 -9 -19 -20 -17 -157 3 -146 3 -147 27 -150 31 -5 41 12 41 71 0
46 1 47 30 47 l30 0 0 -63 c0 -74 -16 -102 -65 -116 -47 -13 -98 3 -121 37
-16 23 -19 47 -19 177 0 106 4 157 13 173 30 53 122 64 168 21z m548 21 c14
-5 35 -24 46 -42 17 -29 20 -51 20 -171 0 -182 -17 -218 -109 -219 -95 -1
-113 38 -109 227 3 127 5 147 24 172 29 38 80 52 128 33z m-830 -17 c6 -22 76
-392 76 -404 0 -5 -15 -9 -34 -9 -36 0 -46 12 -46 56 0 21 -4 24 -39 24 -41 0
-51 -11 -51 -56 0 -21 -5 -24 -35 -24 -19 0 -35 3 -35 7 0 11 70 386 76 406 4
12 16 17 44 17 28 0 40 -5 44 -17z m526 -13 c0 -27 -3 -30 -30 -30 l-30 0 0
-185 0 -185 -35 0 -35 0 0 185 0 185 -30 0 c-27 0 -30 3 -30 30 l0 30 95 0 95
0 0 -30z m110 -185 l0 -215 -35 0 -35 0 0 215 0 215 35 0 35 0 0 -215z m412
97 l37 -117 0 118 1 117 30 0 30 0 0 -216 0 -215 -32 3 c-32 3 -32 4 -74 133
l-42 130 -1 -132 -1 -133 -30 0 -30 0 0 215 0 215 38 0 37 0 37 -118z m148
-1136 c512 -81 937 -291 1299 -641 93 -90 261 -285 261 -303 0 -15 -149 -191
-235 -278 -377 -378 -885 -619 -1424 -675 -142 -15 -472 -6 -596 15 -590 101
-1100 398 -1468 855 l-67 83 41 52 c321 407 708 671 1199 820 134 41 266 65
490 90 73 9 409 -4 500 -18z"/>
<path d="M2528 4518 c-4 -9 -10 -44 -14 -77 l-7 -61 27 0 c25 0 26 2 21 33 -3
17 -9 52 -13 77 -5 30 -10 39 -14 28z"/>
<path d="M2489 4013 c-10 -2 -20 -14 -23 -26 -10 -37 -7 -247 4 -268 13 -23
55 -25 64 -3 3 9 6 73 6 144 0 104 -3 132 -16 144 -8 9 -16 15 -17 15 -1 -1
-9 -3 -18 -6z"/>
<path d="M1656 3891 c-4 -30 -10 -67 -13 -82 -5 -26 -3 -29 22 -29 27 0 27 0
21 54 -4 30 -11 67 -15 82 -7 26 -8 24 -15 -25z"/>
<path d="M2480 2654 c-116 -23 -280 -81 -309 -109 -2 -3 43 -4 101 -2 117 2
138 -6 138 -55 0 -21 10 -39 36 -62 l37 -34 -39 -24 c-53 -34 -101 -58 -114
-58 -24 0 -7 28 30 49 54 30 52 45 -7 38 -224 -25 -271 -38 -296 -79 -16 -24
6 -45 66 -63 55 -16 52 -17 120 37 21 17 30 19 39 10 14 -14 -8 -42 -57 -72
-26 -16 -38 -18 -66 -10 -54 16 -91 12 -147 -16 -41 -20 -52 -31 -52 -49 0
-31 -15 -39 -68 -36 -61 4 -89 -26 -63 -68 8 -12 21 -11 83 9 40 12 82 29 93
36 32 22 43 17 76 -36 17 -27 33 -50 35 -50 3 0 2 17 -2 38 l-7 37 27 -25 c18
-17 36 -24 55 -22 40 4 48 -22 16 -54 -30 -30 -76 -31 -140 -4 -71 30 -164 52
-195 45 -18 -4 -38 -21 -54 -45 -22 -34 -26 -51 -26 -115 0 -124 43 -296 76
-309 8 -3 33 3 54 14 22 11 44 20 51 20 21 0 69 -42 69 -61 0 -14 7 -19 25
-19 21 0 26 -6 31 -41 4 -22 12 -43 19 -46 7 -2 16 -30 20 -61 4 -31 11 -65
16 -74 12 -23 50 -23 92 -1 39 20 52 36 73 93 10 25 25 54 35 65 21 24 39 87
39 137 0 29 8 47 35 77 44 48 45 80 5 105 -17 9 -41 29 -54 43 -26 28 -49 100
-36 108 5 3 28 -17 52 -45 24 -28 51 -53 60 -56 24 -7 84 21 98 45 14 27 5 43
-64 111 -50 48 -69 80 -49 80 4 0 23 -11 42 -23 20 -13 49 -32 64 -41 16 -10
35 -32 42 -49 18 -44 40 -61 103 -82 30 -9 69 -30 87 -46 18 -16 37 -29 42
-29 16 0 43 58 43 94 0 25 6 38 20 46 33 18 55 -4 90 -91 28 -68 41 -87 82
-120 28 -21 56 -39 64 -39 20 0 17 30 -6 65 -41 63 -18 120 64 154 31 12 56
28 56 33 0 6 -5 28 -12 50 -15 52 1 72 35 40 32 -30 74 -29 88 2 23 49 -54
232 -146 348 -96 122 -261 230 -412 269 -75 19 -252 33 -303 23z"/>
<path d="M2005 2432 c-19 -13 -55 -65 -55 -78 0 -18 34 -18 70 1 30 15 48 54
35 74 -7 13 -35 14 -50 3z"/>
<path d="M1942 2303 c-22 -4 -54 -47 -80 -106 -15 -34 -15 -37 -2 -37 6 0 32
19 58 43 26 24 60 51 75 61 23 14 26 20 16 32 -11 14 -23 15 -67 7z"/>
<path d="M3300 1963 c0 -5 4 -14 9 -22 6 -10 4 -25 -6 -45 -10 -19 -14 -45
-10 -72 5 -50 45 -120 59 -106 5 5 12 52 15 103 5 86 3 96 -17 122 -20 25 -50
37 -50 20z"/>
<path d="M2725 1784 c-9 -9 -13 -20 -8 -25 15 -14 58 -19 73 -9 13 9 12 13 -9
30 -28 24 -35 25 -56 4z"/>
<path d="M3120 1787 c0 -19 21 -37 42 -37 22 0 23 13 2 34 -19 19 -44 21 -44
3z"/>
<path d="M3153 1704 c-7 -19 13 -34 44 -34 28 0 38 17 23 35 -17 20 -59 19
-67 -1z"/>
<path d="M3244 1645 c-21 -12 -84 -35 -139 -49 -110 -30 -136 -48 -160 -111
-15 -39 -15 -46 0 -101 22 -75 28 -81 59 -60 30 19 46 21 46 3 0 -21 85 -14
110 8 36 33 86 106 125 183 33 66 35 76 25 107 -6 19 -15 37 -19 39 -4 3 -25
-6 -47 -19z"/>
<path d="M2441 1641 c-11 -11 -22 -40 -26 -68 -3 -26 -8 -57 -10 -68 -2 -11 0
-27 5 -34 9 -16 15 -4 60 111 28 74 14 102 -29 59z"/>
<path d="M2935 1248 c-16 -6 -46 -23 -65 -38 -19 -15 -40 -29 -46 -33 -6 -3
-53 8 -105 25 -107 35 -218 46 -272 29 -49 -17 -97 -63 -97 -94 0 -22 7 -27
53 -39 77 -20 296 -17 377 6 103 28 286 123 269 140 -11 12 -86 15 -114 4z"/>
</g>
</svg>
