<?xml version="1.0" standalone="no"?>
<!DOCTYPE svg PUBLIC "-//W3C//DTD SVG 20010904//EN"
 "http://www.w3.org/TR/2001/REC-SVG-20010904/DTD/svg10.dtd">
<svg version="1.0" xmlns="http://www.w3.org/2000/svg"
 width="517.000000pt" height="516.000000pt" viewBox="0 0 517.000000 516.000000"
 preserveAspectRatio="xMidYMid meet">
<metadata>
Created by potrace 1.15, written by Peter Selinger 2001-2017
</metadata>
<g transform="translate(0.000000,516.000000) scale(0.100000,-0.100000)"
fill="#000000" stroke="none">
<path d="M40 2585 l0 -2565 2563 2 2562 3 3 2563 2 2562 -2565 0 -2565 0 0
-2565z m890 1625 l0 -520 -85 0 -85 0 0 397 0 397 -65 -64 -65 -64 0 89 0 90
83 98 82 97 67 0 68 0 0 -520z m680 403 c18 -60 37 -112 41 -117 5 -6 9 42 9
108 l0 117 28 -3 27 -3 0 -215 0 -215 -30 0 c-30 0 -31 2 -71 125 l-42 125 -3
-125 -4 -125 -27 -3 -28 -3 0 220 0 221 33 0 34 0 33 -107z m319 91 c40 -28
51 -73 51 -204 0 -131 -11 -176 -51 -204 -48 -33 -134 -12 -157 39 -7 16 -12
79 -12 166 0 151 10 192 53 209 36 14 91 11 116 -6z m14 -625 l27 -29 0 -154
c0 -139 -2 -156 -21 -179 -49 -64 -155 -52 -185 20 -23 54 -17 297 9 336 35
53 123 56 170 6z m-258 6 c23 -22 25 -32 25 -116 0 -81 -3 -96 -22 -116 -16
-17 -32 -23 -65 -23 l-43 0 0 -75 0 -75 -35 0 -35 0 0 215 0 215 75 0 c67 0
79 -3 100 -25z m402 -114 c12 -73 24 -135 26 -137 2 -3 15 59 28 136 l23 140
33 0 c18 0 33 -3 33 -8 0 -8 -67 -365 -75 -399 -4 -19 -12 -23 -44 -23 l-40 0
-10 53 c-16 77 -71 368 -71 373 0 3 17 4 37 2 l37 -3 23 -134z m353 109 c0
-29 -1 -30 -50 -30 l-50 0 0 -60 0 -60 35 0 c32 0 35 -2 35 -30 0 -28 -3 -30
-35 -30 l-35 0 0 -64 0 -65 48 -3 c43 -3 47 -5 50 -30 l3 -28 -90 0 -91 0 0
215 0 215 90 0 90 0 0 -30z m195 24 c27 -11 45 -60 45 -124 0 -53 -4 -65 -27
-88 l-27 -26 27 -76 c14 -41 29 -83 32 -92 6 -15 1 -18 -32 -18 l-38 0 -30 88
-30 87 -3 -87 -3 -88 -39 0 -40 0 0 215 0 215 74 0 c41 0 82 -3 91 -6z m265
-24 c0 -27 -3 -30 -30 -30 l-30 0 0 -185 0 -185 -40 0 -40 0 0 184 0 185 -27
3 c-22 2 -29 9 -31 31 l-3 27 100 0 101 0 0 -30z m116 -45 c10 -41 21 -72 25
-70 4 3 15 36 24 75 17 70 17 70 51 70 19 0 34 -3 34 -7 0 -4 -18 -66 -40
-139 -31 -104 -40 -149 -40 -208 l0 -76 -35 0 -35 0 0 81 c0 65 -7 107 -36
202 -20 66 -38 126 -41 133 -4 10 5 14 35 14 l40 0 18 -75z m-1932 -1215 c82
-72 66 -196 -30 -236 -45 -19 -78 -18 -122 5 -46 24 -72 67 -72 121 0 84 56
140 142 140 38 0 54 -6 82 -30z m3121 10 c106 -65 73 -233 -50 -256 -111 -20
-203 104 -151 205 35 67 134 93 201 51z m-1930 -80 c34 -21 65 -73 65 -109 0
-35 -26 -86 -54 -108 -61 -49 -148 -33 -193 36 -77 115 63 254 182 181z m796
5 c63 -33 88 -124 52 -186 -23 -39 -92 -72 -130 -63 -79 19 -113 60 -113 138
0 96 103 156 191 111z m-1878 -246 c47 -13 106 -63 123 -106 10 -24 14 -88 14
-241 l0 -209 30 5 c27 4 33 -2 75 -67 l46 -72 97 3 97 3 45 68 c39 60 47 68
71 65 26 -4 27 -3 84 186 31 105 68 208 82 229 37 59 68 67 254 67 234 0 231
3 324 -302 40 -129 56 -194 51 -212 -8 -32 -48 -51 -75 -36 -23 12 -31 33 -85
213 -24 81 -46 151 -50 154 -3 4 -11 2 -17 -4 -7 -7 13 -95 67 -289 42 -154
79 -284 81 -291 3 -9 -16 -13 -69 -15 l-73 -3 -5 -222 c-5 -207 -6 -223 -25
-237 -37 -28 -78 -18 -100 25 -12 22 -15 73 -15 234 0 191 -1 206 -17 203 -16
-3 -18 -24 -23 -225 -5 -207 -6 -223 -25 -237 -40 -30 -87 -15 -104 35 -7 19
-11 111 -11 230 l0 199 -70 0 c-38 0 -70 1 -70 3 0 1 36 130 79 287 43 157 76
291 73 298 -10 28 -31 -15 -71 -153 -23 -77 -47 -153 -53 -168 -15 -39 -42
-51 -76 -35 l-27 14 -56 -101 c-31 -55 -59 -111 -63 -123 -4 -13 5 -68 23
-138 17 -64 31 -118 31 -120 0 -1 -12 -4 -27 -6 l-28 -3 -3 -101 c-2 -85 -6
-104 -22 -119 -26 -23 -68 -13 -80 21 -6 14 -10 66 -10 115 0 68 -3 90 -12 87
-9 -3 -14 -35 -16 -103 -2 -74 -7 -104 -19 -117 -20 -22 -51 -23 -75 -1 -15
14 -18 32 -18 120 l0 103 -29 0 -29 0 30 112 c18 66 28 124 25 142 -3 17 -31
77 -62 133 -50 91 -59 101 -72 88 -18 -19 -44 -19 -69 -1 -17 13 -19 30 -22
210 -3 186 -4 196 -23 196 -19 0 -19 -12 -19 -525 0 -368 -3 -531 -11 -549
-23 -50 -103 -57 -134 -13 -12 18 -15 75 -15 334 0 317 -4 352 -37 308 -10
-15 -13 -84 -13 -326 l0 -308 -26 -20 c-34 -27 -64 -27 -98 0 l-26 20 0 527
c0 290 -4 533 -9 541 -5 8 -16 11 -25 8 -14 -6 -16 -31 -16 -193 0 -155 -3
-190 -15 -204 -10 -11 -40 -144 -80 -360 -36 -188 -68 -346 -71 -351 -9 -14
-41 -10 -48 6 -3 8 24 169 59 357 43 226 61 346 55 352 -6 6 -10 100 -10 235
0 198 3 231 19 266 21 47 70 92 109 101 15 3 32 7 37 9 25 9 334 4 368 -6z
m3172 -15 c25 -13 51 -39 70 -69 l30 -48 0 -234 c0 -221 -1 -235 -19 -249 -26
-18 -51 -18 -70 2 -13 13 -16 45 -16 197 0 100 -4 188 -9 196 -5 8 -16 11 -25
8 -14 -6 -16 -59 -16 -531 l0 -525 -23 -27 c-30 -35 -79 -37 -110 -5 -21 21
-22 29 -27 339 -4 273 -7 317 -20 317 -13 0 -16 -44 -20 -318 l-5 -319 -28
-24 c-36 -31 -71 -31 -102 1 l-25 24 0 523 c0 288 -4 529 -9 537 -5 8 -16 11
-25 8 -14 -6 -16 -31 -16 -193 0 -160 -2 -190 -17 -206 -21 -24 -48 -23 -73 2
-19 19 -20 33 -20 233 0 118 5 229 11 250 13 49 76 111 125 125 22 6 116 10
219 9 161 -2 184 -4 220 -23z m-1155 -77 c49 -32 63 -63 125 -263 56 -182 65
-234 43 -251 -60 -46 -85 -13 -143 185 -27 90 -52 165 -57 168 -26 16 -13 -55
56 -304 42 -153 76 -281 76 -285 0 -4 -31 -7 -70 -7 l-70 0 0 -215 c0 -216 0
-216 -25 -240 -30 -30 -54 -31 -89 -4 l-26 20 0 220 c0 212 -1 219 -20 219
-19 0 -20 -7 -20 -215 0 -216 0 -216 -25 -240 -30 -30 -54 -31 -89 -4 l-26 20
0 220 0 219 -70 0 c-46 0 -70 4 -70 11 0 7 34 135 76 286 69 252 81 314 55
298 -6 -3 -22 -45 -36 -93 -14 -48 -37 -124 -51 -169 -28 -93 -55 -124 -93
-103 -48 25 -47 39 20 258 65 211 90 261 143 282 12 5 96 9 187 9 156 1 168 0
199 -22z m-1574 -326 c95 -58 52 -201 -61 -201 -63 0 -105 41 -105 103 0 93
88 146 166 98z m2027 -11 c41 -35 52 -78 33 -124 -18 -44 -52 -66 -101 -66
-70 0 -123 60 -111 124 18 89 113 124 179 66z m81 -262 c29 -27 126 -262 119
-289 -5 -20 -37 -34 -52 -25 -5 4 -24 48 -43 99 l-33 92 -5 -236 c-5 -215 -7
-239 -24 -258 -24 -26 -50 -27 -76 -1 -18 18 -20 33 -20 130 0 91 -3 110 -15
110 -12 0 -15 -19 -15 -110 0 -97 -2 -112 -20 -130 -11 -11 -29 -20 -40 -20
-11 0 -29 9 -40 20 -19 19 -20 34 -21 263 l-1 242 -35 -107 c-33 -103 -47
-123 -78 -112 -28 11 -25 43 15 144 86 215 80 210 236 210 113 0 125 -2 148
-22z"/>
<path d="M1842 4648 c-8 -8 -12 -53 -12 -149 0 -144 6 -165 47 -157 16 3 18
17 18 158 0 148 -1 155 -20 158 -11 1 -26 -3 -33 -10z"/>
<path d="M1830 4024 c-13 -34 -13 -240 0 -265 13 -23 55 -25 64 -3 8 20 8 258
0 278 -10 26 -53 20 -64 -10z"/>
</g>
</svg>
