<svg version="1.0" xmlns="http://www.w3.org/2000/svg" width="686.667" height="685.333" viewBox="0 0 515 514"><path fill="#fff" d="M1.2 257.2l.3 256.3 256.3.3 256.2.2V1H1l.2 256.2zM86.5 43.1c10.9 3 13.5 8.2 13.5 26.9 0 17.2-1 19.5-15 34.5-11.1 11.9-13.9 16.7-14 23.2v4.2l14.3.3 14.2.3v14h-45l.1-13.2c.1-12.7.2-13.5 3.2-19.5 2-4 6.6-10 12.6-16.5C82.8 84 83.3 83 83.4 70.4c.1-8.7-.2-10.5-1.8-12.3-2.4-2.6-6-2.7-8.6-.1-1.7 1.7-2 3.3-2 10.5V77H55v-8.8c0-4.8.5-10.4 1-12.4 1.2-4.1 5-9.2 8.4-11 5.1-2.8 15.4-3.5 22.1-1.7zm82.3 3.9c.1 1.4-2.2 9.2-5.3 17.4-3 8.2-5.5 15.5-5.5 16.2 0 1 1.4 1.4 5 1.4 4.9 0 5 .1 5 3v3.1l-9.2-.3c-8.5-.3-9.3-.5-9.6-2.4-.2-1.1 2.4-9.4 5.6-18.5l6-16.4-4.9-.3c-4.7-.3-4.9-.4-4.9-3.3v-3l8.8.3c8.5.3 8.7.4 9 2.8zm21 .2c.3 2.7.2 2.8-4.7 2.8H180v13h3.5c3.2 0 3.5.2 3.5 3s-.3 3-3.5 3H180v13h5.1c4.9 0 5 .1 4.7 2.7l-.3 2.8h-17l-.3-20.5c-.1-11.2 0-21 .3-21.8.3-.9 2.6-1.2 8.7-1 8.2.3 8.3.3 8.6 3zm21.9.2c1.9 2.3 2.3 3.8 2.3 9.7 0 6.3-.3 7.2-2.6 9.4l-2.7 2.5 3.2 8.8c1.7 4.8 3.1 9.1 3.1 9.5 0 .5-1.6.7-3.6.5-3.6-.3-3.7-.4-7-9.3l-3.3-9v9.2L201 88h-7V43.7l7.7.5c6.8.5 7.9.8 10 3.2zm23.2-2c1.5.8 3.2 2.6 3.9 4.1 1.6 3.5 1.6 29.5 0 33-3.3 7.4-15.8 7.3-19.3 0-1.8-3.9-2.1-25.7-.4-31.7 1.6-6.1 9.3-8.7 15.8-5.4zm9.9 62.2c1.6 1.8 2.2 3.7 2.2 7 0 4.2-.1 4.4-3 4.4-2.5 0-3-.4-3-2.4 0-3.9-1.1-5.6-3.6-5.6-3.6 0-4.4 2.9-4.4 15.5 0 12.8.8 15.5 4.5 15.5 2.4 0 2.5-.3 2.5-5.5 0-4.2-.3-5.5-1.5-5.5-1 0-1.5-1-1.5-3 0-2.9.1-3 5-3h5v23h-2.5c-1.6 0-2.5-.6-2.5-1.6 0-1.4-.2-1.4-1.5 0-4 4-10.3 2.5-12.9-2.9-2.4-5-2.3-28.7.2-33.5 3-6.2 12.3-7.5 17-2.4zM157 114v9h7v-18h8v43h-8v-19h-7v19h-7v-43h7v9zm26.2 9.2l.3 18.3h6l.3-18.3.2-18.2h7v17.5c0 21.2-.7 23.8-7 25.5-3.1.8-5 .8-7.6 0-5.8-1.9-6.4-4.4-6.4-25v-18h7l.2 18.2zm28.9-6.2l3.7 11.5.1-11.8.1-11.7h6v43h-6.5l-4.2-13.3-4.2-13.2v13.2L207 148h-6v-43.1l3.7.3 3.7.3 3.7 11.5zm56.9-9c0 2.9-.1 3-5 3h-5v12h3.5c3.2 0 3.5.2 3.5 3s-.3 3-3.5 3H259v13h5c4.9 0 5 .1 5 3v3h-17v-43h17v3zm21.5-.5c2.2 2.1 2.5 3.3 2.5 9.9 0 6.9-.2 7.6-2.6 9.5l-2.7 2.1 3.2 8.9c1.7 5 3.1 9.3 3.1 9.6 0 .3-1.6.5-3.6.3-3.6-.3-3.7-.4-7-9.3l-3.3-9v9.2l-.1 9.3h-7v-43h7.5c6.7 0 7.9.3 10 2.5zm-88.1 105.6c3.4 2.7 3.4 6.1-.3 13-5 9.3-7.4 19-6.9 27.7.5 9 2.5 13.4 10.4 23.5 9.6 12.3 13.5 23.8 11.7 34.9l-.8 5.3-8.8.3c-4.8.1-8.7.1-8.7-.2 0-.3.5-2.7 1.1-5.5.8-4 .7-6.2-.5-11.1-1.7-6.6-2.9-8.7-9.6-17.5-9.4-12.2-12-19.1-12-32 0-9.7 1.8-17.4 6.7-27.8 5.6-12 11.5-15.5 17.7-10.6zm54.9 1c2.3 2.9 2.2 5.3-.8 10.3-7.8 13.3-10 30.5-5.3 40.7 1.4 3 4.5 7.9 7 10.9 9.2 11.3 12.8 20 12.8 31 0 11.2.2 11-10.1 11H252l1-2.6c1.6-4.2 1.1-13-1-18.6-1.1-2.9-4.5-8.5-7.6-12.3-13.3-16.5-16.2-31-10.2-50.5 2.8-9 8.3-19.2 11.6-21.3 3.4-2.2 9.1-1.6 11.5 1.4zm51.1-2c1.3.7 3 2.4 3.6 3.9 1 2.4.6 3.7-2.8 10.6-7.5 14.8-9 28.3-4.4 38.7 1.1 2.6 4.4 7.5 7.2 10.9 9.6 11.9 14 24.5 12.6 36.1l-.7 5.7H306l.7-2.8c.5-1.5.8-5.4.8-8.8-.1-7.3-3.1-14-10.3-22.9-2.7-3.3-5.8-7.8-7-10-7.2-14.2-6.9-31.1.9-48.3 5.7-12.8 10.3-16.2 17.3-13.1zm78.9 123.4c-.4 10.7-8.5 30.9-18.4 46-6.9 10.5-25 28.5-35.9 35.6-9.6 6.3-20.6 12.1-29.5 15.4l-6 2.3-.3 4.8c-.2 3.1-.9 5.4-1.9 6.1-2.4 1.9-85.2 1.9-87.6 0-.9-.7-1.7-3-1.9-5.6l-.3-4.3-7.9-2.9c-35-12.7-63.7-39.6-77.9-72.9-4.1-9.7-8.3-25.9-7.4-28.3.6-1.6 10.8-1.7 137.9-1.5l137.3.3-.2 5z"/><path fill="#fff" d="M226 52.6c-1.3 3.4-1.3 25 0 27.5.6 1 1.9 1.9 3 1.9s2.4-.9 3-1.9c1.5-2.8 1.3-27.4-.2-28.9-2-2-4.8-1.4-5.8 1.4z"/></svg>