<?xml version="1.0" standalone="no"?>
<!DOCTYPE svg PUBLIC "-//W3C//DTD SVG 20010904//EN"
 "http://www.w3.org/TR/2001/REC-SVG-20010904/DTD/svg10.dtd">
<svg version="1.0" xmlns="http://www.w3.org/2000/svg"
 width="515.000000pt" height="514.000000pt" viewBox="0 0 515.000000 514.000000"
 preserveAspectRatio="xMidYMid meet">
<metadata>
Created by potrace 1.15, written by Peter Selinger 2001-2017
</metadata>
<g transform="translate(0.000000,514.000000) scale(0.100000,-0.100000)"
fill="#000000" stroke="none">
<path d="M12 2568 l3 -2563 2563 -3 2562 -2 0 2565 0 2565 -2565 0 -2565 0 2
-2562z m853 2141 c109 -30 135 -82 135 -269 0 -172 -10 -195 -150 -345 -111
-119 -139 -167 -140 -232 l0 -42 143 -3 142 -3 0 -70 0 -70 -225 0 -225 0 1
132 c1 127 2 135 32 195 20 40 66 100 126 165 124 133 129 143 130 269 1 87
-2 105 -18 123 -24 26 -60 27 -86 1 -17 -17 -20 -33 -20 -105 l0 -85 -80 0
-80 0 0 88 c0 48 5 104 10 124 12 41 50 92 84 110 51 28 154 35 221 17z m823
-39 c1 -14 -22 -92 -53 -174 -30 -82 -55 -155 -55 -162 0 -10 14 -14 50 -14
49 0 50 -1 50 -30 l0 -31 -92 3 c-85 3 -93 5 -96 24 -2 11 24 94 56 185 l60
164 -49 3 c-47 3 -49 4 -49 33 l0 30 88 -3 c85 -3 87 -4 90 -28z m210 -2 c3
-27 2 -28 -47 -28 l-51 0 0 -65 0 -65 35 0 c32 0 35 -2 35 -30 0 -28 -3 -30
-35 -30 l-35 0 0 -65 0 -65 51 0 c49 0 50 -1 47 -27 l-3 -28 -85 0 -85 0 -3
205 c-1 112 0 210 3 218 3 9 26 12 87 10 82 -3 83 -3 86 -30z m219 -2 c19 -23
23 -38 23 -97 0 -63 -3 -72 -26 -94 l-27 -25 32 -88 c17 -48 31 -91 31 -95 0
-5 -16 -7 -36 -5 -36 3 -37 4 -70 93 l-33 90 0 -92 -1 -93 -35 0 -35 0 0 221
0 222 77 -5 c68 -5 79 -8 100 -32z m232 20 c15 -8 32 -26 39 -41 16 -35 16
-295 0 -330 -33 -74 -158 -73 -193 0 -18 39 -21 257 -4 317 16 61 93 87 158
54z m99 -622 c16 -18 22 -37 22 -70 0 -42 -1 -44 -30 -44 -25 0 -30 4 -30 24
0 39 -11 56 -36 56 -36 0 -44 -29 -44 -155 0 -128 8 -155 45 -155 24 0 25 3
25 55 0 42 -3 55 -15 55 -10 0 -15 10 -15 30 0 29 1 30 50 30 l50 0 0 -115 0
-115 -25 0 c-16 0 -25 6 -25 16 0 14 -2 14 -15 0 -40 -40 -103 -25 -129 29
-24 50 -23 287 2 335 30 62 123 75 170 24z m-878 -64 l0 -90 35 0 35 0 0 90 0
90 40 0 40 0 0 -215 0 -215 -40 0 -40 0 0 95 0 95 -35 0 -35 0 0 -95 0 -95
-35 0 -35 0 0 215 0 215 35 0 35 0 0 -90z m262 -92 l3 -183 30 0 30 0 3 183 2
182 35 0 35 0 0 -175 c0 -212 -7 -238 -70 -255 -31 -8 -50 -8 -76 0 -58 19
-64 44 -64 250 l0 180 35 0 35 0 2 -182z m289 62 l37 -115 1 118 1 117 30 0
30 0 0 -215 0 -215 -32 0 -33 0 -42 133 -42 132 0 -132 -1 -133 -30 0 -30 0 0
216 0 215 37 -3 37 -3 37 -115z m569 90 c0 -29 -1 -30 -50 -30 l-50 0 0 -60 0
-60 35 0 c32 0 35 -2 35 -30 0 -28 -3 -30 -35 -30 l-35 0 0 -65 0 -65 50 0
c49 0 50 -1 50 -30 l0 -30 -85 0 -85 0 0 215 0 215 85 0 85 0 0 -30z m215 5
c22 -21 25 -33 25 -99 0 -69 -2 -76 -26 -95 l-27 -21 32 -89 c17 -50 31 -93
31 -96 0 -3 -16 -5 -36 -3 -36 3 -37 4 -70 93 l-33 90 0 -92 -1 -93 -35 0 -35
0 0 215 0 215 75 0 c67 0 79 -3 100 -25z m-881 -1056 c34 -27 34 -61 -3 -130
-50 -93 -74 -190 -69 -277 5 -90 25 -134 104 -235 96 -123 135 -238 117 -349
l-8 -53 -88 -3 c-48 -1 -87 -1 -87 2 0 3 5 27 11 55 8 40 7 62 -5 111 -17 66
-29 87 -96 175 -94 122 -120 191 -120 320 0 97 18 174 67 278 56 120 115 155
177 106z m549 -10 c23 -29 22 -53 -8 -103 -78 -133 -100 -305 -53 -407 14 -30
45 -79 70 -109 92 -113 128 -200 128 -310 0 -112 2 -110 -101 -110 l-89 0 10
26 c16 42 11 130 -10 186 -11 29 -45 85 -76 123 -133 165 -162 310 -102 505
28 90 83 192 116 213 34 22 91 16 115 -14z m511 20 c13 -7 30 -24 36 -39 10
-24 6 -37 -28 -106 -75 -148 -90 -283 -44 -387 11 -26 44 -75 72 -109 96 -119
140 -245 126 -361 l-7 -57 -90 0 -89 0 7 28 c5 15 8 54 8 88 -1 73 -31 140
-103 229 -27 33 -58 78 -70 100 -72 142 -69 311 9 483 57 128 103 162 173 131z
m789 -1234 c-4 -107 -85 -309 -184 -460 -69 -105 -250 -285 -359 -356 -96 -63
-206 -121 -295 -154 l-60 -23 -3 -48 c-2 -31 -9 -54 -19 -61 -24 -19 -852 -19
-876 0 -9 7 -17 30 -19 56 l-3 43 -79 29 c-350 127 -637 396 -779 729 -41 97
-83 259 -74 283 6 16 108 17 1379 15 l1373 -3 -2 -50z"/>
<path d="M2260 4614 c-13 -34 -13 -250 0 -275 6 -10 19 -19 30 -19 11 0 24 9
30 19 15 28 13 274 -2 289 -20 20 -48 14 -58 -14z"/>
</g>
</svg>
