<?xml version="1.0" standalone="no"?>
<!DOCTYPE svg PUBLIC "-//W3C//DTD SVG 20010904//EN"
 "http://www.w3.org/TR/2001/REC-SVG-20010904/DTD/svg10.dtd">
<svg version="1.0" xmlns="http://www.w3.org/2000/svg"
 width="515.000000pt" height="513.000000pt" viewBox="0 0 515.000000 513.000000"
 preserveAspectRatio="xMidYMid meet">
<metadata>
Created by potrace 1.15, written by Peter Selinger 2001-2017
</metadata>
<g transform="translate(0.000000,513.000000) scale(0.100000,-0.100000)"
fill="#000000" stroke="none">
<path d="M2 2568 l3 -2563 2563 -3 2562 -2 0 2565 0 2565 -2565 0 -2565 0 2
-2562z m853 2138 c102 -31 145 -110 145 -269 0 -105 -16 -147 -70 -186 l-37
-26 35 -20 c63 -35 77 -72 80 -215 4 -135 -5 -187 -40 -240 -48 -70 -178 -106
-288 -80 -40 9 -64 24 -95 54 -51 52 -65 100 -65 230 l0 96 79 0 79 0 4 -105
c3 -115 13 -134 71 -135 66 0 87 41 87 170 0 90 -14 146 -40 160 -10 5 -41 10
-69 10 l-51 0 0 70 0 70 55 0 c84 0 95 16 95 138 0 119 -11 142 -70 142 -56 0
-70 -25 -70 -122 l0 -78 -80 0 -80 0 0 78 c0 92 13 145 46 190 54 70 174 99
279 68z m830 -31 c20 -19 25 -34 25 -75 0 -49 -1 -50 -30 -50 -26 0 -30 4 -30
26 0 36 -17 64 -40 64 -32 0 -40 -33 -40 -162 0 -132 9 -163 46 -156 16 3 20
13 22 61 2 46 0 57 -13 57 -10 0 -15 10 -15 30 0 29 1 30 50 30 l50 0 0 -120
c0 -114 -1 -120 -20 -120 -11 0 -23 7 -26 15 -5 13 -8 13 -27 0 -43 -30 -96
-14 -122 35 -18 35 -21 279 -4 329 22 62 127 84 174 36z m250 2 c33 -28 44
-79 44 -202 1 -162 -27 -215 -114 -215 -87 0 -115 53 -114 215 0 174 26 225
114 225 31 0 52 -7 70 -23z m260 1 c33 -29 45 -79 45 -198 0 -120 -12 -169
-46 -199 -39 -33 -117 -26 -151 13 -22 26 -23 34 -23 187 l0 161 29 29 c38 38
106 41 146 7z m234 11 c52 -18 61 -49 61 -216 0 -168 -6 -185 -68 -203 -20 -5
-61 -10 -89 -10 l-53 0 0 220 0 220 59 0 c32 0 72 -5 90 -11z m249 -86 l3 -93
29 0 29 0 3 93 3 92 38 3 37 3 0 -221 0 -221 -37 3 -38 3 -3 93 -3 92 -29 0
-29 0 -3 -92 -3 -93 -35 0 -35 0 -3 205 c-1 112 0 210 3 218 3 8 17 12 37 10
l33 -3 3 -92z m352 68 c0 -28 -2 -30 -47 -33 l-48 -3 0 -60 0 -60 33 -3 c28
-3 32 -7 32 -33 0 -27 -3 -29 -35 -29 l-36 0 3 -62 3 -63 48 -3 c45 -3 47 -5
47 -33 l0 -29 -85 0 -85 0 0 220 0 220 85 0 85 0 0 -29z m232 -166 c20 -104
37 -203 37 -218 1 -26 -2 -28 -31 -25 -29 3 -34 8 -42 41 -9 34 -12 37 -47 37
-36 0 -38 -2 -44 -40 -6 -36 -10 -40 -35 -40 -16 0 -31 3 -33 8 -3 4 13 97 34
207 21 110 38 206 39 213 0 9 13 12 42 10 l43 -3 37 -190z m148 5 l0 -190 46
0 c44 0 45 -1 42 -27 -3 -28 -4 -28 -80 -31 l-78 -3 0 221 0 220 35 0 35 0 0
-190z m260 161 c0 -25 -4 -30 -27 -33 l-28 -3 -3 -187 -2 -188 -35 0 -35 0 0
190 0 190 -30 0 c-27 0 -30 3 -30 30 l0 30 95 0 95 0 0 -29z m110 -66 l0 -95
35 0 35 0 0 95 0 95 35 0 35 0 0 -220 0 -220 -35 0 -35 0 0 95 0 95 -35 0 -35
0 0 -95 0 -95 -35 0 -35 0 0 220 0 220 35 0 35 0 0 -95z m595 -519 c41 -17 55
-42 55 -95 0 -38 -2 -41 -28 -41 -25 0 -30 5 -38 38 -7 28 -15 38 -33 40 -13
2 -28 -2 -32 -10 -5 -7 -9 -71 -9 -143 0 -71 4 -136 9 -143 4 -8 19 -12 32
-10 21 3 24 9 27 56 2 42 0 52 -12 52 -11 0 -16 10 -16 30 0 29 1 30 50 30
l50 0 0 -115 0 -115 -25 0 c-17 0 -25 6 -25 17 0 14 -2 15 -17 1 -29 -26 -60
-30 -91 -14 -47 24 -54 56 -50 224 3 142 4 152 27 176 13 14 35 27 50 29 14 2
30 5 34 6 4 0 23 -5 42 -13z m-2683 -191 c47 -243 47 -235 3 -235 -33 0 -35 2
-41 40 -6 38 -8 40 -44 40 -37 0 -39 -2 -45 -40 -6 -38 -9 -40 -42 -40 -31 0
-35 2 -30 23 3 12 17 85 32 162 14 77 30 164 36 193 l11 53 41 -3 42 -3 37
-190z m184 78 l39 -118 3 118 3 117 29 0 30 0 0 -215 0 -215 -34 0 -35 0 -39
123 -40 122 -1 -122 -1 -123 -30 0 -30 0 0 215 0 215 34 0 33 0 39 -117z m325
88 l29 -29 0 -157 0 -157 -29 -29 c-27 -27 -35 -29 -105 -29 l-76 0 0 215 0
215 76 0 c70 0 78 -2 105 -29z m203 12 c2 -10 10 -67 17 -128 14 -124 19 -118
39 43 l12 102 29 0 c33 0 32 2 54 -147 8 -57 16 -106 16 -110 1 -5 9 51 18
122 l16 130 33 3 c30 3 32 1 28 -20 -3 -13 -15 -99 -26 -193 -28 -229 -24
-215 -64 -215 -34 0 -34 0 -45 63 -5 34 -13 86 -17 115 -9 71 -20 73 -28 4 -4
-31 -11 -85 -17 -119 -11 -63 -11 -63 -45 -63 -38 0 -33 -18 -64 220 -11 85
-22 167 -25 183 -4 25 -2 27 30 27 23 0 35 -5 39 -17z m466 -13 c0 -29 -1 -30
-50 -30 l-50 0 0 -60 0 -60 35 0 c32 0 35 -2 35 -30 0 -28 -3 -30 -35 -30
l-35 0 0 -65 0 -65 50 0 c49 0 50 -1 50 -30 l0 -30 -85 0 -85 0 0 215 0 215
85 0 85 0 0 -30z m110 -155 l0 -185 45 0 c43 0 45 -1 45 -30 l0 -30 -80 0 -80
0 0 215 0 215 35 0 35 0 0 -185z m200 0 l0 -185 40 0 c38 0 40 -2 40 -30 l0
-30 -80 0 -80 0 0 215 0 215 40 0 40 0 0 -185z m385 160 c21 -21 25 -33 25
-88 0 -46 -4 -68 -15 -77 -14 -12 -13 -15 5 -35 16 -17 20 -35 20 -89 0 -58
-3 -70 -25 -91 -22 -22 -32 -25 -105 -25 l-80 0 0 215 0 215 75 0 c67 0 79 -3
100 -25z m245 -5 c0 -29 -1 -30 -50 -30 l-50 0 0 -59 0 -60 38 -3 c32 -3 37
-7 40 -30 3 -27 1 -28 -37 -28 l-41 0 0 -65 0 -65 50 0 c49 0 50 -1 50 -30 l0
-30 -85 0 -85 0 0 215 0 215 85 0 85 0 0 -30z m120 -185 l0 -215 -40 0 -40 0
0 215 0 215 40 0 40 0 0 -215z m147 98 l38 -118 3 118 3 117 29 0 30 0 0 -215
0 -215 -33 0 -34 0 -41 128 -41 127 0 -127 -1 -128 -30 0 -30 0 0 215 0 215
35 0 34 0 38 -117z m-574 -785 c26 -25 347 -684 347 -713 0 -48 -64 -72 -97
-37 -10 9 -74 135 -143 279 -91 190 -127 257 -133 245 -4 -9 -151 -494 -326
-1076 -223 -742 -324 -1064 -337 -1073 -25 -18 -39 -16 -68 10 -22 20 -30 58
-111 532 -47 281 -89 518 -93 529 -6 14 -40 -42 -146 -238 -76 -142 -147 -261
-158 -267 -25 -14 -65 -4 -76 19 -5 9 -36 200 -67 424 -32 225 -60 406 -62
404 -3 -2 -52 -111 -111 -242 -83 -185 -113 -241 -132 -251 -19 -10 -121 -12
-452 -11 -468 3 -460 2 -461 62 0 57 -11 56 437 56 l412 0 144 321 c79 176
150 327 157 335 19 18 58 18 76 -1 20 -19 17 -5 82 -465 31 -217 57 -399 58
-403 2 -5 63 103 136 240 73 136 140 256 149 266 22 25 68 22 86 -5 8 -13 51
-242 97 -511 46 -268 86 -482 90 -475 3 7 136 443 293 968 347 1154 323 1079
350 1090 31 13 33 12 59 -12z m234 -1007 c23 -11 62 -38 86 -60 24 -23 47 -41
51 -41 4 0 28 17 54 39 67 55 110 74 164 73 164 -3 269 -210 190 -373 -14 -29
-89 -111 -215 -237 l-193 -192 -192 193 c-217 220 -236 248 -235 357 1 36 9
84 18 108 23 56 104 129 153 138 20 3 42 7 47 9 19 7 30 4 72 -14z"/>
<path d="M1841 4626 c-8 -9 -11 -58 -9 -151 3 -116 6 -140 20 -148 12 -8 21
-7 32 2 13 11 16 38 16 150 0 135 -6 161 -36 161 -6 0 -17 -6 -23 -14z"/>
<path d="M2101 4626 c-8 -9 -11 -58 -9 -151 3 -116 6 -140 20 -148 12 -8 21
-7 32 2 24 20 24 296 0 305 -23 9 -30 8 -43 -8z"/>
<path d="M2350 4480 c0 -171 2 -176 51 -150 17 10 19 23 19 150 0 127 -2 140
-19 150 -49 26 -51 21 -51 -150z"/>
<path d="M2090 3875 l0 -155 23 0 c42 0 47 16 47 155 0 139 -5 155 -47 155
l-23 0 0 -155z"/>
</g>
</svg>
