<?xml version="1.0" standalone="no"?>
<!DOCTYPE svg PUBLIC "-//W3C//DTD SVG 20010904//EN"
 "http://www.w3.org/TR/2001/REC-SVG-20010904/DTD/svg10.dtd">
<svg version="1.0" xmlns="http://www.w3.org/2000/svg"
 width="513.000000pt" height="511.000000pt" viewBox="0 0 513.000000 511.000000"
 preserveAspectRatio="xMidYMid meet">
<metadata>
Created by potrace 1.15, written by Peter Selinger 2001-2017
</metadata>
<g transform="translate(0.000000,511.000000) scale(0.100000,-0.100000)"
fill="#000000" stroke="none">
<path d="M10 2555 l0 -2555 2560 0 2560 0 0 2555 0 2555 -2560 0 -2560 0 0
-2555z m1000 2075 l0 -70 -150 0 -150 0 0 -131 0 -132 25 27 c62 67 185 61
247 -12 47 -56 53 -92 53 -297 0 -205 -6 -235 -54 -288 -55 -61 -160 -88 -258
-67 -69 15 -112 46 -142 100 -21 38 -26 61 -29 157 l-5 113 82 0 81 0 0 -89
c0 -74 3 -92 21 -115 29 -36 80 -36 109 1 20 26 21 36 18 201 -3 158 -5 175
-22 188 -28 20 -80 18 -100 -5 -9 -10 -20 -35 -23 -55 l-6 -36 -78 0 -79 0 0
290 0 290 230 0 230 0 0 -70z m700 32 c16 -13 24 -32 28 -70 l5 -52 -30 0
c-26 0 -31 5 -39 37 -10 40 -34 54 -59 33 -22 -19 -21 -272 1 -294 32 -32 54
-9 54 56 0 36 -4 48 -15 48 -10 0 -15 10 -15 30 0 29 1 30 50 30 l50 0 0 -115
0 -115 -25 0 c-17 0 -25 6 -25 17 0 14 -4 13 -24 -6 -35 -33 -89 -22 -116 22
-17 28 -20 51 -20 175 0 191 15 221 111 222 31 0 55 -6 69 -18z m250 -12 c0
-29 -1 -30 -50 -30 l-50 0 0 -60 0 -60 35 0 c32 0 35 -2 35 -30 0 -28 -3 -30
-35 -30 l-35 0 0 -64 0 -65 48 -3 c43 -3 47 -5 50 -30 l3 -28 -90 0 -91 0 0
215 0 215 90 0 90 0 0 -30z m143 -82 l36 -113 0 113 1 112 35 0 35 0 0 -215 0
-215 -35 0 -34 0 -40 123 -39 122 -1 -122 -1 -123 -30 0 -30 0 0 215 0 215 33
0 34 0 36 -112z m333 79 c23 -27 24 -34 24 -178 0 -204 -8 -218 -132 -219
l-78 0 0 216 0 216 81 -4 c74 -3 83 -6 105 -31z m244 3 c0 -29 -1 -30 -50 -30
l-50 0 0 -60 0 -60 35 0 c32 0 35 -2 35 -30 0 -28 -3 -30 -35 -30 l-35 0 0
-65 0 -65 50 0 c49 0 50 -1 50 -30 l0 -30 -85 0 -85 0 0 215 0 215 85 0 85 0
0 -30z m221 1 c15 -18 19 -39 19 -96 0 -67 -2 -75 -26 -94 l-26 -20 28 -83
c15 -46 29 -89 32 -96 3 -10 -5 -13 -34 -10 l-38 3 -32 90 -33 90 0 -92 -1
-93 -35 0 -35 0 0 216 0 216 81 -4 c70 -3 83 -6 100 -27z m-974 -607 c42 -54
46 -308 5 -364 l-21 -28 24 -6 c18 -5 25 -13 25 -31 0 -29 -5 -29 -83 -14 -37
8 -57 17 -57 26 0 7 -11 18 -24 23 -52 19 -61 51 -61 210 0 124 3 150 18 173
24 36 52 48 107 43 34 -3 50 -11 67 -32z m-227 -4 c0 -29 -1 -30 -50 -30 l-50
0 0 -60 0 -60 35 0 c32 0 35 -2 35 -30 0 -28 -3 -30 -35 -30 l-35 0 0 -65 0
-65 50 0 c49 0 50 -1 50 -30 l0 -30 -85 0 -85 0 0 215 0 215 85 0 85 0 0 -30z
m372 -152 l3 -183 24 -3 c13 -2 28 2 32 10 5 7 9 91 9 186 l0 172 35 0 35 0 0
-162 c0 -177 -9 -229 -43 -253 -25 -18 -86 -20 -120 -4 -41 19 -47 48 -47 239
l0 180 35 0 35 0 2 -182z m359 -18 c21 -107 38 -203 38 -212 1 -14 -7 -18 -33
-18 -36 0 -46 12 -46 56 0 21 -4 24 -40 24 -39 0 -40 -1 -46 -40 -6 -37 -9
-40 -40 -40 -19 0 -34 3 -34 7 0 11 71 387 76 406 5 14 14 17 47 15 l41 -3 37
-195z m149 15 l0 -185 40 0 c38 0 40 -2 40 -30 l0 -31 -77 3 -78 3 -3 213 -2
212 40 0 40 0 0 -185z m190 -30 l0 -215 -35 0 -35 0 0 215 0 215 35 0 35 0 0
-215z m228 188 c-2 -22 -9 -29 -30 -31 l-28 -3 -2 -182 -3 -182 -37 -3 -38 -3
0 185 0 185 -27 3 c-22 2 -29 9 -31 31 l-3 27 101 0 101 0 -3 -27z m117 -50
c20 -85 21 -85 50 20 16 56 17 57 52 57 25 0 34 -4 30 -14 -3 -7 -21 -67 -41
-133 -29 -95 -36 -137 -36 -202 l0 -81 -35 0 -35 0 0 80 c0 66 -7 105 -40 211
-22 72 -40 132 -40 135 0 2 17 4 38 4 l38 0 19 -77z m633 -1130 l-3 -328 -110
0 -110 0 -5 118 -5 117 -135 -135 -134 -134 22 -38 c147 -245 165 -542 48
-790 -83 -174 -216 -313 -381 -395 -49 -25 -153 -61 -207 -73 l-28 -5 0 -125
0 -125 130 0 130 0 0 -120 0 -120 -130 0 -130 0 0 -125 0 -126 -122 3 -123 3
-3 122 -3 123 -130 0 -130 0 3 117 3 118 128 3 127 3 0 123 0 124 -47 7 c-64
9 -176 50 -248 90 -407 228 -547 751 -309 1155 114 193 324 343 549 391 96 20
276 15 370 -10 88 -24 196 -72 265 -119 l45 -31 138 137 137 137 -125 3 -125
3 0 114 0 115 325 0 325 0 -2 -327z"/>
<path d="M2320 4465 l0 -155 29 0 c17 0 31 6 35 16 3 9 6 73 6 143 0 135 -5
151 -47 151 l-23 0 0 -155z"/>
<path d="M1822 4008 c-8 -8 -12 -57 -12 -155 0 -124 2 -143 17 -152 11 -6 24
-6 35 0 16 9 18 26 18 152 0 141 -6 167 -35 167 -6 0 -16 -5 -23 -12z"/>
<path d="M2510 2633 c-166 -20 -293 -84 -401 -200 -218 -235 -208 -616 22
-843 147 -146 359 -208 563 -165 175 37 337 165 414 326 51 107 63 161 63 270
0 189 -71 342 -215 468 -69 60 -155 105 -241 125 -63 15 -162 24 -205 19z
m435 -453 l0 -95 -380 0 -380 0 -3 89 c-2 65 1 92 10 98 7 4 180 7 383 5 l370
-2 0 -95z m0 -325 l0 -90 -382 -3 -383 -2 0 95 0 95 383 -2 382 -3 0 -90z"/>
</g>
</svg>
