<svg version="1.0" xmlns="http://www.w3.org/2000/svg" width="684" height="681.333" viewBox="0 0 513 511"><path fill="#fff" d="M1 255.5V511h512V0H1v255.5zM101 48v7H71v26.3l2.5-2.7c6.2-6.7 18.5-6.1 24.7 1.2 4.7 5.6 5.3 9.2 5.3 29.7s-.6 23.5-5.4 28.8c-5.5 6.1-16 8.8-25.8 6.7-6.9-1.5-11.2-4.6-14.2-10-2.1-3.8-2.6-6.1-2.9-15.7l-.5-11.3H71v8.9c0 7.4.3 9.2 2.1 11.5 2.9 3.6 8 3.6 10.9-.1 2-2.6 2.1-3.6 1.8-20.1-.3-15.8-.5-17.5-2.2-18.8-2.8-2-8-1.8-10 .5-.9 1-2 3.5-2.3 5.5l-.6 3.6H55V41h46v7zm70-3.2c1.6 1.3 2.4 3.2 2.8 7l.5 5.2h-3c-2.6 0-3.1-.5-3.9-3.7-1-4-3.4-5.4-5.9-3.3-2.2 1.9-2.1 27.2.1 29.4 3.2 3.2 5.4.9 5.4-5.6 0-3.6-.4-4.8-1.5-4.8-1 0-1.5-1-1.5-3 0-2.9.1-3 5-3h5v23h-2.5c-1.7 0-2.5-.6-2.5-1.7 0-1.4-.4-1.3-2.4.6-3.5 3.3-8.9 2.2-11.6-2.2-1.7-2.8-2-5.1-2-17.5 0-19.1 1.5-22.1 11.1-22.2 3.1 0 5.5.6 6.9 1.8zm25 1.2c0 2.9-.1 3-5 3h-5v12h3.5c3.2 0 3.5.2 3.5 3s-.3 3-3.5 3H186v12.9l4.8.3c4.3.3 4.7.5 5 3l.3 2.8H178V43h18v3zm14.3 8.2l3.6 11.3V54.2L214 43h7v43h-6.9l-4-12.3-3.9-12.2-.1 12.2L206 86h-6V43h6.7l3.6 11.2zm33.3-7.9c2.3 2.7 2.4 3.4 2.4 17.8 0 20.4-.8 21.8-13.2 21.9H225V42.8l8.1.4c7.4.3 8.3.6 10.5 3.1zM268 46c0 2.9-.1 3-5 3h-5v12h3.5c3.2 0 3.5.2 3.5 3s-.3 3-3.5 3H258v13h5c4.9 0 5 .1 5 3v3h-17V43h17v3zm22.1-.1c1.5 1.8 1.9 3.9 1.9 9.6 0 6.7-.2 7.5-2.6 9.4l-2.6 2 2.8 8.3c1.5 4.6 2.9 8.9 3.2 9.6.3 1-.5 1.3-3.4 1l-3.8-.3-3.2-9-3.3-9v9.2L279 86h-7V42.8l8.1.4c7 .3 8.3.6 10 2.7zm-97.4 60.7c4.2 5.4 4.6 30.8.5 36.4l-2.1 2.8 2.4.6c1.8.5 2.5 1.3 2.5 3.1 0 2.9-.5 2.9-8.3 1.4-3.7-.8-5.7-1.7-5.7-2.6 0-.7-1.1-1.8-2.4-2.3-5.2-1.9-6.1-5.1-6.1-21 0-12.4.3-15 1.8-17.3 2.4-3.6 5.2-4.8 10.7-4.3 3.4.3 5 1.1 6.7 3.2zm-22.7.4c0 2.9-.1 3-5 3h-5v12h3.5c3.2 0 3.5.2 3.5 3s-.3 3-3.5 3H160v13h5c4.9 0 5 .1 5 3v3h-17v-43h17v3zm37.2 15.2l.3 18.3 2.4.3c1.3.2 2.8-.2 3.2-1 .5-.7.9-9.1.9-18.6V104h7v16.2c0 17.7-.9 22.9-4.3 25.3-2.5 1.8-8.6 2-12 .4-4.1-1.9-4.7-4.8-4.7-23.9v-18h7l.2 18.2zm35.9 1.8c2.1 10.7 3.8 20.3 3.8 21.2.1 1.4-.7 1.8-3.3 1.8-3.6 0-4.6-1.2-4.6-5.6 0-2.1-.4-2.4-4-2.4-3.9 0-4 .1-4.6 4-.6 3.7-.9 4-4 4-1.9 0-3.4-.3-3.4-.7 0-1.1 7.1-38.7 7.6-40.6.5-1.4 1.4-1.7 4.7-1.5l4.1.3 3.7 19.5zm14.9-1.5V141h4c3.8 0 4 .2 4 3v3.1l-7.7-.3-7.8-.3-.3-21.3-.2-21.2h8v18.5zm19 3V147h-7v-43h7v21.5zm22.8-18.8c-.2 2.2-.9 2.9-3 3.1l-2.8.3-.2 18.2-.3 18.2-3.7.3-3.8.3v-37l-2.7-.3c-2.2-.2-2.9-.9-3.1-3.1l-.3-2.7h20.2l-.3 2.7zm11.7 5c2 8.5 2.1 8.5 5-2 1.6-5.6 1.7-5.7 5.2-5.7 2.5 0 3.4.4 3 1.4-.3.7-2.1 6.7-4.1 13.3-2.9 9.5-3.6 13.7-3.6 20.2v8.1h-7v-8c0-6.6-.7-10.5-4-21.1-2.2-7.2-4-13.2-4-13.5 0-.2 1.7-.4 3.8-.4h3.8l1.9 7.7zm63.3 113l-.3 32.8h-22l-.5-11.8-.5-11.7-13.5 13.5-13.4 13.4 2.2 3.8c14.7 24.5 16.5 54.2 4.8 79-8.3 17.4-21.6 31.3-38.1 39.5-4.9 2.5-15.3 6.1-20.7 7.3l-2.8.5v25h26v24h-26v25.1l-12.2-.3-12.3-.3-.3-12.2-.3-12.3h-26l.3-11.7.3-11.8 12.8-.3 12.7-.3v-24.7l-4.7-.7c-6.4-.9-17.6-5-24.8-9-40.7-22.8-54.7-75.1-30.9-115.5 11.4-19.3 32.4-34.3 54.9-39.1 9.6-2 27.6-1.5 37 1 8.8 2.4 19.6 7.2 26.5 11.9l4.5 3.1 13.8-13.7 13.7-13.7-12.5-.3-12.5-.3V192h65l-.2 32.7z"/><path fill="#fff" d="M232 64.5V80h2.9c1.7 0 3.1-.6 3.5-1.6.3-.9.6-7.3.6-14.3 0-13.5-.5-15.1-4.7-15.1H232v15.5zm-49.8 45.7c-.8.8-1.2 5.7-1.2 15.5 0 12.4.2 14.3 1.7 15.2 1.1.6 2.4.6 3.5 0 1.6-.9 1.8-2.6 1.8-15.2 0-14.1-.6-16.7-3.5-16.7-.6 0-1.6.5-2.3 1.2zM251 247.7c-16.6 2-29.3 8.4-40.1 20-21.8 23.5-20.8 61.6 2.2 84.3 14.7 14.6 35.9 20.8 56.3 16.5 17.5-3.7 33.7-16.5 41.4-32.6 5.1-10.7 6.3-16.1 6.3-27 0-18.9-7.1-34.2-21.5-46.8-6.9-6-15.5-10.5-24.1-12.5-6.3-1.5-16.2-2.4-20.5-1.9zm43.5 45.3v9.5h-76l-.3-8.9c-.2-6.5.1-9.2 1-9.8.7-.4 18-.7 38.3-.5l37 .2v9.5zm0 32.5v9l-38.2.3-38.3.2v-19l38.3.2 38.2.3v9z"/></svg>