<?xml version="1.0" standalone="no"?>
<!DOCTYPE svg PUBLIC "-//W3C//DTD SVG 20010904//EN"
 "http://www.w3.org/TR/2001/REC-SVG-20010904/DTD/svg10.dtd">
<svg version="1.0" xmlns="http://www.w3.org/2000/svg"
 width="513.000000pt" height="510.000000pt" viewBox="0 0 513.000000 510.000000"
 preserveAspectRatio="xMidYMid meet">
<metadata>
Created by potrace 1.15, written by Peter Selinger 2001-2017
</metadata>
<g transform="translate(0.000000,510.000000) scale(0.100000,-0.100000)"
fill="#000000" stroke="none">
<path d="M0 2550 l0 -2550 2560 0 2560 0 0 2550 0 2550 -2560 0 -2560 0 0
-2550z m857 2135 c60 -18 116 -74 132 -132 6 -21 11 -69 11 -106 l0 -68 -77 3
-78 3 -5 66 c-6 85 -19 101 -79 97 -68 -4 -81 -36 -81 -198 l0 -125 23 27 c26
33 83 58 130 58 46 0 118 -39 144 -78 34 -52 46 -130 41 -286 -4 -151 -17
-194 -70 -242 -95 -87 -285 -83 -370 7 -65 69 -70 100 -66 481 4 356 5 363 58
431 52 66 179 94 287 62z m798 -30 c21 -20 25 -34 25 -80 0 -54 0 -55 -29 -55
-28 0 -30 3 -33 41 -3 45 -24 67 -52 56 -14 -6 -16 -27 -16 -157 0 -130 2
-151 16 -157 31 -12 49 11 52 66 3 49 4 51 33 51 l29 0 0 -65 c0 -58 -3 -69
-26 -90 -35 -32 -100 -34 -137 -5 -35 28 -47 76 -47 195 1 124 11 174 45 203
37 32 107 31 140 -3z m143 -167 l2 -188 40 0 c38 0 40 -2 40 -30 l0 -31 -77 3
-78 3 -3 205 c-1 112 0 210 3 218 3 8 17 12 37 10 l33 -3 3 -187z m292 162 c0
-29 -1 -30 -50 -30 l-50 0 0 -65 0 -65 35 0 c32 0 35 -2 35 -30 0 -28 -3 -30
-35 -30 l-35 0 0 -65 0 -65 50 0 c49 0 50 -1 50 -30 l0 -30 -85 0 -85 0 0 220
0 220 85 0 85 0 0 -30z m195 8 c11 -47 75 -393 75 -405 0 -8 -13 -13 -34 -13
-36 0 -46 12 -46 56 0 21 -4 24 -40 24 -35 0 -40 -3 -46 -27 -3 -16 -7 -34
-10 -40 -4 -15 -64 -18 -64 -4 0 9 66 367 75 409 5 18 12 22 45 22 33 0 41 -4
45 -22z m217 -98 l37 -115 3 115 3 115 28 3 27 3 0 -220 0 -221 -30 0 c-29 0
-30 2 -67 122 l-38 123 -5 -120 -5 -120 -30 0 -30 0 -3 205 c-1 112 0 210 3
218 3 8 17 12 37 10 32 -3 33 -5 70 -118z m273 88 c3 -18 11 -78 18 -133 l13
-100 13 90 c23 169 24 170 53 173 31 4 31 3 48 -123 20 -149 23 -149 40 -10
13 110 18 130 33 133 48 9 48 9 -13 -435 0 -2 -14 -3 -30 -3 -37 0 -42 12 -60
138 -7 51 -16 95 -20 97 -4 2 -15 -50 -24 -115 l-18 -120 -33 0 c-39 0 -34
-18 -65 220 -11 85 -23 170 -25 188 -6 31 -5 32 29 32 32 0 36 -3 41 -32z
m420 20 c3 -7 22 -105 43 -216 41 -215 41 -218 -9 -210 -18 2 -26 12 -32 41
-8 35 -11 37 -47 37 -36 0 -38 -2 -44 -40 -6 -36 -9 -40 -36 -40 -16 0 -31 3
-33 8 -4 7 67 392 77 419 7 17 75 17 81 1z m265 -18 c0 -27 -3 -30 -30 -30
l-30 0 0 -190 0 -190 -35 0 -35 0 -2 188 -3 187 -27 3 c-24 3 -28 8 -28 33 l0
29 95 0 95 0 0 -30z m208 -2 c3 -27 2 -28 -47 -28 l-51 0 0 -65 0 -65 35 0
c32 0 35 -2 35 -30 0 -28 -3 -30 -35 -30 l-35 0 0 -65 0 -65 51 0 c49 0 50 -1
47 -27 l-3 -28 -85 0 -85 0 -3 205 c-1 112 0 210 3 218 3 9 26 12 87 10 82 -3
83 -3 86 -30z m218 -1 c20 -24 24 -39 24 -98 0 -63 -3 -72 -26 -94 l-27 -25
32 -88 c17 -48 31 -91 31 -95 0 -5 -16 -7 -36 -5 -37 3 -37 3 -68 93 l-31 90
-3 -92 -3 -93 -34 0 -35 0 0 221 0 221 76 -4 c69 -3 79 -6 100 -31z m-1421
-581 c27 -12 36 -23 45 -56 15 -54 8 -70 -30 -70 -26 0 -30 3 -30 29 0 59 -61
67 -68 9 -2 -20 11 -41 60 -93 73 -77 76 -84 77 -148 1 -80 -59 -122 -141 -98
-45 14 -68 53 -68 116 0 33 2 35 35 35 34 0 35 -1 35 -39 0 -46 22 -71 48 -54
11 7 17 23 16 48 -1 31 -11 46 -57 93 -78 80 -95 133 -60 193 27 46 79 59 138
35z m1623 3 c59 -20 67 -46 67 -214 0 -130 -3 -154 -19 -177 -23 -36 -77 -51
-128 -37 -60 16 -68 42 -68 214 0 173 7 195 75 217 30 9 39 9 73 -3z m-2458
-7 c0 -8 67 -365 75 -399 5 -21 2 -23 -34 -23 -37 0 -39 1 -45 40 -6 39 -7 40
-46 40 -37 0 -40 -2 -40 -27 0 -41 -13 -55 -46 -51 l-30 3 40 213 40 212 43 0
c24 0 43 -3 43 -8z m220 -112 l38 -115 1 118 1 117 30 0 30 0 0 -215 0 -215
-33 0 -33 0 -41 128 -41 127 -1 -127 -1 -128 -30 0 -30 0 0 216 0 215 36 -3
36 -3 38 -115z m310 107 c36 -18 49 -68 49 -197 1 -194 -16 -220 -144 -220
l-75 0 0 215 0 215 73 0 c39 0 83 -6 97 -13z m563 -79 c10 -51 28 -148 41
-215 l23 -123 -38 0 c-36 0 -38 2 -44 40 -6 38 -8 40 -45 40 -36 0 -38 -2 -44
-40 -6 -38 -8 -40 -41 -40 -32 0 -35 2 -30 23 7 30 75 393 75 401 0 3 20 6 43
6 l44 0 16 -92z m204 -25 l38 -118 3 118 3 117 29 0 30 0 0 -215 0 -215 -34 0
-33 0 -32 103 c-18 56 -36 113 -41 127 -6 17 -9 -17 -9 -102 l-1 -128 -30 0
-30 0 0 215 0 215 35 0 34 0 38 -117z m213 -98 l0 -215 -35 0 -35 0 0 215 0
215 35 0 35 0 0 -215z m230 185 c0 -27 -3 -30 -30 -30 l-30 0 0 -185 0 -185
-40 0 -40 0 0 184 0 185 -27 3 c-22 2 -29 9 -31 31 l-3 27 100 0 101 0 0 -30z
m192 -170 c20 -107 37 -203 37 -212 1 -14 -7 -18 -34 -18 -33 0 -35 2 -41 40
-6 38 -8 40 -44 40 -37 0 -39 -2 -45 -40 -6 -38 -9 -40 -41 -40 -19 0 -34 2
-34 4 0 5 56 301 71 374 l11 53 41 -3 41 -3 38 -195z m228 170 c0 -27 -3 -30
-30 -30 l-30 0 0 -185 0 -185 -40 0 -40 0 0 184 0 185 -27 3 c-22 2 -29 9 -31
31 l-3 27 100 0 101 0 0 -30z m100 -185 l0 -215 -35 0 -35 0 0 215 0 215 35 0
35 0 0 -215z m417 98 l38 -118 3 118 3 117 29 0 30 0 0 -215 0 -215 -33 0 -34
0 -41 128 -41 127 0 -127 -1 -128 -30 0 -30 0 0 215 0 215 35 0 34 0 38 -117z
m-813 -911 c5 -8 -274 -1839 -289 -1899 -5 -23 -6 -23 -209 -23 l-203 0 -7
-92 c-4 -51 -9 -121 -13 -155 l-6 -63 79 0 79 0 -188 -187 -187 -188 -187 188
-188 187 83 0 84 0 -6 38 c-3 20 -8 78 -11 127 -4 50 -9 102 -11 118 l-6 27
-194 0 c-192 0 -195 0 -204 23 -10 26 -310 1842 -310 1881 l0 26 944 0 c520 0
947 -4 950 -8z"/>
<path d="M713 4146 l-28 -24 0 -146 c0 -137 1 -147 22 -168 16 -15 34 -22 60
-21 70 2 90 60 80 237 -5 93 -7 102 -32 123 -34 30 -67 29 -102 -1z"/>
<path d="M4015 3998 c-3 -8 -4 -77 -3 -153 l3 -140 30 0 30 0 0 150 0 150 -28
3 c-16 2 -29 -2 -32 -10z"/>
<path d="M2060 3855 l0 -156 33 3 32 3 0 150 0 150 -32 3 -33 3 0 -156z"/>
<path d="M1680 2963 c0 -9 56 -302 66 -342 5 -23 7 -24 77 -18 43 3 124 22
202 47 174 56 225 54 410 -17 164 -63 255 -84 370 -84 105 -1 175 14 340 72
100 34 128 40 171 36 l51 -5 12 76 c6 43 18 114 25 160 l13 82 -868 0 c-478 0
-869 -3 -869 -7z"/>
<path d="M2430 2154 c-67 -103 -136 -215 -152 -250 -77 -165 -27 -339 120
-411 51 -25 68 -28 157 -28 95 0 103 2 162 34 130 70 179 222 122 377 -18 50
-127 228 -254 417 l-32 48 -123 -187z"/>
</g>
</svg>
