<svg version="1.0" xmlns="http://www.w3.org/2000/svg" width="684" height="678.667" viewBox="0 0 513 509"><g fill="#fff"><path d="M0 254.5V509h513V0H0v254.5zM97 49c0 6.8-1.4 13.3-10.1 46.7-5.5 21.3-10.7 41.2-11.5 44l-1.5 5.3h-8.4c-4.7 0-8.5-.2-8.5-.3 0-.5 21.9-84.6 22.6-86.9.5-1.6-.7-1.8-12.8-2l-13.3-.3-.3-5.9c-.2-3.2-.1-6.5.2-7.2.4-1.1 4.8-1.4 22.1-1.4H97v8zm65-7.6c0 .3 1.8 9.8 4 21.3 2.2 11.4 4 21.1 4 21.5 0 .5-1.6.8-3.5.8-3 0-3.5-.4-4.1-2.8-1.1-5.2-1.2-5.3-5.1-5-3.5.3-3.8.6-4.3 3.8-.4 3.1-.9 3.5-3.7 3.8-2.2.2-3.3-.1-3.3-1 0-1.4 6.9-39.5 7.5-41.6.4-1.1 8.5-1.9 8.5-.8zm28 2.5c0 2.8-.2 3-4.7 3.3l-4.8.3v12l3.8.3c3.5.3 3.8.6 3.5 3-.3 2.3-.8 2.7-4 3l-3.8.3V85h-7V63.7c0-11.8.3-21.7.7-22 .3-.4 4.2-.7 8.5-.7h7.8v2.9zm20 .1c0 2.9-.2 3-4.5 3H201v13h3.5c3.2 0 3.5.2 3.5 3s-.3 3-3.5 3h-3.4l-.3 9.2-.3 9.3h-7l-.3-20.5c-.1-11.2 0-21 .2-21.7.4-.9 3-1.3 8.6-1.3h8v3zm19.9-1.4c4 2.8 5.1 7.3 5.1 20.3 0 17.2-2.4 22.1-11 22.1-4.6 0-7.8-1.7-9.5-4.9-2-4-2.1-30.3-.1-34 2.7-4.9 10.9-6.7 15.5-3.5zm26 .3c4.9 2.6 5.3 16.9.6 20.7l-2.6 2.1 3 8.3c1.7 4.6 3.1 9 3.1 9.7 0 .8-1.3 1.3-3.4 1.3h-3.4l-3.3-9.8-3.4-9.7-.3 9.7-.3 9.8H239V40.7l7.4.6c4.1.3 8.3 1 9.5 1.6zm24.4-.4C284 44 285 48.2 285 63c0 16.5-.9 19.3-6.8 21-2 .6-6.2 1-9.2.8l-5.5-.3-.3-20.5c-.1-11.2 0-21.1.3-21.9.4-1.1 2.1-1.3 7.8-.8 3.9.3 8 .9 9 1.2zM307.2 60c2 10.2 3.9 20 4.3 21.7.6 3.2.5 3.3-3 3.3-3.6 0-3.8-.3-4.9-5.3-.6-2.4-1.1-2.7-4.6-2.7-3.6 0-4 .3-4 2.4 0 4.2-1.1 5.6-4.1 5.6-2.3 0-2.9-.4-2.9-2.2 0-2.2 6.7-38.1 7.5-40.6.3-.9 1.8-1.2 4.2-1l3.8.3 3.7 18.5zm25.6-15.5c2.8 3.3 3.2 12.8.5 15.7-1.5 1.7-1.5 2 .5 3.9 1.8 1.6 2.2 3.1 2.2 7.9 0 10.6-2.7 13-14.6 13H315V40.7l7.8.6c6.7.5 8 .9 10 3.2zM347 60v19h4.5c4.3 0 4.5.1 4.5 3v3h-16V41h7v19zm29-16.1c0 2.8-.2 3-4.7 3.3l-4.8.3v12l3.8.3c3.5.3 3.8.6 3.5 3-.3 2.3-.8 2.7-4.1 3l-3.8.3.3 6.2.3 6.2 4.8.3c4.5.3 4.7.5 4.7 3.3V85h-17V63.7c0-11.8.3-21.7.7-22 .3-.4 4.2-.7 8.5-.7h7.8v2.9zm26.4-1.2c.8 2.8 7.6 39.3 7.6 40.9 0 .9-1.2 1.4-3.5 1.4-3.3 0-3.5-.2-4.1-4-.6-3.9-.8-4-4.5-4s-3.9.1-4.5 4c-.6 3.7-.9 4-4 4-1.9 0-3.4-.3-3.4-.8 0-.4 1.8-10.2 4-21.7s4-21.1 4-21.2c0-.2 1.8-.3 3.9-.3 2.9 0 4.1.5 4.5 1.7zM424.2 53l3.7 11.5.3-11.5.3-11.5 2.8-.3 2.7-.3V85h-3c-2.9 0-3-.2-6.7-12.3l-3.8-12.2-.5 12-.5 12h-6l-.3-20.5c-.1-11.2 0-21 .3-21.8.3-.8 1.7-1.2 3.7-1 3.2.3 3.3.5 7 11.8zm31.1-10.5C459 44 460 48.2 460 63c0 19.7-1.6 22-15.1 22H439V40.7l7.3.6c3.9.3 8 .9 9 1.2zm-290.4 61.8c1.4 1.5 2.4 4.2 2.8 7.5l.6 5.2h-3.6c-3.5 0-3.6-.1-3.9-4.3-.3-3.9-.5-4.2-3.3-4.2h-3l-.3 14.7c-.2 14-.2 14.8 1.8 15.8 3.3 1.8 5-.4 5-6.1V128h3.5c3.5 0 3.5 0 3.4 4.2-.1 10.6-5.1 15.2-13.7 12.8-6.4-1.7-7.2-4-7.2-21.9 0-14.6.1-15 2.6-18 2.3-2.7 3.2-3.1 7.8-3.1 4.2 0 5.7.5 7.5 2.3zm14.1 16.1v18.5l4.3.3c3.8.3 4.2.6 4.5 3l.3 2.8H172v-43h7v18.4zm29-15.4c0 2.9-.1 3-5 3h-5v12h3.5c3.2 0 3.5.2 3.5 3s-.3 3-3.5 3H198v13h5c4.9 0 5 .1 5 3v3h-17v-43h17v3zm23.3 17.3c2.1 11.1 3.7 20.8 3.7 21.4 0 .8-1.4 1.3-3.4 1.3-3.2 0-3.5-.2-4.1-4-.7-3.9-.8-4-4.5-4s-3.8.1-4.5 4c-.6 3.8-.9 4-4.1 4-3 0-3.4-.3-2.9-2.3.6-2.7 7.5-39.7 7.5-40.3 0-.2 1.9-.4 4.3-.4h4.2l3.8 20.3zm18.3-8.6l3.9 11.8.3-11.8.3-11.7h5.9v43h-6.8l-4-12.3-4-12.2-.1 12.2-.1 12.3h-6v-43h6.7l3.9 11.7zM288 105c0 2.9-.1 3-5 3h-5v12h3.5c3.2 0 3.5.2 3.5 3s-.3 3-3.5 3H278v13h5c4.9 0 5 .1 5 3v3h-18v-43h18v3zm14.7 8.7l3.8 11.8.3-11.8.3-11.7h5.9v43h-3.5c-3.1 0-3.5-.3-4.5-3.8-.5-2-2.3-7.8-4-12.7l-2.9-9-.1 12.7V145h-6v-43h6.8l3.9 11.7zM334 105c0 2.9-.1 3-5 3h-5v12h3.5c3.2 0 3.5.2 3.5 3s-.3 3-3.5 3H324v13h5c4.9 0 5 .1 5 3v3h-17v-43h17v3zm21.5-.6c3 3 4.2 10.3 2.6 15.7-.7 2.1-1.5 3.9-1.9 3.9-.4 0-1.3.4-2 .9-1.1.6-.7 2.5 1.7 9.5 1.7 4.8 3.1 9.2 3.1 9.7 0 .6-1.7.9-3.7.7-3.6-.3-3.6-.3-6.7-9.3l-3.1-9-.3 9.2-.3 9.3H338v-43h7.5c6.7 0 7.9.3 10 2.4zm25.4 0c1.5 1.6 2.5 4.2 2.8 7l.6 4.6h-3.6c-3.4 0-3.6-.2-3.9-3.8-.3-3.4-.6-3.7-3.3-3.7h-3l-.3 14.7c-.2 14-.2 14.8 1.8 15.8 3.3 1.7 5-.4 5-6 0-4-.3-4.9-2.1-5.3-1.5-.4-2-1.2-1.7-2.9.3-2 .9-2.3 5.6-2.6l5.2-.3V145h-2.5c-1.6 0-2.5-.6-2.5-1.5 0-1.3-.6-1.1-2.9.6-3.6 2.6-8.2 1.9-11.1-1.8-1.8-2.3-2-4.1-2-18 0-19.9 1.1-22.2 10.6-22.3 4.1 0 5.5.5 7.3 2.4zm13.6 4.3c1 3.8 2.1 7.2 2.5 7.6.4.5 1.6-2.5 2.6-6.7 1.8-7.6 1.8-7.6 5.1-7.6 1.8 0 3.3.4 3.3.8 0 .5-1.4 5.3-3.1 10.8-2.3 7.2-3.3 12.7-3.8 20.4l-.6 10.5-3.7.3-3.8.3v-8.7c0-8.2-1.7-15.7-7.5-33.2-.3-.8.8-1.2 3.4-1.2h3.8l1.8 6.7zm-133.1 83.9c1.3 1.3 1.6 4.6 1.6 20.4 0 18.4-.1 18.9-2.2 20.4-3 2.1-5.4 2-7.8-.4-1.9-1.9-2-3.3-2-20.2 0-15.5.2-18.4 1.7-20 2-2.2 6.6-2.4 8.7-.2zm-62.6 16.1c2.9 2.6 18.2 29.8 18.2 32.4 0 5.1-6.9 7.9-10.2 4.1-3-3.4-17.8-30.2-17.8-32.2 0-2.5 3.4-6 5.9-6 1 0 2.8.8 3.9 1.7zm124.2.3c1.1 1.1 2 2.9 2 4 0 2.8-16.7 31.8-19 33-4.3 2.3-9-.5-9-5.2 0-2.5 16.7-31.5 18.8-32.8 2.6-1.5 5-1.2 7.2 1zm-44.5 41c24.9 7.8 42.8 25.9 50.7 51 2 6.4 2.3 9.5 2.3 21.5-.1 12.7-.3 14.8-2.9 22-8.5 24.7-26.4 41.8-51.6 49.6-6.1 1.9-9.7 2.4-19.5 2.3-14.6 0-21.5-1.6-34.3-8-38.1-19.1-52.5-67.2-31-103.8 11-18.7 28-31.2 49.3-36.2 8.9-2 28-1.2 37 1.6zm-113 11.6c8.3 4.7 15.6 9.3 16.3 10.2 2.8 3.6.1 9.2-4.7 9.2-2.6 0-27.9-13.7-31.8-17.3-1.3-1.1-2.3-3.1-2.3-4.4 0-2.7 3.3-6.3 5.8-6.3 1 0 8.5 3.9 16.7 8.6zm203.7-6.9c2.9 2.6 2.3 6.8-1.4 9.6-6.7 4.9-28.6 16.7-31.1 16.7-1.7 0-3.2-.9-4.3-2.6-3.2-4.8-1.4-6.8 15.5-16.5 8.5-4.9 16.4-8.9 17.5-8.9 1.1 0 2.8.7 3.8 1.7zM169 317c2.4 2.4 2.5 4.8.4 7.8-1.5 2.1-2 2.2-20.4 2.2-15.8 0-19.1-.3-20.4-1.6-2.1-2-2-6.3.1-8.6 1.4-1.6 3.5-1.8 20-1.8 17 0 18.4.1 20.3 2zm216.7.2c2.7 2.5 2.9 4.5.7 7.6-1.5 2.1-2 2.2-20.3 2.2-20.4 0-22.3-.5-22.3-5.4 0-1.4.8-3.6 1.7-4.6 1.7-1.9 3.2-2 19.8-2 17.2 0 18.2.1 20.4 2.2zM181 363c2.6 2.6 2.5 6.2-.2 8.7-4.1 3.7-29.3 17.3-32.1 17.3-1.8 0-3.2-.9-4.3-2.6-3.2-4.8-1.3-6.8 15.6-16.5 8.5-4.9 16.3-8.9 17.2-8.9 1 0 2.7.9 3.8 2zm172.3 6.1c7.8 4.5 15 8.8 16 9.7 3.6 3.1 1 10.2-3.8 10.2-2.7 0-30.2-15.3-32.7-18.2-1-1.1-1.8-2.9-1.8-3.9 0-2.5 3.5-5.9 6-5.9 1.2 0 8.5 3.7 16.3 8.1zm-138.5 27.5c1.4.9 2.2 2.6 2.2 4.4 0 2.9-15 30.4-17.8 32.7-3.7 3-10.2.1-10.2-4.5 0-1.8 14.7-27.7 17.8-31.4 2.7-3.2 4.8-3.5 8-1.2zm91.2-.6c2.4 1.3 19 30.1 19 33.1 0 5.1-6.9 8-10.2 4.1-3-3.5-17.8-30.3-17.8-32.2 0-2.2 3.7-6 5.8-6 .7 0 2.2.4 3.2 1zm-43.8 14.4c.4.6.8 9.5.8 19.8 0 18.2-.1 18.7-2.2 20.2-3 2.1-5.4 2-7.8-.4-1.9-1.9-2-3.3-2-20.3 0-19.4.2-20.4 5-21.9 1.6-.6 5.1.9 6.2 2.6z"/><path d="M221.2 48.2c-.8.8-1.2 5.6-1.2 14.8 0 14 .5 16 4.2 16 .9 0 2.2-.9 2.8-1.9 1.3-2.5 1.3-24.1 0-27.5-1-2.8-3.8-3.4-5.8-1.4zM271 63c0 17.1.2 17.6 5.1 15 1.7-1 1.9-2.3 1.9-15s-.2-14-1.9-15c-4.9-2.6-5.1-2.1-5.1 15zm175 0v16h2.3c4.2 0 4.7-1.6 4.7-16.2 0-12.6-.2-13.8-1.9-14.8-4.9-2.6-5.1-2.1-5.1 15zM253.8 272.1c-1.6.9-1.8 2.8-1.8 16.9 0 15.7 0 16 2.4 17.5 3 2 7.1.6 7.9-2.7.4-1.3.7-8.2.7-15.3 0-10.2-.3-13.5-1.6-15.3-1.6-2.3-4.8-2.8-7.6-1.1z"/><path d="M240 286.3c-2.5 1.1-7.3 4.9-10.6 8.3-23.3 23.4-7.9 63.1 25.2 65.2 10.9.7 18.9-1.8 27.1-8.5 13.7-11 18.1-31 10.5-46.6-3.8-7.6-12.6-16.4-19-18.9l-4.2-1.6V298l5.4 5.2c9 8.7 10.6 18.8 5 29.9-9.6 19.1-37.5 17.6-45.9-2.4-.8-2-1.5-6.4-1.5-9.7 0-7.7 2.8-13.7 8.7-18.9l4.4-3.9-.3-7-.3-7-4.5 2.1z"/></g></svg>