<?xml version="1.0" standalone="no"?>
<!DOCTYPE svg PUBLIC "-//W3C//DTD SVG 20010904//EN"
 "http://www.w3.org/TR/2001/REC-SVG-20010904/DTD/svg10.dtd">
<svg version="1.0" xmlns="http://www.w3.org/2000/svg"
 width="515.000000pt" height="512.000000pt" viewBox="0 0 515.000000 512.000000"
 preserveAspectRatio="xMidYMid meet">
<metadata>
Created by potrace 1.15, written by Peter Selinger 2001-2017
</metadata>
<g transform="translate(0.000000,512.000000) scale(0.100000,-0.100000)"
fill="#000000" stroke="none">
<path d="M0 2565 l0 -2555 2565 0 2565 0 0 2555 0 2555 -2565 0 -2565 0 0
-2555z m794 2135 c120 -19 177 -90 184 -227 6 -107 -10 -164 -56 -204 l-35
-31 32 -25 c62 -48 75 -91 76 -243 0 -126 -2 -139 -27 -192 -43 -92 -127 -134
-252 -126 -87 6 -145 34 -185 88 -42 59 -54 123 -49 259 5 130 16 159 73 209
l35 31 -24 17 c-14 8 -35 36 -47 60 -18 39 -21 58 -17 142 3 75 9 107 26 139
27 53 84 92 149 103 26 4 50 8 53 9 3 0 32 -3 64 -9z m719 -11 c56 -15 69 -44
75 -159 6 -132 -4 -204 -33 -238 -21 -24 -31 -27 -104 -30 l-81 -4 0 221 0
221 53 0 c28 0 69 -5 90 -11z m287 -19 c0 -29 -1 -30 -50 -30 l-50 0 0 -65 0
-65 35 0 c32 0 35 -2 35 -30 0 -28 -3 -30 -35 -30 l-35 0 0 -65 0 -65 50 0
c49 0 50 -1 50 -30 l0 -30 -85 0 -85 0 0 220 0 220 85 0 85 0 0 -30z m199 15
c35 -17 41 -32 41 -96 0 -48 -1 -49 -30 -49 -28 0 -30 2 -30 39 0 44 -19 66
-50 56 -19 -6 -20 -14 -20 -156 0 -129 2 -150 16 -156 31 -12 49 11 52 66 3
49 4 51 33 51 29 0 29 -1 29 -55 0 -60 -19 -109 -45 -119 -9 -3 -34 -6 -54 -6
-49 0 -87 30 -101 78 -12 46 -13 223 0 277 17 75 89 106 159 70z m259 -17 c3
-27 2 -28 -47 -28 l-51 0 0 -65 0 -65 35 0 c32 0 35 -2 35 -30 0 -28 -3 -30
-35 -30 l-35 0 0 -65 0 -65 51 0 c49 0 50 -1 47 -27 l-3 -28 -85 0 -85 0 -3
205 c-1 112 0 210 3 218 3 9 26 12 87 10 82 -3 83 -3 86 -30z m147 -93 l40
-120 3 123 3 123 27 -3 27 -3 0 -215 0 -215 -31 -3 -31 -3 -39 126 -39 125 -5
-122 -5 -123 -27 -3 -28 -3 0 221 0 221 33 -3 c32 -3 32 -4 72 -123z m325 96
c0 -25 -4 -30 -27 -33 l-28 -3 -3 -187 -2 -188 -35 0 -35 0 0 190 0 190 -30 0
c-27 0 -30 3 -30 30 l0 30 95 0 95 0 0 -29z m164 12 c2 -10 10 -70 17 -133 7
-63 14 -109 17 -102 2 8 12 66 21 130 16 114 17 117 43 120 31 4 32 2 49 -128
18 -144 25 -147 38 -20 7 63 15 123 17 133 5 17 49 25 57 10 3 -6 -43 -386
-52 -430 -2 -8 -61 -2 -66 6 -3 6 -13 60 -22 120 -9 61 -20 111 -23 111 -3 0
-12 -42 -19 -92 -21 -154 -19 -148 -56 -148 l-33 0 -12 83 c-32 226 -46 348
-42 352 13 13 61 4 66 -12z m455 3 c43 -23 51 -54 51 -207 0 -183 -17 -219
-104 -219 -48 0 -81 17 -97 49 -15 31 -24 221 -14 288 13 87 88 128 164 89z
m254 -1 c28 -11 47 -59 47 -120 0 -50 -4 -60 -29 -84 l-29 -27 34 -94 c19 -52
34 -96 34 -98 0 -2 -17 -2 -37 0 -38 3 -38 3 -68 88 l-30 85 -5 -85 -5 -85
-35 0 -35 0 -3 205 c-1 112 0 211 3 219 4 11 20 13 73 8 37 -3 75 -9 85 -12z
m159 -77 l3 -93 38 93 c38 91 39 92 74 92 25 0 34 -4 30 -14 -3 -7 -22 -52
-43 -99 l-37 -86 41 -114 c23 -63 42 -117 42 -121 0 -4 -17 -6 -37 -4 l-37 3
-35 99 -36 98 -3 -101 -3 -101 -34 0 -35 0 0 220 0 220 35 0 34 0 3 -92z m407
40 c22 -106 71 -370 71 -379 0 -5 -15 -9 -34 -9 -36 0 -46 12 -46 56 0 21 -4
24 -40 24 -35 0 -40 -3 -46 -27 -3 -16 -7 -34 -10 -40 -4 -16 -64 -17 -64 -2
0 11 65 364 75 407 4 18 12 22 44 22 l40 0 10 -52z m212 -68 l37 -115 3 115 4
115 28 3 27 3 0 -220 0 -221 -30 0 c-29 0 -30 2 -72 133 l-43 132 -3 -133 -3
-133 -27 3 -27 3 -3 205 c-1 112 0 210 3 218 3 8 17 12 37 10 32 -3 33 -5 69
-118z m332 80 c27 -30 27 -31 27 -176 0 -170 -9 -197 -68 -214 -20 -6 -62 -10
-92 -8 l-55 3 -3 205 c-1 112 0 211 3 219 4 11 21 13 83 8 70 -5 80 -9 105
-37z m-3173 -600 c0 -29 -1 -30 -50 -30 l-50 0 0 -60 0 -60 35 0 c32 0 35 -2
35 -30 0 -28 -3 -30 -35 -30 l-35 0 0 -65 0 -65 50 0 c49 0 50 -1 50 -30 l0
-30 -85 0 -85 0 0 215 0 215 85 0 85 0 0 -30z m218 8 c12 -14 23 -43 28 -75
l7 -53 -36 0 c-35 0 -36 1 -39 43 -3 39 -5 42 -33 42 l-30 0 -3 -145 c-2 -126
0 -146 14 -157 31 -23 54 1 54 57 l0 50 36 0 37 0 -6 -57 c-10 -95 -57 -135
-136 -113 -64 17 -76 48 -76 205 0 195 15 225 108 225 43 0 58 -5 75 -22z
m250 2 c32 -30 37 -60 37 -205 0 -104 -4 -136 -18 -162 -36 -67 -148 -66 -185
0 -14 26 -17 58 -17 162 0 72 3 142 8 157 13 47 45 68 102 68 38 0 57 -5 73
-20z m188 -97 l39 -118 3 118 3 117 29 0 30 0 0 -215 0 -215 -34 0 -34 0 -40
123 -40 122 -1 -122 -1 -123 -30 0 -30 0 0 215 0 215 34 0 33 0 39 -117z m321
102 c12 -9 27 -32 33 -53 14 -50 12 -259 -3 -302 -25 -73 -124 -89 -179 -29
l-28 29 0 156 0 156 29 29 c25 24 38 29 78 29 27 0 58 -7 70 -15z m189 -98
c12 -59 23 -110 26 -112 2 -3 12 47 22 110 l18 115 49 0 49 0 -2 -212 -3 -213
-32 -3 -33 -3 -1 133 c-1 142 -3 139 -34 -34 -14 -79 -20 -98 -34 -98 -14 0
-22 24 -43 128 l-26 127 -1 -127 -1 -128 -30 0 -30 0 0 216 0 215 42 -3 42 -3
22 -108z m274 -102 l0 -215 -35 0 -35 0 0 215 0 215 35 0 35 0 0 -215z m225
190 c20 -19 25 -34 25 -75 0 -48 -1 -50 -29 -50 -26 0 -29 4 -35 45 -6 39 -10
45 -32 45 -37 0 -46 -37 -42 -178 2 -96 6 -125 18 -132 33 -21 52 -1 58 59 4
48 6 51 33 51 28 0 29 -2 29 -50 0 -28 -7 -64 -15 -80 -30 -58 -128 -62 -169
-6 -18 23 -22 45 -24 143 -7 208 13 253 108 253 41 0 56 -5 75 -25z m315 7
c17 -13 24 -32 28 -71 l5 -52 -34 3 c-30 3 -35 7 -39 38 -4 27 -10 36 -29 38
-13 2 -28 -2 -32 -10 -5 -7 -9 -72 -9 -145 0 -106 3 -135 16 -147 32 -32 54
-9 54 56 0 36 -4 48 -15 48 -10 0 -15 10 -15 30 0 29 1 30 50 30 l50 0 0 -115
0 -115 -25 0 c-16 0 -25 6 -25 15 0 13 -6 11 -29 -6 -39 -29 -85 -19 -112 24
-18 29 -19 47 -17 190 l3 159 28 24 c36 30 113 34 147 6z m246 -5 c23 -20 28
-34 32 -83 4 -68 -10 -114 -38 -121 -11 -3 -20 -7 -20 -8 0 -1 16 -46 35 -99
l35 -96 -40 0 -39 0 -28 87 -28 86 -5 -84 -5 -84 -37 -3 -38 -3 0 215 0 216
74 0 c64 0 79 -3 102 -23z m251 8 c12 -9 27 -32 33 -53 14 -50 12 -259 -3
-302 -25 -73 -124 -89 -179 -29 l-28 29 0 154 c0 152 0 155 26 185 23 27 32
31 78 31 30 0 61 -6 73 -15z m137 -2 c2 -10 10 -67 17 -128 14 -124 19 -118
39 43 l12 102 29 0 c33 0 31 5 54 -146 8 -56 16 -105 16 -110 1 -5 9 50 18
121 l16 130 33 3 c30 3 32 1 28 -20 -3 -13 -15 -99 -26 -193 -28 -229 -24
-215 -64 -215 l-34 0 -18 115 c-10 63 -21 115 -25 115 -3 0 -9 -24 -13 -52 -4
-29 -12 -81 -17 -115 -11 -62 -11 -63 -44 -63 -38 0 -34 -15 -65 225 -11 88
-23 170 -25 183 -5 19 -1 22 29 22 24 0 36 -5 40 -17z m476 -13 c0 -27 -3 -30
-30 -30 l-30 0 0 -185 0 -185 -35 0 -35 0 0 185 0 185 -30 0 c-27 0 -30 3 -30
30 l0 30 95 0 95 0 0 -30z m110 -60 l0 -90 35 0 35 0 0 90 0 90 35 0 35 0 0
-215 0 -215 -35 0 -35 0 0 95 0 95 -35 0 -35 0 0 -95 0 -95 -35 0 -35 0 0 215
0 215 35 0 35 0 0 -90z m-970 -797 c0 -37 -87 -417 -96 -420 -5 -2 -32 19 -59
47 l-50 50 -517 -517 -518 -518 -213 213 -212 212 -330 -330 c-181 -182 -335
-330 -340 -330 -6 0 -37 27 -70 60 l-60 60 395 395 c217 217 399 395 405 395
5 0 103 -93 217 -207 l208 -208 452 452 453 453 -54 54 c-44 44 -51 57 -38 62
24 9 389 92 410 93 10 1 17 -6 17 -16z m-195 -1584 l0 -994 -292 -3 -293 -2 0
730 0 730 28 29 c78 85 537 511 546 508 8 -3 11 -304 11 -998z m-1497 -321
l-3 -673 -289 -3 c-225 -2 -291 1 -298 10 -9 15 -11 752 -2 786 8 30 553 551
577 552 16 0 17 -37 15 -672z m757 -44 l0 -629 -295 0 -295 0 0 619 c0 528 2
620 14 624 9 3 61 -44 136 -122 66 -69 125 -126 130 -126 5 0 71 61 146 136
76 75 144 134 151 132 11 -4 13 -123 13 -634z"/>
<path d="M702 4560 c-31 -13 -42 -49 -42 -136 0 -66 3 -78 25 -99 25 -26 63
-32 95 -15 57 30 53 222 -6 248 -29 14 -41 14 -72 2z"/>
<path d="M681 4144 c-11 -14 -23 -49 -27 -81 -10 -80 1 -209 20 -238 31 -47
108 -44 133 5 8 16 13 71 13 158 0 128 -1 134 -25 157 -34 34 -86 34 -114 -1z"/>
<path d="M1447 4633 c-4 -3 -7 -75 -7 -160 l0 -153 23 0 c42 0 47 16 47 162 0
126 -2 138 -19 148 -23 12 -35 13 -44 3z"/>
<path d="M3267 4633 c-4 -3 -7 -73 -7 -155 0 -128 2 -149 16 -155 9 -3 24 -2
33 4 13 8 16 34 19 148 2 93 -1 142 -9 151 -12 15 -41 19 -52 7z"/>
<path d="M4600 4480 c0 -151 1 -160 19 -160 44 0 51 24 51 160 0 136 -7 160
-51 160 -18 0 -19 -9 -19 -160z"/>
<path d="M1907 4024 c-4 -4 -7 -72 -7 -150 0 -130 2 -144 19 -153 13 -7 23 -7
35 2 14 11 16 31 14 157 l-3 145 -25 3 c-14 2 -29 0 -33 -4z"/>
<path d="M2416 4015 c-3 -9 -6 -74 -6 -145 0 -104 3 -132 16 -144 19 -20 28
-20 43 -2 8 9 11 60 9 157 l-3 144 -26 3 c-17 2 -29 -3 -33 -13z"/>
<path d="M3916 4015 c-3 -9 -6 -77 -6 -150 0 -125 1 -135 21 -145 15 -9 24 -8
35 1 12 10 14 40 12 158 l-3 146 -26 3 c-17 2 -29 -3 -33 -13z"/>
</g>
</svg>
