<?xml version="1.0" standalone="no"?>
<!DOCTYPE svg PUBLIC "-//W3C//DTD SVG 20010904//EN"
 "http://www.w3.org/TR/2001/REC-SVG-20010904/DTD/svg10.dtd">
<svg version="1.0" xmlns="http://www.w3.org/2000/svg"
 width="512.000000pt" height="513.000000pt" viewBox="0 0 512.000000 513.000000"
 preserveAspectRatio="xMidYMid meet">
<metadata>
Created by potrace 1.15, written by Peter Selinger 2001-2017
</metadata>
<g transform="translate(0.000000,513.000000) scale(0.100000,-0.100000)"
fill="#000000" stroke="none">
<path d="M0 2575 l0 -2555 2555 0 2555 0 0 2555 0 2555 -2555 0 -2555 0 0
-2555z m830 2114 c59 -32 98 -96 111 -183 6 -40 9 -187 7 -360 l-3 -292 -30
-59 c-48 -93 -112 -128 -233 -126 -74 0 -127 17 -166 52 -44 38 -63 88 -72
183 l-7 76 82 0 81 0 0 -37 c0 -63 17 -109 46 -121 39 -19 73 -14 99 13 24 23
25 29 25 162 0 127 -1 136 -16 115 -45 -65 -182 -73 -248 -14 -10 9 -28 35
-40 57 -19 37 -21 55 -21 225 0 185 0 185 28 233 47 80 111 109 232 104 63 -2
91 -9 125 -28z m440 -199 l0 -220 -35 0 -35 0 0 220 0 220 35 0 35 0 0 -220z
m131 100 l37 -115 4 115 3 115 28 3 27 3 0 -220 0 -221 -30 0 c-29 0 -30 2
-72 133 l-43 132 -3 -133 -3 -133 -27 3 -27 3 -3 205 c-1 112 0 210 3 218 3 8
17 12 37 10 32 -3 33 -5 69 -118z m292 105 c37 -15 47 -57 47 -205 0 -197 -16
-220 -151 -220 l-59 0 0 221 0 222 73 -6 c39 -3 80 -9 90 -12z m460 4 c29 -13
47 -48 47 -89 0 -27 -3 -30 -34 -30 -32 0 -35 3 -38 33 -2 27 -7 32 -28 32
-21 0 -26 -5 -28 -33 -3 -28 5 -41 58 -96 69 -72 86 -116 69 -179 -14 -52 -46
-71 -111 -65 -65 7 -87 33 -88 101 0 46 1 47 30 47 24 0 30 -4 30 -22 0 -51
11 -69 39 -66 22 3 26 8 29 41 3 34 -2 43 -59 103 -60 62 -63 67 -66 122 -4
59 4 78 42 100 26 15 77 15 108 1z m247 -19 c0 -27 -3 -30 -30 -30 l-30 0 0
-190 0 -190 -35 0 -35 0 -2 188 -3 187 -27 3 c-24 3 -28 8 -28 33 l0 29 95 0
95 0 0 -30z m198 -5 c17 -21 22 -38 22 -83 0 -75 -7 -97 -35 -112 l-23 -12 28
-77 c48 -132 47 -123 3 -119 l-38 3 -32 90 -32 90 0 -93 -1 -93 -37 3 -38 3
-3 205 c-1 112 0 211 3 219 4 11 21 13 83 8 67 -5 80 -9 100 -32z m117 -42
c11 -40 22 -73 25 -73 3 0 14 33 25 73 19 69 21 72 53 75 17 2 32 -1 32 -6 0
-5 -18 -69 -40 -142 -32 -106 -40 -149 -40 -212 l0 -78 -35 0 -35 0 0 87 c0
71 -6 107 -36 202 -19 64 -38 124 -41 134 -4 16 1 18 34 15 l38 -3 20 -72z
m325 -143 l0 -220 -35 0 -35 0 0 220 0 220 35 0 35 0 0 -220z m131 105 l37
-110 3 110 4 110 30 0 30 0 0 -215 0 -215 -31 -3 -31 -3 -36 114 c-21 63 -38
121 -39 128 -1 8 -5 -42 -8 -111 -5 -122 -6 -125 -29 -128 -13 -2 -28 2 -32
10 -10 16 -12 412 -2 422 4 4 21 6 38 4 29 -3 31 -7 66 -113z m237 -7 l40
-123 1 123 1 123 28 -3 27 -3 3 -217 2 -218 -29 0 c-16 0 -32 4 -35 9 -3 4
-23 64 -45 132 l-40 124 -1 -132 0 -133 -30 0 -30 0 0 220 0 220 34 0 34 0 40
-122z m291 108 c43 -23 51 -54 51 -207 0 -154 -10 -192 -56 -209 -55 -21 -118
-7 -144 33 -19 29 -27 265 -11 318 21 70 93 99 160 65z m138 -66 c30 -185 36
-214 40 -203 2 7 14 72 26 145 l23 133 32 3 c23 2 32 -1 32 -11 0 -16 -68
-382 -76 -409 -6 -22 -84 -26 -84 -5 -1 6 -18 102 -39 212 -21 110 -37 204
-34 208 3 4 19 7 36 5 31 -3 32 -4 44 -78z m283 77 c0 -1 18 -97 40 -212 22
-115 40 -213 40 -217 0 -5 -15 -8 -34 -8 -36 0 -46 12 -46 56 0 23 -3 25 -42
22 -41 -3 -43 -5 -48 -38 -4 -31 -9 -35 -37 -38 -21 -2 -33 1 -33 9 0 15 69
387 76 412 4 12 16 17 45 17 21 0 39 -1 39 -3z m248 -29 c3 -25 0 -28 -27 -28
l-31 0 -2 -187 -3 -188 -35 0 -35 0 -3 188 -2 187 -30 0 c-25 0 -30 4 -30 23
0 13 3 27 7 31 4 4 48 5 98 4 90 -3 90 -3 93 -30z m82 -188 l0 -220 -35 0 -35
0 0 213 c0 118 3 217 7 220 3 4 19 7 35 7 l28 0 0 -220z m203 200 c36 -29 47
-76 47 -208 0 -123 -12 -168 -51 -196 -47 -33 -128 -15 -154 33 -20 40 -21
303 -1 340 29 52 112 68 159 31z m176 -102 l40 -123 0 123 1 122 30 0 30 0 0
-221 0 -220 -32 3 c-32 3 -32 4 -74 133 l-42 130 -1 -132 -1 -133 -30 0 -30 0
0 213 c0 118 3 217 7 220 3 4 19 7 34 7 27 0 30 -4 68 -122z m-2989 -57 c0
-93 3 -176 6 -185 8 -21 50 -21 58 0 3 9 6 92 6 185 l0 169 35 0 35 0 0 -162
c0 -90 -5 -180 -10 -200 -14 -48 -43 -68 -98 -68 -35 0 -49 6 -73 29 l-29 29
0 186 0 186 35 0 35 0 0 -169z m1279 -455 c11 -12 21 -38 23 -61 3 -39 2 -40
-29 -43 -31 -3 -33 -1 -33 26 0 39 -22 57 -49 42 -37 -20 -26 -56 38 -123 69
-73 81 -94 81 -141 0 -66 -42 -116 -98 -116 -69 0 -112 46 -112 120 0 39 1 40
35 40 34 0 35 -1 35 -38 0 -58 38 -84 60 -41 18 33 3 67 -55 128 -77 81 -93
133 -58 192 29 49 122 58 162 15z m-1769 22 c0 -2 18 -95 40 -208 22 -113 40
-209 40 -213 0 -5 -17 -7 -37 -5 -35 3 -38 6 -43 38 -4 31 -9 35 -39 38 -38 4
-51 -9 -51 -50 0 -25 -4 -28 -35 -28 -19 0 -35 5 -35 11 0 13 70 387 76 407 3
10 84 19 84 10z m202 -110 l36 -113 1 113 1 112 30 0 30 0 0 -216 0 -215 -31
3 c-30 3 -32 6 -69 123 l-39 120 -3 -120 -3 -120 -32 -3 -33 -3 0 215 0 216
38 0 38 0 36 -112z m309 83 l29 -29 0 -157 0 -157 -29 -29 c-27 -27 -35 -29
-105 -29 l-76 0 0 215 0 215 76 0 c70 0 78 -2 105 -29z m179 -187 l0 -215 -37
3 -38 3 -3 213 -2 212 40 0 40 0 0 -216z m131 96 l37 -115 1 118 1 117 30 0
30 0 0 -216 0 -215 -32 3 c-32 3 -33 4 -73 128 l-40 125 -3 -127 -3 -128 -29
0 -30 0 0 216 0 215 37 -3 37 -3 37 -115z m289 90 c0 -29 -2 -30 -45 -30 l-45
0 0 -60 0 -60 35 0 c32 0 35 -2 35 -30 0 -28 -3 -30 -35 -30 l-35 0 0 -95 0
-95 -40 0 -40 0 0 215 0 215 85 0 85 0 0 -30z m195 5 c22 -21 25 -33 25 -99 0
-68 -2 -76 -26 -95 l-26 -20 26 -78 c15 -43 30 -84 34 -91 5 -7 24 73 47 198
l39 210 42 0 42 0 37 -197 c20 -109 39 -206 42 -215 4 -15 -2 -18 -36 -18 -38
0 -41 2 -41 28 0 41 -13 54 -51 50 -30 -3 -35 -7 -39 -38 l-5 -35 -74 0 -73 0
-33 90 -34 90 0 -92 -1 -93 -35 0 -35 0 0 215 0 215 75 0 c67 0 79 -3 100 -25z
m685 -5 c0 -27 -3 -30 -30 -30 l-30 0 0 -185 0 -185 -35 0 -35 0 0 185 0 185
-30 0 c-27 0 -30 3 -30 30 l0 30 95 0 95 0 0 -30z m187 15 c51 -35 54 -167 6
-205 l-26 -20 32 -86 c17 -47 31 -90 31 -96 0 -5 -17 -8 -37 -6 -36 3 -36 3
-67 93 l-31 90 -3 -92 -3 -93 -34 0 -35 0 0 215 0 215 73 0 c49 0 80 -5 94
-15z m133 -165 c0 -162 2 -180 18 -189 11 -6 24 -6 35 0 15 9 17 30 17 189 l0
180 35 0 35 0 0 -172 c0 -145 -3 -179 -18 -208 -32 -66 -118 -77 -168 -23 -24
25 -24 29 -24 214 l0 189 35 0 35 0 0 -180z m340 162 c18 -14 24 -32 28 -75
l4 -57 -35 0 c-35 0 -36 1 -39 42 -3 46 -25 61 -53 38 -22 -19 -21 -272 1
-294 18 -18 17 -18 38 -10 12 5 16 20 16 60 l0 54 35 0 35 0 0 -50 c0 -67 -21
-105 -64 -120 -49 -16 -96 -1 -123 40 -21 30 -23 45 -23 167 0 189 17 222 111
223 31 0 55 -6 69 -18z m230 -12 c0 -27 -3 -30 -30 -30 l-30 0 0 -185 0 -185
-35 0 -35 0 0 185 0 185 -30 0 c-27 0 -30 3 -30 30 l0 30 95 0 95 0 0 -30z
m90 -150 c0 -162 2 -180 18 -189 11 -6 24 -6 35 0 15 9 17 30 17 189 l0 180
36 0 36 0 -4 -183 c-3 -156 -6 -187 -21 -210 -35 -54 -116 -59 -163 -12 -24
24 -24 27 -24 215 l0 190 35 0 35 0 0 -180z m329 163 c48 -39 50 -167 3 -203
l-25 -20 32 -86 c17 -47 31 -90 31 -96 0 -5 -17 -8 -37 -6 -36 3 -36 3 -67 93
l-31 90 -3 -92 -3 -93 -34 0 -35 0 0 215 0 215 74 0 c55 0 79 -4 95 -17z m231
-13 c0 -29 -1 -30 -50 -30 l-50 0 0 -60 0 -60 35 0 c32 0 35 -2 35 -30 0 -28
-3 -30 -35 -30 l-35 0 0 -65 0 -65 50 0 c49 0 50 -1 50 -30 l0 -30 -85 0 -85
0 0 215 0 215 85 0 85 0 0 -30z m-1943 -1031 c171 -99 316 -186 322 -193 7 -8
12 -136 13 -371 l3 -359 297 -171 c163 -95 304 -177 312 -185 14 -11 16 -61
16 -389 0 -207 -4 -381 -8 -388 -15 -24 -654 -385 -672 -380 -11 3 -152 82
-315 176 -162 94 -300 171 -306 171 -6 0 -147 -79 -314 -175 -166 -96 -309
-175 -316 -175 -8 0 -160 85 -339 188 l-325 188 -3 385 c-2 348 -1 388 14 400
9 8 150 91 313 185 l296 172 3 359 c2 327 4 362 20 376 14 13 522 309 617 360
17 9 37 14 45 11 8 -3 155 -86 327 -185z"/>
<path d="M654 4568 c-36 -17 -44 -52 -44 -188 0 -120 2 -131 23 -154 32 -36
84 -39 117 -6 18 18 20 33 20 165 0 142 -1 147 -25 170 -25 26 -56 31 -91 13z"/>
<path d="M1600 4490 l0 -160 23 0 c42 0 47 16 47 162 0 126 -2 138 -19 148
-49 26 -51 21 -51 -150z"/>
<path d="M3610 4624 c-6 -14 -10 -74 -10 -134 0 -60 4 -120 10 -134 10 -28 38
-34 58 -14 15 15 17 261 2 289 -15 28 -49 24 -60 -7z"/>
<path d="M4562 4638 c-8 -8 -12 -53 -12 -149 0 -144 6 -165 47 -157 16 3 18
17 18 158 0 148 -1 155 -20 158 -11 1 -26 -3 -33 -10z"/>
<path d="M1750 3885 l0 -155 29 0 c17 0 31 6 35 16 3 9 6 73 6 143 0 135 -5
151 -47 151 l-23 0 0 -155z"/>
<path d="M2010 2460 l0 -292 68 39 c315 177 431 248 419 259 -6 6 -104 64
-217 129 -113 65 -220 126 -237 137 l-33 20 0 -292z"/>
<path d="M2938 2607 c-136 -78 -248 -145 -248 -148 0 -7 492 -291 497 -286 2
2 2 133 1 290 l-3 286 -247 -142z"/>
<path d="M2307 2242 c-130 -75 -237 -141 -237 -147 -1 -9 466 -284 483 -285 4
0 7 128 7 285 0 157 -3 285 -7 285 -5 0 -115 -62 -246 -138z"/>
<path d="M2640 2095 c0 -157 2 -285 6 -285 7 0 494 281 494 285 0 4 -486 285
-494 285 -3 0 -6 -128 -6 -285z"/>
<path d="M2953 1888 c-145 -84 -263 -154 -263 -157 0 -10 524 -306 541 -305
15 0 525 290 533 303 5 7 -518 311 -536 311 -7 0 -131 -69 -275 -152z"/>
<path d="M1382 1343 l3 -317 265 -153 c145 -84 268 -153 272 -153 5 0 7 141 6
312 l-3 313 -255 148 c-140 81 -263 152 -273 158 -16 9 -17 -7 -15 -308z"/>
<path d="M2308 1517 c-136 -78 -247 -145 -248 -148 0 -8 491 -292 496 -286 2
2 3 133 2 290 l-3 285 -247 -141z"/>
<path d="M3543 1502 l-273 -157 0 -312 c0 -172 3 -313 6 -313 8 0 500 282 527
302 16 12 17 37 15 325 l-3 311 -272 -156z"/>
<path d="M2010 1004 c0 -248 2 -285 15 -280 20 7 468 266 478 275 6 6 -471
291 -488 291 -3 0 -5 -129 -5 -286z"/>
</g>
</svg>
