<?xml version="1.0" encoding="UTF-8" standalone="no"?>
<!DOCTYPE svg PUBLIC "-//W3C//DTD SVG 1.1//EN" "http://www.w3.org/Graphics/SVG/1.1/DTD/svg11.dtd">
<svg width="100%" height="100%" viewBox="0 0 44 28" version="1.1" xmlns="http://www.w3.org/2000/svg" xmlns:xlink="http://www.w3.org/1999/xlink" xml:space="preserve" xmlns:serif="http://www.serif.com/" style="fill-rule:evenodd;clip-rule:evenodd;stroke-linejoin:round;stroke-miterlimit:2;">
    <g transform="matrix(1,0,0,1,-0.00097712,-0.00037704)">
        <g transform="matrix(3.10648,0,0,3.10648,-113.988,-112.215)">
            <g>
                <path d="M38.194,36.123C37.37,36.123 36.694,36.799 36.694,37.623L36.694,43.623C36.694,44.447 37.37,45.123 38.194,45.123L46.405,45.123C46.803,45.127 47.186,44.955 47.463,44.666L50.272,41.697C50.838,41.096 50.838,40.146 50.272,39.549L47.463,36.584C47.19,36.291 46.807,36.123 46.405,36.123L38.194,36.123ZM38.194,37.123L46.409,37.123C46.526,37.123 46.643,37.17 46.737,37.271L49.545,40.236C49.741,40.443 49.741,40.803 49.545,41.01L46.737,43.978C46.643,44.076 46.526,44.127 46.409,44.123L38.194,44.123C37.916,44.123 37.694,43.9 37.694,43.623L37.694,37.623C37.694,37.346 37.916,37.123 38.194,37.123ZM47.194,40.123C46.916,40.123 46.694,40.346 46.694,40.623C46.694,40.9 46.916,41.123 47.194,41.123C47.471,41.123 47.694,40.9 47.694,40.623C47.694,40.346 47.471,40.123 47.194,40.123Z" style="fill:white;"/>
            </g>
        </g>
    </g>
</svg>
