<svg xmlns="http://www.w3.org/2000/svg" xmlns:vectornator="http://vectornator.io" viewBox="0 0 104.895 73.71" fill-rule="evenodd" clip-rule="evenodd" stroke-linecap="round" stroke-linejoin="round"><path d="M38.194 36.123c-.825 0-1.5.676-1.5 1.5v6c0 .824.675 1.5 1.5 1.5h8.21c.4.004.782-.168 1.06-.457l2.808-2.969a1.57 1.57 0 000-2.148l-2.809-2.965a1.448 1.448 0 00-1.058-.461h-8.211zm0 1h8.215c.117 0 .234.047.328.148l2.808 2.965a.584.584 0 010 .774l-2.808 2.968a.437.437 0 01-.328.145h-8.215a.499.499 0 01-.5-.5v-6c0-.277.222-.5.5-.5zm9 3c-.278 0-.5.223-.5.5s.222.5.5.5a.499.499 0 100-1z" fill="#fff" vectornator:layerName="Layer 1"/></svg>