<svg width="15" height="16" viewBox="0 0 15 16" fill="none" xmlns="http://www.w3.org/2000/svg">
  <path
    d="M1.79467 4.64482L1.79454 4.64471C1.2173 4.14836 1.08566 3.63607 1.08566 3.28155C1.08566 2.92723 1.21717 2.41302 1.79475 1.91821C2.16535 1.60032 2.67561 1.32469 3.30146 1.09791L1.79467 4.64482ZM1.79467 4.64482C2.16529 4.96275 2.67559 5.2384 3.30149 5.46521C4.52314 5.90816 6.12775 6.14987 7.81803 6.14987C9.50831 6.14987 11.1129 5.90816 12.3346 5.46521C12.9605 5.2384 13.4708 4.96275 13.8414 4.64482C14.4189 4.15004 14.5504 3.63586 14.5504 3.28155C14.5504 2.92704 14.4188 2.41474 13.8415 1.91839L13.8414 1.91828M1.79467 4.64482L13.8414 1.91828M13.8414 1.91828C13.4708 1.60036 12.9605 1.32471 12.3346 1.09791L13.8414 1.91828ZM3.75793 2.35461L3.75803 2.35458C4.82747 1.96646 6.26934 1.7501 7.81803 1.7501C9.36673 1.7501 10.8086 1.96646 11.878 2.35458L11.8781 2.35461C12.3976 2.54273 12.7392 2.73927 12.9479 2.91229C13.1634 3.09094 13.2135 3.22368 13.2135 3.28155C13.2135 3.33942 13.1634 3.47216 12.9479 3.65081C12.7392 3.82383 12.3976 4.02038 11.8781 4.20849L11.878 4.20852C10.8086 4.59664 9.36673 4.813 7.81803 4.813C6.26934 4.813 4.82747 4.59664 3.75803 4.20852L3.75793 4.20849C3.23851 4.02038 2.89688 3.82383 2.68817 3.65081C2.47268 3.47216 2.42252 3.33942 2.42252 3.28155C2.42252 3.22368 2.47268 3.09094 2.68817 2.91229C2.89688 2.73927 3.23851 2.54273 3.75793 2.35461ZM7.81803 0.413232C6.12775 0.413232 4.52314 0.654945 3.30149 1.0979H12.3346C11.1129 0.654946 9.50831 0.413232 7.81803 0.413232Z"
    fill="white" stroke="white" strokeWidth="0.3" />
  <path
    d="M1.79399 7.83135L1.79412 7.83147C2.16474 8.14939 2.67504 8.42505 3.30094 8.65185C4.52259 9.0948 6.1272 9.33651 7.81748 9.33651C9.50753 9.33651 11.1122 9.09659 12.334 8.65185C12.9599 8.42505 13.4702 8.14939 13.8408 7.83147L13.841 7.83135C14.4182 7.335 14.5499 6.82271 14.5499 6.46819V6.31819H14.3999H13.363H13.213V6.46819C13.213 6.52607 13.1628 6.6588 12.9473 6.83745C12.7386 7.01047 12.397 7.20702 11.8776 7.39513L11.8775 7.39516C10.808 7.78328 9.36618 7.99964 7.81748 7.99964C6.26879 7.99964 4.82692 7.78328 3.75748 7.39516L3.75738 7.39513C3.23796 7.20702 2.89633 7.01047 2.68762 6.83745C2.47213 6.6588 2.42197 6.52607 2.42197 6.46819V6.31819H2.27197H1.23511H1.08511V6.46819C1.08511 6.82271 1.21675 7.335 1.79399 7.83135Z"
    fill="white" stroke="white" strokeWidth="0.3" />
  <path
    d="M1.79399 11.0197L1.79412 11.0198C2.16474 11.3377 2.67504 11.6134 3.30094 11.8402C4.52259 12.2831 6.1272 12.5248 7.81748 12.5248C9.50776 12.5248 11.1124 12.2831 12.334 11.8402C12.9599 11.6134 13.4702 11.3377 13.8408 11.0198L13.841 11.0197C14.4182 10.5233 14.5499 10.011 14.5499 9.65652V9.50652H14.3999H13.363H13.213V9.65652C13.213 9.71439 13.1628 9.84712 12.9473 10.0258C12.7386 10.1988 12.397 10.3953 11.8776 10.5835L11.8775 10.5835C10.808 10.9716 9.36618 11.188 7.81748 11.188C6.26879 11.188 4.82692 10.9716 3.75748 10.5835L3.75738 10.5835C3.23796 10.3953 2.89633 10.1988 2.68762 10.0258C2.47213 9.84712 2.42197 9.71439 2.42197 9.65652V9.50652H2.27197H1.23511H1.08511V9.65652C1.08511 10.011 1.21675 10.5233 1.79399 11.0197Z"
    fill="white" stroke="white" strokeWidth="0.3" />
  <path
    d="M1.79399 14.2081L1.79408 14.2082C2.1665 14.5279 2.67513 14.8018 3.30094 15.0286C4.52259 15.4716 6.1272 15.7133 7.81748 15.7133C9.50776 15.7133 11.1124 15.4716 12.334 15.0286C12.9599 14.8018 13.4702 14.5262 13.8408 14.2082C14.4184 13.7134 14.5499 13.1993 14.5499 12.845V3.28159V3.13159H14.3999H13.363H13.213V3.28159C13.213 3.33946 13.1628 3.4722 12.9473 3.65085C12.7386 3.82387 12.397 4.02041 11.8776 4.20853L11.8775 4.20856C10.808 4.59668 9.36618 4.81304 7.81748 4.81304C6.26879 4.81304 4.82692 4.59668 3.75748 4.20856L3.75738 4.20853C3.23796 4.02041 2.89633 3.82387 2.68762 3.65085C2.47213 3.4722 2.42197 3.33946 2.42197 3.28159V3.13159H2.27197H1.23511H1.08511V3.28159V12.845C1.08511 13.1995 1.21675 13.7118 1.79399 14.2081ZM2.42197 12.845V5.07237C2.68102 5.21562 2.97511 5.3469 3.29887 5.46512L3.29918 5.46523C4.52084 5.90819 6.12546 6.14991 7.81575 6.14991C9.50776 6.14991 11.1106 5.9082 12.3323 5.46525C12.6589 5.34698 12.9537 5.21565 13.213 5.07234V12.845C13.213 12.9028 13.1628 13.0356 12.9473 13.2142C12.7386 13.3872 12.397 13.5838 11.8776 13.7719L11.8775 13.7719C10.808 14.16 9.36618 14.3764 7.81748 14.3764C6.26879 14.3764 4.82692 14.16 3.75748 13.7719L3.75738 13.7719C3.23796 13.5838 2.89633 13.3872 2.68762 13.2142C2.47213 13.0356 2.42197 12.9028 2.42197 12.845Z"
    fill="white" stroke="white" strokeWidth="0.3" />
</svg>