<svg width="19" height="16" viewBox="0 0 19 16" fill="none" xmlns="http://www.w3.org/2000/svg">
  <g clipPath="url(#clip0)">
    <path
      d="M18.5499 10.056C17.2054 8.85821 13.5312 9.34529 12.6503 9.43475C11.6825 8.59976 10.848 7.6604 10.1642 6.64151C10.6452 5.45364 10.9291 4.21606 10.9929 2.95861C10.9929 1.85026 10.4771 0.652443 9.02829 0.652443C8.5183 0.667353 8.04889 0.900952 7.78811 1.27372C7.16802 2.20811 7.4288 4.06696 8.4082 5.9755C7.73595 7.72004 6.88405 9.41487 5.87568 11.0351C4.36892 11.562 1.21631 12.8045 0.955524 14.1365C0.857006 14.5441 1.01348 14.9616 1.36699 15.2449C1.72629 15.5083 2.18991 15.6475 2.65932 15.6425C4.57175 15.6425 6.43782 13.3811 7.73015 11.4725C9.20214 11.0451 10.7089 10.7021 12.2331 10.4536C14.2498 11.9646 16.0115 12.1833 16.9446 12.1833C18.1848 12.1833 18.6542 11.7409 18.8048 11.3383C19.0367 10.9109 18.9381 10.399 18.5499 10.056ZM17.2517 10.8115C17.1996 11.1196 16.7359 11.4328 15.9072 11.2538C14.9452 11.0351 14.0412 10.6375 13.2704 10.1008C13.9426 10.0113 15.4436 9.8771 16.5331 10.056C16.9446 10.1455 17.356 10.3642 17.2517 10.8115ZM8.61103 1.66636C8.69796 1.53713 8.85443 1.45761 9.02249 1.4427C9.48611 1.4427 9.59042 1.92978 9.59042 2.33236C9.53827 3.27173 9.32964 4.19618 8.97033 5.08584C8.19957 3.31149 8.35604 2.06894 8.61103 1.66636ZM8.51251 10.2797C8.95874 9.46954 9.35861 8.63952 9.70053 7.79459C10.1815 8.44568 10.7321 9.05702 11.358 9.61368C11.358 9.65344 9.75269 9.92183 8.51251 10.2797ZM5.45842 12.054C4.2704 13.7389 3.02442 14.8075 2.35218 14.8075C2.24207 14.7976 2.13775 14.7678 2.03923 14.7181C1.88276 14.6336 1.81901 14.4646 1.88276 14.3204C2.03923 13.6942 3.38952 12.8493 5.45842 12.054Z"
      fill="white" />
  </g>
  <defs>
    <clipPath id="clip0">
      <rect width="18" height="15" fill="white" transform="translate(0.926514 0.646973)" />
    </clipPath>
  </defs>
</svg>