<svg width="30" height="27" viewBox="0 0 30 27" fill="none" xmlns="http://www.w3.org/2000/svg">
<path fill-rule="evenodd" clip-rule="evenodd" d="M25.5001 0H10.5002C8.01393 0 6.00019 1.76921 6.00019 3.95355V17.132C6.00019 19.3164 8.01393 21.0856 10.5002 21.0856H25.5001C27.9863 21.0856 30.0001 19.3164 30.0001 17.132V3.95355C30.0001 1.76921 27.9863 0 25.5001 0ZM2.99998 22.4035V5.49841C1.25249 6.03906 0 7.50187 0 9.22496V22.4035C0 24.5878 2.01374 26.357 4.49998 26.357H19.4999C21.4611 26.357 23.1261 25.2566 23.7415 23.7213H4.49998C3.67123 23.7213 2.99998 23.1316 2.99998 22.4035ZM25.4996 18.4499C26.3284 18.4499 26.9996 17.8602 26.9996 17.132V3.95355C26.9996 3.22544 26.3284 2.6357 25.4996 2.6357H10.4997C9.67098 2.6357 8.99973 3.22544 8.99973 3.95355V17.132C8.99973 17.8602 9.67098 18.4499 10.4997 18.4499H25.4996Z" fill="#436779"/>
</svg>
