<svg width="16" height="15" viewBox="0 0 16 15" fill="none" xmlns="http://www.w3.org/2000/svg">
<path fill-rule="evenodd" clip-rule="evenodd" d="M11.61 7.59037L8.01016 3.99051L4.4103 7.59037L0.896484 11.1042V14.7041H4.49635L8.01016 11.1902L11.524 14.7041H15.1238V11.1042L11.61 7.59037Z" fill="#39C3E6"/>
<path fill-rule="evenodd" clip-rule="evenodd" d="M8.01016 10.4527L10.9029 7.55997L8.01016 4.66721L5.1174 7.55997L8.01016 10.4527ZM4.76385 7.20641L7.65661 4.31366L4.28924 0.946289L1.39648 0.946289L1.39648 3.83905L4.76385 7.20641ZM8.01016 3.9601L11.524 0.446289H14.6238H15.1238V0.94629V4.04615L11.61 7.55997L11.2565 7.91352L8.36372 10.8063L8.01016 11.1598L7.65661 10.8063L4.76385 7.91352L4.4103 7.55997L0.896484 4.04615V0.946289V0.446289H1.39649H4.49635L8.01016 3.9601ZM8.36372 4.31366L11.7311 0.946289L14.6238 0.94629V3.83905L11.2565 7.20641L8.36372 4.31366Z" fill="#39C3E6"/>
</svg>
