<svg width="25" height="25" fill="none" xmlns="http://www.w3.org/2000/svg">
  <path fill-rule="evenodd" clip-rule="evenodd" d="M23.34 12.569c0-5.8-4.7-10.5-10.5-10.5-5.799 0-10.5 4.7-10.5 10.5 0 5.799 4.701 10.5 10.5 10.5 5.8 0 10.5-4.701 10.5-10.5zm1.5 0c0-6.628-5.372-12-12-12-6.627 0-12 5.372-12 12 0 6.627 5.373 12 12 12 6.628 0 12-5.373 12-12z" fill="#fff"/>
  <path d="M16.793 14.447c0 .21-.014.418-.041.627l.027-.207a4.773 4.773 0 01-.33 1.213l.077-.185a4.745 4.745 0 01-.611 1.043l.121-.157c-.25.324-.541.614-.864.865l.157-.122a4.813 4.813 0 01-1.044.612l.185-.078a4.76 4.76 0 01-1.213.331l.207-.028a4.796 4.796 0 01-1.275-.003l.207.028a4.8 4.8 0 01-1.191-.327l.185.078a4.87 4.87 0 01-1.06-.619l.156.122a4.811 4.811 0 01-.849-.848l.122.157a4.813 4.813 0 01-.62-1.059c.027.062.054.125.078.185a4.792 4.792 0 01-.323-1.19l.028.206a5.15 5.15 0 01.008-1.353l-.028.207c.093-.698.306-1.373.578-2.02-.026.062-.053.124-.077.185.601-1.421 1.469-2.723 2.374-3.965.296-.405.597-.804.904-1.2l-.122.156c.272-.353.55-.703.826-1.05h-1.1c.285.355.566.713.845 1.074l-.121-.157c1 1.295 1.977 2.628 2.75 4.074a12.704 12.704 0 01.431.872c.272.645.485 1.32.579 2.015a4.903 4.903 0 01.025.518.81.81 0 00.226.55.786.786 0 00.55.228c.201-.01.41-.075.551-.227a.799.799 0 00.227-.55c-.001-1.254-.402-2.456-.933-3.577-.601-1.272-1.396-2.448-2.225-3.58a69.083 69.083 0 00-1.8-2.339c-.112-.14-.378-.234-.55-.227-.194.01-.425.07-.551.227a62.578 62.578 0 00-2.101 2.757 24.319 24.319 0 00-1.547 2.43c-.419.77-.789 1.582-1.03 2.427-.116.412-.191.83-.242 1.256a5.086 5.086 0 00-.014 1.12c.046.455.129.903.284 1.335.153.42.345.83.596 1.2a5.6 5.6 0 001.928 1.788c.798.44 1.7.677 2.61.69a5.57 5.57 0 002.644-.64c.79-.414 1.453-1.032 1.964-1.756.26-.369.454-.772.62-1.19a5.53 5.53 0 00.312-1.326c.025-.198.037-.397.037-.596a.81.81 0 00-.227-.55.785.785 0 00-.55-.227c-.201.009-.41.074-.551.227a.808.808 0 00-.229.55z" fill="#fff"/>
</svg>
