<svg width="24" height="25" viewBox="0 0 24 25" fill="none" xmlns="http://www.w3.org/2000/svg">
<path fill-rule="evenodd" clip-rule="evenodd" d="M21.3211 17.2912C22.0335 15.8797 22.4348 14.2845 22.4348 12.5955C22.4348 11.1114 22.125 9.69979 21.5666 8.42163H17.2156V17.2912H21.3211ZM20.3486 18.8564H17.2156V21.6353C18.4383 20.9283 19.5043 19.9804 20.3486 18.8564ZM15.6504 17.2912V8.42163H7.82581V17.2912H15.6504ZM7.82581 18.8564H15.6504V22.3739C14.5142 22.7983 13.2842 23.0302 12 23.0302C10.5158 23.0302 9.10406 22.7204 7.82581 22.1619V18.8564ZM6.26059 17.2912V8.42163H2.43344C1.87501 9.69979 1.56522 11.1114 1.56522 12.5955C1.56522 14.2845 1.9665 15.8797 2.67893 17.2912H6.26059ZM3.65144 18.8564H6.26059V21.3114C5.25602 20.6486 4.37281 19.8167 3.65144 18.8564ZM17.2156 3.55563C18.6233 4.36955 19.8232 5.50283 20.7162 6.85642H17.2156V3.55563ZM15.6504 2.81699V6.85642H7.82581V3.02906C9.10406 2.47052 10.5158 2.16068 12 2.16068C13.2842 2.16068 14.5142 2.39265 15.6504 2.81699ZM6.26059 3.87949V6.85642H3.28379C4.06392 5.67399 5.07819 4.65967 6.26059 3.87949ZM12 24.5955C18.6274 24.5955 24 19.2229 24 12.5955C24 5.96804 18.6274 0.595459 12 0.595459C5.37258 0.595459 0 5.96804 0 12.5955C0 19.2229 5.37258 24.5955 12 24.5955Z" fill="white"/>
</svg>
