<svg width="25" height="25" viewBox="0 0 25 25" fill="none" xmlns="http://www.w3.org/2000/svg">
<path fill-rule="evenodd" clip-rule="evenodd" d="M12.625 22.7716C18.5119 22.7716 23.2843 17.9992 23.2843 12.1123C23.2843 6.22536 18.5119 1.45305 12.625 1.45305C6.73806 1.45305 1.96575 6.22536 1.96575 12.1123C1.96575 17.9992 6.73806 22.7716 12.625 22.7716ZM12.625 24.1123C19.2524 24.1123 24.625 18.7397 24.625 12.1123C24.625 5.48489 19.2524 0.112305 12.625 0.112305C5.99758 0.112305 0.625 5.48489 0.625 12.1123C0.625 18.7397 5.99758 24.1123 12.625 24.1123ZM17.7683 15.7459C18.4948 14.7193 18.9218 13.4657 18.9218 12.1123C18.9218 8.63473 16.1026 5.81558 12.625 5.81558C12.5612 5.81558 12.4976 5.81654 12.4342 5.81843C12.4976 5.81654 12.5612 5.81559 12.625 5.81559C16.1026 5.81559 18.9217 8.63475 18.9217 12.1123C18.9217 13.4657 18.4948 14.7193 17.7683 15.7459ZM12.625 19.2011C8.71001 19.2011 5.53625 16.0274 5.53625 12.1123C5.53625 9.49643 6.95318 7.21147 9.06141 5.98308C6.95316 7.21147 5.53621 9.49643 5.53621 12.1123C5.53621 16.0274 8.70996 19.2011 12.625 19.2011L12.625 19.2011ZM18.6217 12.1123C18.6217 15.4243 15.9369 18.1091 12.625 18.1091C9.31306 18.1091 6.62823 15.4243 6.62823 12.1123C6.62823 8.80043 9.31306 6.11559 12.625 6.11559C15.9369 6.11559 18.6217 8.80043 18.6217 12.1123ZM12.625 19.5011C16.7057 19.5011 20.0138 16.1931 20.0138 12.1123C20.0138 8.03164 16.7057 4.72357 12.625 4.72357C8.54427 4.72357 5.23621 8.03164 5.23621 12.1123C5.23621 16.1931 8.54427 19.5011 12.625 19.5011ZM14.6262 12.1123C14.6262 13.2176 13.7302 14.1137 12.6249 14.1137C11.5196 14.1137 10.6236 13.2176 10.6236 12.1123C10.6236 11.007 11.5196 10.111 12.6249 10.111C13.7302 10.111 14.6262 11.007 14.6262 12.1123ZM12.6249 15.4283C14.4563 15.4283 15.9409 13.9437 15.9409 12.1123C15.9409 10.281 14.4563 8.79639 12.6249 8.79639C10.7936 8.79639 9.30896 10.281 9.30896 12.1123C9.30896 13.9437 10.7936 15.4283 12.6249 15.4283Z" fill="white"/>
</svg>
