<svg width="24" height="24" viewBox="0 0 24 24" fill="none" xmlns="http://www.w3.org/2000/svg">
<path d="M12 0C5.38206 0 0 5.38208 0 12C0 18.6179 5.38206 24 12 24C18.6179 24 24 18.6179 24 12C24 5.38208 18.6179 0 12 0ZM11.2 1.63333V12C11.2 12.2485 11.3139 12.4699 11.4917 12.6167L18.7667 19.9C16.949 21.4571 14.5869 22.4 12 22.4C6.24677 22.4 1.6 17.7532 1.6 12C1.6 6.51647 5.82273 2.04114 11.2 1.63333ZM12.8 1.63333C16.0323 1.87847 18.8438 3.59564 20.575 6.11667L12.8 10.6083V1.63333ZM21.3833 7.50833C22.0327 8.86672 22.4 10.3911 22.4 12C22.4 14.5869 21.4571 16.949 19.9 18.7667L13.3 12.1667L21.3833 7.50833Z" fill="white"/>
</svg>
