<svg width="25" height="25" viewBox="0 0 25 25" fill="none" xmlns="http://www.w3.org/2000/svg">
<path fill-rule="evenodd" clip-rule="evenodd" d="M18.3445 20.8744C16.6279 22.0567 14.5476 22.7489 12.3057 22.7489C10.4418 22.7489 8.68972 22.2705 7.16543 21.4298H7.36459V21.2511C7.36459 18.2205 9.83041 15.7547 12.8609 15.7547C15.7649 15.7547 18.1503 18.0188 18.3445 20.8744ZM19.6934 19.7735C19.0153 16.6232 16.2139 14.2621 12.8609 14.2621C9.21684 14.2621 6.22421 17.051 5.90096 20.6109C3.31715 18.6658 1.64641 15.5728 1.64641 12.0896C1.64641 6.20266 6.41872 1.43035 12.3057 1.43035C18.1926 1.43035 22.9649 6.20266 22.9649 12.0896C22.9649 15.1084 21.71 17.8341 19.6934 19.7735ZM19.8498 21.4221C22.5679 19.2221 24.3057 15.8588 24.3057 12.0896C24.3057 5.46218 18.9331 0.0895996 12.3057 0.0895996C5.67825 0.0895996 0.305664 5.46218 0.305664 12.0896C0.305664 18.717 5.67825 24.0896 12.3057 24.0896C15.1595 24.0896 17.7806 23.0934 19.8403 21.4298H19.8498V21.4221ZM8.42609 9.75884C8.42609 7.54446 10.2212 5.74937 12.4356 5.74937C14.6499 5.74937 16.445 7.54446 16.445 9.75884C16.445 11.9732 14.6499 13.7683 12.4356 13.7683C10.2212 13.7683 8.42609 11.9732 8.42609 9.75884ZM12.4355 7.13289C10.9878 7.13289 9.80968 8.31097 9.80968 9.75875C9.80968 11.2065 10.9878 12.3846 12.4355 12.3846C13.8833 12.3846 15.0614 11.2065 15.0614 9.75875C15.0614 8.31097 13.8833 7.13289 12.4355 7.13289Z" fill="white"/>
</svg>
