<svg width="28" height="24" viewBox="0 0 28 24" fill="none" xmlns="http://www.w3.org/2000/svg">
<path d="M4.02872 11.4665L6.99391 14.7012C7.15205 15.0332 6.90905 15.4147 6.53876 15.4147H4.86091C6.12605 19.1654 9.70934 21.8744 13.9175 21.8744C16.953 21.8744 19.6608 20.4665 21.408 18.2802C21.6009 18.0398 21.8979 17.9024 22.2103 17.9024H22.2335C23.0898 17.9024 23.5758 18.8792 23.0435 19.5469C20.9143 22.2178 17.6126 23.931 13.9136 23.931C8.54834 23.931 4.02005 20.3177 2.68548 15.4185H0.922764C0.552479 15.4185 0.305621 15.037 0.467621 14.705L3.40956 11.4667C3.59085 11.0813 3.84743 11.085 4.02872 11.4665Z" fill="white"/>
<path d="M13.9173 0.927246C19.2826 0.927246 23.8109 4.54055 25.1455 9.43969H26.912C27.2823 9.43969 27.5292 9.82124 27.3672 10.1532L24.5511 13.2955C24.3698 13.677 24.0255 13.677 23.8403 13.2955L20.837 10.1532C20.6789 9.82124 20.9219 9.43969 21.2922 9.43969H22.97C21.7088 5.68902 18.1255 2.98 13.9173 2.98C10.8818 2.98 8.17404 4.38793 6.42676 6.57423C6.2339 6.8146 5.9369 6.95196 5.62447 6.95196H5.60133C4.74504 6.95196 4.25904 5.97519 4.79133 5.30747C6.92047 2.64423 10.2183 0.927246 13.9173 0.927246Z" fill="white"/>
</svg>
