<svg width="25" height="25" viewBox="0 0 25 25" fill="none" xmlns="http://www.w3.org/2000/svg">
<path fill-rule="evenodd" clip-rule="evenodd" d="M23.1446 12.2473C23.1446 18.1343 18.3723 22.9066 12.4854 22.9066C6.59841 22.9066 1.8261 18.1343 1.8261 12.2473C1.8261 6.36037 6.59841 1.58806 12.4854 1.58806C18.3723 1.58806 23.1446 6.36037 23.1446 12.2473ZM24.4854 12.2473C24.4854 18.8747 19.1128 24.2473 12.4854 24.2473C5.85793 24.2473 0.485352 18.8747 0.485352 12.2473C0.485352 5.6199 5.85793 0.247314 12.4854 0.247314C19.1128 0.247314 24.4854 5.6199 24.4854 12.2473ZM12.0006 4.83014C12.1253 4.70545 12.2968 4.64162 12.4859 4.64162C12.6751 4.64162 12.8466 4.70545 12.9713 4.83014C13.096 4.95482 13.1598 5.12635 13.1598 5.31551V6.68967C14.1731 6.81322 15.1367 7.22513 15.9386 7.84865L16.9147 6.87253C17.1825 6.60466 17.5928 6.60466 17.8607 6.87253C18.1285 7.14039 18.1285 7.55065 17.8607 7.81851L16.8876 8.79153C17.5125 9.5562 17.9223 10.5214 18.0443 11.5734H19.4177C19.6068 11.5734 19.7784 11.6372 19.9031 11.7619C20.0277 11.8866 20.0916 12.0581 20.0916 12.2473C20.0916 12.4364 20.0277 12.6079 19.9031 12.7326C19.7784 12.8573 19.6068 12.9211 19.4177 12.9211H18.0435C17.92 13.9344 17.5081 14.898 16.8845 15.6999L17.8607 16.676C18.1285 16.9439 18.1285 17.3541 17.8607 17.622C17.7259 17.7567 17.5309 17.8229 17.3877 17.8229C17.2444 17.8229 17.0494 17.7567 16.9147 17.622L15.9417 16.649C15.177 17.2738 14.2118 17.6836 13.1598 17.8056V19.179C13.1598 19.3682 13.096 19.5397 12.9713 19.6644C12.8466 19.789 12.6751 19.8529 12.4859 19.8529C12.2968 19.8529 12.1253 19.789 12.0006 19.6644C11.8759 19.5397 11.8121 19.3682 11.8121 19.179V17.8048C10.7988 17.6813 9.83518 17.2694 9.03333 16.6459L8.05721 17.622C7.92247 17.7567 7.72746 17.8229 7.58421 17.8229C7.44097 17.8229 7.24596 17.7567 7.11122 17.622C6.84336 17.3541 6.84336 16.9439 7.11122 16.676L8.08424 15.703C7.45943 14.9383 7.04963 13.9731 6.92756 12.9211H5.5542C5.36504 12.9211 5.19352 12.8573 5.06883 12.7326C4.94415 12.6079 4.88031 12.4364 4.88031 12.2473C4.88031 12.0581 4.94415 11.8866 5.06883 11.7619C5.19352 11.6372 5.36504 11.5734 5.5542 11.5734H6.92836C7.05191 10.5601 7.46382 9.59649 8.08734 8.79464L7.11122 7.81851C6.84336 7.55065 6.84336 7.14039 7.11122 6.87253C7.37908 6.60466 7.78934 6.60466 8.05721 6.87253L9.03022 7.84555C9.79489 7.22074 10.7601 6.81094 11.8121 6.68887V5.31551C11.8121 5.12635 11.8759 4.95482 12.0006 4.83014ZM12.4859 7.9699C10.1091 7.9699 8.20859 9.87036 8.20859 12.2473C8.20859 14.6241 10.1091 16.5246 12.4859 16.5246C14.8628 16.5246 16.7633 14.6241 16.7633 12.2473C16.7633 9.87036 14.8628 7.9699 12.4859 7.9699ZM11.6316 12.2473C11.6316 11.7757 12.0139 11.3934 12.4856 11.3934C12.9572 11.3934 13.3395 11.7757 13.3395 12.2473C13.3395 12.7189 12.9572 13.1012 12.4856 13.1012C12.0139 13.1012 11.6316 12.7189 11.6316 12.2473Z" fill="white"/>
</svg>
