<svg width="24" height="25" viewBox="0 0 24 25" fill="none" xmlns="http://www.w3.org/2000/svg">
<path fill-rule="evenodd" clip-rule="evenodd" d="M12 22.8299C17.8869 22.8299 22.6593 18.0576 22.6593 12.1707C22.6593 6.28371 17.8869 1.5114 12 1.5114C6.11306 1.5114 1.34075 6.28371 1.34075 12.1707C1.34075 18.0576 6.11306 22.8299 12 22.8299ZM12 24.1707C18.6274 24.1707 24 18.7981 24 12.1707C24 5.54324 18.6274 0.170654 12 0.170654C5.37258 0.170654 0 5.54324 0 12.1707C0 18.7981 5.37258 24.1707 12 24.1707ZM17.1433 15.8042C17.8698 14.7777 18.2968 13.524 18.2968 12.1707C18.2968 8.69308 15.4776 5.87393 12 5.87393C11.9362 5.87393 11.8726 5.87489 11.8092 5.87677C11.8726 5.87489 11.9362 5.87394 12 5.87394C15.4776 5.87394 18.2967 8.6931 18.2967 12.1707C18.2967 13.524 17.8698 14.7777 17.1433 15.8042ZM12 19.2595C8.08501 19.2595 4.91125 16.0857 4.91125 12.1707C4.91125 9.55478 6.32818 7.26982 8.43641 6.04143C6.32816 7.26982 4.91121 9.55478 4.91121 12.1707C4.91121 16.0857 8.08496 19.2595 12 19.2595L12 19.2595ZM17.9967 12.1707C17.9967 15.4826 15.3119 18.1674 12 18.1674C8.68806 18.1674 6.00323 15.4826 6.00323 12.1707C6.00323 8.85878 8.68806 6.17394 12 6.17394C15.3119 6.17394 17.9967 8.85878 17.9967 12.1707ZM12 19.5595C16.0807 19.5595 19.3888 16.2514 19.3888 12.1707C19.3888 8.08999 16.0807 4.78192 12 4.78192C7.91927 4.78192 4.61121 8.08999 4.61121 12.1707C4.61121 16.2514 7.91927 19.5595 12 19.5595ZM14.0012 12.1707C14.0012 13.276 13.1052 14.172 11.9999 14.172C10.8946 14.172 9.99858 13.276 9.99858 12.1707C9.99858 11.0654 10.8946 10.1694 11.9999 10.1694C13.1052 10.1694 14.0012 11.0654 14.0012 12.1707ZM11.9999 15.4866C13.8313 15.4866 15.3159 14.002 15.3159 12.1707C15.3159 10.3393 13.8313 8.85474 11.9999 8.85474C10.1686 8.85474 8.68396 10.3393 8.68396 12.1707C8.68396 14.002 10.1686 15.4866 11.9999 15.4866Z" fill="white"/>
</svg>
