<svg width="100" height="100" viewBox="0 0 100 100" fill="none" xmlns="http://www.w3.org/2000/svg">
<path d="M38.0759 50.1185L60 36" stroke="white" stroke-width="3.7" stroke-linecap="round"/>
<path d="M38 58L57.5 69" stroke="white" stroke-width="3.7" stroke-linecap="round"/>
<path d="M26 65C32.6274 65 38 59.6274 38 53C38 46.3726 32.6274 41 26 41C19.3726 41 14 46.3726 14 53C14 59.6274 19.3726 65 26 65Z" stroke="white" stroke-width="3"/>
<path d="M71.5 83C74.5376 83 77 80.5376 77 77.5C77 74.4624 74.5376 72 71.5 72C68.4624 72 66 74.4624 66 77.5C66 80.5376 68.4624 83 71.5 83Z" stroke="white" stroke-width="3.5"/>
<path d="M77.5 34C82.1944 34 86 30.1944 86 25.5C86 20.8056 82.1944 17 77.5 17C72.8056 17 69 20.8056 69 25.5C69 30.1944 72.8056 34 77.5 34Z" stroke="white" stroke-width="3.5"/>
<path d="M62 74C63.1046 74 64 73.1046 64 72C64 70.8954 63.1046 70 62 70C60.8954 70 60 70.8954 60 72C60 73.1046 60.8954 74 62 74Z" fill="white"/>
<path d="M65 35C66.1046 35 67 34.1046 67 33C67 31.8954 66.1046 31 65 31C63.8954 31 63 31.8954 63 33C63 34.1046 63.8954 35 65 35Z" fill="white"/>
<path fill-rule="evenodd" clip-rule="evenodd" d="M26.0274 50.0261L23.0136 47H20V50.0261L23.0136 53.0001L20 56.0261V59H23.0136L26.0274 56.0261L28.9863 59H32V56.0261L28.9863 53.0001L32 50.0261V47H28.9863L26.0274 50.0261Z" fill="white"/>
</svg>
