<svg width="100" height="100" viewBox="0 0 100 100" fill="none" xmlns="http://www.w3.org/2000/svg">
<path d="M50 20C33.44 20 20 33.44 20 50C20 66.56 33.44 80 50 80C66.56 80 80 66.56 80 50C80 33.44 66.56 20 50 20ZM38 66.5C33.86 66.5 30.5 63.14 30.5 59C30.5 54.86 33.86 51.5 38 51.5C42.14 51.5 45.5 54.86 45.5 59C45.5 63.14 42.14 66.5 38 66.5ZM42.5 38C42.5 33.86 45.86 30.5 50 30.5C54.14 30.5 57.5 33.86 57.5 38C57.5 42.14 54.14 45.5 50 45.5C45.86 45.5 42.5 42.14 42.5 38ZM62 66.5C57.86 66.5 54.5 63.14 54.5 59C54.5 54.86 57.86 51.5 62 51.5C66.14 51.5 69.5 54.86 69.5 59C69.5 63.14 66.14 66.5 62 66.5Z" fill="white"/>
</svg>
