<svg width="100" height="100" viewBox="0 0 100 100" fill="none" xmlns="http://www.w3.org/2000/svg">
<path d="M41.2833 54.2923V52.2923H39.8842L39.4045 53.6066L41.2833 54.2923ZM41.2833 45.7077L39.4045 46.3933L39.8842 47.7077H41.2833V45.7077ZM67.2555 45.7077L68.6697 44.2934L68.0839 43.7077H67.2555V45.7077ZM71.5478 50L72.962 51.4142L74.3762 50L72.962 48.5858L71.5478 50ZM67.2555 54.2923V56.2923H68.0839L68.6697 55.7065L67.2555 54.2923ZM63.8574 54.2923L62.4432 55.7065L63.029 56.2923H63.8574V54.2923ZM61.3535 51.7884L62.7678 50.3742L61.3535 48.96L59.9393 50.3742L61.3535 51.7884ZM58.8497 54.2923L57.4355 55.7065L58.8497 57.1207L60.2639 55.7065L58.8497 54.2923ZM56.3458 51.7884L57.7601 50.3742L56.3458 48.96L54.9316 50.3742L56.3458 51.7884ZM53.842 54.2923V56.2923H54.6704L55.2562 55.7065L53.842 54.2923ZM39.4045 53.6066C37.9315 57.6428 34.0587 60.5193 29.5192 60.5193V64.5193C35.7924 64.5193 41.1315 60.5419 43.1621 54.978L39.4045 53.6066ZM29.5192 60.5193C23.7096 60.5193 19 55.8096 19 50H15C15 58.0188 21.5005 64.5193 29.5192 64.5193V60.5193ZM19 50C19 44.1904 23.7096 39.4808 29.5192 39.4808V35.4808C21.5005 35.4808 15 41.9813 15 50H19ZM29.5192 39.4808C34.0587 39.4808 37.9314 42.3572 39.4045 46.3933L43.1621 45.022C41.1314 39.458 35.7923 35.4808 29.5192 35.4808V39.4808ZM67.2555 43.7077H41.2833V47.7077H67.2555V43.7077ZM72.962 48.5858L68.6697 44.2934L65.8413 47.1219L70.1336 51.4142L72.962 48.5858ZM68.6697 55.7065L72.962 51.4142L70.1336 48.5858L65.8413 52.8781L68.6697 55.7065ZM63.8574 56.2923H67.2555V52.2923H63.8574V56.2923ZM59.9393 53.2026L62.4432 55.7065L65.2716 52.8781L62.7678 50.3742L59.9393 53.2026ZM60.2639 55.7065L62.7678 53.2026L59.9393 50.3742L57.4355 52.8781L60.2639 55.7065ZM54.9316 53.2026L57.4355 55.7065L60.2639 52.8781L57.7601 50.3742L54.9316 53.2026ZM55.2562 55.7065L57.7601 53.2026L54.9316 50.3742L52.4278 52.8781L55.2562 55.7065ZM41.2833 56.2923H53.842V52.2923H41.2833V56.2923Z" fill="white"/>
<circle cx="29.4963" cy="50" r="3.47778" stroke="white" stroke-width="3"/>
<path d="M55.5776 59.3334L55.5776 77.3778" stroke="white" stroke-width="3" stroke-linecap="round"/>
<path d="M55.5776 40.0445L55.5776 23.2445" stroke="white" stroke-width="3" stroke-linecap="round"/>
<path d="M61.7999 59.3333L61.7999 66.1436C61.7999 67.2481 62.6954 68.1436 63.7999 68.1436L69.1333 68.1436C70.2379 68.1436 71.1333 69.039 71.1333 70.1435L71.1333 72.4" stroke="white" stroke-width="3" stroke-linecap="round"/>
<path d="M49.3558 40.0445L49.3558 33.2343C49.3558 32.1297 48.4604 31.2343 47.3558 31.2343L42.0225 31.2343C40.9179 31.2343 40.0225 30.3389 40.0225 29.2343L40.0225 27.9112" stroke="white" stroke-width="3" stroke-linecap="round"/>
<path d="M49.3558 59.3334L49.3558 66.1436C49.3558 67.2482 48.4604 68.1436 47.3558 68.1436L42.0225 68.1436C40.9179 68.1436 40.0225 69.039 40.0225 70.1436L40.0225 71.7778" stroke="white" stroke-width="3" stroke-linecap="round"/>
<path d="M61.8 40.0444L61.8 33.2342C61.8 32.1296 62.6954 31.2342 63.8 31.2342L69.1333 31.2342C70.2379 31.2342 71.1333 30.3387 71.1333 29.2342L71.1333 27.2888" stroke="white" stroke-width="3" stroke-linecap="round"/>
<path d="M34.2983 31.8C39.4338 25.8015 47.0615 22 55.5772 22C71.0412 22 83.5772 34.536 83.5772 50C83.5772 65.464 71.0412 78 55.5772 78C47.0615 78 39.4338 74.1985 34.2983 68.2" stroke="white" stroke-width="4" stroke-linecap="round"/>
</svg>
