<svg width="100" height="100" viewBox="0 0 100 100" fill="none" xmlns="http://www.w3.org/2000/svg">
<circle cx="50" cy="50" r="28" stroke="white" stroke-width="4"/>
<rect x="48" y="77" width="4" height="10" rx="2" fill="white"/>
<rect x="23" y="48" width="4" height="10" rx="2" transform="rotate(90 23 48)" fill="white"/>
<rect x="48" y="13" width="4" height="10" rx="2" fill="white"/>
<rect x="87" y="48" width="4" height="10" rx="2" transform="rotate(90 87 48)" fill="white"/>
<path d="M50.54 48.6056C46.454 47.5894 45.14 46.5389 45.14 44.9028C45.14 43.0256 46.958 41.7167 50 41.7167C52.556 41.7167 53.834 42.6467 54.302 44.1278C54.518 44.8167 55.112 45.3333 55.868 45.3333H56.408C57.596 45.3333 58.442 44.2139 58.028 43.1461C57.3798 41.4038 55.9907 39.9146 53.838 39.1128C53.1858 38.8699 52.7 38.2793 52.7 37.5833V37.5833C52.7 36.1539 51.494 35 50 35C48.506 35 47.3 36.1539 47.3 37.5833V37.5833C47.3 38.2453 46.8315 38.807 46.1993 39.0033C43.2363 39.9236 41 41.9709 41 44.9372C41 48.9156 44.438 50.8961 49.46 52.05C53.96 53.0833 54.86 54.5989 54.86 56.2006C54.86 57.3889 53.978 59.2833 50 59.2833C47.03 59.2833 45.5 58.2672 44.906 56.8206C44.636 56.1489 44.024 55.6667 43.286 55.6667H42.782C41.576 55.6667 40.73 56.8378 41.18 57.9056C42.0617 59.9628 43.9537 61.295 46.1819 61.9788C46.8239 62.1758 47.3 62.7451 47.3 63.4167V63.4167C47.3 64.8461 48.506 66 50 66C51.494 66 52.7 64.8461 52.7 63.4167V63.4167C52.7 62.7685 53.1668 62.2217 53.7917 62.0495C56.7713 61.2287 59 59.3388 59 56.1833C59 51.2922 54.626 49.6217 50.54 48.6056Z" fill="white"/>
</svg>
