<svg xmlns="http://www.w3.org/2000/svg" viewBox="0 0 65 81.25"><g fill="#fff"><path d="M26.4-.2l-14.1 14v10.4L7 18.9c-1.1-1.1-3.1-1.1-4.2 0-1.2 1.2-1.2 3.1 0 4.2l9.5 9.5v32.6h50.8V-.2H26.4zm-.5 2.5v11h-11l11-11zm-2.2 35.4l1.1 3.2-3.2-1.1-1-1 2.1-2.1 1 1zm-4.2 0L6.7 24.9l2.1-2.1 12.8 12.8-2.1 2.1zM3.8 19.9c.6-.6 1.5-.6 2.1 0l1.8 1.8-2.1 2.1L3.8 22c-.5-.6-.5-1.5 0-2.1zm57.8 43.9H13.8V34.1l7 7 6.3 2.1-2.1-6.3-11.2-11.2V14.9h13.6V1.3h34.2v62.5z"/><path d="M36.8 7.7h20.3v1.5H36.8zm-5 6.7H57v1.5H31.8zM18.4 21H57v1.5H18.4zm36.9 34c0 1.4-1.1 2.5-2.5 2.5H37.1c-1.4 0-2.5-1.1-2.5-2.5v-5h-1.5v5c0 2.2 1.8 4 4 4h15.7c2.2 0 4-1.8 4-4v-5h-1.5v5z"/><path d="M45.7 53.5V37l4.8 4.8 1.1-1.1-6.6-6.6-6.7 6.6 1.1 1.1 4.8-4.8v16.5z"/></g></svg>