<svg viewBox="0 0 512 512" xmlns="http://www.w3.org/2000/svg"><path fill="#fff" d="M256 0C115.05 0 0 115.031 0 256c0 140.95 115.031 256 256 256 140.95 0 256-115.027 256-256C512 115.05 396.969 0 256 0zm0 482C131.383 482 30 380.617 30 256S131.383 30 256 30s226 101.383 226 226-101.383 226-226 226zm0 0"/><path fill="#fff" d="M256 151c-57.898 0-105 47.102-105 105s47.102 105 105 105 105-47.102 105-105-47.102-105-105-105zm0 180c-41.355 0-75-33.645-75-75s33.645-75 75-75 75 33.645 75 75-33.645 75-75 75zm0 0"/></svg>