<svg width="100%" height="100%" viewBox="0 0 2161 2072" version="1.1" xmlns="http://www.w3.org/2000/svg" xmlns:xlink="http://www.w3.org/1999/xlink" xml:space="preserve" xmlns:serif="http://www.serif.com/" style="fill-rule:evenodd;clip-rule:evenodd;stroke-linejoin:round;stroke-miterlimit:2;"><path d="M492.178,2056.05c-23.328,0 -46.492,-7.278 -66.262,-21.573c-36.827,-26.69 -54.03,-72.565 -44.007,-116.832l136.975,-603.375l-464.533,-407.384c-34.146,-29.809 -47.19,-77.016 -33.171,-120.211c14.019,-43.113 52.161,-73.637 97.322,-77.812l614.633,-55.8l243.004,-568.677c17.918,-41.782 58.724,-68.764 104.063,-68.764c45.339,0 86.146,26.982 104.064,68.666l243.004,568.775l614.536,55.8c45.257,4.078 83.4,34.699 97.419,77.812c14.019,43.114 1.056,90.402 -33.091,120.211l-464.532,407.302l136.975,603.36c10.039,44.364 -7.18,90.239 -43.991,116.848c-36.729,26.609 -85.707,28.655 -124.385,5.409l-529.999,-316.722l-529.998,316.901c-17.918,10.64 -37.883,16.066 -58.026,16.066Zm588.024,-469.406c20.144,0 40.092,5.409 58.026,16.05l500.19,299.162l-129.275,-569.49c-9.227,-40.53 4.532,-82.848 35.852,-110.269l438.622,-384.673l-580.308,-52.698c-41.781,-3.818 -77.715,-30.085 -94.041,-68.585l-229.066,-536.659l-229.342,536.74c-16.147,38.24 -52.08,64.508 -93.764,68.325l-580.39,52.698l438.606,384.674c31.418,27.502 45.161,69.738 35.852,110.366l-129.177,569.473l500.189,-299.064c17.918,-10.641 37.883,-16.05 58.026,-16.05Zm-351.762,-922.584c0,0 0,0.098 -0.097,0.179l0.097,-0.179Zm703.346,-0.259l0.097,0.178c0,-0.097 0,-0.097 -0.097,-0.178Z" style="fill:#fff;fill-rule:nonzero;stroke:#fff;stroke-width:31.25px;"/></svg>
