<svg width="72" height="66" viewBox="0 0 72 66" fill="none" xmlns="http://www.w3.org/2000/svg">
<g id="icon-home">
<path id="Shape" d="M58.7031 25.6802C57.5224 25.6802 56.608 26.5764 56.608 27.7446V61.9432H44.7509V47.4286C44.7509 46.3483 43.8366 45.404 42.7313 45.404H25.9889C24.8072 45.404 23.8555 46.3482 23.8555 47.4286V61.9432H12.0358V28.6808C12.0358 27.5924 11.1223 27.0427 9.94064 27.0427C8.83617 27.0427 7.92188 28.1129 7.92188 29.2013V64.0077C7.92188 65.096 8.83617 66.0002 9.94064 66.0002H25.9889C27.0933 66.0002 28.0076 65.096 28.0076 64.0077V49.4929H40.636V64.0077C40.636 65.096 41.5503 66.0002 42.7313 66.0002H58.7031C59.8077 66.0002 60.7219 65.096 60.7219 64.0077V27.7447C60.7219 26.5765 59.8077 25.6802 58.7031 25.6802Z" fill="white"/>
<path id="Shape_2" d="M70.6983 36.0015L54.4874 18.9837V7.38029C54.4874 6.17242 53.5534 5.23958 52.3956 5.23958C51.3118 5.23958 50.4155 6.17254 50.4155 7.38029V14.7272L37.0432 0.666453C36.6334 0.233271 36.1467 0 35.6614 0C35.1011 0 34.6151 0.24155 34.2047 0.666453L0.624388 35.7682C-0.181244 36.6095 -0.234588 37.9589 0.624388 38.7336C1.37108 39.6332 2.65728 39.5749 3.46291 38.7336L35.6614 5.15618L67.7849 39.0502C68.1196 39.4001 68.6065 39.6 69.2416 39.6C69.8019 39.6 70.2871 39.4001 70.6983 39.0502C71.4457 38.2672 71.5015 36.8512 70.6983 36.0015Z" fill="white"/>
</g>
</svg>
