<svg xmlns="http://www.w3.org/2000/svg" viewBox="0 0 64 80"><g fill="#fff"><path d="M62 39a1 1 0 00-1-1h-4V18a.541.541 0 00-.012-.058.929.929 0 00-.056-.277.828.828 0 00-.046-.106.967.967 0 00-.136-.2.733.733 0 00-.073-.084c-.012-.011-.019-.026-.031-.036L44 6.536V3a1 1 0 00-1-1h-6a1 1 0 00-1 1v3H21a.99.99 0 00-.322.056c-.029.01-.054.029-.083.041a1 1 0 00-.2.119c-.011.009-.025.012-.036.021l-13 11A1 1 0 007 18v20H3a1 1 0 00-1 1 9.014 9.014 0 006.4 8.613 4.247 4.247 0 00-1.4 3.15v.217a4.246 4.246 0 002.359 3.82l11.66 5.829A13.063 13.063 0 0026.833 62H61a1 1 0 001-1V47a1 1 0 00-1-1h-2.356A8.983 8.983 0 0062 39zM35 19h20v19H35zm3-15h4v6h-4zm-2 4v3a1 1 0 001 1h6a1 1 0 001-1V9.156L53.27 17h-18.9L23.73 8zM9 18.464L21 8.31l12 10.154V38h-7V25a1 1 0 00-1-1h-8a1 1 0 00-1 1v13H9zM24 38h-6V26h6zm-1.861 13.048L15.485 48h7.071a3.922 3.922 0 00-.417 3.048zm-.225 7.79l-11.66-5.829A2.255 2.255 0 019 50.98v-.217a2.264 2.264 0 013.212-2.063l11.371 5.208A1 1 0 0024 54h10a1 1 0 000-2h-8a2 2 0 010-4h7.667a1 1 0 00.478-.122l.256-.139A13.343 13.343 0 0147 47.594V60H26.833a11.033 11.033 0 01-4.919-1.162zM60 48v12H49V48zm-11.753-2a15.328 15.328 0 00-14.8-.018L26 46H11a7.011 7.011 0 01-6.929-6h55.858A7.011 7.011 0 0153 46z"/><path d="M51 56h2v2h-2zm-1-32H40a1 1 0 00-1 1v6a1 1 0 001 1h10a1 1 0 001-1v-6a1 1 0 00-1-1zm-1 6h-8v-4h8z"/></g></svg>