<?xml version="1.0" encoding="UTF-8"?>
<svg width="37px" height="34px" viewBox="0 0 37 34" version="1.1" xmlns="http://www.w3.org/2000/svg" xmlns:xlink="http://www.w3.org/1999/xlink">
    <!-- Generator: Sketch 50.2 (55047) - http://www.bohemiancoding.com/sketch -->
    <title>icon-upload</title>
    <desc>Created with Sketch.</desc>
    <defs></defs>
    <g id="ixo-create-a-project-wireframes" stroke="none" stroke-width="1" fill="none" fill-rule="evenodd">
        <g id="12---Step-4-:-Project" transform="translate(-702.000000, -840.000000)" fill="#000000" fill-rule="nonzero">
            <g id="upload" transform="translate(702.000000, 840.000000)">
                <path d="M35.9399406,16.1594331 C35.3510187,16.1594331 34.8798812,16.6377325 34.8798812,17.2356067 L34.8798812,27.0248007 C34.8798812,29.6873339 32.7440577,31.8476528 30.1292445,31.8476528 L6.87075552,31.8476528 C4.24808998,31.8476528 2.12011885,29.6793623 2.12011885,27.0248007 L2.12011885,17.0761736 C2.12011885,16.4782994 1.64898132,16 1.06005942,16 C0.471137521,16 0,16.4782994 0,17.0761736 L0,27.0248007 C0,30.8751107 3.08595076,34 6.87075552,34 L30.1292445,34 C33.9219015,34 37,30.8671391 37,27.0248007 L37,17.2356067 C37,16.6457042 36.5288625,16.1594331 35.9399406,16.1594331 Z" id="Shape"></path>
                <path d="M12.8514228,8.48995502 L17.9121128,3.594003 L17.9121128,24.9475262 C17.9121128,25.5322339 18.3956182,26 19,26 C19.6043818,26 20.0878872,25.5322339 20.0878872,24.9475262 L20.0878872,3.594003 L25.1485772,8.48995502 C25.3580962,8.69265367 25.640141,8.8017991 25.9141274,8.8017991 C26.1961722,8.8017991 26.4701587,8.70044978 26.6796777,8.48995502 C27.1067741,8.07676162 27.1067741,7.41409295 26.6796777,7.00089955 L19.7655502,0.311844078 C19.5640896,0.116941529 19.2820448,0 19,0 C18.7098968,0 18.4359104,0.109145427 18.2344498,0.311844078 L11.3203223,7.00089955 C10.8932259,7.41409295 10.8932259,8.07676162 11.3203223,8.48995502 C11.7393604,8.89535232 12.4323848,8.89535232 12.8514228,8.48995502 Z" id="Shape"></path>
            </g>
        </g>
    </g>
</svg>