<svg xmlns="http://www.w3.org/2000/svg" viewBox="0 0 100 125"><path fill="#fff" d="M50.04 26.52c4.02 0 7.28-3.69 7.28-8.23 0-4.54-3.27-8.23-7.28-8.23s-7.28 3.69-7.28 8.23c0 4.54 3.27 8.23 7.28 8.23zm0-13.45c2.36 0 4.28 2.34 4.28 5.23s-1.92 5.23-4.28 5.23-4.28-2.34-4.28-5.23 1.92-5.23 4.28-5.23zM24.95 56.13c-4.02 0-7.28 3.69-7.28 8.23 0 4.54 3.27 8.23 7.28 8.23s7.28-3.69 7.28-8.23c0-4.54-3.26-8.23-7.28-8.23zm0 13.45c-2.36 0-4.28-2.34-4.28-5.23s1.92-5.23 4.28-5.23c2.36 0 4.28 2.34 4.28 5.23s-1.92 5.23-4.28 5.23zm50.19-13.45c-4.02 0-7.28 3.69-7.28 8.23 0 4.54 3.27 8.23 7.28 8.23s7.28-3.69 7.28-8.23c0-4.54-3.27-8.23-7.28-8.23zm0 13.45c-2.36 0-4.28-2.34-4.28-5.23s1.92-5.23 4.28-5.23 4.28 2.34 4.28 5.23-1.92 5.23-4.28 5.23z"/><path fill="#fff" d="M75.09 51.51c-3.17 0-6.18.71-8.89 1.96l-4.65-8.53-.04-.07c.7-.45 1.37-.92 2.01-1.44 4.8-3.93 7.87-9.9 7.87-16.57 0-11.8-9.6-21.41-21.41-21.41s-21.41 9.6-21.41 21.41c0 6.84 3.24 12.93 8.25 16.85.53.41 1.07.8 1.64 1.16l-.08.14-4.61 8.45a21.33 21.33 0 00-8.89-1.96c-11.8 0-21.41 9.6-21.41 21.41 0 6.84 3.24 12.93 8.25 16.85.58.46 1.19.88 1.82 1.27 3.29 2.07 7.17 3.28 11.34 3.28 4.22 0 8.14-1.24 11.46-3.36.72-.46 1.41-.94 2.07-1.48a21.39 21.39 0 007.8-15.07h7.53c.43 6.23 3.53 11.72 8.17 15.35.58.46 1.19.88 1.82 1.27 3.29 2.07 7.17 3.28 11.34 3.28 4.22 0 8.14-1.24 11.46-3.36.72-.46 1.41-.94 2.07-1.48 4.8-3.93 7.87-9.9 7.87-16.57.03-11.78-9.57-21.38-21.38-21.38zm-35.17-9.28l.57-8.65c.05-.7.53-1.31 1.21-1.52l3.94-1.19c.64-.19 1.34.01 1.78.51l1.54 1.77.1.11s.01 0 .01.01c.04.05.08.1.12.14.1.09.21.16.33.21.01 0 .02.01.03.01.08.04.15.07.23.09.02.01.05.01.07.02.07.02.13.03.2.03h.27l.19-.03c.03-.01.05-.01.08-.02.08-.02.16-.05.23-.09.01 0 .02-.01.03-.01.12-.06.23-.12.33-.21.05-.04.08-.09.13-.14 0 0 .01 0 .01-.01l.1-.11 1.54-1.77c.44-.51 1.14-.71 1.79-.51l3.95 1.19c.68.2 1.17.81 1.21 1.52l.52 8.42a18.3 18.3 0 01-20.51.23zm-8.33-15.38c0-10.15 8.26-18.4 18.41-18.4s18.41 8.26 18.41 18.41c0 4.93-1.96 9.41-5.13 12.71l-.41-6.18a4.715 4.715 0 00-3.34-4.19L55.58 28c-1.77-.53-3.7.02-4.91 1.41l-.5.57-.5-.57a4.73 4.73 0 00-4.91-1.42l-3.94 1.19a4.702 4.702 0 00-3.33 4.19l-.43 6.54a18.294 18.294 0 01-5.47-13.06zm9.52 19.45c2.71 1.24 5.71 1.96 8.89 1.96s6.18-.71 8.89-1.96l4.68 8.6a21.395 21.395 0 00-9.81 16.51h-7.53c-.48-6.93-4.27-12.96-9.81-16.51l4.69-8.6zm-16.2 45.02c-3.72 0-7.18-1.12-10.08-3.02l.57-8.65c.05-.7.53-1.31 1.21-1.52l3.94-1.19c.64-.19 1.34.01 1.78.51l1.54 1.77.1.11s.01 0 .01.01c.04.05.08.1.12.14.1.09.22.16.33.21.01 0 .01.01.02.01.08.04.16.07.24.09.02.01.04.01.07.01.07.02.13.03.2.03h.27l.2-.03c.02-.01.05-.01.07-.02.08-.02.16-.05.24-.09.01 0 .01-.01.02-.01.12-.06.23-.12.33-.21.05-.04.08-.09.13-.14 0 0 .01 0 .01-.01l.1-.11 1.54-1.77c.44-.51 1.14-.71 1.78-.51l3.95 1.19c.68.2 1.17.81 1.21 1.52l.56 8.42c-3 2.05-6.59 3.26-10.46 3.26zm13.27-5.69l-.41-6.18a4.726 4.726 0 00-3.34-4.19l-3.95-1.19a4.71 4.71 0 00-4.91 1.42l-.5.57-.5-.57a4.724 4.724 0 00-4.91-1.42l-3.94 1.19a4.702 4.702 0 00-3.33 4.19l-.43 6.54C8.6 82.65 6.5 78.02 6.5 72.91c0-10.15 8.26-18.41 18.41-18.41s18.41 8.26 18.41 18.41c-.01 4.93-1.97 9.41-5.14 12.72zm36.91 5.69c-3.72 0-7.18-1.12-10.08-3.03l.57-8.65c.05-.7.53-1.31 1.21-1.52l3.94-1.19c.64-.19 1.34.01 1.78.51l1.54 1.77.1.11s.01 0 .01.01c.04.05.08.1.12.14.1.09.21.16.33.21.01 0 .02.01.03.01.08.04.15.06.23.09.02.01.05.01.07.02.06.01.13.03.19.03h.27l.2-.03c.02-.01.05-.01.07-.02.08-.02.16-.05.24-.09.01 0 .01-.01.02-.01.12-.06.23-.12.33-.21.05-.04.08-.09.13-.14 0 0 .01 0 .01-.01l.1-.11 1.54-1.77c.44-.51 1.14-.71 1.78-.51l3.95 1.19c.68.2 1.17.81 1.21 1.52l.56 8.42a18.364 18.364 0 01-10.45 3.26zm13.28-5.69l-.41-6.18a4.726 4.726 0 00-3.34-4.19l-3.95-1.19a4.71 4.71 0 00-4.91 1.42l-.5.57-.5-.57a4.724 4.724 0 00-4.91-1.42l-3.94 1.19a4.702 4.702 0 00-3.33 4.19l-.43 6.54c-3.37-3.34-5.47-7.97-5.47-13.07 0-10.15 8.26-18.41 18.41-18.41s18.41 8.25 18.41 18.4c0 4.93-1.96 9.41-5.13 12.72z"/></svg>