<svg xmlns="http://www.w3.org/2000/svg" viewBox="0 0 100 125"><g fill="#fff"><circle cx="41.243" cy="12.897" r="7.897"/><path d="M83.061 87.559L68.609 55.71a3.934 3.934 0 00-3.582-2.309h-19.82V41.394h20.655a3.935 3.935 0 000-7.87H45.207V29.59a3.935 3.935 0 00-7.87 0v27.746a3.935 3.935 0 003.935 3.934h21.22l13.402 29.54a3.936 3.936 0 107.167-3.251z"/><path d="M63.84 77.169a1.476 1.476 0 00-1.908.845C58.691 86.409 50.467 92.05 41.471 92.05c-12.094 0-21.933-9.839-21.933-21.933 0-8.326 4.625-15.833 12.071-19.589a1.476 1.476 0 00-1.33-2.635c-8.445 4.261-13.692 12.777-13.692 22.224C16.587 83.837 27.75 95 41.471 95c10.206 0 19.535-6.399 23.214-15.923a1.475 1.475 0 00-.845-1.908z"/></g></svg>