<svg version="1.0" xmlns="http://www.w3.org/2000/svg" width="682.667" height="676" viewBox="0 0 512 507"><path fill="#fff" d="M0 253.5V507h512V0H0v253.5zM116.9 42.9c5.4 2.8 9.8 8.3 11.6 14.5 1.3 4.6 1.6 10.7 1.3 38.3l-.3 32.8-2.8 5c-9.3 16.8-35.1 16.9-44.3.2l-2.9-5.2V93c0-34.7 0-35.6 2.2-39.6 2.9-5.5 9.7-11.2 14.2-12 2-.3 4.1-.7 4.6-1 2.3-.9 12.8.7 16.4 2.5zM66.8 93.3l.2 51.8-8.7-.3-8.8-.3-.3-39.4-.2-39.3-6 6.3-5.9 6.4-.1-9.3v-9.3l8.2-9.5 8.2-9.5 6.5.3 6.6.3.3 51.8zM182 43c2.8 1.5 4 5 4 11.6 0 4.8-.4 6-2.8 8.4l-2.9 2.8 2.8 7.7c4.6 12.7 4.6 11.7.2 11.3l-3.8-.3-3.2-9-3.2-9v9.3l-.1 9.3-3.7-.3-3.8-.3-.3-20.5c-.1-11.2 0-21.1.3-21.9.4-1.1 2-1.3 7.5-.8 3.8.3 7.8 1.1 9 1.7zm25 .9c0 2.8-.2 3-4.7 3.3l-4.8.3-.3 6.2-.3 6.3h3.6c3.2 0 3.5.2 3.5 3s-.3 3-3.5 3H197v13h5c4.9 0 5 .1 5 3v3h-17V41h17v2.9zm19-1.6c6 2.1 7.1 5.7 6.8 22.4-.3 14.1-.3 14.3-3.1 17-2.4 2.5-3.6 2.8-10.7 3.1l-8 .4V63.8c0-11.8.3-21.8.7-22.1 1-1.1 10.5-.7 14.3.6zm52.3-.2c3.2 1.4 4.7 4.9 4.7 10.4 0 4.3-.1 4.5-2.9 4.5-2.6 0-2.9-.4-3.4-4.1-.6-4.9-1.8-6.3-4.5-5.5-2.5.8-3.2 4.3-3.2 16.7 0 11.1 1 14.9 3.9 14.9 2.6 0 4.1-2.9 4.1-7.9 0-3.9.2-4.1 3-4.1 3 0 3 0 3 5.6 0 8.7-2.7 12.3-9.3 12.4-5.2 0-9.3-2.3-10.6-6.1-1.4-4-1.4-25.2-.1-30.1 1.9-6.6 8.8-9.7 15.3-6.7zm26.5 2.1c.3 2.7.2 2.8-4.7 2.8H295v13h3.5c3.2 0 3.5.2 3.5 3s-.3 3-3.5 3H295v13h5.1c4.9 0 5 .1 4.7 2.7-.3 2.8-.3 2.8-9 3.1l-8.8.3V63.7c0-11.7.3-21.7.7-22.1.4-.4 4.3-.5 8.8-.4 7.9.3 8 .3 8.3 3zm22.5.8c2.7 3 2.7 3.1 2.7 17.6 0 20.3-1.7 22.8-15.1 22.2l-6.4-.3-.3-20.5c-.1-11.2 0-21.1.3-21.9.4-1.1 2.1-1.3 8.3-.8 7 .5 8 .9 10.5 3.7zm-83.1 14.6c.3 15 .5 17.8 1.9 18.7.9.6 2.4.7 3.3.4 1.4-.6 1.6-2.9 1.6-18.7V42h7v37.2l-2.9 2.9c-2.4 2.4-3.8 2.9-7.6 2.9-4 0-5.2-.5-7.6-3.1l-2.9-3.1V42h7l.2 17.6zM402 104.7c1.2 1.6 2 4.1 2 6.4 0 3.7-.2 3.9-3 3.9-2.5 0-3-.4-3-2.4 0-3.5-2.6-5.9-5.1-4.6-3.6 2-2.3 5.7 4 12.4 6.2 6.4 8.1 9.8 8.1 14.6 0 8.7-8.2 13.5-16 9.5-3.8-2-5-4.3-5-9.9 0-4.6 0-4.6 3.5-4.6s3.5 0 3.5 4.4c0 4.2 1 5.6 4 5.6 1.7 0 3.1-3.9 2.4-6.6-.4-1.4-3.4-5.5-6.7-9-4.9-5.3-6-7.2-6.4-10.7-.7-5.8 1.7-10.4 5.8-11.5 5-1.3 9.7-.3 11.9 2.5zm-229 18.8V145h-8v-43h8v21.5zm14.7-9.8l3.8 11.8.3-11.8.3-11.7h5.9v43h-6.7l-4-12.8-4.1-12.7-.1 12.7-.1 12.8h-6v-43h6.9l3.8 11.7zM219 105c0 2.9-.1 3-5 3h-5v12h3.5c3.2 0 3.5.2 3.5 3s-.3 3-3.5 3H209v13h5c4.9 0 5 .1 5 3v3h-17v-43h17v3zm21.1-1.7c3.2 2.4 4.3 6.3 4.7 16.9.5 12.9-.2 18.8-2.9 21.7l-2 2.1 2.6 1c2.2.8 3.4 3.8 2 5.2-.3.2-3.3 0-6.7-.7-4.5-.8-6.4-1.6-6.6-2.8-.2-.9-1.2-1.9-2.2-2.2-1.1-.3-2.9-1.8-4-3.2-1.8-2.3-2-4-2-17.9 0-14.9.1-15.3 2.6-18.3 2.3-2.7 3.2-3.1 7.7-3.1 2.9 0 5.9.6 6.8 1.3zM256 120c0 16.2.2 18 1.8 18.9 1.1.6 2.4.6 3.5 0 1.5-.9 1.7-3 1.7-18.9v-18h7v16.7c0 20-.8 23.8-5.4 26-4.4 2-10 1-13.2-2.4-2.4-2.5-2.4-2.9-2.4-21.4V102h7v18zm36.1 2c2.1 10.7 3.8 20.3 3.8 21.2.1 1.4-.7 1.8-3.4 1.8-3 0-3.5-.4-4.1-2.8-1.1-4.9-1.3-5.2-4.9-5.2-3.3 0-3.5.2-4.1 4-.6 3.7-.9 4-4 4-1.9 0-3.4-.2-3.4-.4 0-.7 7.1-38 7.7-40.4.5-2 1.1-2.3 4.6-2l4.1.3 3.7 19.5zm14.9-1.5V139h4c3.8 0 4 .2 4 3v3h-16v-43h8v18.5zm19 3V145h-7v-43h7v21.5zm23-18.5c0 2.7-.3 3-3 3h-3v37h-8v-37h-3c-2.7 0-3-.3-3-3v-3h20v3zm10 18.5V145h-7v-43h7v21.5zm22-18.5c0 2.9-.1 3-5 3h-5v12h3.5c3.2 0 3.5.2 3.5 3s-.3 3-3.5 3H371v13h5c4.9 0 5 .1 5 3v3h-18v-43h18v3zm-80 129.2c0 .5-20.5.8-45.5.8s-45.5-.3-45.5-.7c0-.5 10.2-11 22.7-23.5l22.8-22.8 22.7 22.7c12.6 12.5 22.8 23.1 22.8 23.5zm-132 87.2c0 25-.4 45.7-.8 46-.5.3-11.1-9.8-23.8-22.5L121.5 322l23-23c12.6-12.7 23.3-23 23.7-23 .5 0 .8 20.4.8 45.4zm134.8-29.6l.3 15.2-48.3-.2-48.3-.3-.3-13c-.1-7.2 0-14 .3-15.3l.5-2.2 47.8.2 47.7.3.3 15.3zm62.4 53.4L343 368.5v-93l23.2 23.3 23.3 23.2-23.3 23.2zM304 352v15l-48.2-.2-48.3-.3-.3-13.4c-.1-7.4 0-14.1.2-14.8.4-1 10.1-1.3 48.6-1.3h48v15zm-25 80.5L255.5 456l-22.7-22.7c-12.6-12.5-22.8-23.1-22.8-23.5 0-.5 20.8-.8 46.2-.8h46.3L279 432.5z"/><path fill="#fff" d="M99.8 56.1C96.6 57.9 96 64 96 94c0 26.1.2 29.9 1.8 33 1.6 3.3 2 3.5 6.7 3.5s5.1-.2 6.7-3.5c1.6-3.1 1.8-6.9 1.8-33 0-30-.5-35.2-3.7-37.6-2.1-1.6-7.1-1.8-9.5-.3zm73.2-2.2c0 6.3.2 7.1 1.9 7.1 3.1 0 4.4-2.6 3.8-7.6-.5-5.1-.4-4.9-3.4-5.8-2.2-.7-2.3-.5-2.3 6.3zm45.5-5.7c-.3.8-.4 7.9-.3 15.8.3 13.6.4 14.5 2.3 14.8 4.5.5 5-.9 5-15.2 0-7.7-.4-13.9-1-14.4-1.9-1.8-5.5-2.4-6-1zM316 62.9c0 15.2.1 16.1 1.9 16.1 4.3 0 5.1-2.4 5.1-15.8 0-7-.4-13.2-.8-13.9-.4-.6-2-1.5-3.5-1.8l-2.7-.7v16.1zm-85.3 45.7c-.4.4-.7 7.1-.7 14.9 0 11.8.3 14.5 1.6 15.6 1.1.9 2 1 3.2.2 1.5-.9 1.7-3.1 1.7-15.9v-14.9l-2.5-.3c-1.4-.2-2.9 0-3.3.4zm51.9 12.5c-.4 2.9-1 6.4-1.3 7.6-.4 2-.1 2.3 2.2 2.3h2.7l-.7-5.7c-1.1-9.2-2.1-10.5-2.9-4.2z"/></svg>