<svg version="1.0" xmlns="http://www.w3.org/2000/svg" width="686.667" height="684" viewBox="0 0 515 513"><path fill="#fff" d="M.2 256.2l.3 256.3 256.3.3 256.2.2V0H0l.2 256.2zM85.5 42.4c10.2 3.1 14.5 11 14.5 26.9 0 10.5-1.6 14.7-7 18.6l-3.7 2.6 3.5 2c6.3 3.5 7.7 7.2 8 21.5.4 13.5-.5 18.7-4 24-4.8 7-17.8 10.6-28.8 8-4-.9-6.4-2.4-9.5-5.4-5.1-5.2-6.5-10-6.5-23V108h15.8l.4 10.5c.3 11.5 1.3 13.4 7.1 13.5 6.6 0 8.7-4.1 8.7-17 0-9-1.4-14.6-4-16-1-.5-4.1-1-6.9-1H68V84h5.5c8.4 0 9.5-1.6 9.5-13.8C83 58.3 81.9 56 76 56c-5.6 0-7 2.5-7 12.2V76H53v-7.8c0-9.2 1.3-14.5 4.6-19 5.4-7 17.4-9.9 27.9-6.8zm83 3.1c2 1.9 2.5 3.4 2.5 7.5 0 4.9-.1 5-3 5-2.6 0-3-.4-3-2.6 0-3.6-1.7-6.4-4-6.4-3.2 0-4 3.3-4 16.2 0 13.2.9 16.3 4.6 15.6 1.6-.3 2-1.3 2.2-6.1.2-4.6 0-5.7-1.3-5.7-1 0-1.5-1-1.5-3 0-2.9.1-3 5-3h5v12c0 11.4-.1 12-2 12-1.1 0-2.3-.7-2.6-1.5-.5-1.3-.8-1.3-2.7 0-4.3 3-9.6 1.4-12.2-3.5-1.8-3.5-2.1-27.9-.4-32.9 2.2-6.2 12.7-8.4 17.4-3.6zm25-.2c3.3 2.8 4.4 7.9 4.4 20.2.1 16.2-2.7 21.5-11.4 21.5s-11.5-5.3-11.4-21.5c0-17.4 2.6-22.5 11.4-22.5 3.1 0 5.2.7 7 2.3zm26-.1c3.3 2.9 4.5 7.9 4.5 19.8 0 12-1.2 16.9-4.6 19.9-3.9 3.3-11.7 2.6-15.1-1.3-2.2-2.6-2.3-3.4-2.3-18.7V48.8l2.9-2.9c3.8-3.8 10.6-4.1 14.6-.7zm23.4-1.1c5.2 1.8 6.1 4.9 6.1 21.6 0 16.8-.6 18.5-6.8 20.3-2 .5-6.1 1-8.9 1H228V43h5.9c3.2 0 7.2.5 9 1.1zm24.9 8.6l.3 9.3h5.8l.3-9.3.3-9.2 3.8-.3 3.7-.3v44.2l-3.7-.3-3.8-.3-.3-9.3-.3-9.2h-5.8l-.3 9.2-.3 9.3h-7l-.3-20.5c-.1-11.2 0-21 .3-21.8.3-.8 1.7-1.2 3.7-1l3.3.3.3 9.2zm35.2-6.8c0 2.8-.2 3-4.7 3.3l-4.8.3v12l3.3.3c2.8.3 3.2.7 3.2 3.3 0 2.7-.3 2.9-3.5 2.9h-3.6l.3 6.2.3 6.3 4.8.3c4.5.3 4.7.5 4.7 3.3V87h-17V43h17v2.9zm23.2 16.6c2 10.4 3.7 20.3 3.7 21.8.1 2.6-.2 2.8-3.1 2.5-2.9-.3-3.4-.8-4.2-4.1-.9-3.4-1.2-3.7-4.7-3.7-3.6 0-3.8.2-4.4 4-.6 3.6-1 4-3.5 4-1.6 0-3.1-.3-3.3-.8-.3-.4 1.3-9.7 3.4-20.7 2.1-11 3.8-20.6 3.9-21.3 0-.9 1.3-1.2 4.2-1l4.3.3 3.7 19zM341 62v19h4.6c4.4 0 4.5.1 4.2 2.7-.3 2.8-.4 2.8-8 3.1l-7.8.3V43h7v19zm26-16.1c0 2.5-.4 3-2.7 3.3l-2.8.3-.3 18.7L361 87h-7V49h-3c-2.7 0-3-.3-3-3v-3h19v2.9zm11 6.6V62h7V43h7v44h-7V68h-7v19h-7V43h7v9.5zm59.5 51.9c4.1 1.7 5.5 4.2 5.5 9.5 0 3.8-.2 4.1-2.8 4.1-2.5 0-3-.5-3.8-3.8-.7-2.8-1.5-3.8-3.3-4-1.3-.2-2.8.2-3.2 1-.5.7-.9 7.1-.9 14.3 0 7.1.4 13.6.9 14.3.4.8 1.9 1.2 3.2 1 2.1-.3 2.4-.9 2.7-5.6.2-4.2 0-5.2-1.2-5.2-1.1 0-1.6-1-1.6-3 0-2.9.1-3 5-3h5v23h-2.5c-1.7 0-2.5-.6-2.5-1.7 0-1.4-.2-1.5-1.7-.1-2.9 2.6-6 3-9.1 1.4-4.7-2.4-5.4-5.6-5-22.4.3-14.2.4-15.2 2.7-17.6 1.3-1.4 3.5-2.7 5-2.9 1.4-.2 3-.5 3.4-.6.4 0 2.3.5 4.2 1.3zm-268.3 19.1c4.7 24.3 4.7 23.5.3 23.5-3.3 0-3.5-.2-4.1-4-.6-3.8-.8-4-4.4-4-3.7 0-3.9.2-4.5 4-.6 3.8-.9 4-4.2 4-3.1 0-3.5-.2-3-2.3.3-1.2 1.7-8.5 3.2-16.2 1.4-7.7 3-16.4 3.6-19.3l1.1-5.3 4.1.3 4.2.3 3.7 19zm18.4-7.8l3.9 11.8.3-11.8.3-11.7h5.9v43h-6.9l-3.9-12.3-4-12.2-.1 12.2-.1 12.3h-6v-43h6.7l3.9 11.7zm32.5-8.8l2.9 2.9v31.4l-2.9 2.9c-2.7 2.7-3.5 2.9-10.5 2.9H202v-43h7.6c7 0 7.8.2 10.5 2.9zm20.3-1.2c.2 1 1 6.7 1.7 12.8 1.4 12.4 1.9 11.8 3.9-4.3l1.2-10.2h2.9c3.3 0 3.2-.2 5.4 14.7.8 5.7 1.6 10.6 1.6 11 .1.5.9-5.1 1.8-12.2l1.6-13 3.3-.3c3-.3 3.2-.1 2.8 2-.3 1.3-1.5 9.9-2.6 19.3-2.8 22.9-2.4 21.5-6.4 21.5-3.4 0-3.4 0-4.5-6.3-.5-3.4-1.3-8.6-1.7-11.5-.9-7.1-2-7.3-2.8-.4-.4 3.1-1.1 8.5-1.7 11.9-1.1 6.3-1.1 6.3-4.5 6.3-3.8 0-3.3 1.8-6.4-22-1.1-8.5-2.2-16.7-2.5-18.3-.4-2.5-.2-2.7 3-2.7 2.3 0 3.5.5 3.9 1.7zM287 107c0 2.9-.1 3-5 3h-5v12h3.5c3.2 0 3.5.2 3.5 3s-.3 3-3.5 3H277v13h5c4.9 0 5 .1 5 3v3h-17v-43h17v3zm11 15.5V141h4.5c4.3 0 4.5.1 4.5 3v3h-16v-43h7v18.5zm20 0V141h4c3.8 0 4 .2 4 3v3h-16v-43h8v18.5zm38.5-16c2.1 2.1 2.5 3.3 2.5 8.8 0 4.6-.4 6.8-1.5 7.7-1.4 1.2-1.3 1.5.5 3.5 1.6 1.7 2 3.5 2 8.9 0 5.8-.3 7-2.5 9.1-2.2 2.2-3.2 2.5-10.5 2.5h-8v-43h7.5c6.7 0 7.9.3 10 2.5zm24.5.5c0 2.9-.1 3-5 3h-5v11.9l3.8.3c3.2.3 3.7.7 4 3 .3 2.7.1 2.8-3.7 2.8H371v13h5c4.9 0 5 .1 5 3v3h-17v-43h17v3zm12 18.5V147h-8v-43h8v21.5zm14.7-9.8l3.8 11.8.3-11.8.3-11.7h5.9v43h-6.7l-4.1-12.8-4.1-12.7v12.7L403 147h-6v-43h6.9l3.8 11.7zm-57.4 78.5c2.6 2.5 34.7 68.4 34.7 71.3 0 4.8-6.4 7.2-9.7 3.7-1-.9-7.4-13.5-14.3-27.9-9.1-19-12.7-25.7-13.3-24.5-.4.9-15.1 49.4-32.6 107.6-22.3 74.2-32.4 106.4-33.7 107.3-2.5 1.8-3.9 1.6-6.8-1-2.2-2-3-5.8-11.1-53.2-4.7-28.1-8.9-51.8-9.3-52.9-.6-1.4-4 4.2-14.6 23.8-7.6 14.2-14.7 26.1-15.8 26.7-2.5 1.4-6.5.4-7.6-1.9-.5-.9-3.6-20-6.7-42.4-3.2-22.5-6-40.6-6.2-40.4-.3.2-5.2 11.1-11.1 24.2-8.3 18.5-11.3 24.1-13.2 25.1-1.9 1-12.1 1.2-45.2 1.1-46.8-.3-46-.2-46.1-6.2 0-5.7-1.1-5.6 43.7-5.6h41.2l14.4-32.1c7.9-17.6 15-32.7 15.7-33.5 1.9-1.8 5.8-1.8 7.6.1 2 1.9 1.7.5 8.2 46.5 3.1 21.7 5.7 39.9 5.8 40.3.2.5 6.3-10.3 13.6-24 7.3-13.6 14-25.6 14.9-26.6 2.2-2.5 6.8-2.2 8.6.5.8 1.3 5.1 24.2 9.7 51.1 4.6 26.8 8.6 48.2 9 47.5.3-.7 13.6-44.3 29.3-96.8 34.7-115.4 32.3-107.9 35-109 3.1-1.3 3.3-1.2 5.9 1.2zm23.4 100.7c2.3 1.1 6.2 3.8 8.6 6 2.4 2.3 4.7 4.1 5.1 4.1.4 0 2.8-1.7 5.4-3.9 6.7-5.5 11-7.4 16.4-7.3 16.4.3 26.9 21 19 37.3-1.4 2.9-8.9 11.1-21.5 23.7L387.4 374l-19.2-19.3c-21.7-22-23.6-24.8-23.5-35.7.1-3.6.9-8.4 1.8-10.8 2.3-5.6 10.4-12.9 15.3-13.8 2-.3 4.2-.7 4.7-.9 1.9-.7 3-.4 7.2 1.4z"/><path fill="#fff" d="M184.1 50.4c-.8.9-1.1 5.8-.9 15.1.3 11.6.6 14 2 14.8 1.2.8 2.1.7 3.2-.2 1.3-1.1 1.6-3.8 1.6-15 0-13.5-.6-16.1-3.6-16.1-.6 0-1.7.6-2.3 1.4zm26 0c-.8.9-1.1 5.8-.9 15.1.3 11.6.6 14 2 14.8 1.2.8 2.1.7 3.2-.2 2.4-2 2.4-29.6 0-30.5-2.3-.9-3-.8-4.3.8zM235 65c0 17.1.2 17.6 5.1 15 1.7-1 1.9-2.3 1.9-15s-.2-14-1.9-15c-4.9-2.6-5.1-2.1-5.1 15zm-26 60.5V141h2.3c4.2 0 4.7-1.6 4.7-15.5s-.5-15.5-4.7-15.5H209v15.5z"/></svg>