<svg xmlns="http://www.w3.org/2000/svg" viewBox="0 0 512 640"><path fill="#fff" d="M350.29 80.15h10.54v10.33a7 7 0 1014 0V80.15h10.33a7 7 0 000-14h-10.33V55.62a7 7 0 00-14 0v10.53h-10.54a7 7 0 000 14zM229 232.09l27.63 21.78a14.92 14.92 0 0018.54 0l27.63-21.78a32.59 32.59 0 0012.5-25.75v-4.67a30.9 30.9 0 00-49.4-24.73 30.89 30.89 0 00-49.39 24.73v4.67A32.58 32.58 0 00229 232.09zm1.51-30.42a16.88 16.88 0 0130-10.66 7 7 0 0010.85 0 16.88 16.88 0 0130 10.66v4.67a18.7 18.7 0 01-7.16 14.76l-27.63 21.78a1 1 0 01-1.21 0l-27.74-21.78a18.7 18.7 0 01-7.16-14.76zm156.7 190.4a39.34 39.34 0 10-70-24.68 39 39 0 009 25 54.12 54.12 0 00-28.31 27.7 54.13 54.13 0 00-11.57-6.39 39.33 39.33 0 00-27.79-63.92 39 39 0 00-29.66 10.46 39.46 39.46 0 00-12.52 28.78 39 39 0 009 25 53.12 53.12 0 00-11.09 6.33 54 54 0 00-29.33-28.34 39.34 39.34 0 00-27.79-63.92 39 39 0 00-29.66 10.46A39.47 39.47 0 00115 367.39a39 39 0 009 25 54.24 54.24 0 00-33.1 50V465a17 17 0 0017 17h84.42v4.66a17 17 0 0017 17h93.98a17 17 0 0017-17V482h83.87a17 17 0 0017-17v-22.56a54.06 54.06 0 00-33.96-50.37zm-195 72V468h-84.38a3 3 0 01-3-3v-22.56a40.27 40.27 0 0127.58-38.27 11.13 11.13 0 004.24-18.59 25.34 25.34 0 0117.63-43.53c.61 0 1.24 0 1.86.07a25.34 25.34 0 0123.46 23.78v1.43a25.39 25.39 0 01-7.58 18.13 10.94 10.94 0 00-3 10.44 11.11 11.11 0 007.55 8.06 40.1 40.1 0 0126.68 27.26 54.19 54.19 0 00-11 32.88zm114.09 22.59a3 3 0 01-3 3h-94.05a3 3 0 01-3-3V464.1a40.3 40.3 0 0127.58-38.27 11.13 11.13 0 004.24-18.59 25.34 25.34 0 0117.63-43.53c.62 0 1.24 0 1.86.07a25.33 25.33 0 0115.92 43.33 11 11 0 00-3 10.45 11.12 11.12 0 007.55 8.06 40.17 40.17 0 0128.27 38.48zM407.16 465a3 3 0 01-3 3H320.3v-3.9a54.16 54.16 0 00-11.43-33.42 40.22 40.22 0 0125.83-26.51 11.13 11.13 0 004.23-18.59 25.34 25.34 0 0117.63-43.53c.62 0 1.25 0 1.87.07a25.33 25.33 0 0123.45 23.77v1.44a25.39 25.39 0 01-7.58 18.13 10.92 10.92 0 00-3 10.44 11.11 11.11 0 007.55 8.06 40.14 40.14 0 0128.25 38.48z"/><path fill="#fff" d="M265.43 325.25h.32a117.88 117.88 0 007.86-235.5v-20a62 62 0 006.42.34c8.41 0 19.74-1.76 28.87-9.53 11-9.37 15.85-24.69 14.34-45.54a7 7 0 00-6.47-6.48c-20.85-1.51-36.17 3.33-45.54 14.35a36.7 36.7 0 00-4.13 6 36.7 36.7 0 00-4.13-6c-9.37-11-24.7-15.86-45.54-14.35a7 7 0 00-6.43 6.52c-1.5 20.85 3.32 36.17 14.35 45.54 9.13 7.77 20.46 9.53 28.86 9.53 2 0 3.85-.1 5.45-.25v19.77A117.52 117.52 0 00226 96.36a118.79 118.79 0 00-44.23 28.31 117.88 117.88 0 0083.71 200.58zM281.89 32c5.48-6.44 14.75-9.69 27.62-9.69 0 12.84-3.23 22.1-9.63 27.58-7.48 6.4-18 6.58-24 6.06-.5-5.95-.32-16.51 6.01-23.95zm-23.58 23.94c-6 .53-16.52.35-24-6-6.4-5.48-9.63-14.74-9.63-27.58 12.84 0 22.09 3.23 27.57 9.63 6.41 7.43 6.59 18.01 6.06 23.95zm93.08 92.61a103.23 103.23 0 0118.24 59.1 104.47 104.47 0 01-.61 10.94c-3-4.87-4.42-5.35-5.77-5.8-1.7-.57-11.14-4.86-19.57-9.07a3 3 0 01-.57-.36c-.18-1 1-3.91 1.52-5.17a24.88 24.88 0 001.47-4.36c.9-4.51-2.05-9.17-5.47-14.56-1.26-2-3.36-5.3-3.62-6.39-1.39-8.33-12.45-12-24.16-15.92-16.09-5.37-28.05-10.8-35.54-16.15l-.32-.24a37.39 37.39 0 015.21-4.7c3.92-3.13 7.63-6.09 7.62-10.54.14-2 3.37-9.9 7-17.1a104.09 104.09 0 0154.57 40.32zM191.7 134.49a103.45 103.45 0 0169.23-30.9c1.55-.07 3.15-.11 4.77-.11h.3a103.73 103.73 0 0118.86 1.78c-2.59 5.33-6.25 13.54-6.94 18.51-.74.73-2.2 1.9-3.23 2.72-4.55 3.64-10.22 8.17-10 14.63.07 2.51 1.11 6.19 5.68 9.46 8.58 6.13 21.25 11.94 38.72 17.76 4.67 1.56 14.27 4.76 16.2 7 .67 3.17 2.79 6.52 5.23 10.36a52.89 52.89 0 013.66 6.35c-.17.48-.43 1.12-.64 1.63-1.7 4.17-6.21 15.27 4.81 20.78 6.63 3.32 15.62 7.54 19.71 9.19a133.64 133.64 0 017.13 13.93 103 103 0 01-14.4 29.5 104.89 104.89 0 01-10.61 12.8 103.07 103.07 0 01-74.4 31.38h-.29a103.41 103.41 0 01-37.77-7.26 25.5 25.5 0 005.75-12.95 20 20 0 00-3.59-14.21l-.83-1-1.19-.6c-4.84-2.43-9.9-7.86-12.73-11.34 1.88-7.42 4.3-20.08.85-26.23a8.8 8.8 0 00-5.37-4.32 46.73 46.73 0 01-24.75-16.82c-.28-12.56-12.27-35.19-17.69-44.8.17-.46.32-.92.49-1.38a103.27 103.27 0 0123.04-35.86zm-28.15 54.08c6.17 12.32 10.9 24.38 10.29 28.84l-.28 2.05 1.05 1.79c.4.69 9.89 16.54 31.08 23.12.43 3.32-.81 11.77-2.9 19.17l-.78 2.77 1.67 2.35c.34.47 7.93 11 17.2 16.4a8.65 8.65 0 01.68 4.57c-.35 2.9-2.13 6-5.2 9.09a103.65 103.65 0 01-54.5-91.64 105.58 105.58 0 011.69-18.51z"/></svg>