<svg width="61" height="61" viewBox="0 0 61 61" fill="none" xmlns="http://www.w3.org/2000/svg">
  <g clip-path="url(#clip0_10613_59067)">
    <path
      d="M60.1725 35.233C60.4019 33.7363 60.5166 32.2441 60.5166 30.7292C60.5166 17.7366 52.0136 6.24065 39.5137 2.3374"
      stroke="white" stroke-width="0.994286" stroke-miterlimit="10" />
    <path d="M28.0039 60.3948C42.3623 61.5776 55.5413 52.4791 59.4097 38.7222" stroke="white" stroke-width="0.994286"
      stroke-miterlimit="10" />
    <path d="M8.45117 50.9551C12.7096 55.5134 18.2987 58.6388 24.4386 59.8898" stroke="white" stroke-width="0.994286"
      stroke-miterlimit="10" />
    <path d="M1.1873 24.21C-0.698696 32.5442 1.11847 41.2742 6.17074 48.1936" stroke="white" stroke-width="0.994286"
      stroke-miterlimit="10" />
    <path d="M36.0214 1.46826C21.4841 -1.23399 7.12573 6.9592 2.18359 20.7798" stroke="white" stroke-width="0.994286"
      stroke-miterlimit="10" />
    <path
      d="M53.8125 46.3056C56.9421 41.7018 58.6124 36.2791 58.6124 30.729C58.6124 29.0458 58.461 27.3989 58.1581 25.7476"
      stroke="white" stroke-width="0.994286" stroke-miterlimit="10" />
    <path d="M15.0234 54.0211C26.7432 61.6639 42.3543 59.5803 51.6145 49.1353" stroke="white" stroke-width="0.994286"
      stroke-miterlimit="10" />
    <path d="M6.81224 15.6665C-0.759284 27.3672 1.51676 42.8073 12.149 51.8694" stroke="white" stroke-width="0.994286"
      stroke-miterlimit="10" />
    <path d="M44.0922 6.32211C32.3265 -0.128723 17.5965 2.58263 8.95117 12.7911" stroke="white" stroke-width="0.994286"
      stroke-miterlimit="10" />
    <path d="M57.2892 22.281C55.4858 16.6536 51.9249 11.7404 47.125 8.24658" stroke="white" stroke-width="0.994286"
      stroke-miterlimit="10" />
    <path
      d="M44.9102 52.4428C52.2798 47.6342 56.7125 39.4729 56.7125 30.7292C56.7125 24.938 54.7623 19.3106 51.1693 14.7432"
      stroke="white" stroke-width="0.994286" stroke-miterlimit="10" />
    <path d="M9.02539 45.6733C16.3812 56.0547 30.2165 59.6577 41.7665 54.1986" stroke="white" stroke-width="0.994286"
      stroke-miterlimit="10" />
    <path d="M16.4588 8.76074C4.98682 15.9622 0.953264 30.6472 7.16191 42.6162" stroke="white" stroke-width="0.994286"
      stroke-miterlimit="10" />
    <path d="M48.7632 12.0859C41.0219 4.62063 29.4581 2.62806 19.6289 7.05902" stroke="white" stroke-width="0.994286"
      stroke-miterlimit="10" />
    <path d="M31.0703 54.8354C43.9694 54.5306 54.3814 44.2902 54.799 31.5068" stroke="white" stroke-width="0.994286"
      stroke-miterlimit="10" />
    <path d="M6.2433 28.75C5.17411 41.6289 14.5353 53.0521 27.4711 54.6534" stroke="white" stroke-width="0.994286"
      stroke-miterlimit="10" />
    <path d="M30.7169 6.61335C19.3367 6.50872 9.40195 14.2379 6.80469 25.2243" stroke="white" stroke-width="0.994286"
      stroke-miterlimit="10" />
    <path d="M54.6468 27.9358C53.3849 17.1996 45.07 8.60605 34.3047 6.90918" stroke="white" stroke-width="0.994286"
      stroke-miterlimit="10" />
    <path
      d="M51.9801 37.0525C52.6042 34.969 52.9071 32.9036 52.9071 30.7291C52.9071 23.0227 48.8781 15.8667 42.2656 11.8179"
      stroke="white" stroke-width="0.994286" stroke-miterlimit="10" />
    <path d="M23.3555 51.8011C34.0657 55.3631 45.7763 50.4682 50.6818 40.3779" stroke="white" stroke-width="0.994286"
      stroke-miterlimit="10" />
    <path d="M10.0335 21.6123C5.17856 32.3212 9.56087 44.9317 20.0417 50.3999" stroke="white" stroke-width="0.994286"
      stroke-miterlimit="10" />
    <path d="M39.063 10.189C29.1375 6.11747 17.6884 9.59765 11.7734 18.4869" stroke="white" stroke-width="0.994286"
      stroke-miterlimit="10" />
    <path
      d="M45.3633 44.7361C48.9838 40.9557 51.0029 35.9424 51.0029 30.729C51.0029 26.5027 49.6768 22.3857 47.208 18.9419"
      stroke="white" stroke-width="0.994286" stroke-miterlimit="10" />
    <path d="M15.6562 44.7861C22.7918 52.1832 34.3602 53.1704 42.6659 47.0972" stroke="white" stroke-width="0.994286"
      stroke-miterlimit="10" />
    <path d="M15.5968 16.7266C9.00724 23.6141 8.09865 34.1001 13.4079 42.0022" stroke="white" stroke-width="0.994286"
      stroke-miterlimit="10" />
    <path d="M44.8772 16.2258C37.6819 9.21087 26.4118 8.42385 18.2988 14.3652" stroke="white" stroke-width="0.994286"
      stroke-miterlimit="10" />
    <path
      d="M13.252 37.7122C16.6201 45.8781 25.3434 50.5411 34.0759 48.8397C42.8084 47.1383 49.1043 39.5501 49.1043 30.7291C49.1043 29.7647 49.0308 28.8185 48.8794 27.8677"
      stroke="white" stroke-width="0.994286" stroke-miterlimit="10" />
    <path d="M23.6771 13.5513C15.3025 16.8131 10.4843 25.5476 12.2188 34.2958" stroke="white" stroke-width="0.994286"
      stroke-miterlimit="10" />
    <path d="M47.9791 24.41C44.8724 15.953 36.0665 10.9534 27.1367 12.5683" stroke="white" stroke-width="0.994286"
      stroke-miterlimit="10" />
    <path
      d="M47.1814 31.5478C47.1952 31.2748 47.1998 31.0019 47.1998 30.7289C47.1998 22.463 41.0554 15.4617 32.8001 14.3153C24.5449 13.1689 16.698 18.2322 14.4082 26.1797"
      stroke="white" stroke-width="0.994286" stroke-miterlimit="10" />
    <path d="M30.0781 47.2927C37.7735 47.4792 44.5971 42.4341 46.6162 35.0688" stroke="white" stroke-width="0.994286"
      stroke-miterlimit="10" />
    <path d="M13.8024 29.6963C13.2976 37.703 18.6528 44.9181 26.5134 46.8242" stroke="white" stroke-width="0.994286"
      stroke-miterlimit="10" />
    <path
      d="M42.5423 39.2587C44.3365 36.7702 45.3002 33.7859 45.3002 30.7243C45.3002 27.003 43.8731 23.4182 41.3125 20.6978"
      stroke="white" stroke-width="0.994286" stroke-miterlimit="10" />
    <path
      d="M18.3628 22.29C14.0723 28.3451 14.9992 36.6202 20.5241 41.597C26.049 46.5739 34.442 46.7013 40.1137 41.8927"
      stroke="white" stroke-width="0.994286" stroke-miterlimit="10" />
    <path d="M38.5538 18.4095C33.0105 14.8429 25.7556 15.3433 20.7676 19.6423" stroke="white" stroke-width="0.994286"
      stroke-miterlimit="10" />
    <path
      d="M31.2802 36.5882C29.1694 35.2036 28.0471 32.8889 28.7394 30.852C29.1 29.792 29.645 28.8418 30.2493 27.9115C30.9129 26.8898 31.634 25.9013 32.2366 24.8462C33.4198 22.7744 33.4232 20.6477 32.3568 18.5193C32.2823 18.3712 32.2095 18.2214 32.1486 18.0683C32.1316 18.0267 32.1604 17.9702 32.1909 17.7871C33.2133 19.0119 34.0004 20.2583 34.4321 21.6928C35.3461 24.7347 34.8756 27.5121 32.7393 29.9684C31.5832 31.2963 30.7487 32.7641 30.7978 34.5946C30.8164 35.2419 31.0584 35.8277 31.2802 36.5882Z"
      fill="#F89925" />
    <path
      d="M26.9347 29.8735C26.8806 30.1498 26.8586 30.3079 26.8179 30.461C26.2864 32.4829 26.95 34.1403 28.4277 35.5465C29.1116 36.1971 29.8395 36.8012 30.4505 37.5268C32.189 39.5852 32.0993 41.4873 30.0561 43.5175C30.8449 41.246 29.7396 39.7899 28.1129 38.5435C25.2014 36.3136 25.1912 32.616 26.6605 30.0433C26.6842 30.0033 26.7502 29.9867 26.9347 29.8735Z"
      fill="#F89925" />
  </g>
  <defs>
    <clipPath id="clip0_10613_59067">
      <rect width="60.5171" height="60" fill="white" transform="translate(0 0.5)" />
    </clipPath>
  </defs>
</svg>