<svg width="39" height="38" viewBox="0 0 39 38" fill="none" xmlns="http://www.w3.org/2000/svg">
<circle cx="19.9844" cy="19" r="19" fill="#6FCF97"/>
<path d="M19.9849 5.42847C19.3603 5.42847 18.854 5.93481 18.854 6.55942V7.61425C15.6467 8.11176 13.1992 10.7013 13.1992 13.7801C13.1992 15.6356 14.1402 17.0669 15.3904 17.9886C16.6407 18.9102 18.1471 19.424 19.5608 19.946C20.9745 20.468 22.2954 20.9981 23.1657 21.6424C24.036 22.2867 24.5087 22.9392 24.5087 24.2197C24.5087 26.4707 22.481 28.3955 19.9849 28.3955C17.4756 28.3955 15.4611 26.536 15.4611 24.2197V24.2197C15.4611 23.6431 14.9937 23.1757 14.4172 23.1757H14.2432C13.6666 23.1757 13.1992 23.6431 13.1992 24.2197V24.2197C13.1992 27.3148 15.6467 29.888 18.854 30.3855V31.4404C18.854 32.065 19.3603 32.5713 19.9849 32.5713V32.5713C20.6095 32.5713 21.1159 32.065 21.1159 31.4404V30.3855C24.332 29.884 26.7706 27.2741 26.7706 24.2197C26.7706 22.3601 25.8297 20.9369 24.5794 20.0112C23.3292 19.0855 21.8227 18.5432 20.409 18.0212C18.9954 17.4992 17.6744 16.9976 16.8041 16.3574C15.9338 15.7171 15.4611 15.0524 15.4611 13.7801C15.4611 11.4924 17.4801 9.60429 19.9849 9.60429C22.4942 9.60429 24.5087 11.4638 24.5087 13.7801V13.7801C24.5087 14.3567 24.9761 14.8241 25.5527 14.8241H25.7267C26.3033 14.8241 26.7706 14.3567 26.7706 13.7801V13.7801C26.7706 10.6849 24.3232 8.11176 21.1159 7.61425V6.55942C21.1159 5.93481 20.6095 5.42847 19.9849 5.42847V5.42847Z" fill="white"/>
</svg>
