<svg xmlns="http://www.w3.org/2000/svg" xmlns:xlink="http://www.w3.org/1999/xlink" version="1.1" x="0px" y="0px" viewBox="0 0 265.131 284.04499999999996" style="enable-background:new 0 0 265.131 227.236;" xml:space="preserve"><g><ellipse transform="matrix(0.2268 -0.9739 0.9739 0.2268 36.5824 93.0681)" cx="76.906" cy="23.494" rx="23.489" ry="23.49"/><path d="M265.129,120.815c-0.001-6.552-3.605-12.252-8.934-15.252c-3.452-19.341-13.873-32.055-23.713-39.334   c-10.872-8.126-20.861-10.329-21.545-10.5c-1.275-0.28-2.543-0.232-3.726,0.076c-0.176-0.023-0.356-0.035-0.535-0.045   c-4.357,5.052-10.769,8.15-17.839,8.15c-1.799,0-3.609-0.209-5.375-0.621c-5.137-1.195-9.61-4.021-12.893-8.04   c-0.043,0.003-0.084,0-0.126,0.004v-0.002c-0.787,0.097-11.008,0.943-22.026,8.381c-4.516,3.064-9.119,7.328-13.008,13.015   c-0.454,0.664-0.898,1.348-1.33,2.052c-3.635-9.556-8.162-16.883-12.721-22.375c-0.014-0.017-0.025-0.035-0.039-0.052   c-1.465-1.765-2.921-3.316-4.348-4.715c-7.731-7.583-14.455-10.078-15.299-10.363c-0.577-0.198-1.162-0.319-1.744-0.382   c-0.888-0.336-1.846-0.528-2.852-0.528h-0.971c-4.702,5.399-11.59,8.707-19.18,8.707c-1.941,0-3.895-0.226-5.803-0.671   c-5.272-1.228-9.909-4.033-13.398-8.036h-0.992c-0.998,0-1.949,0.189-2.832,0.521c-4.195,0.673-11.589,2.557-19.291,7.951   c-5.608,3.948-11.266,9.859-15.454,18.216c-3.025,6.017-5.282,13.252-6.427,21.855c-7.427,2.754-12.727,9.88-12.728,18.268   L0,220.593c0,2.761,2.24,5.001,5,5.001c2.762,0,5-2.24,5-5.001V107.094c0.004-2.23,0.779-4.275,2.066-5.896   c0.702,3.61,3.835,6.375,7.663,6.466c0.063,0.002,0.126,0.002,0.188,0.002c3.566,0,6.604-2.346,7.626-5.603   c0.916,1.46,1.454,3.18,1.458,5.03H29c0,2.761,2.238,5,5,5s5-2.239,5-5c-0.003-7.433-4.159-13.888-10.273-17.179   c0.965-6.544,2.68-11.685,4.725-15.758c4.329-8.541,10.147-12.734,15.212-15.114v60.726c0,0.044,0.006,0.086,0.007,0.129   c-2.492,12.963-6.428,41.723-6.434,94.268c0,7.18,5.819,12.998,13.001,12.998c7.18,0,12.999-5.818,12.999-12.998   c0-36.29,1.934-60.507,3.814-75.439c0.559-4.428,1.108-8.02,1.603-10.889h6.501c2.16,12.549,5.421,39.298,5.416,86.328   c0,7.18,5.819,12.998,13.001,12.998c7.18,0,12.999-5.818,12.999-12.998c-0.006-52.534-3.94-81.293-6.432-94.259   c0.001-0.047,0.007-0.091,0.007-0.138V62.369c0.022,0.021,0.045,0.041,0.067,0.063c1.212,1.148,2.488,2.488,3.789,4.057   c0.006,0.007,0.012,0.013,0.018,0.019c6.084,7.374,12.844,19.703,15.62,40.601c0.104,0.793,0.325,1.54,0.637,2.234   c-0.012,0.229-0.037,0.445-0.048,0.676c-0.055,1.21,0.171,2.365,0.605,3.415c1.151,2.779,3.821,4.795,7.024,4.939   c0.123,0.006,0.246,0.009,0.367,0.009c4.117,0,7.56-3.143,7.95-7.237c0.013-0.134,0.032-0.266,0.038-0.401   c0.143-3.085,0.462-5.899,0.924-8.474c1.028-5.742,2.765-10.288,4.821-13.962c4.115-7.304,9.677-11.419,14.657-13.883   c-4.052,20.349-11.985,63.09-11.621,84.078c0.095,5.497,0.756,9.511,2.209,11.227c4.264,5.033,20.34,8.92,36.611,9.836   c16.272-0.916,32.35-4.803,36.613-9.836c1.453-1.716,2.113-5.729,2.209-11.226c0.361-20.869-7.481-63.251-11.554-83.736   c2.347,1.214,4.954,2.795,7.554,4.842c6.542,5.214,13.104,12.917,16.129,25.588c-5.711,2.881-9.636,8.783-9.639,15.618   c0,2.479,2.01,4.488,4.488,4.488s4.488-2.01,4.488-4.488h-0.002c0.004-2.279,0.904-4.343,2.361-5.872   c1.027,3.3,4.104,5.617,7.625,5.618c0.256,0,0.513-0.013,0.772-0.037c2.303-0.221,4.276-1.403,5.581-3.105   c0.454,1.041,0.71,2.188,0.713,3.396v101.859c0,2.477,2.008,4.488,4.486,4.488c2.476,0,4.488-2.012,4.488-4.488L265.129,120.815z"/><path d="M159.379,215.735c0,6.352,5.149,11.501,11.501,11.501c6.353,0,11.501-5.149,11.501-11.501   c-0.001-12.787,0.261-23.941,0.68-33.619c-8.669-0.86-16.88-2.522-22.807-4.701C159.72,188.292,159.381,200.993,159.379,215.735z"/><path d="M195.252,215.735c0,6.352,5.149,11.501,11.501,11.501c6.351,0,11.501-5.149,11.501-11.501   c-0.002-14.742-0.341-27.442-0.875-38.319c-5.928,2.178-14.138,3.84-22.807,4.7C194.992,191.792,195.253,202.95,195.252,215.735z"/><path d="M194.174,17.297c2.365,0.551,4.564,1.441,6.558,2.608c-0.463-6.183-5.614-11.058-11.915-11.058   c-6.294,0-11.442,4.865-11.914,11.039c3.511-2.047,7.578-3.211,11.895-3.211C190.598,16.676,192.406,16.883,194.174,17.297z"/><ellipse transform="matrix(0.2268 -0.9739 0.9739 0.2268 106.7544 215.0528)" cx="188.817" cy="40.293" rx="21.613" ry="21.613"/></g></svg>