<svg xmlns="http://www.w3.org/2000/svg" xmlns:xlink="http://www.w3.org/1999/xlink" version="1.1" x="0px" y="0px" viewBox="0 0 100 125" enable-background="new 0 0 100 100" xml:space="preserve"><path d="M89.537,34.515v7.671h8.988v-7.671c0-1.938-1.277-3.563-3.023-4.113v-7.935c0.42-0.271,0.691-0.736,0.691-1.256  c0-0.674-0.449-1.265-1.1-1.445L54.063,8.368c-0.264-0.072-0.541-0.072-0.803,0L12.227,19.766c-0.649,0.181-1.099,0.771-1.099,1.445  s0.449,1.265,1.099,1.445l16.204,4.501v6.935l-3.973-4.062c-0.349-0.356-0.854-0.514-1.347-0.426  c-0.492,0.092-0.906,0.422-1.104,0.882l-3.312,7.694l-2.253-1.168c-1.65-0.953-3.357-1.938-5.587-1.938  c-4.997,0-9.38,4.519-9.38,9.67c0,5.327,4.563,7.96,6.781,9.241L73.221,89.79c1.656,1.192,3.666,1.896,5.834,1.896  c5.641,0,10.229-4.732,10.229-10.55c0-0.379-0.021-0.753-0.059-1.122l5.57-12.941c0.166-0.39,0.162-0.832-0.016-1.218  c-0.176-0.386-0.508-0.679-0.912-0.806L56.951,53.43c3.201-1.981,7.152-3.613,11.408-4.669c3.064-0.763,6.15-1.21,9.168-1.33  c0.805-0.032,1.439-0.694,1.439-1.499V27.136l13.535-3.759v7.043C90.787,30.991,89.537,32.6,89.537,34.515z M95.525,39.186h-2.988  v-4.671c0-0.733,0.584-1.33,1.301-1.33h0.387c0.717,0,1.301,0.597,1.301,1.33V39.186z M53.66,11.37l29.508,8.197H54.771  c-0.83,0-1.5,0.672-1.5,1.5s0.67,1.5,1.5,1.5h29.438L53.66,31.053l-35.428-9.842L53.66,11.37z M23.878,33.729l14.162,14.479  l-16.675-8.643L23.878,33.729z M68.826,81.137c0,1.06,0.154,2.082,0.438,3.048L43.375,69.916c-0.021-5.513,2.115-9.498,6.512-12.11  c0.076,0.021,0.154,0.03,0.232,0.039L75.785,71.15C71.746,72.561,68.826,76.5,68.826,81.137z M39.787,52.519l7.044,3.719  c-3.905,2.863-6.051,6.898-6.4,12.056l-7.45-4.106C33.116,58.869,35.357,55.031,39.787,52.519z M49.703,54.252l-7.807-4.045  l4.102-7.77l1.707,3.918c0.275,0.634,0.944,0.997,1.626,0.88l4.48-0.762L49.703,54.252z M4.475,44.745c0-3.491,3.041-6.67,6.38-6.67  c1.427,0,2.601,0.678,4.088,1.536l13.715,7.109c0.254,0.409,0.697,0.689,1.213,0.71c0.059,0.002,0.119,0.009,0.18,0.012l6.669,3.458  c-3.94,2.767-6.167,6.679-6.647,11.684L9.73,51.373C7.071,49.838,4.475,48.062,4.475,44.745z M79.055,88.687  c-3.986,0-7.229-3.387-7.229-7.55c0-4.162,3.242-7.549,7.229-7.549c2.088,0,3.965,0.934,5.285,2.415  c-1.295-0.517-2.695-0.611-4.051-0.25c-1.777,0.475-3.246,1.665-4.135,3.352c-0.576,1.093-0.861,2.336-0.834,3.601  c0,0.009-0.004,0.017-0.004,0.025c0,0.015,0.002,0.029,0.002,0.044c0,0.009-0.002,0.018-0.002,0.027  c0,0.006,0.002,0.011,0.002,0.016c-0.01,0.737,0.158,1.463,0.494,2.104c0.535,1.015,1.424,1.732,2.5,2.02  c0.334,0.09,0.674,0.134,1.01,0.134c0.74,0,1.473-0.213,2.129-0.629c1.301-0.82,2.074-2.31,2.021-3.886  c-0.027-0.828-0.748-1.516-1.549-1.449c-0.828,0.027-1.477,0.721-1.449,1.549c0.018,0.509-0.229,1-0.625,1.251  c-0.309,0.195-0.584,0.179-0.762,0.133c-0.26-0.069-0.48-0.254-0.621-0.521c-0.107-0.205-0.16-0.444-0.152-0.69  c0-0.021-0.004-0.041-0.004-0.062c0-0.023,0.006-0.045,0.004-0.068c-0.025-0.778,0.145-1.538,0.494-2.199  c0.494-0.938,1.295-1.596,2.254-1.852c0.941-0.251,1.938-0.088,2.805,0.461c1.277,0.807,2.066,2.354,2.014,3.943  c-0.004,0.141,0.018,0.275,0.049,0.406C84.988,86.489,82.264,88.687,79.055,88.687z M87.811,75.711  c-1.254-2.144-3.219-3.792-5.563-4.589l-29.34-15.208c0.084-0.178,0.131-0.37,0.141-0.569l38.334,12.068L87.811,75.711z   M75.967,44.513c-2.758,0.197-5.553,0.645-8.332,1.335c-4.955,1.231-9.402,3.123-13.008,5.502l3.256-6.167  c0.266-0.505,0.223-1.117-0.111-1.58c-0.336-0.462-0.9-0.694-1.467-0.599l-6.319,1.075l-2.484-5.7  c-0.229-0.529-0.742-0.879-1.318-0.9c-0.577-0.033-1.113,0.288-1.383,0.799L40.671,46.1c-0.229-0.063-0.451-0.13-0.682-0.189  l-8.56-8.751v-9.168l21.83,6.063c0.131,0.036,0.266,0.055,0.4,0.055s0.27-0.019,0.402-0.055l21.904-6.085V44.513z"/></svg>