<svg xmlns="http://www.w3.org/2000/svg" xmlns:xlink="http://www.w3.org/1999/xlink" version="1.1" x="0px" y="0px" viewBox="0 0 100 125" style="enable-background:new 0 0 100 100;" xml:space="preserve"><g><path d="M50.04,26.52c4.02,0,7.28-3.69,7.28-8.23c0-4.54-3.27-8.23-7.28-8.23s-7.28,3.69-7.28,8.23   C42.76,22.83,46.03,26.52,50.04,26.52z M50.04,13.07c2.36,0,4.28,2.34,4.28,5.23s-1.92,5.23-4.28,5.23s-4.28-2.34-4.28-5.23   S47.68,13.07,50.04,13.07z"/><path d="M24.95,56.13c-4.02,0-7.28,3.69-7.28,8.23c0,4.54,3.27,8.23,7.28,8.23s7.28-3.69,7.28-8.23   C32.23,59.82,28.97,56.13,24.95,56.13z M24.95,69.58c-2.36,0-4.28-2.34-4.28-5.23s1.92-5.23,4.28-5.23c2.36,0,4.28,2.34,4.28,5.23   S27.31,69.58,24.95,69.58z"/><path d="M75.14,56.13c-4.02,0-7.28,3.69-7.28,8.23c0,4.54,3.27,8.23,7.28,8.23s7.28-3.69,7.28-8.23   C82.42,59.82,79.15,56.13,75.14,56.13z M75.14,69.58c-2.36,0-4.28-2.34-4.28-5.23s1.92-5.23,4.28-5.23s4.28,2.34,4.28,5.23   S77.5,69.58,75.14,69.58z"/><path d="M75.09,51.51c-3.17,0-6.18,0.71-8.89,1.96l-4.65-8.53l-0.04-0.07c0.7-0.45,1.37-0.92,2.01-1.44   c4.8-3.93,7.87-9.9,7.87-16.57c0-11.8-9.6-21.41-21.41-21.41s-21.41,9.6-21.41,21.41c0,6.84,3.24,12.93,8.25,16.85   c0.53,0.41,1.07,0.8,1.64,1.16l-0.08,0.14l-4.61,8.45c-2.71-1.24-5.72-1.96-8.89-1.96c-11.8,0-21.41,9.6-21.41,21.41   c0,6.84,3.24,12.93,8.25,16.85c0.58,0.46,1.19,0.88,1.82,1.27c3.29,2.07,7.17,3.28,11.34,3.28c4.22,0,8.14-1.24,11.46-3.36   c0.72-0.46,1.41-0.94,2.07-1.48c4.44-3.63,7.37-9.01,7.8-15.07h7.53c0.43,6.23,3.53,11.72,8.17,15.35   c0.58,0.46,1.19,0.88,1.82,1.27c3.29,2.07,7.17,3.28,11.34,3.28c4.22,0,8.14-1.24,11.46-3.36c0.72-0.46,1.41-0.94,2.07-1.48   c4.8-3.93,7.87-9.9,7.87-16.57C96.5,61.11,86.9,51.51,75.09,51.51z M39.92,42.23l0.57-8.65c0.05-0.7,0.53-1.31,1.21-1.52l3.94-1.19   c0.64-0.19,1.34,0.01,1.78,0.51l1.54,1.77l0.1,0.11c0,0,0.01,0,0.01,0.01c0.04,0.05,0.08,0.1,0.12,0.14   c0.1,0.09,0.21,0.16,0.33,0.21c0.01,0,0.02,0.01,0.03,0.01c0.08,0.04,0.15,0.07,0.23,0.09c0.02,0.01,0.05,0.01,0.07,0.02   c0.07,0.02,0.13,0.03,0.2,0.03c0.04,0,0.09,0,0.13,0c0.05,0,0.09,0,0.14,0c0.06-0.01,0.13-0.02,0.19-0.03   c0.03-0.01,0.05-0.01,0.08-0.02c0.08-0.02,0.16-0.05,0.23-0.09c0.01,0,0.02-0.01,0.03-0.01c0.12-0.06,0.23-0.12,0.33-0.21   c0.05-0.04,0.08-0.09,0.13-0.14c0,0,0.01,0,0.01-0.01l0.1-0.11l1.54-1.77c0.44-0.51,1.14-0.71,1.79-0.51l3.95,1.19   c0.68,0.2,1.17,0.81,1.21,1.52L60.43,42c-2.97,2.05-6.56,3.26-10.43,3.26C46.28,45.26,42.82,44.14,39.92,42.23z M31.59,26.85   C31.59,16.7,39.85,8.45,50,8.45s18.41,8.26,18.41,18.41c0,4.93-1.96,9.41-5.13,12.71l-0.41-6.18c-0.13-1.95-1.47-3.63-3.34-4.19   L55.58,28c-1.77-0.53-3.7,0.02-4.91,1.41l-0.5,0.57l-0.5-0.57c-1.21-1.39-3.14-1.95-4.91-1.42l-3.94,1.19   c-1.87,0.56-3.21,2.25-3.33,4.19l-0.43,6.54C33.69,36.59,31.59,31.96,31.59,26.85z M41.11,46.3c2.71,1.24,5.71,1.96,8.89,1.96   s6.18-0.71,8.89-1.96l4.68,8.6c-5.54,3.55-9.32,9.58-9.81,16.51h-7.53c-0.48-6.93-4.27-12.96-9.81-16.51L41.11,46.3z M24.91,91.32   c-3.72,0-7.18-1.12-10.08-3.02l0.57-8.65c0.05-0.7,0.53-1.31,1.21-1.52l3.94-1.19c0.64-0.19,1.34,0.01,1.78,0.51l1.54,1.77   l0.1,0.11c0,0,0.01,0,0.01,0.01c0.04,0.05,0.08,0.1,0.12,0.14c0.1,0.09,0.22,0.16,0.33,0.21c0.01,0,0.01,0.01,0.02,0.01   c0.08,0.04,0.16,0.07,0.24,0.09c0.02,0.01,0.04,0.01,0.07,0.01c0.07,0.02,0.13,0.03,0.2,0.03c0.04,0,0.09,0,0.13,0   c0.05,0,0.09,0,0.14,0c0.07-0.01,0.13-0.02,0.2-0.03c0.02-0.01,0.05-0.01,0.07-0.02c0.08-0.02,0.16-0.05,0.24-0.09   c0.01,0,0.01-0.01,0.02-0.01c0.12-0.06,0.23-0.12,0.33-0.21c0.05-0.04,0.08-0.09,0.13-0.14c0,0,0.01,0,0.01-0.01l0.1-0.11   l1.54-1.77c0.44-0.51,1.14-0.71,1.78-0.51l3.95,1.19c0.68,0.2,1.17,0.81,1.21,1.52l0.56,8.42C32.37,90.11,28.78,91.32,24.91,91.32z    M38.18,85.63l-0.41-6.18c-0.13-1.94-1.47-3.63-3.34-4.19l-3.95-1.19c-1.77-0.53-3.7,0.02-4.91,1.42l-0.5,0.57l-0.5-0.57   c-1.21-1.39-3.13-1.95-4.91-1.42l-3.94,1.19c-1.87,0.56-3.21,2.25-3.33,4.19l-0.43,6.54C8.6,82.65,6.5,78.02,6.5,72.91   c0-10.15,8.26-18.41,18.41-18.41s18.41,8.26,18.41,18.41C43.31,77.84,41.35,82.32,38.18,85.63z M75.09,91.32   c-3.72,0-7.18-1.12-10.08-3.03l0.57-8.65c0.05-0.7,0.53-1.31,1.21-1.52l3.94-1.19c0.64-0.19,1.34,0.01,1.78,0.51l1.54,1.77   l0.1,0.11c0,0,0.01,0,0.01,0.01c0.04,0.05,0.08,0.1,0.12,0.14c0.1,0.09,0.21,0.16,0.33,0.21c0.01,0,0.02,0.01,0.03,0.01   c0.08,0.04,0.15,0.06,0.23,0.09c0.02,0.01,0.05,0.01,0.07,0.02c0.06,0.01,0.13,0.03,0.19,0.03c0.05,0,0.09,0,0.14,0   c0.04,0,0.09,0,0.13,0c0.07-0.01,0.13-0.02,0.2-0.03c0.02-0.01,0.05-0.01,0.07-0.02c0.08-0.02,0.16-0.05,0.24-0.09   c0.01,0,0.01-0.01,0.02-0.01c0.12-0.06,0.23-0.12,0.33-0.21c0.05-0.04,0.08-0.09,0.13-0.14c0,0,0.01,0,0.01-0.01l0.1-0.11   l1.54-1.77c0.44-0.51,1.14-0.71,1.78-0.51l3.95,1.19c0.68,0.2,1.17,0.81,1.21,1.52l0.56,8.42C82.56,90.11,78.97,91.32,75.09,91.32z    M88.37,85.63l-0.41-6.18c-0.13-1.94-1.47-3.63-3.34-4.19l-3.95-1.19c-1.77-0.53-3.7,0.02-4.91,1.42l-0.5,0.57l-0.5-0.57   c-1.21-1.39-3.13-1.95-4.91-1.42l-3.94,1.19c-1.87,0.56-3.21,2.25-3.33,4.19l-0.43,6.54c-3.37-3.34-5.47-7.97-5.47-13.07   c0-10.15,8.26-18.41,18.41-18.41S93.5,62.76,93.5,72.91C93.5,77.84,91.54,82.32,88.37,85.63z"/></g></svg>