<svg xmlns="http://www.w3.org/2000/svg" xmlns:xlink="http://www.w3.org/1999/xlink" version="1.1" x="0px" y="0px" viewBox="0 0 100 125" enable-background="new 0 0 100 100" xml:space="preserve"><path d="M85.677,31.593c-0.729-10.707-8.096-20.571-18.775-25.137c-4.263-1.824-8.607-2.566-12.707-2.263  c-5.697-2.978-14.698-3.643-21.612,0.434c-5.72,3.38-11.91,10.951-10.417,27.902c-4.53,0.946-7.946,4.969-7.946,9.779  c0,5.512,4.484,9.992,9.996,9.992c5.507,0,9.992-4.48,9.992-9.992c0-4.973-3.652-9.109-8.417-9.865  c-1.403-15.241,3.797-21.843,8.634-24.698c4.131-2.439,8.978-2.765,13.032-2.014c-2.091,0.837-4.05,1.996-5.824,3.471  c-9.575,7.982-9.575,15.983-8.725,20.042c1.285,6.104,5.982,11.168,11.974,12.892c5.475,1.584,10.974,0.05,15.087-4.204l0.059-0.063  c4.285-4.878,6.254-10.507,5.693-16.277c-0.484-4.973-2.851-9.788-6.625-13.621c2.109,0.299,4.254,0.901,6.38,1.81  c9.439,4.036,15.951,12.693,16.585,22.056c0.67,9.82-2.009,16.992-7.964,21.304l2.127,2.932  C83.152,51.052,86.419,42.585,85.677,31.593z M26.053,34.802c3.38,0.824,5.892,3.869,5.892,7.507c0,4.267-3.462,7.729-7.729,7.729  c-4.272,0-7.734-3.462-7.734-7.729c0-3.647,2.521-6.697,5.919-7.512c0.579-0.145,1.19-0.217,1.815-0.217  C24.85,34.58,25.465,34.657,26.053,34.802z M62.119,21.941c0.462,4.738-1.195,9.408-4.783,13.508  c-4.303,4.426-9.023,3.914-11.453,3.213c-4.643-1.339-8.435-5.426-9.43-10.159C35.271,22.864,37.932,17,43.95,11.986  c2.706-2.258,5.955-3.62,9.462-4.068c0.281,0.176,0.538,0.353,0.778,0.538C58.734,11.95,61.621,16.864,62.119,21.941z"/><path fill="#000000" d="M29.262,42.309c0,2.788-2.263,5.046-5.046,5.046c-2.788,0-5.05-2.258-5.05-5.046  c0-2.787,2.263-5.046,5.05-5.046C26.999,37.263,29.262,39.522,29.262,42.309z"/><path d="M29.262,42.309c0,2.788-2.263,5.046-5.046,5.046c-2.788,0-5.05-2.258-5.05-5.046c0-2.787,2.263-5.046,5.05-5.046  C26.999,37.263,29.262,39.522,29.262,42.309z"/><path d="M71.54,59.934c3.471,6.566,4.222,18.589-5.086,24.617c-4.109,2.656-10.779,6.304-15.653,8.969  c-1.941,1.063-3.62,1.982-4.797,2.647c-1.729,0.982-3.96,2.068-6.29,2.068c-0.272,0-0.548-0.018-0.824-0.05  c-2.774-0.317-5.118-2.199-7.154-5.747c-0.873,0.113-1.801-0.19-2.308-0.819l-0.919-1.14c-0.674-0.833-0.371-1.932,0.67-2.444  l2.525-1.244c1.045-0.511,2.1-0.081,2.353,0.959l0.344,1.421c0.176,0.742-0.1,1.602-0.652,2.217  c1.638,2.833,3.407,4.322,5.399,4.552c1.977,0.226,4.104-0.81,5.738-1.742c1.19-0.674,2.878-1.597,4.828-2.665  c4.842-2.643,11.471-6.272,15.508-8.883c8.295-5.367,7.358-16.318,4.113-22.024l-1.222-2.154  c-2.742-4.824-11.521-13.037-21.187-7.652c-4.227,2.349-10.688,6.046-15.413,8.743c-1.91,1.091-3.575,2.041-4.76,2.715  c-1.634,0.932-3.616,2.231-4.435,4.041c-0.828,1.842-0.443,4.14,1.177,7.023c0.815-0.104,1.67,0.149,2.177,0.71l0.982,1.086  c0.72,0.796,0.48,1.91-0.534,2.484l-2.448,1.385c-1.009,0.57-2.091,0.199-2.398-0.824l-0.425-1.403  c-0.24-0.783,0.041-1.733,0.643-2.389c-1.968-3.53-2.371-6.471-1.235-9.001c1.086-2.407,3.444-3.978,5.38-5.077  c1.186-0.674,2.846-1.625,4.756-2.715c4.729-2.702,11.2-6.399,15.435-8.756c9.2-5.122,18.368,0.299,22.952,6.521  c0.023-0.014,0.045-0.027,0.068-0.041l1.638-0.959c0.738-0.484,1.769-0.294,2.285,0.425l1.258,1.738  c0.516,0.715,0.335,1.697-0.407,2.181L71.54,59.934z"/></svg>