<svg width="360" height="360" viewBox="0 0 360 360" fill="none" xmlns="http://www.w3.org/2000/svg">
<path d="M179.993 122.274C171.997 122.274 165.485 128.785 165.485 136.782C165.485 144.778 171.997 151.289 179.993 151.289C187.989 151.289 194.501 144.778 194.501 136.782C194.501 128.785 187.989 122.274 179.993 122.274Z" fill="#2B94F5"/>
<path d="M173.906 212.186C173.847 208.717 173.671 205.19 173.377 201.721C172.451 190.359 170.334 179.129 167.086 168.34C166.895 167.722 166.704 167.105 166.513 166.488L166.41 166.15C158.678 141.75 144.92 119.187 126.62 100.887C108.541 82.8076 87.2127 69.6228 63.2537 61.7002C62.6216 61.4944 61.9749 61.2886 61.3428 61.0975L60.8725 60.9505C53.773 58.731 46.4383 56.9818 39.0889 55.7618C37.9277 55.5708 36.7665 55.3944 35.5759 55.218C31.96 54.777 29.7993 55.071 27.6385 55.659C26.7566 55.9088 25.8894 56.2175 25.0809 56.5703C21.1417 58.2753 17.8344 61.2004 15.6443 64.8898L14.7624 66.5361C14.6889 66.683 14.6301 66.8153 14.5713 66.9329C11.4699 73.5327 10 78.5303 10 89.0546C10 100.064 11.0289 111.132 13.0573 121.936L13.1308 122.289C13.2484 122.935 13.3807 123.597 13.513 124.243C16.0412 136.767 19.9217 148.996 25.0809 160.608L26.8154 164.048C27.0065 164.459 27.2123 164.856 27.4328 165.253C27.8737 166.047 28.3735 166.811 28.9026 167.531C30.1814 169.266 31.7248 170.765 33.4886 172.029C33.7679 172.279 34.0766 172.455 34.3706 172.617C34.9879 173.014 35.62 173.367 36.2667 173.69L36.8253 173.969C49.0841 179.834 60.5491 183.45 73.8662 185.537C66.5609 189.08 60.211 194.46 55.478 201.221C54.993 201.912 54.5226 202.617 54.0963 203.308C49.378 210.863 46.8939 219.565 46.8939 228.473C46.8939 232.044 47.3055 235.66 48.1286 239.188C49.0106 243.039 50.3922 246.772 52.2002 250.285C52.891 251.608 53.6701 252.975 54.5226 254.284L54.5667 254.357C56.9332 258.414 62.4011 264.705 71.7643 274.142L71.9406 274.318C72.0288 274.406 72.117 274.494 72.2052 274.583L77.6879 280.08L77.6291 279.757C87.0657 288.326 97.6635 295.852 109.158 302.143C112.289 303.995 115.875 304.965 119.506 304.965C119.668 304.965 119.829 304.965 119.991 304.95H120.123C120.741 304.936 121.373 304.891 121.975 304.818C125.738 304.362 129.295 302.863 132.264 300.482C145.64 290.457 155.15 278.713 163.073 262.412C163.426 261.692 163.764 260.971 164.102 260.237C165.219 257.797 166.263 255.283 167.189 252.784C171.657 240.731 173.935 228.061 173.935 215.126C173.935 214.171 173.921 213.186 173.906 212.186ZM57.918 247.287C57.3742 246.258 57.1243 245.523 56.8744 244.803C56.8009 244.582 56.7274 244.362 56.6392 244.141L56.551 243.892C54.552 238.967 53.5378 233.793 53.5378 228.487C53.5378 221.035 55.5662 213.744 59.4026 207.38C59.7995 206.718 60.211 206.086 60.6226 205.469C68.2954 194.21 80.9657 187.478 94.5474 187.478C117.154 187.478 135.557 205.88 135.557 228.487C135.557 236.366 133.293 244.024 129.016 250.653C128.604 251.285 128.178 251.917 127.737 252.52C123.783 257.973 118.506 262.412 112.495 265.352C111.627 265.675 110.76 266.057 109.937 266.484C105.028 268.483 99.8389 269.497 94.518 269.497C84.17 269.497 74.2925 265.616 66.6785 258.561L66.2522 258.105C61.4016 253.108 59.3144 249.962 58.4913 248.507L58.5207 248.478L57.918 247.287ZM65.7525 155.39C65.7525 144.116 56.5804 134.944 45.3065 134.944C40.7792 134.944 36.4872 136.429 32.9889 139.075C34.0178 131.681 35.5759 124.361 37.6484 117.203C46.6735 114.645 56.0219 113.337 65.4438 113.337C103.822 113.337 138.262 134.386 155.885 168.428C137.644 176.645 118.183 180.819 98.0457 180.819C83.0088 180.819 68.266 178.467 54.111 173.822C61.0048 170.501 65.7525 163.416 65.7525 155.39ZM123.592 123.611C106.218 112.529 86.1103 106.678 65.4438 106.678C56.8597 106.678 48.3344 107.693 40.0443 109.692C42.7783 101.798 46.1737 94.111 50.1424 86.791C50.2894 86.5852 50.4069 86.3647 50.5392 86.1442L50.7009 85.8796C51.3624 84.7037 53.3761 81.1319 53.6407 75.9286L53.6554 75.5758C53.6554 75.5023 53.6554 75.4141 53.6554 75.3406C53.6554 71.71 52.6852 68.1823 50.9067 65.1103C53.3173 65.7276 55.7132 66.4038 58.065 67.1387L60.3727 67.8883C102.397 81.6317 136.468 112.764 154.136 152.774C145.978 141.191 135.63 131.284 123.592 123.611ZM46.1443 80.0589C45.3653 81.4259 44.6744 82.6606 44.0424 83.8218C41.3966 87.1878 37.4573 89.1134 33.2094 89.1134C25.6101 89.1134 19.4219 82.9252 19.4219 75.3259C19.4219 67.9324 25.4337 61.7589 32.8272 61.5532C35.032 61.5238 37.0311 62.0529 37.6043 62.2734C43.2192 64.1695 46.9821 69.417 46.9821 75.3259C46.9821 76.9428 46.7028 78.5303 46.1443 80.0589ZM33.2094 95.7719C35.032 95.7719 36.8253 95.5367 38.5597 95.0664C36.1344 100.564 34.0031 106.193 32.2246 111.882C27.7267 113.337 23.2877 115.101 18.9957 117.129C17.4523 107.869 16.6585 98.4471 16.6585 89.0546C16.6585 88.496 16.6585 87.9375 16.6732 87.3789C20.4214 92.5088 26.4626 95.7719 33.2094 95.7719ZM31.6807 153.288L31.7542 153.009C32.9154 146.395 38.6185 141.603 45.3212 141.603C52.9204 141.603 59.1086 147.791 59.1086 155.39C59.1086 162.989 52.9204 169.178 45.3212 169.178C38.1629 169.178 32.1364 163.592 31.5925 156.463L31.5631 155.552C31.5043 154.17 31.5043 154.111 31.6807 153.288ZM101.088 275.714C99.7654 278.448 99.0746 281.476 99.0746 284.548C99.0746 285.871 99.2069 287.179 99.4568 288.458C93.2098 284.21 87.2862 279.492 81.7153 274.377C87.977 276.155 94.6356 276.611 101.088 275.714ZM112.818 272.525C113.656 272.172 114.405 271.834 115.096 271.511C116.522 271.025 118.007 270.776 119.521 270.776C127.12 270.776 133.308 276.964 133.308 284.563C133.308 292.162 127.12 298.351 119.521 298.351C111.921 298.351 105.748 292.162 105.748 284.563C105.733 279.565 108.452 274.965 112.818 272.525ZM125.253 264.94C128.399 262.294 131.177 259.252 133.573 255.856C134.072 255.151 134.528 254.445 134.969 253.769C139.731 246.185 142.245 237.453 142.245 228.502C142.245 210.716 132.103 194.46 116.728 186.316C131.28 184.479 145.39 180.51 158.781 174.454C164.073 186.507 166.909 199.31 167.248 212.554C167.262 213.421 167.277 214.303 167.277 215.185C167.277 216.067 167.262 216.934 167.248 217.816C166.895 231.853 163.705 245.405 157.782 258.091C157.458 258.781 157.135 259.472 156.797 260.148C152.387 269.071 146.743 277.228 139.981 284.504C139.922 275.273 133.705 267.424 125.253 264.94ZM29.9903 119.716C27.9619 127.58 26.5361 135.606 25.6983 143.719C23.4935 137.237 21.6708 130.608 20.2744 123.92C23.4347 122.362 26.6831 120.951 29.9903 119.716Z" fill="#2B94F5"/>
<path d="M258.098 281.124C259.538 284.019 260.288 287.194 260.288 290.457C260.288 291.854 260.155 293.235 259.876 294.588C266.667 290.09 273.135 285.122 279.19 279.727C272.37 281.594 265.124 282.064 258.098 281.124Z" fill="#2B94F5"/>
<path d="M222.749 260.148C222.205 259.399 221.705 258.664 221.235 257.944C216.061 249.933 213.312 240.717 213.312 231.265C213.312 212.48 224.351 195.312 241.093 186.728C225.247 184.788 209.902 180.599 195.306 174.205C189.559 186.934 186.457 200.457 186.09 214.42C186.061 215.347 186.061 216.273 186.061 217.199C186.061 218.125 186.075 219.051 186.09 219.977C186.472 234.793 189.941 249.095 196.394 262.5C196.747 263.235 197.099 263.955 197.467 264.676C202.273 274.098 208.403 282.711 215.781 290.384C215.826 280.653 222.587 272.378 231.803 269.747C228.378 266.954 225.35 263.735 222.749 260.148Z" fill="#2B94F5"/>
<path d="M233.611 120.525C252.528 108.824 274.415 102.651 296.904 102.651C306.252 102.651 315.527 103.724 324.552 105.826C321.568 97.4917 317.879 89.378 313.558 81.6464C313.411 81.4259 313.264 81.1908 313.117 80.9703L312.94 80.691C312.22 79.4563 310.03 75.6787 309.751 70.1961L309.736 69.8139C309.736 69.7257 309.736 69.6522 309.736 69.564C309.736 65.7277 310.794 62.0089 312.734 58.7604C310.103 59.4219 307.502 60.1274 304.944 60.8918L302.431 61.6708C256.688 76.1638 219.603 109.045 200.362 151.289C209.226 139.089 220.5 128.624 233.611 120.525Z" fill="#2B94F5"/>
<path d="M331.994 91.1418C330.009 91.1418 328.054 90.8919 326.173 90.3922C328.819 96.1982 331.126 102.151 333.067 108.148C337.961 109.677 342.797 111.544 347.457 113.69C349.147 103.915 350 93.964 350 84.0423C350 83.4544 350 82.8517 349.985 82.2638C345.913 87.7023 339.328 91.1418 331.994 91.1418Z" fill="#2B94F5"/>
<path d="M296.568 154.082C296.568 142.176 306.549 132.489 318.822 132.489C323.747 132.489 328.421 134.048 332.228 136.84C331.111 129.035 329.42 121.304 327.157 113.749C317.338 111.044 307.166 109.662 296.907 109.662C255.133 109.662 217.636 131.887 198.454 167.825C218.312 176.512 239.493 180.907 261.424 180.907C277.783 180.907 293.849 178.423 309.254 173.528C301.728 170.045 296.568 162.563 296.568 154.082Z" fill="#2B94F5"/>
<path d="M340.148 141.764C342.558 134.915 344.528 127.918 346.057 120.863C342.617 119.202 339.075 117.717 335.474 116.424C337.693 124.714 339.251 133.195 340.148 141.764Z" fill="#2B94F5"/>
<path d="M332.229 84.0864C340.258 84.0864 346.767 77.5779 346.767 69.5493C346.767 61.5207 340.258 55.0122 332.229 55.0122C324.201 55.0122 317.692 61.5207 317.692 69.5493C317.692 77.5779 324.201 84.0864 332.229 84.0864Z" fill="#2B94F5"/>
<path d="M318.819 168.619C326.848 168.619 333.356 162.111 333.356 154.082C333.356 146.053 326.848 139.545 318.819 139.545C310.791 139.545 304.282 146.053 304.282 154.082C304.282 162.111 310.791 168.619 318.819 168.619Z" fill="#2B94F5"/>
<path d="M238.035 304.994C246.064 304.994 252.572 298.486 252.572 290.457C252.572 282.429 246.064 275.92 238.035 275.92C230.007 275.92 223.498 282.429 223.498 290.457C223.498 298.486 230.007 304.994 238.035 304.994Z" fill="#2B94F5"/>
<path d="M265.333 274.568C289.248 274.568 308.635 255.181 308.635 231.265C308.635 207.35 289.248 187.963 265.333 187.963C241.418 187.963 222.03 207.35 222.03 231.265C222.03 255.181 241.418 274.568 265.333 274.568Z" fill="#2B94F5"/>
</svg>
