<svg width="100" height="100" viewBox="0 0 100 100" fill="none" xmlns="http://www.w3.org/2000/svg">
<path fill-rule="evenodd" clip-rule="evenodd" d="M10.0002 7.89839L54.9024 0V10.1386L89.6414 4.02805V45.0099C78.0617 47.0468 66.4821 49.0837 54.9024 51.1207V61.2589L89.6414 55.1483V56.5393L79.4779 58.327V67.2894L65.0655 69.8246V60.8621L54.9024 62.6498C54.9024 72.4674 54.9024 82.2846 54.9024 92.1022L32.4518 96.051V66.5987L22.2883 68.3863V97.8385L10 100V69.1565L44.7392 63.0462V52.9078C33.1595 54.9447 21.5798 56.9814 10 59.0183V48.8799C21.5798 46.843 33.1595 44.8061 44.7392 42.7692L44.739 32.6306V22.2793L34.5757 24.067L34.5755 34.4183L20.1631 36.9535L20.1633 17.6397L10 19.4274V18.0364L44.7392 11.9257V1.78731L10.0002 7.89839ZM89.641 85.9916L65.0651 90.3145V79.9628L79.4776 77.4276V87.7793L89.641 85.9916ZM65.0651 18.7045L77.3534 16.543V26.6813L65.0651 28.8427L65.0655 39.1944L54.9021 40.9821V11.5297L65.0655 9.74206L65.0651 18.7045Z" fill="white"/>
</svg>
