<svg width="16" height="17" viewBox="0 0 16 17" fill="none"
  xmlns="http://www.w3.org/2000/svg">
  <path fill-rule="evenodd" clip-rule="evenodd" d="M8.38989 14.5637C11.7612 14.5637 14.4941 11.8308 14.4941 8.45947C14.4941 5.08819 11.7612 2.35522 8.38989 2.35522C5.01861 2.35522 2.28564 5.08819 2.28564 8.45947C2.28564 11.8308 5.01861 14.5637 8.38989 14.5637ZM8.38989 16.0637C12.5896 16.0637 15.9941 12.6592 15.9941 8.45947C15.9941 4.25976 12.5896 0.855225 8.38989 0.855225C4.19018 0.855225 0.785645 4.25976 0.785645 8.45947C0.785645 12.6592 4.19018 16.0637 8.38989 16.0637Z" fill="#00D2FF"/>
  <path d="M11.9597 4.74951H10.9336L8.95206 6.79787C8.83289 6.76518 8.71005 6.74216 8.58097 6.74216C7.77957 6.74216 7.12988 7.4137 7.12988 8.24216C7.12988 9.07057 7.77957 9.74216 8.58097 9.74216C9.38236 9.74216 10.032 9.07057 10.032 8.24216C10.032 8.10867 10.0098 7.98169 9.97815 7.85851L11.9597 5.81015V4.74951Z" fill="#00D2FF"/>
</svg>
