<svg width="50" height="51" viewBox="0 0 50 51" fill="none" xmlns="http://www.w3.org/2000/svg">
<path d="M25 6.75C17.0105 6.75 10.3394 11.6877 7.61719 18.6641L10.498 19.8359C12.7747 14.001 18.2983 9.875 25 9.875C30.0659 9.875 34.5825 12.3591 37.4023 16.125H31.25V19.25H42.1875V8.3125H39.0625V13.1465C35.6384 9.22192 30.5786 6.75 25 6.75ZM39.502 31.1641C37.2253 36.999 31.7017 41.125 25 41.125C19.8792 41.125 15.3809 38.6042 12.5488 34.875H18.75V31.75H7.8125V42.6875H10.9375V37.8535C14.3555 41.7292 19.3665 44.25 25 44.25C32.9895 44.25 39.6606 39.3123 42.3828 32.3359L39.502 31.1641Z" fill="white"/>
</svg>
