<svg width="25" height="25" viewBox="0 0 25 25" fill="none" xmlns="http://www.w3.org/2000/svg">
<path d="M12.731 2.58594C7.35498 2.58594 2.98096 6.95996 2.98096 12.3359C2.98096 17.7119 7.35498 22.0859 12.731 22.0859C18.1069 22.0859 22.481 17.7119 22.481 12.3359C22.481 6.95996 18.1069 2.58594 12.731 2.58594ZM12.731 4.08594C17.2954 4.08594 20.981 7.77148 20.981 12.3359C20.981 16.9004 17.2954 20.5859 12.731 20.5859C8.1665 20.5859 4.48096 16.9004 4.48096 12.3359C4.48096 7.77148 8.1665 4.08594 12.731 4.08594ZM11.981 7.83594V11.5859H8.23096V13.0859H11.981V16.8359H13.481V13.0859H17.231V11.5859H13.481V7.83594H11.981Z" fill="#ffffff"/>
</svg>
