<svg width="20" height="20" viewBox="0 0 20 20" fill="none" xmlns="http://www.w3.org/2000/svg">
<path d="M10 1.875C5.50049 1.875 1.875 5.50049 1.875 10C1.875 14.4995 5.50049 18.125 10 18.125C14.4995 18.125 18.125 14.4995 18.125 10C18.125 9.12598 18.0078 8.25439 17.6953 7.44141L16.6797 8.4375C16.8042 8.93799 16.875 9.43848 16.875 10C16.875 13.8135 13.8135 16.875 10 16.875C6.18652 16.875 3.125 13.8135 3.125 10C3.125 6.18652 6.18652 3.125 10 3.125C11.875 3.125 13.5596 3.87207 14.7461 5.05859L15.625 4.17969C14.187 2.7417 12.1875 1.875 10 1.875ZM17.0508 4.55078L10 11.6016L7.32422 8.92578L6.42578 9.82422L9.55078 12.9492L10 13.3789L10.4492 12.9492L17.9492 5.44922L17.0508 4.55078Z" fill="white"/>
</svg>
