<svg width="17" height="18" viewBox="0 0 17 18" fill="none" xmlns="http://www.w3.org/2000/svg">
<path d="M8.25 0.75C3.7011 0.75 0 4.4511 0 9C0 13.5489 3.7011 17.25 8.25 17.25C12.7989 17.25 16.5 13.5489 16.5 9C16.5 4.4511 12.7989 0.75 8.25 0.75ZM8.25 2.01923C12.1122 2.01923 15.2308 5.13777 15.2308 9C15.2308 12.8622 12.1122 15.9808 8.25 15.9808C4.38777 15.9808 1.26923 12.8622 1.26923 9C1.26923 5.13777 4.38777 2.01923 8.25 2.01923Z" fill="white"/>
<path d="M8.10394 6.04741L8.10394 6.04742L8.10514 6.04732C8.13251 6.04519 8.1545 6.04582 8.1832 6.04664C8.20171 6.04717 8.223 6.04778 8.25032 6.04778H8.25045H8.25058H8.25071H8.25084H8.25097H8.25111H8.25124H8.25137H8.2515H8.25163H8.25176H8.25189H8.25202H8.25216H8.25229H8.25242H8.25255H8.25268H8.25281H8.25294H8.25307H8.25321H8.25334H8.25347H8.2536H8.25373H8.25386H8.25399H8.25412H8.25426H8.25439H8.25452H8.25465H8.25478H8.25491H8.25504H8.25517H8.25531H8.25544H8.25557H8.2557H8.25583H8.25596H8.25609H8.25622H8.25636H8.25649H8.25662H8.25675H8.25688H8.25701H8.25714H8.25728H8.25741H8.25754H8.25767H8.2578H8.25793H8.25806H8.25819H8.25833H8.25846H8.25859H8.25872H8.25885H8.25898H8.25911H8.25924H8.25938H8.25951H8.25964H8.25977H8.2599H8.26003H8.26016H8.26029H8.26043H8.26056H8.26069H8.26082H8.26095H8.26108H8.26121H8.26134H8.26148H8.26161H8.26174H8.26187H8.262H8.26213H8.26226H8.26239H8.26253H8.26266H8.26279H8.26292H8.26305H8.26318H8.26331H8.26345H8.26358H8.26371H8.26384H8.26397H8.2641H8.26423H8.26436H8.2645H8.26463H8.26476H8.26489H8.26502H8.26515H8.26528H8.26541H8.26555H8.26568H8.26581H8.26594H8.26607H8.2662H8.26633H8.26646H8.2666H8.26673H8.26686H8.26699H8.26712H8.26725H8.26738H8.26751H8.26765H8.26778H8.26791H8.26804H8.26817H8.2683H8.26843H8.26857H8.2687H8.26883H8.26896H8.26909H8.26922H8.26935H8.26948H8.26962H8.26975H8.26988H8.27001H8.27014H8.27027H8.2704H8.27053H8.27067H8.2708H8.27093H8.27106H8.27119H8.27132H8.27145H8.27158H8.27172H8.27185H8.27198H8.27211H8.27224H8.27237H8.2725H8.27263H8.27277H8.2729H8.27303H8.27316H8.27329H8.27342H8.27355H8.27368H8.27382H8.27395H8.27408H8.27421H8.27434H8.27447H8.2746H8.27474H8.27487H8.275H8.27513H8.27526H8.27539H8.27552H8.27565H8.27579H8.27592H8.27605H8.27618H8.27631H8.27644H8.27657H8.2767H8.27684H8.27697H8.2771H8.27723H8.27736H8.27749H8.27762H8.27775H8.27789H8.27802H8.27815H8.27828H8.27841H8.27854H8.27867H8.2788H8.27894H8.27907H8.2792H8.27933H8.27946H8.27959H8.27972H8.27986H8.27999H8.28012H8.28025H8.28038H8.28051H8.28064H8.28077H8.28091H8.28104H8.28117H8.2813H8.28143H8.28156H8.28169H8.28182H8.28196H8.28209H8.28222H8.28235H8.28248H8.28261H8.28274H8.28287H8.28301H8.28314H8.28327H8.2834H8.28353H8.28366H8.28379H8.28392H8.28406H8.28419H8.28432H8.28445H8.28458H8.28471H8.28484H8.28497H8.28511H8.28524H8.28537H8.2855H8.28563H8.28576H8.28589H8.28603H8.28616H8.28629H8.28642H8.28655H8.28668H8.28681H8.28694H8.28708H8.28721H8.28734H8.28747H8.2876H8.28773H8.28786H8.28799H8.28813H8.28826H8.28839H8.28852H8.28865H8.28878H8.28891H8.28904H8.28918H8.28931H8.28944H8.28957H8.2897H8.28983H8.28996H8.29009H8.29023H8.29036H8.29049H8.29062H8.29075H8.29088H8.29101H8.29115H8.29128H8.29141H8.29154H8.29167H8.2918H8.29193H8.29206H8.2922H8.29233H8.29246H8.29259H8.29272H8.29285H8.29298H8.29311H8.29325H8.29338H8.29351H8.29364H8.29377H8.2939H8.29403H8.29416H8.2943H8.29443H8.29456H8.29469H8.29482H8.29495H8.29508H8.29521H8.29535H8.29548H8.29561H8.29574H8.29587H8.296H8.29613H8.29626H8.2964H8.29653H8.29666H8.29679H8.29692H8.29705H8.29718H8.29732H8.29745H8.29758H8.29771H8.29784H8.29797H8.2981H8.29823H8.29837H8.2985H8.29863H8.29876H8.29889H8.29902H8.29915H8.29928H8.29942H8.29955H8.29968H8.29981H8.29994H8.30007H8.3002H8.30033H8.30047H8.3006H8.30073H8.30086H8.30099H8.30112H8.30125H8.30138H8.30152H8.30165H8.30178H8.30191H8.30204H8.30217H8.3023H8.30243H8.30257H8.3027H8.30283H8.30296H8.30309H8.30322H8.30335H8.30349H8.30362H8.30375H8.30388H8.30401H8.30414H8.30427H8.3044H8.30454H8.30467H8.3048H8.30493H8.30506H8.30519H8.30532H8.30545H8.30559H8.30572H8.30585H8.30598H8.30611H8.30624H8.30637H8.3065H8.30664H8.30677H8.3069H8.30703H8.30716H8.30729H8.30742H8.30755H8.30769H8.30782H8.30795H8.30808H8.30821H8.30834H8.30847H8.30861H8.30874H8.30887H8.309H8.30913H8.30926H8.30939H8.30952H8.30966H8.30979H8.30992H8.31005H8.31018H8.31031H8.31044H8.31057H8.31071H8.31084H8.31097H8.3111H8.31123H8.31136H8.31149H8.31162H8.31176H8.31189H8.31202H8.31215H8.31228H8.31241H8.31254H8.31267H8.31281H8.31294H8.31307H8.3132H8.31333H8.31346H8.31359H8.31372H8.31386H8.31399H8.31412H8.31425H8.31438H8.31451H8.31464H8.31478H8.31491H8.31504H8.31517H8.3153H8.31534C9.40084 6.08015 10.2512 6.99719 10.2512 8.06287V11.0681C10.2512 11.1355 10.2581 11.2004 10.2702 11.2628H6.23046C6.24249 11.2004 6.24944 11.1355 6.24944 11.0681V7.96593C6.24944 6.95518 7.05986 6.12038 8.10394 6.04741ZM8.25032 4.36901C7.78556 4.36901 7.39797 4.72543 7.38376 5.1824C6.14614 5.54205 5.23249 6.65054 5.23249 7.96593V11.0681C5.23249 11.1751 5.14981 11.2628 5.02401 11.2628H5.01022C4.73701 11.2628 4.51553 11.4843 4.51553 11.7575C4.51553 12.0307 4.73701 12.2522 5.01022 12.2522H7.04387C7.03183 12.3147 7.02488 12.3796 7.02488 12.4469C7.02488 13.1021 7.58354 13.631 8.25032 13.631C8.91709 13.631 9.47575 13.1021 9.47575 12.4469C9.47575 12.3796 9.4688 12.3147 9.45677 12.2522H11.4904C11.7636 12.2522 11.9851 12.0307 11.9851 11.7575C11.9851 11.4843 11.7636 11.2628 11.4904 11.2628H11.4766C11.3508 11.2628 11.2681 11.1751 11.2681 11.0681V8.06287C11.2681 6.74158 10.3795 5.56021 9.1169 5.18327C9.10316 4.72588 8.71537 4.36901 8.25032 4.36901Z" fill="white" stroke="white" stroke-width="0.3"/>
</svg>
