<svg width="50" height="50" viewBox="0 0 50 50" fill="none" xmlns="http://www.w3.org/2000/svg">
  <path
    d="M19.2123 6.24805C17.0494 6.24805 15.2554 7.73098 14.7418 9.73474C14.684 9.73474 14.6406 9.72027 14.5827 9.72027C12.0292 9.72027 9.95305 11.7964 9.95305 14.3499C9.95305 14.6971 9.99645 15.0371 10.076 15.3626C7.96376 16.2307 6.48083 18.2996 6.48083 20.7156C6.48083 21.6271 6.71231 22.4735 7.08124 23.2402C5.34512 24.2385 4.16602 26.0903 4.16602 28.2388C4.16602 30.6476 5.64171 32.7165 7.73951 33.5846C7.67441 33.9173 7.63824 34.2573 7.63824 34.6045C7.63824 37.4836 9.96752 39.8129 12.8466 39.8129C13.1432 39.8129 13.4325 39.7767 13.7146 39.7261C14.4091 41.7877 16.3333 43.2851 18.6336 43.2851C21.5127 43.2851 23.8419 40.9558 23.8419 38.0768V10.8777C23.8419 8.32415 21.7658 6.24805 19.2123 6.24805ZM45.8327 28.2388C45.8327 26.0903 44.6536 24.2385 42.9175 23.2402C43.2936 22.4735 43.5179 21.6271 43.5179 20.7156C43.5179 18.2996 42.0349 16.2307 39.9227 15.3626C39.995 15.0371 40.0456 14.6971 40.0456 14.3499C40.0456 11.7964 37.9695 9.72027 35.416 9.72027C35.3581 9.72027 35.3075 9.73474 35.2569 9.73474C34.7433 7.73098 32.9493 6.24805 30.7864 6.24805C28.2329 6.24805 26.1568 8.31691 26.1568 10.8777V38.0768C26.1568 40.9558 28.486 43.2851 31.3651 43.2851C33.6654 43.2851 35.5896 41.7877 36.2841 39.7261C36.5662 39.7767 36.8555 39.8129 37.1521 39.8129C40.0312 39.8129 42.3605 37.4836 42.3605 34.6045C42.3605 34.2573 42.3243 33.9173 42.2592 33.5846C44.357 32.7165 45.8327 30.6476 45.8327 28.2388Z"
    fill="white" />
</svg>