<svg width="24" height="24" viewBox="0 0 24 24" fill="none"
  xmlns="http://www.w3.org/2000/svg">
  <path d="M12.5156 2.25L12.2812 2.46094L7.19531 7.5H3.75V19.5H16.3828C17.4404 19.5 18.3633 18.7529 18.5859 17.7188L20.2031 10.2188C20.499 8.83301 19.415 7.5 18 7.5H13.6875L13.8281 6.9375C13.9805 6.82031 14.0771 6.77051 14.2969 6.46875C14.6484 5.98828 15 5.24414 15 4.24219C15 3.17285 14.0332 2.25 12.8203 2.25H12.5156ZM13.0547 3.82031C13.3711 3.88184 13.5 4.01074 13.5 4.24219C13.5 4.91895 13.2949 5.33789 13.1016 5.60156C12.9082 5.86523 12.7734 5.92969 12.7734 5.92969L12.5156 6.07031L12.4219 6.375L11.9766 8.0625L11.7422 9H18C18.4951 9 18.8291 9.43066 18.7266 9.91406L17.1328 17.4141C17.0566 17.7656 16.7402 18 16.3828 18H8.25V8.55469L13.0547 3.82031ZM5.25 9H6.75V18H5.25V9Z" fill="black"/>
</svg>
