<svg width="24" height="24" viewBox="0 0 24 24" fill="none"
  xmlns="http://www.w3.org/2000/svg">
  <path d="M7.61733 4.5C6.55971 4.5 5.63686 5.24707 5.4142 6.28125L3.79701 13.7812C3.50112 15.167 4.5851 16.5 6.00014 16.5H10.3126L10.172 17.0625C10.0197 17.1797 9.92299 17.2295 9.70326 17.5312C9.3517 18.0117 9.00014 18.7559 9.00014 19.7578C9.00014 20.8271 9.96694 21.75 11.1798 21.75H11.4845L11.7189 21.5391L16.8048 16.5H20.2501V4.5H7.61733ZM7.61733 6H15.7501V15.4453L10.9455 20.1797C10.629 20.1182 10.5001 19.9893 10.5001 19.7578C10.5001 19.0811 10.7052 18.6621 10.8986 18.3984C11.0919 18.1348 11.2267 18.0703 11.2267 18.0703L11.4845 17.9297L11.5783 17.625L12.0236 15.9375L12.258 15H6.00014C5.50502 15 5.17104 14.5693 5.27358 14.0859L6.86733 6.58594C6.9435 6.23438 7.25991 6 7.61733 6ZM17.2501 6H18.7501V15H17.2501V6Z" fill="black"/>
</svg>
