<svg width="19" height="18" viewBox="0 0 19 18" fill="none" xmlns="http://www.w3.org/2000/svg">
  <path
    d="M4.35938 0.5L0.375 5.28125L0 5.72656L0.375 6.21875L8.625 16.7188L9.21094 17.4688L9.79688 16.7188L18.0469 6.21875L18.4219 5.72656L18.0469 5.28125L14.0625 0.5H4.35938ZM5.0625 2H7.80469L5.78906 5H2.55469L5.0625 2ZM10.6172 2H13.3594L15.8672 5H12.6328L10.6172 2ZM9.21094 2.63281L10.8047 5H7.61719L9.21094 2.63281ZM2.48438 6.5H5.64844L7.42969 12.8047L2.48438 6.5ZM7.19531 6.5H11.2031L9.21094 13.4844L7.19531 6.5ZM12.7734 6.5H15.9375L10.9922 12.7812L12.7734 6.5Z"
    fill="white" />
</svg>