<svg width="50" height="51" viewBox="0 0 50 51" fill="none" xmlns="http://www.w3.org/2000/svg">
<path d="M42.9688 43.4688C42.9688 46.5156 40.5469 48.9375 37.5 48.9375C34.4531 48.9375 32.0312 46.5156 32.0312 43.4688C32.0312 40.5781 34.2969 38.2344 37.1094 38L37.1875 36.4375C34.0625 36.5938 31.4844 38.7031 30.7031 41.5938L16.7188 35.9688C17.0312 35.1094 17.1875 34.1719 17.1875 33.2344C17.1875 31.3594 16.5625 29.6406 15.5469 28.2344L32.4219 17.5312C33.9844 19.1719 36.0156 20.2656 38.3594 20.6562L38.4375 19.0938C34.375 18.4688 31.25 14.9531 31.25 10.6562C31.25 5.89062 35.0781 2.0625 39.8438 2.0625C44.6094 2.0625 48.4375 5.89062 48.4375 10.6562C48.4375 15.3438 44.6875 19.1719 40 19.25L39.9219 20.8125C45.4688 20.8125 50 16.2031 50 10.6562C50 5.03125 45.4688 0.5 39.8438 0.5C34.2188 0.5 29.6875 5.03125 29.6875 10.6562C29.6875 12.7656 30.3125 14.7187 31.4062 16.3594L14.5312 27.1406C12.9688 25.6562 10.8594 24.7188 8.59375 24.7188C3.82812 24.7188 0 28.5469 0 33.3125C0 38.0781 3.82812 41.9062 8.59375 41.9062C11.7969 41.9062 14.6094 40.1094 16.0938 37.4531L30.4688 43.2344C30.4688 43.3125 30.4688 43.3906 30.4688 43.4688C30.4688 47.375 33.5938 50.5 37.5 50.5C41.4062 50.5 44.5312 47.375 44.5312 43.4688C44.5312 40.0312 42.0312 37.1406 38.75 36.5938L38.6719 38.1562C41.0938 38.625 42.9688 40.8906 42.9688 43.4688ZM8.59375 40.3438C4.6875 40.3438 1.5625 37.2188 1.5625 33.3125C1.5625 29.4062 4.6875 26.2812 8.59375 26.2812C12.5 26.2812 15.625 29.4062 15.625 33.3125C15.625 37.2188 12.5 40.3438 8.59375 40.3438Z" fill="white"/>
<path d="M39.8438 20.8125C39.2969 20.8125 38.8281 20.7344 38.3594 20.6562L37.1875 36.4375C37.2656 36.4375 37.3438 36.4375 37.5 36.4375C37.9688 36.4375 38.3594 36.5156 38.75 36.5938L39.8438 20.8125Z" fill="white"/>
<path d="M39.8438 19.25C39.375 19.25 38.9063 19.1719 38.4375 19.0938L38.3594 20.6562C38.8281 20.7344 39.375 20.8125 39.8438 20.8125C39.8438 20.8125 39.8438 20.8125 39.9219 20.8125L40 19.25C39.9219 19.25 39.9219 19.25 39.8438 19.25Z" fill="white"/>
<path d="M37.1875 36.4375L37.1094 38C37.2656 38 37.3438 38 37.5 38C37.8906 38 38.2812 38.0781 38.6719 38.1563L38.75 36.5938C38.3594 36.5156 37.9688 36.4375 37.5 36.4375C37.4219 36.4375 37.3437 36.4375 37.1875 36.4375Z" fill="white"/>
</svg>
