<svg width="10" height="15" viewBox="0 0 10 15" fill="none" xmlns="http://www.w3.org/2000/svg">
<path d="M1.875 -0.000244141C0.847168 -0.000244141 0 0.846924 0 1.87476V13.1248C0 14.1526 0.847168 14.9998 1.875 14.9998H8.125C9.15283 14.9998 10 14.1526 10 13.1248V1.87476C10 0.846924 9.15283 -0.000244141 8.125 -0.000244141H1.875ZM1.875 1.24976H8.125C8.47168 1.24976 8.75 1.52808 8.75 1.87476V13.1248C8.75 13.4714 8.47168 13.7498 8.125 13.7498H1.875C1.52832 13.7498 1.25 13.4714 1.25 13.1248V1.87476C1.25 1.52808 1.52832 1.24976 1.875 1.24976ZM5 11.8748C4.65576 11.8748 4.375 12.1555 4.375 12.4998C4.375 12.844 4.65576 13.1248 5 13.1248C5.34424 13.1248 5.625 12.844 5.625 12.4998C5.625 12.1555 5.34424 11.8748 5 11.8748Z" fill="#0089D7"/>
</svg>
