<svg width="50" height="51" viewBox="0 0 50 51" fill="none"
  xmlns="http://www.w3.org/2000/svg">
  <path d="M23.4375 8.3125C21.4172 8.3125 19.696 9.63086 19.043 11.4375H6.25V14.5625H19.043C19.696 16.3691 21.4172 17.6875 23.4375 17.6875C25.4578 17.6875 27.179 16.3691 27.832 14.5625H43.75V11.4375H27.832C27.179 9.63086 25.4578 8.3125 23.4375 8.3125ZM23.4375 11.4375C24.3164 11.4375 25 12.1211 25 13C25 13.8789 24.3164 14.5625 23.4375 14.5625C22.5586 14.5625 21.875 13.8789 21.875 13C21.875 12.1211 22.5586 11.4375 23.4375 11.4375ZM34.375 20.8125C32.3547 20.8125 30.6335 22.1309 29.9805 23.9375H6.25V27.0625H29.9805C30.6335 28.8691 32.3547 30.1875 34.375 30.1875C36.3953 30.1875 38.1165 28.8691 38.7695 27.0625H43.75V23.9375H38.7695C38.1165 22.1309 36.3953 20.8125 34.375 20.8125ZM34.375 23.9375C35.2539 23.9375 35.9375 24.6211 35.9375 25.5C35.9375 26.3789 35.2539 27.0625 34.375 27.0625C33.4961 27.0625 32.8125 26.3789 32.8125 25.5C32.8125 24.6211 33.4961 23.9375 34.375 23.9375ZM17.1875 33.3125C15.1672 33.3125 13.446 34.6309 12.793 36.4375H6.25V39.5625H12.793C13.446 41.3691 15.1672 42.6875 17.1875 42.6875C19.2078 42.6875 20.929 41.3691 21.582 39.5625H43.75V36.4375H21.582C20.929 34.6309 19.2078 33.3125 17.1875 33.3125ZM17.1875 36.4375C18.0664 36.4375 18.75 37.1211 18.75 38C18.75 38.8789 18.0664 39.5625 17.1875 39.5625C16.3086 39.5625 15.625 38.8789 15.625 38C15.625 37.1211 16.3086 36.4375 17.1875 36.4375Z" fill="white"/>
</svg>
