<svg width="50" height="51" viewBox="0 0 50 51" fill="none" xmlns="http://www.w3.org/2000/svg">
<path d="M31.8919 14.8075C30.0391 14.1456 27.5914 13.7812 25 13.7812C22.4086 13.7812 19.9609 14.1456 18.1081 14.8075C15.4102 15.7711 14.8438 17.0269 14.8438 17.9107V20.7637C13.2283 20.5667 11.7552 19.7424 10.7422 18.4688H10.9375C11.1447 18.4688 11.3434 18.3864 11.4899 18.2399C11.6364 18.0934 11.7188 17.8947 11.7188 17.6875C11.7188 17.4803 11.6364 17.2816 11.4899 17.1351C11.3434 16.9886 11.1447 16.9062 10.9375 16.9062H9.375C9.36992 16.9062 9.36523 16.9072 9.35996 16.9073C9.1635 16.8982 8.97084 16.9636 8.82055 17.0905C8.67026 17.2174 8.57342 17.3963 8.54941 17.5915L7.89512 18.9006C7.84828 18.9924 7.8201 19.0927 7.81218 19.1955C7.80426 19.2983 7.81677 19.4016 7.84899 19.4996C7.88121 19.5975 7.9325 19.6881 7.9999 19.7661C8.0673 19.8442 8.14948 19.9081 8.2417 19.9542C8.33392 20.0003 8.43435 20.0277 8.53722 20.0348C8.64008 20.042 8.74333 20.0286 8.84102 19.9957C8.93871 19.9627 9.02891 19.9107 9.10641 19.8427C9.18391 19.7747 9.24718 19.692 9.29258 19.5994L9.4293 19.326C10.0763 20.173 10.8911 20.8776 11.8227 21.3955C12.7543 21.9134 13.7828 22.2335 14.8438 22.3359V28.6641C13.7828 28.7666 12.7543 29.0868 11.8227 29.6048C10.8911 30.1228 10.0763 30.8274 9.42939 31.6745L9.29268 31.4011C9.19904 31.2174 9.03661 31.0782 8.84079 31.0138C8.64497 30.9494 8.43162 30.965 8.24725 31.0572C8.06287 31.1494 7.92241 31.3107 7.85647 31.506C7.79053 31.7014 7.80445 31.9148 7.89522 32.0999L8.54951 33.409C8.57302 33.5979 8.66471 33.7717 8.80734 33.8978C8.94998 34.0239 9.13374 34.0936 9.32412 34.0938C9.3332 34.0938 9.34209 34.0922 9.35117 34.0919C9.36025 34.0916 9.36689 34.0936 9.375 34.0936H10.9375C11.1447 34.0936 11.3434 34.0112 11.4899 33.8647C11.6364 33.7182 11.7188 33.5195 11.7188 33.3123C11.7188 33.1051 11.6364 32.9064 11.4899 32.7599C11.3434 32.6134 11.1447 32.5311 10.9375 32.5311H10.7422C11.7591 31.2525 13.2395 30.427 14.8617 30.234C14.9753 31.0912 15.6742 32.1981 18.108 33.0674C19.9609 33.7293 22.4086 34.0938 25 34.0938C27.5914 34.0938 30.0391 33.7293 31.8919 33.0676C34.3257 32.1984 35.0246 31.0914 35.1382 30.2342C36.7604 30.4271 38.2409 31.2526 39.2578 32.5312H39.0625C38.8553 32.5312 38.6566 32.6136 38.5101 32.7601C38.3636 32.9066 38.2812 33.1053 38.2812 33.3125C38.2812 33.5197 38.3636 33.7184 38.5101 33.8649C38.6566 34.0114 38.8553 34.0938 39.0625 34.0938H40.625C40.6331 34.0938 40.6408 34.0923 40.6488 34.0921C40.6568 34.0919 40.6668 34.0939 40.6759 34.0939C40.8664 34.0938 41.0502 34.024 41.1929 33.8978C41.3355 33.7715 41.4271 33.5975 41.4505 33.4085L42.1048 32.0994C42.1516 32.0076 42.1798 31.9073 42.1877 31.8045C42.1956 31.7017 42.1831 31.5984 42.1509 31.5004C42.1187 31.4025 42.0674 31.3119 42 31.2339C41.9326 31.1558 41.8504 31.0919 41.7582 31.0458C41.666 30.9997 41.5655 30.9723 41.4627 30.9652C41.3598 30.958 41.2566 30.9714 41.1589 31.0043C41.0612 31.0373 40.971 31.0893 40.8935 31.1573C40.816 31.2253 40.7527 31.308 40.7073 31.4006L40.5706 31.674C39.9236 30.827 39.1088 30.1225 38.1772 29.6046C37.2456 29.0867 36.2172 28.7665 35.1562 28.6641V22.3359C36.2172 22.2334 37.2457 21.9132 38.1773 21.3952C39.1089 20.8772 39.9237 20.1726 40.5706 19.3255L40.7073 19.5989C40.7527 19.6915 40.816 19.7742 40.8935 19.8422C40.971 19.9102 41.0612 19.9622 41.1589 19.9952C41.2566 20.0281 41.3598 20.0415 41.4627 20.0343C41.5655 20.0272 41.666 19.9998 41.7582 19.9537C41.8504 19.9076 41.9326 19.8437 42 19.7657C42.0674 19.6876 42.1187 19.597 42.1509 19.4991C42.1831 19.4011 42.1956 19.2978 42.1877 19.195C42.1798 19.0922 42.1516 18.992 42.1048 18.9001L41.4505 17.5915C41.4265 17.3963 41.3296 17.2174 41.1793 17.0905C41.0291 16.9636 40.8364 16.8982 40.6399 16.9073C40.6348 16.9073 40.6302 16.9062 40.6246 16.9062H39.0625C38.8553 16.9062 38.6566 16.9886 38.5101 17.1351C38.3636 17.2816 38.2812 17.4803 38.2812 17.6875C38.2812 17.8947 38.3636 18.0934 38.5101 18.2399C38.6566 18.3864 38.8553 18.4688 39.0625 18.4688H39.2578C38.2448 19.7424 36.7717 20.5667 35.1562 20.7637V17.9107C35.1562 17.0269 34.5898 15.7711 31.8919 14.8075ZM16.4062 24.2305C16.9424 24.5592 17.5132 24.8279 18.1081 25.0318C19.9609 25.6936 22.4086 26.058 25 26.058C27.5914 26.058 30.0391 25.6936 31.8919 25.0318C32.4868 24.8279 33.0576 24.5592 33.5938 24.2305V25.9464C33.5938 26.3321 33.0104 26.9913 31.3663 27.5782C29.6778 28.1813 27.4169 28.5134 25 28.5134C22.5831 28.5134 20.3223 28.1813 18.6337 27.5782C16.9896 26.9911 16.4062 26.3321 16.4062 25.9464V24.2305ZM33.5938 21.9286C33.5938 22.3144 33.0104 22.9735 31.3663 23.5604C29.6778 24.1634 27.4169 24.4955 25 24.4955C22.5831 24.4955 20.3223 24.1635 18.6337 23.5604C16.9896 22.9732 16.4062 22.3144 16.4062 21.9286V20.2127C16.9424 20.5412 17.5132 20.8098 18.1081 21.0135C19.9609 21.6758 22.4086 22.0401 25 22.0401C27.5914 22.0401 30.0391 21.6758 31.8919 21.014C32.4868 20.8103 33.0576 20.5417 33.5938 20.2132V21.9286ZM18.6337 16.2789C20.3223 15.6758 22.5831 15.3438 25 15.3438C27.4169 15.3438 29.6777 15.6758 31.3663 16.2789C33.0104 16.8661 33.5938 17.525 33.5938 17.9107C33.5938 18.2965 33.0104 18.9557 31.3663 19.5425C29.6778 20.1456 27.4169 20.4776 25 20.4776C22.5831 20.4776 20.3223 20.1456 18.6337 19.5425C16.9896 18.9554 16.4062 18.2965 16.4062 17.9107C16.4062 17.525 16.9896 16.8661 18.6337 16.2789ZM33.5938 29.9643C33.5938 30.35 33.0104 31.0092 31.3663 31.5961C29.6777 32.1992 27.4169 32.5312 25 32.5312C22.5831 32.5312 20.3223 32.1992 18.6337 31.5961C16.9896 31.0089 16.4062 30.35 16.4062 29.9643V28.2483C16.9424 28.5771 17.5132 28.8458 18.1081 29.0498C19.9609 29.7114 22.4086 30.0759 25 30.0759C27.5914 30.0759 30.0391 29.7114 31.8919 29.0498C32.4868 28.8458 33.0576 28.5771 33.5938 28.2483V29.9643ZM46.4844 37.2188H41.8891L41.3237 36.0881C41.2588 35.9583 41.1591 35.8492 41.0357 35.7729C40.9123 35.6967 40.7701 35.6563 40.625 35.6562H35.5469C35.0291 35.6568 34.5326 35.8628 34.1665 36.229C33.8003 36.5951 33.5943 37.0916 33.5938 37.6094V42.6387C31.9642 42.4399 30.48 41.6028 29.4667 40.3112C29.6536 40.3654 29.854 40.3479 30.0287 40.2621C30.2034 40.1762 30.3397 40.0283 30.4111 39.8472C30.4824 39.6661 30.4836 39.465 30.4144 39.2831C30.3452 39.1012 30.2106 38.9516 30.0369 38.8638L28.4744 38.0825C28.2891 37.9899 28.0746 37.9746 27.878 38.0401C27.6814 38.1056 27.5189 38.2465 27.4263 38.4318L26.645 39.9943C26.5598 40.1641 26.5395 40.3591 26.5878 40.5429C26.6361 40.7266 26.7497 40.8864 26.9074 40.9923C27.065 41.0982 27.2559 41.143 27.4443 41.1183C27.6326 41.0936 27.8055 41.001 27.9305 40.858C28.5707 41.7981 29.4099 42.5858 30.3887 43.1652C31.3674 43.7447 32.4616 44.1017 33.5938 44.2109V45.4219C33.5943 45.9397 33.8003 46.4361 34.1665 46.8023C34.5326 47.1684 35.0291 47.3744 35.5469 47.375H46.4844C47.0022 47.3744 47.4986 47.1684 47.8648 46.8023C48.2309 46.4361 48.4369 45.9397 48.4375 45.4219V39.1719C48.4369 38.6541 48.2309 38.1576 47.8648 37.7915C47.4986 37.4253 47.0022 37.2193 46.4844 37.2188ZM46.875 45.4219C46.875 45.5255 46.8338 45.6248 46.7606 45.6981C46.6873 45.7713 46.588 45.8125 46.4844 45.8125H35.5469C35.4433 45.8125 35.3439 45.7713 35.2707 45.6981C35.1974 45.6248 35.1562 45.5255 35.1562 45.4219V37.6094C35.1562 37.5058 35.1974 37.4064 35.2707 37.3332C35.3439 37.2599 35.4433 37.2188 35.5469 37.2188H40.1422L40.7075 38.3494C40.7724 38.4792 40.8721 38.5883 40.9956 38.6646C41.119 38.7408 41.2612 38.7812 41.4062 38.7812H46.4844C46.588 38.7812 46.6873 38.8224 46.7606 38.8957C46.8338 38.9689 46.875 39.0683 46.875 39.1719V45.4219ZM3.51562 47.375H14.4531C14.9709 47.3744 15.4674 47.1684 15.8335 46.8023C16.1997 46.4361 16.4057 45.9397 16.4062 45.4219V44.2109C17.5384 44.1017 18.6326 43.7447 19.6114 43.1652C20.5901 42.5857 21.4293 41.798 22.0695 40.8579C22.1946 41.0007 22.3674 41.0931 22.5557 41.1177C22.7439 41.1423 22.9347 41.0975 23.0923 40.9916C23.2498 40.8858 23.3634 40.7261 23.4118 40.5425C23.4602 40.3589 23.44 40.164 23.355 39.9942L22.5737 38.4317C22.4811 38.2464 22.3186 38.1055 22.122 38.04C21.9254 37.9745 21.7109 37.9898 21.5256 38.0824L19.9631 38.8637C19.7895 38.9516 19.6549 39.1011 19.5857 39.2829C19.5165 39.4648 19.5177 39.666 19.589 39.847C19.6603 40.0281 19.7967 40.176 19.9713 40.2618C20.1459 40.3477 20.3463 40.3652 20.5332 40.3111C19.52 41.6028 18.0358 42.4399 16.4062 42.6387V39.1719C16.4057 38.6541 16.1997 38.1576 15.8335 37.7915C15.4674 37.4253 14.9709 37.2193 14.4531 37.2188H9.85781L9.29248 36.0881C9.22759 35.9583 9.12786 35.8492 9.00445 35.7729C8.88104 35.6967 8.73883 35.6563 8.59375 35.6562H3.51562C2.99781 35.6568 2.50137 35.8628 2.13521 36.229C1.76906 36.5951 1.56309 37.0916 1.5625 37.6094V45.4219C1.56309 45.9397 1.76906 46.4361 2.13521 46.8023C2.50137 47.1684 2.99781 47.3744 3.51562 47.375ZM3.125 37.6094C3.125 37.5058 3.16616 37.4064 3.23941 37.3332C3.31267 37.2599 3.41202 37.2188 3.51562 37.2188H8.11094L8.67627 38.3494C8.74116 38.4792 8.84089 38.5883 8.9643 38.6646C9.08771 38.7408 9.22992 38.7812 9.375 38.7812H14.4531C14.5567 38.7812 14.6561 38.8224 14.7293 38.8957C14.8026 38.9689 14.8438 39.0683 14.8438 39.1719V45.4219C14.8438 45.5255 14.8026 45.6248 14.7293 45.6981C14.6561 45.7713 14.5567 45.8125 14.4531 45.8125H3.51562C3.41202 45.8125 3.31267 45.7713 3.23941 45.6981C3.16616 45.6248 3.125 45.5255 3.125 45.4219V37.6094ZM46.4844 3.625H41.8891L41.3237 2.49434C41.2588 2.36458 41.1591 2.25545 41.0357 2.17918C40.9123 2.10291 40.7701 2.0625 40.625 2.0625H35.5469C35.0291 2.06309 34.5326 2.26906 34.1665 2.63521C33.8003 3.00137 33.5943 3.49781 33.5938 4.01562V6.78906C32.4617 6.8983 31.3675 7.25529 30.3888 7.8347C29.4101 8.41412 28.5709 9.20177 27.9307 10.1418C27.8053 9.9998 27.6326 9.9082 27.4447 9.88405C27.2568 9.85989 27.0665 9.90482 26.9093 10.0105C26.7521 10.1161 26.6386 10.2753 26.59 10.4584C26.5414 10.6415 26.5609 10.836 26.645 11.0058L27.4263 12.5683C27.4721 12.6601 27.5356 12.742 27.6131 12.8092C27.6906 12.8765 27.7806 12.9278 27.8779 12.9603C27.9753 12.9927 28.0781 13.0056 28.1804 12.9983C28.2828 12.991 28.3827 12.9636 28.4744 12.9176L30.0369 12.1363C30.2105 12.0484 30.3451 11.8989 30.4143 11.7171C30.4835 11.5352 30.4823 11.334 30.411 11.153C30.3397 10.9719 30.2033 10.824 30.0287 10.7382C29.8541 10.6523 29.6537 10.6347 29.4668 10.6889C30.48 9.39717 31.9642 8.56011 33.5938 8.36133V11.8281C33.5943 12.3459 33.8003 12.8424 34.1665 13.2085C34.5326 13.5747 35.0291 13.7807 35.5469 13.7812H46.4844C47.0022 13.7807 47.4986 13.5747 47.8648 13.2085C48.2309 12.8424 48.4369 12.3459 48.4375 11.8281V5.57812C48.4369 5.06031 48.2309 4.56387 47.8648 4.19771C47.4986 3.83156 47.0022 3.62559 46.4844 3.625ZM46.875 11.8281C46.875 11.9317 46.8338 12.0311 46.7606 12.1043C46.6873 12.1776 46.588 12.2188 46.4844 12.2188H35.5469C35.4433 12.2188 35.3439 12.1776 35.2707 12.1043C35.1974 12.0311 35.1562 11.9317 35.1562 11.8281V4.01562C35.1562 3.91202 35.1974 3.81267 35.2707 3.73941C35.3439 3.66616 35.4433 3.625 35.5469 3.625H40.1422L40.7075 4.75566C40.7724 4.88542 40.8721 4.99455 40.9956 5.07082C41.119 5.14709 41.2612 5.18749 41.4062 5.1875H46.4844C46.588 5.1875 46.6873 5.22866 46.7606 5.30191C46.8338 5.37517 46.875 5.47452 46.875 5.57812V11.8281ZM3.51562 13.7812H14.4531C14.9709 13.7807 15.4674 13.5747 15.8335 13.2085C16.1997 12.8424 16.4057 12.3459 16.4062 11.8281V8.36133C18.0358 8.56012 19.52 9.39713 20.5333 10.6888C20.3464 10.6346 20.146 10.6521 19.9713 10.7379C19.7966 10.8238 19.6602 10.9717 19.5889 11.1528C19.5176 11.3339 19.5164 11.535 19.5856 11.7169C19.6548 11.8988 19.7894 12.0484 19.9631 12.1362L21.5256 12.9175C21.6173 12.9635 21.7172 12.9909 21.8196 12.9982C21.9219 13.0055 22.0247 12.9926 22.1221 12.9602C22.2194 12.9277 22.3094 12.8764 22.3869 12.8091C22.4644 12.7419 22.5279 12.66 22.5737 12.5682L23.355 11.0057C23.4391 10.8359 23.4586 10.6414 23.41 10.4583C23.3614 10.2752 23.2479 10.116 23.0907 10.0104C22.9335 9.90473 22.7432 9.85979 22.5553 9.88395C22.3674 9.9081 22.1947 9.9997 22.0693 10.1417C21.4291 9.20169 20.5899 8.41405 19.6112 7.83465C18.6325 7.25525 17.5383 6.89829 16.4062 6.78906V5.57812C16.4057 5.06031 16.1997 4.56387 15.8335 4.19771C15.4674 3.83156 14.9709 3.62559 14.4531 3.625H9.85781L9.29248 2.49434C9.22759 2.36458 9.12786 2.25545 9.00445 2.17918C8.88104 2.10291 8.73883 2.0625 8.59375 2.0625H3.51562C2.99781 2.06309 2.50137 2.26906 2.13521 2.63521C1.76906 3.00137 1.56309 3.49781 1.5625 4.01562V11.8281C1.56309 12.3459 1.76906 12.8424 2.13521 13.2085C2.50137 13.5747 2.99781 13.7807 3.51562 13.7812ZM3.125 4.01562C3.125 3.91202 3.16616 3.81267 3.23941 3.73941C3.31267 3.66616 3.41202 3.625 3.51562 3.625H8.11094L8.67627 4.75566C8.74116 4.88542 8.84089 4.99455 8.9643 5.07082C9.08771 5.14709 9.22992 5.18749 9.375 5.1875H14.4531C14.5567 5.1875 14.6561 5.22866 14.7293 5.30191C14.8026 5.37517 14.8438 5.47452 14.8438 5.57812V11.8281C14.8438 11.9317 14.8026 12.0311 14.7293 12.1043C14.6561 12.1776 14.5567 12.2188 14.4531 12.2188H3.51562C3.41202 12.2188 3.31267 12.1776 3.23941 12.1043C3.16616 12.0311 3.125 11.9317 3.125 11.8281V4.01562Z" fill="white"/>
</svg>
