<svg width="24" height="25" viewBox="0 0 24 25" fill="none"
  xmlns="http://www.w3.org/2000/svg">
  <path d="M12 2.75C6.60059 2.75 2.25 7.10059 2.25 12.5C2.25 17.8994 6.60059 22.25 12 22.25C17.3994 22.25 21.75 17.8994 21.75 12.5C21.75 11.4512 21.6094 10.4053 21.2344 9.42969L20.0156 10.625C20.165 11.2256 20.25 11.8262 20.25 12.5C20.25 17.0762 16.5762 20.75 12 20.75C7.42383 20.75 3.75 17.0762 3.75 12.5C3.75 7.92383 7.42383 4.25 12 4.25C14.25 4.25 16.2715 5.14648 17.6953 6.57031L18.75 5.51562C17.0244 3.79004 14.625 2.75 12 2.75ZM21 6.5C20.7023 6.20228 20.2196 6.20228 19.9219 6.5L12 14.4219L9.32812 11.75C9.03041 11.4523 8.54772 11.4523 8.25 11.75C7.95228 12.0477 7.95228 12.5304 8.25 12.8281L11.4609 16.0391L12 16.5547L12.5391 16.0391L21 7.57812C21.2977 7.28041 21.2977 6.79772 21 6.5Z" fill="black"/>
</svg>
