<svg width="24" height="25" viewBox="0 0 24 25" fill="none"
  xmlns="http://www.w3.org/2000/svg">
  <path d="M12 3.5C7.03711 3.5 3 7.53711 3 12.5C3 17.4629 7.03711 21.5 12 21.5C16.9629 21.5 21 17.4629 21 12.5C21 7.53711 16.9629 3.5 12 3.5ZM12 5C16.1514 5 19.5 8.34863 19.5 12.5C19.5 16.6514 16.1514 20 12 20C7.84863 20 4.5 16.6514 4.5 12.5C4.5 8.34863 7.84863 5 12 5ZM12 8C11.5858 8 11.25 8.33579 11.25 8.75V13.25C11.25 13.6642 11.5858 14 12 14C12.4142 14 12.75 13.6642 12.75 13.25V8.75C12.75 8.33579 12.4142 8 12 8ZM12 15.5C11.5858 15.5 11.25 15.8358 11.25 16.25C11.25 16.6642 11.5858 17 12 17C12.4142 17 12.75 16.6642 12.75 16.25C12.75 15.8358 12.4142 15.5 12 15.5Z" fill="black"/>
</svg>
