<svg width="38" height="39" viewBox="0 0 38 39" fill="none"
  xmlns="http://www.w3.org/2000/svg">
  <path d="M14.25 2.95752C9.67163 2.95752 5.9375 6.69165 5.9375 11.27C5.9375 14.1321 7.39868 16.6741 9.61133 18.1724C5.37622 19.9907 2.375 24.1934 2.375 29.0825H4.75C4.75 23.8223 8.98975 19.5825 14.25 19.5825C15.8828 19.5825 17.4043 20.0093 18.7402 20.7329C17.4229 22.3657 16.625 24.4531 16.625 26.7075C16.625 31.9399 20.8926 36.2075 26.125 36.2075C31.3574 36.2075 35.625 31.9399 35.625 26.7075C35.625 21.4751 31.3574 17.2075 26.125 17.2075C24.0515 17.2075 22.1218 17.8894 20.5586 19.0259C20.0344 18.6965 19.4639 18.4182 18.8887 18.1724C21.1013 16.6741 22.5625 14.1321 22.5625 11.27C22.5625 6.69165 18.8284 2.95752 14.25 2.95752ZM14.25 5.33252C17.5435 5.33252 20.1875 7.97656 20.1875 11.27C20.1875 14.5635 17.5435 17.2075 14.25 17.2075C10.9565 17.2075 8.3125 14.5635 8.3125 11.27C8.3125 7.97656 10.9565 5.33252 14.25 5.33252ZM26.125 19.5825C30.0725 19.5825 33.25 22.76 33.25 26.7075C33.25 30.655 30.0725 33.8325 26.125 33.8325C22.1775 33.8325 19 30.655 19 26.7075C19 22.76 22.1775 19.5825 26.125 19.5825ZM24.9375 21.9575V25.52H21.375V27.895H24.9375V31.4575H27.3125V27.895H30.875V25.52H27.3125V21.9575H24.9375Z" fill="#5AB946"/>
</svg>
