<svg width="50" height="51" viewBox="0 0 50 51" fill="none" xmlns="http://www.w3.org/2000/svg">
<path d="M26.2482 7.36035L21.5668 15.1667L18.6768 12.2798L17.5781 13.528C12.1359 19.6967 9.375 25.3016 9.375 30.1875C9.375 37.9406 16.3844 44.25 25 44.25C33.6156 44.25 40.625 37.9406 40.625 30.1875C40.625 22.7469 32.5048 13.572 27.6642 8.76416L26.2482 7.36035ZM26.8616 12.411C30.8866 16.6079 37.5 24.3875 37.5 30.1875C37.5 33.9238 35.3442 37.2255 32.0679 39.1993C32.5344 38.0845 32.8125 36.8554 32.8125 35.5464C32.8125 31.8261 30.1802 27.4131 27.9724 24.3678L26.6541 22.5459L23.1934 27.7369L20.9961 25.5397L19.9646 27.2426C18.1224 30.2832 17.1875 33.0761 17.1875 35.5464C17.1875 36.8554 17.4656 38.0845 17.9321 39.1993C14.6558 37.2255 12.5 33.9238 12.5 30.1875C12.5 26.4547 14.6838 21.8698 18.8385 16.8605L22.1832 20.2083L26.8616 12.411ZM26.7242 28.0757C28.6461 31.071 29.6875 33.6776 29.6875 35.5464C29.6875 38.6229 27.5844 41.125 25 41.125C22.4156 41.125 20.3125 38.6229 20.3125 35.5464C20.3125 34.1058 20.766 32.4566 21.6644 30.627L23.6816 32.6411L26.7242 28.0757Z" fill="white"/>
</svg>
