<svg width="250" height="47" viewBox="0 0 250 47" fill="none" xmlns="http://www.w3.org/2000/svg">
<path fill-rule="evenodd" clip-rule="evenodd" d="M33.6802 11.2543V14.831H37.2475C38.8004 14.831 40.0442 14.831 40.9461 14.9589C41.8325 15.0846 42.6955 15.373 43.0509 16.2334C43.4063 17.0937 42.9996 17.9095 42.4614 18.6269C41.9138 19.3567 41.0344 20.2385 39.9363 21.3394L37.4142 23.8683L39.9362 26.397C41.0343 27.498 41.9138 28.3798 42.4614 29.1097C42.9996 29.827 43.4063 30.6428 43.0509 31.5032C42.6955 32.3635 41.8325 32.652 40.9461 32.7777C40.0442 32.9055 38.8004 32.9055 37.2474 32.9055H33.6802V36.4822C33.6802 38.0393 33.6803 39.2864 33.5527 40.1907C33.4274 41.0796 33.1397 41.9448 32.2816 42.3012C31.4236 42.6575 30.6099 42.2497 29.8945 41.7101C29.1666 41.1611 28.2871 40.2793 27.1891 39.1783L24.667 36.6495L22.145 39.1782C21.047 40.2792 20.1675 41.1611 19.4396 41.7101C18.7241 42.2497 17.9105 42.6575 17.0524 42.3012C16.1944 41.9448 15.9067 41.0796 15.7813 40.1907C15.6538 39.2864 15.6538 38.0394 15.6538 36.4823V32.9055H12.0866C10.5337 32.9055 9.28989 32.9055 8.38797 32.7777C7.50152 32.652 6.63858 32.3635 6.28316 31.5032C5.92775 30.6428 6.33449 29.827 6.87267 29.1097C7.42024 28.3798 8.2997 27.498 9.39778 26.397L11.9198 23.8683L9.39781 21.3395C8.29972 20.2385 7.42024 19.3567 6.87267 18.6269C6.33449 17.9095 5.92775 17.0937 6.28316 16.2334C6.63858 15.373 7.50152 15.0846 8.38797 14.9589C9.28988 14.831 10.5336 14.831 12.0865 14.831H15.6538V11.2542C15.6538 9.6972 15.6538 8.45011 15.7813 7.54579C15.9067 6.65698 16.1944 5.79174 17.0524 5.43537C17.9105 5.07901 18.7241 5.48684 19.4396 6.02646C20.1675 6.57548 21.0469 7.45729 22.145 8.5583L24.667 11.0871L27.189 8.55832C28.2871 7.45731 29.1666 6.57548 29.8945 6.02646C30.6099 5.48684 31.4236 5.07901 32.2816 5.43537C33.1397 5.79174 33.4274 6.65698 33.5527 7.54579C33.6803 8.45013 33.6802 9.69721 33.6802 11.2543ZM28.1396 9.5993C29.2914 8.44435 30.1011 7.63501 30.7398 7.15325C31.4007 6.65479 31.637 6.69381 31.7435 6.73804C31.85 6.78228 32.0445 6.92218 32.1603 7.74321C32.2722 8.53673 32.274 9.68305 32.274 11.3164V14.831H28.401L25.6614 12.0841L28.1396 9.5993ZM29.8073 16.241H32.274V18.7143L29.8073 16.241ZM33.6802 16.241V20.1243L36.4199 22.8712L38.898 20.3865C40.0499 19.2315 40.8571 18.4197 41.3376 17.7793C41.8347 17.1166 41.7958 16.8797 41.7517 16.773C41.7076 16.6662 41.568 16.4711 40.7492 16.355C39.9578 16.2428 38.8145 16.241 37.1855 16.241H33.6802ZM31.562 19.9945L32.274 20.7083V21.7151C32.4663 22.3998 32.5693 23.122 32.5693 23.8683C32.5693 24.6147 32.4663 25.3369 32.274 26.0215V27.0282L31.5622 27.7419C30.8501 29.0134 29.7983 30.068 28.5301 30.782L27.8185 31.4955H26.8151C26.132 31.6885 25.4115 31.7918 24.6669 31.7918C23.9223 31.7918 23.2018 31.6885 22.5188 31.4955H21.5155L20.8042 30.7823C19.5356 30.0682 18.4835 29.0133 17.7714 27.7414L17.0601 27.0282V26.0223C16.8676 25.3375 16.7646 24.615 16.7646 23.8683C16.7646 23.1217 16.8676 22.3992 17.0601 21.7144V20.7083L17.7716 19.995C18.4836 18.7233 19.5355 17.6686 20.8038 16.9546L21.5155 16.241H22.5193C23.2022 16.0481 23.9225 15.9449 24.6669 15.9449C25.4113 15.9449 26.1316 16.0481 26.8145 16.241H27.8185L28.5305 16.9549C29.7984 17.6688 30.85 18.7232 31.562 19.9945ZM33.6802 22.1183V25.6182L35.4255 23.8683L33.6802 22.1183ZM29.8073 31.4955L32.274 29.0222V31.4955H29.8073ZM33.6802 27.6122V31.4955H37.1855C38.8145 31.4955 39.9578 31.4938 40.7492 31.3816C41.568 31.2655 41.7076 31.0704 41.7517 30.9636C41.7958 30.8568 41.8347 30.6199 41.3376 29.9573C40.8571 29.3168 40.0499 28.505 38.898 27.3501L36.4199 24.8653L33.6802 27.6122ZM28.401 32.9055H32.274V36.4201C32.274 38.0535 32.2722 39.1998 32.1603 39.9933C32.0445 40.8143 31.85 40.9543 31.7435 40.9985C31.637 41.0427 31.4007 41.0817 30.7398 40.5833C30.1011 40.1015 29.2914 39.2922 28.1396 38.1372L25.6614 35.6524L28.401 32.9055ZM26.4123 32.9055L24.667 34.6554L22.9218 32.9055H26.4123ZM17.0601 29.0222L19.5268 31.4955H17.0601V29.0222ZM20.933 32.9055H17.0601V36.4201C17.0601 38.0535 17.0618 39.1998 17.1737 39.9933C17.2895 40.8143 17.4841 40.9543 17.5906 40.9985C17.6971 41.0427 17.9333 41.0817 18.5942 40.5833C19.233 40.1015 20.0426 39.2922 21.1945 38.1372L23.6727 35.6524L20.933 32.9055ZM15.6538 27.6122V31.4955H12.1485C10.5195 31.4955 9.37627 31.4938 8.58486 31.3816C7.76602 31.2655 7.62648 31.0704 7.58237 30.9636C7.53825 30.8568 7.49933 30.6199 7.99647 29.9573C8.47695 29.3168 9.28414 28.505 10.436 27.3501L12.9142 24.8653L15.6538 27.6122ZM15.6538 25.6182L13.9086 23.8683L15.6538 22.1183V25.6182ZM19.5268 16.241L17.0601 18.7143V16.241H19.5268ZM15.6538 20.1243V16.241H12.1485C10.5195 16.241 9.37627 16.2428 8.58486 16.355C7.76602 16.4711 7.62648 16.6662 7.58237 16.773C7.53825 16.8797 7.49934 17.1166 7.99647 17.7793C8.47695 18.4197 9.28414 19.2315 10.436 20.3865L12.9142 22.8712L15.6538 20.1243ZM20.933 14.831H17.0601V11.3164C17.0601 9.68305 17.0618 8.53673 17.1737 7.74321C17.2895 6.92218 17.4841 6.78228 17.5906 6.73804C17.6971 6.69381 17.9333 6.65479 18.5942 7.15325C19.233 7.63501 20.0426 8.44435 21.1945 9.5993L23.6727 12.0841L20.933 14.831ZM22.9218 14.831L24.667 13.0811L26.4123 14.831H22.9218Z" fill="url(#paint0_linear_413_6073)"/>
<path fill-rule="evenodd" clip-rule="evenodd" d="M29.5449 12.0603L28.1798 8.75584C27.5855 7.31727 27.1096 6.16511 26.6466 5.37855C26.1916 4.60549 25.5955 3.9165 24.6668 3.9165C23.738 3.9165 23.142 4.60549 22.6869 5.37855C22.224 6.16509 21.748 7.31724 21.1538 8.75577L19.7889 12.0597L16.4937 10.6912C15.059 10.0953 13.9099 9.61806 13.0279 9.39014C12.1609 9.16612 11.2536 9.10153 10.5968 9.76C9.94012 10.4185 10.0045 11.3282 10.228 12.1975C10.4553 13.0819 10.9313 14.234 11.5255 15.6725L12.8907 18.9771L9.59495 20.3459C8.16024 20.9417 7.01116 21.4189 6.22671 21.8832C5.4557 22.3394 4.76855 22.937 4.76855 23.8683C4.76855 24.7995 5.45571 25.3971 6.22671 25.8534C7.01114 26.3176 8.16017 26.7948 9.59481 27.3906L12.8901 28.7592L11.5252 32.0631C10.9309 33.5017 10.4549 34.6538 10.2276 35.5382C10.0042 36.4075 9.93979 37.3172 10.5965 37.9757C11.2532 38.6342 12.1606 38.5696 13.0275 38.3456C13.9096 38.1176 15.0587 37.6404 16.4934 37.0445L19.7891 35.6757L21.1543 38.9803C21.7485 40.4188 22.2244 41.5709 22.6874 42.3575C23.1425 43.1306 23.7385 43.8195 24.6672 43.8195C25.596 43.8195 26.192 43.1306 26.6471 42.3575C27.11 41.571 27.586 40.4189 28.1802 38.9804L29.5452 35.6763L32.8402 37.0448C34.2749 37.6407 35.4241 38.118 36.3062 38.3459C37.1731 38.5699 38.0805 38.6345 38.7372 37.976C39.3939 37.3176 39.3295 36.4078 39.1061 35.5385C38.8787 34.6541 38.4028 33.502 37.8085 32.0635L36.4433 28.7589L39.739 27.3902C41.1737 26.7943 42.3228 26.3171 43.1073 25.8529C43.8783 25.3966 44.5655 24.799 44.5655 23.8678C44.5655 22.9366 43.8783 22.3389 43.1073 21.8827C42.3228 21.4185 41.1738 20.9412 39.739 20.3454L36.4439 18.9769L37.8088 15.6729C38.4031 14.2345 38.8791 13.0822 39.1064 12.1978C39.3298 11.3286 39.3942 10.4188 38.7375 9.76034C38.0808 9.10186 37.1734 9.16646 36.3065 9.39047C35.4244 9.6184 34.2754 10.0956 32.8407 10.6915L29.5449 12.0603ZM23.898 6.09521C23.4918 6.78538 23.0526 7.84378 22.4293 9.35278L21.0881 12.5993L24.6676 14.086L28.2457 12.5999L26.9043 9.35279C26.2809 7.84378 25.8418 6.78538 25.4355 6.09521C25.0152 5.3811 24.7821 5.3265 24.6668 5.3265C24.5515 5.3265 24.3183 5.3811 23.898 6.09521ZM28.7839 13.9026L26.5049 14.849L29.7278 16.1876L28.7839 13.9026ZM31.5652 16.9507L30.0831 13.363L33.3215 12.018C34.8265 11.3929 35.8834 10.9559 36.6574 10.7559C37.4583 10.5489 37.6616 10.6756 37.7431 10.7574C37.8247 10.8391 37.951 11.043 37.7446 11.846C37.5452 12.622 37.1093 13.6817 36.4859 15.1908L35.1447 18.4373L31.5652 16.9507ZM29.555 17.642C30.0454 18.0295 30.4888 18.4741 30.8755 18.9657C31.7552 20.0842 32.3408 21.4463 32.515 22.9344C32.5509 23.2406 32.5694 23.5523 32.5694 23.8682C32.5694 24.1845 32.5509 24.4964 32.5149 24.803C32.3406 26.2903 31.7554 27.6516 30.8763 28.7697C30.49 29.2609 30.047 29.7053 29.5572 30.0927C28.4413 30.9752 27.0822 31.5626 25.5975 31.7372C25.2923 31.7731 24.9817 31.7916 24.667 31.7916C24.3517 31.7916 24.0408 31.7731 23.7352 31.7371C22.2515 31.5624 20.8934 30.9754 19.7781 30.0937C19.2884 29.7065 18.8452 29.2623 18.4589 28.7713C17.5788 27.6525 16.993 26.2899 16.8189 24.8013C16.7831 24.4953 16.7646 24.1838 16.7646 23.8682C16.7646 23.5519 16.7831 23.2398 16.819 22.9332C16.9934 21.4461 17.5786 20.0848 18.4576 18.9668C18.8441 18.4753 19.2874 18.0306 19.7776 17.643C20.8931 16.761 22.2515 16.1739 23.7355 15.9992C24.041 15.9633 24.3519 15.9447 24.667 15.9447C24.9827 15.9447 25.294 15.9633 25.6 15.9994C27.0828 16.1743 28.4402 16.7609 29.555 17.642ZM33.662 22.0263L32.3262 18.7929L34.6065 19.74L33.662 22.0263ZM33.662 25.7109L32.327 28.9423L34.606 27.9958L33.662 25.7109ZM35.9052 27.4563L34.4231 23.8686L35.9057 20.2795L39.1436 21.6243C40.6486 22.2494 41.7042 22.6896 42.3926 23.097C43.1048 23.5184 43.1592 23.7522 43.1592 23.8678C43.1592 23.9834 43.1048 24.2171 42.3926 24.6386C41.7042 25.0459 40.6486 25.4862 39.1436 26.1113L35.9052 27.4563ZM35.1441 29.2985L31.566 30.7846L30.0833 34.3736L33.3212 35.7184C34.8262 36.3434 35.8831 36.7805 36.6571 36.9805C37.4579 37.1875 37.6613 37.0608 37.7428 36.979C37.8243 36.8973 37.9507 36.6934 37.7443 35.8904C37.5448 35.1144 37.1089 34.0546 36.4855 32.5456L35.1441 29.2985ZM28.7841 33.8341L29.7286 31.5477L26.5038 32.887L28.7841 33.8341ZM22.8291 32.887L19.6062 31.5485L20.5502 33.8335L22.8291 32.887ZM21.0883 35.1362L24.6664 33.6501L28.2459 35.1367L26.9048 38.3833C26.2814 39.8923 25.8423 40.9507 25.436 41.6408C25.0157 42.3549 24.7825 42.4095 24.6672 42.4095C24.552 42.4095 24.3188 42.3549 23.8985 41.6408C23.4922 40.9507 23.0531 39.8923 22.4297 38.3833L21.0883 35.1362ZM19.251 34.3731L17.7688 30.7854L14.1893 29.2988L12.8482 32.5453C12.2248 34.0543 11.7889 35.114 11.5894 35.8901C11.383 36.693 11.5094 36.897 11.5909 36.9787C11.6724 37.0604 11.8758 37.1871 12.6766 36.9802C13.4506 36.7802 14.5075 36.3431 16.0125 35.7181L19.251 34.3731ZM14.7275 27.9961L17.0078 28.9431L15.672 25.7097L14.7275 27.9961ZM15.672 22.0252L17.007 18.7937L14.7281 19.7402L15.672 22.0252ZM13.4288 20.2798L14.911 23.8674L13.4283 27.4565L10.1904 26.1117C8.68538 25.4867 7.6298 25.0464 6.94146 24.6391C6.22926 24.2176 6.17481 23.9839 6.17481 23.8683C6.1748 23.7527 6.22926 23.5189 6.94146 23.0974C7.6298 22.6901 8.68538 22.2498 10.1904 21.6248L13.4288 20.2798ZM14.1899 18.4375L17.768 16.9515L19.2507 13.3624L16.0128 12.0176C14.5078 11.3926 13.4509 10.9555 12.6769 10.7555C11.8761 10.5486 11.6727 10.6753 11.5912 10.757C11.5097 10.8388 11.3833 11.0427 11.5897 11.8456C11.7892 12.6217 12.2251 13.6814 12.8485 15.1904L14.1899 18.4375ZM20.5499 13.902L19.6054 16.1884L22.8302 14.849L20.5499 13.902Z" fill="url(#paint1_linear_413_6073)"/>
<path d="M243.528 32.6414V15.0947H245.128V32.6414H243.528Z" fill="url(#paint2_linear_413_6073)"/>
<path d="M217.38 32.6414L223.105 15.0947H225.955L231.68 32.6414H230.005L228.505 27.979H220.555L219.055 32.6414H217.38ZM221.005 26.5251H228.055L224.68 16.0473H224.38L221.005 26.5251Z" fill="url(#paint3_linear_413_6073)"/>
<path d="M200.221 32.9922C198.887 32.9922 197.704 32.7582 196.671 32.2903C195.654 31.8057 194.854 31.1122 194.271 30.2098C193.687 29.3074 193.396 28.2045 193.396 26.901V26.2493H196.371V26.901C196.371 28.0541 196.721 28.9147 197.421 29.4829C198.121 30.051 199.054 30.3351 200.221 30.3351C201.404 30.3351 202.296 30.0928 202.896 29.6082C203.496 29.1236 203.796 28.4969 203.796 27.7282C203.796 27.2101 203.654 26.7924 203.371 26.4749C203.087 26.1406 202.671 25.8733 202.121 25.6727C201.587 25.4722 200.937 25.28 200.171 25.0962L199.421 24.9458C198.271 24.6784 197.271 24.3442 196.421 23.9431C195.587 23.5253 194.946 22.9906 194.495 22.3389C194.045 21.6871 193.821 20.8349 193.821 19.7821C193.821 18.7293 194.071 17.8269 194.571 17.0749C195.071 16.3229 195.779 15.7463 196.696 15.3453C197.612 14.9442 198.687 14.7437 199.921 14.7437C201.154 14.7437 202.254 14.9525 203.221 15.3703C204.187 15.7881 204.946 16.4148 205.496 17.2503C206.062 18.0859 206.346 19.1303 206.346 20.3837V21.2109H203.371V20.3837C203.371 19.6651 203.229 19.0885 202.946 18.6541C202.662 18.2196 202.262 17.9021 201.746 17.7015C201.229 17.501 200.621 17.4007 199.921 17.4007C198.887 17.4007 198.104 17.6013 197.571 18.0023C197.037 18.4034 196.771 18.9716 196.771 19.7069C196.771 20.1748 196.887 20.5758 197.121 20.9101C197.371 21.2276 197.729 21.4949 198.196 21.7122C198.679 21.9127 199.279 22.0882 199.996 22.2386L200.746 22.4141C201.946 22.6814 202.996 23.024 203.896 23.4418C204.796 23.8429 205.496 24.3776 205.996 25.0461C206.512 25.7145 206.771 26.5835 206.771 27.653C206.771 28.7058 206.496 29.6333 205.946 30.4354C205.412 31.2375 204.654 31.8642 203.671 32.3154C202.704 32.7666 201.554 32.9922 200.221 32.9922Z" fill="black"/>
<path d="M174.965 32.6414V17.827H169.74V15.0947H183.19V17.827H177.965V32.6414H174.965Z" fill="black"/>
<path d="M152.717 32.9922C150.583 32.9922 148.883 32.3906 147.617 31.1874C146.35 29.9675 145.717 28.2212 145.717 25.9485V21.7874C145.717 19.5147 146.35 17.7767 147.617 16.5735C148.883 15.3536 150.583 14.7437 152.717 14.7437C154.85 14.7437 156.492 15.3285 157.642 16.4983C158.808 17.6681 159.392 19.2724 159.392 21.3111V21.4615H156.442V21.2359C156.442 20.133 156.133 19.2306 155.517 18.5287C154.917 17.8101 153.983 17.4509 152.717 17.4509C151.483 17.4509 150.508 17.8352 149.792 18.6039C149.092 19.3559 148.742 20.4004 148.742 21.7373V25.9986C148.742 27.3188 149.092 28.3632 149.792 29.1319C150.508 29.9006 151.483 30.285 152.717 30.285C153.983 30.285 154.917 29.9341 155.517 29.2322C156.133 28.5136 156.442 27.6029 156.442 26.4999V26.0738H159.392V26.4247C159.392 28.4635 158.808 30.0677 157.642 31.2375C156.492 32.4073 154.85 32.9922 152.717 32.9922Z" fill="black"/>
<path d="M120.267 32.6414L125.067 15.0947H130.292L135.092 32.6414H131.992L130.942 28.6307H124.417L123.367 32.6414H120.267ZM125.117 25.8734H130.242L127.892 16.9747H127.467L125.117 25.8734Z" fill="black"/>
<path d="M98.7959 32.6414V15.0947H105.871C106.971 15.0947 107.938 15.312 108.771 15.7465C109.604 16.1809 110.263 16.7993 110.746 17.6014C111.229 18.3868 111.471 19.3226 111.471 20.4089V20.7598C111.471 21.8293 111.221 22.7651 110.721 23.5673C110.238 24.3694 109.571 24.9877 108.721 25.4222C107.888 25.8567 106.938 26.0739 105.871 26.0739H101.821V32.6414H98.7959ZM101.821 23.3417H105.571C106.438 23.3417 107.129 23.1077 107.646 22.6398C108.179 22.1719 108.446 21.5285 108.446 20.7097V20.459C108.446 19.6401 108.188 18.9968 107.671 18.5289C107.154 18.0609 106.454 17.827 105.571 17.827H101.821V23.3417Z" fill="black"/>
<path d="M67.8477 32.6414V15.0947H73.4727L76.8727 30.611H77.2977L80.7227 15.0947H86.3227V32.6414H83.4227V17.2755H82.9977L79.5977 32.6414H74.5977L71.1977 17.2755H70.7727V32.6414H67.8477Z" fill="black"/>
<path d="M52.3779 32.6414V15.0947H55.4029V32.6414H52.3779Z" fill="black"/>
<defs>
<linearGradient id="paint0_linear_413_6073" x1="24.667" y1="3.75185" x2="24.667" y2="43.9847" gradientUnits="userSpaceOnUse">
<stop stop-color="#2BFFBF"/>
<stop offset="1" stop-color="#1BA897"/>
</linearGradient>
<linearGradient id="paint1_linear_413_6073" x1="15.9786" y1="1.65332" x2="30.6037" y2="44.3605" gradientUnits="userSpaceOnUse">
<stop stop-color="#58F5FF"/>
<stop offset="1" stop-color="#1A7E8C"/>
</linearGradient>
<linearGradient id="paint2_linear_413_6073" x1="244.328" y1="15.0947" x2="244.328" y2="32.6414" gradientUnits="userSpaceOnUse">
<stop stop-color="#58F5FF"/>
<stop offset="1" stop-color="#1A7E8C"/>
</linearGradient>
<linearGradient id="paint3_linear_413_6073" x1="224.53" y1="15.0947" x2="224.53" y2="32.6414" gradientUnits="userSpaceOnUse">
<stop stop-color="#58F5FF"/>
<stop offset="1" stop-color="#1A7E8C"/>
</linearGradient>
</defs>
</svg>
