<svg width="180" height="60" viewBox="0 0 180 60" fill="none" xmlns="http://www.w3.org/2000/svg">
<path d="M43.8816 30.0001C43.8816 39.6823 36.0327 47.5312 26.3505 47.5312C16.6683 47.5312 8.81936 39.6823 8.81936 30.0001C8.81936 20.3179 16.6683 12.469 26.3505 12.469C36.0327 12.469 43.8816 20.3179 43.8816 30.0001Z" stroke="#0089D7" stroke-width="2.05095"/>
<path d="M43.8824 29.9998C43.8824 35.5826 39.3567 40.1083 33.7739 40.1083C28.1912 40.1083 23.6654 35.5826 23.6654 29.9998C23.6654 24.417 28.1912 19.8913 33.7739 19.8913C39.3567 19.8913 43.8824 24.417 43.8824 29.9998Z" stroke="#0089D7" stroke-width="2.05095"/>
<path d="M33.7734 19.892C43.4556 19.892 51.3045 27.741 51.3045 37.4231C51.3045 47.1053 43.4556 54.9543 33.7734 54.9543C24.0912 54.9543 16.2423 47.1053 16.2423 37.4231C16.2423 27.741 24.0912 19.892 33.7734 19.892Z" stroke="#0089D7" stroke-width="2.05095"/>
<path d="M58.7277 30.0001C58.7277 39.6823 50.8787 47.5312 41.1966 47.5312C31.5144 47.5312 23.6654 39.6823 23.6654 30.0001C23.6654 20.3179 31.5144 12.469 41.1966 12.469C50.8787 12.469 58.7277 20.3179 58.7277 30.0001Z" stroke="#0089D7" stroke-width="2.05095"/>
<path d="M33.7734 5.04581C43.4556 5.04581 51.3045 12.8948 51.3045 22.5769C51.3045 32.2591 43.4556 40.1081 33.7734 40.1081C24.0912 40.1081 16.2423 32.2591 16.2423 22.5769C16.2423 12.8948 24.0912 5.04581 33.7734 5.04581Z" stroke="#0089D7" stroke-width="2.05095"/>
<path d="M68.4875 37V23H70.6475V37H68.4875ZM76.5656 37V23H80.6256L83.6856 35.56H84.0056L87.0656 23H91.1256V37H89.0256V24.52H88.7056L85.6656 37H82.0256L78.9856 24.52H78.6656V37H76.5656ZM97.0461 37V23H102.606C103.459 23 104.219 23.1733 104.886 23.52C105.566 23.8533 106.093 24.3333 106.466 24.96C106.853 25.5733 107.046 26.3133 107.046 27.18V27.44C107.046 28.3067 106.846 29.0533 106.446 29.68C106.059 30.3067 105.533 30.7867 104.866 31.12C104.199 31.4533 103.446 31.62 102.606 31.62H99.2061V37H97.0461ZM99.2061 29.66H102.386C103.146 29.66 103.753 29.46 104.206 29.06C104.659 28.66 104.886 28.1133 104.886 27.42V27.22C104.886 26.5133 104.659 25.96 104.206 25.56C103.753 25.16 103.146 24.96 102.386 24.96H99.2061V29.66ZM109.963 37L113.963 23H117.763L121.743 37H119.523L118.603 33.7H113.123L112.203 37H109.963ZM113.663 31.7H118.063L116.023 24.34H115.703L113.663 31.7ZM131.684 37.28C129.977 37.28 128.624 36.8 127.624 35.84C126.624 34.8667 126.124 33.4667 126.124 31.64V28.36C126.124 26.5333 126.624 25.14 127.624 24.18C128.624 23.2067 129.977 22.72 131.684 22.72C133.364 22.72 134.657 23.1867 135.564 24.12C136.484 25.0533 136.944 26.3267 136.944 27.94V28.06H134.804V27.88C134.804 26.9333 134.544 26.16 134.024 25.56C133.517 24.96 132.737 24.66 131.684 24.66C130.617 24.66 129.784 24.9867 129.184 25.64C128.584 26.28 128.284 27.1733 128.284 28.32V31.68C128.284 32.8133 128.584 33.7067 129.184 34.36C129.784 35.0133 130.617 35.34 131.684 35.34C132.737 35.34 133.517 35.04 134.024 34.44C134.544 33.8267 134.804 33.0533 134.804 32.12V31.78H136.944V32.06C136.944 33.6733 136.484 34.9467 135.564 35.88C134.657 36.8133 133.364 37.28 131.684 37.28ZM145.382 37V24.96H141.082V23H151.842V24.96H147.542V37H145.382ZM161.247 37.28C160.194 37.28 159.261 37.0933 158.447 36.72C157.634 36.3467 156.994 35.8 156.527 35.08C156.074 34.3467 155.847 33.46 155.847 32.42V31.92H157.987V32.42C157.987 33.4067 158.281 34.1467 158.867 34.64C159.467 35.1333 160.261 35.38 161.247 35.38C162.247 35.38 163.001 35.1733 163.507 34.76C164.014 34.3333 164.267 33.7867 164.267 33.12C164.267 32.68 164.147 32.32 163.907 32.04C163.667 31.76 163.327 31.54 162.887 31.38C162.447 31.2067 161.921 31.0467 161.307 30.9L160.567 30.72C159.674 30.5067 158.894 30.2467 158.227 29.94C157.574 29.62 157.067 29.2 156.707 28.68C156.347 28.16 156.167 27.4933 156.167 26.68C156.167 25.8533 156.367 25.1467 156.767 24.56C157.181 23.9733 157.747 23.52 158.467 23.2C159.187 22.88 160.034 22.72 161.007 22.72C161.981 22.72 162.847 22.8867 163.607 23.22C164.381 23.5533 164.987 24.0467 165.427 24.7C165.867 25.3533 166.087 26.1733 166.087 27.16V27.88H163.947V27.16C163.947 26.56 163.821 26.0733 163.567 25.7C163.327 25.3267 162.987 25.0533 162.547 24.88C162.107 24.7067 161.594 24.62 161.007 24.62C160.154 24.62 159.487 24.8 159.007 25.16C158.541 25.5067 158.307 25.9933 158.307 26.62C158.307 27.0467 158.407 27.4 158.607 27.68C158.821 27.9467 159.127 28.1667 159.527 28.34C159.927 28.5133 160.427 28.6667 161.027 28.8L161.767 28.98C162.674 29.18 163.474 29.44 164.167 29.76C164.861 30.0667 165.407 30.4867 165.807 31.02C166.207 31.5533 166.407 32.24 166.407 33.08C166.407 33.92 166.194 34.6533 165.767 35.28C165.354 35.9067 164.761 36.4 163.987 36.76C163.214 37.1067 162.301 37.28 161.247 37.28Z" fill="#0089D7"/>
</svg>
