<?xml version="1.0" encoding="utf-8"?>
<!-- Generator: Adobe Illustrator 24.0.3, SVG Export Plug-In . SVG Version: 6.00 Build 0)  -->
<svg version="1.1" id="Layer_1" xmlns="http://www.w3.org/2000/svg" xmlns:xlink="http://www.w3.org/1999/xlink" x="0px" y="0px"
	 viewBox="0 0 17 17" style="enable-background:new 0 0 17 17;" xml:space="preserve">
<path d="M17,8.8c-0.2,4.7-4.1,8.3-8.8,8.2C3.5,16.8-0.2,12.9,0,8.2C0.2,3.5,4.1-0.2,8.8,0C13.5,0.2,17.2,4.1,17,8.8z M15.7,8.8
	c0.2-4-2.9-7.3-6.9-7.4c-4-0.2-7.3,2.9-7.4,6.9c-0.2,4,2.9,7.3,6.9,7.4C12.2,15.8,15.5,12.7,15.7,8.8z M3.3,8.7l0.1,0.1l2.8,3.2
	c0.1,0.1,0.1,0.1,0.3,0.1c0.1,0,0.2,0,0.3-0.1l6.2-5.8c0.2-0.1,0.2-0.4,0-0.5l-0.5-0.5c-0.1-0.2-0.4-0.2-0.5,0l0,0L6.7,10
	C6.6,10,6.5,10,6.4,10l-2-2.2l0,0c-0.1-0.2-0.4-0.2-0.5,0L3.4,8.2C3.3,8.2,3.2,8.3,3.2,8.4S3.3,8.6,3.3,8.7L3.3,8.7z"/>
</svg>
