<?xml version="1.0" encoding="utf-8"?>
<!-- Generator: Adobe Illustrator 24.0.3, SVG Export Plug-In . SVG Version: 6.00 Build 0)  -->
<svg version="1.1" id="Layer_1" xmlns="http://www.w3.org/2000/svg" xmlns:xlink="http://www.w3.org/1999/xlink" x="0px" y="0px"
	 viewBox="0 0 17 16.1" style="enable-background:new 0 0 17 16.1;" xml:space="preserve">
<path d="M15.9,7.2H1.1C0.6,7.2,0.3,7.6,0.3,8c0,0.4,0.4,0.8,0.8,0.8h14.9c0.4,0,0.8-0.4,0.8-0.8C16.8,7.6,16.4,7.2,15.9,7.2z
	 M15.9,9.2H1.1C0.5,9.2,0,8.7,0,8.1C0,7.5,0.5,7,1.1,7h14.9C16.5,7,17,7.5,17,8.1C17,8.7,16.6,9.2,15.9,9.2z M1.1,7.5
	C0.7,7.5,0.5,7.8,0.5,8c0,0.3,0.3,0.5,0.5,0.5h14.9c0.3,0,0.5-0.3,0.5-0.5c0-0.3-0.3-0.5-0.5-0.5H1.1L1.1,7.5z M2.2,8l6.4-6.4
	C9,1.3,9,0.8,8.6,0.5c-0.3-0.3-0.9-0.3-1.2,0l-7,7c-0.3,0.3-0.3,0.9,0,1.2l7,7c0.2,0.2,0.4,0.2,0.6,0.2c0.2,0,0.4-0.1,0.6-0.2
	c0.3-0.3,0.3-0.9,0-1.2L2.2,8L2.2,8z M8,16.1c-0.3,0-0.6-0.1-0.7-0.3l-7-7c-0.4-0.4-0.4-1.1,0-1.5l7-7c0.4-0.4,1.1-0.4,1.5,0
	c0.2,0.2,0.3,0.5,0.3,0.7S9.1,1.7,8.8,1.8L2.6,8.1l6.2,6.2c0.2,0.2,0.3,0.5,0.3,0.7c0,0.3-0.1,0.6-0.3,0.7C8.6,16,8.3,16.1,8,16.1
	L8,16.1z M8,0.5c-0.2,0-0.3,0.1-0.4,0.2l-7,7c-0.2,0.2-0.2,0.6,0,0.8l7,7c0.2,0.2,0.6,0.2,0.8,0c0.1-0.1,0.2-0.3,0.2-0.4
	c0-0.1-0.1-0.3-0.2-0.4L1.9,8.1l6.6-6.6c0.1-0.1,0.2-0.3,0.2-0.4c0-0.2-0.1-0.3-0.2-0.4C8.3,0.6,8.2,0.5,8,0.5L8,0.5z"/>
</svg>
