<?xml version="1.0" encoding="utf-8"?>
<!-- Generator: Adobe Illustrator 24.0.3, SVG Export Plug-In . SVG Version: 6.00 Build 0)  -->
<svg version="1.1" id="Layer_1" xmlns="http://www.w3.org/2000/svg" xmlns:xlink="http://www.w3.org/1999/xlink" x="0px" y="0px"
	 viewBox="0 0 17 18.9" style="enable-background:new 0 0 17 18.9;" xml:space="preserve">
<path d="M5.7,8.5H3.8v1.9h1.9V8.5z M9.4,8.5H7.6v1.9h1.9V8.5H9.4z M13.2,8.5h-1.9v1.9h1.9V8.5z M15.1,1.9h-0.9V0h-1.9v1.9H4.7V0H2.8
	v1.9H1.9C0.9,1.9,0,2.7,0,3.8V17c0,1.1,0.8,1.9,1.9,1.9h13.2c1,0,1.9-0.8,1.9-1.9V3.8C17,2.7,16.2,1.9,15.1,1.9L15.1,1.9z M15.1,17
	H1.9V6.6h13.2L15.1,17L15.1,17z"/>
</svg>
