<?xml version="1.0" encoding="utf-8"?>
<!-- Generator: Adobe Illustrator 24.0.3, SVG Export Plug-In . SVG Version: 6.00 Build 0)  -->
<svg version="1.1" id="Layer_1" xmlns="http://www.w3.org/2000/svg" xmlns:xlink="http://www.w3.org/1999/xlink" x="0px" y="0px"
	 viewBox="0 0 17 15.6" style="enable-background:new 0 0 17 15.6;" xml:space="preserve">
<path d="M2.7,1l2.1,0l0-0.5C4.8,0.2,5,0,5.3,0c0.3,0,0.5,0.2,0.5,0.5l0,0.5l5.3,0V0.5c0-0.3,0.2-0.5,0.5-0.5c0.3,0,0.5,0.2,0.5,0.5
	V1l2.1,0C15.8,1,17,2.2,17,3.6l0,9.4c0,1.5-1.2,2.6-2.7,2.6l-11.7,0C1.2,15.6,0,14.5,0,13l0-9.4C0,2.2,1.2,1,2.7,1L2.7,1z M15.9,3.6
	c0-0.8-0.7-1.6-1.6-1.6l-2.1,0v0.5c0,0.3-0.2,0.5-0.5,0.5c-0.3,0-0.5-0.2-0.5-0.5V2.1l-5.3,0l0,0.5c0,0.3-0.2,0.5-0.5,0.5
	C5,3.1,4.8,2.9,4.8,2.6l0-0.5l-2.1,0c-0.9,0-1.6,0.7-1.6,1.6l0,1.6l14.9,0L15.9,3.6L15.9,3.6z M1.1,13c0,0.8,0.7,1.6,1.6,1.6l11.7,0
	c0.9,0,1.6-0.7,1.6-1.6l0-6.8l-14.9,0L1.1,13L1.1,13z"/>
</svg>
