<?xml version="1.0" encoding="utf-8"?>
<!-- Generator: Adobe Illustrator 24.0.3, SVG Export Plug-In . SVG Version: 6.00 Build 0)  -->
<svg version="1.1" id="Layer_1" xmlns="http://www.w3.org/2000/svg" xmlns:xlink="http://www.w3.org/1999/xlink" x="0px" y="0px"
	 viewBox="0 0 17 19.9" style="enable-background:new 0 0 17 19.9;" xml:space="preserve">
<path d="M14.7,19.9H2.3c-1.3,0-2.3-1-2.3-2.3V2.3C0,1,1,0,2.3,0h12.3c1.3,0,2.3,1,2.3,2.3v15.3C17,18.9,16,19.9,14.7,19.9L14.7,19.9
	z M2.3,1.2c-0.6,0-1.1,0.5-1.1,1.1v15.3c0,0.6,0.5,1.1,1.1,1.1h12.3c0.6,0,1.1-0.5,1.1-1.1V2.3c0-0.6-0.5-1.1-1.1-1.1H2.3z M3.5,4.9
	h10.4v1.2H3.5V4.9L3.5,4.9z M3.5,7.8h10.4V9H3.5V7.8L3.5,7.8z M3.5,10.8h10.4V12H3.5V10.8L3.5,10.8z"/>
</svg>
