<?xml version="1.0" encoding="utf-8"?>
<!-- Generator: Adobe Illustrator 24.0.3, SVG Export Plug-In . SVG Version: 6.00 Build 0)  -->
<svg version="1.1" id="Layer_1" xmlns="http://www.w3.org/2000/svg" xmlns:xlink="http://www.w3.org/1999/xlink" x="0px" y="0px"
	 viewBox="0 0 17 20" style="enable-background:new 0 0 17 20;" xml:space="preserve">
<path d="M15,20H2c-1.1,0-2-0.9-2-2V2c0-1.1,0.9-2,2-2h13c1.1,0,2,0.9,2,2v16C17,19.1,16.1,20,15,20L15,20z M2,1.1c-0.5,0-1,0.4-1,1
	V18c0,0.5,0.4,1,1,1h13c0.5,0,1-0.4,1-1V2c0-0.5-0.4-1-1-1H2V1.1z M3.5,10.2h10.3v1H3.5V10.2z M14,8.2H3.7V3H14V8.2L14,8.2z
	 M4.6,7.3h8.6V3.9H4.6V7.3L4.6,7.3z M3.5,13.2h10.3v1H3.5V13.2z"/>
</svg>
