<?xml version="1.0" encoding="utf-8"?>
<!-- Generator: Adobe Illustrator 24.0.3, SVG Export Plug-In . SVG Version: 6.00 Build 0)  -->
<svg version="1.1" id="Layer_1" xmlns="http://www.w3.org/2000/svg" xmlns:xlink="http://www.w3.org/1999/xlink" x="0px" y="0px"
	 viewBox="0 0 17 17" style="enable-background:new 0 0 17 17;" xml:space="preserve">
<path d="M7,8.5l-6.7,6.7c-0.4,0.4-0.4,1.1,0,1.5c0.4,0.4,1.1,0.4,1.5,0L8.5,10l6.7,6.7c0.4,0.4,1.1,0.4,1.5,0c0.4-0.4,0.4-1.1,0-1.5
	L10,8.5l6.7-6.7c0.4-0.4,0.4-1.1,0-1.5C16.5,0.1,16.2,0,15.9,0s-0.5,0.1-0.8,0.3L8.5,7L1.8,0.3C1.6,0.1,1.3,0,1.1,0S0.5,0.1,0.3,0.3
	c-0.4,0.4-0.4,1.1,0,1.5L7,8.5L7,8.5z"/>
</svg>
