<?xml version="1.0" encoding="utf-8"?>
<!-- Generator: Adobe Illustrator 24.0.3, SVG Export Plug-In . SVG Version: 6.00 Build 0)  -->
<svg version="1.1" id="Layer_1" xmlns="http://www.w3.org/2000/svg" xmlns:xlink="http://www.w3.org/1999/xlink" x="0px" y="0px"
	 viewBox="0 0 17 11.1" style="enable-background:new 0 0 17 11.1;" xml:space="preserve">
<path d="M3.2,5.8C1.5,5.8,0,7.2,0,9c0,0.2,0,0.3,0.1,0.5h3.3c0-1.3,0.5-2.5,1.4-3.3C4.3,5.9,3.8,5.8,3.2,5.8L3.2,5.8z M5.8,2.4
	c0,1.3,1,2.4,2.4,2.4s2.4-1,2.4-2.4S9.4,0,8.1,0S5.8,1,5.8,2.4z M3.1,1C2,1,1,2,1,3.1S2,5.2,3.1,5.2s2.1-0.9,2.1-2.1S4.3,1,3.1,1
	L3.1,1z M13.6,3.8c0.5,0,0.9,0.1,1.4,0.3c0.2-0.3,0.2-0.6,0.2-0.9C15.2,2,14.3,1,13.1,1S11,2,11,3.1c0,0.5,0.2,0.9,0.5,1.3
	C12.1,4.1,12.9,3.8,13.6,3.8L13.6,3.8z M9.6,7.8c0-0.8,0.2-1.5,0.6-2.1C9.7,5.5,9.1,5.3,8.4,5.3c-2.3,0-4.2,1.9-4.2,4.2H10
	C9.7,9,9.6,8.4,9.6,7.8L9.6,7.8z M13.7,4.6c-1.8,0-3.3,1.5-3.3,3.3s1.5,3.3,3.3,3.3S17,9.7,17,7.9S15.5,4.6,13.7,4.6L13.7,4.6z
	 M15.5,6.9l-2.3,2.4c-0.1,0.1-0.3,0.1-0.4,0L11.6,8c-0.1-0.1-0.1-0.3,0-0.4c0.1-0.1,0.3-0.1,0.4,0l1,1l2.1-2.2
	c0.1-0.1,0.3-0.1,0.4,0C15.6,6.6,15.6,6.8,15.5,6.9L15.5,6.9z"/>
</svg>
