<?xml version="1.0" encoding="utf-8"?>
<!-- Generator: Adobe Illustrator 24.0.3, SVG Export Plug-In . SVG Version: 6.00 Build 0)  -->
<svg version="1.1" id="Layer_1" xmlns="http://www.w3.org/2000/svg" xmlns:xlink="http://www.w3.org/1999/xlink" x="0px" y="0px"
	 viewBox="0 0 17 11.3" style="enable-background:new 0 0 17 11.3;" xml:space="preserve">
<path d="M7.8,0.6c0.9,0,1.7,0.8,1.7,1.7S8.8,4,7.8,4S6.2,3.2,6.2,2.3S6.9,0.6,7.8,0.6z M7.8,4.6c1.3,0,2.3-1,2.3-2.3S9.1,0,7.8,0
	S5.5,1,5.5,2.3S6.6,4.6,7.8,4.6z M0.7,9.2c0-0.2-0.1-0.3-0.1-0.5c0-1.4,1.1-2.5,2.5-2.5c0.4,0,0.7,0.1,1,0.2
	c0.2-0.2,0.3-0.4,0.5-0.5C4.1,5.7,3.7,5.5,3.1,5.5C1.4,5.5,0,7,0,8.7C0,8.8,0,9,0.1,9.1L0.7,9.2L0.7,9.2z M3,1.8
	c0.7,0,1.3,0.6,1.3,1.3S3.8,4.4,3,4.4S1.7,3.8,1.7,3.1S2.3,1.8,3,1.8z M3,5.1c1.1,0,2-0.9,2-2S4.1,1,3,1s-2,0.9-2,2S1.9,5.1,3,5.1
	L3,5.1z M13.5,11.3c-1.9,0-3.5-1.5-3.5-3.5s1.6-3.5,3.5-3.5S17,5.9,17,7.8S15.4,11.3,13.5,11.3L13.5,11.3z M13.5,5
	c-1.6,0-2.9,1.3-2.9,2.9s1.3,2.9,2.9,2.9s2.9-1.3,2.9-2.9S15.1,5,13.5,5z M11.8,4c-0.3-0.3-0.4-0.6-0.4-1c0-0.7,0.6-1.3,1.3-1.3
	c0.7,0,1.3,0.6,1.3,1.3c0,0.3-0.1,0.5-0.2,0.7c0.3,0.1,0.5,0.1,0.7,0.2c0.1-0.3,0.2-0.6,0.2-0.9c0-1.1-0.9-2-2-2s-2,0.9-2,2
	c0,0.5,0.2,1,0.5,1.3C11.4,4.2,11.6,4.1,11.8,4L11.8,4z M11.4,8.2c-0.1-0.1-0.1-0.1-0.1-0.1c0-0.1,0-0.1,0.1-0.1l0.2-0.2
	c0.1-0.1,0.2-0.1,0.2,0l0,0l0.9,0.9c0.1,0.1,0.1,0.1,0.1,0l2.1-2.1c0.1-0.1,0.2-0.1,0.2,0l0.2,0.2c0.1,0.1,0.1,0.2,0,0.2l-2.5,2.5
	c-0.1,0.1-0.1,0.1-0.1,0.1s-0.1,0-0.1-0.1L11.4,8.2L11.4,8.2z M9.9,5.5C9.4,5.2,8.8,5,8.1,5C5.9,5,4,6.9,4,9.1h0.7
	c0-1.9,1.5-3.4,3.4-3.4c0.6,0,1.1,0.2,1.5,0.4C9.7,5.9,9.8,5.7,9.9,5.5L9.9,5.5z"/>
</svg>
