<?xml version="1.0" encoding="utf-8"?>
<!-- Generator: Adobe Illustrator 24.0.3, SVG Export Plug-In . SVG Version: 6.00 Build 0)  -->
<svg version="1.1" id="Layer_1" xmlns="http://www.w3.org/2000/svg" xmlns:xlink="http://www.w3.org/1999/xlink" x="0px" y="0px"
	 viewBox="0 0 17 15.1" style="enable-background:new 0 0 17 15.1;" xml:space="preserve">
<path d="M1.7,12.8l0-9.7C0.7,3.5,0,4.3,0,5.3l0,7.6c0,1.3,1.1,2.3,2.6,2.3h8.5c1.1,0,2.1-0.6,2.4-1.5H2.6
	C2.1,13.6,1.7,13.3,1.7,12.8L1.7,12.8z M14.4,0L5.9,0C4.5,0,3.4,1,3.4,2.3l0,7.6c0,1.3,1.1,2.3,2.6,2.3h8.5c1.4,0,2.6-1,2.6-2.3V2.3
	C17,1,15.9,0,14.4,0z M15.3,9.8c0,0.4-0.4,0.8-0.8,0.8H5.9c-0.5,0-0.8-0.3-0.8-0.8V2.3c0-0.4,0.4-0.8,0.8-0.8l8.5,0
	c0.5,0,0.8,0.3,0.8,0.8V9.8L15.3,9.8z"/>
</svg>
