<?xml version="1.0" encoding="utf-8"?>
<!-- Generator: Adobe Illustrator 24.0.3, SVG Export Plug-In . SVG Version: 6.00 Build 0)  -->
<svg version="1.1" id="Layer_1" xmlns="http://www.w3.org/2000/svg" xmlns:xlink="http://www.w3.org/1999/xlink" x="0px" y="0px"
	 viewBox="0 0 17 18" style="enable-background:new 0 0 17 18;" xml:space="preserve">
<path d="M2,6l3.3,0c0.4,0,0.7,0.3,0.7,0.6S5.6,7.3,5.2,7.3L2,7.3c-0.4,0-0.7,0.3-0.7,0.6l0,8.2c0,0.3,0.3,0.6,0.7,0.6l13.1,0
	c0.4,0,0.7-0.3,0.7-0.6l0-8.2c0-0.3-0.3-0.6-0.7-0.6l-3.3,0c-0.4,0-0.7-0.3-0.7-0.6c0-0.3,0.3-0.6,0.7-0.6L15,6c1.1,0,2,0.8,2,1.9
	l0,8.2c0,1-0.9,1.9-2,1.9L2,18c-1.1,0-2-0.8-2-1.9l0-8.2C0,6.8,0.9,6,2,6L2,6z M4.7,8.8c0.3-0.2,0.7-0.2,0.9,0l2.2,2l0-10.3
	C7.8,0.3,8.1,0,8.5,0c0.4,0,0.7,0.3,0.7,0.6l0,10.3l2.2-2c0.3-0.2,0.7-0.2,0.9,0c0.2,0.2,0.2,0.6,0,0.9L9,12.8
	c-0.3,0.2-0.7,0.2-0.9,0c0,0,0,0,0,0L4.7,9.7C4.4,9.5,4.4,9.1,4.7,8.8L4.7,8.8z"/>
</svg>
