<?xml version="1.0" encoding="utf-8"?>
<!-- Generator: Adobe Illustrator 24.0.3, SVG Export Plug-In . SVG Version: 6.00 Build 0)  -->
<svg version="1.1" id="Layer_1" xmlns="http://www.w3.org/2000/svg" xmlns:xlink="http://www.w3.org/1999/xlink" x="0px" y="0px"
	 viewBox="0 0 17 9.5" style="enable-background:new 0 0 17 9.5;" xml:space="preserve">
<path d="M16.2,4.4c-0.9-1.2-2.1-2.1-3.3-2.7c-0.4-0.2-0.8-0.4-1.1-0.5c1,0.9,1.6,2.1,1.6,3.6s-0.6,2.7-1.6,3.6
	c0.4-0.1,0.8-0.3,1.1-0.5c1.3-0.6,2.5-1.6,3.3-2.7C16.4,4.9,16.4,4.6,16.2,4.4L16.2,4.4z M8.5,0.6c-2.3,0-4.1,1.8-4.1,4.1
	s1.8,4.1,4.1,4.1s4.1-1.8,4.1-4.1S10.8,0.6,8.5,0.6L8.5,0.6z M4.1,1.7C2.8,2.3,1.7,3.3,0.8,4.4c-0.2,0.2-0.2,0.5,0,0.8
	c0.9,1.1,2,2.1,3.3,2.7c0.4,0.2,0.8,0.4,1.1,0.5c-1-0.9-1.6-2.1-1.6-3.6s0.6-2.7,1.6-3.6C4.9,1.3,4.5,1.5,4.1,1.7L4.1,1.7z
	 M16.7,5.6c-1,1.2-2.2,2.2-3.6,2.9c-1.4,0.7-2.9,1.1-4.5,1.1c0,0-0.2,0-0.3,0c-1.6,0-3.1-0.4-4.5-1.1C2.4,7.8,1.2,6.7,0.3,5.6
	c-0.4-0.5-0.4-1.1,0-1.6c1-1.2,2.2-2.2,3.6-2.9C5.3,0.4,6.8,0,8.4,0c0,0,0.2,0,0.3,0c1.6,0,3.1,0.4,4.5,1.1s2.6,1.7,3.6,2.9
	C17.1,4.4,17.1,5.1,16.7,5.6z M8.5,3.7c-0.6,0-1.1,0.5-1.1,1.1s0.5,1.1,1.1,1.1c0.6,0,1.1-0.5,1.1-1.1S9.1,3.7,8.5,3.7z M8.5,6.5
	c-1,0-1.8-0.8-1.8-1.7S7.5,3,8.5,3s1.8,0.8,1.8,1.7S9.5,6.5,8.5,6.5L8.5,6.5z"/>
</svg>
