<?xml version="1.0" encoding="utf-8"?>
<!-- Generator: Adobe Illustrator 24.0.3, SVG Export Plug-In . SVG Version: 6.00 Build 0)  -->
<svg version="1.1" id="Layer_1" xmlns="http://www.w3.org/2000/svg" xmlns:xlink="http://www.w3.org/1999/xlink" x="0px" y="0px"
	 viewBox="0 0 17 15" style="enable-background:new 0 0 17 15;" xml:space="preserve">
<path d="M16.2,8.1c-0.9,1.1-2.1,2.1-3.3,2.7c-0.4,0.2-0.8,0.3-1.1,0.5c1-0.9,1.6-2.1,1.6-3.5s-0.6-2.7-1.6-3.5
	c0.4,0.1,0.8,0.3,1.1,0.5c1.3,0.6,2.5,1.6,3.3,2.7C16.4,7.6,16.4,7.9,16.2,8.1L16.2,8.1z M8.5,11.8c-2.3,0-4.1-1.8-4.1-4.1
	s1.8-4.1,4.1-4.1c2.3,0,4.1,1.8,4.1,4.1S10.8,11.8,8.5,11.8L8.5,11.8z M4.1,10.8c-1.3-0.6-2.5-1.6-3.3-2.7c-0.2-0.2-0.2-0.5,0-0.8
	c0.9-1.1,2.1-2.1,3.3-2.7c0.4-0.2,0.8-0.4,1.1-0.5C4.3,5,3.7,6.3,3.7,7.7s0.6,2.7,1.6,3.5C4.9,11.1,4.5,11,4.1,10.8L4.1,10.8z
	 M16.7,6.9c-1-1.2-2.2-2.2-3.6-2.9C11.7,3.4,10.2,3,8.6,3c0,0-0.2,0-0.3,0C6.8,3,5.2,3.4,3.8,4S1.2,5.7,0.3,6.9
	c-0.4,0.5-0.4,1.1,0,1.6c1,1.2,2.2,2.2,3.6,2.9c1.4,0.7,2.9,1.1,4.5,1.1c0,0,0.2,0,0.3,0c1.6,0,3.1-0.4,4.5-1.1s2.6-1.7,3.6-2.9
	C17.1,8,17.1,7.4,16.7,6.9z M8.5,8.6c-0.6,0-1.1-0.5-1.1-1.1s0.5-1.1,1.1-1.1s1.1,0.5,1.1,1.1S9.1,8.6,8.5,8.6L8.5,8.6z M8.5,5.7
	c-1,0-1.8,0.8-1.8,1.8s0.8,1.8,1.8,1.8s1.8-0.8,1.8-1.8S9.5,5.7,8.5,5.7z M12.9,0.4L4.5,14.6L12.9,0.4z M4.5,15c-0.1,0-0.1,0-0.2,0
	c-0.2-0.1-0.2-0.4-0.2-0.6l8.3-14.3C12.6,0,12.9,0,13.1,0c0.2,0.1,0.2,0.4,0.2,0.6L4.9,14.8C4.8,15,4.7,15,4.5,15L4.5,15z"/>
</svg>
