<?xml version="1.0" encoding="utf-8"?>
<!-- Generator: Adobe Illustrator 24.0.3, SVG Export Plug-In . SVG Version: 6.00 Build 0)  -->
<svg version="1.1" id="Layer_1" xmlns="http://www.w3.org/2000/svg" xmlns:xlink="http://www.w3.org/1999/xlink" x="0px" y="0px"
	 viewBox="0 0 17 31.9" style="enable-background:new 0 0 17 31.9;" xml:space="preserve">
<path d="M16.4,0l-4.1,0C7.7,0,4.7,3.1,4.7,7.8v3.6H0.6c-0.4,0-0.6,0.3-0.6,0.7v5.2C0,17.7,0.3,18,0.6,18h4.1v13.2
	c0,0.4,0.3,0.6,0.6,0.6h5.3c0.4,0,0.6-0.3,0.6-0.6V18h4.8c0.4,0,0.6-0.3,0.6-0.6l0-5.2c0-0.2-0.1-0.3-0.2-0.5
	c-0.1-0.1-0.3-0.2-0.5-0.2h-4.8V8.4c0-1.5,0.3-2.2,2.2-2.2l2.7,0c0.4,0,0.6-0.3,0.6-0.6V0.7C17,0.3,16.7,0,16.4,0L16.4,0z"/>
</svg>
