<?xml version="1.0" encoding="utf-8"?>
<!-- Generator: Adobe Illustrator 24.0.3, SVG Export Plug-In . SVG Version: 6.00 Build 0)  -->
<svg version="1.1" id="Layer_1" xmlns="http://www.w3.org/2000/svg" xmlns:xlink="http://www.w3.org/1999/xlink" x="0px" y="0px"
	 viewBox="0 0 17 14.7" style="enable-background:new 0 0 17 14.7;" xml:space="preserve">
<path d="M1.4,1.4C2.3,0.5,3.4,0,4.7,0S7.1,0.5,8,1.4l0.5,0.5L9,1.4C9.9,0.5,11,0,12.3,0c1.3,0,2.4,0.5,3.3,1.4
	c0.9,0.9,1.4,2,1.4,3.3c0,1.2-0.5,2.4-1.4,3.3l-6.8,6.6c-0.1,0.1-0.2,0.1-0.3,0.1s-0.2,0-0.3-0.1L1.4,7.9C0.5,7,0,5.9,0,4.6
	C0,3.4,0.5,2.2,1.4,1.4L1.4,1.4z"/>
</svg>
