<?xml version="1.0" encoding="utf-8"?>
<!-- Generator: Adobe Illustrator 24.0.3, SVG Export Plug-In . SVG Version: 6.00 Build 0)  -->
<svg version="1.1" id="Layer_1" xmlns="http://www.w3.org/2000/svg" xmlns:xlink="http://www.w3.org/1999/xlink" x="0px" y="0px"
	 viewBox="0 0 17 18.9" style="enable-background:new 0 0 17 18.9;" xml:space="preserve">
<path d="M11.3,18.9c0,0-0.1,0-0.1,0c-1.5-0.4-2.5-1-3.5-2c-1.3-1.3-2.1-3.1-2.1-4.9c0-1.5,1.3-2.8,2.9-2.8s2.9,1.3,2.9,2.8
	c0,1,0.9,1.8,2,1.8c1.1,0,2-0.8,2-1.8c0-3.6-3.1-6.5-6.8-6.5C5.8,5.5,3.3,7,2.2,9.3C1.9,10.1,1.7,11,1.7,12c0,0.7,0.1,1.9,0.6,3.4
	c0.1,0.2,0,0.5-0.3,0.6c-0.2,0.1-0.5,0-0.6-0.3C1,14.5,0.7,13.3,0.7,12c0-1.1,0.2-2.2,0.6-3.1c1.3-2.6,4-4.4,7.1-4.4
	c4.3,0,7.8,3.3,7.8,7.4c0,1.5-1.3,2.8-2.9,2.8c-1.6,0-2.9-1.2-2.9-2.8c0-1-0.9-1.8-2-1.8c-1.1,0-2,0.8-2,1.8c0,1.6,0.6,3.1,1.8,4.3
	c0.9,0.9,1.8,1.4,3.1,1.8c0.3,0.1,0.4,0.3,0.3,0.6C11.7,18.8,11.5,18.9,11.3,18.9L11.3,18.9z M6.4,18.7c-0.1,0-0.2,0-0.3-0.1
	c-0.8-0.8-1.3-1.4-1.9-2.5c-0.7-1.2-1-2.6-1-4.1c0-2.8,2.4-5.1,5.3-5.1c2.9,0,5.3,2.3,5.3,5.1c0,0.3-0.2,0.5-0.5,0.5
	c-0.3,0-0.5-0.2-0.5-0.5c0-2.3-2-4.2-4.4-4.2c-2.4,0-4.4,1.9-4.4,4.2c0,1.4,0.3,2.6,0.9,3.6c0.6,1.1,1,1.6,1.7,2.3
	c0.2,0.2,0.2,0.5,0,0.7C6.6,18.7,6.5,18.7,6.4,18.7L6.4,18.7z M0.5,7.3c-0.1,0-0.2,0-0.3-0.1C0,7.1-0.1,6.8,0.1,6.6
	C1,5.2,2.2,4.2,3.6,3.5c3-1.5,6.8-1.5,9.7,0c1.4,0.7,2.6,1.8,3.5,3.1C17.1,6.7,17,7,16.8,7.2c-0.2,0.2-0.5,0.1-0.7-0.1
	c-0.8-1.2-1.9-2.1-3.2-2.8c-2.7-1.4-6.2-1.4-8.9,0C2.8,5,1.7,5.9,0.8,7.1C0.8,7.2,0.6,7.3,0.5,7.3L0.5,7.3z M14,2.3
	c-0.1,0-0.2,0-0.2-0.1C12,1.3,10.4,0.9,8.5,0.9c-1.9,0-3.6,0.4-5.3,1.3C3,2.4,2.7,2.3,2.6,2.1c-0.1-0.2,0-0.5,0.2-0.6
	C4.6,0.5,6.5,0,8.5,0c2,0,3.8,0.4,5.7,1.4c0.2,0.1,0.3,0.4,0.2,0.6C14.3,2.2,14.2,2.3,14,2.3L14,2.3z"/>
</svg>
