<?xml version="1.0" encoding="utf-8"?>
<!-- Generator: Adobe Illustrator 24.0.3, SVG Export Plug-In . SVG Version: 6.00 Build 0)  -->
<svg version="1.1" id="Layer_1" xmlns="http://www.w3.org/2000/svg" xmlns:xlink="http://www.w3.org/1999/xlink" x="0px" y="0px"
	 viewBox="0 0 17 30" style="enable-background:new 0 0 17 30;" xml:space="preserve">
<path d="M17,10.3c-0.1-0.2-0.3-0.3-0.5-0.3h-5.9l5.9-9.2c0.1-0.1,0.1-0.3,0-0.5C16.4,0.1,16.2,0,16,0H8C7.8,0,7.6,0.1,7.5,0.3
	L0,15.3C0,15.4,0,15.6,0,15.7C0.1,15.9,0.3,16,0.5,16h5.1L0,29.3C0,29.6,0,29.9,0.2,30C0.3,30,0.4,30,0.5,30c0.1,0,0.3-0.1,0.4-0.2
	l16-19C17,10.7,17,10.5,17,10.3L17,10.3z"/>
</svg>
