<?xml version="1.0" encoding="utf-8"?>
<!-- Generator: Adobe Illustrator 24.0.3, SVG Export Plug-In . SVG Version: 6.00 Build 0)  -->
<svg version="1.1" id="Layer_1" xmlns="http://www.w3.org/2000/svg" xmlns:xlink="http://www.w3.org/1999/xlink" x="0px" y="0px"
	 viewBox="0 0 17 22.7" style="enable-background:new 0 0 17 22.7;" xml:space="preserve">
<path d="M17,14c0,4.8-3.8,8.6-8.5,8.6S0,18.8,0,14C0,9.6,7,1.3,7.8,0.4l0.1-0.1c0.3-0.4,0.9-0.4,1.3,0l0.1,0.1C10,1.3,17,9.6,17,14
	L17,14z M8.9,3.1c-0.2-0.3-0.6-0.3-0.9,0c-1.8,2.2-4.3,5.7-5.5,8.5C2.9,11.3,3.4,11.1,4,11c2.1-0.4,4.4,0.7,6.5,3.5
	c0.4,0.4,0.9,0.8,1.4,1.2c0.5,0.4,1,0.6,1.5,0.6c0.4,0,0.6,0,0.8-0.2c0.3-0.3,0.6-0.8,0.9-2c0,0,0,0,0,0C15,11.3,11.3,6.1,8.9,3.1
	L8.9,3.1z"/>
</svg>
