<?xml version="1.0" encoding="utf-8"?>
<!-- Generator: Adobe Illustrator 24.0.3, SVG Export Plug-In . SVG Version: 6.00 Build 0)  -->
<svg version="1.1" id="Layer_1" xmlns="http://www.w3.org/2000/svg" xmlns:xlink="http://www.w3.org/1999/xlink" x="0px" y="0px"
	 viewBox="0 0 17 13.8" style="enable-background:new 0 0 17 13.8;" xml:space="preserve">
<path d="M0,7.1c0,0.8,0.1,1.5,0.2,2.1c0.1,0.6,0.3,1.2,0.6,1.6c0.3,0.5,0.6,0.9,1,1.2c0.4,0.3,0.8,0.6,1.3,0.9
	c0.5,0.2,1,0.4,1.6,0.5c0.6,0.1,1.2,0.2,1.8,0.3c0.6,0.1,1.3,0.1,2,0.1c0.7,0,1.4,0,2-0.1c0.6-0.1,1.2-0.2,1.8-0.3
	c0.6-0.1,1.1-0.3,1.6-0.5c0.5-0.2,0.9-0.5,1.3-0.9c0.4-0.3,0.7-0.8,1-1.2c0.3-0.5,0.5-1,0.6-1.6C16.9,8.6,17,7.9,17,7.1
	c0-1.4-0.5-2.6-1.4-3.6c0-0.1,0.1-0.3,0.1-0.5c0-0.2,0.1-0.4,0.1-0.7c0-0.3,0-0.7,0-1.1c-0.1-0.4-0.2-0.8-0.4-1.3l-0.1,0
	c-0.1,0-0.2,0-0.4,0c-0.2,0-0.4,0.1-0.7,0.1c-0.3,0.1-0.6,0.2-1,0.4s-0.9,0.5-1.3,0.8C11,1.2,9.9,1.1,8.5,1.1C7.1,1.1,6,1.2,5.2,1.4
	C4.7,1.1,4.2,0.8,3.8,0.6S3,0.2,2.8,0.2C2.5,0.1,2.3,0,2.1,0C1.9,0,1.7,0,1.7,0S1.6,0,1.5,0C1.3,0.5,1.2,0.9,1.2,1.3
	c-0.1,0.4-0.1,0.8,0,1.1c0,0.3,0.1,0.6,0.1,0.7c0,0.2,0.1,0.3,0.1,0.5C0.5,4.5,0,5.7,0,7.1L0,7.1z M2.1,9.2c0-0.8,0.4-1.5,1.1-2.2
	c0.2-0.2,0.5-0.3,0.8-0.5c0.3-0.1,0.6-0.2,1-0.2s0.7,0,1,0c0.3,0,0.7,0,1.2,0.1c0.5,0,0.9,0,1.3,0c0.4,0,0.8,0,1.3,0
	c0.5,0,0.9-0.1,1.2-0.1c0.3,0,0.7,0,1,0c0.4,0,0.7,0.1,1,0.2c0.3,0.1,0.5,0.3,0.8,0.5c0.7,0.7,1.1,1.4,1.1,2.2
	c0,0.5-0.1,0.9-0.2,1.3c-0.1,0.4-0.3,0.7-0.5,0.9c-0.2,0.2-0.4,0.5-0.8,0.6c-0.3,0.2-0.7,0.3-1,0.4c-0.3,0.1-0.7,0.2-1.2,0.2
	c-0.5,0.1-0.9,0.1-1.3,0.1c-0.4,0-0.9,0-1.5,0s-1.1,0-1.5,0c-0.4,0-0.8,0-1.3-0.1s-0.9-0.1-1.2-0.2c-0.3-0.1-0.6-0.2-1-0.4
	c-0.3-0.2-0.6-0.4-0.8-0.6c-0.2-0.2-0.3-0.6-0.5-0.9C2.1,10.1,2.1,9.6,2.1,9.2L2.1,9.2z M10.6,9c0,0.9,0.5,1.6,1.1,1.6
	c0.6,0,1.1-0.7,1.1-1.6s-0.5-1.6-1.1-1.6C11.1,7.4,10.6,8.1,10.6,9z M4.3,9c0,0.9,0.5,1.6,1.1,1.6S6.4,9.9,6.4,9S5.9,7.4,5.3,7.4
	S4.3,8.1,4.3,9z"/>
</svg>
