<?xml version="1.0" encoding="utf-8"?>
<!-- Generator: Adobe Illustrator 24.0.3, SVG Export Plug-In . SVG Version: 6.00 Build 0)  -->
<svg version="1.1" id="Layer_1" xmlns="http://www.w3.org/2000/svg" xmlns:xlink="http://www.w3.org/1999/xlink" x="0px" y="0px"
	 viewBox="0 0 17 16.9" style="enable-background:new 0 0 17 16.9;" xml:space="preserve">
<path d="M8.1,10.3c0-0.5,0-0.9,0.1-1.1C8.3,9,8.5,8.7,8.9,8.4c0.4-0.4,0.8-0.8,1-1.1C10,7,10.1,6.6,10.1,6.1c0-0.5-0.1-0.9-0.4-1.2
	S9.1,4.5,8.6,4.5c-0.5,0-0.8,0.1-1.2,0.4C7.1,5.2,7,5.5,7,6H6.3v0c0-0.7,0.2-1.2,0.6-1.5s1-0.5,1.6-0.5c0.7,0,1.3,0.2,1.7,0.6
	c0.4,0.4,0.6,1,0.6,1.6c0,0.6-0.1,1-0.4,1.4S9.8,8.4,9.3,8.9C9.1,9.1,8.9,9.3,8.9,9.5c0,0.2-0.1,0.5-0.1,0.8L8.1,10.3L8.1,10.3z
	 M8.9,12.8H8.1v-1h0.8V12.8z M8.5,16.9C3.8,16.9,0,13.1,0,8.5S3.8,0,8.5,0S17,3.8,17,8.5S13.2,16.9,8.5,16.9L8.5,16.9z M8.5,0.7
	c-4.3,0-7.8,3.5-7.8,7.8s3.5,7.8,7.8,7.8s7.8-3.5,7.8-7.8S12.8,0.7,8.5,0.7z"/>
</svg>
