<?xml version="1.0" encoding="utf-8"?>
<!-- Generator: Adobe Illustrator 24.0.3, SVG Export Plug-In . SVG Version: 6.00 Build 0)  -->
<svg version="1.1" id="Layer_1" xmlns="http://www.w3.org/2000/svg" xmlns:xlink="http://www.w3.org/1999/xlink" x="0px" y="0px"
	 viewBox="0 0 17 15.8" style="enable-background:new 0 0 17 15.8;" xml:space="preserve">
<path d="M16.9,8.6L13,4.5V1.8c0-0.3-0.2-0.5-0.5-0.5S12,1.5,12,1.8v1.7L8.8,0.1C8.7,0.1,8.6,0,8.5,0C8.4,0,8.3,0.1,8.2,0.1l-8,8.4
	c-0.2,0.2-0.2,0.5,0,0.7c0.1,0.2,0.5,0.2,0.6,0l1.1-1.1v7.2c0,0.3,0.2,0.5,0.5,0.5h3.8c0.3,0,0.5-0.2,0.5-0.5v-3.4h3v3.4
	c0,0.3,0.2,0.5,0.5,0.5H14c0.3,0,0.5-0.2,0.5-0.5V7.5l1.7,1.8c0.1,0.1,0.2,0.1,0.4,0.1c0.1,0,0.2-0.1,0.4-0.1
	C17,9.2,17,8.8,16.9,8.6L16.9,8.6z M13.5,6.6v8.2h-2.9v-3.4c0-0.3-0.2-0.5-0.5-0.5H6.2c-0.3,0-0.5,0.2-0.5,0.5v3.4H2.9V7.1l5.6-5.9
	L13.5,6.6C13.5,6.6,13.5,6.6,13.5,6.6L13.5,6.6z"/>
</svg>
