<?xml version="1.0" encoding="utf-8"?>
<!-- Generator: Adobe Illustrator 24.0.3, SVG Export Plug-In . SVG Version: 6.00 Build 0)  -->
<svg version="1.1" id="Layer_1" xmlns="http://www.w3.org/2000/svg" xmlns:xlink="http://www.w3.org/1999/xlink" x="0px" y="0px"
	 viewBox="0 0 17 15.8" style="enable-background:new 0 0 17 15.8;" xml:space="preserve">
<path d="M16.9,8.6L13,4.5V1.8c0-0.3-0.2-0.5-0.5-0.5S12,1.5,12,1.8v1.7L8.8,0.1C8.7,0.1,8.7,0,8.6,0H8.5L8.4,0.1
	c-0.1,0-0.2,0.1-0.3,0.1l-8,8.4c-0.2,0.2-0.2,0.5,0,0.7c0.1,0.2,0.5,0.2,0.6,0l1.1-1.1v7.1c0,0.3,0.2,0.5,0.5,0.5h3.8
	c0.3,0,0.5-0.2,0.5-0.5v-3.6h3v3.4c0,0.3,0.2,0.5,0.5,0.5h3.8c0.3,0,0.5-0.2,0.5-0.5V7.6l1.7,1.8c0.1,0.1,0.2,0.1,0.4,0.1
	c0.1,0,0.2-0.1,0.4-0.1C17,9.1,17.1,8.8,16.9,8.6L16.9,8.6z"/>
</svg>
