<?xml version="1.0" encoding="utf-8"?>
<!-- Generator: Adobe Illustrator 24.0.3, SVG Export Plug-In . SVG Version: 6.00 Build 0)  -->
<svg version="1.1" id="Layer_1" xmlns="http://www.w3.org/2000/svg" xmlns:xlink="http://www.w3.org/1999/xlink" x="0px" y="0px"
	 viewBox="0 0 17 16.1" style="enable-background:new 0 0 17 16.1;" xml:space="preserve">
<path d="M8.5,0C7.2,0,6.2,1,6.2,2.2v11.7c0,1.2,1,2.2,2.3,2.2s2.3-1,2.3-2.2V2.2C10.8,1,9.8,0,8.5,0z M9.3,13.9
	c0,0.4-0.3,0.7-0.8,0.7s-0.8-0.3-0.8-0.7V2.2c0-0.4,0.3-0.7,0.8-0.7s0.8,0.3,0.8,0.7C9.3,2.2,9.3,13.9,9.3,13.9z M14.7,4.4
	c-1.3,0-2.3,1-2.3,2.2v7.3c0,1.2,1,2.2,2.3,2.2s2.3-1,2.3-2.2V6.6C17,5.4,16,4.4,14.7,4.4z M15.5,13.9c0,0.4-0.3,0.7-0.8,0.7
	s-0.8-0.3-0.8-0.7V6.6c0-0.4,0.3-0.7,0.8-0.7s0.8,0.3,0.8,0.7V13.9L15.5,13.9z M2.3,8.8C1,8.8,0,9.8,0,11v2.9c0,1.2,1,2.2,2.3,2.2
	s2.3-1,2.3-2.2V11C4.6,9.8,3.6,8.8,2.3,8.8z M3.1,13.9c0,0.4-0.3,0.7-0.8,0.7s-0.8-0.3-0.8-0.7V11c0-0.4,0.3-0.7,0.8-0.7
	s0.8,0.3,0.8,0.7C3.1,11,3.1,13.9,3.1,13.9z"/>
</svg>
