<?xml version="1.0" encoding="utf-8"?>
<!-- Generator: Adobe Illustrator 24.0.3, SVG Export Plug-In . SVG Version: 6.00 Build 0)  -->
<svg version="1.1" id="Layer_1" xmlns="http://www.w3.org/2000/svg" xmlns:xlink="http://www.w3.org/1999/xlink" x="0px" y="0px"
	 viewBox="0 0 17 17" style="enable-background:new 0 0 17 17;" xml:space="preserve">
<path d="M8.5,0C3.8,0,0,3.8,0,8.5S3.8,17,8.5,17S17,13.2,17,8.5S13.2,0,8.5,0z M8.5,15.5c-3.8,0-7-3.1-7-7s3.1-7,7-7s7,3.1,7,7
	S12.3,15.5,8.5,15.5z M9.3,7.2v5.1c0,0.4-0.1,0.6-0.3,0.8c-0.2,0.2-0.4,0.3-0.6,0.3s-0.5-0.1-0.6-0.3c-0.2-0.2-0.2-0.4-0.2-0.8v-5
	c0-0.3,0.1-0.6,0.2-0.8c0.2-0.2,0.4-0.3,0.6-0.3S8.9,6.3,9,6.5C9.2,6.7,9.3,6.9,9.3,7.2L9.3,7.2z M8.4,5.4C8.2,5.4,8,5.3,7.8,5.2
	S7.5,4.8,7.5,4.5c0-0.2,0.1-0.5,0.3-0.6C8,3.8,8.2,3.7,8.4,3.7c0.2,0,0.4,0.1,0.6,0.2s0.3,0.4,0.3,0.6C9.3,4.8,9.2,5,9,5.2
	S8.6,5.4,8.4,5.4L8.4,5.4z"/>
</svg>
