<?xml version="1.0" encoding="utf-8"?>
<!-- Generator: Adobe Illustrator 24.0.3, SVG Export Plug-In . SVG Version: 6.00 Build 0)  -->
<svg version="1.1" id="Layer_1" xmlns="http://www.w3.org/2000/svg" xmlns:xlink="http://www.w3.org/1999/xlink" x="0px" y="0px"
	 viewBox="0 0 17 17" style="enable-background:new 0 0 17 17;" xml:space="preserve">
<path d="M12.3,0H4.7C2.1,0,0,2.1,0,4.7v7.6C0,14.9,2.1,17,4.7,17h7.6c2.6,0,4.7-2.1,4.7-4.7V4.7C17,2.1,14.9,0,12.3,0z M15.5,12.3
	c0,1.8-1.4,3.2-3.2,3.2H4.7c-1.8,0-3.2-1.4-3.2-3.2V4.7c0-1.8,1.4-3.2,3.2-3.2h7.6c1.8,0,3.2,1.4,3.2,3.2L15.5,12.3L15.5,12.3
	L15.5,12.3z M8.5,4C6,4,4,6,4,8.5C4,11,6,13,8.5,13S13,11,13,8.5C13,6,11,4,8.5,4L8.5,4z M8.5,11.5c-1.6,0-3-1.3-3-3
	c0-1.6,1.3-3,3-3s3,1.3,3,3C11.5,10.1,10.1,11.5,8.5,11.5L8.5,11.5z M13,3c-0.3,0-0.5,0.1-0.7,0.3C12.1,3.5,12,3.7,12,4
	c0,0.3,0.1,0.5,0.3,0.7C12.5,4.9,12.7,5,13,5c0.3,0,0.5-0.1,0.7-0.3C13.9,4.5,14,4.3,14,4c0-0.3-0.1-0.5-0.3-0.7
	C13.5,3.1,13.3,3,13,3z"/>
</svg>
