<?xml version="1.0" encoding="utf-8"?>
<!-- Generator: Adobe Illustrator 24.0.3, SVG Export Plug-In . SVG Version: 6.00 Build 0)  -->
<svg version="1.1" id="Layer_1" xmlns="http://www.w3.org/2000/svg" xmlns:xlink="http://www.w3.org/1999/xlink" x="0px" y="0px"
	 viewBox="0 0 17 19.4" style="enable-background:new 0 0 17 19.4;" xml:space="preserve">
<path d="M15.6,19.4H17c0-4.8-3.8-8.7-8.5-8.7S0,14.6,0,19.4h1.4c0-4,3.2-7.3,7.1-7.3S15.6,15.4,15.6,19.4z M8.3,1.3
	c2,0,3.6,1.6,3.6,3.6s-1.6,3.6-3.6,3.6S4.7,6.8,4.7,4.9S6.3,1.3,8.3,1.3z M8.3,9.7c2.7,0,4.9-2.2,4.9-4.9S10.9,0,8.3,0
	S3.4,2.2,3.4,4.9S5.6,9.7,8.3,9.7z"/>
</svg>
