<?xml version="1.0" encoding="utf-8"?>
<!-- Generator: Adobe Illustrator 24.0.3, SVG Export Plug-In . SVG Version: 6.00 Build 0)  -->
<svg version="1.1" id="Layer_1" xmlns="http://www.w3.org/2000/svg" xmlns:xlink="http://www.w3.org/1999/xlink" x="0px" y="0px"
	 viewBox="0 0 17 17" style="enable-background:new 0 0 17 17;" xml:space="preserve">
<path d="M4,5.5H0.5c-0.2,0-0.3,0.1-0.3,0.3v11c0,0.2,0.1,0.3,0.3,0.3H4c0.2,0,0.3-0.1,0.3-0.3v-11C4.2,5.6,4.1,5.5,4,5.5z M2.3,0
	C1,0,0,1,0,2.2c0,1.2,1,2.3,2.3,2.3c1.2,0,2.3-1,2.3-2.3C4.5,1,3.5,0,2.3,0L2.3,0z M12.6,5.2c-1.4,0-2.4,0.6-3,1.3V5.7
	c0-0.2-0.1-0.3-0.3-0.3H6.1c-0.2,0-0.3,0.1-0.3,0.3v11c0,0.2,0.1,0.3,0.3,0.3h3.4c0.2,0,0.3-0.1,0.3-0.3v-5.4c0-1.8,0.5-2.5,1.8-2.5
	c1.4,0,1.5,1.1,1.5,2.6v5.3c0,0.2,0.1,0.3,0.3,0.3h3.4c0.2,0,0.3-0.1,0.3-0.3v-6C17,8,16.5,5.2,12.6,5.2L12.6,5.2z"/>
</svg>
