<?xml version="1.0" encoding="utf-8"?>
<!-- Generator: Adobe Illustrator 24.0.3, SVG Export Plug-In . SVG Version: 6.00 Build 0)  -->
<svg version="1.1" id="Layer_1" xmlns="http://www.w3.org/2000/svg" xmlns:xlink="http://www.w3.org/1999/xlink" x="0px" y="0px"
	 viewBox="0 0 17 23.4" style="enable-background:new 0 0 17 23.4;" xml:space="preserve">
<path d="M8.5,0C3.8,0,0,3.9,0,8.6c0,1.2,0.3,2.4,0.7,3.5c2.1,4.7,6.2,9.7,7.4,11.1c0.1,0.1,0.2,0.2,0.4,0.2s0.3-0.1,0.4-0.2
	c1.2-1.4,5.3-6.4,7.4-11.1C16.8,11,17,9.8,17,8.6C17,3.9,13.2,0,8.5,0L8.5,0z M8.5,12.7c-2.3,0-4.3-1.9-4.3-4.2
	c0-2.3,1.9-4.3,4.3-4.3s4.3,1.9,4.3,4.3C12.8,10.8,10.8,12.7,8.5,12.7L8.5,12.7z"/>
</svg>
