<?xml version="1.0" encoding="utf-8"?>
<!-- Generator: Adobe Illustrator 24.0.3, SVG Export Plug-In . SVG Version: 6.00 Build 0)  -->
<svg version="1.1" id="Layer_1" xmlns="http://www.w3.org/2000/svg" xmlns:xlink="http://www.w3.org/1999/xlink" x="0px" y="0px"
	 viewBox="0 0 17 21.2" style="enable-background:new 0 0 17 21.2;" xml:space="preserve">
<path d="M16.2,18.3c0,1.1-0.9,2-2,2H2.9c-1.1,0-2-0.9-2-2v-7.6c0-1.1,0.9-2,2-2h11.3c1.1,0,2,0.9,2,2C16.2,10.7,16.2,18.3,16.2,18.3
	z M3.2,5.7c0-2.7,2.4-4.8,5.3-4.8s5.3,2.2,5.3,4.8v2.2H3.2L3.2,5.7L3.2,5.7z M14.7,7.9V5.7c0-3.1-2.8-5.6-6.1-5.6S2.5,2.6,2.5,5.7
	v2.2c-1.3,0.2-2.3,1.4-2.3,2.8v7.6c0,1.6,1.3,2.8,2.8,2.8h11.3c1.5,0,2.8-1.3,2.8-2.8v-7.6C16.9,9.3,15.9,8.1,14.7,7.9L14.7,7.9z
	 M14.2,21.2H2.9c-1.6,0-2.9-1.3-2.9-2.9v-7.6c0-1.4,1-2.6,2.3-2.9v-2C2.3,2.6,5.1,0,8.5,0s6.2,2.6,6.2,5.7v2C16,8.1,17,9.3,17,10.7
	v7.6C17.1,19.9,15.8,21.2,14.2,21.2L14.2,21.2z M8.6,0.3c-3.3,0-5.9,2.5-5.9,5.4V8H2.5c-1.3,0.2-2.2,1.3-2.2,2.6v7.6
	c0,1.4,1.2,2.6,2.6,2.6h11.3c1.4,0,2.6-1.2,2.6-2.6v-7.6c0-1.3-0.9-2.4-2.2-2.6h-0.1V5.7C14.5,2.8,11.9,0.3,8.6,0.3L8.6,0.3z
	 M14.2,20.5H2.9c-1.2,0-2.2-1-2.2-2.2v-7.7c0-1.2,1-2.2,2.2-2.2h11.3c1.2,0,2.2,1,2.2,2.2v7.6C16.3,19.5,15.4,20.5,14.2,20.5z
	 M2.9,8.8c-1,0-1.9,0.8-1.9,1.9v7.6c0,1,0.8,1.9,1.9,1.9h11.3c1,0,1.9-0.8,1.9-1.9v-7.6c0-1-0.8-1.9-1.9-1.9H2.9L2.9,8.8z M14.1,8
	h-11V5.7c0-2.8,2.5-5,5.5-5s5.5,2.2,5.5,5V8z M3.4,7.7h10.4v-2c0-2.6-2.3-4.7-5.2-4.7S3.3,3.1,3.3,5.7L3.4,7.7L3.4,7.7z M9.5,15.3
	c0,0.4-0.4,0.8-0.9,0.8c-0.5,0-0.9-0.4-0.9-0.8V13c0-0.4,0.4-0.8,0.9-0.8c0.5,0,0.9,0.4,0.9,0.8V15.3z M8.6,11.5
	c-1,0-1.8,0.7-1.8,1.6v2.3c0,0.8,0.8,1.6,1.8,1.6s1.8-0.7,1.8-1.6V13C10.4,12.2,9.6,11.5,8.6,11.5z M8.6,17c-1.1,0-1.9-0.8-1.9-1.7
	V13c0-1,0.9-1.7,1.9-1.7s1.9,0.8,1.9,1.7v2.3C10.5,16.3,9.6,17,8.6,17z M8.6,11.6c-0.9,0-1.7,0.6-1.7,1.4v2.3c0,0.8,0.7,1.4,1.7,1.4
	s1.7-0.6,1.7-1.4V13C10.2,12.3,9.5,11.6,8.6,11.6z M8.6,16.3c-0.6,0-1.1-0.4-1.1-0.9V13c0-0.5,0.5-0.9,1.1-0.9s1.1,0.4,1.1,0.9v2.3
	C9.6,15.9,9.2,16.3,8.6,16.3z M8.6,12.4c-0.4,0-0.7,0.3-0.7,0.6v2.3c0,0.4,0.4,0.6,0.7,0.6s0.7-0.3,0.7-0.6V13
	C9.3,12.7,9,12.4,8.6,12.4z"/>
</svg>
