<?xml version="1.0" encoding="utf-8"?>
<!-- Generator: Adobe Illustrator 24.0.3, SVG Export Plug-In . SVG Version: 6.00 Build 0)  -->
<svg version="1.1" id="Layer_1" xmlns="http://www.w3.org/2000/svg" xmlns:xlink="http://www.w3.org/1999/xlink" x="0px" y="0px"
	 viewBox="0 0 17 9.9" style="enable-background:new 0 0 17 9.9;" xml:space="preserve">
<path d="M13.6,7.6c-0.7,0-1.2-0.5-1.2-1.2s0.5-1.2,1.2-1.2c0.7,0,1.2,0.5,1.2,1.2S14.2,7.6,13.6,7.6L13.6,7.6z M13.6,3
	c-1.9,0-3.4,1.5-3.4,3.4s1.5,3.4,3.4,3.4S17,8.3,17,6.4S15.5,3,13.6,3z M0,3v6.9h2.5V3h0H0z M6.4,4.7L4.7,3H3v1.7l1.7,1.7L3,8.1v1.7
	h1.7l1.7-1.7l1.7,1.7h1.7V8.1L8.1,6.4l1.7-1.7V3H8.1L6.4,4.7z M1.2,2.5C0.6,2.5,0,1.9,0,1.2S0.6,0,1.2,0s1.2,0.6,1.2,1.2
	S1.9,2.5,1.2,2.5z"/>
</svg>
