<?xml version="1.0" encoding="utf-8"?>
<!-- Generator: Adobe Illustrator 24.0.3, SVG Export Plug-In . SVG Version: 6.00 Build 0)  -->
<svg version="1.1" id="Layer_1" xmlns="http://www.w3.org/2000/svg" xmlns:xlink="http://www.w3.org/1999/xlink" x="0px" y="0px"
	 viewBox="0 0 17 13.1" style="enable-background:new 0 0 17 13.1;" xml:space="preserve">
<path d="M17,1.9h-0.9c-0.2,0-0.9,0.3-0.9,0.5v8.5c0,0.2,0.6,0.4,0.9,0.4H17v1.9h-6.1v-1.9h1.2V2.5h-0.2L9,13.1H6.7L3.9,2.5H3.6v8.8
	h1.2v1.9l-4.9,0v-1.9h0.7c0.3,0,0.5-0.2,0.5-0.4V2.4c0-0.2-0.3-0.5-0.5-0.5H0V0h6.3l2.1,7.5h0.1L10.5,0H17L17,1.9L17,1.9z"/>
</svg>
