<?xml version="1.0" encoding="utf-8"?>
<!-- Generator: Adobe Illustrator 24.0.3, SVG Export Plug-In . SVG Version: 6.00 Build 0)  -->
<svg version="1.1" id="Layer_1" xmlns="http://www.w3.org/2000/svg" xmlns:xlink="http://www.w3.org/1999/xlink" x="0px" y="0px"
	 viewBox="0 0 17 13.3" style="enable-background:new 0 0 17 13.3;" xml:space="preserve">
<path d="M12.2,1.6H0.8C0.4,1.6,0,1.2,0,0.8S0.4,0,0.8,0h11.4C12.6,0,13,0.4,13,0.8S12.6,1.6,12.2,1.6z M16.2,7.4H0.8
	C0.4,7.4,0,7.1,0,6.6s0.4-0.8,0.8-0.8h15.4c0.4,0,0.8,0.4,0.8,0.8S16.6,7.4,16.2,7.4z M12.2,13.3H0.8c-0.4,0-0.8-0.4-0.8-0.8
	c0-0.4,0.4-0.8,0.8-0.8h11.4c0.4,0,0.8,0.4,0.8,0.8C13,12.9,12.6,13.3,12.2,13.3z"/>
</svg>
