<?xml version="1.0" encoding="utf-8"?>
<!-- Generator: Adobe Illustrator 24.0.3, SVG Export Plug-In . SVG Version: 6.00 Build 0)  -->
<svg version="1.1" id="Layer_1" xmlns="http://www.w3.org/2000/svg" xmlns:xlink="http://www.w3.org/1999/xlink" x="0px" y="0px"
	 viewBox="0 0 17 17" style="enable-background:new 0 0 17 17;" xml:space="preserve">
<path d="M8.5,0C3.8,0,0,3.8,0,8.5S3.8,17,8.5,17S17,13.2,17,8.5S13.2,0,8.5,0z M8.5,15.7c-4,0-7.2-3.2-7.2-7.2s3.2-7.2,7.2-7.2
	s7.2,3.2,7.2,7.2S12.5,15.7,8.5,15.7L8.5,15.7z M8.5,10.8c0.3,0,0.6-0.4,0.6-1v-5c0-0.6-0.2-1-0.6-1s-0.6,0.5-0.6,1v4.9
	C7.9,10.3,8.2,10.8,8.5,10.8L8.5,10.8z M9.3,12.1c0,0.4-0.4,0.8-0.8,0.8s-0.8-0.4-0.8-0.8c0-0.4,0.4-0.8,0.8-0.8S9.3,11.7,9.3,12.1
	L9.3,12.1z"/>
</svg>
