<?xml version="1.0" encoding="utf-8"?>
<!-- Generator: Adobe Illustrator 24.0.3, SVG Export Plug-In . SVG Version: 6.00 Build 0)  -->
<svg version="1.1" id="Layer_1" xmlns="http://www.w3.org/2000/svg" xmlns:xlink="http://www.w3.org/1999/xlink" x="0px" y="0px"
	 viewBox="0 0 17 17" style="enable-background:new 0 0 17 17;" xml:space="preserve">
<path d="M14.7,0H2.3C1,0,0,1,0,2.3v12.4C0,16,1,17,2.3,17h12.4c1.3,0,2.3-1,2.3-2.3V2.3C17,1,16,0,14.7,0z M2.3,1.5h12.4
	c0.4,0,0.8,0.3,0.8,0.8v2.3H1.5V2.3C1.5,1.9,1.9,1.5,2.3,1.5L2.3,1.5z M1.5,14.7V6.2h3.9v9.3H2.3C1.9,15.5,1.5,15.1,1.5,14.7
	L1.5,14.7z M14.7,15.5H7V6.2h8.5v8.5C15.5,15.1,15.1,15.5,14.7,15.5L14.7,15.5z"/>
</svg>
