<?xml version="1.0" encoding="utf-8"?>
<!-- Generator: Adobe Illustrator 24.0.3, SVG Export Plug-In . SVG Version: 6.00 Build 0)  -->
<svg version="1.1" id="Layer_1" xmlns="http://www.w3.org/2000/svg" xmlns:xlink="http://www.w3.org/1999/xlink" x="0px" y="0px"
	 viewBox="0 0 17 16.7" style="enable-background:new 0 0 17 16.7;" xml:space="preserve">
<path d="M8.5,16.7C3.8,16.7,0,13,0,8.4S3.8,0,8.5,0S17,3.7,17,8.4S13.2,16.7,8.5,16.7L8.5,16.7z M9.6,8.6l3.1-3.1
	c0.3-0.3,0.3-0.7,0-1c-0.3-0.3-0.7-0.3-1,0L8.6,7.6L5.5,4.5c-0.3-0.3-0.7-0.3-1,0c-0.3,0.3-0.3,0.7,0,1l3.1,3.1l-3.1,3.1
	c-0.3,0.3-0.3,0.7,0,1c0.3,0.3,0.7,0.3,1,0l3.1-3.1l3.1,3.1c0.3,0.3,0.7,0.3,1,0c0.3-0.3,0.3-0.7,0-1L9.6,8.6L9.6,8.6z"/>
</svg>
