<?xml version="1.0" encoding="utf-8"?>
<!-- Generator: Adobe Illustrator 24.0.3, SVG Export Plug-In . SVG Version: 6.00 Build 0)  -->
<svg version="1.1" id="Layer_1" xmlns="http://www.w3.org/2000/svg" xmlns:xlink="http://www.w3.org/1999/xlink" x="0px" y="0px"
	 viewBox="0 0 17 16.7" style="enable-background:new 0 0 17 16.7;" xml:space="preserve">
<path d="M8.5,16.7C3.8,16.7,0,13,0,8.4S3.8,0,8.5,0S17,3.7,17,8.4S13.2,16.7,8.5,16.7L8.5,16.7z M3.7,8.8L3.8,9L6.7,12
	c0.1,0.1,0.1,0.1,0.3,0.1c0.1,0,0.2,0,0.3-0.1l6-6c0.1-0.1,0.1-0.4,0-0.5L12.7,5c-0.1-0.1-0.4-0.1-0.5,0h0l-5,5.1
	c-0.1,0.1-0.2,0.1-0.3,0L4.8,7.9l0,0c-0.1-0.1-0.4-0.1-0.5,0L3.7,8.3C3.7,8.4,3.6,8.5,3.6,8.6C3.6,8.7,3.7,8.8,3.7,8.8L3.7,8.8z"/>
</svg>
