<?xml version="1.0" encoding="utf-8"?>
<!-- Generator: Adobe Illustrator 24.0.3, SVG Export Plug-In . SVG Version: 6.00 Build 0)  -->
<svg version="1.1" id="Layer_1" xmlns="http://www.w3.org/2000/svg" xmlns:xlink="http://www.w3.org/1999/xlink" x="0px" y="0px"
	 viewBox="0 0 17 17" style="enable-background:new 0 0 17 17;" xml:space="preserve">
<path d="M8.5,0C3.8,0,0,3.8,0,8.5S3.8,17,8.5,17S17,13.2,17,8.5S13.2,0,8.5,0z M8.5,15.7c-4,0-7.2-3.2-7.2-7.2s3.2-7.2,7.2-7.2
	s7.2,3.2,7.2,7.2S12.5,15.7,8.5,15.7L8.5,15.7z M9.6,8.5l2.7-2.7c0.2-0.2,0.2-0.3,0.2-0.5s-0.1-0.4-0.2-0.5c-0.2-0.2-0.7-0.2-1.1,0
	L8.5,7.5L5.8,4.8c-0.3-0.3-0.7-0.3-1.1,0C4.6,4.9,4.5,5.1,4.5,5.3s0.1,0.3,0.2,0.5l2.7,2.7l-2.7,2.7c-0.2,0.2-0.2,0.3-0.2,0.5
	c0,0.2,0.1,0.4,0.2,0.5c0.2,0.2,0.7,0.2,1.1,0l2.7-2.7l2.7,2.7c0.2,0.2,0.3,0.2,0.5,0.2s0.4-0.1,0.5-0.2c0.2-0.2,0.2-0.3,0.2-0.5
	c0-0.2-0.1-0.4-0.2-0.5L9.6,8.5z"/>
</svg>
