<?xml version="1.0" encoding="utf-8"?>
<!-- Generator: Adobe Illustrator 24.0.3, SVG Export Plug-In . SVG Version: 6.00 Build 0)  -->
<svg version="1.1" id="Layer_1" xmlns="http://www.w3.org/2000/svg" xmlns:xlink="http://www.w3.org/1999/xlink" x="0px" y="0px"
	 viewBox="0 0 17 17" style="enable-background:new 0 0 17 17;" xml:space="preserve">
<path d="M8.5,16.5c-4.4,0-8-3.6-8-8s3.6-8,8-8s8,3.6,8,8S12.9,16.5,8.5,16.5z M8.5,0C3.8,0,0,3.8,0,8.5C0,13.2,3.8,17,8.5,17
	S17,13.2,17,8.5C17,3.8,13.2,0,8.5,0z M11.4,10.7l-0.8,0.8l0,0l0,0L8.5,9.2l-2.2,2.2l0,0l-0.7-0.7l2.2-2.2L5.5,6.3l0.7-0.7l2.2,2.2
	l2.2-2.2l0.7,0.7L9.2,8.5L11.4,10.7L11.4,10.7z M10.7,4.8L8.5,7L6.3,4.8L4.8,6.3L7,8.5l-2.2,2.2L6.1,12l0.2,0.2l0,0L8.5,10l2,2
	l0.2,0.2l0,0l1.5-1.5L10,8.5l2.2-2.2L10.7,4.8L10.7,4.8z"/>
</svg>
