<?xml version="1.0" encoding="utf-8"?>
<!-- Generator: Adobe Illustrator 24.0.3, SVG Export Plug-In . SVG Version: 6.00 Build 0)  -->
<svg version="1.1" id="Layer_1" xmlns="http://www.w3.org/2000/svg" xmlns:xlink="http://www.w3.org/1999/xlink" x="0px" y="0px"
	 viewBox="0 0 17 14.6" style="enable-background:new 0 0 17 14.6;" xml:space="preserve">
<path d="M11.3,7.3c0-0.9-0.7-1.6-1.6-1.6S8.1,6.4,8.1,7.3c0,0.9,0.7,1.6,1.6,1.6C10.6,8.9,11.3,8.2,11.3,7.3z M9.7,0
	c-4,0-7.3,3.3-7.3,7.3H0l3.2,3.2l3.2-3.2H4c0-3.1,2.5-5.7,5.7-5.7c3.1,0,5.7,2.5,5.7,5.7c0,3.1-2.5,5.7-5.7,5.7
	c-1.2,0-2.4-0.4-3.3-1.1l-1.1,1.2C6.5,14,8,14.6,9.7,14.6c4,0,7.3-3.3,7.3-7.3S13.7,0,9.7,0L9.7,0z"/>
</svg>
