<?xml version="1.0" encoding="utf-8"?>
<!-- Generator: Adobe Illustrator 24.0.3, SVG Export Plug-In . SVG Version: 6.00 Build 0)  -->
<svg version="1.1" id="Layer_1" xmlns="http://www.w3.org/2000/svg" xmlns:xlink="http://www.w3.org/1999/xlink" x="0px" y="0px"
	 viewBox="0 0 17 17.3" style="enable-background:new 0 0 17 17.3;" xml:space="preserve">
<path d="M8.3,11.2c-1.4,0-2.6-1.2-2.6-2.6c0-1.2,0.8-2.2,1.8-2.5v1C7,7.4,6.6,8,6.6,8.6c0,0.9,0.8,1.7,1.7,1.7
	c0.9,0,1.7-0.8,1.7-1.7C10,8,9.7,7.4,9.1,7.1v-1c1.1,0.3,1.8,1.3,1.8,2.5C10.9,10.1,9.8,11.2,8.3,11.2L8.3,11.2z M8,5.6
	c0-0.2,0.2-0.3,0.4-0.3c0.2,0,0.4,0.2,0.4,0.3v1.7c0,0.2-0.2,0.3-0.4,0.3C8.1,7.7,8,7.5,8,7.4V5.6z M8.3,3.7c-2.8,0-5,2.2-5,5
	c0,2.8,2.2,5,5,5s5-2.2,5-5C13.3,5.9,11.1,3.7,8.3,3.7L8.3,3.7z M3,8.3C3,8.1,2.8,8,2.6,8H0.4C0.2,8,0,8.1,0,8.3
	c0,0.2,0.2,0.3,0.4,0.3h2.2C2.8,8.7,3,8.5,3,8.3z M17,8.3C17,8.1,16.8,8,16.6,8h-2.2C14.2,8,14,8.1,14,8.3c0,0.2,0.2,0.3,0.4,0.3
	h2.2C16.8,8.7,17,8.5,17,8.3z M8.3,3c0.2,0,0.3-0.2,0.3-0.4V0.4C8.7,0.2,8.5,0,8.3,0C8.2,0,8,0.2,8,0.4v2.2C8,2.8,8.2,3,8.3,3z
	 M8.3,17.3c0.2,0,0.3-0.2,0.3-0.4v-2.2c0-0.2-0.1-0.4-0.3-0.4c-0.2,0-0.3,0.2-0.3,0.4v2.2C8,17.1,8.2,17.3,8.3,17.3z M3.6,5.8
	c0.1-0.2,0-0.5-0.1-0.6L1.6,4C1.4,3.9,1.2,4,1.1,4.2C0.9,4.4,1,4.7,1.2,4.8L3.1,6C3.2,6.1,3.5,6,3.6,5.8L3.6,5.8z M15.9,13.1
	c0.1-0.2,0-0.5-0.1-0.6l-1.9-1.2c-0.2-0.1-0.4,0-0.5,0.2c-0.1,0.2,0,0.5,0.1,0.6l1.9,1.2C15.6,13.4,15.8,13.3,15.9,13.1L15.9,13.1z
	 M11.2,3.6c0.2,0.1,0.5,0,0.6-0.1L13,1.6c0.1-0.2,0-0.4-0.2-0.5c-0.2-0.1-0.5,0-0.6,0.1L11,3.1C10.9,3.2,11,3.5,11.2,3.6L11.2,3.6z
	 M4.2,15.9c0.2,0.1,0.5,0,0.6-0.1L6,13.9c0.1-0.2,0-0.4-0.2-0.5c-0.2-0.1-0.5,0-0.6,0.1L4,15.4C3.9,15.6,4,15.8,4.2,15.9L4.2,15.9z
	 M5.8,3.9C6,3.8,6.1,3.6,6,3.4L4.8,1.5C4.7,1.4,4.4,1.3,4.2,1.4C4,1.5,3.9,1.8,4,1.9l1.2,1.9C5.3,4,5.6,4.1,5.8,3.9L5.8,3.9z
	 M12.8,15.9c0.2-0.1,0.3-0.4,0.2-0.5l-1.2-1.9c-0.1-0.2-0.4-0.2-0.6-0.1c-0.2,0.1-0.3,0.4-0.2,0.5l1.2,1.9
	C12.3,16,12.6,16.1,12.8,15.9z M13.4,5.8C13.5,6,13.8,6.1,13.9,6l1.9-1.2c0.2-0.1,0.2-0.4,0.1-0.6C15.8,4,15.6,3.9,15.4,4l-1.9,1.2
	C13.4,5.3,13.3,5.6,13.4,5.8L13.4,5.8z M1.1,13.1c0.1,0.2,0.4,0.3,0.5,0.2l1.9-1.2c0.2-0.1,0.2-0.4,0.1-0.6
	c-0.1-0.2-0.4-0.3-0.5-0.2l-1.9,1.2C1,12.6,0.9,12.9,1.1,13.1L1.1,13.1z"/>
</svg>
