<?xml version="1.0" encoding="utf-8"?>
<!-- Generator: Adobe Illustrator 24.0.3, SVG Export Plug-In . SVG Version: 6.00 Build 0)  -->
<svg version="1.1" id="Layer_1" xmlns="http://www.w3.org/2000/svg" xmlns:xlink="http://www.w3.org/1999/xlink" x="0px" y="0px"
	 viewBox="0 0 17 22.8" style="enable-background:new 0 0 17 22.8;" xml:space="preserve">
<path d="M15.8,3.5c-0.5-0.2-1-0.1-1.6,0.1c-2.1,0.8-3.5,1.1-5.6,0.4C7.2,3.7,6,2.8,4.5,3.3C3.4,3.7,2.5,4,1.4,4L0.7,0.7h15.5
	L15.8,3.5L15.8,3.5z M10.5,13.3c0,0-0.8,0.8-2,0.7c-1.2,0.1-2-0.7-2-0.7C5.3,12,5.8,10.5,6.2,9.8c0.3-0.5,2.2-3.3,2.3-3.5v0
	c0,0,0,0,0,0l0,0v0c0.2,0.2,2.1,3,2.3,3.5C11.3,10.5,11.8,12,10.5,13.3L10.5,13.3z M17,0.1c0,0-0.1-0.1-0.2-0.1H0.2
	C0.1,0,0.1,0,0,0.1c0,0-0.1,0.1,0,0.2l2.8,16.5c0,0.1,0.1,0.2,0.2,0.2h3.4l0.2,2.7l-1.4,0l3.4,3.3l3.4-3.3l-1.4,0l0.2-2.7h3.5
	c0.1,0,0.2-0.1,0.2-0.2L17,0.2C17,0.2,17,0.1,17,0.1L17,0.1z"/>
</svg>
