<?xml version="1.0" encoding="utf-8"?>
<!-- Generator: Adobe Illustrator 24.0.3, SVG Export Plug-In . SVG Version: 6.00 Build 0)  -->
<svg version="1.1" id="Layer_1" xmlns="http://www.w3.org/2000/svg" xmlns:xlink="http://www.w3.org/1999/xlink" x="0px" y="0px"
	 viewBox="0 0 17 8.7" style="enable-background:new 0 0 17 8.7;" xml:space="preserve">
<path d="M12,5.1c-0.1,0-0.5-0.6-0.2-0.9c0.1-0.1-0.1-0.2-0.1-0.2C11.9,3.9,12,4,12,4.2c0,0.1,0,0.1,0,0.2C12.1,4.6,12,4.9,12,5.1
	L12,5.1z M11,6.9c0,0-0.1,0-0.1,0c-0.2-0.1-0.2,0.1-0.3,0c-0.1,0,0.1-0.3-0.2-0.1c-0.3,0.2-0.2,0-0.3-0.3c-0.1-0.3,0.1-0.7,0.4-0.8
	c0.3-0.1,0.5-0.1,0.6-0.2c0.4-0.1,0.5-0.4,0.6-0.2c0,0,0,0.1,0,0.1c0,0,0.1,0.1,0.1,0.2C11.6,6.1,11.4,6.6,11,6.9L11,6.9z M8.5,8
	c-0.3,0-0.7-0.1-1-0.1c0,0-0.1-0.1,0-0.2c0.1-0.3,0.4-0.4,0.7-0.4c0.6-0.1,1.3,0.4,1.5,0.3c0.1-0.1,0.4-0.4,0.7-0.4
	c0.2,0,0.2,0.1,0.3,0.1C10.1,7.7,9.3,8,8.5,8z M8,5.6c0,0.1-0.2,0.7-0.3,0.6c-0.1-0.1,0-0.7,0.1-0.7C8,5.2,8.3,5.2,8,5.6z M9.5,4.9
	C9.4,5,9.2,5,9.1,4.9C9,4.8,9.2,4.7,9.2,4.7C9.4,4.7,9.5,4.9,9.5,4.9L9.5,4.9z M11,4.9c0,0-0.1-0.1-0.1-0.1c0-0.1,0-0.1,0.1-0.1
	c0.1,0,0.2,0.1,0.2,0.2C11.2,4.9,11.1,4.9,11,4.9L11,4.9z M11.2,5c0.1,0,0.3,0.2,0.2,0.2c-0.1,0.1-0.2,0-0.3,0C11,5.2,11.1,5,11.2,5
	L11.2,5z M7.4,6.5C7.3,6.7,7.2,6.8,7.2,6.9C7.1,7,6.8,7.1,6.7,7.1c-0.2,0-0.2-0.4-0.2-0.7c0-0.1-0.1,0.2-0.2-0.3
	c0-0.3-0.2,0-0.2-0.2c0-0.2-0.1-0.2-0.2-0.3c-0.1-0.1-0.2,0-0.4,0.1c-0.1,0.1-0.1,0.1-0.3,0c0,0,0,0,0,0C5.1,5.3,5,4.9,5,4.4
	C5,4.3,5,4.1,5,4c0,0,0,0,0,0c0.2-0.2,0.2-0.3,0.2-0.3l0.2-0.1c0,0,0.3,0.1,0.6,0.1C6.2,3.9,6.5,4,6.7,4c0.1-0.1,0.2-0.1,0.2-0.2
	c0-0.1-0.1-0.2-0.3-0.1c-0.1,0-0.2-0.2-0.2-0.2c-0.1,0,0.1,0.3,0,0.3c-0.1,0-0.2-0.3-0.2-0.3c0,0-0.1-0.2-0.2-0.1
	C5.8,3.5,5.4,3.5,5.4,3.6C5.2,3.7,5.1,3.5,5.1,3.4c0,0,0-0.1,0-0.1c0.1-0.1,0.3-0.1,0.4,0c0.1,0.1,0.2,0,0.2-0.1c0,0,0-0.1,0-0.1
	c0,0,0-0.1,0.1-0.1c0,0,0.2-0.1,0.3-0.2c0.1,0,0.4-0.1,0.5,0c0.1,0.1,0.3,0,0.4-0.1c0.1-0.1,0.2-0.2,0.3-0.2c0.1,0-0.1-0.2-0.3,0
	C6.8,2.7,6.7,2.7,6.7,2.7c-0.1,0-0.5-0.1-0.5-0.2c0-0.1,0.1-0.2,0.3-0.3C6.6,2.1,7,2.1,7.1,2.1C7.3,2,7.6,1.9,7.7,2
	c0.1,0.1-0.6,0.3-0.3,0.4c0.1,0,0.5-0.2,0.6-0.3c0.3-0.2-0.3-0.2-0.2-0.5C7.8,1.2,7,1.3,6.6,1.4C7.1,1,7.8,0.8,8.5,0.8
	c1.7,0,3.1,1.2,3.4,2.7c0,0.1,0,0.1,0,0.2c0,0.1-0.3,0.2-0.4,0c0-0.1-0.2-0.2-0.2,0.1c0,0.2,0.2,0.3,0,0.4c-0.2,0.1-0.3,0.1-0.4,0.2
	c-0.1,0-0.2,0.3-0.2,0.4c0,0.1,0.3,0.5,0.1,0.5c-0.1,0-0.5-0.3-0.5-0.5c-0.1-0.2-0.2-0.4-0.2-0.5c-0.1-0.1-0.2-0.2-0.3-0.1
	c-0.1,0.1,0,0.2-0.1,0.4C9.7,4.7,9.6,4.9,9.5,4.7C9.1,4.3,8.6,4.5,8.5,4.1c0-0.2-0.2-0.2-0.4-0.4C7.9,3.6,7.8,3.5,7.8,3.6
	c0,0.1,0.5,0.5,0.6,0.7c0.1,0.2-0.2,0.3-0.3,0.4c-0.2,0-0.2-0.1-0.4-0.3C7.5,4.2,7.4,4.1,7.4,4.2c0,0.2,0.2,0.5,0.3,0.6
	C7.9,4.9,8,4.9,8,5.1c0,0.1,0,0.1-0.2,0.2C7.7,5.5,7.6,5.5,7.6,5.7c0,0.2,0,0.2-0.1,0.4C7.5,6.3,7.5,6.2,7.4,6.5L7.4,6.5z M5.5,2.5
	C5.5,2.5,5.5,2.5,5.5,2.5c0.1-0.1,0.2-0.1,0.3-0.1c0.1,0,0.2,0,0.2,0.1c0,0.1-0.2,0.2-0.3,0.2C5.6,2.8,5.4,3,5.3,3.1
	c0,0-0.1,0-0.1,0C5.3,2.9,5.4,2.7,5.5,2.5L5.5,2.5z M5.7,2.2c0-0.1,0.2-0.3,0.2-0.3C5.9,1.8,6,1.8,6,1.8c0.1,0,0.1,0,0.1,0.1
	c0,0,0,0.2,0,0.2C6.1,2.2,5.9,2.3,5.8,2.3C5.7,2.2,5.6,2.2,5.7,2.2L5.7,2.2z M16.9,4.3C16.3,3.4,13.6,0,8.5,0C3.4,0,0.7,3.4,0.1,4.3
	c0,0,0,0.1-0.1,0.1c0,0,0,0.1,0.1,0.1c0.6,0.9,3.3,4.3,8.4,4.3c5.1,0,7.8-3.4,8.4-4.3C17,4.4,17,4.4,16.9,4.3
	C17,4.3,17,4.3,16.9,4.3z"/>
</svg>
