<?xml version="1.0" encoding="utf-8"?>
<!-- Generator: Adobe Illustrator 24.0.3, SVG Export Plug-In . SVG Version: 6.00 Build 0)  -->
<svg version="1.1" id="Layer_1" xmlns="http://www.w3.org/2000/svg" xmlns:xlink="http://www.w3.org/1999/xlink" x="0px" y="0px"
	 viewBox="0 0 17 18.8" style="enable-background:new 0 0 17 18.8;" xml:space="preserve">
<path d="M15.3,4.7l-3.4,3.5c-0.1,0.1-0.2,0.2-0.2,0.5v9.8c0,0.1,0.1,0.2,0.2,0.2h3.5c0.1,0,0.2-0.1,0.2-0.2V4.8
	C15.6,4.7,15.5,4.5,15.3,4.7L15.3,4.7z M1.3,12.3c-0.1,0.1-0.2,0.2-0.2,0.5v5.7c0,0.1,0.1,0.2,0.2,0.2h3.5c0.1,0,0.2-0.1,0.2-0.2V9
	C5,8.9,4.9,8.7,4.7,9L1.3,12.3L1.3,12.3z M17,0.1C17,0.1,17,0.1,17,0.1C17,0,16.9,0,16.9,0l0,0l0,0l-2.8,0.6l0,0c0,0,0,0-0.1,0
	c0,0,0,0.1,0,0.2l0,0l0.6,0.6L8.4,7.8L5.5,4.9c0,0-0.1,0-0.1,0L4.6,5.7c0,0,0,0,0,0L0,10.4c0,0,0,0.1,0,0.1l0.8,0.8c0,0,0.1,0,0.1,0
	l4.6-4.6l2.1,2.1c0,0,0,0,0,0l0.8,0.8c0,0,0.1,0,0.1,0l7.1-7.2l0.7,0.7c0,0,0.1,0,0.1,0c0,0,0,0,0-0.1l0,0L17,0.1L17,0.1L17,0.1z
	 M8.3,11.5c0,0-0.1,0-0.1,0L6.7,9.8C6.4,9.5,6.4,9.8,6.4,9.9v8.7c0,0.1,0.1,0.2,0.2,0.2h3.5c0.1,0,0.2-0.1,0.2-0.2V9.8
	c0-0.1-0.1-0.3-0.3-0.1L8.3,11.5L8.3,11.5z"/>
</svg>
