<?xml version="1.0" encoding="utf-8"?>
<!-- Generator: Adobe Illustrator 24.0.3, SVG Export Plug-In . SVG Version: 6.00 Build 0)  -->
<svg version="1.1" id="Layer_1" xmlns="http://www.w3.org/2000/svg" xmlns:xlink="http://www.w3.org/1999/xlink" x="0px" y="0px"
	 viewBox="0 0 17 22.9" style="enable-background:new 0 0 17 22.9;" xml:space="preserve">
<path d="M7,15c-2.8,0-5.2-2.3-5.2-5.2C1.9,7,4.2,4.6,7,4.6s5.2,2.3,5.2,5.2C12.2,12.7,9.9,15,7,15L7,15z M16.9,0h-5.4
	c0,0-0.1,0-0.1,0.1v1.8c0,0,0,0.1,0.1,0.1h2.1l-2.4,2.4C10.1,3.4,8.6,2.8,7,2.8c-3.9,0-7,3.1-7,7c0,3.6,2.7,6.5,6.1,7v2.1H4
	c0,0-0.1,0-0.1,0.1v1.9c0,0,0,0.1,0.1,0.1h2.1v2c0,0,0,0.1,0.1,0.1h1.9c0,0,0.1,0,0.1-0.1v-2h2.1c0,0,0.1,0,0.1-0.1v-1.9
	c0,0,0-0.1-0.1-0.1H8.2v-2.1c3.3-0.5,5.9-3.4,5.9-6.9c0-1.5-0.5-2.9-1.3-4l2.3-2.3v2c0,0,0,0.1,0.1,0.1h1.8c0,0,0.1,0,0.1-0.1
	L16.9,0C17,0,17,0,16.9,0z M10.1,7.2H3.9c0,0-0.1,0-0.1,0v1.2c0,0,0,0,0.1,0h6.2c0,0,0.1,0,0.1,0L10.1,7.2
	C10.2,7.2,10.2,7.2,10.1,7.2z M10.1,10.2H3.9c0,0-0.1,0-0.1,0v1.2c0,0,0,0,0.1,0h6.2c0,0,0.1,0,0.1,0L10.1,10.2
	C10.2,10.2,10.2,10.2,10.1,10.2z"/>
</svg>
