<?xml version="1.0" encoding="utf-8"?>
<!-- Generator: Adobe Illustrator 24.0.3, SVG Export Plug-In . SVG Version: 6.00 Build 0)  -->
<svg version="1.1" id="Layer_1" xmlns="http://www.w3.org/2000/svg" xmlns:xlink="http://www.w3.org/1999/xlink" x="0px" y="0px"
	 viewBox="0 0 17 11.9" style="enable-background:new 0 0 17 11.9;" xml:space="preserve">
<path d="M17,6.4c0-0.7-0.5-1.3-1.2-1.3c-0.3,0-0.8,0.4-1,0.6c-0.2-0.2-0.6-0.6-1-0.6c-0.7,0-1.2,0.6-1.2,1.3c0,0.4,0.1,0.7,0.4,0.9
	l1.8,1.8l1.8-1.8l0,0C16.9,7.1,17,6.8,17,6.4L17,6.4z M9.4,11.9C9.4,11.9,9.4,11.9,9.4,11.9c-0.2,0-0.3-0.1-0.3-0.2L8.2,6.4L6.9,9
	C6.8,9.1,6.7,9.1,6.6,9.1C6.4,9.1,6.3,9,6.3,8.9L5.7,4.8L4.7,7.2c0,0.1-0.2,0.2-0.3,0.2H0.3C0.1,7.4,0,7.2,0,7.1s0.1-0.3,0.3-0.3
	h3.9l1.4-3.1c0.1-0.1,0.2-0.2,0.3-0.2c0.1,0,0.2,0.1,0.2,0.2l0.6,4.2l1.3-2.5c0.1-0.1,0.2-0.2,0.3-0.1c0.1,0,0.2,0.1,0.2,0.2
	l0.8,4.9l3-10.1c0-0.1,0.1-0.2,0.3-0.2c0.1,0,0.2,0.1,0.3,0.2l1.6,3.3c0.1,0.1,0,0.3-0.1,0.4c-0.1,0.1-0.3,0-0.4-0.1l-1.3-2.7
	L9.7,11.7C9.7,11.8,9.6,11.9,9.4,11.9L9.4,11.9z"/>
</svg>
