<?xml version="1.0" encoding="utf-8"?>
<!-- Generator: Adobe Illustrator 24.0.3, SVG Export Plug-In . SVG Version: 6.00 Build 0)  -->
<svg version="1.1" id="Layer_1" xmlns="http://www.w3.org/2000/svg" xmlns:xlink="http://www.w3.org/1999/xlink" x="0px" y="0px"
	 viewBox="0 0 17 17" style="enable-background:new 0 0 17 17;" xml:space="preserve">
<path d="M16.6,14.2l-3.7,2.1v-4.2l3.7-2.1V14.2L16.6,14.2z M4.8,16.3v-3.7l3.3,1.8L4.8,16.3L4.8,16.3z M4.1,16.3l-3.7-2.1V10
	l3.7,2.1V16.3L4.1,16.3z M8.1,4.8L4.8,6.7V3L8.1,4.8L8.1,4.8z M12.2,6.7L8.9,4.8L12.2,3V6.7L12.2,6.7z M8.9,9.8l3.5-2l3.5,2l-3.5,2
	L8.9,9.8L8.9,9.8z M8.1,9.2L4.8,7.4l3.3-1.8V9.2L8.1,9.2z M12.2,7.4L8.9,9.2V5.5L12.2,7.4z M8.1,13.7l-3.3-1.8L8.1,10V13.7L8.1,13.7
	z M16.9,9.4l-4-2.3V2.6c0-0.1-0.1-0.2-0.1-0.2L8.6,0C8.6,0,8.4,0,8.4,0L4.2,2.4c-0.1,0-0.1,0.1-0.1,0.2v4.5l-4,2.3
	C0.1,9.5,0,9.6,0,9.7v4.7c0,0.1,0.1,0.2,0.1,0.2L4.2,17c0,0,0.1,0,0.1,0c0,0,0.1,0,0.1,0l4-2.3l4,2.3c0,0,0.1,0,0.1,0
	c0,0,0.1,0,0.1,0l4.1-2.4c0.1,0,0.1-0.1,0.1-0.2V9.7C17,9.6,16.9,9.5,16.9,9.4L16.9,9.4z"/>
</svg>
