<?xml version="1.0" encoding="utf-8"?>
<!-- Generator: Adobe Illustrator 24.0.3, SVG Export Plug-In . SVG Version: 6.00 Build 0)  -->
<svg version="1.1" id="Layer_1" xmlns="http://www.w3.org/2000/svg" xmlns:xlink="http://www.w3.org/1999/xlink" x="0px" y="0px"
	 viewBox="0 0 17 14.2" style="enable-background:new 0 0 17 14.2;" xml:space="preserve">
<path d="M12.4,10.8c-0.6,0-1-0.5-1-1c0-0.6,0.5-1,1-1c0.6,0,1,0.5,1,1C13.5,10.3,13,10.8,12.4,10.8L12.4,10.8z M17,10.3
	c-0.4-0.5-3-3.8-6.5-3.8C7.3,6.5,4,9.3,4,9.3S2.7,6.8,0.2,6.5c0,0,0,0,0,0h0C0,6.5,0,6.6,0,6.6c0,0,0,0.1,0,0.1
	c0.3,0.5,1.2,2.1,1.2,3.7c0,1.6-0.8,3.1-1.2,3.7l0,0c0,0,0,0,0,0.1c0,0.1,0,0.1,0.1,0.1l0,0c0,0,0,0,0,0C2.7,14,4,11.4,4,11.4
	s3.3,2.8,6.4,2.8c3.6,0,6.1-3.3,6.5-3.8c0,0,0,0,0,0C17,10.4,17,10.4,17,10.3C17,10.3,17,10.3,17,10.3C17,10.3,17,10.3,17,10.3
	L17,10.3z M0.1,0.6C0.1,0.6,0.1,0.6,0.1,0.6C0,0.6,0,0.6,0,0.7v0.7c0,0,0,0.1,0,0.1C1.7,3,3.4,1.6,3.7,1.2c0,0,0,0,0,0
	c0,0,0,0,0.1,0c0,0,0.1,0,0.1,0c0,0,0,0,0,0c1.9,1.9,4,0.4,4.4,0l0,0c0,0,0,0,0,0c0,0,0,0,0,0l0,0c0.4,0.4,2.4,1.9,4.4,0
	c0,0,0,0,0,0c0,0,0,0,0.1,0c0,0,0,0,0.1,0c0,0,0,0,0,0c0.4,0.4,2,1.8,3.7,0.3c0,0,0,0,0-0.1V0.7c0-0.1,0-0.1-0.1-0.1c0,0,0,0,0,0
	c0,0,0,0-0.1,0c-0.5,0.3-2.2,0.9-3.6-0.5c0,0,0,0,0,0c0,0,0,0,0,0c0,0,0,0,0,0c0,0,0,0-0.1,0c-0.4,0.3-2.5,1.8-4.3,0l0,0
	c0,0,0,0-0.1,0c0,0-0.1,0-0.1,0l0,0C6.4,1.8,4.4,0.4,4,0c0,0,0,0-0.1,0c0,0,0,0,0,0c0,0,0,0,0,0c0,0,0,0,0,0
	C2.3,1.5,0.7,0.9,0.1,0.6C0.2,0.6,0.1,0.6,0.1,0.6L0.1,0.6z M3.7,3.7C3.7,3.6,3.7,3.6,3.7,3.7C3.8,3.6,3.8,3.6,3.7,3.7
	c0.1,0,0.1,0,0.2,0c0,0,0,0,0,0c1.9,1.9,4,0.4,4.4,0l0,0c0,0,0,0,0,0c0,0,0,0,0,0l0,0c0.4,0.4,2.4,1.9,4.4,0c0,0,0,0,0,0
	c0,0,0,0,0.1,0c0,0,0,0,0.1,0c0,0,0,0,0,0c0.4,0.4,2,1.8,3.7,0.3c0,0,0,0,0-0.1V3.1c0-0.1,0-0.1-0.1-0.1c0,0,0,0,0,0c0,0,0,0-0.1,0
	C16,3.3,14.4,4,12.9,2.5c0,0,0,0,0,0c0,0,0,0,0,0c0,0,0,0,0,0c0,0,0,0-0.1,0c-0.4,0.3-2.5,1.8-4.3,0l0,0c0,0,0,0-0.1,0
	c0,0-0.1,0-0.1,0l0,0C6.4,4.3,4.4,2.9,4,2.5c0,0,0,0-0.1,0c0,0,0,0,0,0c0,0,0,0,0,0c0,0,0,0,0,0C2.3,4,0.7,3.3,0.2,3.1
	c0,0,0,0-0.1,0c0,0,0,0,0,0C0,3,0,3.1,0,3.1v0.7c0,0,0,0.1,0,0.1C1.7,5.5,3.4,4,3.7,3.7L3.7,3.7z"/>
</svg>
