<?xml version="1.0" encoding="utf-8"?>
<!-- Generator: Adobe Illustrator 24.0.3, SVG Export Plug-In . SVG Version: 6.00 Build 0)  -->
<svg version="1.1" id="Layer_1" xmlns="http://www.w3.org/2000/svg" xmlns:xlink="http://www.w3.org/1999/xlink" x="0px" y="0px"
	 viewBox="0 0 17 16.3" style="enable-background:new 0 0 17 16.3;" xml:space="preserve">
<path d="M5.5,9.7C5.5,9.7,5.6,9.8,5.5,9.7l0.1,2.7c0,0,0,0.1-0.1,0.1H4.6c0,0-0.1,0-0.1-0.1V9.8c0,0,0-0.1,0.1-0.1H5.5z M16.9,13.5
	H0.1c0,0-0.1,0-0.1,0.1v0.9c0,0,0,0.1,0.1,0.1h16.8c0,0,0.1,0,0.1-0.1L16.9,13.5C17,13.6,17,13.5,16.9,13.5z M16.9,15.3H0.1
	c0,0-0.1,0-0.1,0.1v0.9c0,0,0,0.1,0.1,0.1h16.8c0,0,0.1,0,0.1-0.1L16.9,15.3C17,15.3,17,15.3,16.9,15.3z M13.7,6.9
	c-0.2-0.2-0.8-0.6-1.5-0.6c-0.5,0-1,0.2-1.4,0.7c0,0,0,0.1,0,0.1v0.1c0,0.1,0,0.1,0,0.1c0,0,0.1,0,0.1,0c0,0,0,0,0,0
	c0,0,0.1,0,0.1-0.1c0.1-0.1,0.3-0.2,0.7-0.2c0.4,0,1.1,0.1,1.8,0.8l0,0c0,0,0.1,0.1,0.2,0.1c0.1,0,0.1,0,0.1-0.1l0,0
	c0.7-0.7,1.4-0.8,1.8-0.8c0.4,0,0.6,0.1,0.7,0.2c0,0,0.1,0,0.1,0.1c0,0,0.1,0,0.1,0c0.1,0,0.1-0.1,0.1-0.2V7c0,0,0-0.1,0-0.1
	c-0.4-0.4-0.9-0.7-1.4-0.7C14.5,6.2,13.9,6.7,13.7,6.9L13.7,6.9z M12.6,0.2c0,0-0.1,0.1-0.1,0.1l0,0.1c0,0.1,0,0.1,0,0.1
	c0,0,0.1,0.1,0.1,0.1c0,0,0,0,0,0c0,0,0.1,0,0.1,0c0,0,0,0,0.1,0c0.1,0,0.7,0,1.1,0.9l0,0c0,0.1,0.1,0.1,0.1,0.1c0,0,0,0,0.1,0
	c0,0,0.1,0,0.1,0l0,0c0.2-0.1,0.5-0.2,0.7-0.2c0.4,0,0.7,0.2,0.7,0.3c0,0,0,0.1,0.1,0.1c0,0,0,0,0.1,0c0,0,0,0,0,0c0,0,0,0,0,0
	c0,0,0,0,0.1,0c0,0,0.1-0.1,0.1-0.1l0-0.1c0,0,0,0,0,0c0,0,0-0.1,0-0.1c-0.3-0.7-0.8-0.8-1.1-0.8c-0.2,0-0.5,0.1-0.6,0.1
	C14.1,0.5,13.8,0,13.2,0C13,0,12.8,0.1,12.6,0.2L12.6,0.2z M9,2.3L9,2.3c0,0.1,0,0.1,0.1,0.1c0,0,0.1,0,0.1,0c0,0,0,0,0,0
	c0,0,0.1,0,0.1,0c0.1,0,0.3-0.1,0.7-0.1c0.3,0,0.8,0.1,1.4,0.4l0,0c0,0,0.1,0,0.1,0h0c0.1,0,0.1,0,0.1,0l0,0
	c0.6-0.5,1.2-0.5,1.5-0.5c0.2,0,0.4,0,0.4,0.1c0,0,0.1,0,0.1,0c0,0,0,0,0.1,0c0,0,0,0,0,0c0.1,0,0.1-0.1,0.1-0.1l0-0.1
	c0,0,0-0.1-0.1-0.1c-0.3-0.2-0.7-0.3-1.1-0.3c-0.6,0-1.1,0.3-1.3,0.4c-0.2-0.1-0.6-0.3-1.1-0.3C9.8,1.8,9.4,2,9,2.3
	C9,2.3,9,2.3,9,2.3L9,2.3z M0.7,4.1c0-1,0.8-1.8,1.8-1.8c0,0,0.1,0,0.1,0C2.7,1,3.8,0,5,0c1.3,0,2.4,1.1,2.4,2.5
	c0,0.4-0.1,0.8-0.2,1.1c1.2,0.3,2.1,1.4,2.1,2.7C9.4,7.8,8.1,9,6.6,9C6.5,9,3,9,3,9C1.9,9,1.1,8.1,1.1,7c0-0.5,0.2-1,0.5-1.3
	C1.1,5.4,0.7,4.8,0.7,4.1L0.7,4.1z"/>
</svg>
