<?xml version="1.0" encoding="utf-8"?>
<!-- Generator: Adobe Illustrator 24.0.3, SVG Export Plug-In . SVG Version: 6.00 Build 0)  -->
<svg version="1.1" id="Layer_1" xmlns="http://www.w3.org/2000/svg" xmlns:xlink="http://www.w3.org/1999/xlink" x="0px" y="0px"
	 viewBox="0 0 17 7.2" style="enable-background:new 0 0 17 7.2;" xml:space="preserve">
<path d="M14.6,0.7c0-0.4,0.3-0.7,0.7-0.7c0.4,0,0.7,0.3,0.7,0.7c0,0.4-0.3,0.7-0.7,0.7C14.9,1.3,14.6,1,14.6,0.7z M16.2,1.3
	c0.4,0,0.8,0.4,0.8,0.8v1.7C17,3.9,16.9,4,16.8,4c-0.1,0-0.2-0.1-0.2-0.2V2.3c0-0.1,0-0.1-0.1-0.1c-0.1,0-0.1,0.1-0.1,0.1v4.3
	c0,0.2-0.2,0.3-0.4,0.3s-0.4-0.2-0.4-0.3V4.2c0,0,0-0.1-0.1-0.1h0c-0.1,0-0.1,0.1-0.1,0.1v2.5C15.4,6.8,15.2,7,15,7
	c-0.2,0-0.4-0.2-0.4-0.3V2.3c0,0,0-0.1-0.1-0.1c-0.1,0-0.1,0.1-0.1,0.1v1.4c0,0.1-0.1,0.2-0.2,0.2c-0.1,0-0.2-0.1-0.2-0.2V2.1
	c0-0.4,0.3-0.8,0.8-0.8c0,0,0,0,0,0L16.2,1.3C16.2,1.3,16.2,1.3,16.2,1.3L16.2,1.3z M11.3,0.9c0-0.4-0.3-0.7-0.7-0.7S10,0.5,10,0.9
	c0,0.4,0.3,0.7,0.7,0.7S11.3,1.2,11.3,0.9z M9.4,2.2L9,3.8c0,0-0.1,0.3,0.2,0.4c0.2,0.1,0.3-0.2,0.3-0.2l0.4-1.3c0,0,0-0.1,0.1-0.1
	c0.1,0,0,0.1,0,0.1L9.3,5.1h0.6v1.8c0,0.2,0.1,0.3,0.3,0.3c0.2,0,0.3-0.1,0.3-0.3V5.1h0.2v1.8c0,0.2,0.1,0.3,0.3,0.3
	c0.2,0,0.3-0.1,0.3-0.3V5.1h0.6l-0.7-2.5c0,0,0-0.1,0-0.1c0.1,0,0.1,0.1,0.1,0.1l0.4,1.3c0,0,0.1,0.3,0.3,0.2
	c0.2-0.1,0.2-0.4,0.2-0.4l-0.5-1.6c0,0-0.2-0.5-0.5-0.5H10C9.6,1.7,9.4,2.2,9.4,2.2L9.4,2.2z M7.8,0.9c0-0.4-0.3-0.7-0.7-0.7
	c-0.4,0-0.7,0.3-0.7,0.7c0,0.4,0.3,0.7,0.7,0.7C7.6,1.5,7.8,1.2,7.8,0.9z M5.9,2.2L5.5,3.8c0,0-0.1,0.3,0.2,0.4
	c0.2,0.1,0.3-0.2,0.3-0.2l0.4-1.3c0,0,0-0.1,0.1-0.1c0.1,0,0,0.1,0,0.1L5.8,5.1h0.6v1.8c0,0.2,0.1,0.3,0.3,0.3C6.9,7.2,7,7.1,7,6.9
	V5.1h0.2v1.8c0,0.2,0.1,0.3,0.3,0.3c0.2,0,0.3-0.1,0.3-0.3V5.1h0.6L7.7,2.7c0,0,0-0.1,0-0.1c0.1,0,0.1,0.1,0.1,0.1l0.4,1.3
	c0,0,0.1,0.3,0.3,0.2c0.2-0.1,0.2-0.4,0.2-0.4L8.2,2.2c0,0-0.2-0.5-0.5-0.5H6.5C6.1,1.7,5.9,2.2,5.9,2.2L5.9,2.2z M13,4.1
	c0.3,0,0.5-0.2,0.5-0.5S13.3,3.1,13,3.1s-0.5,0.2-0.5,0.5S12.7,4.1,13,4.1z M12,5.4c0,0.1,0,0.2,0.1,0.2c0.1,0.1,0.2-0.1,0.2-0.1
	l0.2-0.8c0,0,0-0.1,0,0v2h0c0,0.1,0.1,0.2,0.2,0.2C12.9,7,13,6.9,13,6.7V6c0,0,0-0.1,0.1-0.1c0.1,0,0.1,0.1,0.1,0.1v0.8
	c0,0.1,0.1,0.2,0.2,0.2c0.1,0,0.2-0.1,0.2-0.2v-2c0-0.1,0,0,0,0l0.2,0.6c0,0,0.1,0.3,0.1,0.3c0.1,0,0.2,0,0.2-0.1c0-0.1,0-0.1,0-0.2
	l0,0c0,0-0.3-0.8-0.3-0.9c-0.1-0.3-0.3-0.3-0.5-0.3c-0.2,0-0.3,0-0.3,0s-0.1,0-0.3,0c-0.2,0-0.3,0.1-0.6,0.8C12.1,5.1,12,5.4,12,5.4
	L12,5.4L12,5.4z M2.6,0.7C2.6,0.3,2.3,0,2,0C1.6,0,1.3,0.3,1.3,0.7C1.3,1,1.6,1.3,2,1.3C2.3,1.3,2.6,1,2.6,0.7z M1.2,1.3
	c-0.4,0-0.8,0.4-0.8,0.8v1.7C0.4,3.9,0.5,4,0.7,4s0.2-0.1,0.2-0.2V2.3c0-0.1,0-0.1,0.1-0.1c0.1,0,0.1,0.1,0.1,0.1v4.3
	C1.1,6.8,1.3,7,1.5,7c0.2,0,0.4-0.2,0.4-0.3V4.2c0,0,0-0.1,0.1-0.1h0c0.1,0,0.1,0.1,0.1,0.1v2.5C2.1,6.8,2.2,7,2.4,7
	c0.2,0,0.4-0.2,0.4-0.3V2.3c0,0,0-0.1,0.1-0.1C3,2.2,3,2.3,3,2.3v1.4C3,3.9,3.1,4,3.2,4c0.1,0,0.2-0.1,0.2-0.2V2.1
	c0-0.4-0.3-0.8-0.8-0.8c0,0,0,0,0,0L1.2,1.3C1.2,1.3,1.2,1.3,1.2,1.3z M0.1,7C0.1,7,0.1,7,0.1,7C0,7,0,6.9,0,6.9L0.5,4
	c0,0,0.1-0.1,0.1-0.1c0,0,0.1,0.1,0.1,0.1L0.1,7C0.2,6.9,0.1,7,0.1,7z M3.6,3.8c0,0-0.1-0.1-0.2-0.1c-0.1,0-0.2,0.1-0.2,0.2
	c0,0,0,0.1,0,0.1l0.5,0.9c0,0,0,0.1,0,0.1v1.8h0C3.8,6.9,3.9,7,4,7c0.1,0,0.2-0.1,0.2-0.2V6c0,0,0-0.1,0.1-0.1C4.4,5.9,4.4,6,4.4,6
	v0.7C4.4,6.9,4.5,7,4.7,7c0.1,0,0.2-0.1,0.2-0.2V4.9c0-0.1,0-0.1,0-0.1L5.4,4c0,0,0.1-0.1,0.1-0.1c0-0.1-0.1-0.2-0.2-0.2
	c-0.1,0-0.1,0-0.2,0.1l0,0c0,0-0.2,0.4-0.3,0.5C4.7,4.3,4.7,4.3,4.7,4.3H4.1c0,0-0.1,0-0.2-0.1C3.8,4.2,3.6,3.8,3.6,3.8L3.6,3.8
	L3.6,3.8z M4.5,4.1C4.8,4.1,5,3.9,5,3.6S4.8,3.1,4.5,3.1c-0.3,0-0.5,0.2-0.5,0.5S4.2,4.1,4.5,4.1z M4.3,4.6L4.8,5L5,5.9H3.5L3.7,5
	L4.3,4.6z"/>
</svg>
