<?xml version="1.0" encoding="utf-8"?>
<!-- Generator: Adobe Illustrator 24.0.3, SVG Export Plug-In . SVG Version: 6.00 Build 0)  -->
<svg version="1.1" id="Layer_1" xmlns="http://www.w3.org/2000/svg" xmlns:xlink="http://www.w3.org/1999/xlink" x="0px" y="0px"
	 viewBox="0 0 17 16.7" style="enable-background:new 0 0 17 16.7;" xml:space="preserve">
<path d="M11.5,7.7c0.9-0.8,1.4-2,1.4-3.3c0-0.2,0-0.4,0-0.6c1.8,0.2,3.2,1.7,3.2,3.5c0,1-0.5,2-1.2,2.6C14.3,8.8,13,7.9,11.5,7.7
	L11.5,7.7z M14.6,12.2c0,2-1.6,3.6-3.6,3.6c-0.6,0-1.2-0.2-1.8-0.5c0.8-0.8,1.2-1.9,1.2-3.1c0-0.3,0-0.6-0.1-0.9
	c0.6,0.4,1.4,0.6,2.2,0.6c0.7,0,1.4-0.2,1.9-0.4C14.5,11.7,14.6,11.9,14.6,12.2L14.6,12.2z M2.4,12.2c0-0.3,0-0.5,0.1-0.7
	c0.6,0.3,1.2,0.4,1.9,0.4c0.8,0,1.5-0.2,2.2-0.6c0,0.3-0.1,0.5-0.1,0.8c0,1.2,0.5,2.3,1.3,3.1c-0.5,0.3-1.1,0.5-1.8,0.5
	C4,15.8,2.4,14.2,2.4,12.2L2.4,12.2z M0.9,7.4c0-1.8,1.4-3.4,3.2-3.5c0,0.2,0,0.4,0,0.6c0,1.3,0.6,2.5,1.5,3.3
	C4,7.9,2.8,8.8,2.1,10.1C1.4,9.4,0.9,8.5,0.9,7.4L0.9,7.4z M8.5,0.9c1.5,0,2.7,0.9,3.3,2.1c-1.4,0.3-2.7,1.2-3.3,2.5
	C7.9,4.3,6.7,3.3,5.2,3C5.8,1.8,7,0.9,8.5,0.9z M9.3,9c0.5-0.3,1.1-0.4,1.6-0.4c1.4,0,2.6,0.8,3.2,2c-0.5,0.3-1.1,0.4-1.6,0.4
	C11.1,11,9.9,10.2,9.3,9z M7.6,9c-0.6,1.2-1.8,2-3.2,2c-0.6,0-1.1-0.1-1.6-0.4c0.6-1.2,1.8-2,3.2-2C6.6,8.6,7.1,8.8,7.6,9L7.6,9z
	 M5,3.9c1.7,0.3,3,1.7,3,3.5C8,7.6,8,7.8,8,8c-1.7-0.3-3-1.7-3-3.5C4.9,4.3,5,4.1,5,3.9L5,3.9z M8.5,14.7c-0.7-0.6-1.1-1.6-1.1-2.6
	c0-1,0.4-1.9,1-2.5c0.7,0.6,1.1,1.6,1.1,2.6C9.6,13.2,9.2,14.1,8.5,14.7L8.5,14.7z M12.1,4.5c0,1.8-1.3,3.3-3,3.5c0-0.2,0-0.4,0-0.5
	c0-1.8,1.3-3.3,3-3.5C12,4.1,12.1,4.3,12.1,4.5z M17,7.4C17,5,15.1,3.1,12.7,3c-0.6-1.7-2.3-3-4.2-3S4.9,1.2,4.3,3
	C1.9,3.1,0,5,0,7.4c0,1.4,0.7,2.7,1.7,3.5c-0.1,0.4-0.2,0.8-0.2,1.2c0,2.5,2,4.5,4.5,4.5c0.9,0,1.8-0.3,2.5-0.8
	c0.7,0.5,1.6,0.8,2.5,0.8c2.5,0,4.5-2,4.5-4.5c0-0.4-0.1-0.8-0.2-1.2C16.3,10.1,17,8.9,17,7.4L17,7.4z"/>
</svg>
