<?xml version="1.0" encoding="utf-8"?>
<!-- Generator: Adobe Illustrator 24.0.3, SVG Export Plug-In . SVG Version: 6.00 Build 0)  -->
<svg version="1.1" id="Layer_1" xmlns="http://www.w3.org/2000/svg" xmlns:xlink="http://www.w3.org/1999/xlink" x="0px" y="0px"
	 viewBox="0 0 17 16.7" style="enable-background:new 0 0 17 16.7;" xml:space="preserve">
<path d="M14.6,0c0,0-0.3,0.5-0.2,1c0.1,0.5,0.6,0.8,0.6,0.8s0.3-0.5,0.2-1C15.1,0.3,14.6,0,14.6,0L14.6,0z M13.8,2.7
	c0,0,0.3-0.5,0.2-1c-0.1-0.5-0.6-0.8-0.6-0.8s-0.3,0.5-0.2,1C13.2,2.4,13.8,2.7,13.8,2.7L13.8,2.7z M15.2,2.1c0,0,0.4,0.3,0.8,0.2
	c0.4,0,0.7-0.3,0.7-0.3s-0.4-0.3-0.8-0.2C15.5,1.8,15.2,2.1,15.2,2.1z M15.9,0.4c-0.4,0.4-0.4,1.1-0.4,1.1s0.7,0.1,1.1-0.3
	C17.1,0.7,17,0,17,0S16.3-0.1,15.9,0.4z M15.3,3.3c0.4,0,0.8-0.2,0.8-0.2s-0.3-0.3-0.7-0.4c-0.4,0-0.8,0.2-0.8,0.2
	S14.9,3.2,15.3,3.3z M15.9,10.4h-3.3c-0.3,0-0.5,0.2-0.5,0.4c0,0.2,0.2,0.4,0.5,0.4h3.3c0.3,0,0.5-0.2,0.5-0.4
	C16.4,10.6,16.2,10.4,15.9,10.4z M15.9,15.8h-3.3c-0.3,0-0.5,0.2-0.5,0.4c0,0.2,0.2,0.4,0.5,0.4h3.3c0.3,0,0.5-0.2,0.5-0.4
	C16.4,16,16.2,15.8,15.9,15.8z M6.8,11.8c0.2,0,0.4,0,0.6,0v1.6l-0.6,0V11.8z M15.6,12.2h-2.9c-0.1,0-0.2,0.1-0.2,0.3v0.9l-1.9,0.2
	l-2.7-0.1v-1.7c0.4,0,0.7-0.1,1.1-0.2c2.6-0.7,3.2-2.9,3.1-4.4c-0.1-1.5,0.4-2.1,1.1-2.4c0.2-0.1,0.4-0.1,0.6-0.2
	c0,0.4,0.1,0.8,0.3,1.3c0.1,0,0.1,0,0.2,0c-0.2-0.5-0.3-1-0.3-1.4c0.4,0,0.6,0,0.6,0S14.4,4.3,14,4c0.1-0.7,0.5-1.2,1-1.6
	c0.2-0.3,0.5-0.5,0.7-0.8l-0.2-0.1c-0.2,0.3-0.4,0.5-0.7,0.8c-0.4,0.4-0.9,0.9-1,1.6c-0.1-0.1-0.3-0.3-0.4-0.5
	c-0.6-0.7-1.5-0.2-2.7,0.9C9.6,5.5,8.1,5.5,6.6,4C4.7,2,3,2,1.9,2.2c0.8,0.3,1.1,1.1,1.5,3c0.4,2,1.5,2.9,2.9,3
	C5.4,8.4,5.4,8.9,4.3,9.6c-0.8,0.6-2,0.4-2.5,0.3c0.9,0.3,1.9,1.2,2.8,1.5c0.5,0.2,1.1,0.3,1.7,0.4v1.6l-4.9-0.1v1.1l9.1-0.2
	l1.9,0.2v0.9c0,0.1,0.1,0.3,0.2,0.3h2.9c0.1,0,0.2-0.1,0.2-0.3v-2.9C15.8,12.3,15.7,12.2,15.6,12.2L15.6,12.2z M0.9,13.8
	c0,0.3-0.2,0.5-0.3,0.5H0.3c-0.2,0-0.3-0.2-0.3-0.5V13c0-0.3,0.2-0.5,0.3-0.5h0.2c0.2,0,0.3,0.2,0.3,0.5C0.9,13,0.9,13.8,0.9,13.8z"
	/>
</svg>
