<?xml version="1.0" encoding="utf-8"?>
<!-- Generator: Adobe Illustrator 24.0.3, SVG Export Plug-In . SVG Version: 6.00 Build 0)  -->
<svg version="1.1" id="Layer_1" xmlns="http://www.w3.org/2000/svg" xmlns:xlink="http://www.w3.org/1999/xlink" x="0px" y="0px"
	 viewBox="0 0 17 13.7" style="enable-background:new 0 0 17 13.7;" xml:space="preserve">
<path d="M6.4,3.8L0.9,0.6v10.2l5.5,1.6V3.8z M7.3,3.8v8.7l5.5-1.7V0.6L7.3,3.8z M17,0.7C17,0.3,16.7,0,16.2,0
	c-0.4,0-0.8,0.3-0.8,0.7v0.8H17L17,0.7L17,0.7z M15.7,11.1h-0.2l0.8,2.3l0.8-2.3V1.8h-1.5v9.2H15.7z M14,1.1l-0.6-0.5v10.5l-6.1,2
	H6.7l-6.1-1.7V0.6L0,1.1v10.8l6.6,1.8h0.7l6.1-1.9l0.5-0.2L14,1.1z"/>
</svg>
