<?xml version="1.0" encoding="utf-8"?>
<!-- Generator: Adobe Illustrator 24.0.3, SVG Export Plug-In . SVG Version: 6.00 Build 0)  -->
<svg version="1.1" id="Layer_1" xmlns="http://www.w3.org/2000/svg" xmlns:xlink="http://www.w3.org/1999/xlink" x="0px" y="0px"
	 viewBox="0 0 17 12.6" style="enable-background:new 0 0 17 12.6;" xml:space="preserve">
<path d="M0.1,8.9h3.8c0.1,0,0.1,0,0.1-0.1c0,0,0,0,0-0.1l0,0L2,6.5l0,0c0,0,0,0-0.1,0c0,0,0,0-0.1,0l0,0l0,0L0,8.7l0,0
	C0,8.7,0,8.8,0.1,8.9C0,8.8,0,8.9,0.1,8.9L0.1,8.9z M3.9,9.4H0.1C0,9.4,0,9.4,0,9.5v3c0,0.1,0,0.1,0.1,0.1h1.2v-1.9
	c0-0.1,0-0.1,0.1-0.1h1.1c0.1,0,0.1,0,0.1,0.1v1.9h1.2c0.1,0,0.1,0,0.1-0.1L3.9,9.4C3.9,9.4,3.9,9.4,3.9,9.4z M16.6,9.8
	C16.6,9.9,16.5,9.9,16.6,9.8l-1.2,0.1c-0.1,0-0.1,0-0.1-0.1V9.2c0,0,0-0.1,0.1-0.1h1.1c0.1,0,0.1,0,0.1,0.1V9.8z M16.6,11.1
	C16.6,11.1,16.5,11.2,16.6,11.1l-1.2,0.1c-0.1,0-0.1,0-0.1-0.1v-0.7c0,0,0-0.1,0.1-0.1h1.1c0.1,0,0.1,0,0.1,0.1V11.1z M14.9,9.8
	C14.9,9.9,14.8,9.9,14.9,9.8l-1.2,0.1c-0.1,0-0.1,0-0.1-0.1V9.2c0,0,0-0.1,0.1-0.1h1.1c0.1,0,0.1,0,0.1,0.1V9.8z M14.9,11.1
	C14.9,11.1,14.8,11.2,14.9,11.1l-1.2,0.1c-0.1,0-0.1,0-0.1-0.1v-0.7c0,0,0-0.1,0.1-0.1h1.1c0.1,0,0.1,0,0.1,0.1V11.1z M16.9,8.6
	h-3.8c-0.1,0-0.1,0-0.1,0.1v3.8c0,0,0,0.1,0.1,0.1h3.8c0.1,0,0.1,0,0.1-0.1L16.9,8.6C17,8.7,17,8.6,16.9,8.6z M7.3,2.7
	C7.3,2.7,7.3,2.7,7.3,2.7l-0.9,0c0,0,0,0,0,0V1.7c0,0,0,0,0,0h0.8c0,0,0,0,0,0V2.7z M7.3,4.8C7.3,4.8,7.3,4.8,7.3,4.8l-0.9,0
	c0,0,0,0,0,0V3.9c0,0,0,0,0,0h0.8c0,0,0,0,0,0V4.8z M7.3,6.9C7.3,6.9,7.3,7,7.3,6.9L6.4,7c0,0,0,0,0,0V6c0,0,0,0,0,0h0.8
	c0,0,0,0,0,0V6.9L7.3,6.9z M7.3,9C7.3,9.1,7.3,9.1,7.3,9l-0.9,0c0,0,0,0,0,0V8.1c0,0,0,0,0,0h0.8c0,0,0,0,0,0V9L7.3,9z M7.3,11.2
	C7.3,11.2,7.3,11.2,7.3,11.2l-0.9,0c0,0,0,0,0,0v-0.9c0,0,0,0,0,0h0.8c0,0,0,0,0,0V11.2z M5.7,2.7C5.7,2.7,5.7,2.7,5.7,2.7l-0.9,0
	c0,0,0,0,0,0V1.7c0,0,0,0,0,0h0.8c0,0,0,0,0,0V2.7z M5.7,4.8C5.7,4.8,5.7,4.8,5.7,4.8l-0.9,0c0,0,0,0,0,0V3.9c0,0,0,0,0,0h0.8
	c0,0,0,0,0,0V4.8z M5.7,6.9C5.7,6.9,5.7,7,5.7,6.9L4.8,7c0,0,0,0,0,0V6c0,0,0,0,0,0h0.8c0,0,0,0,0,0V6.9L5.7,6.9z M5.7,9
	C5.7,9.1,5.7,9.1,5.7,9l-0.9,0c0,0,0,0,0,0V8.1c0,0,0,0,0,0h0.8c0,0,0,0,0,0V9L5.7,9z M5.7,11.2C5.7,11.2,5.7,11.2,5.7,11.2l-0.9,0
	c0,0,0,0,0,0v-0.9c0,0,0,0,0,0h0.8c0,0,0,0,0,0V11.2z M7.8,0H4.3c0,0-0.1,0-0.1,0.1v12.4c0,0,0,0.1,0.1,0.1h3.5c0,0,0.1,0,0.1-0.1
	L7.8,0C7.9,0,7.8,0,7.8,0z M17,8.1C17,8.1,17,8.1,17,8.1l-3.9,0.1c0,0-0.1,0-0.1-0.1V7.5c0,0,0-0.1,0.1-0.1h3.8c0,0,0.1,0,0.1,0.1
	V8.1z M11.9,6.1C11.9,6.1,11.9,6.2,11.9,6.1l-1.1,0.1c0,0-0.1,0-0.1-0.1V5.4c0,0,0-0.1,0.1-0.1h1.1c0,0,0.1,0,0.1,0.1V6.1z
	 M11.9,7.3C11.9,7.4,11.9,7.4,11.9,7.3l-1.1,0.1c0,0-0.1,0-0.1-0.1V6.7c0,0,0-0.1,0.1-0.1h1.1c0,0,0.1,0,0.1,0.1V7.3z M11.9,8.6
	C11.9,8.6,11.9,8.7,11.9,8.6l-1.1,0.1c0,0-0.1,0-0.1-0.1V7.9c0,0,0-0.1,0.1-0.1h1.1c0,0,0.1,0,0.1,0.1V8.6z M11.9,9.8
	C11.9,9.9,11.9,9.9,11.9,9.8l-1.1,0.1c0,0-0.1,0-0.1-0.1V9.2c0,0,0-0.1,0.1-0.1h1.1c0,0,0.1,0,0.1,0.1V9.8L11.9,9.8z M11.9,11.1
	C11.9,11.1,11.9,11.2,11.9,11.1l-1.1,0.1c0,0-0.1,0-0.1-0.1v-0.7c0,0,0-0.1,0.1-0.1h1.1c0,0,0.1,0,0.1,0.1V11.1z M10.3,5.8v1.5
	c0,0,0,0.1-0.1,0.1H9.2c0,0-0.1,0-0.1-0.1V7.2c0,0,0,0,0,0c0,0,0,0,0,0c0,0,0,0,0,0c0,0,0,0,0,0c0.1-0.2,0.7-1,1-1.3l0,0
	c0,0,0,0,0.1,0C10.3,5.7,10.3,5.8,10.3,5.8L10.3,5.8L10.3,5.8z M10.3,8.6C10.3,8.6,10.3,8.7,10.3,8.6L9.2,8.7c0,0-0.1,0-0.1-0.1V7.9
	c0,0,0-0.1,0.1-0.1h1.1c0,0,0.1,0,0.1,0.1V8.6z M10.3,9.8C10.3,9.9,10.3,9.9,10.3,9.8L9.2,9.9c0,0-0.1,0-0.1-0.1V9.2
	c0,0,0-0.1,0.1-0.1h1.1c0,0,0.1,0,0.1,0.1V9.8L10.3,9.8z M10.3,11.1C10.3,11.1,10.3,11.2,10.3,11.1l-1.1,0.1c0,0-0.1,0-0.1-0.1v-0.7
	c0,0,0-0.1,0.1-0.1h1.1c0,0,0.1,0,0.1,0.1V11.1z M10.9,4.7L10.9,4.7c0.3-0.3,0.7-0.9,0.9-1.1l0,0c0,0,0,0,0.1,0c0,0,0.1,0,0.1,0.1
	v1.1c0,0.1,0,0.1-0.1,0.1c0,0,0,0,0,0c0,0,0,0,0,0h-0.9c0,0,0,0,0,0c0,0,0,0,0,0C10.9,4.9,10.8,4.9,10.9,4.7
	C10.8,4.8,10.8,4.8,10.9,4.7L10.9,4.7z M12.3,2.3C12.3,2.2,12.3,2.2,12.3,2.3c-0.1-0.1-0.1-0.1-0.1-0.1c0,0,0,0,0,0l0,0L8.7,6.8
	c0,0,0,0,0,0.1v5.6c0,0,0,0.1,0.1,0.1h3.5c0,0,0.1,0,0.1-0.1L12.3,2.3C12.3,2.3,12.3,2.3,12.3,2.3L12.3,2.3z"/>
</svg>
