<?xml version="1.0" encoding="utf-8"?>
<!-- Generator: Adobe Illustrator 24.0.3, SVG Export Plug-In . SVG Version: 6.00 Build 0)  -->
<svg version="1.1" id="Layer_1" xmlns="http://www.w3.org/2000/svg" xmlns:xlink="http://www.w3.org/1999/xlink" x="0px" y="0px"
	 viewBox="0 0 17 14.5" style="enable-background:new 0 0 17 14.5;" xml:space="preserve">
<path d="M5.8,13.8v0.4c0,0,0,0,0,0c0,0,0,0,0,0c0,0.1,0.1,0.2,0.2,0.2c0,0,0,0,0,0c0,0,0,0,0,0h5.2c0,0,0,0,0,0c0,0,0,0,0,0
	c0.1,0,0.2-0.1,0.2-0.2c0,0,0,0,0,0c0,0,0,0,0,0v-0.5c2.9-1,5.1-3.4,5.6-6.3c0,0,0,0,0,0c0,0,0,0,0,0c0-0.1-0.1-0.2-0.2-0.2H0.2
	C0.1,7.2,0,7.3,0,7.5l0,0.1C0.5,10.5,2.8,12.9,5.8,13.8L5.8,13.8z M11.5,0.2c-0.1,0.1-1.7,2.4,0,4.3c0.8,0.9,0.7,1.6,0.5,2.1h1.1
	c0.2-0.8,0.1-1.7-0.8-2.7c-1.3-1.4,0-3.2,0-3.3c0.2-0.2,0.1-0.5-0.2-0.6C11.9-0.1,11.6,0,11.5,0.2L11.5,0.2z M8.5,6.6h1.1
	c0.2-0.8,0.1-1.7-0.8-2.7c-1.3-1.4,0-3.2,0-3.3C9.1,0.5,9,0.2,8.7,0.1C8.5-0.1,8.2,0,8,0.2C7.9,0.3,6.3,2.6,8,4.5
	C8.8,5.3,8.8,6.1,8.5,6.6L8.5,6.6z M4.5,0.2c-0.1,0.1-1.7,2.4,0,4.3c0.8,0.9,0.7,1.6,0.5,2.1h1.1c0.2-0.8,0.1-1.7-0.8-2.7
	c-1.3-1.4,0-3.2,0-3.3c0.2-0.2,0.1-0.5-0.2-0.6C5-0.1,4.7,0,4.5,0.2L4.5,0.2z"/>
</svg>
