<?xml version="1.0" encoding="utf-8"?>
<!-- Generator: Adobe Illustrator 24.0.3, SVG Export Plug-In . SVG Version: 6.00 Build 0)  -->
<svg version="1.1" id="Layer_1" xmlns="http://www.w3.org/2000/svg" xmlns:xlink="http://www.w3.org/1999/xlink" x="0px" y="0px"
	 viewBox="0 0 17 17" style="enable-background:new 0 0 17 17;" xml:space="preserve">
<path d="M16.7,15.5l-4.2-4.2c1.1-1.2,1.7-2.8,1.7-4.4C14.2,3.1,11,0,7.1,0S0,3.1,0,6.9s3.2,6.9,7.1,6.9c1.5,0,2.9-0.4,4.1-1.2
	l4.2,4.2c0.2,0.2,0.4,0.3,0.7,0.3c0.2,0,0.5-0.1,0.6-0.2C17.1,16.4,17.1,15.8,16.7,15.5L16.7,15.5z M7.1,1.8c2.9,0,5.3,2.3,5.3,5.1
	s-2.4,5.1-5.3,5.1c-2.9,0-5.3-2.3-5.3-5.1S4.2,1.8,7.1,1.8L7.1,1.8z"/>
</svg>
