<?xml version="1.0" encoding="utf-8"?>
<!-- Generator: Adobe Illustrator 24.0.3, SVG Export Plug-In . SVG Version: 6.00 Build 0)  -->
<svg version="1.1" id="Layer_1" xmlns="http://www.w3.org/2000/svg" xmlns:xlink="http://www.w3.org/1999/xlink" x="0px" y="0px"
	 viewBox="0 0 17 9.7" style="enable-background:new 0 0 17 9.7;" xml:space="preserve">
<path d="M13.5,1.9c0.8,0,1.4,0.6,1.4,1.4s-0.6,1.4-1.4,1.4S12.1,4,12.1,3.2S12.7,1.9,13.5,1.9z M13.5,5.4c1.2,0,2.2-1,2.2-2.2
	s-1-2.2-2.2-2.2s-2.2,1-2.2,2.2S12.3,5.4,13.5,5.4z M12.1,6.3c0.2,0.2,0.3,0.4,0.5,0.5c0.3-0.1,0.7-0.2,1.1-0.2
	c1.4,0,2.6,1.2,2.6,2.6c0,0.2,0,0.3,0,0.5H17c0-0.2,0-0.3,0-0.5c0-1.8-1.5-3.3-3.3-3.3C13.1,5.9,12.6,6.1,12.1,6.3L12.1,6.3z
	 M12.2,9.7H13c0-2.4-1.9-4.3-4.3-4.3S4.3,7.3,4.3,9.7H5c0-2,1.6-3.6,3.6-3.6S12.2,7.7,12.2,9.7L12.2,9.7z M8.4,0.7
	c1,0,1.8,0.8,1.8,1.8S9.3,4.2,8.4,4.2S6.6,3.4,6.6,2.4S7.4,0.7,8.4,0.7z M8.4,4.9c1.3,0,2.4-1.1,2.4-2.4S9.7,0,8.4,0
	S5.9,1.1,5.9,2.4S7,4.9,8.4,4.9z M0.7,9.7c0-0.1,0-0.3,0-0.5c0-1.4,1.2-2.6,2.6-2.6c0.4,0,0.7,0.1,1.1,0.2c0.1-0.2,0.3-0.4,0.5-0.5
	c-0.5-0.2-1-0.4-1.5-0.4C1.5,5.9,0,7.4,0,9.3c0,0.2,0,0.3,0,0.5L0.7,9.7L0.7,9.7z M3.2,1.9c0.8,0,1.4,0.6,1.4,1.4S4,4.6,3.2,4.6
	S1.9,4,1.9,3.2S2.5,1.9,3.2,1.9z M3.2,5.4c1.2,0,2.2-1,2.2-2.2s-1-2.2-2.2-2.2S1.1,2,1.1,3.2S2,5.4,3.2,5.4z"/>
</svg>
