<?xml version="1.0" encoding="utf-8"?>
<!-- Generator: Adobe Illustrator 24.0.3, SVG Export Plug-In . SVG Version: 6.00 Build 0)  -->
<svg version="1.1" id="Layer_1" xmlns="http://www.w3.org/2000/svg" xmlns:xlink="http://www.w3.org/1999/xlink" x="0px" y="0px"
	 viewBox="0 0 17 17" style="enable-background:new 0 0 17 17;" xml:space="preserve">
<path d="M16.1,6.7l-1.2-0.2c-0.1-0.4-0.3-0.8-0.5-1.2l0.7-1C15.5,4,15.4,3.4,15,3L14,2c-0.2-0.2-0.5-0.3-0.7-0.3
	c-0.2,0-0.4,0.1-0.6,0.2l-1,0.7c-0.4-0.2-0.8-0.4-1.2-0.5l-0.2-1.2C10.2,0.4,9.7,0,9.2,0H7.7c-0.5,0-1,0.4-1,0.9L6.5,2.1
	C6.1,2.2,5.7,2.4,5.3,2.6l-1-0.7C4.2,1.7,4,1.7,3.7,1.7C3.5,1.7,3.2,1.8,3,2L1.9,3C1.6,3.4,1.5,4,1.8,4.4l0.7,1
	C2.3,5.8,2.2,6.2,2.1,6.6L0.9,6.8C0.4,6.8,0,7.3,0,7.8v1.5c0,0.5,0.4,1,0.9,1l1.2,0.2c0.1,0.4,0.3,0.8,0.5,1.2l-0.7,1
	c-0.3,0.4-0.3,1,0.1,1.4L3,15.1c0.2,0.2,0.5,0.3,0.7,0.3c0.2,0,0.4-0.1,0.6-0.2l1-0.7c0.4,0.2,0.7,0.3,1.1,0.5l0.2,1.2
	c0.1,0.5,0.5,0.9,1,0.9h1.5c0.5,0,1-0.4,1-0.9l0.2-1.2c0.4-0.1,0.8-0.3,1.2-0.5l1,0.7c0.2,0.1,0.4,0.2,0.6,0.2
	c0.3,0,0.5-0.1,0.7-0.3L15,14c0.4-0.4,0.4-0.9,0.1-1.4l-0.7-1c0.2-0.4,0.4-0.8,0.5-1.2l1.2-0.2c0.5-0.1,0.9-0.5,0.9-1V7.8
	C17,7.2,16.6,6.8,16.1,6.7L16.1,6.7z M16,9.2C16,9.3,16,9.3,16,9.2l-1.6,0.3c-0.2,0-0.3,0.2-0.4,0.4c-0.1,0.5-0.3,1-0.6,1.5
	c-0.1,0.2-0.1,0.4,0,0.5l0.9,1.2c0,0,0,0.1,0,0.1l-1.1,1.1c0,0,0,0-0.1,0c0,0,0,0-0.1,0L12,13.5c-0.2-0.1-0.4-0.1-0.5,0
	c-0.5,0.3-1,0.5-1.5,0.6c-0.2,0-0.3,0.2-0.4,0.4L9.3,16c0,0,0,0.1-0.1,0.1H7.8c0,0-0.1,0-0.1-0.1l-0.2-1.5c0-0.2-0.2-0.3-0.4-0.4
	c-0.5-0.1-1-0.3-1.5-0.6c-0.1,0-0.2-0.1-0.2-0.1c-0.1,0-0.2,0-0.3,0.1l-1.2,0.9c0,0,0,0-0.1,0c0,0,0,0-0.1,0l-1.1-1.1
	c0,0,0-0.1,0-0.1L3.5,12c0.1-0.2,0.1-0.4,0-0.5c-0.3-0.5-0.5-1-0.6-1.5c0-0.2-0.2-0.3-0.4-0.4L1,9.4c0,0-0.1,0-0.1-0.1V7.8
	c0,0,0-0.1,0.1-0.1l1.5-0.2c0.2,0,0.3-0.2,0.4-0.4c0.1-0.5,0.3-1,0.6-1.5c0.1-0.2,0.1-0.4,0-0.5L2.6,3.8c0,0,0-0.1,0-0.1l1.1-1.1
	c0,0,0,0,0.1,0c0,0,0,0,0.1,0L5,3.5c0.2,0.1,0.4,0.1,0.5,0C6,3.3,6.5,3.1,7,2.9c0.2,0,0.3-0.2,0.4-0.4L7.6,1c0,0,0-0.1,0.1-0.1h1.5
	c0,0,0.1,0,0.1,0.1l0.2,1.5c0,0.2,0.2,0.3,0.4,0.4c0.5,0.1,1,0.3,1.5,0.6c0.2,0.1,0.4,0.1,0.5,0l1.2-0.9c0,0,0,0,0.1,0
	c0,0,0,0,0.1,0l1.1,1.1c0,0,0,0.1,0,0.1L13.5,5c-0.1,0.2-0.1,0.4,0,0.5c0.3,0.5,0.5,1,0.6,1.5c0,0.2,0.2,0.3,0.4,0.4L16,7.7
	c0,0,0.1,0,0.1,0.1L16,9.2L16,9.2L16,9.2z M8.6,4.8c-2,0-3.6,1.6-3.6,3.6S6.6,12,8.6,12s3.6-1.6,3.6-3.6S10.5,4.8,8.6,4.8L8.6,4.8z
	 M8.6,11.1c-1.5,0-2.7-1.2-2.7-2.7s1.2-2.7,2.7-2.7s2.7,1.2,2.7,2.7S10,11.1,8.6,11.1L8.6,11.1z"/>
</svg>
