<?xml version="1.0" encoding="utf-8"?>
<!-- Generator: Adobe Illustrator 24.0.3, SVG Export Plug-In . SVG Version: 6.00 Build 0)  -->
<svg version="1.1" id="Layer_1" xmlns="http://www.w3.org/2000/svg" xmlns:xlink="http://www.w3.org/1999/xlink" x="0px" y="0px"
	 viewBox="0 0 17 17" style="enable-background:new 0 0 17 17;" xml:space="preserve">
<path d="M16.1,6.7L15,6.5c-0.2-0.4-0.3-0.8-0.5-1.2l0.7-1c0.3-0.4,0.2-1-0.1-1.4l-1.1-1.1c-0.2-0.2-0.5-0.3-0.8-0.3
	c-0.2,0-0.5,0.1-0.6,0.2l-1,0.7c-0.4-0.2-0.8-0.4-1.2-0.5l-0.2-1.2c0-0.5-0.5-0.9-1-0.9H7.7C7.2,0,6.8,0.4,6.6,0.9L6.5,2.1
	C6.1,2.2,5.7,2.4,5.3,2.6l-1-0.7C4.2,1.8,3.9,1.7,3.7,1.7C3.4,1.7,3.2,1.8,2.9,2l-1,1C1.5,3.4,1.5,3.9,1.9,4.4l0.7,1
	C2.3,5.8,2.2,6.2,2.1,6.6L0.9,6.7C0.4,6.8,0,7.3,0,7.8v1.5c0,0.5,0.4,0.9,0.9,1l1.2,0.2c0.2,0.4,0.3,0.8,0.5,1.2l-0.7,1
	c-0.3,0.4-0.2,1,0.1,1.4L3,15.1c0.2,0.2,0.5,0.3,0.8,0.3c0.2,0,0.5-0.1,0.6-0.2l1-0.8c0.4,0.2,0.8,0.3,1.2,0.5l0.2,1.2
	c0,0.5,0.5,0.9,0.9,0.9h1.5c0.5,0,0.9-0.4,1-0.9l0.2-1.2c0.4-0.2,0.8-0.3,1.2-0.5l1,0.7c0.2,0.2,0.4,0.2,0.6,0.2
	c0.3,0,0.5-0.1,0.8-0.3l1.1-1.1c0.4-0.4,0.4-0.9,0.1-1.4l-0.7-1c0.2-0.4,0.4-0.8,0.5-1.2l1.2-0.2c0.5-0.1,0.9-0.5,0.9-1V7.7
	C17,7.3,16.6,6.8,16.1,6.7L16.1,6.7z M12,7.4L12,7.4C12,7.4,12,7.3,12,7.4L12,7.4z M5.9,8.4C5.9,7,7,5.8,8.5,5.8s2.6,1.2,2.6,2.6
	S10,11,8.5,11S5.9,9.9,5.9,8.4L5.9,8.4z"/>
</svg>
