<?xml version="1.0" encoding="utf-8"?>
<!-- Generator: Adobe Illustrator 24.0.3, SVG Export Plug-In . SVG Version: 6.00 Build 0)  -->
<svg version="1.1" id="Layer_1" xmlns="http://www.w3.org/2000/svg" xmlns:xlink="http://www.w3.org/1999/xlink" x="0px" y="0px"
	 viewBox="0 0 17 17.7" style="enable-background:new 0 0 17 17.7;" xml:space="preserve">
<path d="M13.8,11.4c-1,0-2,0.5-2.6,1.2l-5-2.7c0.1-0.3,0.2-0.7,0.2-1c0-0.4-0.1-0.7-0.2-1l5-2.7c0.6,0.8,1.5,1.2,2.6,1.2
	c1.8,0,3.2-1.4,3.2-3.2S15.5,0,13.8,0s-3.2,1.4-3.2,3.2c0,0.4,0.1,0.7,0.2,1L5.8,6.9C5.2,6.2,4.3,5.7,3.2,5.7C1.4,5.7,0,7.1,0,8.8
	S1.4,12,3.2,12c1,0,2-0.5,2.6-1.2l5,2.7c-0.1,0.3-0.2,0.7-0.2,1.1c0,1.7,1.4,3.2,3.2,3.2s3.2-1.4,3.2-3.2S15.6,11.4,13.8,11.4
	L13.8,11.4z M13.8,1C15,1,16,2,16,3.2s-1,2.2-2.2,2.2c-1.2,0-2.2-1-2.2-2.2S12.6,1,13.8,1L13.8,1z M3.2,11C2,11,1,10,1,8.8
	c0-1.2,1-2.2,2.2-2.2c1.2,0,2.2,1,2.2,2.2S4.4,11,3.2,11L3.2,11z M13.8,16.7c-1.2,0-2.2-1-2.2-2.2s1-2.2,2.2-2.2s2.2,1,2.2,2.2
	S15,16.7,13.8,16.7L13.8,16.7z"/>
</svg>
