<?xml version="1.0" encoding="utf-8"?>
<!-- Generator: Adobe Illustrator 24.0.3, SVG Export Plug-In . SVG Version: 6.00 Build 0)  -->
<svg version="1.1" id="Layer_1" xmlns="http://www.w3.org/2000/svg" xmlns:xlink="http://www.w3.org/1999/xlink" x="0px" y="0px"
	 viewBox="0 0 17 17" style="enable-background:new 0 0 17 17;" xml:space="preserve">
<path d="M8.5,16.5c-4.4,0-8-3.6-8-8s3.6-8,8-8s8,3.6,8,8S12.9,16.5,8.5,16.5L8.5,16.5z M8.5,0C3.8,0,0,3.8,0,8.5S3.8,17,8.5,17
	S17,13.2,17,8.5S13.2,0,8.5,0z M7.2,11.4L7.2,11.4L4.7,8.9l0.7-0.7l1.8,1.8l4.4-4.4l0.7,0.7L7.2,11.4L7.2,11.4z M7.2,9.2L5.5,7.4
	L4,8.9L7,12l0.2,0.2l0,0l5.9-5.9l-1.5-1.5L7.2,9.2z"/>
</svg>
