<?xml version="1.0" encoding="utf-8"?>
<!-- Generator: Adobe Illustrator 24.0.3, SVG Export Plug-In . SVG Version: 6.00 Build 0)  -->
<svg version="1.1" id="Layer_1" xmlns="http://www.w3.org/2000/svg" xmlns:xlink="http://www.w3.org/1999/xlink" x="0px" y="0px"
	 viewBox="0 0 17 12.1" style="enable-background:new 0 0 17 12.1;" xml:space="preserve">
<path d="M8.5,0C6.9,0,5.7,0.5,4.6,1.7C4.2,2,4.2,2.5,4.6,2.8c0.3,0.3,0.8,0.3,1.1,0c0.9-0.9,1.6-1.2,2.8-1.2c1.2,0,2.3,0.5,3.1,1.3
	c0.8,0.8,1.2,1.7,1.3,2.8l-1-1c-0.3-0.3-0.8-0.3-1.1,0c-0.3,0.3-0.3,0.8,0,1.1l3,3l3-3C16.9,5.7,17,5.5,17,5.3s-0.1-0.4-0.2-0.6
	c-0.3-0.3-0.8-0.3-1.1,0l-1.1,1.1c-0.1-1.6-0.6-2.9-1.8-4C11.6,0.6,10.1,0,8.5,0L8.5,0z M8.5,10.5c-1.2,0-2.3-0.5-3.1-1.3
	C4.5,8.4,4.1,7.5,4.1,6.4l1,1c0.3,0.3,0.8,0.3,1.1,0c0.2-0.2,0.2-0.4,0.2-0.6S6.4,6.5,6.2,6.3l-3-3l-3,3c-0.3,0.3-0.3,0.8,0,1.1
	s0.8,0.3,1.1,0l1.1-1.1c0.1,1.6,0.6,2.9,1.8,4c1.1,1.1,2.7,1.8,4.3,1.8c1.6,0,2.8-0.5,3.9-1.7c0.2-0.2,0.2-0.4,0.2-0.6
	s-0.1-0.4-0.2-0.6c-0.3-0.3-0.8-0.3-1.1,0C10.4,10.2,9.7,10.5,8.5,10.5L8.5,10.5z"/>
</svg>
