<?xml version="1.0" encoding="utf-8"?>
<!-- Generator: Adobe Illustrator 24.0.3, SVG Export Plug-In . SVG Version: 6.00 Build 0)  -->
<svg version="1.1" id="Layer_1" xmlns="http://www.w3.org/2000/svg" xmlns:xlink="http://www.w3.org/1999/xlink" x="0px" y="0px"
	 viewBox="0 0 17 14.4" style="enable-background:new 0 0 17 14.4;" xml:space="preserve">
<path d="M0.3,6.9l3.9,1.4l1.5,4.8c0.1,0.3,0.5,0.4,0.7,0.2l2.2-1.7c0.2-0.2,0.6-0.2,0.8,0l3.9,2.8c0.3,0.2,0.7,0,0.7-0.3L17,0.5
	c0.1-0.3-0.3-0.6-0.6-0.5L0.3,6.1C-0.1,6.2-0.1,6.8,0.3,6.9L0.3,6.9z M5.5,7.2l7.9-4.6c0.1-0.1,0.3,0.1,0.2,0.2L7,8.5
	C6.8,8.7,6.6,9,6.6,9.3l-0.2,1.6c0,0.2-0.3,0.2-0.4,0L5.1,8.1C5,7.7,5.2,7.4,5.5,7.2L5.5,7.2z"/>
</svg>
