<?xml version="1.0" encoding="utf-8"?>
<!-- Generator: Adobe Illustrator 24.0.3, SVG Export Plug-In . SVG Version: 6.00 Build 0)  -->
<svg version="1.1" id="Layer_1" xmlns="http://www.w3.org/2000/svg" xmlns:xlink="http://www.w3.org/1999/xlink" x="0px" y="0px"
	 viewBox="0 0 17 17.8" style="enable-background:new 0 0 17 17.8;" xml:space="preserve">
<path d="M16.2,3.4h-3.4V2.5c0-1.4-1.1-2.5-2.6-2.5H6.8C5.4,0,4.3,1.1,4.3,2.5v0.8H0.9C0.4,3.4,0,3.8,0,4.2s0.4,0.8,0.9,0.8h0.9v10.2
	c0,1.4,1.1,2.5,2.6,2.5h8.5c1.4,0,2.6-1.1,2.6-2.5V5.1h0.9c0.5,0,0.9-0.4,0.9-0.8S16.6,3.4,16.2,3.4L16.2,3.4z M6,2.5
	c0-0.5,0.4-0.8,0.9-0.8h3.4c0.5,0,0.9,0.4,0.9,0.8v0.8H6L6,2.5L6,2.5z M13.6,15.2c0,0.5-0.4,0.8-0.9,0.8H4.3c-0.5,0-0.9-0.4-0.9-0.8
	V5.1h10.2C13.6,5.1,13.6,15.2,13.6,15.2z"/>
</svg>
