<?xml version="1.0" encoding="utf-8"?>
<!-- Generator: Adobe Illustrator 24.0.3, SVG Export Plug-In . SVG Version: 6.00 Build 0)  -->
<svg version="1.1" id="Layer_1" xmlns="http://www.w3.org/2000/svg" xmlns:xlink="http://www.w3.org/1999/xlink" x="0px" y="0px"
	 viewBox="0 0 17 13.8" style="enable-background:new 0 0 17 13.8;" xml:space="preserve">
<path d="M17,1.6c-0.6,0.3-1.3,0.5-2,0.5c0.7-0.4,1.3-1.1,1.5-1.9c-0.7,0.4-1.4,0.7-2.2,0.8C13.7,0.4,12.8,0,11.8,0
	C9.8,0,8.3,1.6,8.3,3.5c0,0.3,0,0.5,0.1,0.8C5.5,4.1,2.9,2.7,1.2,0.6C0.9,1.1,0.7,1.7,0.7,2.4c0,1.2,0.6,2.3,1.6,2.9
	c-0.6,0-1.1-0.2-1.6-0.4v0c0,1.7,1.2,3.1,2.8,3.4C3.2,8.4,2.9,8.4,2.6,8.4c-0.2,0-0.4,0-0.7-0.1c0.4,1.4,1.7,2.4,3.3,2.4
	c-1.2,0.9-2.7,1.5-4.3,1.5c-0.3,0-0.6,0-0.8,0c1.5,1,3.4,1.6,5.3,1.6c6.4,0,9.9-5.3,9.9-9.9l0-0.4C15.9,2.9,16.5,2.3,17,1.6L17,1.6z
	"/>
</svg>
