<?xml version="1.0" encoding="utf-8"?>
<!-- Generator: Adobe Illustrator 24.0.3, SVG Export Plug-In . SVG Version: 6.00 Build 0)  -->
<svg version="1.1" id="Layer_1" xmlns="http://www.w3.org/2000/svg" xmlns:xlink="http://www.w3.org/1999/xlink" x="0px" y="0px"
	 viewBox="0 0 17 15.2" style="enable-background:new 0 0 17 15.2;" xml:space="preserve">
<path d="M16.5,7.2c-0.3,0-0.5,0.2-0.5,0.5v4.4c0,1.2-1,2.2-2.2,2.2H3.2c-1.2,0-2.2-1-2.2-2.2V7.6c0-0.3-0.2-0.5-0.5-0.5S0,7.4,0,7.6
	v4.5c0,1.7,1.4,3.1,3.2,3.1h10.7c1.7,0,3.2-1.4,3.2-3.1V7.7C17,7.4,16.8,7.2,16.5,7.2z M5.9,3.8l2.3-2.2v9.6c0,0.3,0.2,0.5,0.5,0.5
	s0.5-0.2,0.5-0.5V1.6l2.3,2.2c0.1,0.1,0.2,0.1,0.4,0.1c0.1,0,0.3,0,0.4-0.1c0.2-0.2,0.2-0.5,0-0.7l-3.2-3C9,0.1,8.9,0,8.7,0
	C8.6,0,8.5,0,8.4,0.1l-3.2,3C5,3.3,5,3.6,5.2,3.8C5.4,4,5.7,4,5.9,3.8L5.9,3.8z"/>
</svg>
