<?xml version="1.0" encoding="utf-8"?>
<!-- Generator: Adobe Illustrator 24.0.3, SVG Export Plug-In . SVG Version: 6.00 Build 0)  -->
<svg version="1.1" id="Layer_1" xmlns="http://www.w3.org/2000/svg" xmlns:xlink="http://www.w3.org/1999/xlink" x="0px" y="0px"
	 viewBox="0 0 17 17" style="enable-background:new 0 0 17 17;" xml:space="preserve">
<path d="M15.6,3.8l-0.3,0.1L14,4l-0.4,0.6l-0.3-0.1l-1.1-1L12.1,3l-0.2-0.5l-0.7-0.6l-0.8-0.2l0,0.4l0.8,0.8l0.4,0.5l-0.4,0.2
	l-0.4-0.1l-0.5-0.2l0-0.4L9.5,2.5l-0.2,1L8.6,3.6l0.1,0.6l0.9,0.2l0.2-0.9l0.7,0.1l0.3,0.2h0.6l0.4,0.8l1,1L12.7,6l-0.8-0.1
	l-1.4,0.7l-1,1.2L9.3,8.4H9L8.3,8L7.6,8.4L7.8,9l0.3-0.3l0.5,0l0,0.6L9,9.5l0.4,0.5l0.7-0.2l0.8,0.1l0.9,0.2l0.5,0.1L13,11l1.5,0.9
	l-1,1.8l-1,0.5l-0.4,1l-1.5,1l-0.2,0.6c3.7-0.9,6.5-4.2,6.5-8.3C17,6.8,16.5,5.1,15.6,3.8L15.6,3.8z M9.5,12.9l-0.6-1.1l0.6-1.2
	l-0.6-0.2L8.2,9.8L6.8,9.5l-0.5-1v0.6H6.1L4.9,7.4V6.1L4,4.6L2.6,4.9h-1L1.2,4.6l0.6-0.5L1.2,4.2C0.4,5.5,0,6.9,0,8.5
	C0,13.2,3.8,17,8.5,17c0.4,0,0.7,0,1.1-0.1l-0.1-1c0,0,0.4-1.5,0.4-1.6C9.9,14.3,9.5,12.9,9.5,12.9L9.5,12.9z M3.2,2.7l1.5-0.2
	l0.7-0.4l0.8,0.2l1.3-0.1l0.4-0.7l0.6,0.1L10,1.6l0.4-0.5L11,0.7l0.8,0.1l0.3,0C11,0.3,9.8,0,8.5,0c-2.6,0-5,1.2-6.6,3.1h0L3.2,2.7
	L3.2,2.7z M8.9,0.8l0.9-0.5l0.6,0.3L9.5,1.3L8.7,1.4L8.4,1.2L8.9,0.8L8.9,0.8z M6.3,0.9l0.4,0.2l0.5-0.2l0.3,0.5L6.3,1.7L5.7,1.4
	C5.7,1.4,6.3,1,6.3,0.9L6.3,0.9z"/>
</svg>
