<svg width="14" height="15" viewBox="0 0 14 15" fill="none" xmlns="http://www.w3.org/2000/svg">
<path d="M0 13.5938C0 14.3701 0.629883 15 1.40625 15H11.7188C12.4951 15 13.125 14.3701 13.125 13.5938V5.625H0V13.5938ZM9.375 7.85156C9.375 7.6582 9.5332 7.5 9.72656 7.5H10.8984C11.0918 7.5 11.25 7.6582 11.25 7.85156V9.02344C11.25 9.2168 11.0918 9.375 10.8984 9.375H9.72656C9.5332 9.375 9.375 9.2168 9.375 9.02344V7.85156ZM9.375 11.6016C9.375 11.4082 9.5332 11.25 9.72656 11.25H10.8984C11.0918 11.25 11.25 11.4082 11.25 11.6016V12.7734C11.25 12.9668 11.0918 13.125 10.8984 13.125H9.72656C9.5332 13.125 9.375 12.9668 9.375 12.7734V11.6016ZM5.625 7.85156C5.625 7.6582 5.7832 7.5 5.97656 7.5H7.14844C7.3418 7.5 7.5 7.6582 7.5 7.85156V9.02344C7.5 9.2168 7.3418 9.375 7.14844 9.375H5.97656C5.7832 9.375 5.625 9.2168 5.625 9.02344V7.85156ZM5.625 11.6016C5.625 11.4082 5.7832 11.25 5.97656 11.25H7.14844C7.3418 11.25 7.5 11.4082 7.5 11.6016V12.7734C7.5 12.9668 7.3418 13.125 7.14844 13.125H5.97656C5.7832 13.125 5.625 12.9668 5.625 12.7734V11.6016ZM1.875 7.85156C1.875 7.6582 2.0332 7.5 2.22656 7.5H3.39844C3.5918 7.5 3.75 7.6582 3.75 7.85156V9.02344C3.75 9.2168 3.5918 9.375 3.39844 9.375H2.22656C2.0332 9.375 1.875 9.2168 1.875 9.02344V7.85156ZM1.875 11.6016C1.875 11.4082 2.0332 11.25 2.22656 11.25H3.39844C3.5918 11.25 3.75 11.4082 3.75 11.6016V12.7734C3.75 12.9668 3.5918 13.125 3.39844 13.125H2.22656C2.0332 13.125 1.875 12.9668 1.875 12.7734V11.6016ZM11.7188 1.875H10.3125V0.46875C10.3125 0.210938 10.1016 0 9.84375 0H8.90625C8.64844 0 8.4375 0.210938 8.4375 0.46875V1.875H4.6875V0.46875C4.6875 0.210938 4.47656 0 4.21875 0H3.28125C3.02344 0 2.8125 0.210938 2.8125 0.46875V1.875H1.40625C0.629883 1.875 0 2.50488 0 3.28125V4.6875H13.125V3.28125C13.125 2.50488 12.4951 1.875 11.7188 1.875Z" fill="#00D2FF"/>
</svg>
