<svg width="24" height="24" viewBox="0 0 24 24" fill="none" xmlns="http://www.w3.org/2000/svg">
<path d="M2.01 20C2.01 21.1 2.9 22 4 22H20C21.1 22 22 21.1 22 20V8C22 6.9 21.1 6 20 6H6L2 2L2.01 20Z" fill="#436779"/>
<path d="M10.5476 17.6055C10.7663 17.8242 11.0822 17.97 11.3981 17.97C11.714 17.97 12.0298 17.8485 12.2485 17.6055L17.7644 12.0897C18.2503 11.6037 18.2503 10.8505 17.7644 10.3645C17.2784 9.87851 16.5251 9.87851 16.0391 10.3645L11.3981 15.0298L9.08969 12.7215C8.60372 12.2355 7.85046 12.2355 7.36448 12.7215C6.87851 13.2074 6.87851 13.9607 7.36448 14.4467L10.5476 17.6055Z" fill="white"/>
</svg>
