<svg width="20" height="18" viewBox="0 0 20 18" fill="none" xmlns="http://www.w3.org/2000/svg">
<g clip-path="url(#clip0)">
<path d="M10.0526 12.3365C9.89182 12.3365 9.73103 12.2956 9.58364 12.2137L7.56037 11.0264C7.27899 10.8627 7.0914 10.5488 7.0914 10.2076V7.80583C7.0914 7.46466 7.26559 7.15079 7.56037 6.98702L9.58364 5.79976C9.87842 5.636 10.2268 5.636 10.5082 5.79976L12.5315 6.98702C12.8128 7.15079 13.0004 7.46466 13.0004 7.80583V10.1804C13.0004 10.5215 12.8262 10.8354 12.5315 10.9992L10.5082 12.1864C10.3742 12.2956 10.2134 12.3365 10.0526 12.3365ZM8.23033 10.0712L10.0526 11.1356L11.8749 10.0712V7.92865L10.0526 6.8642L8.23033 7.92865V10.0712V10.0712ZM11.9687 10.0029C11.9687 10.0166 11.9687 10.0166 11.9687 10.0029V10.0029ZM11.9687 7.99688C11.9687 7.99688 11.9821 7.99688 11.9687 7.99688V7.99688Z" fill="white"/>
<path d="M13.4561 6.66029C13.2953 6.66029 13.1345 6.61935 12.9871 6.53747L10.9638 5.3502C10.6824 5.18644 10.4948 4.87257 10.4948 4.5314V2.14323C10.4948 1.80206 10.669 1.48819 10.9638 1.32443L12.9871 0.137164C13.2819 -0.0265968 13.6302 -0.0265968 13.9116 0.137164L15.9349 1.32443C16.2163 1.48819 16.4039 1.80206 16.4039 2.14323V4.51776C16.4039 4.85892 16.2297 5.1728 15.9349 5.33656L13.9116 6.52382C13.7776 6.61935 13.6168 6.66029 13.4561 6.66029ZM11.6338 4.39494L13.4561 5.45938L15.2783 4.39494V2.26605L13.4561 1.18796L11.6338 2.2524V4.39494ZM11.5266 4.3267C11.5266 4.34035 11.5266 4.3267 11.5266 4.3267V4.3267ZM15.3721 2.32064C15.3721 2.32064 15.3855 2.33428 15.3721 2.32064V2.32064Z" fill="white"/>
<path d="M6.90381 6.66029C6.74302 6.66029 6.58223 6.61935 6.43484 6.53747L4.41157 5.3502C4.13018 5.18644 3.9426 4.87257 3.9426 4.5314V2.14323C3.9426 1.80206 4.11679 1.48819 4.41157 1.32443L6.43484 0.137164C6.72962 -0.0265968 7.078 -0.0265968 7.35938 0.137164L9.38265 1.32443C9.66403 1.48819 9.85162 1.80206 9.85162 2.14323V4.51776C9.85162 4.85892 9.67743 5.1728 9.38265 5.33656L7.35938 6.52382C7.22539 6.61935 7.0646 6.66029 6.90381 6.66029ZM5.08152 4.39494L6.90381 5.45938L8.72609 4.39494V2.26605L6.90381 1.18796L5.08152 2.2524V4.39494ZM4.97433 4.3267C4.97433 4.34035 4.97433 4.3267 4.97433 4.3267V4.3267ZM8.81989 2.32064C8.81989 2.32064 8.81989 2.33428 8.81989 2.32064V2.32064Z" fill="white"/>
<path d="M16.5914 12.4048C16.4306 12.4048 16.2698 12.3638 16.1225 12.282L14.0992 11.0947C13.8178 10.9309 13.6302 10.6171 13.6302 10.2759V7.87406C13.6302 7.5329 13.8044 7.21902 14.0992 7.05526L16.1225 5.868C16.4172 5.70424 16.7656 5.70424 17.047 5.868L19.0703 7.05526C19.3517 7.21902 19.5392 7.5329 19.5392 7.87406V10.2486C19.5392 10.5898 19.3651 10.9036 19.0703 11.0674L17.047 12.2547C16.913 12.3502 16.7522 12.4048 16.5914 12.4048ZM14.7691 10.1394L16.5914 11.2039L18.4137 10.1394V7.99688L16.5914 6.93244L14.7691 7.99688V10.1394ZM18.5075 8.06512C18.5075 8.06512 18.5209 8.06512 18.5075 8.06512V8.06512Z" fill="white"/>
<path d="M3.51386 12.4048C3.35307 12.4048 3.19228 12.3638 3.04489 12.282L1.02161 11.081C0.740231 10.9173 0.552643 10.6034 0.552643 10.2622V7.87406C0.552643 7.5329 0.726832 7.21902 1.02161 7.05526L3.04489 5.868C3.33967 5.70424 3.68804 5.70424 3.96943 5.868L5.9927 7.05526C6.27408 7.21902 6.46167 7.5329 6.46167 7.87406V10.2486C6.46167 10.5898 6.28748 10.9036 5.9927 11.0674L3.96943 12.2547C3.83544 12.3502 3.67465 12.4048 3.51386 12.4048ZM1.69157 10.1394L3.51386 11.2039L5.33614 10.1394V7.99688L3.51386 6.93244L1.69157 7.99688V10.1394ZM1.59778 8.06512C1.58438 8.06512 1.59778 8.06512 1.59778 8.06512V8.06512Z" fill="white"/>
<path d="M13.3891 17.9999C13.2283 17.9999 13.0675 17.9589 12.9201 17.877L10.8968 16.6898C10.6154 16.526 10.4279 16.2121 10.4279 15.871V13.4692C10.4279 13.128 10.602 12.8141 10.8968 12.6504L12.9201 11.4631C13.2149 11.2993 13.5633 11.2993 13.8446 11.4631L15.8679 12.6504C16.1493 12.8141 16.3369 13.128 16.3369 13.4692V15.8437C16.3369 16.1849 16.1627 16.4987 15.8679 16.6625L13.8446 17.8498C13.7106 17.9453 13.5499 17.9999 13.3891 17.9999ZM11.5668 15.7345L13.3891 16.799L15.2114 15.7345V13.592L13.3891 12.5275L11.5668 13.592V15.7345ZM15.3051 13.6602C15.3051 13.6602 15.3185 13.6602 15.3051 13.6602V13.6602Z" fill="white"/>
<path d="M6.94406 17.9999C6.78327 17.9999 6.62248 17.9589 6.47509 17.877L4.45182 16.6898C4.17044 16.526 3.98285 16.2121 3.98285 15.871V13.4692C3.98285 13.128 4.15704 12.8141 4.45182 12.6504L6.48849 11.4631C6.78327 11.2993 7.13165 11.2993 7.41303 11.4631L9.4363 12.6504C9.71769 12.8141 9.90528 13.128 9.90528 13.4692V15.8437C9.90528 16.1849 9.73109 16.4987 9.4363 16.6625L7.41303 17.8498C7.27904 17.9453 7.10485 17.9999 6.94406 17.9999ZM5.13518 15.7345L6.95746 16.799L8.77975 15.7345V13.592L6.95746 12.5275L5.13518 13.592V15.7345Z" fill="white"/>
</g>
<defs>
<clipPath id="clip0">
<rect width="19" height="18" fill="white" transform="translate(0.552643)"/>
</clipPath>
</defs>
</svg>
