<svg width="20" height="20" viewBox="0 0 20 20" fill="none" xmlns="http://www.w3.org/2000/svg">
<mask id="path-1-inside-1" fill="white">
<path fill-rule="evenodd" clip-rule="evenodd" d="M10 19.5201C15.3087 19.5201 19.6122 15.2166 19.6122 9.90794C19.6122 4.59929 15.3087 0.295776 10 0.295776C4.69136 0.295776 0.387848 4.59929 0.387848 9.90794C0.387848 15.2166 4.69136 19.5201 10 19.5201ZM8.12116 7.0291C7.56887 7.0291 7.12116 7.47682 7.12116 8.0291V11.7868C7.12116 12.3391 7.56887 12.7868 8.12116 12.7868H11.8789C12.4312 12.7868 12.8789 12.3391 12.8789 11.7868V8.0291C12.8789 7.47682 12.4312 7.0291 11.8789 7.0291H8.12116Z"/>
</mask>
<path d="M18.6122 9.90794C18.6122 14.6643 14.7564 18.5201 10 18.5201V20.5201C15.8609 20.5201 20.6122 15.7689 20.6122 9.90794H18.6122ZM10 1.29578C14.7564 1.29578 18.6122 5.15157 18.6122 9.90794H20.6122C20.6122 4.047 15.8609 -0.704224 10 -0.704224V1.29578ZM1.38785 9.90794C1.38785 5.15157 5.24365 1.29578 10 1.29578V-0.704224C4.13908 -0.704224 -0.612152 4.047 -0.612152 9.90794H1.38785ZM10 18.5201C5.24365 18.5201 1.38785 14.6643 1.38785 9.90794H-0.612152C-0.612152 15.7689 4.13908 20.5201 10 20.5201V18.5201ZM8.12116 8.0291V8.0291V6.0291C7.01659 6.0291 6.12116 6.92453 6.12116 8.0291H8.12116ZM8.12116 11.7868V8.0291H6.12116V11.7868H8.12116ZM8.12116 11.7868L8.12116 11.7868H6.12116C6.12116 12.8914 7.01659 13.7868 8.12116 13.7868V11.7868ZM11.8789 11.7868H8.12116V13.7868H11.8789V11.7868ZM11.8789 11.7868V13.7868C12.9834 13.7868 13.8789 12.8914 13.8789 11.7868H11.8789ZM11.8789 8.0291V11.7868H13.8789V8.0291H11.8789ZM11.8789 8.0291H11.8789H13.8789C13.8789 6.92453 12.9834 6.0291 11.8789 6.0291V8.0291ZM8.12116 8.0291H11.8789V6.0291H8.12116V8.0291Z" fill="white" mask="url(#path-1-inside-1)"/>
</svg>
