<svg width="18" height="18" viewBox="0 0 18 18" fill="none" xmlns="http://www.w3.org/2000/svg">
<path d="M3.00727 0C1.80727 0 0.86441 0.942857 0.86441 2.14286V14.1429C0.86441 15.3429 1.80727 16.2857 3.00727 16.2857H3.43584V17.5714C3.43584 17.8286 3.60727 18 3.86441 18H5.5787C5.83584 18 6.00727 17.8286 6.00727 17.5714V16.2857H12.0073V17.5714C12.0073 17.8286 12.1787 18 12.4358 18H14.1501C14.4073 18 14.5787 17.8286 14.5787 17.5714V16.2857H15.0073C16.2073 16.2857 17.1501 15.3429 17.1501 14.1429V2.14286C17.1501 0.942857 16.2073 0 15.0073 0H3.00727ZM3.00727 0.857143H15.0073C15.7358 0.857143 16.293 1.41429 16.293 2.14286V14.1429C16.293 14.8714 15.7358 15.4286 15.0073 15.4286H3.00727C2.2787 15.4286 1.72155 14.8714 1.72155 14.1429V2.14286C1.72155 1.41429 2.2787 0.857143 3.00727 0.857143ZM3.86441 2.57143C3.60727 2.57143 3.43584 2.74286 3.43584 3V4.28571H3.00727C2.75012 4.28571 2.5787 4.45714 2.5787 4.71429V6.42857C2.5787 6.68571 2.75012 6.85714 3.00727 6.85714H3.43584V9.42857H3.00727C2.75012 9.42857 2.5787 9.6 2.5787 9.85714V11.5714C2.5787 11.8286 2.75012 12 3.00727 12H3.43584V13.2857C3.43584 13.5429 3.60727 13.7143 3.86441 13.7143H14.1501C14.4073 13.7143 14.5787 13.5429 14.5787 13.2857V3C14.5787 2.74286 14.4073 2.57143 14.1501 2.57143H3.86441ZM4.29298 3.42857H13.7216V12.8571H4.29298V12H4.72155C4.9787 12 5.15012 11.8286 5.15012 11.5714V9.85714C5.15012 9.6 4.9787 9.42857 4.72155 9.42857H4.29298V6.85714H4.72155C4.9787 6.85714 5.15012 6.68571 5.15012 6.42857V4.71429C5.15012 4.45714 4.9787 4.28571 4.72155 4.28571H4.29298V3.42857ZM3.43584 5.14286H4.29298V6H3.86441H3.43584V5.14286ZM8.9855 5.17467C8.21408 5.17467 7.44298 5.46412 6.86441 6.04269C5.70727 7.19983 5.70727 9.12857 6.86441 10.2857C7.46441 10.8429 8.23584 11.1429 9.00727 11.1429C9.7787 11.1429 10.5503 10.8429 11.1074 10.2857C12.2646 9.12857 12.2646 7.19983 11.1074 6.04269C10.5289 5.46412 9.75693 5.17467 8.9855 5.17467ZM9.00727 6C9.52155 6 10.1216 6.21429 10.5073 6.64286C11.3216 7.45714 11.3216 8.8284 10.5073 9.68555C9.69298 10.4998 8.32172 10.4998 7.46458 9.68555C6.65029 8.8284 6.65012 7.45714 7.50727 6.64286C7.93584 6.21429 8.49298 6 9.00727 6ZM8.4071 7.11412C8.29996 7.11412 8.19315 7.15731 8.10743 7.24302C7.93601 7.41445 7.93601 7.67176 8.10743 7.84319L8.4071 8.14286L8.10743 8.44252C7.93601 8.61395 7.93601 8.87126 8.10743 9.04269C8.19315 9.1284 8.32139 9.1716 8.4071 9.1716C8.49281 9.1716 8.62189 9.1284 8.7076 9.04269L9.00727 8.74302L9.30693 9.04269C9.39265 9.1284 9.52172 9.1716 9.60743 9.1716C9.69315 9.1716 9.82139 9.1284 9.9071 9.04269C10.0785 8.87126 10.0785 8.61395 9.9071 8.44252L9.60743 8.14286L9.9071 7.84319C10.0785 7.67176 10.0785 7.41445 9.9071 7.24302C9.73567 7.0716 9.47836 7.0716 9.30693 7.24302L9.00727 7.54269L8.7076 7.24302C8.62189 7.15731 8.51424 7.11412 8.4071 7.11412ZM3.43584 10.2857H4.29298V11.1429H3.43584V10.2857ZM4.29298 16.2857H5.15012V17.1429H4.29298V16.2857ZM12.8644 16.2857H13.7216V17.1429H12.8644V16.2857Z" fill="white"/>
</svg>
