<svg xmlns="http://www.w3.org/2000/svg" viewBox="0 0 100 125"><path fill="#fff" d="M89.537 34.515v7.671h8.988v-7.671a4.314 4.314 0 00-3.023-4.113v-7.935a1.495 1.495 0 00-.409-2.701L54.063 8.368a1.52 1.52 0 00-.803 0L12.227 19.766a1.5 1.5 0 000 2.89l16.204 4.501v6.935l-3.973-4.062a1.501 1.501 0 00-2.451.456l-3.312 7.694-2.253-1.168c-1.65-.953-3.357-1.938-5.587-1.938-4.997 0-9.38 4.519-9.38 9.67 0 5.327 4.563 7.96 6.781 9.241L73.221 89.79a9.95 9.95 0 005.834 1.896c5.641 0 10.229-4.732 10.229-10.55 0-.379-.021-.753-.059-1.122l5.57-12.941a1.502 1.502 0 00-.928-2.024L56.951 53.43c3.201-1.981 7.152-3.613 11.408-4.669a45.54 45.54 0 019.168-1.33 1.499 1.499 0 001.439-1.499V27.136l13.535-3.759v7.043a4.321 4.321 0 00-2.964 4.095zm5.988 4.671h-2.988v-4.671c0-.733.584-1.33 1.301-1.33h.387c.717 0 1.301.597 1.301 1.33v4.671zM53.66 11.37l29.508 8.197H54.771a1.5 1.5 0 100 3h29.438L53.66 31.053l-35.428-9.842L53.66 11.37zM23.878 33.729L38.04 48.208l-16.675-8.643 2.513-5.836zm44.948 47.408c0 1.06.154 2.082.438 3.048L43.375 69.916c-.021-5.513 2.115-9.498 6.512-12.11.076.021.154.03.232.039L75.785 71.15c-4.039 1.411-6.959 5.35-6.959 9.987zM39.787 52.519l7.044 3.719c-3.905 2.863-6.051 6.898-6.4 12.056l-7.45-4.106c.135-5.319 2.376-9.157 6.806-11.669zm9.916 1.733l-7.807-4.045 4.102-7.77 1.707 3.918c.275.634.944.997 1.626.88l4.48-.762-4.108 7.779zM4.475 44.745c0-3.491 3.041-6.67 6.38-6.67 1.427 0 2.601.678 4.088 1.536l13.715 7.109c.254.409.697.689 1.213.71.059.002.119.009.18.012L36.72 50.9c-3.94 2.767-6.167 6.679-6.647 11.684L9.73 51.373c-2.659-1.535-5.255-3.311-5.255-6.628zm74.58 43.942c-3.986 0-7.229-3.387-7.229-7.55 0-4.162 3.242-7.549 7.229-7.549 2.088 0 3.965.934 5.285 2.415a6.404 6.404 0 00-4.051-.25c-1.777.475-3.246 1.665-4.135 3.352a7.39 7.39 0 00-.834 3.601c0 .009-.004.017-.004.025l.002.044-.002.027.002.016c-.01.737.158 1.463.494 2.104.535 1.015 1.424 1.732 2.5 2.02.334.09.674.134 1.01.134.74 0 1.473-.213 2.129-.629 1.301-.82 2.074-2.31 2.021-3.886-.027-.828-.748-1.516-1.549-1.449a1.499 1.499 0 00-1.449 1.549c.018.509-.229 1-.625 1.251a.945.945 0 01-.762.133 1.002 1.002 0 01-.621-.521 1.396 1.396 0 01-.152-.69c0-.021-.004-.041-.004-.062 0-.023.006-.045.004-.068a4.408 4.408 0 01.494-2.199c.494-.938 1.295-1.596 2.254-1.852.941-.251 1.938-.088 2.805.461 1.277.807 2.066 2.354 2.014 3.943-.004.141.018.275.049.406-.942 3.026-3.666 5.224-6.875 5.224zm8.756-12.976c-1.254-2.144-3.219-3.792-5.563-4.589l-29.34-15.208c.084-.178.131-.37.141-.569l38.334 12.068-3.572 8.298zM75.967 44.513a49.18 49.18 0 00-8.332 1.335c-4.955 1.231-9.402 3.123-13.008 5.502l3.256-6.167a1.501 1.501 0 00-1.578-2.179l-6.319 1.075-2.484-5.7a1.495 1.495 0 00-1.318-.9 1.479 1.479 0 00-1.383.799l-4.13 7.822c-.229-.063-.451-.13-.682-.189l-8.56-8.751v-9.168l21.83 6.063a1.513 1.513 0 00.802 0l21.904-6.085v16.543z"/></svg>