<svg width="512" height="512" viewBox="0 0 512 512" fill="none"
  xmlns="http://www.w3.org/2000/svg">
  <path d="M271.681 345.387C239.45 324.608 222.314 289.868 232.885 259.299C238.391 243.391 246.713 229.13 255.941 215.169C266.073 199.835 277.083 185 286.285 169.166C304.352 138.073 304.404 106.156 288.12 74.2132C286.983 71.9904 285.871 69.7427 284.941 67.4451C284.682 66.8207 285.122 65.9716 285.587 63.2244C301.199 81.6056 313.217 100.312 319.808 121.84C333.766 167.493 326.58 209.176 293.961 246.038C276.308 265.968 263.566 287.995 264.315 315.467C264.599 325.182 268.296 333.973 271.681 345.387Z" fill="#DCDCDC"/>
  <path d="M204.064 244.616C203.237 248.762 202.901 251.135 202.281 253.432C194.165 283.777 204.297 308.651 226.861 329.755C237.303 339.52 248.417 348.585 257.748 359.474C284.293 390.368 282.923 418.914 251.726 449.383C263.77 415.292 246.893 393.44 222.054 374.734C177.597 341.268 177.442 285.775 199.877 247.164C200.239 246.564 201.247 246.315 204.064 244.616Z" fill="#F89925"/>
</svg>
