<svg width="512" height="512" viewBox="0 0 512 512" fill="none" xmlns="http://www.w3.org/2000/svg">
<path d="M255.993 198.274C247.997 198.274 241.485 204.785 241.485 212.782C241.485 220.778 247.997 227.289 255.993 227.289C263.989 227.289 270.501 220.778 270.501 212.782C270.501 204.785 263.989 198.274 255.993 198.274Z" fill="#2B94F5"/>
<path d="M249.906 288.186C249.847 284.717 249.671 281.19 249.377 277.721C248.451 266.359 246.334 255.129 243.086 244.34C242.895 243.722 242.704 243.105 242.513 242.488L242.41 242.15C234.678 217.75 220.92 195.187 202.62 176.887C184.541 158.808 163.213 145.623 139.254 137.7C138.622 137.494 137.975 137.289 137.343 137.098L136.872 136.951C129.773 134.731 122.438 132.982 115.089 131.762C113.928 131.571 112.766 131.394 111.576 131.218C107.96 130.777 105.799 131.071 103.639 131.659C102.757 131.909 101.889 132.218 101.081 132.57C97.1417 134.275 93.8344 137.2 91.6443 140.89L90.7624 142.536C90.6889 142.683 90.6301 142.815 90.5713 142.933C87.4699 149.533 86 154.53 86 165.055C86 176.064 87.0289 187.132 89.0573 197.936L89.1308 198.289C89.2484 198.935 89.3807 199.597 89.513 200.243C92.0412 212.767 95.9217 224.996 101.081 236.608L102.815 240.048C103.006 240.459 103.212 240.856 103.433 241.253C103.874 242.047 104.373 242.811 104.903 243.531C106.181 245.266 107.725 246.765 109.489 248.029C109.768 248.279 110.077 248.455 110.371 248.617C110.988 249.014 111.62 249.367 112.267 249.69L112.825 249.969C125.084 255.834 136.549 259.45 149.866 261.537C142.561 265.08 136.211 270.46 131.478 277.221C130.993 277.912 130.523 278.617 130.096 279.308C125.378 286.863 122.894 295.565 122.894 304.473C122.894 308.044 123.305 311.66 124.129 315.188C125.011 319.039 126.392 322.772 128.2 326.285C128.891 327.608 129.67 328.975 130.523 330.284L130.567 330.357C132.933 334.414 138.401 340.705 147.764 350.142L147.941 350.318C148.029 350.406 148.117 350.494 148.205 350.583L153.688 356.08L153.629 355.757C163.066 364.326 173.664 371.852 185.158 378.143C188.289 379.995 191.875 380.965 195.506 380.965C195.668 380.965 195.829 380.965 195.991 380.95H196.123C196.741 380.936 197.373 380.891 197.975 380.818C201.738 380.362 205.295 378.863 208.264 376.482C221.64 366.457 231.15 354.713 239.073 338.412C239.426 337.692 239.764 336.971 240.102 336.237C241.219 333.797 242.263 331.283 243.189 328.784C247.657 316.731 249.935 304.061 249.935 291.126C249.935 290.171 249.921 289.186 249.906 288.186ZM133.918 323.287C133.374 322.258 133.124 321.523 132.874 320.803C132.801 320.582 132.727 320.362 132.639 320.141L132.551 319.892C130.552 314.967 129.538 309.793 129.538 304.487C129.538 297.035 131.566 289.744 135.403 283.38C135.799 282.718 136.211 282.086 136.623 281.469C144.295 270.21 156.966 263.478 170.547 263.478C193.154 263.478 211.557 281.88 211.557 304.487C211.557 312.366 209.293 320.024 205.016 326.653C204.604 327.285 204.178 327.917 203.737 328.52C199.783 333.973 194.506 338.412 188.495 341.352C187.627 341.675 186.76 342.057 185.937 342.484C181.028 344.483 175.839 345.497 170.518 345.497C160.17 345.497 150.292 341.616 142.678 334.561L142.252 334.105C137.402 329.108 135.314 325.962 134.491 324.507L134.521 324.478L133.918 323.287ZM141.752 231.39C141.752 220.116 132.58 210.944 121.306 210.944C116.779 210.944 112.487 212.429 108.989 215.075C110.018 207.681 111.576 200.361 113.648 193.203C122.673 190.645 132.022 189.337 141.444 189.337C179.822 189.337 214.262 210.386 231.885 244.428C213.644 252.645 194.183 256.819 174.046 256.819C159.009 256.819 144.266 254.467 130.111 249.822C137.005 246.501 141.752 239.416 141.752 231.39ZM199.592 199.611C182.218 188.529 162.11 182.678 141.444 182.678C132.86 182.678 124.334 183.693 116.044 185.692C118.778 177.798 122.174 170.111 126.142 162.791C126.289 162.585 126.407 162.365 126.539 162.144L126.701 161.88C127.362 160.704 129.376 157.132 129.641 151.929L129.655 151.576C129.655 151.502 129.655 151.414 129.655 151.341C129.655 147.71 128.685 144.182 126.907 141.11C129.317 141.728 131.713 142.404 134.065 143.139L136.373 143.888C178.397 157.632 212.468 188.764 230.136 228.774C221.978 217.191 211.63 207.284 199.592 199.611ZM122.144 156.059C121.365 157.426 120.674 158.661 120.042 159.822C117.397 163.188 113.457 165.113 109.209 165.113C101.61 165.113 95.4219 158.925 95.4219 151.326C95.4219 143.932 101.434 137.759 108.827 137.553C111.032 137.524 113.031 138.053 113.604 138.273C119.219 140.17 122.982 145.417 122.982 151.326C122.982 152.943 122.703 154.53 122.144 156.059ZM109.209 171.772C111.032 171.772 112.825 171.537 114.56 171.066C112.134 176.564 110.003 182.193 108.225 187.882C103.727 189.337 99.2877 191.101 94.9957 193.129C93.4523 183.869 92.6585 174.447 92.6585 165.055C92.6585 164.496 92.6585 163.937 92.6732 163.379C96.4214 168.509 102.463 171.772 109.209 171.772ZM107.681 229.288L107.754 229.009C108.915 222.395 114.619 217.603 121.321 217.603C128.92 217.603 135.109 223.791 135.109 231.39C135.109 238.989 128.92 245.178 121.321 245.178C114.163 245.178 108.136 239.592 107.593 232.463L107.563 231.552C107.504 230.17 107.504 230.111 107.681 229.288ZM177.088 351.714C175.765 354.448 175.075 357.476 175.075 360.548C175.075 361.871 175.207 363.179 175.457 364.458C169.21 360.21 163.286 355.492 157.715 350.377C163.977 352.155 170.636 352.611 177.088 351.714ZM188.818 348.525C189.656 348.172 190.405 347.834 191.096 347.511C192.522 347.025 194.007 346.776 195.521 346.776C203.12 346.776 209.308 352.964 209.308 360.563C209.308 368.162 203.12 374.351 195.521 374.351C187.921 374.351 181.748 368.162 181.748 360.563C181.733 355.565 184.452 350.965 188.818 348.525ZM201.253 340.94C204.399 338.294 207.177 335.252 209.573 331.856C210.072 331.151 210.528 330.445 210.969 329.769C215.731 322.185 218.245 313.453 218.245 304.502C218.245 286.716 208.103 270.46 192.728 262.316C207.28 260.479 221.39 256.51 234.781 250.454C240.073 262.507 242.909 275.31 243.248 288.554C243.262 289.421 243.277 290.303 243.277 291.185C243.277 292.067 243.262 292.934 243.248 293.816C242.895 307.853 239.705 321.405 233.782 334.091C233.458 334.781 233.135 335.472 232.797 336.148C228.387 345.071 222.743 353.228 215.981 360.504C215.922 351.273 209.705 343.424 201.253 340.94ZM105.99 195.716C103.962 203.58 102.536 211.606 101.698 219.719C99.4935 213.237 97.6708 206.608 96.2744 199.92C99.4347 198.362 102.683 196.951 105.99 195.716Z" fill="#2B94F5"/>
<path d="M334.098 357.123C335.538 360.019 336.288 363.194 336.288 366.457C336.288 367.854 336.155 369.235 335.876 370.588C342.667 366.09 349.135 361.122 355.19 355.727C348.37 357.594 341.124 358.064 334.098 357.123Z" fill="#2B94F5"/>
<path d="M298.749 336.148C298.205 335.399 297.705 334.664 297.235 333.944C292.061 325.933 289.312 316.717 289.312 307.265C289.312 288.48 300.351 271.312 317.093 262.728C301.247 260.788 285.902 256.599 271.306 250.205C265.559 262.934 262.457 276.457 262.09 290.42C262.061 291.346 262.061 292.273 262.061 293.199C262.061 294.125 262.075 295.051 262.09 295.977C262.472 310.793 265.941 325.095 272.394 338.5C272.747 339.235 273.099 339.955 273.467 340.676C278.273 350.098 284.403 358.711 291.781 366.384C291.826 356.653 298.587 348.378 307.803 345.747C304.378 342.954 301.35 339.735 298.749 336.148Z" fill="#2B94F5"/>
<path d="M309.611 196.525C328.528 184.824 350.415 178.651 372.904 178.651C382.252 178.651 391.527 179.724 400.552 181.826C397.568 173.492 393.879 165.378 389.558 157.646C389.411 157.426 389.264 157.191 389.117 156.97L388.94 156.691C388.22 155.456 386.03 151.679 385.751 146.196L385.736 145.814C385.736 145.726 385.736 145.652 385.736 145.564C385.736 141.728 386.794 138.009 388.734 134.76C386.103 135.422 383.502 136.127 380.944 136.892L378.431 137.671C332.688 152.164 295.603 185.045 276.362 227.289C285.226 215.089 296.5 204.624 309.611 196.525Z" fill="#2B94F5"/>
<path d="M407.994 167.142C406.009 167.142 404.054 166.892 402.173 166.392C404.819 172.198 407.126 178.151 409.067 184.148C413.961 185.677 418.797 187.544 423.457 189.69C425.147 179.915 426 169.964 426 160.042C426 159.454 426 158.852 425.985 158.264C421.913 163.702 415.328 167.142 407.994 167.142Z" fill="#2B94F5"/>
<path d="M372.569 230.082C372.569 218.176 382.55 208.489 394.823 208.489C399.747 208.489 404.422 210.048 408.229 212.84C407.112 205.035 405.421 197.304 403.158 189.749C393.339 187.044 383.167 185.662 372.908 185.662C331.134 185.662 293.637 207.887 274.455 243.825C294.313 252.512 315.494 256.907 337.425 256.907C353.784 256.907 369.85 254.423 385.254 249.528C377.729 246.045 372.569 238.563 372.569 230.082Z" fill="#2B94F5"/>
<path d="M416.148 217.764C418.558 210.915 420.528 203.918 422.057 196.863C418.617 195.202 415.075 193.717 411.474 192.424C413.693 200.714 415.251 209.195 416.148 217.764Z" fill="#2B94F5"/>
<path d="M408.229 160.086C416.258 160.086 422.767 153.578 422.767 145.549C422.767 137.521 416.258 131.012 408.229 131.012C400.201 131.012 393.692 137.521 393.692 145.549C393.692 153.578 400.201 160.086 408.229 160.086Z" fill="#2B94F5"/>
<path d="M394.819 244.619C402.848 244.619 409.356 238.111 409.356 230.082C409.356 222.053 402.848 215.545 394.819 215.545C386.791 215.545 380.282 222.053 380.282 230.082C380.282 238.111 386.791 244.619 394.819 244.619Z" fill="#2B94F5"/>
<path d="M314.035 380.994C322.064 380.994 328.572 374.486 328.572 366.457C328.572 358.429 322.064 351.92 314.035 351.92C306.007 351.92 299.498 358.429 299.498 366.457C299.498 374.486 306.007 380.994 314.035 380.994Z" fill="#2B94F5"/>
<path d="M341.333 350.568C365.248 350.568 384.635 331.181 384.635 307.265C384.635 283.35 365.248 263.963 341.333 263.963C317.418 263.963 298.03 283.35 298.03 307.265C298.03 331.181 317.418 350.568 341.333 350.568Z" fill="#2B94F5"/>
</svg>
