<svg width="512" height="512" viewBox="0 0 512 512" fill="none" xmlns="http://www.w3.org/2000/svg">
<rect width="512" height="512" fill="white"/>
<path fill-rule="evenodd" clip-rule="evenodd" d="M351.536 289.083C339.732 289.083 330.159 279.554 330.159 267.799C330.159 256.044 339.732 246.515 351.536 246.515C363.343 246.515 372.913 256.044 372.913 267.799C372.913 279.554 363.343 289.083 351.536 289.083M351.536 207.6C318.143 207.6 291.073 234.551 291.073 267.799C291.073 301.047 318.143 328 351.536 328C384.929 328 412 301.047 412 267.799C412 234.551 384.929 207.6 351.536 207.6" fill="#00D2FF"/>
<path fill-rule="evenodd" clip-rule="evenodd" d="M114 207.6V328H157.188V207.6H157.093H114Z" fill="#00D2FF"/>
<path fill-rule="evenodd" clip-rule="evenodd" d="M226.291 237.7L196.059 207.6H165.826V237.7L196.059 267.799L165.826 297.899V328H196.059L226.291 297.899L256.522 328V327.998V328H286.754V297.899L256.522 267.799L286.754 237.7V207.6H256.522L226.291 237.7Z" fill="#00D2FF"/>
<path fill-rule="evenodd" clip-rule="evenodd" d="M135.594 199C123.668 199 114 189.374 114 177.5C114 165.626 123.668 156 135.594 156C147.52 156 157.188 165.626 157.188 177.5C157.188 189.374 147.52 199 135.594 199" fill="#00D2FF"/>
</svg>
