<svg width="24" height="24" viewBox="0 0 24 24" fill="none" xmlns="http://www.w3.org/2000/svg">
<path fill-rule="evenodd" clip-rule="evenodd" d="M8.57146 19.0128C8.97722 19.0128 9.30615 18.6872 9.30615 18.2857C9.30615 17.8842 8.97722 17.5587 8.57146 17.5587L2.44923 17.5587L11.9706 8.13653C12.2575 7.8526 12.2575 7.39226 11.9706 7.10834C11.6836 6.82441 11.2185 6.82441 10.9315 7.10834L1.46942 16.4719L1.46942 10.5306C1.46942 10.1291 1.14048 9.80357 0.734725 9.80357C0.328965 9.80357 3.12942e-05 10.1291 3.12591e-05 10.5306L3.0605e-05 18.0128C3.05567e-05 18.565 0.447744 19.0128 1.00003 19.0128L8.57146 19.0128ZM21.3009 5.44132L15.1786 5.44132C14.7728 5.44132 14.4439 5.11582 14.4439 4.71428C14.4439 4.31275 14.7728 3.98724 15.1786 3.98724L22.75 3.98724C23.3023 3.98724 23.75 4.43496 23.75 4.98724L23.75 12.4694C23.75 12.8709 23.4211 13.1964 23.0153 13.1964C22.6095 13.1964 22.2806 12.8709 22.2806 12.4694L22.2806 6.52816L12.8185 15.8917C12.5316 16.1756 12.0665 16.1756 11.7795 15.8917C11.4926 15.6077 11.4926 15.1474 11.7795 14.8635L21.3009 5.44132Z" fill="white"/>
</svg>
