<svg width="24" height="24" viewBox="0 0 24 24" fill="none" xmlns="http://www.w3.org/2000/svg">
<path d="M9 1.5C6.1084 1.5 3.75 3.8584 3.75 6.75C3.75 8.55762 4.67285 10.1631 6.07031 11.1094C3.39551 12.2578 1.5 14.9121 1.5 18H3C3 14.6777 5.67773 12 9 12C10.0312 12 10.9922 12.2695 11.8359 12.7266C11.0039 13.7578 10.5 15.0762 10.5 16.5C10.5 19.8047 13.1953 22.5 16.5 22.5C19.8047 22.5 22.5 19.8047 22.5 16.5C22.5 13.1953 19.8047 10.5 16.5 10.5C15.1904 10.5 13.9717 10.9307 12.9844 11.6484C12.6533 11.4404 12.293 11.2646 11.9297 11.1094C13.3271 10.1631 14.25 8.55762 14.25 6.75C14.25 3.8584 11.8916 1.5 9 1.5ZM9 3C11.0801 3 12.75 4.66992 12.75 6.75C12.75 8.83008 11.0801 10.5 9 10.5C6.91992 10.5 5.25 8.83008 5.25 6.75C5.25 4.66992 6.91992 3 9 3ZM16.5 12C18.9932 12 21 14.0068 21 16.5C21 18.9932 18.9932 21 16.5 21C14.0068 21 12 18.9932 12 16.5C12 14.0068 14.0068 12 16.5 12ZM18.9609 14.4609L16.5 16.9219L14.7891 15.2109L13.7109 16.2891L15.9609 18.5391L16.5 19.0547L17.0391 18.5391L20.0391 15.5391L18.9609 14.4609Z" fill="white"/>
</svg>
