<svg width="50" height="50" viewBox="0 0 50 50" fill="none" xmlns="http://www.w3.org/2000/svg">
  <path
    d="M12.0972 7.81445C9.7303 7.81445 7.81152 9.73323 7.81152 12.1002V37.9037C7.81152 40.2707 9.7303 42.1894 12.0972 42.1894H37.9008C40.2677 42.1894 42.1865 40.2707 42.1865 37.9037V12.1002C42.1865 9.73323 40.2677 7.81445 37.9008 7.81445H12.0972ZM10.9365 10.9395H39.0615V39.0644H10.9365V10.9395ZM21.874 15.627C21.0111 15.627 20.3115 16.3265 20.3115 17.1895V17.1895C20.3115 18.0524 21.0111 18.752 21.874 18.752H29.0029L15.624 32.1309C15.0038 32.7511 15.0038 33.7567 15.624 34.3769V34.3769C16.2443 34.9972 17.2499 34.9972 17.8701 34.3769L31.249 20.998V28.1269C31.249 28.9899 31.9486 29.6894 32.8115 29.6894V29.6894C33.6745 29.6894 34.374 28.9899 34.374 28.1269V15.627H21.874Z"
    fill="white" />
</svg>