<svg width="21" height="21" viewBox="0 0 21 21" fill="none"
  xmlns="http://www.w3.org/2000/svg">
  <path d="M3.91064 3.58447V17.3345H17.6606V3.58447H3.91064ZM5.16064 4.83447H16.4106V16.0845H5.16064V4.83447ZM13.2856 6.70947C13.1134 6.70962 12.943 6.74538 12.7851 6.81451C12.6273 6.88365 12.4855 6.98466 12.3686 7.11121C12.2517 7.23776 12.1622 7.38711 12.1057 7.54989C12.0493 7.71267 12.0271 7.88536 12.0405 8.05713L9.11084 9.52197C8.88291 9.32096 8.58955 9.20986 8.28564 9.20947C7.95412 9.20947 7.63618 9.34117 7.40176 9.57559C7.16734 9.81001 7.03564 10.128 7.03564 10.4595C7.03564 10.791 7.16734 11.1089 7.40176 11.3434C7.63618 11.5778 7.95412 11.7095 8.28564 11.7095C8.58955 11.7091 8.88291 11.598 9.11084 11.397L12.0405 12.8618C12.0271 13.0336 12.0493 13.2063 12.1057 13.3691C12.1622 13.5318 12.2517 13.6812 12.3686 13.8077C12.4855 13.9343 12.6273 14.0353 12.7851 14.1044C12.943 14.1736 13.1134 14.2093 13.2856 14.2095C13.6172 14.2095 13.9351 14.0778 14.1695 13.8434C14.4039 13.6089 14.5356 13.291 14.5356 12.9595C14.5356 12.628 14.4039 12.31 14.1695 12.0756C13.9351 11.8412 13.6172 11.7095 13.2856 11.7095C12.9817 11.7099 12.6884 11.821 12.4604 12.022L9.53076 10.5571C9.53586 10.4921 9.53586 10.4268 9.53076 10.3618L12.4604 8.89697C12.6884 9.09799 12.9817 9.20908 13.2856 9.20947C13.6172 9.20947 13.9351 9.07778 14.1695 8.84336C14.4039 8.60894 14.5356 8.29099 14.5356 7.95947C14.5356 7.62795 14.4039 7.31001 14.1695 7.07559C13.9351 6.84117 13.6172 6.70947 13.2856 6.70947Z" fill="#00D2FF"/>
</svg>
