<svg width="50" height="51" viewBox="0 0 50 51" fill="none" xmlns="http://www.w3.org/2000/svg">
<path fill-rule="evenodd" clip-rule="evenodd" d="M34.5739 6.08435C34.0542 6.08435 33.6328 6.50569 33.6328 7.02546V29.4139C33.6328 29.9337 34.0542 30.3551 34.5739 30.3551H44.7014C45.2211 30.3551 45.6425 29.9337 45.6425 29.4138V7.02546C45.6425 6.50569 45.2211 6.08435 44.7014 6.08435H34.5739ZM32.1328 7.02546C32.1328 5.67727 33.2257 4.58435 34.5739 4.58435H44.7014C46.0496 4.58435 47.1425 5.67727 47.1425 7.02546V29.4138C47.1425 30.7621 46.0496 31.8551 44.7014 31.8551H34.5739C33.2257 31.8551 32.1328 30.7621 32.1328 29.4139V7.02546Z" fill="white"/>
<path fill-rule="evenodd" clip-rule="evenodd" d="M8.63281 13.6522C8.63281 13.238 8.9686 12.9022 9.38281 12.9022H29.9312C30.3455 12.9022 30.6812 13.238 30.6812 13.6522C30.6812 14.0664 30.3455 14.4022 29.9312 14.4022H10.1328V36.2534H38.8878V33.9394C38.8878 33.5252 39.2236 33.1894 39.6378 33.1894C40.052 33.1894 40.3878 33.5252 40.3878 33.9394V37.0034C40.3878 37.4176 40.052 37.7534 39.6378 37.7534H9.38281C8.9686 37.7534 8.63281 37.4176 8.63281 37.0034V13.6522Z" fill="white"/>
<path fill-rule="evenodd" clip-rule="evenodd" d="M8.87443 36.4521C9.01295 36.3244 9.19449 36.2534 9.38294 36.2534H39.6379C39.8264 36.2534 40.0079 36.3244 40.1464 36.4521L46.9966 42.7707C47.2237 42.9801 47.2991 43.3073 47.1867 43.5949C47.0743 43.8826 46.797 44.072 46.4881 44.072H2.53274C2.22388 44.072 1.9466 43.8826 1.83419 43.5949C1.72177 43.3073 1.79721 42.9801 2.02424 42.7707L8.87443 36.4521ZM9.67602 37.7534L4.45203 42.572H44.5688L39.3448 37.7534H9.67602Z" fill="white"/>
<path fill-rule="evenodd" clip-rule="evenodd" d="M32.1328 26.5815C32.1328 26.1673 32.4686 25.8315 32.8828 25.8315H46.3926C46.8068 25.8315 47.1426 26.1673 47.1426 26.5815C47.1426 26.9958 46.8068 27.3315 46.3926 27.3315H32.8828C32.4686 27.3315 32.1328 26.9958 32.1328 26.5815Z" fill="white"/>
<path fill-rule="evenodd" clip-rule="evenodd" d="M38.1807 28.7662C38.1807 28.352 38.5165 28.0162 38.9307 28.0162H40.3448C40.759 28.0162 41.0948 28.352 41.0948 28.7662C41.0948 29.1804 40.759 29.5162 40.3448 29.5162H38.9307C38.5165 29.5162 38.1807 29.1804 38.1807 28.7662Z" fill="white"/>
<path fill-rule="evenodd" clip-rule="evenodd" d="M29.2996 22.1697C29.5925 22.4626 29.5925 22.9375 29.2996 23.2303L21.0734 31.4564C20.7805 31.7493 20.3056 31.7493 20.0127 31.4564L17.6259 29.0696C17.333 28.7767 17.333 28.3018 17.6259 28.0089C17.9188 27.716 18.3937 27.716 18.6866 28.0089L20.5431 29.8654L28.2389 22.1697C28.5318 21.8768 29.0067 21.8768 29.2996 22.1697Z" fill="white"/>
<path fill-rule="evenodd" clip-rule="evenodd" d="M43.7057 12.7905C43.9986 13.0834 43.9986 13.5582 43.7057 13.8511L38.2216 19.3352C38.081 19.4759 37.8902 19.5549 37.6913 19.5549C37.4924 19.5549 37.3016 19.4759 37.161 19.3352L35.5698 17.744C35.2769 17.4511 35.2769 16.9762 35.5698 16.6833C35.8627 16.3904 36.3375 16.3904 36.6304 16.6833L37.6913 17.7442L42.6451 12.7905C42.938 12.4976 43.4128 12.4976 43.7057 12.7905Z" fill="white"/>
</svg>
