<svg width="21" height="20" viewBox="0 0 21 20" fill="none"
  xmlns="http://www.w3.org/2000/svg">
  <path d="M10.5 3.125L10.3047 3.30078L3.17578 10.5078L2.74609 10.9375L3.17578 11.3867L9.11328 17.3242L9.5625 17.7539L9.99219 17.3242L17.1992 10.1953L17.375 10V3.125H10.5ZM11.0273 4.375H16.125V9.47266L9.5625 15.9961L4.50391 10.9375L11.0273 4.375ZM14.25 5.625C13.9058 5.625 13.625 5.90576 13.625 6.25C13.625 6.59424 13.9058 6.875 14.25 6.875C14.5942 6.875 14.875 6.59424 14.875 6.25C14.875 5.90576 14.5942 5.625 14.25 5.625Z" fill="black"/>
</svg>
