<svg width="50" height="51" viewBox="0 0 50 51" fill="none" xmlns="http://www.w3.org/2000/svg">
  <path
    d="M32.5052 14.1387C31.3664 14.1387 30.2276 14.5806 29.3438 15.4644L12.1431 32.6651L12.0751 33.005L10.8853 38.9879L10.5454 40.5855L12.1431 40.2456L18.1259 39.0558L18.4659 38.9879L35.6665 21.7872C37.4342 20.0195 37.4342 17.2321 35.6665 15.4644C34.7827 14.5806 33.6439 14.1387 32.5052 14.1387ZM32.5052 16.2123C33.0533 16.2123 33.6057 16.463 34.1368 16.9941C35.1949 18.0522 35.1949 19.1994 34.1368 20.2575L33.355 21.0053L30.1256 17.776L30.8735 16.9941C31.4046 16.463 31.957 16.2123 32.5052 16.2123ZM28.5959 19.3057L31.8253 22.535L18.6698 35.6905C17.956 34.2968 16.8342 33.175 15.4405 32.4611L28.5959 19.3057ZM14.0467 34.2288C15.3512 34.7557 16.3753 35.7797 16.9022 37.0842L13.3329 37.7981L14.0467 34.2288Z"
    fill="white" />
  <path
    d="M25 45.1912C25 44.4953 25.5659 43.9356 26.2602 43.8889C35.8787 43.2411 43.48 35.2338 43.48 25.4512C43.48 15.245 35.2062 6.97117 25 6.97117C14.7938 6.97117 6.52 15.245 6.52 25.4512C6.52 29.419 7.77049 33.0948 9.89888 36.1059L9.25439 39.3467C5.98437 35.6442 4 30.7794 4 25.4512C4 13.8532 13.402 4.45117 25 4.45117C36.598 4.45117 46 13.8532 46 25.4512C46 36.6261 37.2714 45.7623 26.2602 46.414C25.5655 46.4551 25 45.8871 25 45.1912Z"
    fill="white" />
</svg>