<svg width="50" height="51" viewBox="0 0 50 51" fill="none"
  xmlns="http://www.w3.org/2000/svg">
  <path d="M25 8.3125C18.9758 8.3125 14.0625 13.2258 14.0625 19.25C14.0625 23.0159 15.9851 26.3606 18.8965 28.332C13.324 30.7246 9.375 36.2544 9.375 42.6875H12.5C12.5 35.7661 18.0786 30.1875 25 30.1875C31.9214 30.1875 37.5 35.7661 37.5 42.6875H40.625C40.625 36.2544 36.676 30.7246 31.1035 28.332C34.0149 26.3606 35.9375 23.0159 35.9375 19.25C35.9375 13.2258 31.0242 8.3125 25 8.3125ZM25 11.4375C29.3335 11.4375 32.8125 14.9165 32.8125 19.25C32.8125 23.5835 29.3335 27.0625 25 27.0625C20.6665 27.0625 17.1875 23.5835 17.1875 19.25C17.1875 14.9165 20.6665 11.4375 25 11.4375Z" fill="white"/>
</svg>
