<svg width="21" height="21" viewBox="0 0 21 21" fill="none" xmlns="http://www.w3.org/2000/svg">
<path d="M10.5861 0.666656C4.92153 0.666656 0.333496 5.1778 0.333496 10.7415C0.333496 15.1937 3.27086 18.9692 7.34371 20.3004C7.85634 20.3952 8.0443 20.0834 8.0443 19.8159C8.0443 19.5767 8.03576 18.9428 8.03148 18.1029C5.17955 18.7104 4.57807 16.7513 4.57807 16.7513C4.11158 15.5885 3.43747 15.2775 3.43747 15.2775C2.50875 14.6529 3.50924 14.6657 3.50924 14.6657C4.53877 14.7358 5.07959 15.7038 5.07959 15.7038C5.99378 17.2442 7.47955 16.7991 8.06566 16.5419C8.15793 15.8901 8.42194 15.4466 8.71499 15.1946C6.43806 14.9425 4.04493 14.0762 4.04493 10.2161C4.04493 9.1165 4.44222 8.21769 5.1001 7.51283C4.98476 7.25822 4.63873 6.23382 5.18981 4.8463C5.18981 4.8463 6.04846 4.57631 8.00927 5.87925C8.82948 5.6554 9.70095 5.54433 10.5724 5.5392C11.4439 5.54433 12.3154 5.6554 13.1356 5.87925C15.0836 4.57631 15.9422 4.8463 15.9422 4.8463C16.4933 6.23382 16.1473 7.25822 16.0447 7.51283C16.6983 8.21769 17.0956 9.1165 17.0956 10.2161C17.0956 14.0864 14.6991 14.9383 12.4179 15.186C12.7767 15.4885 13.1099 16.1062 13.1099 17.0503C13.1099 18.3985 13.0971 19.4819 13.0971 19.8091C13.0971 20.0731 13.2765 20.3884 13.802 20.2876C17.9039 18.965 20.8387 15.1869 20.8387 10.7415C20.8387 5.1778 16.2481 0.666656 10.5861 0.666656V0.666656Z" fill="white"/>
</svg>
