<svg width="50" height="51" viewBox="0 0 50 51" fill="none" xmlns="http://www.w3.org/2000/svg">
<path d="M39.8053 14.85H39.2452C39.599 12.3367 39.0573 9.77909 37.715 7.62506C36.3726 5.47104 34.3151 3.85798 31.903 3.06844C29.4909 2.2789 26.8778 2.3632 24.5216 3.3066C22.1654 4.24999 20.2162 5.99232 19.0155 8.2284C18.8249 8.21421 18.6344 8.19935 18.4398 8.19935C16.5715 8.20038 14.7658 8.87224 13.3512 10.0926C11.9366 11.313 11.0073 13.0008 10.7324 14.8487H10.1918C8.28728 14.8487 6.46075 15.6052 5.11403 16.952C3.76732 18.2987 3.01074 20.1252 3.01074 22.0298C3.01074 23.9343 3.76732 25.7608 5.11403 27.1075C6.46075 28.4543 8.28728 29.2108 10.1918 29.2108H39.8053C41.7099 29.2108 43.5364 28.4543 44.8831 27.1075C46.2298 25.7608 46.9864 23.9343 46.9864 22.0298C46.9864 20.1252 46.2298 18.2987 44.8831 16.952C43.5364 15.6052 41.7099 14.8487 39.8053 14.8487V14.85Z" stroke="white" stroke-width="2" stroke-linecap="round" stroke-linejoin="round"/>
<path d="M34.4688 29.2122V35.2378L39.2032 38.2507V42.9851" stroke="white" stroke-width="2" stroke-linecap="round" stroke-linejoin="round"/>
<path d="M39.2034 48.4729C40.7188 48.4729 41.9473 47.2445 41.9473 45.729C41.9473 44.2136 40.7188 42.9851 39.2034 42.9851C37.688 42.9851 36.4595 44.2136 36.4595 45.729C36.4595 47.2445 37.688 48.4729 39.2034 48.4729Z" stroke="white" stroke-width="2" stroke-linecap="round" stroke-linejoin="round"/>
<path d="M15.5308 29.2122V35.2378L10.7964 38.2507V42.9851" stroke="white" stroke-width="2" stroke-linecap="round" stroke-linejoin="round"/>
<path d="M10.7967 48.4729C12.3121 48.4729 13.5406 47.2445 13.5406 45.729C13.5406 44.2136 12.3121 42.9851 10.7967 42.9851C9.28123 42.9851 8.05273 44.2136 8.05273 45.729C8.05273 47.2445 9.28123 48.4729 10.7967 48.4729Z" stroke="white" stroke-width="2" stroke-linecap="round" stroke-linejoin="round"/>
<path d="M24.8518 48.4729C26.3673 48.4729 27.5957 47.2445 27.5957 45.729C27.5957 44.2136 26.3673 42.9851 24.8518 42.9851C23.3364 42.9851 22.1079 44.2136 22.1079 45.729C22.1079 47.2445 23.3364 48.4729 24.8518 48.4729Z" stroke="white" stroke-width="2" stroke-linecap="round" stroke-linejoin="round"/>
<path d="M24.8535 42.9851V29.2122" stroke="white" stroke-width="2" stroke-linecap="round" stroke-linejoin="round"/>
</svg>
