<svg width="23" height="22" viewBox="0 0 23 22" fill="none" xmlns="http://www.w3.org/2000/svg">
  <path
    d="M13.0781 2.0625C9.28882 2.0625 6.20312 5.14819 6.20312 8.9375C6.20312 10.5837 6.78052 12.093 7.75 13.2773L2.76562 18.2617C2.49272 18.5346 2.49272 18.9771 2.76562 19.25C3.03853 19.5229 3.481 19.5229 3.75391 19.25L8.73828 14.2656C9.92261 15.2351 11.4319 15.8125 13.0781 15.8125C16.8674 15.8125 19.9531 12.7268 19.9531 8.9375C19.9531 5.14819 16.8674 2.0625 13.0781 2.0625ZM13.0781 3.4375C16.1235 3.4375 18.5781 5.89209 18.5781 8.9375C18.5781 11.9829 16.1235 14.4375 13.0781 14.4375C10.0327 14.4375 7.57812 11.9829 7.57812 8.9375C7.57812 5.89209 10.0327 3.4375 13.0781 3.4375Z"
    fill="#00D2FF" />
</svg>