<svg width="50" height="50" viewBox="0 0 50 50" fill="none" xmlns="http://www.w3.org/2000/svg">
  <path
    d="M10.5913 40.416H38.8899C41.277 40.416 43.2301 38.4629 43.2301 36.0757V13.5063C43.2301 11.1191 41.277 9.16602 38.8899 9.16602H10.5913C8.2041 9.16602 6.25098 11.1191 6.25098 13.5063V36.0757C6.25098 38.4629 8.2041 40.416 10.5913 40.416ZM9.7232 36.0757V30.0428L20.5739 22.9681L33.8985 36.9438H10.5913C10.1138 36.9438 9.7232 36.5532 9.7232 36.0757ZM38.8899 36.9438H38.6729L29.0808 26.8743L33.0305 23.1417L39.7579 29.6087V36.0757C39.7579 36.5532 39.3673 36.9438 38.8899 36.9438ZM10.5913 12.6382H38.8899C39.3673 12.6382 39.7579 13.0289 39.7579 13.5063V24.791L34.2458 19.4525C33.5947 18.8014 32.5097 18.8014 31.8586 19.4525L26.6937 24.357L22.093 19.5393C21.5288 18.9316 20.5739 18.8448 19.8795 19.2789L9.7232 25.8761V13.5063C9.7232 13.0289 10.1138 12.6382 10.5913 12.6382Z"
    fill="white" />
</svg>