<svg width="24" height="24" viewBox="0 0 24 24" fill="none"
  xmlns="http://www.w3.org/2000/svg">
  <path fill-rule="evenodd" clip-rule="evenodd" d="M11.3599 6.37303L6.37456 11.3584C6.0206 11.7124 6.0206 12.2862 6.37456 12.6402L11.3599 17.6256C11.7139 17.9795 12.2878 17.9795 12.6417 17.6256L17.6271 12.6402C17.981 12.2862 17.981 11.7124 17.6271 11.3584L12.6417 6.37303C12.2878 6.01908 11.7139 6.01908 11.3599 6.37303ZM12.0008 15.7029L8.29723 11.9993L12.0008 8.2957L15.7044 11.9993L12.0008 15.7029Z" fill="white"/>
  <path fill-rule="evenodd" clip-rule="evenodd" d="M2.02979 11.9993C2.02979 6.49253 6.49302 2.0293 11.9998 2.0293C17.5065 2.0293 21.9698 6.49253 21.9698 11.9993C21.9698 17.5061 17.5065 21.9693 11.9998 21.9693C6.49302 21.9693 2.02979 17.5061 2.02979 11.9993ZM20.3081 11.9993C20.3081 7.41808 16.581 3.69096 11.9998 3.69096C7.41857 3.69096 3.69145 7.41808 3.69145 11.9993C3.69145 16.5805 7.41857 20.3076 11.9998 20.3076C16.581 20.3076 20.3081 16.5805 20.3081 11.9993Z" fill="white"/>
</svg>
