<svg width="16" height="16" viewBox="0 0 16 16" fill="none" xmlns="http://www.w3.org/2000/svg">
<path d="M10.875 2.00391C10.0742 2.00391 9.26562 2.31641 8.65625 2.92578L7.92188 3.66016C7.41406 4.16797 7.11328 4.8125 7.03125 5.47266L8.03125 5.59766C8.08789 5.14453 8.2793 4.70898 8.625 4.36328L9.35938 3.62891C10.1953 2.79297 11.5391 2.79297 12.375 3.62891C13.2109 4.46484 13.2109 5.80859 12.375 6.64453L11.6406 7.37891H11.625C11.2793 7.72656 10.8574 7.91797 10.4062 7.97266L10.5312 8.97266C11.1914 8.89063 11.8359 8.58984 12.3438 8.08203L13.0781 7.34766C14.2949 6.13086 14.2949 4.14258 13.0781 2.92578C12.4688 2.31641 11.6758 2.00391 10.875 2.00391ZM3.85938 3.14453L3.14063 3.86328L5.14062 5.86328L5.85938 5.14453L3.85938 3.14453ZM5.46875 7.03516C4.80859 7.11719 4.16406 7.41797 3.65625 7.92578L2.92188 8.66016C1.70508 9.87695 1.70508 11.8652 2.92188 13.082C4.13867 14.2988 6.12695 14.2988 7.34375 13.082L8.07812 12.3477C8.58594 11.8398 8.88672 11.1953 8.96875 10.5352L7.96875 10.4102C7.91211 10.8633 7.7207 11.2988 7.375 11.6445L6.64062 12.3789C5.80469 13.2148 4.46094 13.2148 3.625 12.3789C2.78906 11.543 2.78906 10.1992 3.625 9.36328L4.35938 8.62891H4.375C4.7207 8.28125 5.14258 8.08984 5.59375 8.03516L5.46875 7.03516ZM10.8594 10.1445L10.1406 10.8633L12.1406 12.8633L12.8594 12.1445L10.8594 10.1445Z" fill="#ffffff"/>
</svg>
