<svg width="50" height="50" viewBox="0 0 50 50" fill="none" xmlns="http://www.w3.org/2000/svg">
  <g clip-path="url(#clip0_13554_233028)">
    <path
      d="M46.2464 31.9693C43.0452 28.7181 34.2972 30.0402 32.1998 30.283C29.8956 28.0166 27.9086 25.4669 26.2804 22.7013C27.4257 19.4771 28.1018 16.118 28.2536 12.7049C28.2536 9.69652 27.0255 6.44531 23.576 6.44531C22.3618 6.48578 21.2441 7.11984 20.6232 8.13162C19.1468 10.6678 19.7677 15.7133 22.0996 20.8936C20.499 25.6288 18.4707 30.229 16.0698 34.6269C12.4823 36.0569 4.97605 39.4295 4.35513 43.045C4.12056 44.1512 4.49312 45.2844 5.3348 46.0534C6.19029 46.7684 7.29414 47.1461 8.4118 47.1326C12.9652 47.1326 17.4082 40.9944 20.4852 35.8141C23.9899 34.6539 27.5775 33.7231 31.2064 33.0486C36.0081 37.1497 40.2028 37.7432 42.4243 37.7432C45.3771 37.7432 46.4948 36.5426 46.8535 35.4499C47.4054 34.2897 47.1709 32.9002 46.2464 31.9693ZM43.1556 34.0199C43.0314 34.8563 41.9276 35.7062 39.9544 35.2205C37.6639 34.6269 35.5114 33.5477 33.6763 32.0907C35.2768 31.8479 38.8506 31.4837 41.4446 31.9693C42.4243 32.2121 43.404 32.8057 43.1556 34.0199ZM22.5825 9.19737C22.7895 8.84662 23.162 8.63077 23.5622 8.5903C24.666 8.5903 24.9144 9.91237 24.9144 11.0051C24.7902 13.5548 24.2935 16.064 23.438 18.4788C21.6029 13.6627 21.9754 10.2901 22.5825 9.19737ZM22.348 32.5764C23.4104 30.3774 24.3625 28.1245 25.1766 25.8311C26.3218 27.5984 27.6327 29.2577 29.1229 30.7687C29.1229 30.8766 25.3008 31.6051 22.348 32.5764ZM15.0763 37.3925C12.2477 41.9658 9.28108 44.8662 7.68049 44.8662C7.41833 44.8392 7.16996 44.7583 6.93539 44.6234C6.56284 44.3941 6.41106 43.9354 6.56284 43.5441C6.93539 41.8443 10.1504 39.551 15.0763 37.3925Z"
      fill="white" />
  </g>
  <defs>
    <clipPath id="clip0_13554_233028">
      <rect width="42.8571" height="40.7143" fill="white" transform="translate(4.28613 6.42773)" />
    </clipPath>
  </defs>
</svg>