<svg width="50" height="60" viewBox="0 0 50 60" fill="none" xmlns="http://www.w3.org/2000/svg">
  <path
    d="M25 0.64209L0 8.01204V23.303C0 31.3224 2.38031 38.9913 6.88341 45.4805C11.2903 51.8311 17.3637 56.5596 24.447 59.1552L25 59.3577L25.553 59.155C32.6363 56.5595 38.7098 51.831 43.1166 45.4804C47.6197 38.9912 50 31.3222 50 23.303V8.01204L25 0.64209ZM25 48.2273C21.0292 46.229 17.5709 43.208 14.965 39.453C12.2887 35.5961 10.6434 31.1642 10.1298 26.4862L25 22.1027L39.8702 26.4864C39.3567 31.1642 37.7114 35.5962 35.035 39.4531C32.4291 43.2081 28.9708 46.2291 25 48.2273ZM40.0442 22.961L25 18.5259L9.95575 22.961V15.8073L25 11.3724L40.0442 15.8073V22.961ZM3.31858 23.303V10.6104L23.3407 4.70803V8.28475L6.63717 13.2089V23.303C6.63717 29.8713 8.58529 36.1507 12.2712 41.4623C15.1525 45.6142 18.9637 48.9677 23.3407 51.2149V55.0063C11.2726 49.5508 3.31858 37.1069 3.31858 23.303ZM46.6814 23.303C46.6814 37.107 38.7274 49.5509 26.6593 55.0063V51.2149C31.0363 48.9677 34.8476 45.6142 37.7289 41.4623C41.4147 36.1507 43.3628 29.8713 43.3628 23.303V13.2089L26.6593 8.28475V4.70803L46.6814 10.6104V23.303Z"
    fill="white" />
</svg>