<svg width="25" height="24" viewBox="0 0 25 24" fill="none" xmlns="http://www.w3.org/2000/svg">
<path d="M9.35596 4.5C7.91455 4.5 6.73096 5.68359 6.73096 7.125C6.73096 8.56641 7.91455 9.75 9.35596 9.75C10.7974 9.75 11.981 8.56641 11.981 7.125C11.981 5.68359 10.7974 4.5 9.35596 4.5ZM16.106 4.5C14.6646 4.5 13.481 5.68359 13.481 7.125C13.481 8.56641 14.6646 9.75 16.106 9.75C17.5474 9.75 18.731 8.56641 18.731 7.125C18.731 5.68359 17.5474 4.5 16.106 4.5ZM9.35596 6C9.98584 6 10.481 6.49512 10.481 7.125C10.481 7.75488 9.98584 8.25 9.35596 8.25C8.72607 8.25 8.23096 7.75488 8.23096 7.125C8.23096 6.49512 8.72607 6 9.35596 6ZM16.106 6C16.7358 6 17.231 6.49512 17.231 7.125C17.231 7.75488 16.7358 8.25 16.106 8.25C15.4761 8.25 14.981 7.75488 14.981 7.125C14.981 6.49512 15.4761 6 16.106 6ZM5.98096 9C4.33154 9 2.98096 10.3506 2.98096 12C2.98096 12.835 3.33838 13.5879 3.89502 14.1328C2.896 14.8096 2.23096 15.9609 2.23096 17.25H3.73096C3.73096 15.999 4.72998 15 5.98096 15C7.23193 15 8.23096 15.999 8.23096 17.25H9.73096C9.73096 15.9609 9.06592 14.8096 8.06689 14.1328C8.62354 13.5879 8.98096 12.835 8.98096 12C8.98096 10.3506 7.63037 9 5.98096 9ZM9.73096 17.25C9.26221 17.877 8.98096 18.665 8.98096 19.5H10.481C10.481 18.249 11.48 17.25 12.731 17.25C13.9819 17.25 14.981 18.249 14.981 19.5H16.481C16.481 18.665 16.1997 17.877 15.731 17.25C15.4761 16.9102 15.1685 16.6201 14.8169 16.3828C15.3735 15.8379 15.731 15.085 15.731 14.25C15.731 12.6006 14.3804 11.25 12.731 11.25C11.0815 11.25 9.73096 12.6006 9.73096 14.25C9.73096 15.085 10.0884 15.8379 10.645 16.3828C10.2935 16.6201 9.98584 16.9102 9.73096 17.25ZM15.731 17.25H17.231C17.231 15.999 18.23 15 19.481 15C20.7319 15 21.731 15.999 21.731 17.25H23.231C23.231 15.9609 22.5659 14.8096 21.5669 14.1328C22.1235 13.5879 22.481 12.835 22.481 12C22.481 10.3506 21.1304 9 19.481 9C17.8315 9 16.481 10.3506 16.481 12C16.481 12.835 16.8384 13.5879 17.395 14.1328C16.396 14.8096 15.731 15.9609 15.731 17.25ZM5.98096 10.5C6.81885 10.5 7.48096 11.1621 7.48096 12C7.48096 12.8379 6.81885 13.5 5.98096 13.5C5.14307 13.5 4.48096 12.8379 4.48096 12C4.48096 11.1621 5.14307 10.5 5.98096 10.5ZM19.481 10.5C20.3188 10.5 20.981 11.1621 20.981 12C20.981 12.8379 20.3188 13.5 19.481 13.5C18.6431 13.5 17.981 12.8379 17.981 12C17.981 11.1621 18.6431 10.5 19.481 10.5ZM12.731 12.75C13.5688 12.75 14.231 13.4121 14.231 14.25C14.231 15.0879 13.5688 15.75 12.731 15.75C11.8931 15.75 11.231 15.0879 11.231 14.25C11.231 13.4121 11.8931 12.75 12.731 12.75Z" fill="white"/>
</svg>
