<svg width="15" height="16" viewBox="0 0 15 16" fill="none" xmlns="http://www.w3.org/2000/svg">
<path fill-rule="evenodd" clip-rule="evenodd" d="M14.162 7.86353C14.162 11.5429 11.1793 14.5256 7.5 14.5256C3.82066 14.5256 0.837968 11.5429 0.837968 7.86353C0.837968 4.18419 3.82066 1.20149 7.5 1.20149C11.1793 1.20149 14.162 4.18419 14.162 7.86353ZM15 7.86353C15 12.0057 11.6421 15.3635 7.5 15.3635C3.35786 15.3635 0 12.0057 0 7.86353C0 3.72139 3.35786 0.363525 7.5 0.363525C11.6421 0.363525 15 3.72139 15 7.86353ZM8 2.86694V7.55223L11.4447 10.9969L10.7376 11.704L7 7.96644V2.86694H8Z" fill="white"/>
</svg>
