<svg width="20" height="20" viewBox="0 0 20 20" fill="none" xmlns="http://www.w3.org/2000/svg">
<path d="M10 3.75C5.86426 3.75 2.5 7.11426 2.5 11.25C2.5 13.0591 3.14697 14.7192 4.21875 16.0156L4.39453 16.25H15.6055L15.7812 16.0156C16.853 14.7192 17.5 13.0591 17.5 11.25C17.5 7.11426 14.1357 3.75 10 3.75ZM10 5C13.4595 5 16.25 7.79053 16.25 11.25C16.25 12.666 15.7544 13.9526 14.9609 15H5.03906C4.24561 13.9526 3.75 12.666 3.75 11.25C3.75 7.79053 6.54053 5 10 5ZM10 5.625C9.65576 5.625 9.375 5.90576 9.375 6.25C9.375 6.59424 9.65576 6.875 10 6.875C10.3442 6.875 10.625 6.59424 10.625 6.25C10.625 5.90576 10.3442 5.625 10 5.625ZM7.5 6.28906C7.15576 6.28906 6.875 6.56982 6.875 6.91406C6.875 7.2583 7.15576 7.53906 7.5 7.53906C7.84424 7.53906 8.125 7.2583 8.125 6.91406C8.125 6.56982 7.84424 6.28906 7.5 6.28906ZM12.5 6.28906C12.1558 6.28906 11.875 6.56982 11.875 6.91406C11.875 7.2583 12.1558 7.53906 12.5 7.53906C12.8442 7.53906 13.125 7.2583 13.125 6.91406C13.125 6.56982 12.8442 6.28906 12.5 6.28906ZM5.66406 8.125C5.31982 8.125 5.03906 8.40576 5.03906 8.75C5.03906 9.09424 5.31982 9.375 5.66406 9.375C6.0083 9.375 6.28906 9.09424 6.28906 8.75C6.28906 8.40576 6.0083 8.125 5.66406 8.125ZM14.1602 8.14453L10.625 10.1758C10.4419 10.0684 10.227 10 10 10C9.30908 10 8.75 10.5591 8.75 11.25C8.75 11.9409 9.30908 12.5 10 12.5C10.6836 12.5 11.2402 11.9507 11.25 11.2695C11.25 11.2622 11.25 11.2573 11.25 11.25L14.7852 9.23828L14.1602 8.14453ZM5 10.625C4.65576 10.625 4.375 10.9058 4.375 11.25C4.375 11.5942 4.65576 11.875 5 11.875C5.34424 11.875 5.625 11.5942 5.625 11.25C5.625 10.9058 5.34424 10.625 5 10.625ZM15 10.625C14.6558 10.625 14.375 10.9058 14.375 11.25C14.375 11.5942 14.6558 11.875 15 11.875C15.3442 11.875 15.625 11.5942 15.625 11.25C15.625 10.9058 15.3442 10.625 15 10.625ZM5.66406 13.125C5.31982 13.125 5.03906 13.4058 5.03906 13.75C5.03906 14.0942 5.31982 14.375 5.66406 14.375C6.0083 14.375 6.28906 14.0942 6.28906 13.75C6.28906 13.4058 6.0083 13.125 5.66406 13.125ZM14.3359 13.125C13.9917 13.125 13.7109 13.4058 13.7109 13.75C13.7109 14.0942 13.9917 14.375 14.3359 14.375C14.6802 14.375 14.9609 14.0942 14.9609 13.75C14.9609 13.4058 14.6802 13.125 14.3359 13.125Z" fill="white"/>
</svg>
