<svg width="50" height="51" viewBox="0 0 50 51" fill="none" xmlns="http://www.w3.org/2000/svg">
<path d="M12.8905 46.605L1.73633 40.873V28.7704L12.8905 34.5024V46.605Z" stroke="white" stroke-width="1.5" stroke-miterlimit="10" stroke-linecap="round" stroke-linejoin="round"/>
<path d="M12.8521 46.6073L24.0064 39.4049V27.5023L12.8521 34.5047" stroke="white" stroke-width="1.5" stroke-miterlimit="10" stroke-linecap="round" stroke-linejoin="round"/>
<path d="M1.73633 28.7704L12.9475 21.6919L24.0064 27.4484" stroke="white" stroke-width="1.5" stroke-miterlimit="10" stroke-linecap="round" stroke-linejoin="round"/>
<path d="M26.1372 20.1426V11.6044L37.2915 17.3364V29.439L28.9948 25.1754" stroke="white" stroke-width="1.5" stroke-miterlimit="10" stroke-linecap="round" stroke-linejoin="round"/>
<path d="M37.2529 29.4411L48.4071 22.3849V10.2823L37.2529 17.3386" stroke="white" stroke-width="1.5" stroke-miterlimit="10" stroke-linecap="round" stroke-linejoin="round"/>
<path d="M26.1372 11.6044L37.3485 4.52588L48.4073 10.2824" stroke="white" stroke-width="1.5" stroke-miterlimit="10" stroke-linecap="round" stroke-linejoin="round"/>
<path d="M22.5266 26.8821C22.2941 26.8821 22.0649 26.7743 21.9183 26.5716C21.6755 26.236 21.7508 25.7671 22.0864 25.5243L22.451 25.2605C22.7866 25.0178 23.2554 25.0931 23.4982 25.4287C23.741 25.7643 23.6657 26.2332 23.3301 26.476L22.9655 26.7398C22.8326 26.8358 22.6789 26.8821 22.5266 26.8821ZM25.141 24.9913C24.9085 24.9913 24.6793 24.8835 24.5326 24.6807C24.2899 24.3451 24.3652 23.8762 24.7009 23.6335L25.2965 23.2028C25.6322 22.96 26.101 23.0353 26.3438 23.3711C26.5865 23.7067 26.5112 24.1756 26.1755 24.4183L25.5799 24.849C25.447 24.945 25.2933 24.9913 25.141 24.9913ZM27.9864 22.9335C27.7539 22.9335 27.5247 22.8257 27.3781 22.623C27.1353 22.2874 27.2106 21.8185 27.5462 21.5757L28.1417 21.1449C28.4773 20.9021 28.9462 20.9775 29.1889 21.3131C29.4317 21.6487 29.3564 22.1176 29.0208 22.3604L28.4253 22.7912C28.2924 22.8872 28.1387 22.9335 27.9864 22.9335ZM30.8318 20.8756C30.5993 20.8756 30.3701 20.7678 30.2235 20.565C29.9808 20.2295 30.0561 19.7605 30.3917 19.5178L30.7563 19.2541C31.0919 19.0113 31.5608 19.0867 31.8035 19.4224C32.0462 19.7579 31.9709 20.2269 31.6353 20.4696L31.2707 20.7333C31.1378 20.8293 30.9841 20.8756 30.8318 20.8756Z" fill="white"/>
</svg>
