<svg width="24" height="24" viewBox="0 0 24 24" fill="none"
  xmlns="http://www.w3.org/2000/svg">
  <path d="M12.0005 1.5C10.9634 1.5 10.1021 2.22656 9.84424 3.1875C9.58057 3.0791 9.30225 3 9.00049 3C7.76709 3 6.75049 4.0166 6.75049 5.25V13.3125L6.09424 12.6562C5.22119 11.7832 3.77979 11.7832 2.90674 12.6562C2.03369 13.5293 2.03369 14.9707 2.90674 15.8438L7.99268 20.9297C8.87451 21.8086 10.0933 22.5 11.5317 22.5H15.0005C17.8921 22.5 20.2505 20.1416 20.2505 17.25V8.25C20.2505 7.0166 19.2339 6 18.0005 6C17.7368 6 17.4878 6.05566 17.2505 6.14062V5.25C17.2505 4.0166 16.2339 3 15.0005 3C14.6987 3 14.4204 3.0791 14.1567 3.1875C13.8989 2.22656 13.0376 1.5 12.0005 1.5ZM12.0005 3C12.4253 3 12.7505 3.3252 12.7505 3.75V11.25H14.2505V5.25C14.2505 4.8252 14.5757 4.5 15.0005 4.5C15.4253 4.5 15.7505 4.8252 15.7505 5.25V11.25H17.2505V8.25C17.2505 7.8252 17.5757 7.5 18.0005 7.5C18.4253 7.5 18.7505 7.8252 18.7505 8.25V17.25C18.7505 19.3301 17.0806 21 15.0005 21H11.5317C10.5767 21 9.75635 20.5342 9.0708 19.8516L3.96143 14.7891C3.6626 14.4902 3.6626 14.0098 3.96143 13.7109C4.26025 13.4121 4.74072 13.4121 5.03955 13.7109L6.96143 15.6562L8.25049 16.9453V5.25C8.25049 4.8252 8.57568 4.5 9.00049 4.5C9.42529 4.5 9.75049 4.8252 9.75049 5.25V11.25H11.2505V3.75C11.2505 3.3252 11.5757 3 12.0005 3Z" fill="black"/>
</svg>
