<?xml version="1.0" standalone="no"?>
<!DOCTYPE svg PUBLIC "-//W3C//DTD SVG 20010904//EN"
 "http://www.w3.org/TR/2001/REC-SVG-20010904/DTD/svg10.dtd">
<svg version="1.0" xmlns="http://www.w3.org/2000/svg"
 width="2050.000000pt" height="918.000000pt" viewBox="0 0 2050.000000 918.000000"
 preserveAspectRatio="xMidYMid meet">

<g transform="translate(0.000000,918.000000) scale(0.100000,-0.100000)"
fill="#000000" stroke="none">
<path d="M4375 8901 c-158 -45 -295 -159 -364 -304 -46 -96 -61 -161 -61 -262
0 -101 15 -166 61 -262 73 -153 233 -278 397 -312 198 -41 402 19 542 159 112
113 170 253 170 415 0 102 -15 166 -62 264 -70 146 -214 264 -374 306 -78 20
-232 19 -309 -4z m253 -370 c137 -71 165 -249 55 -353 -136 -129 -363 -31
-363 157 0 85 45 156 125 198 43 23 137 22 183 -2z"/>
<path d="M7072 7829 c-402 -51 -627 -480 -446 -849 50 -100 152 -203 251 -254
237 -119 505 -77 689 108 211 212 230 536 46 778 -119 158 -334 244 -540 217z
m196 -402 c61 -40 97 -108 97 -182 -1 -66 -16 -104 -62 -149 -104 -106 -278
-77 -351 59 -24 45 -21 140 6 192 41 79 106 114 203 110 52 -2 75 -8 107 -30z"/>
<path d="M4357 7580 c-152 -39 -194 -66 -497 -329 -85 -74 -156 -135 -158
-136 -1 -1 80 -2 180 -1 163 1 189 -1 241 -20 l57 -21 92 79 c126 110 153 123
258 123 107 0 143 -17 260 -120 63 -56 90 -74 105 -70 115 32 166 37 315 31
l155 -6 -31 28 c-397 349 -446 386 -579 428 -112 37 -286 42 -398 14z"/>
<path d="M4975 6992 c-175 -52 -297 -176 -349 -351 -20 -68 -20 -196 -2 -433
12 -151 18 -184 38 -220 26 -48 73 -83 130 -98 79 -22 169 29 183 103 4 20 0
135 -9 254 -17 229 -15 258 24 320 25 42 86 82 139 91 38 6 736 -38 1042 -66
150 -14 226 -57 283 -162 28 -51 33 -82 52 -323 6 -77 6 -77 47 -106 48 -33
115 -103 236 -244 46 -53 86 -95 88 -93 6 5 -35 578 -48 671 -35 256 -228 486
-478 568 -75 25 -119 30 -564 63 -635 46 -734 49 -812 26z"/>
<path d="M9470 5280 l0 -1600 218 0 217 0 -3 1210 c-1 707 2 1210 7 1210 5 0
12 -21 15 -47 6 -40 198 -1317 322 -2136 19 -126 34 -230 34 -233 0 -2 95 -3
212 -2 l212 3 179 1195 c99 657 182 1202 186 1210 3 8 7 -531 9 -1197 l2
-1213 235 0 235 0 0 1600 0 1600 -358 0 -357 0 -44 -312 c-23 -172 -53 -387
-66 -478 -13 -91 -65 -465 -116 -832 -51 -368 -96 -668 -99 -668 -4 0 -12 39
-18 88 -6 48 -43 314 -82 592 -39 278 -81 582 -94 675 -13 94 -48 342 -77 553
l-53 382 -358 0 -358 0 0 -1600z"/>
<path d="M12010 5280 l0 -1600 685 0 685 0 0 225 0 225 -432 2 -433 3 -3 493
-2 492 345 0 345 0 0 230 0 230 -345 0 -345 0 2 423 3 422 433 3 432 2 0 225
0 225 -685 0 -685 0 0 -1600z"/>
<path d="M13750 5279 l0 -1599 850 0 850 0 0 225 0 225 -597 2 -598 3 -3 1373
-2 1373 -250 -1 -250 -1 0 -1600z"/>
<path d="M3311 6514 c-106 -8 -177 -18 -182 -25 -14 -24 -19 -129 -9 -195 13
-85 65 -196 124 -260 64 -72 351 -316 394 -336 100 -47 241 9 259 101 17 91 4
110 -194 282 -187 163 -223 209 -223 289 0 37 31 113 57 142 19 22 26 22 -226
2z"/>
<path d="M5528 6510 c60 -64 70 -181 22 -251 -14 -20 -101 -103 -195 -184 -93
-81 -178 -162 -187 -179 -41 -71 -11 -159 67 -203 50 -29 135 -31 185 -5 66
33 398 331 439 393 70 104 85 158 86 291 0 64 -2 119 -5 121 -3 3 -72 10 -155
16 -82 6 -179 14 -214 17 l-64 6 21 -22z"/>
<path d="M6526 5150 c-22 -38 -82 -79 -132 -90 -22 -5 -111 -3 -223 6 -254 19
-299 18 -338 -6 -58 -35 -80 -113 -54 -192 13 -40 74 -102 115 -118 32 -12
381 -40 501 -40 96 0 177 19 255 61 52 27 140 102 140 119 0 5 -188 228 -239
282 -4 4 -15 -6 -25 -22z"/>
<path d="M16287 3222 c-39 -43 -8 -112 49 -112 23 0 64 42 64 65 0 7 -9 24
-21 39 -24 31 -68 35 -92 8z"/>
<path d="M19067 3222 c-26 -28 -22 -78 7 -98 68 -44 137 44 80 101 -21 21 -67
19 -87 -3z"/>
<path d="M10640 2925 l0 -265 55 0 54 0 3 81 3 80 52 -80 52 -81 66 0 65 0
-75 102 c-46 62 -71 106 -66 112 20 26 118 162 125 174 5 9 -8 12 -57 12 l-64
0 -52 -77 -51 -78 0 143 0 142 -55 0 -55 0 0 -265z"/>
<path d="M12460 2925 l0 -265 55 0 55 0 0 265 0 265 -55 0 -55 0 0 -265z"/>
<path d="M13080 2925 l0 -265 55 0 c55 0 55 0 55 31 l0 31 37 -32 c33 -30 40
-32 91 -28 48 4 60 10 88 41 38 41 54 90 54 167 0 65 -35 148 -71 172 -60 39
-141 30 -178 -20 l-20 -27 -1 98 0 97 -55 0 -55 0 0 -265z m225 29 c23 -9 45
-57 45 -99 0 -42 -44 -95 -79 -95 -37 0 -72 41 -78 91 -4 38 -1 50 22 77 26
31 54 39 90 26z"/>
<path d="M9649 2998 c-1 -208 -4 -223 -44 -223 -24 0 -33 7 -45 32 -14 30 -19
33 -62 33 l-48 0 0 -37 c0 -47 30 -97 72 -123 44 -26 122 -27 165 0 58 35 63
56 63 285 l0 205 -50 0 -50 0 -1 -172z"/>
<path d="M12085 3155 c-48 -26 -82 -64 -105 -118 -19 -43 -22 -64 -18 -136 5
-92 25 -146 70 -188 75 -70 221 -70 296 0 29 27 62 89 62 117 0 17 -6 20 -49
20 -43 0 -53 -4 -89 -40 -43 -44 -74 -50 -121 -25 -76 39 -82 208 -10 259 43
30 114 15 144 -31 13 -19 24 -23 70 -23 46 0 55 3 55 18 0 29 -43 93 -83 126
-35 28 -47 31 -115 34 -56 2 -85 -1 -107 -13z"/>
<path d="M14250 2920 l0 -250 135 0 135 0 0 45 0 45 -85 0 -85 0 0 60 0 60 75
0 75 0 0 40 0 40 -75 0 -75 0 0 61 0 60 85 -3 85 -3 0 48 0 47 -135 0 -135 0
0 -250z"/>
<path d="M14590 2918 l0 -253 125 3 125 3 0 40 0 39 -75 0 -75 0 0 210 0 210
-50 0 -50 0 0 -252z"/>
<path d="M15030 2915 l0 -256 53 3 52 3 0 250 0 250 -52 3 -53 3 0 -256z"/>
<path d="M17960 2916 l0 -256 55 0 55 0 0 90 0 90 58 0 c112 0 172 57 172 164
0 68 -21 113 -67 143 -21 14 -53 19 -150 22 l-123 3 0 -256z m213 137 c8 -10
16 -25 17 -33 8 -55 -16 -80 -76 -80 l-44 0 0 65 0 65 43 0 c29 0 49 -6 60
-17z"/>
<path d="M13650 2915 l0 -245 55 0 56 0 -2 146 c0 80 1 147 4 150 2 3 17 -35
31 -83 15 -48 37 -117 48 -153 l21 -66 45 6 45 5 23 70 c13 39 33 105 45 148
13 42 26 77 31 77 4 0 8 -69 8 -152 l0 -153 50 3 50 4 0 244 0 244 -64 0 -64
0 -40 -112 c-22 -62 -48 -139 -58 -170 -10 -32 -21 -58 -24 -58 -8 0 -17 23
-82 210 l-44 125 -67 3 -67 3 0 -246z"/>
<path d="M16030 3110 c0 -47 -2 -50 -25 -50 -23 0 -25 -3 -25 -50 0 -47 2 -50
25 -50 l25 0 0 -102 c0 -86 3 -109 20 -136 23 -37 72 -62 125 -62 l35 0 0 54
c0 54 0 55 -32 58 l-33 3 -3 93 -3 92 36 0 35 0 0 50 0 50 -35 0 -35 0 0 50 0
50 -55 0 -55 0 0 -50z"/>
<path d="M16480 3110 c0 -43 -3 -50 -20 -50 -17 0 -20 -7 -20 -50 0 -42 3 -50
19 -50 17 0 19 -11 23 -109 5 -124 17 -153 75 -177 19 -8 51 -14 71 -12 l37 3
0 50 c0 48 -1 50 -30 53 -16 2 -33 9 -37 15 -4 7 -8 49 -8 95 l0 82 40 0 40 0
0 50 0 50 -40 0 -40 0 0 50 0 50 -55 0 -55 0 0 -50z"/>
<path d="M17180 3110 c0 -43 -3 -50 -20 -50 -17 0 -20 -7 -20 -50 0 -42 3 -50
19 -50 16 0 19 -11 23 -103 4 -69 11 -115 22 -136 20 -38 67 -61 126 -61 l40
0 0 55 c0 54 0 55 -30 55 -40 0 -51 26 -48 113 l3 72 38 3 37 3 0 49 0 49 -37
3 c-38 3 -38 3 -41 51 l-3 47 -55 0 -54 0 0 -50z"/>
<path d="M20060 3110 c0 -47 -2 -50 -25 -50 -23 0 -25 -3 -25 -50 0 -47 2 -50
25 -50 25 0 25 0 25 -97 0 -73 4 -107 18 -133 20 -41 71 -70 125 -70 l37 0 0
54 c0 54 0 55 -32 58 l-33 3 -3 93 -3 92 36 0 35 0 0 50 0 50 -35 0 -35 0 0
50 0 50 -55 0 -55 0 0 -50z"/>
<path d="M9938 3057 c-75 -25 -127 -101 -128 -187 0 -130 70 -210 185 -210
116 0 185 78 185 208 0 139 -117 230 -242 189z m107 -122 c45 -44 29 -143 -25
-165 -71 -29 -127 69 -85 150 24 47 72 54 110 15z"/>
<path d="M10350 3058 c-78 -22 -123 -92 -124 -193 -1 -57 4 -78 24 -114 35
-63 69 -84 139 -89 95 -7 165 42 186 131 7 27 7 27 -45 27 -45 0 -56 -4 -80
-30 -33 -36 -59 -38 -87 -7 -28 30 -37 79 -23 122 19 58 74 73 108 30 17 -21
28 -25 77 -25 54 0 56 1 49 23 -20 66 -52 102 -111 123 -44 15 -65 16 -113 2z"/>
<path d="M11145 3061 c-47 -11 -79 -37 -106 -83 -20 -36 -24 -56 -23 -118 0
-80 14 -118 56 -157 74 -69 216 -53 267 30 34 56 29 67 -30 67 -40 0 -58 -5
-81 -25 -21 -18 -37 -24 -52 -19 -27 8 -56 41 -56 65 0 18 9 19 125 19 l125 0
0 43 c0 48 -27 113 -58 140 -24 22 -88 46 -117 46 -11 -1 -34 -4 -50 -8z m95
-111 c11 -11 20 -29 20 -40 0 -18 -7 -20 -70 -20 -78 0 -85 8 -49 54 25 32 70
35 99 6z"/>
<path d="M15410 3063 c-14 -3 -40 -19 -57 -36 l-33 -31 0 32 0 32 -55 0 -55 0
0 -200 0 -200 54 0 54 0 4 131 c3 129 3 131 31 155 15 13 34 24 42 24 8 0 27
-11 42 -24 28 -24 28 -26 31 -156 l4 -131 51 3 52 3 0 145 c0 119 -4 152 -19
182 -27 56 -82 83 -146 71z"/>
<path d="M15724 3060 c-68 -21 -103 -104 -70 -168 12 -22 30 -36 71 -51 31
-12 62 -21 70 -21 8 0 24 -9 35 -20 16 -16 18 -25 10 -40 -15 -28 -56 -25 -84
5 -19 20 -33 25 -71 25 -46 0 -47 0 -40 -27 15 -63 78 -103 160 -103 69 0 108
21 131 68 33 71 -5 138 -94 162 -76 21 -104 38 -100 63 5 35 61 36 84 3 14
-22 24 -26 65 -26 29 0 49 4 49 11 0 24 -43 87 -70 102 -35 21 -105 29 -146
17z"/>
<path d="M17545 3061 c-103 -26 -158 -148 -121 -272 25 -87 82 -129 174 -129
65 0 119 33 149 90 l24 45 -56 3 c-48 3 -60 -1 -87 -23 -21 -18 -37 -24 -52
-19 -27 8 -56 41 -56 65 0 18 9 19 126 19 l127 0 -6 60 c-8 95 -63 153 -153
164 -22 3 -53 1 -69 -3z m95 -111 c11 -11 20 -29 20 -40 0 -18 -7 -20 -70 -20
-78 0 -85 8 -49 54 25 32 70 35 99 6z"/>
<path d="M18556 3059 c-16 -4 -42 -20 -57 -35 l-29 -28 0 32 0 32 -55 0 -55 0
0 -200 0 -200 55 0 55 0 0 109 c0 131 13 156 85 167 l45 6 0 59 c0 32 -3 60
-7 62 -5 2 -21 1 -37 -4z"/>
<path d="M18745 3055 c-110 -39 -156 -195 -91 -311 63 -113 249 -113 312 0 68
120 15 283 -101 315 -51 14 -71 13 -120 -4z m112 -117 c34 -32 33 -119 -2
-153 -13 -14 -33 -25 -45 -25 -66 0 -98 123 -47 178 26 28 64 28 94 0z"/>
<path d="M19349 3059 c-138 -38 -169 -284 -47 -371 47 -33 159 -33 206 0 27
20 72 86 72 107 0 3 -26 5 -59 5 -49 0 -61 -4 -73 -22 -10 -14 -25 -21 -47
-21 -37 0 -57 16 -66 56 l-7 27 126 0 c113 0 126 2 127 18 5 76 -24 146 -73
179 -39 26 -109 35 -159 22z m99 -105 c12 -8 22 -26 22 -40 0 -23 -2 -24 -71
-24 -68 0 -70 1 -64 23 15 51 70 71 113 41z"/>
<path d="M19746 3055 c-21 -7 -51 -26 -67 -41 -79 -76 -67 -261 22 -325 47
-33 163 -35 206 -3 31 24 58 65 68 107 7 27 7 27 -47 27 -49 0 -57 -3 -76 -30
-48 -64 -112 -20 -112 76 0 61 23 94 64 94 24 0 56 -23 56 -41 0 -5 27 -9 60
-9 65 0 67 3 46 53 -19 44 -64 83 -111 96 -50 14 -61 13 -109 -4z"/>
<path d="M11411 3008 c12 -29 46 -116 76 -193 l55 -139 -37 -91 c-21 -49 -40
-96 -42 -102 -4 -10 11 -13 55 -13 56 0 60 2 71 28 22 55 211 555 211 559 0 1
-27 3 -59 3 l-60 0 -38 -115 c-20 -63 -40 -115 -43 -115 -3 0 -23 52 -45 115
l-40 115 -62 0 -63 0 21 -52z"/>
<path d="M12640 2928 c0 -158 9 -196 56 -237 27 -24 44 -31 77 -31 42 0 107
30 107 50 0 5 4 10 9 10 6 0 9 -12 8 -27 -2 -27 -1 -28 53 -28 l55 0 3 198 2
197 -60 0 -60 0 0 -130 c0 -117 -2 -132 -20 -150 -29 -29 -74 -26 -99 6 -19
24 -21 40 -21 150 l0 124 -55 0 -55 0 0 -132z"/>
<path d="M16280 2860 l0 -200 50 0 50 0 0 200 0 200 -50 0 -50 0 0 -200z"/>
<path d="M16722 2913 c4 -161 13 -192 65 -233 41 -32 122 -24 163 15 l30 29 0
-33 0 -32 53 3 52 3 3 198 2 197 -54 0 -54 0 -4 -129 c-3 -146 -14 -171 -73
-171 -59 0 -70 25 -73 171 l-4 129 -55 0 -55 0 4 -147z"/>
<path d="M19060 2836 c0 -123 -3 -231 -6 -240 -3 -9 -17 -16 -30 -16 -22 0
-24 -4 -24 -56 l0 -57 50 5 c60 6 95 34 110 87 5 20 10 141 10 269 l0 232 -55
0 -55 0 0 -224z"/>
<path d="M9683 2340 c5 -19 0 -20 -114 -20 l-119 0 0 -50 c0 -47 2 -50 25 -50
16 0 25 -6 25 -15 0 -11 12 -15 45 -15 25 0 45 -4 45 -10 0 -5 -25 -10 -55
-10 -48 0 -55 -2 -55 -20 0 -18 7 -20 55 -20 42 0 55 -3 55 -15 0 -12 -15 -15
-71 -15 -67 0 -70 -1 -67 -22 2 -19 9 -23 36 -23 17 0 32 -2 32 -5 0 -2 -19
-24 -42 -47 l-42 -43 32 0 32 0 0 -80 c0 -69 2 -80 18 -81 9 0 -3 -10 -28 -22
l-45 -22 83 -3 c72 -2 91 1 139 23 70 32 111 32 173 0 43 -22 62 -25 135 -24
47 1 85 3 85 5 0 2 -19 12 -42 21 -23 9 -36 19 -30 21 8 2 12 30 12 83 l0 79
32 0 32 0 -42 43 c-23 23 -42 45 -42 48 0 3 14 4 30 1 27 -4 30 -1 30 22 0 25
-2 26 -65 26 -51 0 -65 3 -65 15 0 12 13 15 55 15 48 0 55 2 55 20 0 18 -7 20
-55 20 -30 0 -55 5 -55 10 0 6 20 10 45 10 33 0 45 4 45 15 0 9 9 15 25 15 23
0 25 3 25 50 l0 50 -114 0 c-106 0 -115 2 -121 20 -5 17 -15 20 -72 20 -60 0
-65 -2 -60 -20z m-93 -90 c0 -5 -9 -10 -20 -10 -11 0 -20 5 -20 10 0 6 9 10
20 10 11 0 20 -4 20 -10z m200 0 c0 -5 -18 -10 -40 -10 -22 0 -40 5 -40 10 0
6 18 10 40 10 22 0 40 -4 40 -10z m160 0 c0 -5 -9 -10 -20 -10 -11 0 -20 5
-20 10 0 6 9 10 20 10 11 0 20 -4 20 -10z m-160 -70 c0 -5 -15 -10 -34 -10
-19 0 -38 5 -41 10 -4 6 10 10 34 10 23 0 41 -4 41 -10z m-5 -65 c0 -12 -40
-19 -61 -11 -9 3 -12 11 -9 16 8 14 70 9 70 -5z m55 -75 c0 -6 -37 -10 -91
-10 -57 0 -88 4 -84 10 3 6 44 10 91 10 49 0 84 -4 84 -10z m40 -65 c0 -13
-20 -15 -124 -15 -114 0 -147 6 -129 24 3 3 62 6 130 6 103 0 123 -2 123 -15z
m0 -55 c0 -6 -50 -10 -131 -10 -84 0 -128 4 -124 10 4 6 58 10 131 10 76 0
124 -4 124 -10z m0 -60 c0 -6 -50 -10 -130 -10 -80 0 -130 4 -130 10 0 6 50
10 130 10 80 0 130 -4 130 -10z"/>
<path d="M11630 2055 l0 -305 55 0 55 0 0 250 0 250 75 0 75 0 0 55 0 55 -130
0 -130 0 0 -305z"/>
<path d="M12085 2348 c-2 -7 -15 -43 -29 -80 l-25 -68 24 0 c14 0 25 -1 25 -3
0 -2 -11 -37 -25 -77 -30 -87 -29 -80 -10 -80 13 0 15 -22 15 -140 l0 -140 54
0 54 0 0 148 c0 81 -4 150 -9 153 -14 8 21 109 38 109 10 0 13 -24 13 -105 l0
-105 40 0 c29 0 40 -4 40 -15 0 -11 -12 -15 -50 -15 -48 0 -50 -1 -50 -28 0
-26 2 -28 35 -24 19 2 35 1 35 -3 0 -3 -13 -25 -28 -48 -48 -71 -49 -67 13
-67 52 0 57 2 73 30 21 37 27 37 42 0 12 -28 16 -30 67 -30 l54 0 -23 43 c-19
34 -29 43 -56 45 -52 5 -32 27 26 30 47 3 52 5 52 27 0 21 -5 24 -47 27 -58 4
-59 22 -3 26 l41 3 -3 125 c-3 113 -5 124 -22 124 -14 0 -16 4 -10 18 4 9 9
34 12 55 l4 37 -51 0 c-44 0 -51 3 -51 20 0 17 -7 20 -49 20 l-49 0 -33 -80
c-24 -56 -39 -80 -51 -80 -22 0 -23 -7 7 80 14 40 25 75 25 77 0 2 -25 3 -55
3 -36 0 -57 -5 -60 -12z m265 -83 c0 -16 -26 -55 -37 -55 -16 0 -17 14 -3 41
9 16 40 28 40 14z m-60 -130 c0 -18 -5 -25 -20 -25 -15 0 -20 7 -20 25 0 18 5
25 20 25 15 0 20 -7 20 -25z m130 0 c0 -25 -23 -35 -35 -15 -10 16 2 40 20 40
9 0 15 -9 15 -25z m-130 -100 c0 -18 -5 -25 -20 -25 -15 0 -20 7 -20 25 0 18
5 25 20 25 15 0 20 -7 20 -25z m130 0 c0 -25 -23 -35 -35 -15 -10 16 2 40 20
40 9 0 15 -9 15 -25z"/>
<path d="M13640 2105 l0 -255 -75 0 -75 0 0 -52 0 -53 125 0 125 0 0 308 0
307 -50 0 -50 0 0 -255z"/>
<path d="M13970 2299 c0 -52 -3 -62 -20 -66 -14 -4 -20 -14 -20 -34 0 -22 5
-29 20 -29 19 0 20 -7 20 -168 0 -164 -1 -169 -22 -179 -26 -11 -33 -63 -8
-63 8 0 54 10 103 21 84 21 87 22 87 50 0 22 -5 29 -20 29 -19 0 -20 7 -20
155 0 148 1 155 20 155 16 0 20 7 20 30 0 23 -4 30 -20 30 -18 0 -20 7 -20 65
l0 65 -60 0 -60 0 0 -61z"/>
<path d="M14255 2330 l7 -30 -61 0 -61 0 0 -30 0 -30 185 0 185 0 0 30 c0 30
-1 30 -54 30 -52 0 -55 1 -61 30 -7 30 -7 30 -77 30 l-70 0 7 -30z"/>
<path d="M14676 2335 c5 -22 3 -25 -20 -25 -23 0 -26 -4 -26 -35 l0 -36 118 3
117 3 0 30 c0 25 -4 31 -27 33 -18 2 -28 11 -32 28 -6 22 -11 24 -71 24 -65 0
-65 0 -59 -25z"/>
<path d="M14880 2106 c0 -139 -3 -268 -6 -285 -13 -62 -19 -29 -16 79 l4 110
-111 0 -111 0 0 -125 0 -125 167 2 167 3 7 25 c4 14 7 148 8 298 l1 272 -55 0
-55 0 0 -254z m-122 -225 c-2 -28 -7 -52 -13 -54 -11 -2 -19 87 -10 111 11 31
26 -5 23 -57z"/>
<path d="M15120 2060 l0 -300 55 0 55 0 0 300 0 300 -55 0 -55 0 0 -300z"/>
<path d="M15386 2332 c6 -27 4 -29 -25 -24 -30 4 -31 3 -31 -32 l0 -36 130 0
130 0 0 36 c0 31 -3 35 -22 33 -30 -4 -48 8 -48 32 0 17 -7 19 -70 19 l-69 0
5 -28z"/>
<path d="M15700 2240 l0 -120 -56 0 -55 0 3 -32 c3 -32 4 -33 56 -36 l52 -3 0
-145 0 -144 60 0 60 0 0 145 0 144 58 3 c56 3 57 3 57 33 0 30 -1 30 -57 33
l-58 3 0 119 0 120 -60 0 -60 0 0 -120z"/>
<path d="M16160 2350 c0 -5 -25 -10 -55 -10 -48 0 -55 -2 -55 -20 0 -18 7 -20
55 -20 30 0 55 -4 55 -10 0 -6 -28 -10 -65 -10 -63 0 -65 -1 -65 -25 0 -24 2
-25 65 -25 51 0 65 -3 65 -15 0 -11 -12 -15 -50 -15 -43 0 -50 -3 -50 -20 0
-17 7 -20 50 -20 28 0 50 -4 50 -10 0 -5 -25 -10 -55 -10 -48 0 -55 -2 -55
-20 0 -18 7 -20 55 -20 42 0 55 -3 55 -15 0 -12 -14 -15 -65 -15 -58 0 -65 -2
-65 -20 0 -18 9 -19 190 -22 l190 -3 0 23 c0 21 -4 22 -65 22 -51 0 -65 3 -65
15 0 12 14 15 65 15 58 0 65 2 65 20 0 18 -7 20 -65 20 -37 0 -65 4 -65 10 0
6 25 10 55 10 54 0 55 0 55 29 0 17 5 33 10 36 6 3 10 17 10 31 0 13 -4 24
-10 24 -5 0 -10 14 -10 30 0 30 -1 30 -55 30 -30 0 -55 5 -55 10 0 6 -27 10
-60 10 -33 0 -60 -4 -60 -10z m150 -60 c0 -5 -7 -10 -15 -10 -8 0 -15 5 -15
10 0 6 7 10 15 10 8 0 15 -4 15 -10z m0 -75 c0 -8 -7 -15 -15 -15 -8 0 -15 7
-15 15 0 8 7 15 15 15 8 0 15 -7 15 -15z"/>
<path d="M16520 2090 l0 -270 -40 0 c-45 0 -46 0 -25 -40 15 -29 17 -30 95
-30 l80 0 0 305 0 305 -55 0 -55 0 0 -270z"/>
<path d="M10180 2165 l0 -185 223 -2 222 -3 3 -77 c2 -62 0 -78 -11 -78 -12 0
-14 13 -9 65 l5 65 -40 0 -40 0 -7 -86 c-3 -48 -4 -89 -2 -92 3 -2 55 -7 116
-10 l110 -5 0 142 0 141 -95 0 c-88 0 -95 1 -95 20 0 18 7 20 80 20 l80 0 0
30 0 30 -80 0 c-79 0 -80 0 -80 25 0 25 1 25 80 25 l80 0 0 30 0 30 -80 0
c-73 0 -80 2 -80 20 0 19 7 20 90 20 l90 0 0 30 0 30 -280 0 -280 0 0 -185z
m260 105 c0 -18 -7 -20 -65 -20 -58 0 -65 2 -65 20 0 18 7 20 65 20 58 0 65
-2 65 -20z m-5 -105 c0 -18 -7 -20 -60 -20 -55 0 -60 2 -63 23 -3 22 -1 23 60
20 55 -3 63 -5 63 -23z m5 -105 c0 -18 -7 -20 -65 -20 -58 0 -65 2 -65 20 0
18 7 20 65 20 58 0 65 -2 65 -20z"/>
<path d="M10928 2318 c-49 -69 -98 -143 -98 -149 0 -3 9 -5 21 -5 20 1 21 -4
23 -84 l1 -85 280 0 280 0 3 83 c3 74 5 82 22 82 11 0 20 3 20 7 0 4 -26 46
-57 95 l-58 88 -207 0 -207 0 -23 -32z m337 -38 c4 -6 -35 -10 -110 -10 -75 0
-114 4 -110 10 3 6 52 10 110 10 58 0 107 -4 110 -10z m53 -77 c3 -10 -34 -13
-162 -13 -152 0 -179 4 -159 24 4 3 76 5 162 4 113 -2 155 -6 159 -15z m-230
-111 l3 -43 -48 3 c-44 3 -48 5 -51 31 -6 49 3 58 50 55 43 -3 43 -3 46 -46z
m227 3 l0 -40 -47 -3 -48 -3 0 44 0 44 48 -1 47 -1 0 -40z"/>
<path d="M11014 2104 c3 -9 6 -20 6 -25 0 -5 14 -9 31 -9 24 0 30 3 25 16 -3
9 -6 20 -6 25 0 5 -14 9 -31 9 -24 0 -30 -3 -25 -16z"/>
<path d="M11240 2111 c0 -5 -3 -16 -6 -25 -5 -12 1 -16 24 -16 27 0 42 14 42
41 0 5 -13 9 -30 9 -16 0 -30 -4 -30 -9z"/>
<path d="M12558 2343 c-65 -4 -68 -5 -68 -28 0 -24 2 -25 70 -25 l70 0 0 30
c0 17 -1 29 -2 28 -2 -1 -33 -3 -70 -5z"/>
<path d="M12788 2288 c-3 -59 -5 -63 -25 -61 -19 2 -23 -2 -23 -27 0 -25 4
-30 25 -30 l25 0 0 -169 0 -169 -25 -6 c-20 -5 -25 -13 -25 -37 0 -24 3 -29
18 -25 72 23 187 56 194 56 5 0 2 -13 -7 -30 l-16 -30 64 0 63 0 27 55 c24 49
27 67 27 156 l0 100 48 -3 47 -3 3 -122 3 -123 -50 0 -50 0 10 -30 11 -30 94
0 94 0 0 180 0 179 -102 3 -103 3 -3 48 -3 47 115 0 116 0 0 30 0 30 -64 0
-64 0 -12 35 -12 35 -64 0 -64 0 10 -26 c16 -41 13 -44 -50 -44 l-60 0 0 -30
c0 -23 4 -30 20 -30 19 0 20 -7 20 -160 0 -99 -4 -169 -12 -185 -13 -28 -28
-33 -28 -9 0 12 -6 15 -25 10 l-25 -6 0 150 c0 127 2 150 15 150 10 0 15 10
15 30 0 19 -5 29 -12 28 -9 -2 -14 16 -16 60 l-3 62 -59 0 -59 0 -3 -62z"/>
<path d="M15012 2058 l3 -283 43 -3 42 -3 0 285 0 286 -45 0 -45 0 2 -282z"/>
<path d="M16430 2096 l0 -216 35 0 35 0 -2 213 -3 212 -32 3 -33 3 0 -215z"/>
<path d="M14174 2166 c16 -51 13 -56 -26 -56 -24 0 -28 -4 -28 -30 l0 -30 205
0 205 0 0 30 c0 27 -3 30 -31 30 -34 0 -33 -5 -14 73 l7 27 -60 0 -61 0 -10
-37 c-6 -21 -11 -44 -11 -51 0 -8 -9 -12 -22 -10 -19 2 -25 12 -32 51 l-8 47
-64 0 -63 0 13 -44z"/>
<path d="M14640 2175 l0 -36 108 3 107 3 3 33 3 32 -110 0 -111 0 0 -35z"/>
<path d="M15340 2180 l0 -30 121 0 120 0 -3 28 -3 27 -117 3 -118 3 0 -31z"/>
<path d="M12490 2140 c0 -16 5 -30 10 -30 6 0 10 -55 10 -145 0 -122 -2 -145
-15 -145 -18 0 -18 -2 -3 -35 10 -22 17 -25 64 -25 l54 0 2 178 c2 135 6 176
16 175 7 -2 12 8 12 27 l0 30 -75 0 -75 0 0 -30z"/>
<path d="M14640 2080 l0 -30 110 0 110 0 0 30 0 30 -110 0 -110 0 0 -30z"/>
<path d="M15340 2080 l0 -30 120 0 120 0 0 30 0 30 -120 0 -120 0 0 -30z"/>
<path d="M14150 1885 l0 -125 180 0 180 0 0 125 0 125 -180 0 -180 0 0 -125z
m238 -4 l3 -61 -61 0 -60 0 0 58 c0 32 2 61 4 63 2 2 28 3 58 3 l53 -2 3 -61z"/>
<path d="M15340 1885 l0 -125 120 0 120 0 0 125 0 125 -120 0 -120 0 0 -125z
m138 3 c-2 -38 -8 -63 -15 -66 -10 -3 -13 14 -13 62 0 53 3 66 15 66 13 0 15
-11 13 -62z"/>
<path d="M16040 1920 l0 -80 180 0 180 0 0 80 0 80 -180 0 -180 0 0 -80z m145
31 c7 -12 -12 -24 -25 -16 -11 7 -4 25 10 25 5 0 11 -4 15 -9z m100 0 c7 -12
-12 -24 -25 -16 -11 7 -4 25 10 25 5 0 11 -4 15 -9z m-95 -61 c0 -5 -6 -10
-14 -10 -8 0 -18 5 -21 10 -3 6 3 10 14 10 12 0 21 -4 21 -10z m100 0 c0 -5
-6 -10 -14 -10 -8 0 -18 5 -21 10 -3 6 3 10 14 10 12 0 21 -4 21 -10z"/>
<path d="M10890 1865 l0 -105 265 0 265 0 0 105 0 105 -265 0 -265 0 0 -105z
m400 40 c0 -13 -22 -15 -140 -15 -128 0 -152 4 -133 23 3 4 66 7 140 7 112 0
133 -2 133 -15z m3 -80 c2 -11 -245 -20 -271 -10 -7 2 -10 10 -7 15 9 14 274
9 278 -5z"/>
<path d="M10165 1888 c-3 -35 -8 -75 -11 -90 -6 -28 -5 -28 50 -28 30 0 57 3
59 8 3 4 8 44 11 90 l7 82 -54 0 -55 0 -7 -62z"/>
<path d="M10300 1928 c0 -13 -3 -53 -7 -90 l-6 -68 46 0 46 0 5 45 c3 25 9 65
12 90 l5 45 -50 0 c-46 0 -51 -2 -51 -22z"/>
<path d="M10420 1928 c0 -13 -3 -53 -7 -90 l-6 -68 41 0 c22 0 43 3 45 8 3 4
8 44 12 90 l7 82 -46 0 c-41 0 -46 -2 -46 -22z"/>
<path d="M16083 1812 c-49 -3 -53 -5 -53 -28 l0 -24 193 2 192 3 3 28 3 27
-143 -2 c-79 -1 -167 -4 -195 -6z"/>
</g>
</svg>
