<svg width="18" height="20" viewBox="0 0 18 20" fill="none" xmlns="http://www.w3.org/2000/svg">
<path d="M12.5 17.5V19.0625C12.5 19.5803 12.0803 20 11.5625 20H0.9375C0.419727 20 0 19.5803 0 19.0625V4.6875C0 4.16973 0.419727 3.75 0.9375 3.75H3.75V15.3125C3.75 16.5187 4.73129 17.5 5.9375 17.5H12.5ZM12.5 4.0625V0H5.9375C5.41973 0 5 0.419727 5 0.9375V15.3125C5 15.8303 5.41973 16.25 5.9375 16.25H16.5625C17.0803 16.25 17.5 15.8303 17.5 15.3125V5H13.4375C12.9219 5 12.5 4.57812 12.5 4.0625ZM17.2254 2.85043L14.6496 0.27457C14.4738 0.0987666 14.2353 1.29998e-06 13.9867 0L13.75 0V3.75H17.5V3.51332C17.5 3.26469 17.4012 3.02624 17.2254 2.85043Z" fill="#39C3E6"/>
</svg>
