<svg width="18" height="18" viewBox="0 0 18 18" fill="none" xmlns="http://www.w3.org/2000/svg">
<path d="M9.00055 0.946792C8.9018 0.946792 8.8572 0.954318 8.86765 0.954318C8.72523 0.955579 8.58706 1.00303 8.47392 1.08955C8.36078 1.17607 8.27879 1.29698 8.24026 1.4341C8.12876 1.84162 7.98297 2.24289 7.81952 2.51919C7.65604 2.79545 7.50059 2.91197 7.4209 2.93257C7.34205 2.953 7.15097 2.92528 6.87468 2.76277C6.59836 2.60016 6.27728 2.32696 5.98152 2.02462C5.88246 1.9215 5.7525 1.85347 5.61131 1.83083C5.47013 1.80818 5.32541 1.83217 5.19908 1.89915C4.46014 2.2954 3.78621 2.80471 3.20608 3.40495C3.10771 3.5075 3.0452 3.63914 3.0279 3.78019C3.0106 3.92123 3.03944 4.06409 3.11011 4.18737C3.31979 4.55409 3.49463 4.94097 3.57515 5.25031C3.65569 5.55967 3.62335 5.74939 3.58243 5.8187C3.54097 5.88912 3.39725 6.00303 3.08789 6.08442C2.77852 6.16583 2.35031 6.19925 1.92898 6.19514C1.78624 6.19434 1.64712 6.24 1.53261 6.32522C1.4181 6.41045 1.33442 6.5306 1.29421 6.66755C1.07063 7.40567 0.947266 8.18635 0.947266 9.00009C0.947266 9.09825 0.954782 9.14652 0.954547 9.14034C0.955804 9.28277 1.00326 9.42095 1.08979 9.53409C1.17632 9.64724 1.29724 9.72923 1.43436 9.76776C1.84163 9.87895 2.2444 10.0271 2.51943 10.1885C2.7945 10.3499 2.90524 10.502 2.92542 10.5798C2.94562 10.6575 2.91837 10.8421 2.75565 11.1186C2.59287 11.3951 2.31978 11.723 2.01748 12.0191C1.91602 12.1177 1.84901 12.2463 1.82641 12.3859C1.80381 12.5255 1.82681 12.6687 1.89201 12.7942C2.28863 13.5356 2.7975 14.2065 3.39784 14.7872C3.49952 14.8867 3.63075 14.9506 3.77183 14.9693C3.91291 14.9879 4.05623 14.9603 4.18028 14.8905C4.54777 14.6808 4.9384 14.4988 5.25061 14.4181C5.56277 14.3374 5.75006 14.3701 5.81895 14.4106C5.8889 14.4518 6.01165 14.6022 6.09207 14.9125C6.1725 15.2229 6.2008 15.649 6.19542 16.0715C6.19415 16.2133 6.23874 16.3517 6.32254 16.4661C6.40634 16.5804 6.52486 16.6647 6.66044 16.7062C7.39854 16.9298 8.18661 17.0532 9.00038 17.0532C9.1026 17.0532 9.13617 17.0454 9.11111 17.0459C9.25354 17.0446 9.39172 16.9972 9.50486 16.9106C9.618 16.8241 9.7 16.7032 9.73852 16.5661C9.85106 16.159 10.0019 15.7578 10.1666 15.481C10.3314 15.2043 10.4855 15.0957 10.5653 15.075C10.6441 15.0546 10.8354 15.075 11.1115 15.2374C11.3875 15.4009 11.7083 15.6789 12.0046 15.983C12.1037 16.0861 12.2337 16.1541 12.3748 16.1768C12.516 16.1994 12.6608 16.1754 12.7871 16.1084C13.5319 15.7107 14.2058 15.1968 14.7875 14.5952C14.8858 14.4927 14.9483 14.361 14.9656 14.22C14.9829 14.0789 14.9541 13.936 14.8834 13.8128C14.6722 13.4455 14.4925 13.0542 14.411 12.7425C14.3295 12.4307 14.3626 12.2439 14.4037 12.1741C14.4459 12.1022 14.5931 11.9822 14.9056 11.901C15.2182 11.8197 15.6475 11.785 16.0719 11.7903C16.2149 11.7932 16.3551 11.7493 16.4709 11.6654C16.5868 11.5815 16.6722 11.462 16.7141 11.3252C16.9353 10.5899 17.0536 9.80757 17.0536 9.00005C17.0536 8.90048 17.0461 8.8595 17.0461 8.87458C17.0449 8.73215 16.9974 8.59398 16.9109 8.48084C16.8244 8.3677 16.7035 8.28569 16.5663 8.24716C16.16 8.13543 15.7563 7.98987 15.4813 7.8264C15.2062 7.66294 15.0962 7.50834 15.0753 7.4278C15.0546 7.34796 15.0753 7.15747 15.2377 6.88158C15.3991 6.60569 15.6742 6.2841 15.9758 5.98843C16.0789 5.88937 16.147 5.75941 16.1696 5.61823C16.1922 5.47705 16.1683 5.33234 16.1013 5.20601C15.7047 4.46533 15.1959 3.79354 14.5955 3.21298C14.4929 3.11461 14.3613 3.05211 14.2202 3.03481C14.0792 3.01751 13.9364 3.04637 13.8131 3.11704C13.4454 3.32712 13.053 3.50142 12.7427 3.58208C12.4325 3.66269 12.2451 3.6311 12.1743 3.58936C12.1013 3.54633 11.9898 3.39838 11.9086 3.08742C11.8274 2.77644 11.7928 2.35241 11.7979 1.92854C11.8003 1.78454 11.7554 1.64372 11.6701 1.5277C11.5848 1.41169 11.4637 1.32688 11.3255 1.28631C10.5873 1.06355 9.80908 0.946777 9.00034 0.946777L9.00055 0.946792ZM9.31055 2.28286C9.71847 2.30165 10.114 2.35738 10.499 2.44523C10.5164 2.77322 10.5484 3.09992 10.6319 3.41959C10.7609 3.91367 11.0024 4.42709 11.5103 4.72612C12.0184 5.02539 12.5821 4.98712 13.0751 4.85899C13.3895 4.77727 13.6709 4.61649 13.9609 4.47514C14.2417 4.78347 14.4933 5.11426 14.7138 5.47165C14.4995 5.71161 14.2646 5.93776 14.1011 6.21717C13.8443 6.65614 13.6579 7.18345 13.8059 7.75252C13.8059 7.75495 13.8059 7.75738 13.8059 7.75981C13.9536 8.32775 14.3725 8.69578 14.8098 8.95561C15.0927 9.12369 15.4086 9.21015 15.7177 9.3173C15.6987 9.71853 15.6416 10.1112 15.5553 10.491C15.2267 10.5081 14.8941 10.5479 14.5736 10.6312C14.0783 10.76 13.5665 10.9999 13.267 11.5096C12.9677 12.0191 13.0123 12.5802 13.1415 13.0745C13.2236 13.3883 13.3838 13.6706 13.5254 13.9602C13.2159 14.2429 12.8797 14.4918 12.5215 14.7132C12.2835 14.4993 12.0605 14.272 11.7834 14.1079C11.3449 13.8481 10.8122 13.6497 10.2406 13.7979C9.67104 13.9455 9.29831 14.3708 9.03745 14.8091C8.86974 15.0909 8.78324 15.4092 8.67578 15.7171C8.25877 15.6966 7.85228 15.6334 7.45782 15.5399C7.44044 15.2177 7.44326 14.8946 7.36185 14.5803C7.23407 14.0872 6.99839 13.5726 6.49086 13.2738C5.98215 12.9743 5.41275 13.0205 4.91858 13.1483C4.60288 13.2299 4.32428 13.3905 4.03282 13.5321C3.75091 13.2232 3.501 12.8863 3.2799 12.5283C3.49449 12.2885 3.7282 12.0619 3.89257 11.7827C4.15078 11.3441 4.34321 10.8179 4.19519 10.2474C4.04752 9.67811 3.62173 9.30842 3.18395 9.05156C2.90296 8.88672 2.58935 8.80236 2.28339 8.69727C2.30312 8.27226 2.36513 7.85883 2.46054 7.45716C2.78207 7.4386 3.10696 7.44355 3.42015 7.36122C3.91176 7.23187 4.42143 6.98866 4.71931 6.48282C5.0181 5.97533 4.98024 5.41733 4.85213 4.92532C4.77049 4.61161 4.60943 4.32894 4.46831 4.03954C4.77659 3.75897 5.10731 3.5074 5.46482 3.28664C5.70452 3.50137 5.93113 3.73496 6.21034 3.8993C6.64898 4.15744 7.17542 4.34932 7.74567 4.20195C8.31587 4.05459 8.68926 3.62943 8.94887 3.19067C9.11686 2.90682 9.20372 2.59266 9.31055 2.28276V2.28286ZM9.00055 5.54546C7.10028 5.54546 5.54602 7.09976 5.54602 8.99998C5.54602 10.9002 7.10028 12.4545 9.00055 12.4545C10.9008 12.4545 12.4551 10.9002 12.4551 8.99998C12.4551 7.09976 10.9008 5.54546 9.00055 5.54546ZM9.00055 6.85939C10.1899 6.85939 11.1411 7.81063 11.1411 8.99998C11.1411 10.1893 10.1899 11.1406 9.00055 11.1406C7.81115 11.1406 6.8599 10.1893 6.8599 8.99998C6.8599 7.81063 7.81115 6.85939 9.00055 6.85939Z" fill="#436779"/>
</svg>
