<svg width="44" height="44" viewBox="0 0 44 44" fill="none" xmlns="http://www.w3.org/2000/svg">
  <g filter="url(#filter0_d_3663_2560)">
    <circle cx="22" cy="18" r="13" fill="url(#paint0_linear_3663_2560)" />
    <circle cx="22" cy="18" r="12.5" stroke="#083347" />
  </g>
  <path
    d="M22.0005 9.94679C21.9018 9.94679 21.8572 9.95432 21.8677 9.95432C21.7252 9.95558 21.5871 10.003 21.4739 10.0896C21.3608 10.1761 21.2788 10.297 21.2403 10.4341C21.1288 10.8416 20.983 11.2429 20.8195 11.5192C20.656 11.7955 20.5006 11.912 20.4209 11.9326C20.342 11.953 20.151 11.9253 19.8747 11.7628C19.5984 11.6002 19.2773 11.327 18.9815 11.0246C18.8825 10.9215 18.7525 10.8535 18.6113 10.8308C18.4701 10.8082 18.3254 10.8322 18.1991 10.8992C17.4601 11.2954 16.7862 11.8047 16.2061 12.405C16.1077 12.5075 16.0452 12.6391 16.0279 12.7802C16.0106 12.9212 16.0394 13.0641 16.1101 13.1874C16.3198 13.5541 16.4946 13.941 16.5751 14.2503C16.6557 14.5597 16.6233 14.7494 16.5824 14.8187C16.541 14.8891 16.3972 15.003 16.0879 15.0844C15.7785 15.1658 15.3503 15.1992 14.929 15.1951C14.7862 15.1943 14.6471 15.24 14.5326 15.3252C14.4181 15.4104 14.3344 15.5306 14.2942 15.6676C14.0706 16.4057 13.9473 17.1863 13.9473 18.0001C13.9473 18.0982 13.9548 18.1465 13.9545 18.1403C13.9558 18.2828 14.0033 18.4209 14.0898 18.5341C14.1763 18.6472 14.2972 18.7292 14.4344 18.7678C14.8416 18.879 15.2444 19.0271 15.5194 19.1885C15.7945 19.3499 15.9052 19.502 15.9254 19.5798C15.9456 19.6575 15.9184 19.8421 15.7556 20.1186C15.5929 20.3951 15.3198 20.723 15.0175 21.0191C14.916 21.1177 14.849 21.2463 14.8264 21.3859C14.8038 21.5255 14.8268 21.6687 14.892 21.7942C15.2886 22.5356 15.7975 23.2065 16.3978 23.7872C16.4995 23.8867 16.6308 23.9506 16.7718 23.9693C16.9129 23.9879 17.0562 23.9603 17.1803 23.8905C17.5478 23.6808 17.9384 23.4988 18.2506 23.4181C18.5628 23.3374 18.7501 23.3701 18.819 23.4106C18.8889 23.4518 19.0117 23.6022 19.0921 23.9125C19.1725 24.2229 19.2008 24.649 19.1954 25.0715C19.1942 25.2133 19.2387 25.3517 19.3225 25.4661C19.4063 25.5804 19.5249 25.6647 19.6604 25.7062C20.3985 25.9298 21.1866 26.0532 22.0004 26.0532C22.1026 26.0532 22.1362 26.0454 22.1111 26.0459C22.2535 26.0446 22.3917 25.9972 22.5049 25.9106C22.618 25.8241 22.7 25.7032 22.7385 25.5661C22.8511 25.159 23.0019 24.7578 23.1666 24.481C23.3314 24.2043 23.4855 24.0957 23.5653 24.075C23.6441 24.0546 23.8354 24.075 24.1115 24.2374C24.3875 24.4009 24.7083 24.6789 25.0046 24.983C25.1037 25.0861 25.2337 25.1541 25.3748 25.1768C25.516 25.1994 25.6608 25.1754 25.7871 25.1084C26.5319 24.7107 27.2058 24.1968 27.7875 23.5952C27.8858 23.4927 27.9483 23.361 27.9656 23.22C27.9829 23.0789 27.9541 22.936 27.8834 22.8128C27.6722 22.4455 27.4925 22.0542 27.411 21.7425C27.3295 21.4307 27.3626 21.2439 27.4037 21.1741C27.4459 21.1022 27.5931 20.9822 27.9056 20.901C28.2182 20.8197 28.6475 20.785 29.0719 20.7903C29.2149 20.7932 29.3551 20.7493 29.4709 20.6654C29.5868 20.5815 29.6722 20.462 29.7141 20.3252C29.9353 19.5899 30.0536 18.8076 30.0536 18C30.0536 17.9005 30.0461 17.8595 30.0461 17.8746C30.0449 17.7322 29.9974 17.594 29.9109 17.4808C29.8244 17.3677 29.7035 17.2857 29.5663 17.2472C29.16 17.1354 28.7563 16.9899 28.4813 16.8264C28.2062 16.6629 28.0962 16.5083 28.0753 16.4278C28.0546 16.348 28.0753 16.1575 28.2377 15.8816C28.3991 15.6057 28.6742 15.2841 28.9758 14.9884C29.0789 14.8894 29.147 14.7594 29.1696 14.6182C29.1922 14.477 29.1683 14.3323 29.1013 14.206C28.7047 13.4653 28.1959 12.7935 27.5955 12.213C27.4929 12.1146 27.3613 12.0521 27.2202 12.0348C27.0792 12.0175 26.9364 12.0464 26.8131 12.117C26.4454 12.3271 26.053 12.5014 25.7427 12.5821C25.4325 12.6627 25.2451 12.6311 25.1743 12.5894C25.1013 12.5463 24.9898 12.3984 24.9086 12.0874C24.8274 11.7764 24.7928 11.3524 24.7979 10.9285C24.8003 10.7845 24.7554 10.6437 24.6701 10.5277C24.5848 10.4117 24.4637 10.3269 24.3255 10.2863C23.5873 10.0636 22.8091 9.94678 22.0003 9.94678L22.0005 9.94679ZM22.3105 11.2829C22.7185 11.3016 23.114 11.3574 23.499 11.4452C23.5164 11.7732 23.5484 12.0999 23.6319 12.4196C23.7609 12.9137 24.0024 13.4271 24.5103 13.7261C25.0184 14.0254 25.5821 13.9871 26.0751 13.859C26.3895 13.7773 26.6709 13.6165 26.9609 13.4751C27.2417 13.7835 27.4933 14.1143 27.7138 14.4717C27.4995 14.7116 27.2646 14.9378 27.1011 15.2172C26.8443 15.6561 26.6579 16.1835 26.8059 16.7525C26.8059 16.7549 26.8059 16.7574 26.8059 16.7598C26.9536 17.3278 27.3725 17.6958 27.8098 17.9556C28.0927 18.1237 28.4086 18.2102 28.7177 18.3173C28.6987 18.7185 28.6416 19.1112 28.5553 19.491C28.2267 19.5081 27.8941 19.5479 27.5736 19.6312C27.0783 19.76 26.5665 19.9999 26.267 20.5096C25.9677 21.0191 26.0123 21.5802 26.1415 22.0745C26.2236 22.3883 26.3838 22.6706 26.5254 22.9602C26.2159 23.2429 25.8797 23.4918 25.5215 23.7132C25.2835 23.4993 25.0605 23.272 24.7834 23.1079C24.3449 22.8481 23.8122 22.6497 23.2406 22.7979C22.671 22.9455 22.2983 23.3708 22.0374 23.8091C21.8697 24.0909 21.7832 24.4092 21.6758 24.7171C21.2588 24.6966 20.8523 24.6334 20.4578 24.5399C20.4404 24.2177 20.4433 23.8946 20.3618 23.5803C20.2341 23.0872 19.9984 22.5726 19.4909 22.2738C18.9822 21.9743 18.4127 22.0205 17.9186 22.1483C17.6029 22.2299 17.3243 22.3905 17.0328 22.5321C16.7509 22.2232 16.501 21.8863 16.2799 21.5283C16.4945 21.2885 16.7282 21.0619 16.8926 20.7827C17.1508 20.3441 17.3432 19.8179 17.1952 19.2474C17.0475 18.6781 16.6217 18.3084 16.184 18.0516C15.903 17.8867 15.5893 17.8024 15.2834 17.6973C15.3031 17.2723 15.3651 16.8588 15.4605 16.4572C15.7821 16.4386 16.107 16.4435 16.4202 16.3612C16.9118 16.2319 17.4214 15.9887 17.7193 15.4828C18.0181 14.9753 17.9802 14.4173 17.8521 13.9253C17.7705 13.6116 17.6094 13.3289 17.4683 13.0395C17.7766 12.759 18.1073 12.5074 18.4648 12.2866C18.7045 12.5014 18.9311 12.735 19.2103 12.8993C19.649 13.1574 20.1754 13.3493 20.7457 13.202C21.3159 13.0546 21.6893 12.6294 21.9489 12.1907C22.1169 11.9068 22.2037 11.5927 22.3105 11.2828V11.2829ZM22.0005 14.5455C20.1003 14.5455 18.546 16.0998 18.546 18C18.546 19.9002 20.1003 21.4545 22.0005 21.4545C23.9008 21.4545 25.4551 19.9002 25.4551 18C25.4551 16.0998 23.9008 14.5455 22.0005 14.5455ZM22.0005 15.8594C23.1899 15.8594 24.1411 16.8106 24.1411 18C24.1411 19.1893 23.1899 20.1406 22.0005 20.1406C20.8112 20.1406 19.8599 19.1893 19.8599 18C19.8599 16.8106 20.8112 15.8594 22.0005 15.8594Z"
    fill="#436779" />
  <defs>
    <filter id="filter0_d_3663_2560" x="0" y="0" width="44" height="44" filterUnits="userSpaceOnUse"
      color-interpolation-filters="sRGB">
      <feFlood flood-opacity="0" result="BackgroundImageFix" />
      <feColorMatrix in="SourceAlpha" type="matrix" values="0 0 0 0 0 0 0 0 0 0 0 0 0 0 0 0 0 0 127 0"
        result="hardAlpha" />
      <feOffset dy="4" />
      <feGaussianBlur stdDeviation="4.5" />
      <feColorMatrix type="matrix" values="0 0 0 0 0 0 0 0 0 0 0 0 0 0 0 0 0 0 0.18 0" />
      <feBlend mode="normal" in2="BackgroundImageFix" result="effect1_dropShadow_3663_2560" />
      <feBlend mode="normal" in="SourceGraphic" in2="effect1_dropShadow_3663_2560" result="shape" />
    </filter>
    <linearGradient id="paint0_linear_3663_2560" x1="22" y1="5" x2="22" y2="31" gradientUnits="userSpaceOnUse">
      <stop stop-color="#01283B" />
      <stop offset="1" stop-color="#012D41" />
    </linearGradient>
  </defs>
</svg>