<svg width="32" height="32" viewBox="0 0 32 32" fill="none" xmlns="http://www.w3.org/2000/svg">
  <path
    d="M14.0149 3C13.5346 3 13.1219 3.34088 13.0313 3.8125V3.8125L12.4375 6.78125C11.4844 7.15625 10.625 7.68359 9.84375 8.3125L6.9375 7.3125V7.3125C6.48247 7.16689 5.98509 7.36533 5.75 7.78125V7.78125L3.75 11.2188L3.73578 11.2439C3.50689 11.6489 3.59083 12.1586 3.9375 12.4688V12.4688L6.1875 14.4375C6.10547 14.9492 6 15.4609 6 16C6 16.5391 6.10547 17.0508 6.1875 17.5625L3.9375 19.5313V19.5313C3.59083 19.8414 3.50689 20.3511 3.73578 20.7561L3.75 20.7813L5.75 24.2188V24.2188C5.98509 24.6347 6.48247 24.8331 6.9375 24.6875V24.6875L9.84375 23.6875C10.625 24.3164 11.4844 24.8438 12.4375 25.2188L13.0313 28.1875V28.1875C13.1219 28.6591 13.5346 29 14.0149 29H17.9851C18.4654 29 18.8781 28.6591 18.9688 28.1875V28.1875L19.5625 25.2188C20.5156 24.8438 21.375 24.3164 22.1563 23.6875L25.0625 24.6875V24.6875C25.5175 24.8331 26.0149 24.6347 26.25 24.2188V24.2188L28.25 20.7813L28.2642 20.7561C28.4931 20.3511 28.4092 19.8414 28.0625 19.5313V19.5313L25.8125 17.5625C25.8945 17.0508 26 16.5391 26 16C26 15.4609 25.8945 14.9492 25.8125 14.4375L28.0625 12.4688V12.4688C28.4092 12.1586 28.4931 11.6489 28.2642 11.2439L28.25 11.2188L26.25 7.78125V7.78125C26.0149 7.36533 25.5175 7.16689 25.0625 7.3125V7.3125L22.1563 8.3125C21.375 7.68359 20.5156 7.15625 19.5625 6.78125L18.9688 3.8125V3.8125C18.8781 3.34088 18.4654 3 17.9851 3H14.0149ZM14.8125 5H17.1875L17.6875 7.59375L17.8125 8.1875L18.375 8.375C19.5117 8.73047 20.543 9.33203 21.4063 10.125L21.8438 10.5313L22.4063 10.3438L24.9375 9.46875L26.125 11.5L24.125 13.2813L23.6563 13.6563L23.8125 14.25C23.9414 14.8203 24 15.4023 24 16C24 16.5977 23.9414 17.1797 23.8125 17.75L23.6875 18.3438L24.125 18.7188L26.125 20.5L24.9375 22.5313L22.4063 21.6563L21.8438 21.4688L21.4063 21.875C20.543 22.668 19.5117 23.2695 18.375 23.625L17.8125 23.8125L17.6875 24.4063L17.1875 27H14.8125L14.3125 24.4063L14.1875 23.8125L13.625 23.625C12.4883 23.2695 11.457 22.668 10.5938 21.875L10.1563 21.4688L9.59375 21.6563L7.0625 22.5313L5.875 20.5L7.875 18.7188L8.34375 18.3438L8.1875 17.75C8.05859 17.1797 8 16.5977 8 16C8 15.4023 8.05859 14.8203 8.1875 14.25L8.34375 13.6563L7.875 13.2813L5.875 11.5L7.0625 9.46875L9.59375 10.3438L10.1563 10.5313L10.5938 10.125C11.457 9.33203 12.4883 8.73047 13.625 8.375L14.1875 8.1875L14.3125 7.59375L14.8125 5ZM16 11C13.25 11 11 13.25 11 16C11 18.75 13.25 21 16 21C18.75 21 21 18.75 21 16C21 13.25 18.75 11 16 11ZM16 13C17.668 13 19 14.332 19 16C19 17.668 17.668 19 16 19C14.332 19 13 17.668 13 16C13 14.332 14.332 13 16 13Z"
    fill="#00D2FF" />
</svg>