<svg width="32" height="32" viewBox="0 0 32 32" fill="none" xmlns="http://www.w3.org/2000/svg">
  <path fill-rule="evenodd" clip-rule="evenodd"
    d="M13.0311 3.8125C13.1218 3.34088 13.5344 3 14.0147 3H17.9849C18.4652 3 18.8779 3.34088 18.9686 3.8125L19.5623 6.78125C20.5154 7.15625 21.3748 7.68359 22.1561 8.3125L25.0623 7.3125C25.5173 7.16689 26.0147 7.36533 26.2498 7.78125L28.2498 11.2188L28.264 11.2439C28.4929 11.6489 28.409 12.1586 28.0623 12.4688L25.8123 14.4375C25.8267 14.5273 25.8418 14.6172 25.857 14.7071C25.9281 15.1297 25.9998 15.5556 25.9998 16C25.9998 16.4444 25.9281 16.8703 25.857 17.2929C25.8418 17.3828 25.8267 17.4727 25.8123 17.5625L28.0623 19.5312C28.409 19.8414 28.4929 20.3511 28.264 20.7561L28.2498 20.7812L26.2498 24.2188C26.0147 24.6347 25.5173 24.8331 25.0623 24.6875L22.1561 23.6875C21.3748 24.3164 20.5154 24.8438 19.5623 25.2188L18.9686 28.1875C18.8779 28.6591 18.4652 29 17.9849 29H14.0147C13.5344 29 13.1218 28.6591 13.0311 28.1875L12.4373 25.2188C11.4842 24.8438 10.6248 24.3164 9.84356 23.6875L6.93731 24.6875C6.48228 24.8331 5.9849 24.6347 5.74981 24.2188L3.74981 20.7812L3.7356 20.7561C3.5067 20.3511 3.59064 19.8414 3.93731 19.5312L6.18731 17.5625C6.17291 17.4727 6.15779 17.3828 6.14264 17.2929C6.0715 16.8703 5.99981 16.4444 5.99981 16C5.99981 15.5556 6.0715 15.1297 6.14264 14.7071C6.15779 14.6172 6.17291 14.5273 6.18731 14.4375L3.93731 12.4688C3.59064 12.1586 3.5067 11.6489 3.7356 11.2439L3.74981 11.2188L5.74981 7.78125C5.9849 7.36533 6.48228 7.16689 6.93731 7.3125L9.84356 8.3125C10.6248 7.68359 11.4842 7.15625 12.4373 6.78125L13.0311 3.8125ZM15.9998 21C18.7612 21 20.9998 18.7614 20.9998 16C20.9998 13.2386 18.7612 11 15.9998 11C13.2384 11 10.9998 13.2386 10.9998 16C10.9998 18.7614 13.2384 21 15.9998 21Z"
    fill="#00D2FF" />
</svg>