<svg width="24" height="28" viewBox="0 0 24 28" fill="none" xmlns="http://www.w3.org/2000/svg">
<path fill-rule="evenodd" clip-rule="evenodd" d="M13.4291 20.0669C13.041 19.6789 12.4118 19.6789 12.0237 20.0669L7.13178 24.9589L2.23983 20.0669C1.85176 19.6789 1.22258 19.6789 0.834509 20.0669C0.44644 20.455 0.44644 21.0842 0.834509 21.4723L6.42912 27.0669C6.81718 27.4549 7.44637 27.4549 7.83444 27.0669L13.4291 21.4723C13.8171 21.0842 13.8171 20.455 13.4291 20.0669Z" fill="#00D2FF"/>
<path d="M7.17285 24.519V7.62537" stroke="#00D2FF" stroke-width="2" stroke-linecap="round"/>
<path fill-rule="evenodd" clip-rule="evenodd" d="M10.2222 7.7441C10.6103 8.13217 11.2395 8.13217 11.6275 7.7441L16.5195 2.85216L21.4114 7.74411C21.7995 8.13217 22.4287 8.13217 22.8167 7.74411C23.2048 7.35604 23.2048 6.72685 22.8167 6.33878L17.2221 0.744178C16.8341 0.356108 16.2049 0.356108 15.8168 0.744177L10.2222 6.33878C9.83413 6.72685 9.83413 7.35604 10.2222 7.7441Z" fill="#00D2FF"/>
<path d="M16.4785 3.29199V20.1856" stroke="#00D2FF" stroke-width="2" stroke-linecap="round"/>
</svg>
