<svg width="34" height="23" viewBox="0 0 34 23" fill="none" xmlns="http://www.w3.org/2000/svg">
  <g clip-path="url(#clip0_12268_221702)">
    <path fill-rule="evenodd" clip-rule="evenodd"
      d="M1 2.5C1 1.67157 1.67157 1 2.5 1H31.5C32.3284 1 33 1.67157 33 2.5V20.5C33 21.3284 32.3284 22 31.5 22H2.5C1.67157 22 1 21.3284 1 20.5V2.5Z"
      fill="#F4F6F7" />
    <path fill-rule="evenodd" clip-rule="evenodd"
      d="M1 2.5C1 1.67157 1.67157 1 2.5 1H31.5C32.3284 1 33 1.67157 33 2.5V6H1V2.5Z" fill="#4095DB" />
    <path fill-rule="evenodd" clip-rule="evenodd"
      d="M1 17H33V20.5C33 21.3284 32.3284 22 31.5 22H2.5C1.67157 22 1 21.3284 1 20.5V17Z" fill="#F4B662" />
    <path fill-rule="evenodd" clip-rule="evenodd"
      d="M21.1405 8.28462C20.8291 8.14852 20.3394 8 19.7294 8C18.1725 8 17.0766 8.92035 17.0675 10.2381C17.0576 11.2127 17.8495 11.7564 18.4466 12.0804C19.0602 12.4125 19.2664 12.625 19.2639 12.9219C19.2597 13.3761 18.7741 13.5842 18.3214 13.5842C17.6909 13.5842 17.356 13.4818 16.8381 13.2286L16.6355 13.1206L16.4153 14.6386C16.7825 14.8274 17.4632 14.9914 18.1697 15C19.8243 15 20.8995 14.0909 20.9121 12.6837C20.9177 11.9108 20.4981 11.3248 19.5893 10.8411C19.039 10.5267 18.7013 10.3184 18.7052 10.0001C18.7055 9.71823 18.9905 9.41658 19.6073 9.41658C20.1224 9.40737 20.4952 9.53927 20.7858 9.67707L20.9272 9.75468L21.1405 8.28462ZM13.8536 14.8995L14.8388 8.11817H16.4135L15.4284 14.8995H13.8536ZM23.8646 10.5998C23.8646 10.5998 23.3678 12.1054 23.2373 12.4952H24.5446C24.4824 12.1562 24.1802 10.5376 24.1802 10.5376L24.0739 9.95277C24.0319 10.0871 23.9733 10.2651 23.9287 10.4005L23.9286 10.4008L23.9286 10.401C23.8888 10.5216 23.8603 10.6082 23.8646 10.5998ZM25.1801 8.12508H23.9631C23.5856 8.12508 23.3031 8.24506 23.1377 8.68721L20.7991 14.9019H22.4531C22.4531 14.9019 22.7229 14.0658 22.7842 13.8824C22.869 13.8824 23.2689 13.8831 23.6929 13.884C24.171 13.8849 24.6796 13.8859 24.8011 13.8859C24.8483 14.1225 24.9929 14.9019 24.9929 14.9019H26.4545L25.1801 8.12508ZM12.5325 8.12388L10.9912 12.7471L10.8261 11.8073L10.2743 8.69142C10.1791 8.26169 9.9024 8.1343 9.56042 8.11928H7.02099L7 8.25978C7.61781 8.4354 8.17026 8.68865 8.65441 9.00364L10.0548 14.8935L11.7214 14.8924L14.2013 8.12388H12.5325Z"
      fill="#0071CE" />
    <path fill-rule="evenodd" clip-rule="evenodd"
      d="M1 2.5C1 1.67157 1.67157 1 2.5 1H31.5C32.3284 1 33 1.67157 33 2.5V20.5C33 21.3284 32.3284 22 31.5 22H2.5C1.67157 22 1 21.3284 1 20.5V2.5Z"
      fill="#E5E5E5" fill-opacity="0.01" />
  </g>
  <rect x="1" y="1" width="32" height="21" rx="1.5" stroke="#A8ADAE" stroke-width="0.5" stroke-miterlimit="0"
    stroke-linejoin="bevel" />
  <defs>
    <clipPath id="clip0_12268_221702">
      <rect x="1" y="1" width="32" height="21" rx="1.5" fill="white" />
    </clipPath>
  </defs>
</svg>