<svg width="42" height="42" viewBox="0 0 42 42" fill="none" xmlns="http://www.w3.org/2000/svg">
<mask id="mask0" mask-type="alpha" maskUnits="userSpaceOnUse" x="0" y="0" width="42" height="42">
<path d="M20.6682 41.2891C32.0297 41.2891 41.24 32.0788 41.24 20.7173C41.24 9.35582 32.0297 0.145508 20.6682 0.145508C9.30674 0.145508 0.0964355 9.35582 0.0964355 20.7173C0.0964355 32.0788 9.30674 41.2891 20.6682 41.2891Z" fill="#C4C4C4"/>
</mask>
<g mask="url(#mask0)">
<path d="M41.7927 -0.276855H-3.93091V42.3293H41.7927V-0.276855Z" fill="#00D2FF"/>
<path fill-rule="evenodd" clip-rule="evenodd" d="M29.3933 23.8385C28.3633 23.8385 27.5282 23.0075 27.5282 21.9823C27.5282 20.9572 28.3633 20.1261 29.3933 20.1261C30.4234 20.1261 31.2584 20.9572 31.2584 21.9823C31.2584 23.0075 30.4234 23.8385 29.3933 23.8385ZM29.3933 16.7324C26.4798 16.7324 24.1179 19.0828 24.1179 21.9823C24.1179 24.8819 26.4798 27.2324 29.3933 27.2324C32.3068 27.2324 34.6686 24.8819 34.6686 21.9823C34.6686 19.0828 32.3068 16.7324 29.3933 16.7324Z" fill="white"/>
<path fill-rule="evenodd" clip-rule="evenodd" d="M8.6687 16.7324V27.2324H12.4368V16.7324H12.4285H8.6687Z" fill="white"/>
<path fill-rule="evenodd" clip-rule="evenodd" d="M18.4659 19.3574L15.8282 16.7324H13.1904V19.3574L15.8282 21.9823L13.1904 24.6073V27.2324H15.8282L18.4659 24.6073L21.1035 27.2324V27.2323V27.2324H23.7412V24.6073L21.1035 21.9823L23.7412 19.3574V16.7324H21.1035L18.4659 19.3574Z" fill="white"/>
<path fill-rule="evenodd" clip-rule="evenodd" d="M10.5528 15.9824C9.51222 15.9824 8.6687 15.143 8.6687 14.1074C8.6687 13.0719 9.51222 12.2324 10.5528 12.2324C11.5933 12.2324 12.4368 13.0719 12.4368 14.1074C12.4368 15.143 11.5933 15.9824 10.5528 15.9824Z" fill="white"/>
</g>
</svg>
