<svg width="54" height="54" viewBox="0 0 54 54" fill="none" xmlns="http://www.w3.org/2000/svg">
  <circle cx="27" cy="27" r="26.5" fill="#312828" stroke="#E753FF" />
  <g clip-path="url(#clip0_10232_42755)">
    <path
      d="M44.9459 14.8376C44.5396 13.266 43.2342 11.6944 40.8842 9.94483C38.9983 8.55112 36.9965 7.75049 35.4008 7.75049C35.0816 7.75049 34.7915 7.78014 34.5014 7.83945C33.7761 7.98771 33.1377 8.52147 32.7317 9.32211C32.2385 10.271 32.1224 11.5461 32.4416 12.3171C32.5575 12.5543 32.7026 12.8508 32.8767 13.1177C31.339 14.0666 30.4686 14.3335 30.3525 14.3631C34.3564 15.7272 37.6928 18.5739 39.7817 22.2805L39.8107 21.9247C39.8978 20.9461 40.1879 19.8193 40.5941 18.6628C41.0001 18.7815 41.4064 18.8408 41.8126 18.8408C42.8861 18.8408 43.8144 18.396 44.3947 17.5953C44.9749 16.7947 45.2069 15.7272 44.9459 14.8376Z"
      fill="#5E12A0" />
    <path
      d="M40.7678 17.8034C43.4078 18.5447 44.4813 16.469 44.133 15.0753C43.7559 13.6816 42.5374 12.2583 40.3904 10.657C38.2436 9.05572 36.0677 8.40335 34.675 8.69987C33.2825 8.9964 32.8763 11.1611 33.2244 11.9914C33.3695 12.3176 33.6885 12.792 34.1238 13.3258C33.5726 13.7113 33.0503 14.0078 32.6152 14.2747C35.2844 15.4904 37.6054 17.3883 39.346 19.7605C39.5491 18.9599 39.8392 18.2482 40.1005 17.6255C40.3034 17.6551 40.5356 17.7144 40.7678 17.8034Z"
      fill="url(#paint0_radial_10232_42755)" />
    <path
      d="M25.6525 46.8631C34.6094 46.8631 41.8704 39.4417 41.8704 30.2871C41.8704 21.1323 34.6094 13.7109 25.6525 13.7109C16.6956 13.7109 9.43457 21.1323 9.43457 30.2871C9.43457 39.4417 16.6956 46.8631 25.6525 46.8631Z"
      fill="url(#paint1_radial_10232_42755)" />
    <path opacity="0.6"
      d="M42.7987 13.7104C40.5938 11.3381 38.7369 10.7154 36.5031 10.2113C34.7623 9.79616 35.2265 8.78795 37.3444 8.99553C36.3291 8.63969 35.3716 8.55073 34.6753 8.69899C33.2826 8.99553 32.8766 11.1602 33.2246 11.9905C33.3696 12.3167 33.6888 12.7911 34.1241 13.3249C33.3407 13.8586 32.6735 14.2441 32.1221 14.5407C32.3833 14.6593 32.7023 14.8075 33.0795 15.0151C34.066 15.5489 35.1395 16.4385 35.1395 16.4385C33.5148 15.0151 33.8629 14.3627 36.0969 12.7615C36.7932 12.2574 38.0696 12.3167 39.2592 12.9394C40.4488 13.5621 41.8413 15.1337 41.8413 15.1337L40.5068 17.7432C40.5938 17.7729 40.6808 17.8025 40.7678 17.8322C41.6092 18.0694 42.2764 18.0101 42.7987 17.8025C43.4081 17.417 45.0037 16.1123 42.7987 13.7104Z"
      fill="#A98698" />
    <path
      d="M36.4741 11.635C37.0544 11.8722 37.8087 12.2873 38.7372 12.9101C39.8396 13.6514 40.797 14.4817 41.4063 15.134C40.3908 16.4981 39.7235 18.3662 39.3175 19.671C39.5206 19.9675 39.7526 20.264 39.9557 20.5606C40.1588 19.8193 40.5069 18.7221 40.9711 17.6249C41.0871 17.6546 41.2323 17.6546 41.3773 17.6546C41.7254 17.6546 42.1316 17.5953 42.4508 17.3284C42.6828 17.1505 42.944 16.8243 42.9149 16.2312C42.9149 15.6678 42.4798 14.9561 41.5804 14.0962C40.9422 13.4735 40.0718 12.7915 39.2014 12.1687C36.7063 10.4785 34.9655 10.004 34.1822 10.8047C33.66 11.3384 33.718 11.9908 33.892 12.4653C32.9637 13.088 32.1803 13.5328 31.6582 13.8293C32.0063 13.9479 32.3255 14.0962 32.6736 14.2444C33.6019 13.7403 34.9365 12.8804 36.4741 11.635ZM41.9575 15.8754C42.0446 16.0236 42.0736 16.1719 42.0736 16.2609C42.0736 16.5278 41.9866 16.6167 41.9285 16.676C41.8126 16.765 41.5804 16.8243 41.3773 16.8243C41.5513 16.4684 41.7544 16.1719 41.9575 15.8754ZM34.7915 11.4571C34.8785 11.3681 35.1107 11.3088 35.4878 11.3681C35.1977 11.6053 34.9076 11.8129 34.6175 12.0205C34.5884 11.8129 34.6175 11.6053 34.7915 11.4571Z"
      fill="#5E12A0" />
    <path
      d="M25.6529 12.7319C16.1658 12.7319 8.47754 20.59 8.47754 30.2867C8.47754 39.9831 16.1658 47.8413 25.6529 47.8413C35.14 47.8413 42.8282 39.9831 42.8282 30.2867C42.8282 20.59 35.1109 12.7319 25.6529 12.7319ZM25.6529 46.8627C16.6881 46.8627 9.43495 39.4495 9.43495 30.2867C9.43495 21.1238 16.6881 13.7105 25.6529 13.7105C34.6177 13.7105 41.8709 21.1238 41.8709 30.2867C41.8709 39.4495 34.5888 46.8627 25.6529 46.8627Z"
      fill="#5E12A0" />
    <path opacity="0.6"
      d="M25.6525 46.8631C34.6094 46.8631 41.8704 39.4417 41.8704 30.2871C41.8704 21.1323 34.6094 13.7109 25.6525 13.7109C16.6956 13.7109 9.43457 21.1323 9.43457 30.2871C9.43457 39.4417 16.6956 46.8631 25.6525 46.8631Z"
      fill="url(#paint2_linear_10232_42755)" />
    <path opacity="0.6"
      d="M25.5368 44.847C16.688 43.394 10.6825 34.8835 12.1331 25.8394C12.7713 21.8362 14.7442 18.426 17.5294 15.9648C13.4676 18.3667 10.4503 22.5478 9.638 27.6482C8.21639 36.6924 14.222 45.2029 23.0417 46.6559C27.9738 47.4862 32.7318 45.9146 36.2424 42.8307C33.138 44.6691 29.3665 45.4698 25.5368 44.847Z"
      fill="#A98698" />
    <path opacity="0.6"
      d="M28.2348 13.9479C24.144 13.2659 20.1693 14.2148 16.9199 16.3202C16.8618 16.3795 16.8038 16.4388 16.8038 16.4388C18.0514 15.6678 19.8791 14.9858 19.8791 14.9858C15.1791 17.7732 13.7285 20.9461 13.7285 20.9461C15.5563 17.3284 20.9236 14.7782 25.1304 14.6003C29.3372 14.4224 32.0933 15.6975 35.4588 18.4552C38.8242 21.2426 40.8552 26.936 40.6521 31.4433C40.478 35.9507 38.157 39.598 38.157 39.598C39.7526 37.4925 40.71 35.9507 41.3193 34.3789C41.4354 33.9045 41.5515 33.4301 41.6095 32.9259C43.0601 23.9114 37.0835 15.4009 28.2348 13.9479Z"
      fill="url(#paint3_linear_10232_42755)" />
    <path
      d="M41.0579 30.1377C41.0579 38.826 34.153 45.8835 25.6524 45.8835C17.1517 45.8835 10.2178 38.826 10.2178 30.1377H41.0579Z"
      fill="url(#paint4_linear_10232_42755)" />
    <g opacity="0.6">
      <path opacity="0.6"
        d="M39.8392 30.1377C39.8392 38.6185 33.2825 45.5572 25.043 45.8835C25.2461 45.8835 25.4492 45.8835 25.6522 45.8835C34.1529 45.8835 41.0579 38.826 41.0579 30.1377H39.8392Z"
        fill="url(#paint5_linear_10232_42755)" />
    </g>
    <g opacity="0.7">
      <path opacity="0.7"
        d="M12.3937 30.1377H10.2178C10.2178 38.826 17.1227 45.8835 25.6234 45.8835C26.0005 45.8835 26.3487 45.8835 26.6968 45.8537C18.7184 45.2607 12.3937 38.4405 12.3937 30.1377Z"
        fill="url(#paint6_linear_10232_42755)" />
    </g>
    <path
      d="M41.0291 30.2865C41.0291 28.4777 37.9537 27.4397 33.8628 27.084C30.9036 26.8467 27.9154 27.1432 24.4919 28.2108C21.5326 29.1004 18.8635 28.9521 16.9196 28.7148C12.5968 28.2108 10.2178 28.1514 10.2178 30.2865C10.2178 33.3705 16.3684 37.2253 25.5944 35.8908C30.2654 35.2089 32.6734 33.8153 35.4296 32.8663C38.4179 31.8581 41.0291 31.8877 41.0291 30.2865Z"
      fill="url(#paint7_linear_10232_42755)" />
    <path
      d="M30.701 22.8146C32.1431 22.8146 33.312 21.6198 33.312 20.1458C33.312 18.6719 32.1431 17.4771 30.701 17.4771C29.2589 17.4771 28.0898 18.6719 28.0898 20.1458C28.0898 21.6198 29.2589 22.8146 30.701 22.8146Z"
      fill="white" />
    <path
      d="M34.9657 24.8015C35.5746 24.8015 36.0682 24.297 36.0682 23.6747C36.0682 23.0523 35.5746 22.5479 34.9657 22.5479C34.3569 22.5479 33.8633 23.0523 33.8633 23.6747C33.8633 24.297 34.3569 24.8015 34.9657 24.8015Z"
      fill="white" />
    <g opacity="0.6">
      <path opacity="0.6"
        d="M38.9115 18.0114C38.8824 18.0114 38.8535 18.0114 38.8535 18.0114C38.6793 17.9817 38.5634 17.8038 38.5923 17.5962C38.8536 16.2322 39.9559 14.9275 40.0141 14.8681C40.13 14.7199 40.3622 14.7199 40.4782 14.8385C40.6232 14.9571 40.6232 15.1943 40.5071 15.3129C40.4782 15.3426 39.4627 16.5584 39.2307 17.7445C39.2016 17.9224 39.0567 18.0114 38.9115 18.0114Z"
        fill="url(#paint8_linear_10232_42755)" />
    </g>
    <path opacity="0.2"
      d="M24.5838 42.6522C25.0325 42.6522 25.3962 42.2805 25.3962 41.822C25.3962 41.3634 25.0325 40.9917 24.5838 40.9917C24.1352 40.9917 23.7715 41.3634 23.7715 41.822C23.7715 42.2805 24.1352 42.6522 24.5838 42.6522Z"
      fill="white" />
    <g opacity="0.4">
      <path opacity="0.6"
        d="M24.1152 42.3638C23.796 42.0375 23.796 41.5039 24.1152 41.1776C24.1732 41.1183 24.2312 41.0887 24.2892 41.0293C24.1732 41.0591 24.0861 41.1183 23.9991 41.2072C23.68 41.5335 23.68 42.0673 23.9991 42.3933C24.2602 42.6602 24.6664 42.7196 24.9855 42.5417C24.6954 42.6602 24.3473 42.6011 24.1152 42.3638Z"
        fill="url(#paint9_linear_10232_42755)" />
    </g>
    <path opacity="0.3"
      d="M24.8694 41.5844C24.9655 41.5844 25.0435 41.5048 25.0435 41.4064C25.0435 41.3081 24.9655 41.2285 24.8694 41.2285C24.7733 41.2285 24.6953 41.3081 24.6953 41.4064C24.6953 41.5048 24.7733 41.5844 24.8694 41.5844Z"
      fill="white" />
    <path opacity="0.2"
      d="M28.8201 42.2369C29.2688 42.2369 29.6325 41.865 29.6325 41.4064C29.6325 40.9479 29.2688 40.5762 28.8201 40.5762C28.3715 40.5762 28.0078 40.9479 28.0078 41.4064C28.0078 41.865 28.3715 42.2369 28.8201 42.2369Z"
      fill="white" />
    <g opacity="0.4">
      <path opacity="0.6"
        d="M28.3514 41.9463C28.0322 41.62 28.0322 41.0862 28.3514 40.76C28.4094 40.7008 28.4675 40.671 28.5255 40.6118C28.4094 40.6414 28.3224 40.7008 28.2354 40.7897C27.9163 41.1158 27.9163 41.6496 28.2354 41.9759C28.4966 42.2428 28.9026 42.3019 29.2218 42.124C28.9317 42.2428 28.5836 42.1834 28.3514 41.9463Z"
        fill="url(#paint10_linear_10232_42755)" />
    </g>
    <path opacity="0.3"
      d="M29.1057 41.1687C29.2018 41.1687 29.2797 41.089 29.2797 40.9907C29.2797 40.8926 29.2018 40.813 29.1057 40.813C29.0095 40.813 28.9316 40.8926 28.9316 40.9907C28.9316 41.089 29.0095 41.1687 29.1057 41.1687Z"
      fill="white" />
    <path opacity="0.2"
      d="M26.7255 44.1652C27.062 44.1652 27.3348 43.8865 27.3348 43.5427C27.3348 43.1987 27.062 42.9199 26.7255 42.9199C26.389 42.9199 26.1162 43.1987 26.1162 43.5427C26.1162 43.8865 26.389 44.1652 26.7255 44.1652Z"
      fill="white" />
    <g opacity="0.4">
      <path opacity="0.6"
        d="M26.3773 43.9337C26.1452 43.6964 26.1452 43.2813 26.3773 43.044C26.4063 43.0144 26.4644 42.9849 26.4934 42.9551C26.4063 42.9849 26.3483 43.044 26.2903 43.1034C26.0582 43.3405 26.0582 43.7557 26.2903 43.993C26.4934 44.2006 26.7835 44.2302 27.0447 44.082C26.8125 44.171 26.5514 44.1116 26.3773 43.9337Z"
        fill="url(#paint11_linear_10232_42755)" />
    </g>
    <path opacity="0.3"
      d="M26.9286 43.334C26.9926 43.334 27.0445 43.2809 27.0445 43.2154C27.0445 43.1499 26.9926 43.0967 26.9286 43.0967C26.8645 43.0967 26.8125 43.1499 26.8125 43.2154C26.8125 43.2809 26.8645 43.334 26.9286 43.334Z"
      fill="white" />
    <path opacity="0.2"
      d="M30.4685 43.7194C30.805 43.7194 31.0778 43.4407 31.0778 43.0969C31.0778 42.7528 30.805 42.4741 30.4685 42.4741C30.1322 42.4741 29.8594 42.7528 29.8594 43.0969C29.8594 43.4407 30.1322 43.7194 30.4685 43.7194Z"
      fill="white" />
    <g opacity="0.4">
      <path opacity="0.6"
        d="M30.1205 43.4879C29.8885 43.2506 29.8885 42.8355 30.1205 42.5982C30.1496 42.5687 30.2076 42.5391 30.2366 42.5093C30.1496 42.5391 30.0915 42.5982 30.0335 42.6576C29.8013 42.8947 29.8013 43.3099 30.0335 43.5472C30.2366 43.7548 30.5268 43.7844 30.7878 43.6362C30.5558 43.7252 30.2946 43.6658 30.1205 43.4879Z"
        fill="url(#paint12_linear_10232_42755)" />
    </g>
    <path opacity="0.3"
      d="M30.6718 42.8901C30.736 42.8901 30.7878 42.8371 30.7878 42.7714C30.7878 42.7059 30.736 42.6528 30.6718 42.6528C30.6077 42.6528 30.5557 42.7059 30.5557 42.7714C30.5557 42.8371 30.6077 42.8901 30.6718 42.8901Z"
      fill="white" />
    <path opacity="0.2"
      d="M21.1266 42.3555C21.8636 42.3555 22.4611 41.7448 22.4611 40.9915C22.4611 40.2382 21.8636 39.6274 21.1266 39.6274C20.3895 39.6274 19.792 40.2382 19.792 40.9915C19.792 41.7448 20.3895 42.3555 21.1266 42.3555Z"
      fill="white" />
    <g opacity="0.4">
      <path opacity="0.6"
        d="M20.3734 41.8519C19.8511 41.3181 19.8511 40.4581 20.3734 39.9245C20.4604 39.8355 20.5474 39.7762 20.6635 39.7168C20.4894 39.7762 20.3444 39.8947 20.1993 40.0135C19.6771 40.5471 19.6771 41.4071 20.1993 41.9409C20.6345 42.3857 21.3018 42.4747 21.824 42.1484C21.3308 42.3559 20.7505 42.267 20.3734 41.8519Z"
        fill="url(#paint13_linear_10232_42755)" />
    </g>
    <path opacity="0.3"
      d="M21.5909 40.5764C21.7511 40.5764 21.881 40.4437 21.881 40.2799C21.881 40.1161 21.7511 39.9834 21.5909 39.9834C21.4307 39.9834 21.3008 40.1161 21.3008 40.2799C21.3008 40.4437 21.4307 40.5764 21.5909 40.5764Z"
      fill="white" />
    <path opacity="0.2"
      d="M33.0553 39.0049C33.7925 39.0049 34.3898 38.3942 34.3898 37.6409C34.3898 36.8876 33.7925 36.2769 33.0553 36.2769C32.3183 36.2769 31.7207 36.8876 31.7207 37.6409C31.7207 38.3942 32.3183 39.0049 33.0553 39.0049Z"
      fill="white" />
    <g opacity="0.4">
      <path opacity="0.6"
        d="M32.2669 38.5013C31.7446 37.9676 31.7446 37.1077 32.2669 36.5739C32.354 36.485 32.441 36.4256 32.5571 36.3662C32.3828 36.4256 32.2379 36.5441 32.0929 36.6629C31.5706 37.1967 31.5706 38.0565 32.0929 38.5903C32.528 39.0351 33.1953 39.1241 33.7176 38.7978C33.2244 39.0055 32.673 38.9166 32.2669 38.5013Z"
        fill="url(#paint14_linear_10232_42755)" />
    </g>
    <path opacity="0.3"
      d="M33.5147 37.2265C33.6751 37.2265 33.8049 37.0936 33.8049 36.9298C33.8049 36.766 33.6751 36.6333 33.5147 36.6333C33.3546 36.6333 33.2246 36.766 33.2246 36.9298C33.2246 37.0936 33.3546 37.2265 33.5147 37.2265Z"
      fill="white" />
  </g>
  <defs>
    <radialGradient id="paint0_radial_10232_42755" cx="0" cy="0" r="1" gradientUnits="userSpaceOnUse"
      gradientTransform="translate(43.6039 13.2071) scale(12.9669 13.2533)">
      <stop stop-color="#FFEAFF" stop-opacity="0.6" />
      <stop offset="0.6807" stop-color="#A087C9" />
      <stop offset="1" stop-color="#10002F" />
    </radialGradient>
    <radialGradient id="paint1_radial_10232_42755" cx="0" cy="0" r="1" gradientUnits="userSpaceOnUse"
      gradientTransform="translate(40.21 27.3433) scale(36.3156 39.4764)">
      <stop stop-color="#FFEAFF" stop-opacity="0.6" />
      <stop offset="0.6807" stop-color="#A087C9" />
      <stop offset="1" stop-color="#10002F" />
    </radialGradient>
    <linearGradient id="paint2_linear_10232_42755" x1="23.051" y1="46.6281" x2="28.4639" y2="13.956"
      gradientUnits="userSpaceOnUse">
      <stop stop-color="#81FFFF" />
      <stop offset="0.6202" stop-color="white" stop-opacity="0" />
    </linearGradient>
    <linearGradient id="paint3_linear_10232_42755" x1="37.0821" y1="19.0295" x2="23.4041" y2="31.3083"
      gradientUnits="userSpaceOnUse">
      <stop offset="0.2888" stop-color="white" />
      <stop offset="0.7796" stop-color="white" stop-opacity="0" />
    </linearGradient>
    <linearGradient id="paint4_linear_10232_42755" x1="10.2308" y1="38.0012" x2="41.0505" y2="38.0012"
      gradientUnits="userSpaceOnUse">
      <stop stop-color="#0002E9" />
      <stop offset="0.9952" stop-color="#FF00C7" />
    </linearGradient>
    <linearGradient id="paint5_linear_10232_42755" x1="42.5093" y1="31.5193" x2="25.389" y2="47.3493"
      gradientUnits="userSpaceOnUse">
      <stop offset="0.2888" stop-color="white" />
      <stop offset="0.7796" stop-color="white" stop-opacity="0" />
    </linearGradient>
    <linearGradient id="paint6_linear_10232_42755" x1="10.2308" y1="38.0012" x2="26.7192" y2="38.0012"
      gradientUnits="userSpaceOnUse">
      <stop stop-color="#000292" />
      <stop offset="0.9952" stop-color="#7D00C7" />
    </linearGradient>
    <linearGradient id="paint7_linear_10232_42755" x1="10.2515" y1="31.5946" x2="41.0298" y2="31.5946"
      gradientUnits="userSpaceOnUse">
      <stop stop-color="#000292" />
      <stop offset="0.9952" stop-color="#BE00C7" />
    </linearGradient>
    <linearGradient id="paint8_linear_10232_42755" x1="40.5254" y1="14.7237" x2="38.2423" y2="18.3532"
      gradientUnits="userSpaceOnUse">
      <stop offset="0.2888" stop-color="white" />
      <stop offset="0.7796" stop-color="white" stop-opacity="0" />
    </linearGradient>
    <linearGradient id="paint9_linear_10232_42755" x1="23.7589" y1="41.8554" x2="24.9864" y2="41.8554"
      gradientUnits="userSpaceOnUse">
      <stop offset="0.2888" stop-color="white" />
      <stop offset="0.7796" stop-color="white" stop-opacity="0" />
    </linearGradient>
    <linearGradient id="paint10_linear_10232_42755" x1="27.9923" y1="41.4322" x2="29.2197" y2="41.4322"
      gradientUnits="userSpaceOnUse">
      <stop offset="0.2888" stop-color="white" />
      <stop offset="0.7796" stop-color="white" stop-opacity="0" />
    </linearGradient>
    <linearGradient id="paint11_linear_10232_42755" x1="26.0999" y1="43.5542" x2="27.0215" y2="43.5542"
      gradientUnits="userSpaceOnUse">
      <stop offset="0.2888" stop-color="white" />
      <stop offset="0.7796" stop-color="white" stop-opacity="0" />
    </linearGradient>
    <linearGradient id="paint12_linear_10232_42755" x1="29.8431" y1="43.1083" x2="30.7646" y2="43.1083"
      gradientUnits="userSpaceOnUse">
      <stop offset="0.2888" stop-color="white" />
      <stop offset="0.7796" stop-color="white" stop-opacity="0" />
    </linearGradient>
    <linearGradient id="paint13_linear_10232_42755" x1="19.7943" y1="41.0268" x2="21.7989" y2="41.0268"
      gradientUnits="userSpaceOnUse">
      <stop offset="0.2888" stop-color="white" />
      <stop offset="0.7796" stop-color="white" stop-opacity="0" />
    </linearGradient>
    <linearGradient id="paint14_linear_10232_42755" x1="31.699" y1="37.6751" x2="33.7035" y2="37.6751"
      gradientUnits="userSpaceOnUse">
      <stop offset="0.2888" stop-color="white" />
      <stop offset="0.7796" stop-color="white" stop-opacity="0" />
    </linearGradient>
    <clipPath id="clip0_10232_42755">
      <rect width="38" height="42" fill="white" transform="translate(8.00195 6)" />
    </clipPath>
  </defs>
</svg>