<svg id="Layer_1" data-name="Layer 1" xmlns="http://www.w3.org/2000/svg" viewBox="0 0 18 18"><defs><style>.cls-1{fill:#fff}</style></defs><rect class="cls-1" x="1.51" y="1.51" width="14.99" height="14.99" rx="1.5"/><rect x=".5" y=".5" width="17" height="17" rx="1.7" fill="#a5adb0"/><path class="cls-1" d="M9 4.75A4.25 4.25 0 1013.25 9 4.25 4.25 0 009 4.75zm2.94 2.55h-1.25a6.58 6.58 0 00-.59-1.51 3.39 3.39 0 011.84 1.51zM9 5.62a5.94 5.94 0 01.81 1.68H8.19A5.94 5.94 0 019 5.62zM5.71 9.85a3.34 3.34 0 010-1.7h1.44a6.05 6.05 0 000 1.7zm.35.85h1.25a6.58 6.58 0 00.59 1.51 3.35 3.35 0 01-1.84-1.51zm1.25-3.4H6.06A3.35 3.35 0 017.9 5.79a6.58 6.58 0 00-.59 1.51zM9 12.38a5.94 5.94 0 01-.81-1.68h1.62A5.94 5.94 0 019 12.38zm1-2.53H8A6 6 0 017.94 9 6 6 0 018 8.15h2a6 6 0 01.07.85 6 6 0 01-.07.85zm.11 2.36a6.58 6.58 0 00.59-1.51h1.25a3.39 3.39 0 01-1.85 1.51zm.75-2.36a6.05 6.05 0 000-1.7h1.44a3.34 3.34 0 010 1.7z"/></svg>