<svg data-name="Layer 1" xmlns="http://www.w3.org/2000/svg" viewBox="0 0 18 18"><rect x=".5" y=".5" width="17" height="17" rx="1.7" fill="#1da1f2"/><path d="M13.25 6.34a3.81 3.81 0 01-1 .28 1.75 1.75 0 00.76-1 3.49 3.49 0 01-1.1.42 1.75 1.75 0 00-3 1.21 1.81 1.81 0 000 .4 5 5 0 01-3.57-1.81 1.76 1.76 0 00.54 2.35A1.76 1.76 0 015.09 8a1.77 1.77 0 001.4 1.73 1.75 1.75 0 01-.46 0 1.23 1.23 0 01-.33 0A1.77 1.77 0 007.33 11a3.49 3.49 0 01-2.16.75 2.86 2.86 0 01-.42 0 4.81 4.81 0 002.67.79 5 5 0 005-5v-.29a3.43 3.43 0 00.83-.91z" fill="#fff"/></svg>