<svg width="689" height="260" viewBox="0 0 689 260" fill="none" xmlns="http://www.w3.org/2000/svg">
<path d="M168.907 130C168.907 167.268 138.696 197.48 101.427 197.48C64.1591 197.48 33.9472 167.268 33.9472 130C33.9472 92.732 64.1591 62.5201 101.427 62.5201C138.696 62.5201 168.907 92.732 168.907 130Z" stroke="#0089D7" stroke-width="7.89444"/>
<path d="M168.91 129.999C168.91 151.488 151.49 168.909 130.001 168.909C108.512 168.909 91.092 151.488 91.092 129.999C91.092 108.511 108.512 91.0903 130.001 91.0903C151.49 91.0903 168.91 108.511 168.91 129.999Z" stroke="#0089D7" stroke-width="7.89444"/>
<path d="M129.999 91.0926C167.268 91.0926 197.479 121.304 197.479 158.573C197.479 195.841 167.268 226.053 129.999 226.053C92.7311 226.053 62.5192 195.841 62.5192 158.573C62.5192 121.304 92.7311 91.0926 129.999 91.0926Z" stroke="#0089D7" stroke-width="7.89444"/>
<path d="M226.052 130C226.052 167.268 195.84 197.48 158.572 197.48C121.304 197.48 91.092 167.268 91.092 130C91.092 92.732 121.304 62.5201 158.572 62.5201C195.84 62.5201 226.052 92.732 226.052 130Z" stroke="#0089D7" stroke-width="7.89444"/>
<path d="M129.999 33.9472C167.268 33.9472 197.479 64.1591 197.479 101.427C197.479 138.696 167.268 168.907 129.999 168.907C92.7311 168.907 62.5192 138.696 62.5192 101.427C62.5192 64.1591 92.7311 33.9472 129.999 33.9472Z" stroke="#0089D7" stroke-width="7.89444"/>
<path d="M263.84 158V102H272.48V158H263.84ZM296.152 158V102H312.392L324.632 152.24H325.912L338.152 102H354.392V158H345.992V108.08H344.712L332.552 158H317.992L305.832 108.08H304.552V158H296.152ZM378.074 158V102H400.314C403.727 102 406.767 102.693 409.434 104.08C412.154 105.413 414.261 107.333 415.754 109.84C417.301 112.293 418.074 115.253 418.074 118.72V119.76C418.074 123.227 417.274 126.213 415.674 128.72C414.127 131.227 412.021 133.147 409.354 134.48C406.687 135.813 403.674 136.48 400.314 136.48H386.714V158H378.074ZM386.714 128.64H399.434C402.474 128.64 404.901 127.84 406.714 126.24C408.527 124.64 409.434 122.453 409.434 119.68V118.88C409.434 116.053 408.527 113.84 406.714 112.24C404.901 110.64 402.474 109.84 399.434 109.84H386.714V128.64ZM429.742 158L445.742 102H460.942L476.862 158H467.982L464.302 144.8H442.382L438.702 158H429.742ZM444.542 136.8H462.142L453.982 107.36H452.702L444.542 136.8ZM516.624 159.12C509.797 159.12 504.384 157.2 500.384 153.36C496.384 149.467 494.384 143.867 494.384 136.56V123.44C494.384 116.133 496.384 110.56 500.384 106.72C504.384 102.827 509.797 100.88 516.624 100.88C523.344 100.88 528.517 102.747 532.144 106.48C535.824 110.213 537.664 115.307 537.664 121.76V122.24H529.104V121.52C529.104 117.733 528.064 114.64 525.984 112.24C523.957 109.84 520.837 108.64 516.624 108.64C512.357 108.64 509.024 109.947 506.624 112.56C504.224 115.12 503.024 118.693 503.024 123.28V136.72C503.024 141.253 504.224 144.827 506.624 147.44C509.024 150.053 512.357 151.36 516.624 151.36C520.837 151.36 523.957 150.16 525.984 147.76C528.064 145.307 529.104 142.213 529.104 138.48V137.12H537.664V138.24C537.664 144.693 535.824 149.787 532.144 153.52C528.517 157.253 523.344 159.12 516.624 159.12ZM571.418 158V109.84H554.218V102H597.258V109.84H580.058V158H571.418ZM634.88 159.12C630.666 159.12 626.933 158.373 623.68 156.88C620.426 155.387 617.866 153.2 616 150.32C614.186 147.387 613.28 143.84 613.28 139.68V137.68H621.84V139.68C621.84 143.627 623.013 146.587 625.36 148.56C627.76 150.533 630.933 151.52 634.88 151.52C638.88 151.52 641.893 150.693 643.92 149.04C645.946 147.333 646.96 145.147 646.96 142.48C646.96 140.72 646.48 139.28 645.52 138.16C644.56 137.04 643.2 136.16 641.44 135.52C639.68 134.827 637.573 134.187 635.12 133.6L632.16 132.88C628.586 132.027 625.466 130.987 622.8 129.76C620.186 128.48 618.16 126.8 616.72 124.72C615.28 122.64 614.56 119.973 614.56 116.72C614.56 113.413 615.36 110.587 616.96 108.24C618.613 105.893 620.88 104.08 623.76 102.8C626.64 101.52 630.026 100.88 633.92 100.88C637.813 100.88 641.28 101.547 644.32 102.88C647.413 104.213 649.84 106.187 651.6 108.8C653.36 111.413 654.24 114.693 654.24 118.64V121.52H645.68V118.64C645.68 116.24 645.173 114.293 644.16 112.8C643.2 111.307 641.84 110.213 640.08 109.52C638.32 108.827 636.266 108.48 633.92 108.48C630.506 108.48 627.84 109.2 625.92 110.64C624.053 112.027 623.12 113.973 623.12 116.48C623.12 118.187 623.52 119.6 624.32 120.72C625.173 121.787 626.4 122.667 628 123.36C629.6 124.053 631.6 124.667 634 125.2L636.96 125.92C640.586 126.72 643.786 127.76 646.56 129.04C649.333 130.267 651.52 131.947 653.12 134.08C654.72 136.213 655.52 138.96 655.52 142.32C655.52 145.68 654.666 148.613 652.96 151.12C651.306 153.627 648.933 155.6 645.84 157.04C642.746 158.427 639.093 159.12 634.88 159.12Z" fill="#0089D7"/>
</svg>
