<svg width="143" height="42" viewBox="0 0 143 42" fill="none" xmlns="http://www.w3.org/2000/svg">
<path d="M38.1258 20.3932C38.1367 19.547 38.3615 18.7172 38.7792 17.9812C39.197 17.2451 39.7941 16.6267 40.5151 16.1835C40.0571 15.5294 39.4528 14.991 38.7504 14.6113C38.0479 14.2315 37.2666 14.0208 36.4685 13.9958C34.7659 13.8171 33.1153 15.0146 32.2477 15.0146C31.3633 15.0146 30.0275 14.0136 28.589 14.0432C27.6586 14.0732 26.7518 14.3438 25.957 14.8285C25.1623 15.3132 24.5066 15.9955 24.0539 16.8089C22.0931 20.2039 23.5557 25.1933 25.4341 27.9376C26.3738 29.2814 27.4722 30.7824 28.9093 30.7292C30.3157 30.6708 30.8409 29.8324 32.5385 29.8324C34.2203 29.8324 34.7131 30.7292 36.1794 30.6953C37.6885 30.6708 38.6392 29.3456 39.5461 27.9891C40.2213 27.0316 40.7409 25.9734 41.0856 24.8536C40.2089 24.4828 39.4607 23.8621 38.9343 23.0689C38.408 22.2757 38.1268 21.3452 38.1258 20.3932Z" fill="white"/>
<path d="M35.3561 12.1905C36.1789 11.2028 36.5843 9.93318 36.4861 8.65137C35.2291 8.7834 34.0679 9.38419 33.234 10.334C32.8263 10.7981 32.514 11.3379 32.315 11.9227C32.116 12.5075 32.0343 13.1257 32.0744 13.7422C32.7031 13.7486 33.3252 13.6123 33.8936 13.3436C34.4621 13.0748 34.9621 12.6806 35.3561 12.1905V12.1905Z" fill="white"/>
<path d="M54.9982 27.4611H50.3831L49.2748 30.7337H47.3201L51.6914 18.6261H53.7223L58.0936 30.7337H56.1055L54.9982 27.4611ZM50.8611 25.951H54.5193L52.7159 20.6399H52.6654L50.8611 25.951Z" fill="white"/>
<path d="M67.5341 26.3202C67.5341 29.0634 66.0659 30.8258 63.8503 30.8258C63.289 30.8551 62.7308 30.7259 62.2396 30.4527C61.7484 30.1796 61.3441 29.7737 61.0729 29.2814H61.0309V33.6537H59.219V21.9061H60.9729V23.3743H61.0062C61.2899 22.8844 61.701 22.4805 62.196 22.2057C62.6909 21.9309 63.2511 21.7955 63.8169 21.8137C66.0574 21.8137 67.5341 23.5847 67.5341 26.3202ZM65.6717 26.3202C65.6717 24.5331 64.7481 23.3581 63.339 23.3581C61.9545 23.3581 61.0233 24.5578 61.0233 26.3202C61.0233 28.0988 61.9545 29.29 63.339 29.29C64.7482 29.29 65.6717 28.1236 65.6717 26.3202H65.6717Z" fill="white"/>
<path d="M77.2504 26.3202C77.2504 29.0634 75.7817 30.8258 73.5661 30.8258C73.0048 30.8551 72.4466 30.7259 71.9554 30.4527C71.4642 30.1796 71.0599 29.7737 70.7887 29.2814H70.7468V33.6537H68.9348V21.9061H70.6887V23.3743H70.722C71.0057 22.8844 71.4169 22.4805 71.9118 22.2057C72.4067 21.9309 72.9669 21.7955 73.5327 21.8137C75.7732 21.8137 77.2504 23.5847 77.2504 26.3202ZM75.3876 26.3202C75.3876 24.5331 74.464 23.3581 73.0548 23.3581C71.6704 23.3581 70.7392 24.5578 70.7392 26.3202C70.7392 28.0988 71.6704 29.29 73.0548 29.29C74.464 29.29 75.3876 28.1236 75.3876 26.3202V26.3202Z" fill="white"/>
<path d="M83.6707 27.3603C83.805 28.5609 84.9714 29.3493 86.5653 29.3493C88.0925 29.3493 89.1913 28.5609 89.1913 27.4783C89.1913 26.5385 88.5286 25.9758 86.9595 25.5902L85.3903 25.2122C83.1671 24.6752 82.1349 23.6354 82.1349 21.9482C82.1349 19.8592 83.9554 18.4243 86.5396 18.4243C89.099 18.4243 90.8528 19.8592 90.9119 21.9482H89.0828C88.9733 20.7399 87.9745 20.0106 86.5148 20.0106C85.0552 20.0106 84.0564 20.7485 84.0564 21.8225C84.0564 22.6785 84.6943 23.1822 86.2549 23.5678L87.5888 23.8953C90.073 24.4828 91.1042 25.4807 91.1042 27.2517C91.1042 29.5168 89.3008 30.9355 86.431 30.9355C83.7459 30.9355 81.933 29.5501 81.8159 27.3602L83.6707 27.3603Z" fill="white"/>
<path d="M95.0164 19.8181V21.9071H96.695V23.342H95.0164V28.2084C95.0164 28.9644 95.3525 29.3167 96.0904 29.3167C96.2897 29.3132 96.4886 29.2992 96.6864 29.2748V30.7011C96.3547 30.7631 96.0174 30.7911 95.68 30.7849C93.8928 30.7849 93.1958 30.1136 93.1958 28.4016V23.342H91.9124V21.9071H93.1958V19.8181H95.0164Z" fill="white"/>
<path d="M97.6663 26.3212C97.6663 23.5438 99.302 21.7985 101.853 21.7985C104.412 21.7985 106.04 23.5438 106.04 26.3212C106.04 29.1063 104.421 30.8439 101.853 30.8439C99.2858 30.8439 97.6663 29.1063 97.6663 26.3212ZM104.194 26.3212C104.194 24.416 103.321 23.2915 101.853 23.2915C100.385 23.2915 99.5115 24.4245 99.5115 26.3212C99.5115 28.2341 100.385 29.35 101.853 29.35C103.321 29.35 104.194 28.2341 104.194 26.3212H104.194Z" fill="white"/>
<path d="M107.535 21.906H109.263V23.4085H109.305C109.422 22.9392 109.697 22.5245 110.083 22.2341C110.47 21.9436 110.945 21.7952 111.428 21.8136C111.637 21.8129 111.845 21.8356 112.049 21.8812V23.576C111.785 23.4955 111.51 23.4585 111.235 23.4665C110.971 23.4559 110.709 23.5023 110.465 23.6026C110.222 23.7029 110.003 23.8547 109.823 24.0477C109.644 24.2406 109.509 24.4701 109.426 24.7204C109.344 24.9706 109.317 25.2357 109.347 25.4975V30.7333H107.535L107.535 21.906Z" fill="white"/>
<path d="M120.403 28.1417C120.159 29.7442 118.598 30.8439 116.602 30.8439C114.034 30.8439 112.44 29.1234 112.44 26.3631C112.44 23.5943 114.042 21.7985 116.526 21.7985C118.968 21.7985 120.504 23.4762 120.504 26.1527V26.7735H114.269V26.883C114.24 27.2079 114.281 27.5351 114.388 27.8431C114.496 28.151 114.667 28.4326 114.892 28.6691C115.117 28.9056 115.389 29.0916 115.691 29.2147C115.993 29.3378 116.318 29.3953 116.644 29.3833C117.072 29.4235 117.502 29.3243 117.869 29.1006C118.236 28.8769 118.521 28.5406 118.682 28.1417L120.403 28.1417ZM114.278 25.5071H118.691C118.707 25.215 118.663 24.9227 118.561 24.6485C118.459 24.3744 118.301 24.1242 118.098 23.9139C117.894 23.7035 117.65 23.5374 117.379 23.4261C117.109 23.3147 116.818 23.2605 116.526 23.2667C116.231 23.265 115.938 23.3217 115.665 23.4335C115.392 23.5454 115.144 23.7103 114.935 23.9185C114.726 24.1268 114.56 24.3745 114.447 24.6471C114.335 24.9198 114.277 25.2121 114.278 25.5071V25.5071Z" fill="white"/>
<path d="M50.6343 9.51319C51.0142 9.48593 51.3954 9.54332 51.7504 9.68122C52.1054 9.81912 52.4254 10.0341 52.6873 10.3106C52.9492 10.5872 53.1464 10.9184 53.2648 11.2803C53.3831 11.6423 53.4197 12.0261 53.3718 12.4039C53.3718 14.2625 52.3673 15.3309 50.6343 15.3309H48.533V9.51319H50.6343ZM49.4365 14.5081H50.5334C50.8049 14.5243 51.0765 14.4798 51.3286 14.3778C51.5807 14.2758 51.8068 14.1189 51.9906 13.9185C52.1744 13.7181 52.3112 13.4792 52.391 13.2192C52.4708 12.9593 52.4916 12.6848 52.452 12.4158C52.4888 12.1478 52.4658 11.875 52.3848 11.617C52.3037 11.3589 52.1666 11.122 51.9832 10.9232C51.7999 10.7243 51.5748 10.5685 51.3242 10.4669C51.0735 10.3653 50.8035 10.3203 50.5334 10.3353H49.4365V14.5081Z" fill="white"/>
<path d="M54.3924 13.1344C54.3648 12.8459 54.3978 12.5548 54.4893 12.2798C54.5808 12.0048 54.7287 11.7519 54.9237 11.5374C55.1186 11.3229 55.3562 11.1516 55.6213 11.0343C55.8863 10.917 56.173 10.8564 56.4628 10.8564C56.7526 10.8564 57.0393 10.917 57.3043 11.0343C57.5694 11.1516 57.807 11.3229 58.002 11.5374C58.1969 11.7519 58.3449 12.0048 58.4364 12.2798C58.5279 12.5548 58.5609 12.8459 58.5333 13.1344C58.5614 13.4232 58.5288 13.7147 58.4375 13.9902C58.3463 14.2657 58.1984 14.519 58.0034 14.7339C57.8084 14.9488 57.5706 15.1205 57.3053 15.238C57.04 15.3556 56.753 15.4163 56.4628 15.4163C56.1726 15.4163 55.8857 15.3556 55.6203 15.238C55.355 15.1205 55.1172 14.9488 54.9222 14.7339C54.7272 14.519 54.5794 14.2657 54.4881 13.9902C54.3968 13.7147 54.3642 13.4232 54.3924 13.1344V13.1344ZM57.642 13.1344C57.642 12.1827 57.2145 11.6262 56.4642 11.6262C55.7111 11.6262 55.2874 12.1827 55.2874 13.1344C55.2874 14.0937 55.7111 14.646 56.4642 14.646C57.2145 14.6459 57.642 14.0899 57.642 13.1344H57.642Z" fill="white"/>
<path d="M64.0377 15.3308H63.1389L62.2315 12.0973H62.163L61.2594 15.3308H60.3691L59.1589 10.9404H60.0378L60.8242 14.2905H60.889L61.7916 10.9404H62.6229L63.5255 14.2905H63.594L64.3767 10.9404H65.2432L64.0377 15.3308Z" fill="white"/>
<path d="M66.261 10.9401H67.0951V11.6375H67.1598C67.2697 11.387 67.4549 11.177 67.6898 11.0368C67.9246 10.8966 68.1974 10.8331 68.47 10.8553C68.6836 10.8392 68.8981 10.8715 69.0976 10.9495C69.2971 11.0276 69.4764 11.1496 69.6224 11.3064C69.7683 11.4633 69.8771 11.6509 69.9407 11.8555C70.0042 12.0601 70.021 12.2763 69.9896 12.4882V15.3304H69.1232V12.7058C69.1232 12.0003 68.8166 11.6494 68.1758 11.6494C68.0307 11.6426 67.8859 11.6673 67.7513 11.7218C67.6167 11.7762 67.4955 11.8591 67.3959 11.9648C67.2963 12.0704 67.2208 12.1964 67.1745 12.334C67.1281 12.4716 67.1121 12.6176 67.1274 12.762V15.3304H66.261L66.261 10.9401Z" fill="white"/>
<path d="M71.3701 9.22656H72.2366V15.3308H71.3701V9.22656Z" fill="white"/>
<path d="M73.4412 13.1329C73.4136 12.8444 73.4466 12.5533 73.5381 12.2783C73.6296 12.0032 73.7776 11.7504 73.9726 11.5359C74.1676 11.3214 74.4052 11.15 74.6703 11.0327C74.9353 10.9155 75.222 10.8549 75.5119 10.8549C75.8017 10.8549 76.0884 10.9155 76.3534 11.0327C76.6185 11.15 76.8561 11.3214 77.0511 11.5359C77.2461 11.7504 77.394 12.0032 77.4856 12.2783C77.5771 12.5533 77.6101 12.8444 77.5825 13.1329C77.6106 13.4218 77.578 13.7133 77.4867 13.9887C77.3954 14.2642 77.2475 14.5175 77.0525 14.7324C76.8575 14.9473 76.6197 15.119 76.3543 15.2366C76.089 15.3541 75.802 15.4148 75.5119 15.4148C75.2217 15.4148 74.9347 15.3541 74.6693 15.2366C74.404 15.119 74.1662 14.9473 73.9712 14.7324C73.7762 14.5175 73.6283 14.2642 73.537 13.9887C73.4457 13.7133 73.4131 13.4218 73.4412 13.1329V13.1329ZM76.6908 13.1329C76.6908 12.1813 76.2633 11.6247 75.513 11.6247C74.7599 11.6247 74.3362 12.1813 74.3362 13.1329C74.3362 14.0922 74.7599 14.6445 75.513 14.6445C76.2633 14.6445 76.6908 14.0884 76.6908 13.1329H76.6908Z" fill="white"/>
<path d="M78.4946 14.0899C78.4946 13.2997 79.0831 12.8441 80.1276 12.7793L81.3168 12.7108V12.3318C81.3168 11.8681 81.0102 11.6063 80.418 11.6063C79.9343 11.6063 79.5991 11.7838 79.503 12.0942H78.6641C78.7527 11.3401 79.462 10.8564 80.458 10.8564C81.5586 10.8564 82.1794 11.4044 82.1794 12.3318V15.3315H81.3454V14.7146H81.2768C81.1377 14.9359 80.9423 15.1163 80.7106 15.2374C80.4789 15.3585 80.2192 15.416 79.9581 15.4039C79.7738 15.423 79.5875 15.4034 79.4113 15.3462C79.235 15.2889 79.0727 15.1954 78.9348 15.0716C78.797 14.9478 78.6865 14.7965 78.6107 14.6274C78.5349 14.4583 78.4954 14.2752 78.4946 14.0899V14.0899ZM81.3168 13.7148V13.3477L80.2447 13.4163C79.6401 13.4568 79.3658 13.6624 79.3658 14.0495C79.3658 14.4446 79.7086 14.6745 80.18 14.6745C80.3181 14.6885 80.4576 14.6746 80.5902 14.6335C80.7228 14.5925 80.8458 14.5252 80.9518 14.4357C81.0579 14.3461 81.1449 14.2362 81.2076 14.1123C81.2703 13.9885 81.3074 13.8533 81.3168 13.7148V13.7148Z" fill="white"/>
<path d="M83.3181 13.1337C83.3181 11.7464 84.0313 10.8676 85.1405 10.8676C85.4149 10.855 85.6872 10.9207 85.9256 11.0571C86.164 11.1935 86.3587 11.3949 86.4869 11.6379H86.5516V9.22656H87.4181V15.3308H86.5878V14.6371H86.5192C86.3812 14.8784 86.1797 15.0774 85.9367 15.2124C85.6937 15.3474 85.4184 15.4134 85.1405 15.4031C84.0237 15.4032 83.3181 14.5243 83.3181 13.1337ZM84.2132 13.1337C84.2132 14.0649 84.6521 14.6253 85.3862 14.6253C86.1165 14.6253 86.5678 14.0568 86.5678 13.1375C86.5678 12.2225 86.1118 11.646 85.3862 11.646C84.6568 11.646 84.2131 12.2101 84.2131 13.1337H84.2132Z" fill="white"/>
<path d="M91.003 13.1344C90.9754 12.8459 91.0084 12.5548 91.0999 12.2798C91.1913 12.0048 91.3393 11.7519 91.5343 11.5374C91.7292 11.3229 91.9668 11.1516 92.2319 11.0343C92.4969 10.917 92.7836 10.8564 93.0734 10.8564C93.3632 10.8564 93.6499 10.917 93.9149 11.0343C94.18 11.1516 94.4176 11.3229 94.6125 11.5374C94.8075 11.7519 94.9555 12.0048 95.047 12.2798C95.1384 12.5548 95.1715 12.8459 95.1439 13.1344C95.172 13.4232 95.1394 13.7147 95.0481 13.9902C94.9569 14.2657 94.809 14.519 94.614 14.7339C94.419 14.9488 94.1812 15.1205 93.9159 15.238C93.6506 15.3556 93.3636 15.4163 93.0734 15.4163C92.7832 15.4163 92.4962 15.3556 92.2309 15.238C91.9656 15.1205 91.7278 14.9488 91.5328 14.7339C91.3378 14.519 91.1899 14.2657 91.0987 13.9902C91.0074 13.7147 90.9748 13.4232 91.003 13.1344V13.1344ZM94.2526 13.1344C94.2526 12.1827 93.8251 11.6262 93.0748 11.6262C92.3217 11.6262 91.898 12.1827 91.898 13.1344C91.898 14.0937 92.3217 14.646 93.0748 14.646C93.8251 14.6459 94.2526 14.0899 94.2526 13.1344Z" fill="white"/>
<path d="M96.3064 10.9401H97.1405V11.6375H97.2052C97.3151 11.387 97.5003 11.177 97.7352 11.0368C97.97 10.8966 98.2428 10.8331 98.5154 10.8553C98.729 10.8392 98.9435 10.8715 99.143 10.9495C99.3425 11.0276 99.5218 11.1496 99.6678 11.3064C99.8137 11.4633 99.9225 11.6509 99.9861 11.8555C100.05 12.0601 100.066 12.2763 100.035 12.4882V15.3304H99.1686V12.7058C99.1686 12.0003 98.862 11.6494 98.2212 11.6494C98.0761 11.6426 97.9313 11.6673 97.7967 11.7218C97.6621 11.7762 97.5409 11.8591 97.4413 11.9648C97.3418 12.0704 97.2662 12.1964 97.2199 12.334C97.1735 12.4716 97.1575 12.6176 97.1729 12.762V15.3304H96.3064V10.9401Z" fill="white"/>
<path d="M104.931 9.84732V10.9604H105.882V11.6902H104.931V13.9477C104.931 14.4076 105.121 14.609 105.552 14.609C105.662 14.6087 105.773 14.602 105.882 14.589V15.3107C105.727 15.3386 105.569 15.3534 105.411 15.355C104.447 15.355 104.064 15.016 104.064 14.1696V11.6902H103.367V10.9603H104.064V9.84732H104.931Z" fill="white"/>
<path d="M107.066 9.22656H107.925V11.646H107.993C108.108 11.3931 108.299 11.182 108.538 11.0412C108.778 10.9005 109.055 10.837 109.332 10.8595C109.544 10.8479 109.757 10.8834 109.954 10.9634C110.151 11.0434 110.328 11.1659 110.473 11.3223C110.617 11.4786 110.725 11.6649 110.789 11.8678C110.854 12.0707 110.872 12.2853 110.844 12.4962V15.3308H109.976V12.71C109.976 12.0087 109.65 11.6536 109.038 11.6536C108.889 11.6414 108.739 11.6618 108.599 11.7136C108.459 11.7653 108.331 11.847 108.226 11.953C108.121 12.0591 108.04 12.1868 107.989 12.3273C107.938 12.4679 107.919 12.6178 107.932 12.7666V15.3308H107.066L107.066 9.22656Z" fill="white"/>
<path d="M115.896 14.1446C115.778 14.5459 115.523 14.893 115.176 15.1252C114.828 15.3574 114.41 15.4599 113.994 15.4148C113.705 15.4224 113.417 15.367 113.151 15.2524C112.886 15.1378 112.648 14.9668 112.455 14.7512C112.262 14.5356 112.119 14.2806 112.034 14.0039C111.949 13.7271 111.926 13.4353 111.966 13.1487C111.927 12.8612 111.951 12.5687 112.035 12.2912C112.12 12.0136 112.263 11.7574 112.455 11.5399C112.646 11.3224 112.883 11.1487 113.148 11.0305C113.413 10.9124 113.7 10.8525 113.99 10.855C115.212 10.855 115.949 11.6896 115.949 13.0682V13.3705H112.848V13.4191C112.835 13.5802 112.855 13.7424 112.908 13.8952C112.961 14.0481 113.045 14.1882 113.155 14.3066C113.265 14.425 113.399 14.5191 113.547 14.5829C113.696 14.6466 113.856 14.6787 114.018 14.6769C114.225 14.7017 114.435 14.6644 114.621 14.5696C114.807 14.4749 114.96 14.3269 115.062 14.1446L115.896 14.1446ZM112.848 12.7297H115.066C115.077 12.5824 115.057 12.4344 115.007 12.2952C114.957 12.1561 114.879 12.0289 114.777 11.9218C114.676 11.8146 114.553 11.73 114.416 11.6733C114.28 11.6166 114.133 11.589 113.985 11.5924C113.835 11.5905 113.687 11.6187 113.548 11.6752C113.409 11.7316 113.283 11.8154 113.177 11.9214C113.071 12.0274 112.987 12.1535 112.931 12.2923C112.875 12.4312 112.846 12.5799 112.848 12.7297H112.848Z" fill="white"/>
</svg>
