<svg width="143" height="42" viewBox="0 0 143 42" fill="none" xmlns="http://www.w3.org/2000/svg">
<path d="M52.1817 11.0346C52.1817 11.8473 51.941 12.4946 51.4589 12.9775C50.9114 13.5516 50.1977 13.8389 49.3204 13.8389C48.4803 13.8389 47.766 13.5478 47.1785 12.965C46.59 12.3825 46.2964 11.6602 46.2964 10.7984C46.2964 9.93625 46.59 9.21436 47.1785 8.63149C47.766 8.04902 48.4803 7.75758 49.3204 7.75758C49.7373 7.75758 50.1364 7.83907 50.5154 8.00167C50.8943 8.16466 51.1983 8.381 51.4257 8.65196L50.914 9.16391C50.5287 8.70348 49.9981 8.47346 49.3204 8.47346C48.7077 8.47346 48.1779 8.68873 47.7307 9.11958C47.2835 9.5509 47.06 10.1102 47.06 10.7984C47.06 11.4866 47.2835 12.0459 47.7307 12.4773C48.1779 12.9081 48.7077 13.1234 49.3204 13.1234C49.9704 13.1234 50.5124 12.9069 50.9462 12.4735C51.2278 12.1911 51.3907 11.7985 51.4343 11.2945H49.3204V10.5953H52.1411C52.1684 10.7473 52.1817 10.8932 52.1817 11.0346" fill="white"/>
<path d="M52.1816 11.0346H52.0845C52.0838 11.8289 51.8518 12.4458 51.3902 12.909L51.3891 12.9097L51.3887 12.9105C50.8586 13.4649 50.1771 13.7408 49.3203 13.7419C48.5025 13.7408 47.8181 13.4619 47.2466 12.8965C46.6763 12.3299 46.3943 11.6383 46.3933 10.7985C46.3943 9.95836 46.6763 9.26713 47.2466 8.70095C47.8181 8.13516 48.5025 7.85586 49.3203 7.85469C49.7246 7.85469 50.1097 7.93356 50.4769 8.09082C50.8445 8.24925 51.1349 8.45686 51.3512 8.71463L51.4255 8.65206L51.3569 8.58347L50.8453 9.0958L50.9139 9.164L50.9886 9.10191C50.5853 8.61868 50.0192 8.37508 49.3203 8.37653C48.6848 8.37576 48.1258 8.60277 47.6635 9.05001C47.1966 9.4987 46.962 10.0894 46.9628 10.7985C46.962 11.5076 47.1966 12.0983 47.6635 12.547C48.1258 12.9943 48.6848 13.2213 49.3203 13.2205C49.9918 13.2217 50.5641 12.9939 51.0147 12.5422C51.3156 12.2404 51.4861 11.8225 51.5309 11.3029L51.5399 11.1975H49.4173V10.6924H52.141V10.5954L52.0454 10.6124C52.072 10.7595 52.0845 10.8993 52.0845 11.0346H52.1816H52.2786C52.2786 10.8872 52.2649 10.7356 52.2365 10.578L52.2221 10.4983H49.2233V11.2945V11.3916H51.4341V11.2945L51.3375 11.2862C51.2947 11.7744 51.1393 12.142 50.8775 12.405C50.4606 12.8203 49.949 13.0253 49.3203 13.0265C48.7302 13.0257 48.2296 12.8225 47.798 12.4076C47.3706 11.9941 47.1579 11.4663 47.1569 10.7985C47.1579 10.1308 47.3706 9.6029 47.798 9.18942C48.2296 8.77449 48.7302 8.57134 49.3203 8.57056C49.9763 8.57212 50.4717 8.78885 50.8396 9.22658L50.9078 9.30768L51.4941 8.72065L51.557 8.65778L51.4997 8.58987C51.2614 8.30571 50.9438 8.08015 50.5534 7.9127C50.1624 7.74477 49.7497 7.66066 49.3203 7.66066C48.4578 7.65988 47.7135 7.96306 47.1098 8.563C46.5038 9.16177 46.1984 9.91441 46.1992 10.7985C46.1984 11.6822 46.5038 12.4352 47.1102 13.0344C47.7135 13.634 48.4578 13.9367 49.3203 13.936C50.2184 13.9367 50.9635 13.6384 51.5289 13.0446L51.4588 12.9776L51.5274 13.0462C52.0299 12.544 52.2792 11.8657 52.2786 11.0346H52.1816Z" fill="white"/>
<path d="M56.6533 8.60321H54.0024V10.4488H56.393V11.1483H54.0024V12.9939H56.6533V13.709H53.2551V7.88812H56.6533V8.60321Z" fill="white"/>
<path d="M56.6534 8.60313V8.50611H53.9055V10.5458H56.2961V11.0509L53.9055 11.0512V13.0908H56.5563V13.6119H53.3522V7.98504H56.5563V8.60313H56.6534V8.50611V8.60313H56.7504V7.88803V7.79101H53.1582V13.8059H56.7504V12.9938V12.8968H54.0995V11.2452H56.4901V10.4487V10.3517H54.0995V8.70014H56.7504V8.60313H56.6534" fill="white"/>
<path d="M59.8076 13.709H59.0591V8.60321H57.4333V7.88812H61.4334V8.60321H59.8076V13.709Z" fill="white"/>
<path d="M59.8074 13.7089V13.6119H59.156V8.50611H57.5302V7.98504H61.3362V8.50611H59.7104V13.7089H59.8074V13.6119V13.7089H59.9045V8.70014H61.5302V7.88803V7.79101H57.3362V8.60313V8.70014H58.962V13.8059H59.8074H59.9045V13.7089H59.8074" fill="white"/>
<path d="M64.3274 13.709V7.88812H65.0751V13.709H64.3274Z" fill="white"/>
<path d="M64.3275 13.7089H64.4245V7.98504H64.9782V13.6119H64.3275V13.7089H64.4245H64.3275V13.8059H65.0752H65.1722V7.79101H64.3275H64.2305V13.8059H64.3275V13.7089Z" fill="white"/>
<path d="M68.3929 13.709H67.6445V8.60321H66.0188V7.88812H70.0187V8.60321H68.3929V13.709Z" fill="white"/>
<path d="M68.393 13.7089V13.6119H67.7416V8.50611H66.1159V7.98504H69.9218V8.50611H68.296V13.7089H68.393V13.6119V13.7089H68.49V8.70014H70.1158V7.88803V7.79101H65.9219V8.60313V8.70014H67.5476V13.8059H68.393H68.49V13.7089H68.393" fill="white"/>
<path d="M73.8751 12.4693C74.3059 12.9055 74.8331 13.1234 75.4565 13.1234C76.0799 13.1234 76.6074 12.9055 77.0375 12.4693C77.4688 12.0331 77.6848 11.4756 77.6848 10.7984C77.6848 10.1213 77.4688 9.56371 77.0375 9.12753C76.6074 8.69135 76.0799 8.47346 75.4565 8.47346C74.8331 8.47346 74.3059 8.69135 73.8751 9.12753C73.4449 9.56371 73.2289 10.1213 73.2289 10.7984C73.2289 11.4756 73.4449 12.0331 73.8751 12.4693ZM77.5908 12.9566C77.0185 13.5451 76.3068 13.8389 75.4565 13.8389C74.6053 13.8389 73.894 13.5451 73.3229 12.9566C72.7503 12.3688 72.4653 11.6492 72.4653 10.7984C72.4653 9.9476 72.7503 9.22794 73.3229 8.64022C73.894 8.05163 74.6053 7.75758 75.4565 7.75758C76.3024 7.75758 77.0121 8.05319 77.587 8.64401C78.1612 9.23483 78.4484 9.95293 78.4484 10.7984C78.4484 11.6492 78.1618 12.3688 77.5908 12.9566Z" fill="white"/>
<path d="M73.8752 12.4694L73.8062 12.5376C74.253 12.9912 74.8105 13.2217 75.4566 13.2205C76.1023 13.2217 76.6605 12.9912 77.1066 12.5376C77.5564 12.0836 77.7826 11.4961 77.7819 10.7985C77.7826 10.1009 77.5564 9.51345 77.1066 9.05942C76.6605 8.60578 76.1023 8.37537 75.4566 8.37653C74.8105 8.37537 74.253 8.60578 73.8062 9.05942C73.3575 9.51345 73.1308 10.1009 73.132 10.7985C73.1308 11.4961 73.3575 12.0836 73.8062 12.5376L73.8752 12.4694L73.9441 12.4012C73.5326 11.9824 73.3268 11.4556 73.326 10.7985C73.3268 10.1414 73.5326 9.61464 73.9441 9.19582C74.3595 8.77711 74.8555 8.57173 75.4566 8.57056C76.0572 8.57173 76.5544 8.77711 76.9687 9.19582C77.381 9.61464 77.5868 10.1414 77.5875 10.7985C77.5868 11.4556 77.381 11.9824 76.9687 12.4012C76.5544 12.8199 76.0572 13.0253 75.4566 13.0265C74.8555 13.0253 74.3595 12.8199 73.9441 12.4012L73.8752 12.4694ZM77.5909 12.9567L77.5216 12.8893C76.9653 13.4592 76.285 13.7408 75.4566 13.7419C74.6278 13.7408 73.9475 13.4592 73.3923 12.8893L73.3897 12.8863L73.3923 12.8893C72.8372 12.3174 72.5632 11.6277 72.5624 10.7985C72.5632 9.96932 72.8372 9.27965 73.3923 8.70774C73.9475 8.13778 74.6278 7.85585 75.4566 7.85469C76.2797 7.85585 76.9584 8.13894 77.5178 8.71191C78.0748 9.28644 78.3504 9.97505 78.3515 10.7985C78.3504 11.6277 78.0756 12.3174 77.5216 12.8893L77.5909 12.9567L77.6607 13.0241C78.2488 12.4201 78.5462 11.6709 78.5456 10.7985C78.5462 9.9311 78.2476 9.18341 77.6568 8.57667C77.0657 7.96761 76.3252 7.65959 75.4566 7.66066C74.5835 7.65959 73.8407 7.96616 73.2533 8.57289V8.5725C72.664 9.17691 72.3676 9.92615 72.3684 10.7985C72.3676 11.6709 72.664 12.4201 73.2533 13.0245L73.2559 13.0272L73.2533 13.0241C73.8407 13.6309 74.5835 13.9367 75.4566 13.936C76.3293 13.9367 77.0721 13.6309 77.6607 13.0241L77.5909 12.9567" fill="white"/>
<path d="M79.498 13.709V7.88812H80.4083L83.2373 12.4164H83.2695L83.2373 11.2946V7.88812H83.9858V13.709H83.2051L80.2453 8.9613H80.2131L80.2453 10.0835V13.709H79.498Z" fill="white"/>
<path d="M79.4981 13.7089H79.5952V7.98504H80.3546L83.1835 12.5133H83.2696H83.3692L83.3344 11.2931V7.98504H83.8888V13.6119H83.259L80.2993 8.86419H80.2132H80.1136L80.1484 10.0849V13.6119H79.4981V13.7089H79.5952H79.4981V13.8059H80.2454H80.3425V10.0818L80.3102 8.95859L80.2132 8.96121V9.05822H80.2454V8.96121L80.1632 9.01282L83.1513 13.8059H83.9859H84.0829V7.79101H83.2374H83.1404V11.2957L83.1726 12.4189L83.2696 12.4163V12.3193H83.2374V12.4163L83.3197 12.3648L80.4622 7.79101H79.4981H79.4011V13.8059H79.4981V13.7089Z" fill="white"/>
<path d="M109.923 30.2015H111.733V18.0735H109.923V30.2015ZM126.228 22.4422L124.153 27.7003H124.091L121.937 22.4422H119.987L123.217 29.7914L121.375 33.8793H123.264L128.241 22.4422H126.228ZM115.962 28.824C115.368 28.824 114.541 28.5276 114.541 27.794C114.541 26.8579 115.572 26.499 116.46 26.499C117.257 26.499 117.63 26.6706 118.115 26.9049C117.974 28.0282 117.007 28.824 115.962 28.824V28.824ZM116.18 22.1769C114.869 22.1769 113.512 22.7544 112.95 24.0339L114.557 24.7046C114.9 24.0339 115.54 23.8152 116.211 23.8152C117.147 23.8152 118.099 24.3772 118.115 25.3758V25.5004C117.787 25.3132 117.085 25.0324 116.227 25.0324C114.495 25.0324 112.731 25.984 112.731 27.7628C112.731 29.3856 114.151 30.4311 115.743 30.4311C116.96 30.4311 117.63 29.885 118.052 29.2454H118.115V30.1814H119.862V25.5315C119.862 23.3786 118.255 22.1769 116.18 22.1769V22.1769ZM104.992 23.9186H102.418V19.7614H104.992C106.346 19.7614 107.114 20.8819 107.114 21.84C107.114 22.7798 106.346 23.9186 104.992 23.9186ZM104.946 18.0735H100.608V30.2015H102.418V25.6066H104.946C106.952 25.6066 108.924 24.154 108.924 21.84C108.924 19.5261 106.952 18.0735 104.946 18.0735ZM81.2925 28.8262C80.0419 28.8262 78.9948 27.7791 78.9948 26.341C78.9948 24.8877 80.0419 23.8247 81.2925 23.8247C82.5272 23.8247 83.4962 24.8877 83.4962 26.341C83.4962 27.7791 82.5272 28.8262 81.2925 28.8262V28.8262ZM83.3711 23.1213H83.3086C82.9024 22.6369 82.1205 22.1993 81.136 22.1993C79.0729 22.1993 77.1819 24.0122 77.1819 26.341C77.1819 28.6542 79.0729 30.4516 81.136 30.4516C82.1205 30.4516 82.9024 30.0139 83.3086 29.514H83.3711V30.1079C83.3711 31.6867 82.5272 32.5306 81.1674 32.5306C80.0578 32.5306 79.3701 31.7333 79.0884 31.0613L77.5101 31.7177C77.9633 32.8118 79.1669 34.156 81.1674 34.156C83.293 34.156 85.0904 32.9054 85.0904 29.8578V22.4494H83.3711V23.1213ZM86.3407 30.2015H88.1537V18.0731H86.3407V30.2015ZM90.8265 26.2004C90.7795 24.6061 92.0612 23.7936 92.9832 23.7936C93.7027 23.7936 94.3119 24.1528 94.5147 24.669L90.8265 26.2004ZM96.453 24.8251C96.1096 23.9027 95.0618 22.1993 92.9206 22.1993C90.795 22.1993 89.0291 23.8716 89.0291 26.3254C89.0291 28.6387 90.7795 30.4516 93.1238 30.4516C95.0153 30.4516 96.1096 29.295 96.5627 28.6231L95.1559 27.6851C94.6874 28.3729 94.0461 28.8262 93.1238 28.8262C92.2017 28.8262 91.5454 28.4041 91.1232 27.576L96.6403 25.2939L96.453 24.8251ZM52.4973 23.4654V25.2158H56.6859C56.5609 26.2004 56.2327 26.9193 55.7325 27.4195C55.1231 28.0292 54.1696 28.7011 52.4973 28.7011C49.9184 28.7011 47.9023 26.6225 47.9023 24.0437C47.9023 21.4648 49.9184 19.3859 52.4973 19.3859C53.8884 19.3859 54.904 19.933 55.6544 20.6364L56.8891 19.4018C55.842 18.4013 54.4508 17.6354 52.4973 17.6354C48.9649 17.6354 45.9954 20.5113 45.9954 24.0437C45.9954 27.576 48.9649 30.4516 52.4973 30.4516C54.4042 30.4516 55.842 29.8267 56.9672 28.6542C58.1238 27.4976 58.4834 25.8722 58.4834 24.5595C58.4834 24.1528 58.4523 23.778 58.3894 23.4654H52.4973ZM63.2455 28.8262C61.9949 28.8262 60.9164 27.7946 60.9164 26.3254C60.9164 24.8406 61.9949 23.8247 63.2455 23.8247C64.4956 23.8247 65.5741 24.8406 65.5741 26.3254C65.5741 27.7946 64.4956 28.8262 63.2455 28.8262V28.8262ZM63.2455 22.1993C60.9633 22.1993 59.1033 23.9341 59.1033 26.3254C59.1033 28.7011 60.9633 30.4516 63.2455 30.4516C65.5272 30.4516 67.3872 28.7011 67.3872 26.3254C67.3872 23.9341 65.5272 22.1993 63.2455 22.1993ZM72.2807 28.8262C71.0306 28.8262 69.9519 27.7946 69.9519 26.3254C69.9519 24.8406 71.0306 23.8247 72.2807 23.8247C73.5309 23.8247 74.6094 24.8406 74.6094 26.3254C74.6094 27.7946 73.5309 28.8262 72.2807 28.8262ZM72.2807 22.1993C69.9986 22.1993 68.139 23.9341 68.139 26.3254C68.139 28.7011 69.9986 30.4516 72.2807 30.4516C74.5625 30.4516 76.4225 28.7011 76.4225 26.3254C76.4225 23.9341 74.5625 22.1993 72.2807 22.1993Z" fill="white"/>
<path d="M16.3748 32.5195L16.3027 32.4506C16.0204 32.1518 15.8538 31.688 15.8538 31.0874V31.2287V9.77293C15.8538 9.77099 15.8538 9.76954 15.8538 9.76798C15.8538 9.76983 15.8538 9.77138 15.8538 9.77332V9.91506C15.8538 9.26467 16.0481 8.77475 16.3737 8.48098L28.3936 20.5006L16.3748 32.5195ZM15.8538 9.76682C15.8538 9.71336 15.8552 9.66146 15.8579 9.61033C15.8552 9.66107 15.8538 9.71336 15.8538 9.76682ZM15.8579 9.60801C15.8579 9.60733 15.8579 9.60655 15.8582 9.60577C15.8579 9.60655 15.8579 9.60733 15.8579 9.60801ZM15.8582 9.60122C15.8582 9.60083 15.8582 9.60044 15.8582 9.60005C15.8582 9.60044 15.8582 9.60083 15.8582 9.60122Z" fill="white"/>
<path d="M32.3998 24.6508L32.4912 24.5989L37.2381 21.9017C37.6906 21.6445 37.9923 21.3326 38.1427 21.0025C37.9927 21.3326 37.6909 21.6448 37.2381 21.9021L32.4912 24.5992L32.3998 24.6508V24.6508ZM32.401 24.5086L28.3938 20.5007L32.4006 16.4935L37.2381 19.2418C37.8524 19.5908 38.1973 20.0407 38.2549 20.5004C38.2549 20.5007 38.2549 20.5015 38.2549 20.5022C38.1973 20.9608 37.8524 21.411 37.2381 21.76L32.401 24.5086" fill="white"/>
<path d="M17.2316 32.9774C16.8959 32.9774 16.6029 32.8682 16.3744 32.6621L16.3748 32.6617C16.6033 32.8678 16.8967 32.9774 17.2324 32.9774C17.2615 32.9774 17.2911 32.9766 17.3211 32.9751C17.2907 32.9766 17.2607 32.9774 17.2316 32.9774V32.9774ZM17.232 32.8352C16.8963 32.8356 16.6033 32.7261 16.3748 32.5199V32.5196L28.3936 20.5007L32.4008 24.5086L18.3189 32.5097C17.9293 32.7306 17.5601 32.8352 17.232 32.8352V32.8352ZM16.3714 32.6594C16.3502 32.6401 16.3293 32.6197 16.3088 32.5984L16.3714 32.6594Z" fill="white"/>
<path d="M28.3935 20.5006L16.3735 8.48095C16.602 8.27518 16.8946 8.16604 17.23 8.16604C17.559 8.16604 17.9284 8.27101 18.3188 8.4923L32.4003 16.4934L28.3935 20.5006V20.5006ZM32.4909 16.4029L18.3188 8.35066C17.9284 8.12927 17.559 8.0243 17.23 8.0243C17.2284 8.0243 17.2274 8.0243 17.2258 8.0243C17.2278 8.0243 17.2292 8.0243 17.2315 8.0243C17.5597 8.0243 17.9288 8.12888 18.3188 8.35027L32.4909 16.4029V16.4029Z" fill="white"/>
<path d="M17.3211 32.975C17.6261 32.9576 17.9638 32.8526 18.3189 32.6514L32.3996 24.6507L18.3189 32.6514C17.9641 32.853 17.6261 32.9576 17.3211 32.975V32.975ZM16.3744 32.662L16.3714 32.6594C16.3725 32.6601 16.3737 32.6612 16.3744 32.662ZM16.3088 32.5983L16.3027 32.5923V32.5919C16.3051 32.5942 16.3069 32.5964 16.3088 32.5983Z" fill="white"/>
<path d="M32.3997 24.6508L32.491 24.5989L32.3997 24.6508Z" fill="white"/>
<path d="M17.2324 32.9774C16.8967 32.9774 16.6033 32.8678 16.3748 32.6617L16.3744 32.6621C16.3737 32.6613 16.3725 32.6602 16.3714 32.6594L16.3088 32.5984C16.3069 32.5965 16.3051 32.5942 16.3027 32.592L16.3748 32.5199C16.6033 32.7261 16.8963 32.8356 17.232 32.8352C17.5601 32.8352 17.9293 32.7306 18.3189 32.5097L32.4008 24.5086L32.491 24.5989L32.3996 24.6508L18.3189 32.6515C17.9638 32.8527 17.6261 32.9577 17.3211 32.9751C17.2911 32.9766 17.2615 32.9774 17.2324 32.9774" fill="white"/>
<path d="M16.3027 32.5925C16.0204 32.2938 15.8538 31.8299 15.8538 31.2293V31.2289C15.8538 31.8299 16.0204 32.2934 16.3027 32.5921V32.5925" fill="white"/>
<path d="M16.3027 32.592C16.0204 32.2933 15.8538 31.8298 15.8538 31.2288V31.0875C15.8538 31.6881 16.0204 32.1519 16.3027 32.4506L16.3748 32.5196L16.3027 32.592" fill="white"/>
<path d="M16.3027 32.592L16.3748 32.5196V32.5199L16.3027 32.592" fill="white"/>
<path d="M38.1426 21.0024C38.2172 20.8387 38.2547 20.6705 38.2547 20.5021C38.2547 20.5018 38.2547 20.5015 38.2547 20.5015C38.2547 20.6701 38.2172 20.8383 38.1426 21.0024Z" fill="white"/>
<path d="M32.4911 24.5988L32.4009 24.5085L37.2379 21.7599C37.8522 21.4109 38.1971 20.9607 38.2548 20.5021C38.2548 20.6704 38.2172 20.8386 38.1426 21.0024C37.9921 21.3325 37.6905 21.6444 37.2379 21.9016L32.4911 24.5988Z" fill="white"/>
<path d="M38.2548 20.5006V20.5002C38.2544 19.9927 37.9152 19.4853 37.238 19.1003L32.4911 16.4032H32.4907L32.4911 16.4029L37.238 19.0999C37.916 19.485 38.2555 19.9931 38.2548 20.5006Z" fill="white"/>
<path d="M38.2549 20.5003C38.1973 20.0406 37.8524 19.5908 37.2381 19.2417L32.4006 16.4935L32.4909 16.4033H32.4912L37.2381 19.1004C37.9153 19.4854 38.2545 19.9928 38.2549 20.5003Z" fill="white"/>
<path d="M15.8538 9.76804C15.8538 9.76765 15.8538 9.76726 15.8538 9.76687C15.8538 9.76726 15.8538 9.76765 15.8538 9.76804ZM15.8579 9.61039C15.8579 9.60961 15.8579 9.60884 15.8579 9.60806C15.8579 9.60884 15.8579 9.60961 15.8579 9.61039ZM15.8582 9.60583C15.8582 9.60428 15.8582 9.60282 15.8582 9.60127C15.8582 9.60282 15.8582 9.60428 15.8582 9.60583ZM15.8582 9.6001C15.9144 8.60347 16.4563 8.02778 17.2229 8.02439C16.8906 8.02633 16.6011 8.13547 16.3744 8.33969V8.3393L16.3717 8.34201C16.3479 8.36355 16.3252 8.38635 16.3027 8.40983C16.0481 8.67924 15.8874 9.08282 15.8582 9.6001Z" fill="white"/>
<path d="M15.8538 9.9151V9.77336C15.8538 9.77142 15.8538 9.76987 15.8538 9.76803C15.8538 9.76764 15.8538 9.76725 15.8538 9.76686C15.8538 9.71341 15.8552 9.66112 15.8579 9.61038C15.8579 9.6096 15.8579 9.60883 15.8579 9.60805C15.8579 9.60737 15.8579 9.60659 15.8582 9.60582C15.8582 9.60426 15.8582 9.60281 15.8582 9.60126C15.8582 9.60087 15.8582 9.60048 15.8582 9.60009C15.8874 9.08281 16.0481 8.67923 16.3027 8.40982L16.3737 8.48103C16.0481 8.77479 15.8538 9.26471 15.8538 9.9151V9.9151ZM16.3717 8.342L16.3744 8.33929C16.3737 8.34045 16.3725 8.34123 16.3717 8.342Z" fill="white"/>
<path d="M32.4004 16.4935L18.3189 8.49239C17.9285 8.2711 17.5591 8.16613 17.2301 8.16613C16.8947 8.16613 16.6021 8.27527 16.3737 8.48104L16.3027 8.40983C16.3251 8.38635 16.3478 8.36355 16.3717 8.34201C16.3725 8.34124 16.3737 8.34046 16.3744 8.33969C16.6011 8.13547 16.8905 8.02633 17.2229 8.02439C17.2237 8.02439 17.2248 8.02439 17.2259 8.02439C17.2275 8.02439 17.2285 8.02439 17.2301 8.02439C17.5591 8.02439 17.9285 8.12936 18.3189 8.35074L32.491 16.403L32.4906 16.4033L32.4004 16.4935Z" fill="white"/>
</svg>
