<svg width="40" height="41" viewBox="0 0 40 41" fill="none" xmlns="http://www.w3.org/2000/svg">
<g clip-path="url(#clip0_11490_150289)">
<path d="M39.2209 23.4726C39.3679 22.4973 39.4413 21.5251 39.4413 20.538C39.4413 12.0723 33.9941 4.58184 25.9863 2.03857" stroke="white" stroke-width="0.6" stroke-miterlimit="10"/>
<path d="M18.6133 39.8674C27.8116 40.6381 36.2544 34.7098 38.7326 25.7461" stroke="white" stroke-width="0.6" stroke-miterlimit="10"/>
<path d="M6.08789 33.7168C8.81593 36.6869 12.3965 38.7233 16.3298 39.5384" stroke="white" stroke-width="0.6" stroke-miterlimit="10"/>
<path d="M1.43337 16.2905C0.225157 21.7209 1.38928 27.4092 4.62589 31.9177" stroke="white" stroke-width="0.6" stroke-miterlimit="10"/>
<path d="M23.7477 1.47256C14.4347 -0.288163 5.23637 5.05032 2.07031 14.0555" stroke="white" stroke-width="0.6" stroke-miterlimit="10"/>
<path d="M29.4434 34.6862C34.1645 31.5531 37.0043 26.2353 37.0043 20.5382C37.0043 16.7648 35.7549 13.0981 33.4531 10.1221" stroke="white" stroke-width="0.6" stroke-miterlimit="10"/>
<path d="M6.45508 30.2754C11.1674 37.0396 20.0306 39.3873 27.4298 35.8303" stroke="white" stroke-width="0.6" stroke-miterlimit="10"/>
<path d="M11.216 6.22412C3.86671 10.9164 1.28271 20.4848 5.26013 28.2835" stroke="white" stroke-width="0.6" stroke-miterlimit="10"/>
<path d="M31.9122 8.39073C26.9529 3.52651 19.5449 2.2282 13.248 5.11531" stroke="white" stroke-width="0.6" stroke-miterlimit="10"/>
<path d="M33.9733 24.6581C34.3731 23.3005 34.5672 21.9548 34.5672 20.5379C34.5672 15.5166 31.9861 10.8539 27.75 8.21582" stroke="white" stroke-width="0.6" stroke-miterlimit="10"/>
<path d="M15.6348 34.2682C22.496 36.5892 29.9981 33.3997 33.1407 26.8252" stroke="white" stroke-width="0.6" stroke-miterlimit="10"/>
<path d="M7.10112 14.5977C3.99092 21.5753 6.79833 29.792 13.5126 33.355" stroke="white" stroke-width="0.6" stroke-miterlimit="10"/>
<path d="M25.6972 7.15504C19.3387 4.5021 12.0041 6.76969 8.21484 12.5617" stroke="white" stroke-width="0.6" stroke-miterlimit="10"/>
<path d="M9.16211 25.0883C11.3199 30.409 16.9082 33.4473 22.5025 32.3387C28.0967 31.2301 32.13 26.2858 32.13 20.5383C32.13 19.9099 32.083 19.2933 31.986 18.6738" stroke="white" stroke-width="0.6" stroke-miterlimit="10"/>
<path d="M15.8411 9.34521C10.4761 11.4705 7.38946 17.1618 8.50066 22.8619" stroke="white" stroke-width="0.6" stroke-miterlimit="10"/>
<path d="M31.4088 16.4212C29.4186 10.9107 23.7773 7.65311 18.0566 8.70539" stroke="white" stroke-width="0.6" stroke-miterlimit="10"/>
<path d="M27.9265 26.0958C29.0759 24.4744 29.6933 22.5299 29.6933 20.535C29.6933 18.1103 28.779 15.7745 27.1387 14.002" stroke="white" stroke-width="0.6" stroke-miterlimit="10"/>
<path d="M12.4368 15.0396C9.68814 18.9849 10.282 24.3767 13.8214 27.6195C17.3608 30.8623 22.7375 30.9453 26.371 27.8122" stroke="white" stroke-width="0.6" stroke-miterlimit="10"/>
<path d="M25.3708 12.5113C21.8197 10.1874 17.172 10.5135 13.9766 13.3146" stroke="white" stroke-width="0.6" stroke-miterlimit="10"/>
<path d="M5.18176 33.0153C5.35872 33.0153 5.50218 32.8707 5.50218 32.6922C5.50218 32.5138 5.35872 32.3691 5.18176 32.3691C5.00479 32.3691 4.86133 32.5138 4.86133 32.6922C4.86133 32.8707 5.00479 33.0153 5.18176 33.0153Z" fill="#FFAA00"/>
<path d="M17.3204 39.9128C17.4974 39.9128 17.6409 39.7681 17.6409 39.5897C17.6409 39.4113 17.4974 39.2666 17.3204 39.2666C17.1435 39.2666 17 39.4113 17 39.5897C17 39.7681 17.1435 39.9128 17.3204 39.9128Z" fill="#FFAA00"/>
<path d="M24.7286 1.89717C24.9056 1.89717 25.0491 1.75251 25.0491 1.57407C25.0491 1.39563 24.9056 1.25098 24.7286 1.25098C24.5517 1.25098 24.4082 1.39563 24.4082 1.57407C24.4082 1.75251 24.5517 1.89717 24.7286 1.89717Z" fill="#FFAA00"/>
<path d="M1.57238 15.3396C1.74935 15.3396 1.89281 15.1949 1.89281 15.0165C1.89281 14.838 1.74935 14.6934 1.57238 14.6934C1.39541 14.6934 1.25195 14.838 1.25195 15.0165C1.25195 15.1949 1.39541 15.3396 1.57238 15.3396Z" fill="#FFAA00"/>
<path d="M38.8614 24.7927C39.0384 24.7927 39.1819 24.648 39.1819 24.4696C39.1819 24.2911 39.0384 24.1465 38.8614 24.1465C38.6845 24.1465 38.541 24.2911 38.541 24.4696C38.541 24.648 38.6845 24.7927 38.8614 24.7927Z" fill="#FFAA00"/>
<path d="M32.5665 9.40547C32.7435 9.40547 32.8869 9.26081 32.8869 9.08237C32.8869 8.90393 32.7435 8.75928 32.5665 8.75928C32.3896 8.75928 32.2461 8.90393 32.2461 9.08237C32.2461 9.26081 32.3896 9.40547 32.5665 9.40547Z" fill="#FFAA00"/>
<path d="M5.6798 29.4758C5.85677 29.4758 6.00023 29.3311 6.00023 29.1527C6.00023 28.9742 5.85677 28.8296 5.6798 28.8296C5.50284 28.8296 5.35938 28.9742 5.35938 29.1527C5.35938 29.3311 5.50284 29.4758 5.6798 29.4758Z" fill="#FFAA00"/>
<path d="M12.0665 5.80977C12.2435 5.80977 12.3869 5.66511 12.3869 5.48667C12.3869 5.30823 12.2435 5.16357 12.0665 5.16357C11.8896 5.16357 11.7461 5.30823 11.7461 5.48667C11.7461 5.66511 11.8896 5.80977 12.0665 5.80977Z" fill="#FFAA00"/>
<path d="M28.3087 35.4694C28.4857 35.4694 28.6291 35.3248 28.6291 35.1463C28.6291 34.9679 28.4857 34.8232 28.3087 34.8232C28.1317 34.8232 27.9883 34.9679 27.9883 35.1463C27.9883 35.3248 28.1317 35.4694 28.3087 35.4694Z" fill="#FFAA00"/>
<path d="M19.2755 36.406C19.4525 36.406 19.5959 36.2613 19.5959 36.0829C19.5959 35.9044 19.4525 35.7598 19.2755 35.7598C19.0985 35.7598 18.9551 35.9044 18.9551 36.0829C18.9551 36.2613 19.0985 36.406 19.2755 36.406Z" fill="#FFAA00"/>
<path d="M33.4571 25.9338C33.6341 25.9338 33.7776 25.7891 33.7776 25.6107C33.7776 25.4323 33.6341 25.2876 33.4571 25.2876C33.2802 25.2876 33.1367 25.4323 33.1367 25.6107C33.1367 25.7891 33.2802 25.9338 33.4571 25.9338Z" fill="#FFAA00"/>
<path d="M7.47277 13.7331C7.64974 13.7331 7.7932 13.5885 7.7932 13.41C7.7932 13.2316 7.64974 13.0869 7.47277 13.0869C7.2958 13.0869 7.15234 13.2316 7.15234 13.41C7.15234 13.5885 7.2958 13.7331 7.47277 13.7331Z" fill="#FFAA00"/>
<path d="M14.4103 34.029C14.5872 34.029 14.7307 33.8844 14.7307 33.7059C14.7307 33.5275 14.5872 33.3828 14.4103 33.3828C14.2333 33.3828 14.0898 33.5275 14.0898 33.7059C14.0898 33.8844 14.2333 34.029 14.4103 34.029Z" fill="#FFAA00"/>
<path d="M26.5978 7.8166C26.7747 7.8166 26.9182 7.67195 26.9182 7.49351C26.9182 7.31507 26.7747 7.17041 26.5978 7.17041C26.4208 7.17041 26.2773 7.31507 26.2773 7.49351C26.2773 7.67195 26.4208 7.8166 26.5978 7.8166Z" fill="#FFAA00"/>
<path d="M16.7892 9.14766C16.9661 9.14766 17.1096 9.003 17.1096 8.82456C17.1096 8.64612 16.9661 8.50146 16.7892 8.50146C16.6122 8.50146 16.4688 8.64612 16.4688 8.82456C16.4688 9.003 16.6122 9.14766 16.7892 9.14766Z" fill="#FFAA00"/>
<path d="M8.63293 24.1672C8.80989 24.1672 8.95336 24.0225 8.95336 23.8441C8.95336 23.6656 8.80989 23.521 8.63293 23.521C8.45596 23.521 8.3125 23.6656 8.3125 23.8441C8.3125 24.0225 8.45596 24.1672 8.63293 24.1672Z" fill="#FFAA00"/>
<path d="M31.6036 17.7082C31.7806 17.7082 31.9241 17.5635 31.9241 17.3851C31.9241 17.2067 31.7806 17.062 31.6036 17.062C31.4267 17.062 31.2832 17.2067 31.2832 17.3851C31.2832 17.5635 31.4267 17.7082 31.6036 17.7082Z" fill="#FFAA00"/>
<path d="M26.1544 13.3806C26.3314 13.3806 26.4748 13.2359 26.4748 13.0575C26.4748 12.879 26.3314 12.7344 26.1544 12.7344C25.9774 12.7344 25.834 12.879 25.834 13.0575C25.834 13.2359 25.9774 13.3806 26.1544 13.3806Z" fill="#FFAA00"/>
<path d="M27.0528 27.176C27.2298 27.176 27.3733 27.0313 27.3733 26.8529C27.3733 26.6744 27.2298 26.5298 27.0528 26.5298C26.8759 26.5298 26.7324 26.6744 26.7324 26.8529C26.7324 27.0313 26.8759 27.176 27.0528 27.176Z" fill="#FFAA00"/>
<path d="M13.0079 14.3054C13.1849 14.3054 13.3284 14.1607 13.3284 13.9823C13.3284 13.8038 13.1849 13.6592 13.0079 13.6592C12.831 13.6592 12.6875 13.8038 12.6875 13.9823C12.6875 14.1607 12.831 14.3054 13.0079 14.3054Z" fill="#FFAA00"/>
<path d="M20.7117 24.3563C19.3594 23.4541 18.6405 21.9459 19.084 20.6187C19.315 19.928 19.6641 19.3089 20.0513 18.7028C20.4764 18.037 20.9383 17.393 21.3244 16.7055C22.0824 15.3556 22.0845 13.9699 21.4013 12.583C21.3536 12.4865 21.307 12.389 21.268 12.2892C21.2571 12.2621 21.2756 12.2252 21.2951 12.106C21.9501 12.904 22.4543 13.7161 22.7308 14.6508C23.3164 16.6329 23.0149 18.4426 21.6464 20.043C20.9058 20.9082 20.3712 21.8646 20.4026 23.0573C20.4145 23.4791 20.5696 23.8608 20.7117 24.3563Z" fill="#F89925"/>
<path d="M17.9275 19.981C17.8928 20.1609 17.8787 20.264 17.8527 20.3637C17.5122 21.6811 17.9373 22.7611 18.884 23.6773C19.3221 24.1013 19.7884 24.4949 20.1798 24.9676C21.2935 26.3089 21.236 27.5482 19.9272 28.8711C20.4325 27.391 19.7244 26.4422 18.6823 25.6301C16.8171 24.1772 16.8106 21.7679 17.7518 20.0916C17.767 20.0655 17.8093 20.0547 17.9275 19.981Z" fill="#F89925"/>
</g>
<defs>
<clipPath id="clip0_11490_150289">
<rect width="40" height="40" fill="white" transform="translate(0 0.5)"/>
</clipPath>
</defs>
</svg>
