<?xml version="1.0" standalone="no"?>
<!DOCTYPE svg PUBLIC "-//W3C//DTD SVG 20010904//EN"
 "http://www.w3.org/TR/2001/REC-SVG-20010904/DTD/svg10.dtd">
<svg version="1.0" xmlns="http://www.w3.org/2000/svg"
 width="507.000000pt" height="507.000000pt" viewBox="0 0 507.000000 507.000000"
 preserveAspectRatio="xMidYMid meet">

<g transform="translate(0.000000,507.000000) scale(0.100000,-0.100000)"
fill="#000000" stroke="none">
<path d="M0 2535 l0 -2535 2535 0 2535 0 0 2535 0 2535 -2535 0 -2535 0 0
-2535z m1145 2126 c48 -21 89 -67 103 -113 6 -18 13 -66 17 -105 l6 -73 -80 0
-81 0 0 33 c-1 88 -29 136 -81 137 -66 0 -88 -55 -89 -219 l0 -105 36 35 c34
33 38 34 112 34 93 0 128 -20 164 -93 22 -44 23 -59 23 -228 l0 -181 -30 -49
c-44 -70 -96 -97 -201 -102 -72 -4 -89 -1 -137 21 -56 26 -93 65 -118 127 -20
50 -20 697 0 753 18 52 67 106 116 128 55 25 185 25 240 0z m615 6 c31 -15 49
-65 49 -135 1 -97 -33 -142 -110 -142 l-29 0 0 -75 0 -75 -35 0 -35 0 0 220 0
220 68 0 c37 0 78 -6 92 -13z m260 -17 c0 -29 -1 -30 -50 -30 l-50 0 0 -65 0
-65 35 0 c31 0 35 -3 35 -25 0 -22 -4 -25 -35 -25 l-35 0 0 -70 0 -70 51 0
c49 0 50 -1 47 -27 l-3 -28 -85 0 -85 0 -3 205 c-1 112 0 210 2 217 4 9 31 13
91 13 l85 0 0 -30z m229 -184 c22 -117 41 -216 41 -220 0 -4 -17 -6 -37 -4
-35 3 -38 6 -43 38 -5 33 -7 35 -47 38 l-42 3 -3 -38 c-3 -35 -6 -38 -35 -41
-26 -3 -33 0 -33 15 0 18 68 388 75 411 3 7 21 12 43 12 l40 0 41 -214z m242
195 c18 -14 23 -31 27 -80 l4 -61 -31 0 c-26 0 -31 4 -31 24 0 42 -18 76 -40
76 -31 0 -40 -38 -40 -160 0 -121 9 -160 39 -160 26 0 41 29 41 79 0 39 2 41
30 41 l30 0 0 -61 c0 -54 -3 -64 -29 -90 -32 -32 -79 -38 -125 -18 -44 20 -56
64 -56 201 0 138 11 190 43 213 31 21 109 20 138 -4z m247 -13 c3 -26 1 -27
-50 -30 l-53 -3 0 -60 0 -60 38 -3 c31 -3 37 -7 37 -27 0 -20 -6 -24 -37 -27
l-38 -3 0 -65 0 -65 53 -3 c51 -3 53 -4 50 -30 -3 -27 -3 -27 -88 -27 l-85 0
-3 218 -2 218 87 -3 c87 -3 88 -3 91 -30z m412 -159 l0 -191 -29 -29 c-38 -37
-97 -40 -136 -6 -23 19 -28 33 -32 90 l-6 67 37 0 36 0 0 -47 c0 -60 13 -82
37 -67 16 10 18 31 21 193 l2 181 35 0 35 0 0 -191z m110 18 c0 -183 7 -213
46 -205 18 3 19 15 24 188 l5 185 33 3 32 3 0 -191 0 -192 -29 -29 c-33 -33
-83 -39 -130 -15 -45 24 -51 51 -51 246 l0 180 35 0 35 0 0 -173z m355 148
c18 -18 25 -35 25 -65 0 -37 -2 -40 -28 -40 -23 0 -30 6 -37 33 -8 25 -15 32
-35 32 -20 0 -26 -6 -28 -28 -3 -23 7 -40 53 -87 78 -83 102 -148 74 -203 -19
-38 -51 -57 -97 -57 -35 0 -49 6 -73 29 -24 25 -29 37 -29 81 l0 51 33 -3 c30
-3 32 -6 37 -48 4 -40 8 -45 30 -45 22 0 25 5 28 39 3 35 -2 44 -46 90 -69 71
-82 94 -82 142 0 31 7 51 26 73 22 27 32 31 75 31 40 0 55 -5 74 -25z m245 -5
c0 -27 -3 -30 -30 -30 l-30 0 0 -190 0 -190 -35 0 -35 0 -2 188 -3 187 -27 3
c-24 3 -28 8 -28 33 l0 29 95 0 95 0 0 -30z m105 -190 l0 -215 -35 0 -35 0 -3
205 c-1 112 0 210 3 218 3 8 17 12 37 10 l33 -3 0 -215z m229 189 c20 -24 26
-41 26 -80 l0 -50 -32 3 c-31 3 -33 6 -38 48 -4 33 -10 46 -23 48 -41 8 -47
-13 -47 -158 0 -147 7 -169 50 -155 17 5 20 15 20 61 l0 54 36 0 36 0 -4 -66
c-4 -58 -8 -70 -32 -90 -48 -42 -139 -25 -164 31 -7 16 -12 79 -12 166 0 188
15 218 112 219 40 0 50 -4 72 -31z m236 1 c0 -29 -1 -30 -50 -30 l-51 0 3 -62
c3 -63 3 -63 36 -66 26 -3 32 -8 32 -27 0 -19 -6 -24 -32 -27 l-33 -3 0 -65 0
-65 48 -3 c45 -3 47 -5 47 -33 l0 -29 -85 0 -85 0 0 220 0 220 85 0 85 0 0
-30z m-3760 -495 l0 -515 -85 0 -85 0 0 390 c0 232 -4 390 -9 390 -5 0 -31
-25 -56 -55 -26 -30 -51 -55 -56 -55 -5 0 -9 38 -9 85 l0 86 81 94 81 95 69 0
69 0 0 -515z m2162 108 c-13 -36 -23 -49 -41 -51 -22 -4 -24 -1 -18 35 4 21 7
44 7 51 0 7 14 12 35 12 l35 0 -18 -47z m-215 -218 c16 -18 23 -39 23 -66 0
-39 -1 -40 -32 -37 -28 3 -33 7 -36 33 -4 38 -15 49 -41 40 -15 -5 -21 -15
-21 -37 0 -25 13 -45 59 -93 37 -38 63 -75 70 -99 27 -100 -35 -171 -127 -146
-52 14 -72 42 -72 102 0 47 1 48 30 48 24 0 30 -4 30 -22 0 -59 27 -91 56 -67
24 20 17 73 -12 100 -15 13 -44 46 -65 72 -33 41 -39 56 -39 96 0 78 40 115
115 106 27 -2 47 -12 62 -30z m690 15 c42 -25 53 -67 53 -205 0 -187 -22 -222
-138 -216 -13 1 -37 14 -53 30 l-29 29 0 151 c0 166 6 192 54 215 42 21 75 20
113 -4z m531 -15 c16 -19 22 -39 22 -71 0 -42 -1 -44 -29 -44 -25 0 -29 4 -35
40 -6 36 -9 40 -35 40 -17 0 -31 -6 -35 -16 -9 -24 -7 -267 3 -282 4 -8 19
-12 32 -10 21 3 24 9 27 56 2 42 0 52 -12 52 -11 0 -16 10 -16 30 0 29 1 30
50 30 l50 0 0 -115 0 -115 -25 0 c-17 0 -25 6 -25 17 0 15 -2 15 -17 0 -22
-19 -49 -23 -86 -14 -46 12 -57 55 -57 215 0 128 2 142 23 173 37 56 122 63
165 14z m-2084 8 c7 -26 76 -388 76 -402 0 -6 -15 -11 -34 -11 -36 0 -46 12
-46 56 0 21 -4 24 -40 24 -39 0 -40 -1 -46 -40 -6 -37 -9 -40 -40 -40 -19 0
-34 3 -34 7 0 11 70 386 76 406 4 12 16 17 44 17 28 0 40 -5 44 -17z m218 -95
l36 -113 1 113 1 112 30 0 30 0 0 -216 0 -215 -31 3 c-31 3 -32 5 -68 121
l-36 118 -3 -120 -3 -121 -34 0 -35 0 0 215 0 215 38 0 38 0 36 -112z m329 83
l29 -29 0 -157 0 -157 -29 -29 c-28 -27 -34 -29 -110 -29 l-81 0 0 215 0 215
81 0 c76 0 82 -2 110 -29z m559 -1 c0 -27 -3 -30 -30 -30 l-30 0 0 -185 0
-185 -40 0 -40 0 0 185 0 185 -25 0 c-21 0 -25 5 -25 30 l0 30 95 0 95 0 0
-30z m208 10 c25 -24 36 -75 29 -138 -4 -41 -20 -65 -48 -74 -5 -2 7 -47 26
-100 l35 -98 -39 0 -39 0 -30 88 -30 87 -1 -87 -1 -88 -40 0 -40 0 0 215 0
215 78 0 c64 0 82 -4 100 -20z m440 -97 l40 -118 1 118 1 117 30 0 30 0 0
-215 0 -215 -33 0 -33 0 -41 128 -41 127 -1 -127 -1 -128 -30 0 -30 0 0 215 0
215 34 0 34 0 40 -117z m-1838 -703 l0 -220 -35 0 -35 0 0 220 0 220 35 0 35
0 0 -220z m152 100 l37 -115 1 118 0 117 30 0 30 0 0 -220 0 -220 -30 0 c-29
0 -30 2 -72 133 l-43 132 -3 -133 -3 -133 -27 3 -27 3 -3 218 -2 218 37 -3 37
-3 38 -115z m313 95 c14 -13 25 -32 25 -42 0 -10 3 -28 6 -40 6 -21 3 -23 -30
-23 -31 0 -36 3 -36 23 0 33 -15 49 -41 45 -18 -2 -25 -10 -27 -31 -3 -21 8
-39 51 -85 77 -82 87 -100 87 -155 0 -40 -5 -53 -29 -78 -24 -24 -38 -29 -76
-29 -38 0 -52 5 -76 29 -24 25 -29 37 -29 80 l0 51 35 0 c35 0 35 0 35 -45 0
-49 19 -67 49 -48 32 21 17 69 -44 134 -31 34 -61 73 -66 86 -17 44 -10 90 17
122 22 27 32 31 75 31 40 0 55 -5 74 -25z m245 -5 c0 -27 -3 -30 -30 -30 l-30
0 0 -190 0 -190 -35 0 -35 0 0 190 0 190 -30 0 c-27 0 -30 3 -30 30 l0 30 95
0 95 0 0 -30z m108 -187 l-3 -218 -32 -3 -33 -3 0 220 0 221 35 0 35 0 -2
-217z m230 185 c3 -25 0 -28 -27 -28 l-31 0 -2 -187 -3 -188 -35 0 -35 0 -3
188 -2 187 -30 0 c-27 0 -30 3 -30 30 l0 31 98 -3 97 -3 3 -27z m102 -147 c0
-191 5 -210 49 -196 20 6 21 15 23 188 l3 182 33 3 33 3 -3 -196 -3 -197 -28
-24 c-49 -42 -134 -29 -162 25 -12 24 -15 67 -15 211 l0 180 35 0 35 0 0 -179z
m368 147 c3 -25 0 -28 -27 -28 l-31 0 -2 -187 -3 -188 -35 0 -35 0 -3 188 -2
187 -30 0 c-27 0 -30 3 -30 30 l0 31 98 -3 97 -3 3 -27z m102 -188 l0 -220
-35 0 -35 0 0 220 0 220 35 0 35 0 0 -220z m231 191 l29 -29 0 -161 c0 -155
-1 -161 -24 -188 -21 -24 -31 -28 -80 -28 -93 0 -116 42 -115 210 0 175 26
225 115 225 37 0 51 -6 75 -29z m179 -78 c18 -60 37 -112 41 -118 5 -5 9 43 9
109 l0 117 28 -3 27 -3 0 -215 0 -215 -30 0 c-30 0 -31 2 -72 125 l-41 125 -4
-125 -3 -125 -27 -3 -28 -3 0 220 0 221 33 0 34 0 33 -107z m314 85 c17 -15
28 -38 32 -65 l7 -43 -36 0 c-33 0 -36 2 -39 33 -5 54 -67 49 -68 -6 0 -10 26
-46 59 -80 72 -76 81 -93 81 -152 0 -83 -71 -127 -155 -95 -31 12 -57 68 -53
114 3 27 7 31 36 34 31 3 32 2 32 -32 0 -19 3 -41 6 -50 8 -21 50 -21 58 0 15
40 4 65 -54 128 -65 69 -84 111 -74 164 13 69 113 98 168 50z m-292 -638 c-8
-82 -67 -140 -142 -140 -25 0 -30 4 -30 25 0 69 48 130 115 146 51 12 60 7 57
-31z m-267 -50 c26 -51 14 -143 -20 -157 -22 -8 -72 41 -86 84 -12 37 -5 86
17 121 l15 23 30 -21 c16 -12 36 -34 44 -50z m-166 -106 c41 -34 58 -91 43
-143 -17 -56 -33 -66 -66 -40 -54 43 -72 120 -41 179 19 37 25 37 64 4z m242
-33 c-6 -10 -48 -60 -94 -109 -79 -86 -137 -179 -137 -219 0 -11 18 -30 42
-46 l42 -27 -48 0 -47 0 6 -47 c7 -48 21 -112 32 -139 3 -8 -1 -14 -9 -14 -17
0 -37 61 -45 137 -7 61 -10 62 -85 33 -119 -45 -168 -140 -168 -324 -1 -231
-64 -367 -223 -473 -83 -56 -214 -107 -318 -125 l-69 -12 0 -123 0 -123 216 0
c119 0 268 5 330 12 l114 12 0 72 c0 62 3 75 19 84 12 6 104 10 230 10 206 0
210 0 225 -22 13 -19 16 -58 16 -230 0 -202 0 -207 -22 -222 -19 -13 -58 -16
-226 -16 -121 0 -211 4 -223 10 -16 9 -19 22 -19 84 l0 73 -137 13 c-114 11
-242 11 -723 2 -322 -7 -627 -12 -678 -12 l-93 0 3 77 3 78 155 -3 c85 -1 253
-5 373 -8 l217 -7 0 114 0 114 -109 21 c-121 24 -197 55 -341 143 -52 32 -112
67 -134 78 l-39 20 104 -1 c117 0 163 15 279 94 74 50 156 90 190 91 14 0 -6
9 -43 20 -97 28 -144 54 -202 115 -71 73 -110 160 -156 346 -59 238 -93 314
-162 357 l-31 19 38 7 c47 9 166 -1 243 -20 129 -33 228 -96 408 -257 114
-103 193 -146 288 -155 122 -11 204 26 357 160 98 86 173 127 234 127 43 0 52
-5 100 -50 56 -53 66 -58 66 -36 0 7 12 36 28 65 30 58 200 251 220 251 9 0
10 -5 3 -19z m146 -52 c24 -11 43 -24 43 -28 0 -13 -34 -40 -72 -55 -38 -16
-86 -9 -123 18 -20 14 -20 14 0 36 21 24 69 49 94 50 8 0 34 -9 58 -21z m-117
-159 c38 -27 38 -45 0 -65 -49 -25 -94 -22 -135 9 -42 32 -41 45 6 69 41 22
87 17 129 -13z m15 -1065 c31 -30 32 -58 3 -85 -21 -19 -34 -20 -263 -20 -201
0 -244 3 -263 16 -31 22 -29 67 4 93 25 20 39 21 261 21 l234 0 24 -25z
m-2187 -287 c7 -7 12 -44 12 -97 0 -96 -13 -121 -63 -121 -55 0 -67 22 -67
120 0 53 5 91 12 98 16 16 90 16 106 0z m2192 -408 c26 -26 25 -62 -1 -86 -20
-18 -39 -19 -264 -19 -225 0 -244 1 -264 19 -25 23 -27 63 -4 88 15 16 37 18
265 18 235 0 249 -1 268 -20z"/>
<path d="M1002 4152 c-45 -7 -57 -45 -57 -182 0 -69 3 -137 7 -151 14 -47 88
-64 126 -29 29 27 35 71 30 205 -5 142 -24 169 -106 157z"/>
<path d="M1670 4534 l0 -85 28 3 c26 3 27 5 30 77 3 77 -3 91 -40 91 -16 0
-18 -11 -18 -86z"/>
<path d="M2152 4479 c-17 -93 -16 -99 13 -99 29 0 30 6 11 100 l-12 65 -12
-66z"/>
<path d="M3226 4004 c-13 -12 -16 -41 -16 -147 0 -73 4 -138 9 -145 4 -8 19
-12 32 -10 24 3 24 4 27 150 2 137 1 148 -17 157 -15 8 -23 7 -35 -5z"/>
<path d="M1696 3891 c-4 -30 -10 -67 -13 -82 -5 -26 -3 -29 22 -29 27 0 27 0
21 54 -4 30 -11 67 -15 82 -7 26 -8 24 -15 -25z"/>
<path d="M2190 3855 l0 -155 23 0 c42 0 47 16 47 155 0 139 -5 155 -47 155
l-23 0 0 -155z"/>
<path d="M2970 3945 c0 -63 1 -66 23 -63 20 3 22 8 22 63 0 55 -2 60 -22 63
-22 3 -23 0 -23 -63z"/>
<path d="M3415 3388 c-3 -13 -4 -81 -3 -152 3 -107 6 -131 20 -139 12 -8 21
-7 32 2 13 11 16 38 16 150 0 93 -4 141 -12 149 -19 19 -47 14 -53 -10z"/>
<path d="M2257 1243 c-4 -3 -7 -55 -7 -115 l0 -108 45 0 45 0 0 115 0 115 -38
0 c-21 0 -42 -3 -45 -7z"/>
</g>
</svg>
