<?xml version="1.0" standalone="no"?>
<!DOCTYPE svg PUBLIC "-//W3C//DTD SVG 20010904//EN"
 "http://www.w3.org/TR/2001/REC-SVG-20010904/DTD/svg10.dtd">
<svg version="1.0" xmlns="http://www.w3.org/2000/svg"
 width="513.000000pt" height="509.000000pt" viewBox="0 0 513.000000 509.000000"
 preserveAspectRatio="xMidYMid meet">
<metadata>
Created by potrace 1.15, written by Peter Selinger 2001-2017
</metadata>
<g transform="translate(0.000000,509.000000) scale(0.100000,-0.100000)"
fill="#000000" stroke="none">
<path d="M0 2545 l0 -2545 2565 0 2565 0 0 2545 0 2545 -2565 0 -2565 0 0
-2545z m970 2055 c0 -68 -14 -133 -101 -467 -55 -213 -107 -412 -115 -440
l-15 -53 -84 0 c-47 0 -85 2 -85 3 0 5 219 846 226 869 5 16 -7 18 -128 20
l-133 3 -3 59 c-2 32 -1 65 2 72 4 11 48 14 221 14 l215 0 0 -80z m650 76 c0
-3 18 -98 40 -213 22 -114 40 -211 40 -215 0 -5 -16 -8 -35 -8 -30 0 -35 4
-41 28 -11 52 -12 53 -51 50 -35 -3 -38 -6 -43 -38 -4 -31 -9 -35 -37 -38 -22
-2 -33 1 -33 10 0 14 69 395 75 416 4 11 85 19 85 8z m280 -25 c0 -28 -2 -30
-47 -33 l-48 -3 0 -60 0 -60 38 -3 c35 -3 38 -6 35 -30 -3 -23 -8 -27 -40 -30
l-38 -3 0 -95 0 -94 -35 0 -35 0 0 213 c0 118 3 217 7 220 3 4 42 7 85 7 l78
0 0 -29z m200 -1 c0 -29 -2 -30 -45 -30 l-45 0 0 -65 0 -65 35 0 c32 0 35 -2
35 -30 0 -28 -3 -30 -35 -30 l-34 0 -3 -92 -3 -93 -35 0 -35 0 -3 205 c-1 112
0 210 2 217 4 9 30 13 86 13 l80 0 0 -30z m199 14 c40 -28 51 -73 51 -203 0
-172 -24 -221 -110 -221 -46 0 -78 17 -95 49 -20 40 -21 303 -1 340 27 49 109
67 155 35z m260 -3 c49 -26 53 -169 6 -207 l-26 -21 30 -83 c17 -46 31 -90 31
-97 0 -8 -13 -13 -34 -13 l-34 0 -33 98 -34 97 -3 -97 -3 -98 -34 0 -35 0 0
221 0 222 74 -6 c41 -3 83 -10 95 -16z m244 4 c37 -15 47 -57 47 -205 0 -165
-9 -193 -68 -210 -20 -6 -62 -10 -92 -8 l-55 3 -3 205 c-1 112 0 211 3 219 4
11 21 13 78 8 39 -3 80 -9 90 -12z m269 -175 c20 -102 39 -200 43 -217 6 -32
5 -33 -30 -33 -36 0 -38 3 -49 53 -6 24 -11 27 -46 27 -36 0 -40 -3 -40 -24 0
-42 -11 -56 -41 -56 -23 0 -29 4 -29 22 0 22 67 381 75 406 3 9 18 12 42 10
l38 -3 37 -185z m256 155 c28 -33 32 -128 5 -157 -15 -17 -15 -20 5 -39 18
-16 22 -31 22 -79 0 -106 -27 -130 -146 -130 l-64 0 0 221 0 222 78 -6 c67 -5
80 -9 100 -32z m142 -155 l0 -190 45 0 c43 0 45 -1 45 -30 l0 -30 -80 0 -80 0
0 220 0 220 35 0 35 0 0 -190z m290 161 c0 -28 -2 -30 -47 -33 l-48 -3 0 -60
0 -60 38 -3 c35 -3 38 -6 35 -30 -3 -23 -8 -27 -41 -30 l-38 -3 3 -62 3 -62
48 -3 c45 -3 47 -5 47 -33 l0 -29 -85 0 -85 0 0 213 c0 118 3 217 7 220 3 4
42 7 85 7 l78 0 0 -29z m264 12 c8 -28 76 -393 76 -409 0 -9 -12 -14 -35 -14
-33 0 -35 2 -41 40 -6 39 -8 40 -45 40 -37 0 -39 -1 -45 -40 -6 -37 -9 -40
-40 -40 -19 0 -34 3 -34 8 0 4 18 102 40 217 22 115 40 211 40 212 0 2 18 3
39 3 29 0 41 -5 45 -17z m218 -103 l37 -115 3 115 3 115 28 3 27 3 0 -220 0
-221 -30 0 c-29 0 -30 2 -67 123 l-38 122 -5 -120 -5 -120 -30 0 -30 0 -3 205
c-1 112 0 210 3 218 3 8 17 12 37 10 32 -3 33 -5 70 -118z m311 105 c37 -15
47 -57 47 -205 0 -197 -16 -220 -151 -220 l-59 0 0 221 0 222 73 -6 c39 -3 80
-9 90 -12z m-2904 -618 c14 -15 24 -42 28 -75 l6 -52 -36 0 c-35 0 -36 1 -39
43 -3 39 -5 42 -33 42 l-30 0 -3 -147 c-2 -140 -2 -148 18 -158 33 -18 50 4
50 61 l0 49 35 0 c35 0 35 0 34 -42 -1 -106 -51 -152 -137 -128 -64 17 -72 40
-72 219 0 146 1 150 26 180 23 27 32 31 78 31 42 0 57 -5 75 -23z m141 -161
l0 -185 43 -3 c38 -3 42 -6 45 -30 l3 -28 -80 0 -81 0 0 215 0 215 35 0 35 0
0 -184z m290 154 c0 -29 -1 -30 -50 -30 l-50 0 0 -60 0 -60 35 0 c32 0 35 -2
35 -30 0 -28 -3 -30 -35 -30 l-35 0 0 -65 0 -65 50 0 c49 0 50 -1 50 -30 l0
-30 -85 0 -85 0 0 215 0 215 85 0 85 0 0 -30z m233 -173 c21 -111 37 -208 37
-214 0 -8 -14 -13 -34 -13 -32 0 -35 2 -41 40 -7 39 -8 40 -45 40 -37 0 -38
-1 -45 -40 -6 -38 -9 -40 -41 -40 -30 0 -34 3 -29 23 6 27 75 397 75 403 0 2
19 4 43 4 l42 0 38 -203z m183 86 l39 -118 3 118 3 117 29 0 30 0 0 -215 0
-215 -34 0 -34 0 -40 123 -40 122 -1 -122 -1 -123 -30 0 -30 0 0 215 0 215 34
0 33 0 39 -117z m384 87 c0 -29 -1 -30 -50 -30 l-50 0 0 -60 0 -60 35 0 c32 0
35 -2 35 -30 0 -28 -3 -30 -35 -30 l-35 0 0 -65 0 -65 50 0 c49 0 50 -1 50
-30 l0 -30 -90 0 -90 0 0 215 0 215 90 0 90 0 0 -30z m147 -87 l38 -118 3 118
3 117 29 0 30 0 0 -215 0 -215 -35 0 c-31 0 -35 3 -45 38 -5 20 -23 78 -40
127 l-29 90 -1 -127 0 -128 -30 0 -30 0 0 215 0 215 34 0 34 0 39 -117z m313
87 c0 -29 -1 -30 -50 -30 l-50 0 0 -60 0 -60 35 0 c32 0 35 -2 35 -30 0 -28
-3 -30 -35 -30 l-35 0 0 -65 0 -65 50 0 c49 0 50 -1 50 -30 l0 -30 -85 0 -85
0 0 215 0 215 85 0 85 0 0 -30z m215 6 c30 -30 42 -103 26 -157 -7 -21 -15
-39 -19 -39 -4 0 -13 -4 -20 -9 -11 -6 -7 -25 17 -95 17 -48 31 -92 31 -97 0
-6 -17 -9 -37 -7 -36 3 -36 3 -67 93 l-31 90 -3 -92 -3 -93 -34 0 -35 0 0 215
0 215 75 0 c67 0 79 -3 100 -24z m254 0 c15 -16 25 -42 28 -70 l6 -46 -36 0
c-34 0 -36 2 -39 38 -3 34 -6 37 -33 37 l-30 0 -3 -147 c-2 -140 -2 -148 18
-158 33 -17 50 4 50 60 0 40 -3 49 -21 53 -15 4 -20 12 -17 29 3 20 9 23 56
26 l52 3 0 -115 0 -116 -25 0 c-16 0 -25 6 -25 15 0 13 -6 11 -29 -6 -36 -26
-82 -19 -111 18 -18 23 -20 41 -20 180 0 199 11 222 106 223 41 0 55 -5 73
-24z m136 -43 c10 -38 21 -72 25 -76 4 -5 16 25 26 67 18 76 18 76 51 76 18 0
33 -4 33 -8 0 -5 -14 -53 -31 -108 -23 -72 -33 -127 -38 -204 l-6 -105 -37 -3
-38 -3 0 87 c0 82 -17 157 -75 332 -3 8 8 12 34 12 l38 0 18 -67z m-1331 -839
c13 -13 16 -46 16 -204 0 -184 -1 -189 -22 -204 -30 -21 -54 -20 -78 4 -19 19
-20 33 -20 202 0 155 2 184 17 200 20 22 66 24 87 2z m-626 -161 c29 -26 182
-298 182 -324 0 -51 -69 -79 -102 -41 -30 34 -178 302 -178 322 0 25 34 60 59
60 10 0 28 -8 39 -17z m1242 -3 c11 -11 20 -29 20 -40 0 -28 -167 -318 -190
-330 -43 -23 -90 5 -90 52 0 25 167 315 188 328 26 15 50 12 72 -10z m-445
-410 c249 -78 428 -259 507 -510 20 -64 23 -95 23 -215 -1 -127 -3 -148 -29
-220 -85 -247 -264 -418 -516 -496 -61 -19 -97 -24 -195 -23 -146 0 -215 16
-343 80 -381 191 -525 672 -310 1038 110 187 280 312 493 362 89 20 280 12
370 -16z m-1130 -116 c83 -47 156 -93 163 -102 28 -36 1 -92 -47 -92 -26 0
-279 137 -318 173 -13 11 -23 31 -23 44 0 27 33 63 58 63 10 0 85 -39 167 -86z
m2037 69 c29 -26 23 -68 -14 -96 -67 -49 -286 -167 -311 -167 -17 0 -32 9 -43
26 -32 48 -14 68 155 165 85 49 164 89 175 89 11 0 28 -7 38 -17z m-2002 -623
c24 -24 25 -48 4 -78 -15 -21 -20 -22 -204 -22 -158 0 -191 3 -204 16 -21 20
-20 63 1 86 14 16 35 18 200 18 170 0 184 -1 203 -20z m2167 -2 c27 -25 29
-45 7 -76 -15 -21 -20 -22 -203 -22 -204 0 -223 5 -223 54 0 14 8 36 17 46 17
19 32 20 198 20 172 0 182 -1 204 -22z m-2047 -458 c26 -26 25 -62 -2 -87 -41
-37 -293 -173 -321 -173 -18 0 -32 9 -43 26 -32 48 -13 68 156 165 85 49 163
89 172 89 10 0 27 -9 38 -20z m1723 -61 c78 -45 150 -88 160 -97 36 -31 10
-102 -38 -102 -27 0 -302 153 -327 182 -10 11 -18 29 -18 39 0 25 35 59 60 59
12 0 85 -37 163 -81z m-1385 -275 c14 -9 22 -26 22 -44 0 -29 -150 -304 -178
-327 -37 -30 -102 -1 -102 45 0 18 147 277 178 314 27 32 48 35 80 12z m912 6
c24 -13 190 -301 190 -331 0 -51 -69 -80 -102 -41 -30 35 -178 303 -178 322 0
22 37 60 58 60 7 0 22 -4 32 -10z m-438 -144 c4 -6 8 -95 8 -198 0 -182 -1
-187 -22 -202 -30 -21 -54 -20 -78 4 -19 19 -20 33 -20 203 0 194 2 204 50
219 16 6 51 -9 62 -26z"/>
<path d="M2212 4608 c-8 -8 -12 -56 -12 -148 0 -140 5 -160 42 -160 9 0 22 9
28 19 13 25 13 241 0 275 -10 28 -38 34 -58 14z"/>
<path d="M2710 4460 c0 -171 2 -176 51 -150 17 10 19 23 19 150 0 127 -2 140
-19 150 -49 26 -51 21 -51 -150z"/>
<path d="M4460 4460 l0 -160 23 0 c42 0 47 16 47 162 0 126 -2 138 -19 148
-49 26 -51 21 -51 -150z"/>
<path d="M2538 2369 c-16 -9 -18 -28 -18 -169 0 -157 0 -160 24 -175 30 -20
71 -6 79 27 4 13 7 82 7 153 0 102 -3 135 -16 153 -16 23 -48 28 -76 11z"/>
<path d="M2400 2227 c-25 -11 -73 -49 -106 -83 -233 -234 -79 -631 252 -652
109 -7 189 18 271 85 137 110 181 310 105 466 -38 76 -126 164 -190 189 l-42
16 0 -69 0 -69 54 -52 c90 -87 106 -188 50 -299 -96 -191 -375 -176 -459 24
-8 20 -15 64 -15 97 0 77 28 137 87 189 l44 39 -3 70 -3 70 -45 -21z"/>
</g>
</svg>
