<svg width="100" height="100" viewBox="0 0 100 100" fill="none" xmlns="http://www.w3.org/2000/svg">
<circle cx="50" cy="50" r="28" stroke="white" stroke-width="4"/>
<path d="M55.7141 43.8065C54.7784 38.0452 52.5715 34 50.0032 34C47.435 34 45.2281 38.0452 44.2924 43.8065H55.7141ZM43.8084 50C43.8084 51.4323 43.8859 52.8065 44.0214 54.129H55.9786C56.1141 52.8065 56.1916 51.4323 56.1916 50C56.1916 48.5677 56.1141 47.1935 55.9786 45.871H44.0214C43.8859 47.1935 43.8084 48.5677 43.8084 50ZM64.761 43.8065C62.9155 39.4258 59.1793 36.0387 54.5654 34.671C56.1399 36.8516 57.224 40.1355 57.7919 43.8065H64.761ZM45.4346 34.671C40.8272 36.0387 37.0845 39.4258 35.2454 43.8065H42.2146C42.776 40.1355 43.8601 36.8516 45.4346 34.671V34.671ZM65.4515 45.871H58.05C58.1855 47.2258 58.263 48.6129 58.263 50C58.263 51.3871 58.1855 52.7742 58.05 54.129H65.4451C65.8 52.8065 66 51.4323 66 50C66 48.5677 65.8 47.1935 65.4515 45.871ZM41.7435 50C41.7435 48.6129 41.8209 47.2258 41.9564 45.871H34.555C34.2065 47.1935 34 48.5677 34 50C34 51.4323 34.2065 52.8065 34.555 54.129H41.95C41.8209 52.7742 41.7435 51.3871 41.7435 50V50ZM44.2924 56.1935C45.2281 61.9548 47.435 66 50.0032 66C52.5715 66 54.7784 61.9548 55.7141 56.1935H44.2924ZM54.5719 65.329C59.1793 63.9613 62.922 60.5742 64.7675 56.1935H57.7983C57.2305 59.8645 56.1464 63.1484 54.5719 65.329ZM35.2454 56.1935C37.0909 60.5742 40.8272 63.9613 45.441 65.329C43.8665 63.1484 42.7824 59.8645 42.2146 56.1935H35.2454V56.1935Z" fill="white"/>
</svg>
