<svg width="100" height="100" viewBox="0 0 100 100" fill="none" xmlns="http://www.w3.org/2000/svg">
<path d="M44.3065 59.451L38.1042 53.2418C37.417 52.5539 36.3152 52.5519 35.6256 53.2374C34.9163 53.9425 34.9143 55.1028 35.6211 55.8104L44.3065 64.5055L64.4365 44.3531C65.1392 43.6496 65.1392 42.4966 64.4365 41.7931C63.75 41.1058 62.6489 41.1056 61.9621 41.7925L44.3065 59.451Z" fill="white"/>
<path d="M16 49.5658V47.5268C17.799 47.5268 19.054 47.1431 19.765 46.3757C20.4867 45.6084 20.8476 44.3258 20.8476 42.528V37.2661C20.8476 35.7533 20.9877 34.4433 21.2677 33.3361C21.5586 32.2289 22.0272 31.3135 22.6736 30.59C23.3199 29.8665 24.1817 29.3294 25.259 28.9786C25.9489 28.7539 26.7428 28.6012 27.6405 28.5204C28.5269 28.4406 29.2502 29.1739 29.2502 30.0638V30.0638C29.2502 30.9538 28.5211 31.6448 27.6465 31.8092C27.1227 31.9076 26.6716 32.0603 26.2931 32.2673C25.5821 32.6619 25.0758 33.2758 24.7742 34.1089C24.4833 34.9311 24.3379 35.9835 24.3379 37.2661V43.8434C24.3379 44.6985 24.2248 45.4768 23.9986 46.1784C23.7831 46.88 23.3792 47.4829 22.7867 47.9872C22.1942 48.4915 21.3485 48.8806 20.2497 49.1547C19.1617 49.4287 17.7451 49.5658 16 49.5658ZM29.2502 68.9362C29.2502 69.8261 28.5269 70.5594 27.6405 70.4796C26.7428 70.3988 25.9489 70.2461 25.259 70.0214C24.1817 69.6706 23.3199 69.1335 22.6736 68.41C22.0272 67.6865 21.5586 66.7711 21.2677 65.6639C20.9877 64.5567 20.8476 63.2467 20.8476 61.7339V56.472C20.8476 54.6742 20.4867 53.3916 19.765 52.6243C19.054 51.8569 17.799 51.4732 16 51.4732V49.4342C17.7451 49.4342 19.1617 49.5712 20.2497 49.8453C21.3485 50.1194 22.1942 50.5085 22.7867 51.0128C23.3792 51.5171 23.7831 52.12 23.9986 52.8216C24.2248 53.5232 24.3379 54.3015 24.3379 55.1565V61.7339C24.3379 63.0165 24.4833 64.0689 24.7742 64.8911C25.0758 65.7132 25.5821 66.3216 26.2931 66.7163C26.6717 66.9291 27.123 67.086 27.6469 67.1872C28.5207 67.3559 29.2502 68.0462 29.2502 68.9362V68.9362Z" fill="white"/>
<path d="M84 49.4342V51.4732C82.201 51.4732 80.9406 51.8569 80.2189 52.6243C79.5079 53.3916 79.1524 54.6742 79.1524 56.472V61.7339C79.1524 63.2467 79.0069 64.5567 78.7161 65.6639C78.436 66.7711 77.9728 67.6865 77.3264 68.41C76.6801 69.1335 75.8183 69.6706 74.741 70.0214C74.0511 70.2461 73.2572 70.3988 72.3595 70.4796C71.4731 70.5594 70.7498 69.8261 70.7498 68.9362V68.9362C70.7498 68.0462 71.4794 67.3566 72.353 67.1865C72.8727 67.0853 73.3186 66.9286 73.6907 66.7163C74.4125 66.3216 74.9188 65.7132 75.2096 64.8911C75.5113 64.0689 75.6621 63.0165 75.6621 61.7339V55.1565C75.6621 54.3015 75.7698 53.5232 75.9853 52.8216C76.2115 52.12 76.6208 51.5171 77.2133 51.0128C77.8058 50.5085 78.6461 50.1194 79.7341 49.8453C80.8329 49.5712 82.2549 49.4342 84 49.4342ZM70.7498 30.0638C70.7498 29.1739 71.4731 28.4406 72.3595 28.5204C73.2572 28.6012 74.0511 28.7539 74.741 28.9786C75.8183 29.3294 76.6801 29.8665 77.3264 30.59C77.9728 31.3135 78.436 32.2289 78.7161 33.3361C79.0069 34.4433 79.1524 35.7533 79.1524 37.2661V42.528C79.1524 44.3258 79.5079 45.6084 80.2189 46.3757C80.9406 47.1431 82.201 47.5268 84 47.5268V49.5658C82.2549 49.5658 80.8329 49.4287 79.7341 49.1547C78.6461 48.8806 77.8058 48.4915 77.2133 47.9872C76.6208 47.4829 76.2115 46.88 75.9853 46.1784C75.7698 45.4768 75.6621 44.6985 75.6621 43.8434V37.2661C75.6621 35.9835 75.5113 34.9311 75.2096 34.1089C74.9188 33.2758 74.4125 32.6619 73.6907 32.2673C73.3187 32.0608 72.873 31.9083 72.3535 31.8098C71.4791 31.6441 70.7498 30.9538 70.7498 30.0638V30.0638Z" fill="white"/>
</svg>
