<svg width="100" height="100" viewBox="0 0 100 100" fill="none" xmlns="http://www.w3.org/2000/svg">
<path d="M49.9997 53.6979C52.1084 53.6979 53.8178 52.0359 53.8178 49.9857C53.8178 47.9355 52.1084 46.2734 49.9997 46.2734C47.891 46.2734 46.1816 47.9355 46.1816 49.9857C46.1816 52.0359 47.891 53.6979 49.9997 53.6979Z" fill="white"/>
<path d="M49.9981 61.8746C51.684 61.8746 53.0507 60.5458 53.0507 58.9066C53.0507 57.2675 51.684 55.9387 49.9981 55.9387C48.3122 55.9387 46.9456 57.2675 46.9456 58.9066C46.9456 60.5458 48.3122 61.8746 49.9981 61.8746Z" fill="white"/>
<path d="M49.9981 44.0315C51.684 44.0315 53.0507 42.7028 53.0507 41.0636C53.0507 39.4245 51.684 38.0957 49.9981 38.0957C48.3122 38.0957 46.9456 39.4245 46.9456 41.0636C46.9456 42.7028 48.3122 44.0315 49.9981 44.0315Z" fill="white"/>
<path d="M50.0008 32.9222C51.0637 32.9222 51.9254 32.0844 51.9254 31.0509C51.9254 30.0175 51.0637 29.1797 50.0008 29.1797C48.9378 29.1797 48.0762 30.0175 48.0762 31.0509C48.0762 32.0844 48.9378 32.9222 50.0008 32.9222Z" fill="white"/>
<path d="M49.9966 23.2703C50.6414 23.2703 51.1641 22.762 51.1641 22.1351C51.1641 21.5082 50.6414 21 49.9966 21C49.3518 21 48.8291 21.5082 48.8291 22.1351C48.8291 22.762 49.3518 23.2703 49.9966 23.2703Z" fill="white"/>
<path d="M49.9966 78.9997C50.6414 78.9997 51.1641 78.4915 51.1641 77.8646C51.1641 77.2377 50.6414 76.7295 49.9966 76.7295C49.3518 76.7295 48.8291 77.2377 48.8291 77.8646C48.8291 78.4915 49.3518 78.9997 49.9966 78.9997Z" fill="white"/>
<path d="M25.1675 37.1814C25.8123 37.1814 26.335 36.6732 26.335 36.0463C26.335 35.4193 25.8123 34.9111 25.1675 34.9111C24.5227 34.9111 24 35.4193 24 36.0463C24 36.6732 24.5227 37.1814 25.1675 37.1814Z" fill="white"/>
<path d="M74.833 37.1814C75.4778 37.1814 76.0005 36.6732 76.0005 36.0463C76.0005 35.4193 75.4778 34.9111 74.833 34.9111C74.1882 34.9111 73.6655 35.4193 73.6655 36.0463C73.6655 36.6732 74.1882 37.1814 74.833 37.1814Z" fill="white"/>
<path d="M25.1675 65.0579C25.8123 65.0579 26.335 64.5497 26.335 63.9227C26.335 63.2958 25.8123 62.7876 25.1675 62.7876C24.5227 62.7876 24 63.2958 24 63.9227C24 64.5497 24.5227 65.0579 25.1675 65.0579Z" fill="white"/>
<path d="M74.833 65.0579C75.4778 65.0579 76.0005 64.5497 76.0005 63.9227C76.0005 63.2958 75.4778 62.7876 74.833 62.7876C74.1882 62.7876 73.6655 63.2958 73.6655 63.9227C73.6655 64.5497 74.1882 65.0579 74.833 65.0579Z" fill="white"/>
<path d="M66.5537 69.7082C67.1985 69.7082 67.7212 69.2 67.7212 68.5731C67.7212 67.9462 67.1985 67.438 66.5537 67.438C65.9089 67.438 65.3862 67.9462 65.3862 68.5731C65.3862 69.2 65.9089 69.7082 66.5537 69.7082Z" fill="white"/>
<path d="M66.5537 32.5327C67.1985 32.5327 67.7212 32.0245 67.7212 31.3976C67.7212 30.7707 67.1985 30.2625 66.5537 30.2625C65.9089 30.2625 65.3862 30.7707 65.3862 31.3976C65.3862 32.0245 65.9089 32.5327 66.5537 32.5327Z" fill="white"/>
<path d="M58.4321 74.2668C59.0769 74.2668 59.5996 73.7586 59.5996 73.1317C59.5996 72.5048 59.0769 71.9966 58.4321 71.9966C57.7874 71.9966 57.2646 72.5048 57.2646 73.1317C57.2646 73.7586 57.7874 74.2668 58.4321 74.2668Z" fill="white"/>
<path d="M41.7193 74.2668C42.3641 74.2668 42.8868 73.7586 42.8868 73.1317C42.8868 72.5048 42.3641 71.9966 41.7193 71.9966C41.0745 71.9966 40.5518 72.5048 40.5518 73.1317C40.5518 73.7586 41.0745 74.2668 41.7193 74.2668Z" fill="white"/>
<path d="M41.7193 27.9797C42.3641 27.9797 42.8868 27.4715 42.8868 26.8446C42.8868 26.2177 42.3641 25.7095 41.7193 25.7095C41.0745 25.7095 40.5518 26.2177 40.5518 26.8446C40.5518 27.4715 41.0745 27.9797 41.7193 27.9797Z" fill="white"/>
<path d="M33.6021 69.7082C34.2469 69.7082 34.7696 69.2 34.7696 68.5731C34.7696 67.9462 34.2469 67.438 33.6021 67.438C32.9573 67.438 32.4346 67.9462 32.4346 68.5731C32.4346 69.2 32.9573 69.7082 33.6021 69.7082Z" fill="white"/>
<path d="M33.6021 32.5327C34.2469 32.5327 34.7696 32.0245 34.7696 31.3976C34.7696 30.7707 34.2469 30.2625 33.6021 30.2625C32.9573 30.2625 32.4346 30.7707 32.4346 31.3976C32.4346 32.0245 32.9573 32.5327 33.6021 32.5327Z" fill="white"/>
<path d="M58.4321 27.9797C59.0769 27.9797 59.5996 27.4715 59.5996 26.8446C59.5996 26.2177 59.0769 25.7095 58.4321 25.7095C57.7874 25.7095 57.2646 26.2177 57.2646 26.8446C57.2646 27.4715 57.7874 27.9797 58.4321 27.9797Z" fill="white"/>
<path d="M25.1675 55.7659C25.8123 55.7659 26.335 55.2576 26.335 54.6307C26.335 54.0038 25.8123 53.4956 25.1675 53.4956C24.5227 53.4956 24 54.0038 24 54.6307C24 55.2576 24.5227 55.7659 25.1675 55.7659Z" fill="white"/>
<path d="M74.833 55.7659C75.4778 55.7659 76.0005 55.2576 76.0005 54.6307C76.0005 54.0038 75.4778 53.4956 74.833 53.4956C74.1882 53.4956 73.6655 54.0038 73.6655 54.6307C73.6655 55.2576 74.1882 55.7659 74.833 55.7659Z" fill="white"/>
<path d="M25.1675 46.4734C25.8123 46.4734 26.335 45.9652 26.335 45.3383C26.335 44.7113 25.8123 44.2031 25.1675 44.2031C24.5227 44.2031 24 44.7113 24 45.3383C24 45.9652 24.5227 46.4734 25.1675 46.4734Z" fill="white"/>
<path d="M74.833 46.4734C75.4778 46.4734 76.0005 45.9652 76.0005 45.3383C76.0005 44.7113 75.4778 44.2031 74.833 44.2031C74.1882 44.2031 73.6655 44.7113 73.6655 45.3383C73.6655 45.9652 74.1882 46.4734 74.833 46.4734Z" fill="white"/>
<path d="M33.1324 42.3892C34.1953 42.3892 35.057 41.5514 35.057 40.518C35.057 39.4845 34.1953 38.6467 33.1324 38.6467C32.0694 38.6467 31.2078 39.4845 31.2078 40.518C31.2078 41.5514 32.0694 42.3892 33.1324 42.3892Z" fill="white"/>
<path d="M41.5642 37.6551C42.6272 37.6551 43.4889 36.8173 43.4889 35.7838C43.4889 34.7504 42.6272 33.9126 41.5642 33.9126C40.5013 33.9126 39.6396 34.7504 39.6396 35.7838C39.6396 36.8173 40.5013 37.6551 41.5642 37.6551Z" fill="white"/>
<path d="M66.8655 61.3245C67.9284 61.3245 68.7901 60.4867 68.7901 59.4533C68.7901 58.4198 67.9284 57.582 66.8655 57.582C65.8026 57.582 64.9409 58.4198 64.9409 59.4533C64.9409 60.4867 65.8026 61.3245 66.8655 61.3245Z" fill="white"/>
<path d="M33.1324 61.3245C34.1953 61.3245 35.057 60.4867 35.057 59.4533C35.057 58.4198 34.1953 57.582 33.1324 57.582C32.0694 57.582 31.2078 58.4198 31.2078 59.4533C31.2078 60.4867 32.0694 61.3245 33.1324 61.3245Z" fill="white"/>
<path d="M66.8655 51.8565C67.9284 51.8565 68.7901 51.0187 68.7901 49.9853C68.7901 48.9518 67.9284 48.114 66.8655 48.114C65.8026 48.114 64.9409 48.9518 64.9409 49.9853C64.9409 51.0187 65.8026 51.8565 66.8655 51.8565Z" fill="white"/>
<path d="M33.1324 51.8565C34.1953 51.8565 35.057 51.0187 35.057 49.9853C35.057 48.9518 34.1953 48.114 33.1324 48.114C32.0694 48.114 31.2078 48.9518 31.2078 49.9853C31.2078 51.0187 32.0694 51.8565 33.1324 51.8565Z" fill="white"/>
<path d="M66.8655 42.3892C67.9284 42.3892 68.7901 41.5514 68.7901 40.518C68.7901 39.4845 67.9284 38.6467 66.8655 38.6467C65.8026 38.6467 64.9409 39.4845 64.9409 40.518C64.9409 41.5514 65.8026 42.3892 66.8655 42.3892Z" fill="white"/>
<path d="M50.0008 70.7921C51.0637 70.7921 51.9254 69.9543 51.9254 68.9208C51.9254 67.8873 51.0637 67.0496 50.0008 67.0496C48.9378 67.0496 48.0762 67.8873 48.0762 68.9208C48.0762 69.9543 48.9378 70.7921 50.0008 70.7921Z" fill="white"/>
<path d="M58.429 66.0606C59.4919 66.0606 60.3536 65.2228 60.3536 64.1894C60.3536 63.1559 59.4919 62.3181 58.429 62.3181C57.3661 62.3181 56.5044 63.1559 56.5044 64.1894C56.5044 65.2228 57.3661 66.0606 58.429 66.0606Z" fill="white"/>
<path d="M41.5642 66.0606C42.6272 66.0606 43.4889 65.2228 43.4889 64.1894C43.4889 63.1559 42.6272 62.3181 41.5642 62.3181C40.5013 62.3181 39.6396 63.1559 39.6396 64.1894C39.6396 65.2228 40.5013 66.0606 41.5642 66.0606Z" fill="white"/>
<path d="M58.429 37.6551C59.4919 37.6551 60.3536 36.8173 60.3536 35.7838C60.3536 34.7504 59.4919 33.9126 58.429 33.9126C57.3661 33.9126 56.5044 34.7504 56.5044 35.7838C56.5044 36.8173 57.3661 37.6551 58.429 37.6551Z" fill="white"/>
<path d="M57.9476 57.4141C59.6334 57.4141 61.0001 56.0853 61.0001 54.4462C61.0001 52.8071 59.6334 51.4783 57.9476 51.4783C56.2617 51.4783 54.895 52.8071 54.895 54.4462C54.895 56.0853 56.2617 57.4141 57.9476 57.4141Z" fill="white"/>
<path d="M57.9476 48.4952C59.6334 48.4952 61.0001 47.1664 61.0001 45.5272C61.0001 43.8881 59.6334 42.5593 57.9476 42.5593C56.2617 42.5593 54.895 43.8881 54.895 45.5272C54.895 47.1664 56.2617 48.4952 57.9476 48.4952Z" fill="white"/>
<path d="M42.0513 57.4141C43.7372 57.4141 45.1039 56.0853 45.1039 54.4462C45.1039 52.8071 43.7372 51.4783 42.0513 51.4783C40.3655 51.4783 38.9988 52.8071 38.9988 54.4462C38.9988 56.0853 40.3655 57.4141 42.0513 57.4141Z" fill="white"/>
<path d="M42.0513 48.4952C43.7372 48.4952 45.1039 47.1664 45.1039 45.5272C45.1039 43.8881 43.7372 42.5593 42.0513 42.5593C40.3655 42.5593 38.9988 43.8881 38.9988 45.5272C38.9988 47.1664 40.3655 48.4952 42.0513 48.4952Z" fill="white"/>
</svg>
