<svg width="14" height="14" viewBox="0 0 14 14" fill="none"
    xmlns="http://www.w3.org/2000/svg">
    <path fill-rule="evenodd" clip-rule="evenodd" d="M12.6281 6.7357C12.6281 3.48102 9.98968 0.842577 6.735 0.842577C3.48032 0.842577 0.841875 3.48102 0.841875 6.7357C0.841875 9.99039 3.48032 12.6288 6.735 12.6288C9.98968 12.6288 12.6281 9.99039 12.6281 6.7357ZM13.47 6.7357C13.47 3.01606 10.4546 0.000701904 6.735 0.000701904C3.01536 0.000701904 0 3.01606 0 6.7357C0 10.4553 3.01536 13.4707 6.735 13.4707C10.4546 13.4707 13.47 10.4553 13.47 6.7357Z" fill="#00D2FF"/>
    <path d="M8.95383 7.78867C8.95383 7.90649 8.94598 8.02344 8.93027 8.14039C8.9355 8.10199 8.94074 8.06271 8.94598 8.02431C8.91456 8.25821 8.85172 8.48687 8.76008 8.70505C8.77492 8.67014 8.78976 8.63523 8.80372 8.6012C8.7147 8.81065 8.5995 9.00702 8.46073 9.18681C8.48342 9.15713 8.50612 9.12833 8.52881 9.09866C8.38829 9.28019 8.22509 9.44339 8.04356 9.5839C8.07323 9.56121 8.10204 9.53852 8.13171 9.51583C7.95105 9.6546 7.75468 9.7698 7.5461 9.85882C7.58101 9.84398 7.61592 9.82915 7.64995 9.81518C7.43177 9.90682 7.20398 9.96966 6.96921 10.0011C7.00761 9.99584 7.04689 9.9906 7.08529 9.98537C6.8479 10.0168 6.60703 10.0159 6.36964 9.98362C6.40804 9.98886 6.44731 9.99409 6.48571 9.99933C6.25618 9.96704 6.03101 9.90595 5.81719 9.81605C5.8521 9.83089 5.88701 9.84573 5.92105 9.85969C5.70897 9.7698 5.50911 9.65285 5.32584 9.51234C5.35551 9.53503 5.38431 9.55772 5.41399 9.58041C5.23595 9.44252 5.07623 9.28281 4.93747 9.10477C4.96016 9.13444 4.98285 9.16324 5.00554 9.19292C4.86503 9.01051 4.74808 8.81065 4.65819 8.59858C4.67303 8.63349 4.68786 8.6684 4.70183 8.70243C4.61281 8.48861 4.55171 8.26344 4.5203 8.03391C4.52553 8.07231 4.53077 8.11159 4.53601 8.14999C4.50284 7.89776 4.50721 7.64292 4.54037 7.3907C4.53513 7.4291 4.5299 7.46838 4.52466 7.50678C4.57702 7.11491 4.69659 6.73614 4.84932 6.37308C4.83448 6.40799 4.81965 6.4429 4.80568 6.47694C5.14343 5.67925 5.63043 4.94877 6.13836 4.25144C6.30418 4.02453 6.4735 3.80024 6.64543 3.57769C6.62273 3.60736 6.60004 3.63616 6.57735 3.66583C6.73008 3.46772 6.88543 3.27135 7.04078 3.07586C6.83481 3.07586 6.62972 3.07586 6.42375 3.07586C6.58346 3.27572 6.74143 3.47645 6.89765 3.67892C6.87496 3.64925 6.85227 3.62045 6.82957 3.59078C7.39075 4.31777 7.9397 5.06571 8.37346 5.87736C8.47731 6.07111 8.57332 6.26835 8.65884 6.47083C8.64401 6.43592 8.62917 6.40101 8.61521 6.36697C8.76794 6.72916 8.8875 7.10793 8.93987 7.49805C8.93463 7.45965 8.9294 7.42037 8.92416 7.38197C8.94423 7.51638 8.95383 7.65165 8.95383 7.78867C8.95383 7.90038 9.00271 8.0182 9.08125 8.09762C9.15718 8.17355 9.28111 8.23028 9.3902 8.22504C9.50279 8.21981 9.61974 8.18315 9.69915 8.09762C9.7777 8.01209 9.82745 7.90736 9.82658 7.78867C9.8257 7.08524 9.60054 6.41061 9.30293 5.78136C8.96518 5.06746 8.51921 4.40766 8.05403 3.77231C7.72763 3.32634 7.38813 2.89084 7.0434 2.4597C6.98056 2.38115 6.83132 2.32792 6.73445 2.33228C6.62623 2.33752 6.49619 2.37155 6.42549 2.4597C6.02141 2.96589 5.62257 3.47819 5.24642 4.00708C4.93398 4.44607 4.63637 4.89815 4.37804 5.37117C4.14327 5.80318 3.93556 6.25875 3.80028 6.73265C3.73483 6.96393 3.69294 7.1987 3.66413 7.43783C3.6397 7.64642 3.63446 7.85675 3.65628 8.0662C3.68246 8.32192 3.72872 8.57327 3.81599 8.81589C3.90152 9.05153 4.00974 9.28106 4.15025 9.48965C4.42779 9.90158 4.79608 10.2524 5.23245 10.4924C5.68017 10.7394 6.18636 10.8729 6.69779 10.8799C7.21358 10.8869 7.72501 10.7586 8.18145 10.5204C8.62481 10.2882 8.9966 9.94173 9.28373 9.53503C9.42948 9.32819 9.53857 9.10215 9.63108 8.86738C9.72534 8.62651 9.77421 8.37865 9.8065 8.12293C9.82047 8.01209 9.82745 7.90038 9.82745 7.78867C9.82745 7.67696 9.77857 7.55914 9.70003 7.47972C9.6241 7.40379 9.50017 7.34706 9.39108 7.3523C9.27849 7.35754 9.16155 7.39419 9.08213 7.47972C9.00358 7.56525 8.95383 7.66998 8.95383 7.78867Z" fill="#00D2FF"/>
</svg>
