<svg width="25" height="25" fill="none" xmlns="http://www.w3.org/2000/svg">
  <path fill-rule="evenodd" clip-rule="evenodd" d="M23.34 12.184c0-5.799-4.7-10.5-10.5-10.5-5.799 0-10.5 4.701-10.5 10.5s4.701 10.5 10.5 10.5c5.8 0 10.5-4.701 10.5-10.5zm1.5 0c0-6.627-5.372-12-12-12-6.627 0-12 5.373-12 12s5.373 12 12 12c6.628 0 12-5.373 12-12z" fill="#fff"/>
  <path fill-rule="evenodd" clip-rule="evenodd" d="M22.89 6.152c.342.265-.023.27.591.686l-6.526 7.183a.849.849 0 01-.93.211l-7.738-2.994-5.092 5.355a.845.845 0 01-1.116.225c-.375-.224-.484-.688-.243-1.037L7.295 9.9a.842.842 0 01.99-.287l7.811 3.023 6.168-6.864c.286-.318.284.116.626.381z" fill="#fff"/>
</svg>
