<svg width="25" height="25" viewBox="0 0 25 25" fill="none"
  xmlns="http://www.w3.org/2000/svg">
  <path fill-rule="evenodd" clip-rule="evenodd" d="M24.5 12.2793C24.5 18.9067 19.1274 24.2793 12.5 24.2793C5.87258 24.2793 0.5 18.9067 0.5 12.2793C0.5 5.65188 5.87258 0.279297 12.5 0.279297C19.1274 0.279297 24.5 5.65188 24.5 12.2793ZM21.2836 18.0345C19.4074 20.8923 16.1741 22.7793 12.5 22.7793C8.82594 22.7793 5.59262 20.8923 3.71637 18.0345H7.50445C7.77172 18.7739 8.47614 19.3135 9.30296 19.3135C10.1298 19.3135 10.8342 18.7739 11.1015 18.0345H21.2836ZM22.0008 16.7556H11.1015C10.8342 16.0162 10.1298 15.4767 9.30296 15.4767C8.47614 15.4767 7.77172 16.0162 7.50445 16.7556H2.99922C2.4443 15.5798 2.1012 14.2845 2.01915 12.9188H14.5386C14.8059 13.6582 15.5103 14.1977 16.3371 14.1977C17.164 14.1977 17.8684 13.6582 18.1356 12.9188H22.9808C22.8988 14.2845 22.5557 15.5798 22.0008 16.7556ZM22.9808 11.6398H18.1356C17.8684 10.9004 17.164 10.3609 16.3371 10.3609C15.5103 10.3609 14.8059 10.9004 14.5386 11.6398H2.01915C2.1012 10.2741 2.4443 8.97874 2.99922 7.803H10.0623C10.3296 8.54239 11.034 9.08194 11.8608 9.08194C12.6877 9.08194 13.3921 8.54239 13.6594 7.803H22.0008C22.5557 8.97874 22.8988 10.2741 22.9808 11.6398ZM21.2836 6.52406H13.6594C13.3921 5.78467 12.6877 5.24512 11.8608 5.24512C11.034 5.24512 10.3296 5.78467 10.0623 6.52406H3.71637C5.59262 3.66633 8.82594 1.7793 12.5 1.7793C16.1741 1.7793 19.4074 3.66633 21.2836 6.52406ZM12.5003 7.16353C12.5003 6.80383 12.2205 6.52406 11.8608 6.52406C11.5011 6.52406 11.2214 6.80383 11.2214 7.16353C11.2214 7.52323 11.5011 7.803 11.8608 7.803C12.2205 7.803 12.5003 7.52323 12.5003 7.16353ZM16.9766 12.2793C16.9766 11.9196 16.6968 11.6398 16.3371 11.6398C15.9774 11.6398 15.6977 11.9196 15.6977 12.2793C15.6977 12.639 15.9774 12.9188 16.3371 12.9188C16.6968 12.9188 16.9766 12.639 16.9766 12.2793ZM9.94243 17.3951C9.94243 17.0354 9.66266 16.7556 9.30296 16.7556C8.94325 16.7556 8.66349 17.0354 8.66349 17.3951C8.66349 17.7548 8.94325 18.0345 9.30296 18.0345C9.66266 18.0345 9.94243 17.7548 9.94243 17.3951Z" fill="white"/>
</svg>
  