<svg width="15" height="16" viewBox="0 0 15 16" fill="none" xmlns="http://www.w3.org/2000/svg">
<g clip-path="url(#clip0)">
<path d="M7.03125 8.38013V2.22778H6.5918C4.83105 2.22778 3.17572 2.91345 1.93069 4.15848C0.685664 5.40351 0 7.05884 0 8.81958C0 10.5803 0.685664 12.2357 1.93069 13.4807C3.17572 14.7257 4.83105 15.4114 6.5918 15.4114C8.35254 15.4114 10.0079 14.7257 11.2529 13.4807C12.4979 12.2357 13.1836 10.5803 13.1836 8.81958V8.38013H7.03125ZM6.5918 14.5325C3.44171 14.5325 0.878906 11.9697 0.878906 8.81958C0.878906 5.81732 3.20678 3.34856 6.15234 3.12342V9.25903H12.288C12.0628 12.2046 9.59405 14.5325 6.5918 14.5325Z" fill="white"/>
<path d="M13.0693 2.34207C11.8243 1.09704 10.1689 0.411377 8.4082 0.411377H7.96875V7.44263H15V7.00317C15 5.24243 14.3143 3.5871 13.0693 2.34207ZM8.84766 6.56372V1.30701C11.6481 1.52105 13.8903 3.76323 14.1044 6.56372H8.84766Z" fill="white"/>
</g>
<defs>
<clipPath id="clip0">
<rect width="15" height="15" fill="white" transform="translate(0 0.411377)"/>
</clipPath>
</defs>
</svg>
