<svg width="25" height="25" viewBox="0 0 25 25" fill="none" xmlns="http://www.w3.org/2000/svg">
<g clip-path="url(#clip0)">
<path d="M24.26 11.8777C23.6782 11.218 23.3391 10.5217 23.1914 9.81987C23.2554 10.3874 23.0711 10.9732 22.7248 11.4699C22.0073 12.4995 21.757 13.783 22.3685 15.2125C22.9801 16.6422 22.1626 18.0403 20.9137 18.2398C19.108 18.5283 18.7142 19.2905 18.2695 20.7051C17.8772 21.9525 17.0773 22.8307 15.2976 22.3019C13.5849 21.7929 12.4565 21.8092 11.2177 22.6141C9.97901 23.4187 8.75797 22.9607 8.18581 21.7015C7.61364 20.4423 6.48202 19.7005 4.83935 19.4261C3.29349 19.1679 2.77393 18.2161 3.11358 16.7327C3.52156 14.9504 3.21778 13.9784 2.12824 12.8579C1.03876 11.7373 1.2757 10.4138 2.5215 9.66987C3.75395 8.82064 4.25832 7.56827 4.17393 6.13594C4.08492 5.26845 4.29603 4.70291 4.69438 4.35255C4.15472 4.77702 3.5205 5.00562 2.75915 5.22359C1.22233 5.66331 0.39733 6.58405 1.09715 8.51348C1.79709 10.4432 1.40815 11.8018 0.564647 12.9727C-0.278674 14.1435 -0.31118 15.7675 1.28403 16.5997C2.87907 17.4322 3.58752 18.7372 3.75797 20.4807C3.92848 22.2244 4.72635 23.1275 6.61577 22.8034C8.50513 22.479 10.015 22.914 11.0944 24.0846C12.1739 25.255 13.674 25.3156 14.738 23.9891C15.802 22.6627 17.0341 22.031 19.0856 22.1771C21.1372 22.3232 21.6485 20.8613 21.7589 19.3601C21.8693 17.8588 22.5329 16.493 23.7612 15.7115C24.9892 14.9303 25.4438 13.2202 24.26 11.8777ZM23.3005 7.65746C23.7136 6.273 23.8228 4.72194 21.3156 4.33795C18.8082 3.95421 18.2239 2.62087 17.6908 1.33636C17.1578 0.0516048 15.9455 -0.465889 14.2222 0.47826C12.4987 1.42241 10.9444 1.17601 9.27978 0.557692C8.16104 0.142149 6.78326 0.344158 6.08031 2.2441C5.70797 3.25107 5.27192 3.87678 4.74573 4.3084C5.16092 3.9756 5.75986 3.85574 6.44012 3.87383C8.23403 3.9217 9.24077 3.59439 10.3704 2.21124C11.6649 0.625659 13.0301 0.944276 13.859 1.8941C14.7895 2.96035 15.4956 3.29889 17.1883 3.07743C18.5484 2.8996 19.6181 3.54841 19.8395 4.82111C20.0466 6.01148 20.0649 7.12016 21.9905 8.19162C22.7052 8.58925 23.0602 9.11951 23.1672 9.67595C23.0495 8.99705 23.1042 8.31496 23.3005 7.65746Z" fill="white"/>
</g>
<defs>
<clipPath id="clip0">
<rect width="25" height="25" fill="white"/>
</clipPath>
</defs>
</svg>
