<svg width="24" height="25" viewBox="0 0 24 25" fill="none" xmlns="http://www.w3.org/2000/svg">
<path fill-rule="evenodd" clip-rule="evenodd" d="M12 23.0816C17.8869 23.0816 22.6593 18.3093 22.6593 12.4224C22.6593 6.53542 17.8869 1.76311 12 1.76311C6.11306 1.76311 1.34075 6.53542 1.34075 12.4224C1.34075 18.3093 6.11306 23.0816 12 23.0816ZM12 24.4224C18.6274 24.4224 24 19.0498 24 12.4224C24 5.79495 18.6274 0.422363 12 0.422363C5.37258 0.422363 0 5.79495 0 12.4224C0 19.0498 5.37258 24.4224 12 24.4224Z" fill="white"/>
<path d="M12 23.4224V1.42236M20.5 5.92236L12 12.4224" stroke="white" stroke-width="1.5"/>
</svg>
