<svg width="25" height="25" fill="none" xmlns="http://www.w3.org/2000/svg">
  <path fill-rule="evenodd" clip-rule="evenodd" d="M23.34 12.979c0-5.799-4.7-10.5-10.5-10.5-5.799 0-10.5 4.701-10.5 10.5s4.701 10.5 10.5 10.5c5.8 0 10.5-4.701 10.5-10.5zm1.5 0c0-6.627-5.372-12-12-12-6.627 0-12 5.373-12 12s5.373 12 12 12c6.628 0 12-5.373 12-12z" fill="#fff"/>
  <path fill-rule="evenodd" clip-rule="evenodd" d="M10.06 15.024l7.82-4.115-7.82-4.115v8.23zm8.84-2.496c1.366-.719 1.366-2.52 0-3.238l-7.818-4.115c-1.364-.718-1.021.181-1.021 1.619v8.23c0 1.438-.343 2.337 1.02 1.62l7.82-4.116z" fill="#fff"/>
  <path fill-rule="evenodd" clip-rule="evenodd" d="M10.278 4.922c.415 0 .75.403.75.9v14.103c0 .496-.335.898-.75.898-.414 0-.75-.402-.75-.898V5.82c0-.496.336-.899.75-.899z" fill="#fff"/>
</svg>
