<svg width="25" height="25" viewBox="0 0 25 25" fill="none" xmlns="http://www.w3.org/2000/svg">
<path fill-rule="evenodd" clip-rule="evenodd" d="M12.9785 23.1312C18.8655 23.1312 23.6378 18.3589 23.6378 12.4719C23.6378 6.58498 18.8655 1.81267 12.9785 1.81267C7.09157 1.81267 2.31926 6.58498 2.31926 12.4719C2.31926 18.3589 7.09157 23.1312 12.9785 23.1312ZM12.9785 24.4719C19.6059 24.4719 24.9785 19.0993 24.9785 12.4719C24.9785 5.84451 19.6059 0.471924 12.9785 0.471924C6.3511 0.471924 0.978516 5.84451 0.978516 12.4719C0.978516 19.0993 6.3511 24.4719 12.9785 24.4719Z" fill="white"/>
<path d="M12.7132 4.90629C12.8258 4.69305 13.1312 4.69306 13.2438 4.90629L19.5051 16.7646C19.6106 16.9644 19.4657 17.2047 19.2398 17.2047H6.71723C6.4913 17.2047 6.34645 16.9644 6.45194 16.7646L12.7132 4.90629Z" stroke="white" stroke-width="1.4"/>
</svg>
