<svg width="25" height="25" fill="none" xmlns="http://www.w3.org/2000/svg">
  <path fill-rule="evenodd" clip-rule="evenodd" d="M23.34 12.39c0-5.8-4.7-10.5-10.5-10.5-5.799 0-10.5 4.7-10.5 10.5 0 5.798 4.701 10.5 10.5 10.5 5.8 0 10.5-4.702 10.5-10.5zm1.5 0c0-6.628-5.372-12-12-12-6.627 0-12 5.372-12 12 0 6.627 5.373 12 12 12 6.628 0 12-5.373 12-12z" fill="#fff"/>
  <path fill-rule="evenodd" clip-rule="evenodd" d="M13.242 15.261a.57.57 0 00-.806 0l-2.805 2.805-2.804-2.805a.57.57 0 10-.806.806l3.208 3.207a.57.57 0 00.805 0l3.208-3.207a.57.57 0 000-.806z" fill="#fff"/>
  <path fill-rule="evenodd" clip-rule="evenodd" d="M13.348 16.173a.72.72 0 10-1.018-1.018l-2.698 2.699-2.7-2.699a.72.72 0 10-1.017 1.018l3.208 3.208a.72.72 0 001.018 0l3.207-3.208zm-.212-.806a.42.42 0 010 .594l-3.208 3.208a.42.42 0 01-.593 0L6.127 15.96a.42.42 0 01.594-.594l2.804 2.805a.15.15 0 00.213 0l2.804-2.805a.42.42 0 01.594 0z" fill="#fff"/>
  <path fill-rule="evenodd" clip-rule="evenodd" d="M9.631 18.387a.75.75 0 01-.75-.75V8.305a.75.75 0 111.5 0v9.332a.75.75 0 01-.75.75zm2.439-9.38a.57.57 0 00.806 0l2.805-2.805 2.805 2.805a.57.57 0 00.806-.806l-3.208-3.207a.57.57 0 00-.806 0L12.071 8.2a.57.57 0 000 .806z" fill="#fff"/>
  <path fill-rule="evenodd" clip-rule="evenodd" d="M11.964 8.095a.72.72 0 101.018 1.018l2.699-2.699 2.699 2.7a.72.72 0 001.018-1.019L16.19 4.888a.72.72 0 00-1.018 0l-3.208 3.207zm.213.806a.42.42 0 010-.594L15.384 5.1a.42.42 0 01.594 0l3.207 3.207a.42.42 0 01-.593.594l-2.805-2.805a.15.15 0 00-.212 0L12.77 8.901a.42.42 0 01-.593 0z" fill="#fff"/>
  <path fill-rule="evenodd" clip-rule="evenodd" d="M15.681 5.881a.75.75 0 01.75.75v9.333a.75.75 0 01-1.5 0V6.63a.75.75 0 01.75-.75z" fill="#fff"/>
</svg>
