<svg width="24" height="24" fill="none" xmlns="http://www.w3.org/2000/svg">
  <path fill-rule="evenodd" clip-rule="evenodd" d="M22.66 12c0-5.887-4.773-10.66-10.66-10.66C6.113 1.34 1.34 6.114 1.34 12c0 5.887 4.773 10.66 10.66 10.66 5.887 0 10.66-4.773 10.66-10.66zM24 12c0-6.627-5.373-12-12-12S0 5.373 0 12s5.373 12 12 12 12-5.373 12-12z" fill="#fff"/>
  <path fill-rule="evenodd" clip-rule="evenodd" d="M10.811 5.416c.374-1.152 2.004-1.152 2.378 0l1.11 3.419h3.595c1.211 0 1.715 1.55.735 2.261l-2.908 2.113 1.11 3.419c.375 1.151-.943 2.109-1.923 1.397L12 15.912l-2.908 2.113c-.98.712-2.298-.246-1.924-1.397l1.111-3.419-2.908-2.113c-.98-.712-.476-2.261.735-2.261H9.7l1.111-3.419zM12 6.611l-.93 2.86a1.25 1.25 0 01-1.188.864H6.875l2.433 1.767c.438.319.621.883.454 1.398l-.93 2.86 2.433-1.768a1.25 1.25 0 011.47 0l2.432 1.768-.929-2.86a1.25 1.25 0 01.454-1.398l2.433-1.767h-3.007a1.25 1.25 0 01-1.189-.864L12 6.611z" fill="#fff"/>
</svg>
