<svg width="16" height="16" viewBox="0 0 16 16" fill="none" xmlns="http://www.w3.org/2000/svg">
<path d="M10.7574 5.90435L11.1141 5.54767C11.6418 6.22192 11.9547 7.07261 11.9547 8C11.9547 10.2064 10.161 12 7.95468 12C5.74832 12 3.95468 10.2064 3.95468 8C3.95468 6.02167 5.39344 4.38072 7.28801 4.06051L7.70468 3.99008V3.5675V2.0525V1.48664L7.14313 1.5563C3.93345 1.95447 1.45468 4.6844 1.45468 8C1.45468 11.5911 4.36354 14.5 7.95468 14.5C11.5458 14.5 14.4547 11.5911 14.4547 8C14.4547 6.38392 13.8621 4.90645 12.8922 3.76956L13.2446 3.41715C14.3103 4.64582 14.9547 6.24782 14.9547 8C14.9547 11.8639 11.8185 15 7.95468 15C4.09082 15 0.954681 11.8639 0.954681 8C0.954681 4.13614 4.09082 1 7.95468 1H8.20468V6.71V7.00136L8.45818 7.14501C8.75678 7.31422 8.95468 7.63105 8.95468 8C8.95468 8.54886 8.50354 9 7.95468 9C7.40582 9 6.95468 8.54886 6.95468 8C6.95468 7.63491 7.14951 7.32104 7.45662 7.14189L7.70468 6.99719V6.71V5.105V4.45736L7.07813 4.62128C5.57786 5.01379 4.45468 6.36769 4.45468 8C4.45468 9.93364 6.02104 11.5 7.95468 11.5C9.88832 11.5 11.4547 9.93364 11.4547 8C11.4547 7.21499 11.1929 6.48971 10.7574 5.90435Z" fill="white" stroke="white"/>
</svg>
