<svg width="22" height="21" viewBox="0 0 22 21" fill="none" xmlns="http://www.w3.org/2000/svg">
<path d="M21.092 13.625V13.1277C21.0926 12.9132 21.0507 12.7007 20.9686 12.5025C20.8865 12.3043 20.7659 12.1244 20.6138 11.9732L19.717 11.0764V9.09713C19.8768 9.04075 20.0201 8.94588 20.1344 8.82091C20.2487 8.69594 20.3305 8.54472 20.3724 8.38063C20.4144 8.21654 20.4152 8.04464 20.3749 7.88013C20.3346 7.71563 20.2544 7.5636 20.1413 7.4375C20.3108 7.24861 20.4045 7.00378 20.4045 6.75C20.4045 6.49622 20.3108 6.25139 20.1413 6.0625C20.3108 5.87361 20.4045 5.62878 20.4045 5.375C20.4045 5.12122 20.3108 4.87639 20.1413 4.6875C20.2544 4.5614 20.3346 4.40937 20.3749 4.24487C20.4152 4.08036 20.4144 3.90846 20.3724 3.74437C20.3305 3.58028 20.2487 3.42906 20.1344 3.30409C20.0201 3.17912 19.8768 3.08425 19.717 3.02787V1.25C19.717 1.15883 19.6808 1.0714 19.6164 1.00693C19.5519 0.942466 19.4645 0.90625 19.3733 0.90625H15.2483C15.1571 0.90625 15.0697 0.942466 15.0052 1.00693C14.9408 1.0714 14.9045 1.15883 14.9045 1.25V1.59375H14.4073C14.1927 1.59316 13.9802 1.63513 13.7821 1.71722C13.5839 1.79931 13.4039 1.91989 13.2527 2.07199L12.3559 2.96875H7.97042C7.91404 2.80904 7.81918 2.66568 7.6942 2.55137C7.56923 2.43706 7.41801 2.35531 7.25392 2.31336C7.08983 2.27141 6.91793 2.27055 6.75343 2.31086C6.58892 2.35118 6.4369 2.43141 6.31079 2.54448C6.1219 2.375 5.87707 2.28126 5.62329 2.28126C5.36951 2.28126 5.12468 2.375 4.93579 2.54448C4.7469 2.375 4.50207 2.28126 4.24829 2.28126C3.99451 2.28126 3.74968 2.375 3.56079 2.54448C3.43469 2.43141 3.28266 2.35118 3.11816 2.31086C2.95366 2.27055 2.78175 2.27141 2.61766 2.31336C2.45357 2.35531 2.30235 2.43706 2.17738 2.55137C2.05241 2.66568 1.95754 2.80904 1.90117 2.96875H1.15454C1.06337 2.96875 0.975939 3.00497 0.911473 3.06943C0.847007 3.1339 0.810791 3.22133 0.810791 3.3125V7.4375C0.810791 7.52867 0.847007 7.6161 0.911473 7.68057C0.975939 7.74503 1.06337 7.78125 1.15454 7.78125H1.84204V8.46875C1.84204 8.52212 1.85447 8.57476 1.87835 8.62249L3.21704 11.2999V12.3091C3.05733 12.3655 2.91397 12.4604 2.79966 12.5853C2.68535 12.7103 2.6036 12.8615 2.56165 13.0256C2.5197 13.1897 2.51884 13.3616 2.55916 13.5261C2.59947 13.6906 2.6797 13.8426 2.79277 13.9688C2.62329 14.1576 2.52955 14.4025 2.52955 14.6562C2.52955 14.91 2.62329 15.1549 2.79277 15.3438C2.62329 15.5326 2.52955 15.7775 2.52955 16.0312C2.52955 16.285 2.62329 16.5299 2.79277 16.7188C2.6797 16.8449 2.59947 16.9969 2.55916 17.1614C2.51884 17.3259 2.5197 17.4978 2.56165 17.6619C2.6036 17.826 2.68535 17.9772 2.79966 18.1022C2.91397 18.2271 3.05733 18.322 3.21704 18.3784V20.1562C3.21704 20.2474 3.25326 20.3349 3.31772 20.3993C3.38219 20.4638 3.46962 20.5 3.56079 20.5H7.68579C7.77696 20.5 7.86439 20.4638 7.92886 20.3993C7.99332 20.3349 8.02954 20.2474 8.02954 20.1562V19.8125H8.52682C8.74134 19.8131 8.95384 19.7711 9.15203 19.689C9.35022 19.6069 9.53016 19.4864 9.68143 19.3343L10.5781 18.4375H13.5887C13.6451 18.5972 13.7401 18.7405 13.8651 18.8548C13.9901 18.9691 14.1413 19.0508 14.3054 19.0928C14.4694 19.1348 14.6413 19.1357 14.8059 19.0954C14.9704 19.0552 15.1225 18.9751 15.2487 18.8621C15.4376 19.0315 15.6824 19.1251 15.9361 19.125C16.1897 19.1249 16.4345 19.0312 16.6233 18.8618C16.8122 19.0313 17.057 19.125 17.3108 19.125C17.5646 19.125 17.8094 19.0313 17.9983 18.8618C18.1244 18.9748 18.2764 19.0551 18.4409 19.0954C18.6054 19.1357 18.7773 19.1348 18.9414 19.0929C19.1055 19.0509 19.2567 18.9692 19.3817 18.8549C19.5067 18.7406 19.6015 18.5972 19.6579 18.4375H21.092C21.1832 18.4375 21.2706 18.4013 21.3351 18.3368C21.3996 18.2724 21.4358 18.1849 21.4358 18.0938V13.9688C21.4358 13.8776 21.3996 13.7901 21.3351 13.7257C21.2706 13.6612 21.1832 13.625 21.092 13.625ZM15.592 1.59375H19.0295V2.96875H15.592V1.59375ZM12.4983 3.65625C12.5434 3.65625 12.5881 3.64736 12.6298 3.63009C12.6715 3.61281 12.7094 3.58749 12.7414 3.55557L13.7388 2.5581C13.8264 2.47005 13.9306 2.40025 14.0453 2.35272C14.16 2.3052 14.2831 2.28091 14.4073 2.28125H14.9045V3.3125C14.9045 3.40367 14.9408 3.4911 15.0052 3.55557C15.0697 3.62003 15.1571 3.65625 15.2483 3.65625H19.3733C19.4645 3.65625 19.5519 3.69247 19.6164 3.75693C19.6808 3.8214 19.717 3.90883 19.717 4C19.717 4.09117 19.6808 4.1786 19.6164 4.24307C19.5519 4.30753 19.4645 4.34375 19.3733 4.34375H17.3108C17.2196 4.34375 17.1322 4.37997 17.0677 4.44443C17.0033 4.5089 16.967 4.59633 16.967 4.6875C16.967 4.77867 17.0033 4.8661 17.0677 4.93057C17.1322 4.99503 17.2196 5.03125 17.3108 5.03125H19.3733C19.4645 5.03125 19.5519 5.06747 19.6164 5.13193C19.6808 5.1964 19.717 5.28383 19.717 5.375C19.717 5.46617 19.6808 5.5536 19.6164 5.61807C19.5519 5.68253 19.4645 5.71875 19.3733 5.71875H17.3108C17.2196 5.71875 17.1322 5.75497 17.0677 5.81943C17.0033 5.8839 16.967 5.97133 16.967 6.0625C16.967 6.15367 17.0033 6.2411 17.0677 6.30557C17.1322 6.37003 17.2196 6.40625 17.3108 6.40625H19.3733C19.4645 6.40625 19.5519 6.44247 19.6164 6.50693C19.6808 6.5714 19.717 6.65883 19.717 6.75C19.717 6.84117 19.6808 6.9286 19.6164 6.99307C19.5519 7.05753 19.4645 7.09375 19.3733 7.09375H17.3108C17.2196 7.09375 17.1322 7.12997 17.0677 7.19443C17.0033 7.2589 16.967 7.34633 16.967 7.4375C16.967 7.52867 17.0033 7.6161 17.0677 7.68057C17.1322 7.74503 17.2196 7.78125 17.3108 7.78125H19.3733C19.4645 7.78125 19.5519 7.81747 19.6164 7.88193C19.6808 7.9464 19.717 8.03383 19.717 8.125C19.717 8.21617 19.6808 8.3036 19.6164 8.36807C19.5519 8.43253 19.4645 8.46875 19.3733 8.46875H14.2982L11.6208 7.13006C11.5731 7.10618 11.5204 7.09374 11.467 7.09375H8.02954V3.65625H12.4983ZM13.5658 12.7838C13.542 12.8315 13.5295 12.8841 13.5295 12.9375V13.625H11.5482L8.87078 12.2863C8.82305 12.2624 8.77041 12.25 8.71704 12.25H8.02954V10.3299L8.9263 9.4331C9.07839 9.28184 9.19897 9.10191 9.28106 8.90374C9.36315 8.70556 9.40512 8.49307 9.40454 8.27857V7.78125H11.3859L14.0633 9.11994C14.111 9.14382 14.1637 9.15626 14.217 9.15625H14.9045V10.1063L13.5658 12.7838ZM1.49829 7.09375V3.65625H1.84204V7.09375H1.49829ZM2.52954 8.38758V3.3125C2.52954 3.22133 2.56576 3.1339 2.63022 3.06943C2.69469 3.00497 2.78212 2.96875 2.87329 2.96875C2.96446 2.96875 3.05189 3.00497 3.11636 3.06943C3.18082 3.1339 3.21704 3.22133 3.21704 3.3125V5.375C3.21704 5.46617 3.25326 5.5536 3.31772 5.61807C3.38219 5.68253 3.46962 5.71875 3.56079 5.71875C3.65196 5.71875 3.73939 5.68253 3.80386 5.61807C3.86832 5.5536 3.90454 5.46617 3.90454 5.375V3.3125C3.90454 3.22133 3.94076 3.1339 4.00522 3.06943C4.06969 3.00497 4.15712 2.96875 4.24829 2.96875C4.33946 2.96875 4.42689 3.00497 4.49136 3.06943C4.55582 3.1339 4.59204 3.22133 4.59204 3.3125V5.375C4.59204 5.46617 4.62826 5.5536 4.69272 5.61807C4.75719 5.68253 4.84462 5.71875 4.93579 5.71875C5.02696 5.71875 5.11439 5.68253 5.17886 5.61807C5.24332 5.5536 5.27954 5.46617 5.27954 5.375V3.3125C5.27954 3.22133 5.31576 3.1339 5.38022 3.06943C5.44469 3.00497 5.53212 2.96875 5.62329 2.96875C5.71446 2.96875 5.80189 3.00497 5.86636 3.06943C5.93082 3.1339 5.96704 3.22133 5.96704 3.3125V5.375C5.96704 5.46617 6.00326 5.5536 6.06772 5.61807C6.13219 5.68253 6.21962 5.71875 6.31079 5.71875C6.40196 5.71875 6.48939 5.68253 6.55386 5.61807C6.61832 5.5536 6.65454 5.46617 6.65454 5.375V3.3125C6.65454 3.22133 6.69076 3.1339 6.75522 3.06943C6.81969 3.00497 6.90712 2.96875 6.99829 2.96875C7.08946 2.96875 7.17689 3.00497 7.24136 3.06943C7.30582 3.1339 7.34204 3.22133 7.34204 3.3125V7.4375C7.34204 7.52867 7.37826 7.6161 7.44272 7.68057C7.50719 7.74503 7.59462 7.78125 7.68579 7.78125H8.71704V8.27857C8.71738 8.40276 8.69308 8.52578 8.64555 8.64052C8.59803 8.75525 8.52821 8.85942 8.44015 8.94699L7.44272 9.94443C7.4108 9.97635 7.38548 10.0142 7.3682 10.056C7.35093 10.0977 7.34204 10.1424 7.34204 10.1875V12.25H3.90454V11.2188C3.90455 11.1654 3.89212 11.1127 3.86823 11.065L2.52954 8.38758ZM7.34204 19.8125H3.90454V18.4375H7.34204V19.8125ZM10.4358 17.75C10.3906 17.75 10.3459 17.7589 10.3042 17.7762C10.2625 17.7934 10.2246 17.8188 10.1927 17.8507L9.19528 18.8482C9.1077 18.9362 9.00353 19.006 8.88878 19.0535C8.77404 19.1011 8.65101 19.1253 8.52682 19.125H8.02954V18.0938C8.02954 18.0026 7.99332 17.9151 7.92886 17.8507C7.86439 17.7862 7.77696 17.75 7.68579 17.75H3.56079C3.46962 17.75 3.38219 17.7138 3.31772 17.6493C3.25326 17.5849 3.21704 17.4974 3.21704 17.4062C3.21704 17.3151 3.25326 17.2276 3.31772 17.1632C3.38219 17.0987 3.46962 17.0625 3.56079 17.0625H5.62329C5.71446 17.0625 5.80189 17.0263 5.86636 16.9618C5.93082 16.8974 5.96704 16.8099 5.96704 16.7188C5.96704 16.6276 5.93082 16.5401 5.86636 16.4757C5.80189 16.4112 5.71446 16.375 5.62329 16.375H3.56079C3.46962 16.375 3.38219 16.3388 3.31772 16.2743C3.25326 16.2099 3.21704 16.1224 3.21704 16.0312C3.21704 15.9401 3.25326 15.8526 3.31772 15.7882C3.38219 15.7237 3.46962 15.6875 3.56079 15.6875H5.62329C5.71446 15.6875 5.80189 15.6513 5.86636 15.5868C5.93082 15.5224 5.96704 15.4349 5.96704 15.3438C5.96704 15.2526 5.93082 15.1651 5.86636 15.1007C5.80189 15.0362 5.71446 15 5.62329 15H3.56079C3.46962 15 3.38219 14.9638 3.31772 14.8993C3.25326 14.8349 3.21704 14.7474 3.21704 14.6562C3.21704 14.5651 3.25326 14.4776 3.31772 14.4132C3.38219 14.3487 3.46962 14.3125 3.56079 14.3125H5.62329C5.71446 14.3125 5.80189 14.2763 5.86636 14.2118C5.93082 14.1474 5.96704 14.0599 5.96704 13.9688C5.96704 13.8776 5.93082 13.7901 5.86636 13.7257C5.80189 13.6612 5.71446 13.625 5.62329 13.625H3.56079C3.46962 13.625 3.38219 13.5888 3.31772 13.5243C3.25326 13.4599 3.21704 13.3724 3.21704 13.2812C3.21704 13.1901 3.25326 13.1026 3.31772 13.0382C3.38219 12.9737 3.46962 12.9375 3.56079 12.9375H8.63587L11.3133 14.2762C11.361 14.3001 11.4137 14.3125 11.467 14.3125H13.5295V17.75H10.4358ZM18.6858 18.4375C18.5947 18.4374 18.5073 18.4011 18.4428 18.3367C18.3784 18.2723 18.3421 18.1849 18.342 18.0938V16.0312C18.342 15.9401 18.3058 15.8526 18.2414 15.7882C18.1769 15.7237 18.0895 15.6875 17.9983 15.6875C17.9071 15.6875 17.8197 15.7237 17.7552 15.7882C17.6908 15.8526 17.6545 15.9401 17.6545 16.0312V18.0938C17.6545 18.1849 17.6183 18.2724 17.5539 18.3368C17.4894 18.4013 17.402 18.4375 17.3108 18.4375C17.2196 18.4375 17.1322 18.4013 17.0677 18.3368C17.0033 18.2724 16.967 18.1849 16.967 18.0938V16.0312C16.967 15.9401 16.9308 15.8526 16.8664 15.7882C16.8019 15.7237 16.7145 15.6875 16.6233 15.6875C16.5321 15.6875 16.4447 15.7237 16.3802 15.7882C16.3158 15.8526 16.2795 15.9401 16.2795 16.0312V18.0938C16.2795 18.1849 16.2433 18.2724 16.1789 18.3368C16.1144 18.4013 16.027 18.4375 15.9358 18.4375C15.8446 18.4375 15.7572 18.4013 15.6927 18.3368C15.6283 18.2724 15.592 18.1849 15.592 18.0938V16.0312C15.592 15.9401 15.5558 15.8526 15.4914 15.7882C15.4269 15.7237 15.3395 15.6875 15.2483 15.6875C15.1571 15.6875 15.0697 15.7237 15.0052 15.7882C14.9408 15.8526 14.9045 15.9401 14.9045 16.0312V18.0938C14.9045 18.1849 14.8683 18.2724 14.8039 18.3368C14.7394 18.4013 14.652 18.4375 14.5608 18.4375C14.4696 18.4375 14.3822 18.4013 14.3177 18.3368C14.2533 18.2724 14.217 18.1849 14.217 18.0938V13.0187L15.5557 10.3412C15.5796 10.2935 15.592 10.2409 15.592 10.1875V9.15625H19.0295V11.2188C19.0295 11.2639 19.0384 11.3086 19.0557 11.3503C19.073 11.392 19.0983 11.4299 19.1302 11.4618L20.1277 12.4593C20.2157 12.5468 20.2855 12.651 20.3331 12.7657C20.3806 12.8805 20.4049 13.0035 20.4045 13.1277V13.625H19.3733C19.2821 13.625 19.1947 13.6612 19.1302 13.7257C19.0658 13.7901 19.0295 13.8776 19.0295 13.9688V18.0938C19.0294 18.1849 18.9932 18.2723 18.9287 18.3367C18.8643 18.4011 18.7769 18.4374 18.6858 18.4375ZM20.7483 17.75H19.717V14.3125H20.7483V17.75Z" fill="white"/>
</svg>
