<?xml version="1.0" standalone="no"?>
<!DOCTYPE svg PUBLIC "-//W3C//DTD SVG 20010904//EN"
 "http://www.w3.org/TR/2001/REC-SVG-20010904/DTD/svg10.dtd">
<svg version="1.0" xmlns="http://www.w3.org/2000/svg"
 width="48.000000pt" height="48.000000pt" viewBox="0 0 48.000000 48.000000"
 preserveAspectRatio="xMidYMid meet">

<g transform="translate(0.000000,48.000000) scale(0.100000,-0.100000)"
fill="#000000" stroke="none">
<path d="M238 393 c-19 -33 -9 -68 21 -78 30 -9 26 -27 -4 -19 -28 7 -33 -9
-11 -38 19 -26 39 -22 58 10 19 32 9 67 -21 77 -30 9 -26 27 4 19 28 -7 33 9
11 39 -19 25 -39 21 -58 -10z"/>
<path d="M95 193 c-22 -9 -42 -18 -44 -20 -5 -3 20 -83 26 -83 2 0 19 6 37 14
31 13 37 12 87 -16 l54 -29 93 37 c50 21 92 41 92 45 0 20 -25 16 -100 -15
l-82 -35 -53 30 c-44 25 -57 28 -79 19 -35 -13 -36 -13 -36 3 0 15 41 37 66
37 9 0 28 -9 43 -19 15 -11 43 -22 64 -26 33 -7 37 -5 37 14 0 17 -6 21 -32
21 -18 0 -44 9 -58 20 -30 24 -62 24 -115 3z"/>
</g>
</svg>
