<svg width="18" height="19" viewBox="0 0 18 19" fill="none" xmlns="http://www.w3.org/2000/svg">
<path d="M16.7492 9.06476H10.5411C10.7945 6.00424 11.0404 3.12573 13.0229 3.12573C13.429 3.12573 14.1929 3.2223 14.7519 3.89085C15.4189 4.68941 15.5978 6.0711 15.2661 7.88735C15.2289 8.08792 15.363 8.28106 15.5643 8.3182C15.7655 8.35163 15.9593 8.21791 15.9965 8.01735C16.3766 5.94853 16.1493 4.39599 15.322 3.41172C14.7631 2.74688 13.947 2.37917 13.0229 2.37917C12.3707 2.37917 11.8118 2.59459 11.3683 3.02173C10.9883 3.38572 10.6901 3.902 10.4628 4.59284C10.0604 5.81482 9.92997 7.38593 9.79209 9.0499C9.79209 9.05361 9.79209 9.06104 9.79209 9.06476H3.70691V1.31319L5.33161 2.66516C5.40241 2.72088 5.48439 2.75059 5.5701 2.75059C5.67816 2.75059 5.7825 2.70602 5.85703 2.61688C5.98745 2.45717 5.96509 2.22317 5.80858 2.09317L3.57276 0.236067C3.43488 0.120926 3.23365 0.120926 3.09578 0.236067L0.859949 2.09317C0.699714 2.22689 0.681082 2.46088 0.811506 2.61688C0.945655 2.77659 1.18042 2.79516 1.33693 2.66516L2.96163 1.31319V17.9789C2.96163 18.1832 3.12932 18.3503 3.33427 18.3503C3.53922 18.3503 3.70691 18.1832 3.70691 17.9789V9.8076H9.72874C9.60204 11.2524 9.43808 12.6824 9.05054 13.7744C8.56983 15.1226 7.82083 15.7503 6.68428 15.7503C6.06198 15.7503 5.56264 15.4421 5.20118 14.8366C4.9068 14.3427 4.81737 13.8338 4.81737 13.8301C4.78383 13.6295 4.59006 13.4921 4.38883 13.5255C4.18761 13.559 4.04973 13.7521 4.08327 13.9527C4.087 13.9787 4.19133 14.5841 4.54907 15.1932C5.0484 16.0438 5.78623 16.4932 6.68801 16.4932C7.46683 16.4932 8.13012 16.2555 8.66299 15.7912C9.12507 15.3826 9.4828 14.8032 9.75855 14.0269C10.1834 12.8347 10.3473 11.323 10.4777 9.8076H16.7492C16.9542 9.8076 17.1219 9.64046 17.1219 9.43618C17.1219 9.23189 16.9542 9.06476 16.7492 9.06476Z" fill="white"/>
</svg>
