<svg width="21" height="18" viewBox="0 0 21 18" fill="none" xmlns="http://www.w3.org/2000/svg">
<path d="M10.7703 12.658C10.4815 12.658 10.1993 12.7762 9.99587 12.9796C9.79242 13.1831 9.67648 13.4651 9.67648 13.7519C9.67648 14.0406 9.79242 14.3226 9.99587 14.5263C10.2013 14.7297 10.4815 14.8457 10.7703 14.8457C11.0588 14.8457 11.3391 14.7297 11.5425 14.5263C11.7479 14.3226 11.8641 14.0406 11.8641 13.7519C11.8641 13.4651 11.7482 13.1828 11.5425 12.9796C11.3391 12.7762 11.0588 12.658 10.7703 12.658ZM9.91449 7.51012L10.1333 11.3015C10.1584 11.7869 10.4833 11.9383 10.7703 11.9383C11.0267 11.9383 11.3857 11.7629 11.4073 11.3015L11.6261 7.51012C11.6261 7.03737 11.2428 6.65432 10.7703 6.65432C10.2978 6.65432 9.91449 7.03737 9.91449 7.51012ZM20.5433 16.7968L11.4303 0.393773C11.2953 0.150727 11.0391 0 10.7609 0C10.7609 0 10.7607 0 10.7604 0C10.4824 0 10.2262 0.151165 10.0913 0.394429L0.960541 16.8629C0.828846 17.1 0.832783 17.389 0.970385 17.6229C1.10799 17.8565 1.35891 18 1.63017 18H19.9106C19.9124 18 19.9139 18 19.915 18C20.3381 18 20.6807 17.6572 20.6807 17.2343C20.6805 17.0716 20.6297 16.9208 20.5433 16.7968ZM2.93006 16.4687L10.7615 2.34338L18.6092 16.4687H2.93006Z" fill="white"/>
</svg>
