<svg width="24" height="24" viewBox="0 0 24 24" fill="none" xmlns="http://www.w3.org/2000/svg">
<path d="M11.9361 9.68682V9.15167C11.9361 8.93948 11.7641 8.76755 11.5519 8.76755C11.3397 8.76755 11.1678 8.93948 11.1678 9.15167V9.6796C10.66 9.82756 10.2876 10.2963 10.2876 10.8512C10.2876 11.2729 10.511 11.6718 10.8704 11.8921L11.8059 12.4654C11.9391 12.547 12.0218 12.6948 12.0218 12.8514V12.9277C12.0218 13.1774 11.8188 13.3805 11.5691 13.3805H11.5085C11.2588 13.3805 11.0558 13.1774 11.0558 12.9277V12.9042C11.0558 12.692 10.8837 12.5201 10.6717 12.5201C10.4597 12.5201 10.2876 12.692 10.2876 12.9042V12.9277C10.2876 13.4888 10.6686 13.9616 11.185 14.1039V14.7463C11.185 14.9585 11.357 15.1304 11.5691 15.1304C11.7813 15.1304 11.9533 14.9585 11.9533 14.7463V14.0859C12.4386 13.9244 12.79 13.4667 12.79 12.9277V12.8514C12.79 12.4294 12.5666 12.0306 12.2072 11.8104L11.2718 11.2371C11.1385 11.1554 11.0558 11.0074 11.0558 10.8512C11.0558 10.6015 11.2588 10.3985 11.5085 10.3985H11.5691C11.8188 10.3985 12.0218 10.6016 12.0218 10.8512V11.0547C12.0218 11.2669 12.1937 11.4389 12.4059 11.4389C12.6181 11.4389 12.79 11.2669 12.79 11.0547V10.8512C12.7902 10.3057 12.4306 9.84293 11.9361 9.68682Z" fill="white"/>
<path d="M21.109 10.0441C20.1692 10.0441 19.3834 10.715 19.2046 11.6029H16.3873C16.3018 10.5536 15.8816 9.59826 15.2334 8.84338L17.2251 6.8518C17.541 7.06261 17.9121 7.176 18.3007 7.176C18.8195 7.176 19.3075 6.97395 19.6743 6.60689C20.4319 5.84925 20.4319 4.61669 19.6743 3.8592C19.3074 3.49229 18.8195 3.29009 18.3007 3.29009C17.7816 3.29009 17.2936 3.49214 16.9269 3.8592C16.2622 4.52373 16.1811 5.55363 16.6824 6.30804L14.689 8.30147C13.9309 7.65753 12.9734 7.24253 11.9232 7.16263V4.34734C12.8111 4.1685 13.482 3.38274 13.482 2.44288C13.482 1.37164 12.6105 0.5 11.5391 0.5C10.4677 0.5 9.59605 1.3718 9.59605 2.44303C9.59605 3.38289 10.2669 4.16865 11.1548 4.34749V7.16478C10.1102 7.2499 9.15846 7.66675 8.40512 8.31023L6.41047 6.31542C6.61651 6.00182 6.72775 5.63537 6.72775 5.25156C6.72775 4.73254 6.5257 4.2447 6.15864 3.87764C5.79157 3.51073 5.30374 3.30853 4.78487 3.30853C4.26601 3.30853 3.77802 3.51058 3.41111 3.87764C3.0442 4.2447 2.842 4.73254 2.842 5.25156C2.842 5.77043 3.04404 6.25841 3.41111 6.62532C3.78985 7.00407 4.28736 7.19336 4.78487 7.19336C5.16454 7.19336 5.54374 7.08227 5.87055 6.86179L7.86198 8.85306C7.21589 9.60962 6.79827 10.5661 6.71561 11.6158H3.89679C3.71287 10.7343 2.93019 10.0701 1.99509 10.0701C0.923705 10.0701 0.0522156 10.9416 0.0522156 12.013C0.0522156 13.0844 0.923705 13.9559 1.99509 13.9559C2.93941 13.9559 3.72778 13.2784 3.90155 12.3842H6.71577C6.79843 13.4339 7.21604 14.3904 7.86213 15.1469L5.86748 17.1416C5.11414 16.6481 4.091 16.7318 3.4297 17.3934C3.06279 17.7603 2.86059 18.2482 2.86059 18.767C2.86059 19.2861 3.06264 19.774 3.4297 20.1408C3.79677 20.5079 4.2846 20.7099 4.80347 20.7099C5.32233 20.7099 5.81032 20.5079 6.17723 20.1408C6.54414 19.7739 6.74634 19.2861 6.74634 18.767C6.74634 18.3742 6.63003 17.9993 6.41446 17.6809L8.40528 15.6901C9.16184 16.3362 10.1183 16.7538 11.168 16.8364V19.6553C10.2865 19.8392 9.62232 20.6219 9.62232 21.5571C9.62232 22.6285 10.4938 23.5 11.5652 23.5C12.6366 23.5 13.5081 22.6285 13.5081 21.5571C13.5081 20.6128 12.8306 19.8244 11.9364 19.6507V16.8364C12.9907 16.7535 13.9509 16.3325 14.709 15.6815L16.7007 17.6732C16.4898 17.9891 16.3765 18.3602 16.3765 18.7488C16.3765 19.2676 16.5786 19.7556 16.9456 20.1224C17.3125 20.4894 17.8004 20.6915 18.3192 20.6915C18.8383 20.6915 19.3263 20.4894 19.693 20.1224C20.0601 19.7555 20.2621 19.2676 20.2621 18.7488C20.2621 18.2297 20.0601 17.7417 19.693 17.375C19.3261 17.0079 18.8383 16.8059 18.3192 16.8059C17.9308 16.8059 17.5598 16.9193 17.2439 17.1301L15.2509 15.1371C15.8948 14.379 16.3098 13.4215 16.3897 12.3713H19.205C19.3839 13.2592 20.1696 13.93 21.1095 13.93C22.1809 13.93 23.0524 13.0586 23.0524 11.9872C23.0524 10.9158 22.1804 10.0441 21.109 10.0441ZM17.6873 4.61976C17.8565 4.45059 18.0785 4.36609 18.3005 4.36609C18.5227 4.36609 18.7449 4.45059 18.9139 4.61976C19.2519 4.95794 19.2519 5.50815 18.9139 5.84633C18.5758 6.18435 18.0256 6.18466 17.6873 5.84633C17.3493 5.50815 17.3493 4.95794 17.6873 4.61976ZM10.6716 2.44303C10.6716 1.96488 11.0608 1.57569 11.5389 1.57569C12.0171 1.57569 12.4063 1.96472 12.4063 2.44303C12.4063 2.92134 12.0172 3.31037 11.5389 3.31037C11.0606 3.31037 10.6716 2.92134 10.6716 2.44303ZM4.17167 5.86477C3.83349 5.52659 3.83349 4.97638 4.17167 4.6382C4.34068 4.46903 4.56285 4.38452 4.78487 4.38452C5.0069 4.38452 5.22907 4.46903 5.39808 4.6382C5.73626 4.97638 5.73626 5.52659 5.39808 5.86477C5.06006 6.20295 4.50969 6.20295 4.17167 5.86477ZM1.99494 12.8803C1.51663 12.8803 1.1276 12.4913 1.1276 12.013C1.1276 11.5347 1.51663 11.1456 1.99494 11.1456C2.47324 11.1456 2.86228 11.5347 2.86228 12.013C2.86228 12.4913 2.47324 12.8803 1.99494 12.8803ZM5.41667 19.3804C5.07865 19.7186 4.52828 19.7186 4.19026 19.3804C3.85208 19.0422 3.85208 18.492 4.19026 18.1538C4.35927 17.9847 4.58144 17.9003 4.80347 17.9003C5.02549 17.9003 5.24766 17.9848 5.41667 18.1538C5.75485 18.492 5.75485 19.0422 5.41667 19.3804ZM12.4324 21.5571C12.4324 22.0353 12.0433 22.4245 11.565 22.4245C11.0867 22.4245 10.6977 22.0354 10.6977 21.5571C10.6977 21.0788 11.0869 20.6896 11.565 20.6896C12.0432 20.6896 12.4324 21.0788 12.4324 21.5571ZM18.3191 17.8817C18.5411 17.8817 18.7633 17.9662 18.9323 18.1352C19.2703 18.4734 19.2703 19.0236 18.9323 19.3618C18.594 19.7 18.0438 19.7 17.7057 19.3618C17.3677 19.0236 17.3677 18.4734 17.7057 18.1352C17.8749 17.9662 18.0969 17.8817 18.3191 17.8817ZM11.552 15.7775C9.46898 15.7775 7.77455 14.0831 7.77455 12.0001C7.77455 9.91707 9.46913 8.22265 11.552 8.22265C13.6348 8.22265 15.3294 9.91707 15.3294 12.0001C15.3294 14.0831 13.635 15.7775 11.552 15.7775ZM21.109 12.8544C20.6307 12.8544 20.2415 12.4653 20.2415 11.987C20.2415 11.5087 20.6306 11.1197 21.109 11.1197C21.5872 11.1197 21.9764 11.5087 21.9764 11.987C21.9764 12.4652 21.5873 12.8544 21.109 12.8544Z" fill="white"/>
</svg>
