<svg xmlns="http://www.w3.org/2000/svg" viewBox="0 0 100 125"><g fill="#fff"><path d="M88.17 68.105a4.477 4.477 0 00-3.998-.703l-2.18.655a3.287 3.287 0 00-1.369-2.63 3.28 3.28 0 00-2.98-.465l-21.287 7.096 4.581-4.581c.93-.93 1.443-2.165 1.443-3.477s-.513-2.547-1.443-3.477c-1.628-1.628-4.207-1.905-6.128-.654l-11.007 7.073c-.41.04-.84.058-1.312.058H34v-2a1 1 0 00-1-1H11a1 1 0 00-1 1v24a1 1 0 001 1h22a1 1 0 001-1v-2.915l21.546 1.754a20.373 20.373 0 008.902-1.726l22.936-10.257A4.554 4.554 0 0090 71.75v-.01a4.489 4.489 0 00-1.83-3.635zM19 88h-7V66h7v22zm13-20v20H21V66h11v2zm46.272-1.14a1.292 1.292 0 011.178.187 1.312 1.312 0 01.417 1.648l-18.952 5.689c-.07.022-.14.04-.249.067-.03.004-.058.01-.087.016-.883.21-1.974.078-2.786-.312l-.346-.19c-.054-.033-.097-.078-.15-.114l20.975-6.99zM88 71.75c0 .978-.574 1.879-1.448 2.287l-22.917 10.25a18.309 18.309 0 01-7.974 1.556L34 84.078V69h8.49c.432 0 .834-.014 1.22-.043a1 1 0 00.814-.105l11.37-7.303a2.914 2.914 0 013.63 4.513l-5.061 5.061a.999.999 0 00-.292.746c.027.712.205 1.377.514 1.945a4.549 4.549 0 001.762 1.88l.426.236a6.35 6.35 0 001.084.398 6.394 6.394 0 001.703.242c.085 0 .167-.01.25-.013.056-.002.11-.006.166-.01a5.946 5.946 0 001.068-.154 7.36 7.36 0 00.353-.095l19.29-5.79.007-.004 3.954-1.187a2.506 2.506 0 012.23.393A2.51 2.51 0 0188 71.74v.01z"/><path d="M26 76c2.206 0 4-1.794 4-4s-1.794-4-4-4-4 1.794-4 4 1.794 4 4 4zm0-6c1.103 0 2 .897 2 2s-.897 2-2 2-2-.897-2-2 .897-2 2-2zm51.81-60H49.19c-1.21 0-2.19.98-2.19 2.19v13.26a13.93 13.93 0 00-3.5-.45c-8 0-14.5 6.5-14.5 14.5S35.5 54 43.5 54c1.21 0 2.38-.16 3.5-.45v2.76c0 1.21.98 2.19 2.19 2.19h28.62c1.21 0 2.19-.98 2.19-2.19V12.19c0-1.21-.98-2.19-2.19-2.19zM48.24 51.06c-1.46.6-3.06.94-4.74.94C36.61 52 31 46.39 31 39.5S36.61 27 43.5 27c1.68 0 3.28.34 4.74.94.05.02.11.04.16.06 1.06.46 2.04 1.05 2.92 1.76.09.08.18.15.27.23.23.19.45.39.67.6.09.1.19.2.28.31.18.18.35.36.51.55.3.36.58.73.84 1.11.09.13.16.26.24.4.18.29.35.58.5.89.13.25.26.5.37.75.01.02.02.04.02.06.15.34.27.68.38 1.03.05.15.09.3.13.45.06.22.12.43.17.65.03.15.06.3.08.45.05.24.09.49.12.73.01.13.03.26.04.39a10.747 10.747 0 010 2.28c-.01.13-.03.26-.04.39-.03.24-.07.48-.11.72-.03.16-.06.31-.1.47-.04.21-.1.41-.16.62-.04.16-.08.32-.13.47-.02.07-.05.14-.07.21-.11.3-.22.6-.34.9-.11.25-.23.49-.35.73-.07.12-.12.25-.19.37A12.605 12.605 0 0148.4 51c-.05.02-.11.04-.16.06zm4.34-22.87V26.9h2.77v2.77h-1.19c-.24-.27-.5-.53-.76-.77l-.04-.04c-.25-.23-.51-.46-.78-.67zm2.77 21.96v2.77h-2.77v-2.11c.06-.05.11-.1.17-.15.14-.11.27-.22.39-.33l.21-.18h2zM78 56.31c0 .11-.08.19-.19.19H49.19c-.11 0-.19-.08-.19-.19v-3.39c.03-.01.05-.03.08-.04.48-.2.95-.43 1.41-.68.03-.02.06-.03.09-.05v1.77c0 .55.45 1 1 1h4.77c.55 0 1-.45 1-1v-4.77c0-.55-.45-1-1-1h-1.22c.24-.32.46-.65.67-.98h.55c.55 0 1-.45 1-1V43.8c.04-.14.07-.28.11-.41.06-.25.13-.5.19-.74.04-.18.07-.36.1-.54.05-.27.09-.55.13-.83.02-.15.04-.3.05-.46.04-.44.07-.88.07-1.32a14.818 14.818 0 00-.12-1.77c-.03-.29-.08-.57-.13-.86a8.84 8.84 0 00-.1-.5c-.06-.27-.13-.53-.2-.8-.04-.12-.06-.25-.1-.37v-1.55c0-.55-.45-1-1-1h-.08v-.01c-.01-.02-.02-.05-.04-.07-.16-.3-.34-.61-.53-.9h.65c.55 0 1-.45 1-1V25.9c0-.55-.45-1-1-1h-4.77c-.55 0-1 .45-1 1v.95c-.03-.02-.06-.03-.1-.05-.45-.25-.92-.48-1.4-.68-.03-.01-.05-.03-.08-.04V12.19c0-.11.08-.19.19-.19h28.62c.11 0 .19.08.19.19v44.12z"/><path d="M76.02 14.17H50.98c-.55 0-1 .45-1 1v7.16c0 .55.45 1 1 1h25.04c.55 0 1-.45 1-1v-7.16c0-.55-.45-1-1-1zm-1 7.16H51.98v-1.39h2.79c.55 0 1-.44 1-1 0-.55-.45-1-1-1h-2.79v-1.77h23.04v5.16zm-9.135 3.574h-4.77a1 1 0 00-1 1v4.769a1 1 0 001 1h4.77a1 1 0 001-1v-4.769a1 1 0 00-1-1zm-1 4.769h-2.77v-2.769h2.77v2.769zm10.538-4.769h-4.769a1 1 0 00-1 1v4.769a1 1 0 001 1h4.769a1 1 0 001-1v-4.769a1 1 0 00-1-1zm-1 4.769h-2.769v-2.769h2.769v2.769zm-8.538 2.981h-4.77a1 1 0 00-1 1v4.769a1 1 0 001 1h4.77a1 1 0 001-1v-4.769a1 1 0 00-1-1zm-1 4.769h-2.77v-2.769h2.77v2.769zm10.538-4.769h-4.769a1 1 0 00-1 1v4.769a1 1 0 001 1h4.769a1 1 0 001-1v-4.769a1 1 0 00-1-1zm-1 4.769h-2.769v-2.769h2.769v2.769zm-8.538 2.981h-4.77a1 1 0 00-1 1v4.769a1 1 0 001 1h4.77a1 1 0 001-1v-4.769a1 1 0 00-1-1zm-1 4.769h-2.77v-2.769h2.77v2.769zm10.538-4.769h-4.769a1 1 0 00-1 1v12.519a1 1 0 001 1h4.769a1 1 0 001-1V41.404a1 1 0 00-1-1zm-1 12.519h-2.769V42.404h2.769v10.519zm-8.538-4.769h-4.77a1 1 0 00-1 1v4.769a1 1 0 001 1h4.77a1 1 0 001-1v-4.769a1 1 0 00-1-1zm-1 4.769h-2.77v-2.769h2.77v2.769z"/><path d="M64.025 17.942h-4.628a1 1 0 100 2h4.628a1 1 0 100-2zm6.629 0h-2a1 1 0 100 2h2a1 1 0 100-2zM44.272 44H40a1 1 0 100 2h3v1a1 1 0 102 0v-1.074c1.708-.34 3-1.847 3-3.654v-.793c0-1.915-1.693-3.473-3.776-3.479H42.5c-.827 0-1.5-.673-1.5-1.5s.673-1.5 1.5-1.5H47a1 1 0 100-2h-2v-1a1 1 0 10-2 0v1h-.5c-1.93 0-3.5 1.57-3.5 3.5s1.57 3.5 3.5 3.5h1.712c.986 0 1.788.664 1.788 1.48v.792A1.73 1.73 0 0144.272 44z"/></g></svg>