<svg width="31" height="24" viewBox="0 0 31 24" fill="none" xmlns="http://www.w3.org/2000/svg">
<path d="M29.6277 22.8896H24.3051V4.9266H25.2934C26.4518 4.92464 27.5621 4.46334 28.3809 3.64387C29.1997 2.8244 29.66 1.71365 29.661 0.555231C29.661 0.407979 29.6025 0.266759 29.4984 0.162637C29.3943 0.0585141 29.2531 1.84157e-05 29.1058 1.84157e-05H27.5919C26.8138 0.000393829 26.0498 0.208485 25.3789 0.602803C24.7081 0.997121 24.1546 1.56337 23.7758 2.24308C23.3957 1.56117 22.8399 0.993501 22.1662 0.599047C21.4925 0.204594 20.7255 -0.00224731 19.9448 1.84157e-05H18.4642C18.317 1.84157e-05 18.1758 0.0585141 18.0716 0.162637C17.9675 0.266759 17.909 0.407979 17.909 0.555231C17.91 1.71109 18.3683 2.81961 19.1839 3.63866C19.9995 4.45771 21.106 4.92074 22.2619 4.9266H23.1946V22.8896H15.6586V11.7853H16.6468C17.8046 11.7844 18.9148 11.3245 19.7342 10.5065C20.5535 9.68854 21.0153 8.57913 21.0182 7.42136C21.0182 7.27411 20.9597 7.13289 20.8556 7.02876C20.7515 6.92464 20.6103 6.86615 20.463 6.86615H18.9491C18.1706 6.86689 17.4064 7.07554 16.7355 7.47053C16.0646 7.86551 15.5114 8.43251 15.133 9.1129C14.7541 8.4332 14.2007 7.86695 13.5298 7.47263C12.8589 7.07831 12.095 6.87022 11.3168 6.86985H9.80293C9.65567 6.86985 9.51445 6.92834 9.41033 7.03246C9.30621 7.13659 9.24771 7.27781 9.24771 7.42506C9.24967 8.58348 9.71097 9.69383 10.5304 10.5126C11.3499 11.3314 12.4607 11.7918 13.6191 11.7927H14.5518V22.897H7.01576V19.4214H8.00404C9.16246 19.4194 10.2728 18.9581 11.0916 18.1386C11.9104 17.3191 12.3707 16.2084 12.3717 15.05C12.3717 14.9027 12.3132 14.7615 12.2091 14.6574C12.105 14.5533 11.9637 14.4948 11.8165 14.4948H10.3211C9.54296 14.4951 8.779 14.7032 8.10814 15.0975C7.43728 15.4919 6.88383 16.0581 6.50496 16.7378C6.12609 16.0581 5.57265 15.4919 4.90179 15.0975C4.23093 14.7032 3.46697 14.4951 2.6888 14.4948H1.16012C1.01287 14.4948 0.871648 14.5533 0.767525 14.6574C0.663403 14.7615 0.604907 14.9027 0.604907 15.05C0.605886 16.2084 1.06625 17.3191 1.88503 18.1386C2.7038 18.9581 3.81416 19.4194 4.97258 19.4214H5.90533V22.8896H0.63822C0.490969 22.8896 0.349748 22.9481 0.245626 23.0522C0.141503 23.1563 0.0830078 23.2975 0.0830078 23.4448C0.0830078 23.592 0.141503 23.7333 0.245626 23.8374C0.349748 23.9415 0.490969 24 0.63822 24H29.6277C29.775 24 29.9162 23.9415 30.0203 23.8374C30.1244 23.7333 30.1829 23.592 30.1829 23.4448C30.1829 23.2975 30.1244 23.1563 30.0203 23.0522C29.9162 22.9481 29.775 22.8896 29.6277 22.8896ZM27.5919 1.11414H28.5062C28.3746 1.8711 27.9804 2.55742 27.3927 3.05232C26.805 3.54723 26.0617 3.81903 25.2934 3.81988H24.3865C24.517 3.0635 24.9099 2.37729 25.4961 1.88179C26.0823 1.38629 26.8244 1.11319 27.5919 1.11044V1.11414ZM22.2619 3.81988C21.4936 3.81903 20.7502 3.54723 20.1625 3.05232C19.5749 2.55742 19.1806 1.8711 19.0491 1.11414H19.9448C20.7131 1.115 21.4565 1.38679 22.0442 1.8817C22.6318 2.37661 23.0261 3.06292 23.1576 3.81988H22.2619ZM18.9306 7.98027H19.8449C19.7133 8.73723 19.319 9.42354 18.7314 9.91845C18.1437 10.4134 17.4003 10.6852 16.632 10.686H15.7363C15.8671 9.92837 16.261 9.24119 16.8487 8.74554C17.4365 8.24989 18.1803 7.97757 18.9491 7.97657L18.9306 7.98027ZM13.6006 10.686C12.8323 10.6852 12.0889 10.4134 11.5012 9.91845C10.9136 9.42354 10.5193 8.73723 10.3877 7.98027H11.302C12.0703 7.98112 12.8137 8.25292 13.4013 8.74783C13.989 9.24274 14.3833 9.92905 14.5148 10.686H13.6191H13.6006ZM10.3211 15.6052H11.2354C11.1038 16.3621 10.7096 17.0485 10.1219 17.5434C9.53423 18.0383 8.79084 18.3101 8.02255 18.3109H7.08979C7.22186 17.5508 7.61885 16.8621 8.21035 16.3668C8.80185 15.8715 9.54965 15.6017 10.3211 15.6052ZM4.99109 18.3109C4.22279 18.3101 3.4794 18.0383 2.89174 17.5434C2.30408 17.0485 1.90979 16.3621 1.77826 15.6052H2.69251C3.45634 15.6121 4.19357 15.8866 4.77587 16.381C5.35817 16.8754 5.74868 17.5583 5.87943 18.3109H4.97258H4.99109Z" fill="white"/>
</svg>
