<svg width="18" height="23" viewBox="0 0 18 23" fill="none" xmlns="http://www.w3.org/2000/svg">
<path d="M9.06886 0.176514C4.708 0.176514 0.878265 5.79532 0.878265 12.1968C0.878265 18.0672 4.23278 22.1765 9.06886 22.1765C13.9049 22.1765 17.2595 18.0672 17.2595 12.1968C17.2595 5.79532 13.4297 0.176514 9.06886 0.176514ZM9.06886 1.29468C12.5631 1.29468 15.6381 5.65555 16.0854 10.9109L14.8554 9.68096C14.6318 9.45733 14.2963 9.45733 14.0727 9.68096L11.5847 12.1409L9.2925 9.84869C9.06886 9.62505 8.73341 9.62505 8.50978 9.84869L6.0498 12.3087L4.093 10.3519C3.89732 10.1562 3.61778 10.1282 3.39415 10.268L2.02439 11.1625C2.41575 5.79532 5.54663 1.29468 9.06886 1.29468ZM1.99644 12.5043L3.61778 11.4421L5.63049 13.4548C5.74231 13.5666 5.88208 13.6225 6.02185 13.6225C6.16162 13.6225 6.30139 13.5666 6.41321 13.4548L8.87318 10.9948L11.1654 13.2871C11.3891 13.5107 11.7245 13.5107 11.9481 13.2871L14.4081 10.8271L16.0854 12.5043C16.0574 13.5386 15.9177 14.517 15.6661 15.3836C15.6381 15.4395 13.8211 18.9059 10.5504 20.8627C10.0752 20.9745 9.54408 21.0304 9.01295 21.0304C4.98754 21.0863 2.10825 17.5641 1.99644 12.5043Z" fill="white"/>
</svg>
