<?xml version="1.0" standalone="no"?>
<!DOCTYPE svg PUBLIC "-//W3C//DTD SVG 20010904//EN"
 "http://www.w3.org/TR/2001/REC-SVG-20010904/DTD/svg10.dtd">
<svg version="1.0" xmlns="http://www.w3.org/2000/svg"
 width="48.000000pt" height="48.000000pt" viewBox="0 0 48.000000 48.000000"
 preserveAspectRatio="xMidYMid meet">

<g transform="translate(0.000000,48.000000) scale(0.100000,-0.100000)"
fill="#000000" stroke="none">
<path d="M121 404 c-12 -15 -21 -38 -21 -51 0 -15 -14 -37 -35 -57 -46 -44
-46 -76 0 -113 22 -18 35 -37 35 -51 0 -69 51 -100 112 -68 24 13 32 13 55 0
30 -15 62 -18 79 -6 17 11 34 48 34 72 0 12 16 36 35 54 46 44 46 76 0 113
-24 19 -35 36 -35 54 0 33 -35 79 -61 79 -11 0 -33 -7 -49 -15 -25 -13 -32
-13 -57 0 -41 22 -69 18 -92 -11z m77 -13 c12 -7 12 -12 1 -30 -8 -11 -19 -21
-26 -21 -6 0 -18 -3 -27 -6 -12 -5 -16 0 -16 18 0 41 35 60 68 39z m146 -23
c12 -33 8 -38 -25 -31 -32 6 -57 42 -37 54 23 16 52 5 62 -23z m-38 -93 c18
-34 18 -36 0 -70 -18 -32 -23 -35 -66 -35 -43 0 -48 3 -66 35 -18 34 -18 36 0
70 18 32 23 35 66 35 43 0 48 -3 66 -35z m-191 -57 c-6 -23 -9 -26 -25 -18
-32 17 -36 51 -9 73 23 18 23 18 31 -4 5 -13 6 -35 3 -51z m301 30 c5 -16 0
-27 -17 -41 -23 -18 -23 -18 -31 4 -5 13 -6 35 -3 51 6 23 9 26 25 18 10 -6
22 -20 26 -32z m-221 -129 c17 -17 18 -21 5 -29 -35 -22 -70 0 -70 45 0 21 36
12 65 -16z m155 8 c0 -40 -35 -59 -69 -38 -13 8 -13 12 -1 26 13 16 44 33 63
34 4 1 7 -9 7 -22z"/>
<path d="M223 279 c-31 -12 -35 -54 -6 -76 29 -22 75 11 66 48 -7 26 -33 39
-60 28z m27 -39 c0 -5 -4 -10 -10 -10 -5 0 -10 5 -10 10 0 6 5 10 10 10 6 0
10 -4 10 -10z"/>
</g>
</svg>
