<svg width="22" height="20" viewBox="0 0 22 20" fill="none" xmlns="http://www.w3.org/2000/svg">
<path d="M11 5.62476C11.2966 5.62476 11.5866 5.5368 11.8333 5.37199C12.0799 5.20719 12.2722 4.97294 12.3857 4.69888C12.4992 4.42482 12.5289 4.12325 12.471 3.83231C12.4132 3.54136 12.2703 3.27412 12.0606 3.06436C11.8508 2.8546 11.5836 2.71175 11.2926 2.65388C11.0017 2.59601 10.7001 2.62571 10.426 2.73923C10.152 2.85275 9.91773 3.04499 9.75292 3.29164C9.58812 3.53829 9.50015 3.82827 9.50015 4.12491C9.50074 4.52252 9.65894 4.90367 9.94009 5.18482C10.2212 5.46597 10.6024 5.62418 11 5.62476ZM11 3.50383C11.1224 3.50383 11.2421 3.54013 11.3438 3.60813C11.4456 3.67613 11.5249 3.77279 11.5718 3.88587C11.6186 3.99896 11.6309 4.1234 11.607 4.24345C11.5831 4.3635 11.5242 4.47377 11.4376 4.56032C11.3511 4.64688 11.2408 4.70582 11.1207 4.7297C11.0007 4.75358 10.8763 4.74132 10.7632 4.69448C10.6501 4.64764 10.5534 4.56832 10.4854 4.46654C10.4174 4.36477 10.3811 4.24511 10.3811 4.12271C10.3823 3.95913 10.4479 3.80262 10.5638 3.68716C10.6797 3.57169 10.8364 3.50661 11 3.50603V3.50383Z" fill="white"/>
<path d="M19.8493 16.7757H19.5894V16.0246C19.5895 15.6711 19.4682 15.3283 19.2456 15.0537C19.0231 14.779 18.7129 14.5892 18.3671 14.516V7.36029H19.3252C19.417 7.35969 19.5064 7.33036 19.5808 7.27641C19.6552 7.22247 19.7109 7.14661 19.74 7.05946C19.7692 6.97231 19.7703 6.87823 19.7433 6.79039C19.7163 6.70255 19.6625 6.62536 19.5894 6.56962L11.2709 0.0922945C11.1937 0.0324667 11.0988 0 11.0011 0C10.9034 0 10.8085 0.0324667 10.7313 0.0922945L2.41054 6.56962C2.33763 6.62525 2.28389 6.70224 2.25683 6.78987C2.22977 6.87749 2.23074 6.97138 2.25959 7.05843C2.28845 7.14548 2.34376 7.22136 2.4178 7.27547C2.49184 7.32958 2.58093 7.35924 2.67263 7.36029H3.63069V14.5182C3.28564 14.5918 2.97626 14.7815 2.75421 15.0556C2.53215 15.3298 2.41085 15.6718 2.41054 16.0246V16.7757H2.15066C1.72308 16.7757 1.31302 16.9455 1.01068 17.2478C0.708336 17.5502 0.538483 17.9603 0.538483 18.3878C0.538483 18.8154 0.708336 19.2255 1.01068 19.5278C1.31302 19.8301 1.72308 20 2.15066 20H19.8493C20.2769 20 20.687 19.8301 20.9893 19.5278C21.2917 19.2255 21.4615 18.8154 21.4615 18.3878C21.4615 17.9603 21.2917 17.5502 20.9893 17.2478C20.687 16.9455 20.2769 16.7757 19.8493 16.7757ZM17.4883 14.4829H16.0656V7.36029H17.4949L17.4883 14.4829ZM9.13014 7.36029H10.5595V14.4829H9.13014V7.36029ZM8.24917 14.4851H6.81539V7.36029H8.24476L8.24917 14.4851ZM11.4405 7.36029H12.8699V14.4829H11.4405V7.36029ZM13.7508 7.36029H15.1846V14.4829H13.7508V7.36029ZM11 1.0041L18.0478 6.47932H3.95224L11 1.0041ZM5.93442 7.36029V14.4829H4.51165V7.36029H5.93442ZM3.29151 16.0246C3.29151 15.8494 3.36112 15.6813 3.48503 15.5574C3.60894 15.4335 3.777 15.3639 3.95224 15.3639H18.0478C18.223 15.3639 18.391 15.4335 18.515 15.5574C18.6389 15.6813 18.7085 15.8494 18.7085 16.0246V16.7757H3.29151V16.0246ZM19.8537 19.108H2.15066C1.95673 19.108 1.77074 19.031 1.63362 18.8939C1.49649 18.7567 1.41945 18.5707 1.41945 18.3768C1.41945 18.1829 1.49649 17.9969 1.63362 17.8598C1.77074 17.7226 1.95673 17.6456 2.15066 17.6456H19.8493C20.0433 17.6456 20.2292 17.7226 20.3664 17.8598C20.5035 17.9969 20.5805 18.1829 20.5805 18.3768C20.5805 18.5707 20.5035 18.7567 20.3664 18.8939C20.2292 19.031 20.0433 19.108 19.8493 19.108H19.8537Z" fill="white"/>
</svg>
