<svg xmlns="http://www.w3.org/2000/svg" viewBox="0 0 100 125"><path fill="#fff" d="M95.857 65.81l-9.2-21.13a1.165 1.165 0 01-.1-.47C86.426 21.683 68.102 3.468 45.52 3.468c-22.667 0-41.04 18.351-41.04 40.988 0 13.825 6.854 26.053 17.356 33.475.42.294.674.773.674 1.29v17.31h46.296v-9.52c0-.869.705-1.57 1.57-1.57H82.36c.628 0 1.15-.473 1.212-1.095.247-2.442.866-8.684 1.478-15.723a1.217 1.217 0 011.212-1.11h8.48c.878 0 1.466-.903 1.116-1.704zM44.481 11.284c12.886-.504 24.538 6.49 29.908 17.32 1.033 2.083 1.893 4.262 2.351 6.396H58.054l-1.522-4.648a1.546 1.546 0 00-2.976.135l-2.135 9.318-1.959-7.466a1.546 1.546 0 00-2.971-.065l-1.033 3.335-3.074-19.563a1.546 1.546 0 00-3.067.11l-2.365 28.057-2.763-16.58a1.546 1.546 0 00-1.506-1.291h-.02c-.74 0-1.377.526-1.517 1.254l-1.698 8.85-1.094-7.086a1.545 1.545 0 00-3.01-.204L23.613 35h-9.034C18.21 21.783 30.056 11.847 44.48 11.284zm12.935 38.583c-5.354.189-17.198 3.59-15.924 14.274 1.125 9.448-12.577 11.522-14.228 1.493-2.043-12.416-13.163-4.164-13.813-20.8-.09-2.303.066-4.558.44-6.742h10.875c.684 0 1.287-.45 1.482-1.107l.102-.344 1.405 9.104a1.545 1.545 0 001.5 1.31h.028c.74 0 1.378-.525 1.518-1.254l1.756-9.153 3.374 20.245a1.546 1.546 0 003.065-.124l2.324-27.575 2.117 13.472a1.546 1.546 0 003.004.217l1.403-4.53 2.184 8.322c.178.68.793 1.153 1.494 1.153h.025a1.546 1.546 0 001.483-1.2l2.296-10.022.138.42c.208.636.8 1.066 1.47 1.066h20.162c.02 6.11-4.513 11.24-19.68 11.775z"/></svg>