<?xml version="1.0" standalone="no"?>
<!DOCTYPE svg PUBLIC "-//W3C//DTD SVG 20010904//EN"
 "http://www.w3.org/TR/2001/REC-SVG-20010904/DTD/svg10.dtd">
<svg version="1.0" xmlns="http://www.w3.org/2000/svg"
 width="48.000000pt" height="48.000000pt" viewBox="0 0 48.000000 48.000000"
 preserveAspectRatio="xMidYMid meet">

<g transform="translate(0.000000,48.000000) scale(0.100000,-0.100000)"
fill="#000000" stroke="none">
<path d="M163 399 c-21 -8 -28 -20 -24 -41 0 -5 -18 -8 -40 -8 l-42 0 7 -77
c3 -42 6 -107 6 -145 l0 -68 170 0 170 0 0 68 c0 38 3 103 6 145 l7 77 -37 0
c-30 0 -38 5 -46 25 -13 34 -50 37 -82 8 -16 -14 -20 -14 -35 -1 -28 24 -37
26 -60 17z m42 -39 c3 -5 -3 -10 -14 -10 -12 0 -21 5 -21 10 0 6 6 10 14 10 8
0 18 -4 21 -10z m105 0 c0 -5 -9 -10 -21 -10 -11 0 -17 5 -14 10 3 6 13 10 21
10 8 0 14 -4 14 -10z m80 -59 c0 -5 -65 -9 -150 -9 -85 0 -150 4 -150 9 0 5
65 9 150 9 85 0 150 -4 150 -9z m-20 -131 l0 -80 -55 0 -55 0 0 75 c0 68 -2
75 -20 75 -18 0 -20 -7 -20 -75 l0 -75 -55 0 -55 0 0 80 0 80 130 0 130 0 0
-80z"/>
</g>
</svg>
