<svg width="21" height="20" viewBox="0 0 21 20" fill="none" xmlns="http://www.w3.org/2000/svg">
<path fill-rule="evenodd" clip-rule="evenodd" d="M10.8948 18.8827C15.8006 18.8827 19.7775 14.9058 19.7775 10C19.7775 5.09421 15.8006 1.11729 10.8948 1.11729C5.98902 1.11729 2.0121 5.09421 2.0121 10C2.0121 14.9058 5.98902 18.8827 10.8948 18.8827ZM10.8948 20C16.4177 20 20.8948 15.5228 20.8948 10C20.8948 4.47715 16.4177 0 10.8948 0C5.37196 0 0.894806 4.47715 0.894806 10C0.894806 15.5228 5.37196 20 10.8948 20ZM14.3473 13.9517C15.4473 12.9898 16.1421 11.5761 16.1421 10C16.1421 7.10202 13.7928 4.75273 10.8948 4.75273C10.8384 4.75273 10.7821 4.75362 10.7261 4.75539C10.7821 4.75362 10.8383 4.75274 10.8948 4.75274C13.7928 4.75274 16.1421 7.10203 16.1421 10C16.1421 11.5761 15.4473 12.9898 14.3473 13.9517ZM11.0663 15.9049C11.0093 15.9065 10.9522 15.9073 10.8948 15.9073C7.63227 15.9073 4.98748 13.2626 4.98748 10C4.98748 7.6197 6.39534 5.5682 8.4238 4.63279C6.39536 5.56821 4.98752 7.61971 4.98752 10C4.98752 13.2625 7.63231 15.9073 10.8948 15.9073C10.9522 15.9073 11.0093 15.9065 11.0663 15.9049ZM15.8921 10C15.8921 12.76 13.6547 14.9973 10.8948 14.9973C8.13486 14.9973 5.8975 12.76 5.8975 10C5.8975 7.24011 8.13486 5.00274 10.8948 5.00274C13.6547 5.00274 15.8921 7.24011 15.8921 10ZM10.8948 16.1573C14.2954 16.1573 17.0521 13.4006 17.0521 10C17.0521 6.59944 14.2954 3.84272 10.8948 3.84272C7.4942 3.84272 4.73748 6.59944 4.73748 10C4.73748 13.4006 7.4942 16.1573 10.8948 16.1573ZM12.5625 10C12.5625 10.9211 11.8158 11.6678 10.8947 11.6678C9.97365 11.6678 9.22696 10.9211 9.22696 10C9.22696 9.07894 9.97365 8.33226 10.8947 8.33226C11.8158 8.33226 12.5625 9.07894 12.5625 10ZM10.8947 12.7633C12.4209 12.7633 13.658 11.5262 13.658 10C13.658 8.4739 12.4209 7.23674 10.8947 7.23674C9.36861 7.23674 8.13144 8.4739 8.13144 10C8.13144 11.5262 9.36861 12.7633 10.8947 12.7633Z" fill="white"/>
</svg>
