<svg width="16" height="13" viewBox="0 0 16 13" fill="none" xmlns="http://www.w3.org/2000/svg">
<path d="M5.49092 0.000693943C5.36473 0.0139191 5.24797 0.0735717 5.16331 0.168069C5.07865 0.262566 5.03214 0.385158 5.03282 0.512026V3.75047H3.32827C3.31053 3.74955 3.29275 3.74955 3.27501 3.75047C3.14882 3.7637 3.03206 3.82336 2.9474 3.91786C2.86274 4.01236 2.81623 4.13495 2.81691 4.26182V7.15938H0.941913C0.924169 7.15845 0.906389 7.15845 0.888646 7.15938C0.762461 7.1726 0.645697 7.23225 0.561039 7.32675C0.47638 7.42125 0.429872 7.54384 0.430549 7.67071V10.0569C0.430564 10.1925 0.484445 10.3226 0.580341 10.4185C0.676237 10.5144 0.806296 10.5682 0.941913 10.5683H1.97529C2.06212 11.5192 2.86738 12.2727 3.83964 12.2727C4.8119 12.2727 5.61715 11.5192 5.70398 10.5683H10.1571C10.2439 11.5192 11.0492 12.2727 12.0215 12.2727C12.9937 12.2727 13.799 11.5192 13.8858 10.5683H14.9192C15.0548 10.5682 15.1849 10.5144 15.2808 10.4185C15.3766 10.3226 15.4305 10.1925 15.4305 10.0569V7.67071C15.4305 7.5351 15.3766 7.40505 15.2808 7.30916C15.1849 7.21327 15.0548 7.15939 14.9192 7.15938H13.0442V4.26182C13.0442 4.12621 12.9903 3.99615 12.8944 3.90026C12.7985 3.80436 12.6684 3.75049 12.5328 3.75047H10.8283V0.512026C10.8283 0.376416 10.7744 0.246367 10.6785 0.150476C10.5826 0.0545854 10.4525 0.000707502 10.3169 0.000693943H8.78282C8.76507 -0.000231314 8.74729 -0.000231314 8.72955 0.000693943C8.66237 0.00415887 8.59654 0.0208224 8.53581 0.0497371C8.47507 0.0786517 8.42063 0.119243 8.37559 0.169203C8.33055 0.219162 8.2958 0.277512 8.27332 0.340906C8.25084 0.4043 8.24107 0.471499 8.24457 0.53867C8.24806 0.605841 8.26476 0.671661 8.29371 0.732377C8.32266 0.793092 8.36328 0.84751 8.41327 0.892521C8.46325 0.937532 8.52162 0.972257 8.58503 0.994706C8.64843 1.01716 8.71564 1.02689 8.78282 1.02336H9.80554V3.75047H6.05555V1.02336H7.07827C7.14604 1.02432 7.21331 1.0118 7.27619 0.986529C7.33908 0.961262 7.39631 0.923754 7.44457 0.876177C7.49282 0.8286 7.53115 0.77191 7.5573 0.709395C7.58346 0.64688 7.59692 0.579791 7.59692 0.512026C7.59692 0.444261 7.58346 0.377172 7.5573 0.314657C7.53115 0.252143 7.49282 0.195452 7.44457 0.147875C7.39631 0.100298 7.33908 0.0627793 7.27619 0.0375127C7.21331 0.012246 7.14604 -0.000264994 7.07827 0.000693943H5.54418C5.52644 -0.000231314 5.50866 -0.000231314 5.49092 0.000693943ZM3.83964 4.77315H7.41918V7.15938H3.83964V4.77315ZM8.44191 4.77315H12.0215V7.15938H8.44191V4.77315ZM1.45328 8.18204H14.4078V9.5456H13.6834C13.3707 8.94161 12.7438 8.52293 12.0215 8.52293C11.2991 8.52293 10.6722 8.94161 10.3595 9.5456H5.50157C5.1889 8.94161 4.56199 8.52293 3.83964 8.52293C3.11729 8.52293 2.49038 8.94161 2.17771 9.5456H1.45328V8.18204ZM3.83964 9.5456C4.31639 9.5456 4.69191 9.9211 4.69191 10.3978C4.69191 10.8745 4.31639 11.2501 3.83964 11.2501C3.36288 11.2501 2.98737 10.8745 2.98737 10.3978C2.98737 9.9211 3.36288 9.5456 3.83964 9.5456ZM12.0215 9.5456C12.4982 9.5456 12.8737 9.9211 12.8737 10.3978C12.8737 10.8745 12.4982 11.2501 12.0215 11.2501C11.5447 11.2501 11.1692 10.8745 11.1692 10.3978C11.1692 9.9211 11.5447 9.5456 12.0215 9.5456ZM3.83964 9.8865C3.55722 9.8865 3.32827 10.1154 3.32827 10.3978C3.32827 10.6802 3.55722 10.9091 3.83964 10.9091C4.12206 10.9091 4.351 10.6802 4.351 10.3978C4.351 10.1154 4.12206 9.8865 3.83964 9.8865ZM12.0215 9.8865C11.739 9.8865 11.5101 10.1154 11.5101 10.3978C11.5101 10.6802 11.739 10.9091 12.0215 10.9091C12.3039 10.9091 12.5328 10.6802 12.5328 10.3978C12.5328 10.1154 12.3039 9.8865 12.0215 9.8865Z" fill="white"/>
</svg>
