<svg width="17" height="19" viewBox="0 0 17 19" fill="none" xmlns="http://www.w3.org/2000/svg">
<path d="M15.2675 4.88382L8.8904 1.21162C8.37774 0.92531 7.74003 0.92531 7.22736 1.21162L0.850278 4.88382C0.325106 5.17012 0 5.74274 0 6.3278V13.6598C0 14.2697 0.325106 14.8174 0.837774 15.1037L7.21486 18.7759C7.47744 18.9253 7.76504 19 8.05263 19C8.34023 19 8.62782 18.9253 8.8904 18.7759L15.255 15.1037C15.7802 14.8174 16.1053 14.2573 16.1053 13.6598V6.3278C16.1053 5.71784 15.7802 5.15768 15.2675 4.88382ZM14.6923 5.78008L11.5288 7.54772C10.866 6.61411 9.82821 5.95436 8.62782 5.79253V2.28216L14.6923 5.78008ZM8.05263 13.1618C6.28956 13.1618 4.86409 11.7303 4.86409 9.98755C4.86409 8.23237 6.30206 6.81328 8.05263 6.81328C9.81571 6.81328 11.2537 8.23237 11.2537 9.98755C11.2537 11.7427 9.81571 13.1618 8.05263 13.1618ZM7.56497 2.23236V5.78008C6.45211 5.90456 5.46429 6.46473 4.78906 7.27386L1.77558 5.56846L7.56497 2.23236ZM1.06285 6.37759L4.21388 8.15768C3.95129 8.70539 3.80124 9.3278 3.80124 9.98755C3.80124 10.5975 3.92628 11.1701 4.16386 11.6805L1.06285 13.4232V6.37759ZM1.62553 14.3195L4.70154 12.5892C5.38926 13.4606 6.40209 14.0581 7.56497 14.195V17.7427L1.62553 14.3195ZM14.7298 14.1826L8.62782 17.6929V14.1826C9.86572 14.0207 10.9286 13.3237 11.5913 12.3402L14.7798 14.1452C14.7673 14.1577 14.7548 14.1701 14.7298 14.1826ZM15.0424 13.0747L12.0664 11.3942C12.2165 10.9585 12.304 10.4855 12.304 9.98755C12.304 9.45228 12.204 8.95436 12.0289 8.48133L15.0424 6.78838V13.0747Z" fill="white"/>
</svg>
