<?xml version="1.0" standalone="no"?>
<!DOCTYPE svg PUBLIC "-//W3C//DTD SVG 20010904//EN"
 "http://www.w3.org/TR/2001/REC-SVG-20010904/DTD/svg10.dtd">
<svg version="1.0" xmlns="http://www.w3.org/2000/svg"
 width="48.000000pt" height="48.000000pt" viewBox="0 0 48.000000 48.000000"
 preserveAspectRatio="xMidYMid meet">

<g transform="translate(0.000000,48.000000) scale(0.100000,-0.100000)"
fill="#000000" stroke="none">
<path d="M360 394 c-75 -47 -138 -64 -242 -64 l-88 0 1 -77 c0 -44 8 -100 17
-128 17 -49 18 -50 61 -53 48 -4 48 -6 25 83 l-7 28 59 -5 c57 -5 124 -31 198
-78 l36 -22 0 65 c0 45 4 68 15 77 19 16 19 57 1 67 -10 6 -16 30 -18 75 l-3
67 -55 -35z m30 -137 l0 -124 -66 34 c-37 18 -84 36 -105 39 -38 6 -39 7 -39
50 0 33 4 44 15 44 27 0 139 41 165 61 14 10 26 19 28 19 1 0 2 -55 2 -123z
m-240 -2 l0 -45 -45 0 -45 0 0 45 0 45 45 0 45 0 0 -45z m-50 -101 c14 -35 13
-44 -5 -44 -8 0 -15 6 -15 13 0 6 -3 22 -6 35 -9 31 14 28 26 -4z"/>
</g>
</svg>
