<svg version="1.0" xmlns="http://www.w3.org/2000/svg" width="682.667" height="681.333" viewBox="0 0 512 511"><path fill="#fff" d="M0 255.5V511h512V0H0v255.5zM184.6 44.3c2.1 2.5 2.4 3.8 2.4 10.7 0 4.4-.5 9-1.1 10.3-1.3 2.9-4.8 4.7-8.9 4.7h-2.9l-.3 7.2-.3 7.3h-7l-.3-21.9-.2-21.8 8.1.4c7.4.3 8.3.6 10.5 3.1zm22.8 17.4c2.1 11.5 3.9 21.2 4 21.8 0 .5-1.5 1-3.4 1-3.1 0-3.5-.3-4.3-3.8-.8-3.5-1.1-3.7-4.7-3.7s-3.8.1-4.4 4.1c-.6 3.8-.8 4-3.9 3.7-2.1-.2-3.1-.8-3-1.8.1-.8 1.8-10.6 3.9-21.8l3.8-20.2h8.2l3.8 20.7zM229.6 42c4.4 1.7 5.3 3.8 5.4 11.8 0 6.6-.3 7.5-2.6 9.7l-2.5 2.3 3 8.7c1.7 4.8 3.1 9.1 3.1 9.6 0 .6-1.7.9-3.7.7l-3.6-.3-3.3-9.5-3.2-9.5-.1 9.7-.1 9.8h-7V41h5.9c3.3 0 7.2.5 8.7 1zm27.4 2c0 2.7-.3 3-3 3h-3v38h-7V47h-3c-2.7 0-3-.3-3-3v-3h19v3zm14.1 8.2l3.4 11.3.5-11 .5-11h6v43l-3.1.3c-3.1.3-3.1.3-6.2-9.5-1.7-5.4-3.4-11.2-3.9-12.8-.6-2.1-.9.6-1.3 9.5l-.5 12.5h-6l-.3-20.5c-.1-11.2 0-21 .2-21.7.3-.7 2.1-1.3 3.9-1.3h3.4l3.4 11.2zM303 44c0 2.9-.1 3-5 3h-5v13h3.5c3.1 0 3.5.3 3.5 2.5s-.4 2.5-3.5 2.5H293v14h5c4.9 0 5 .1 5 3v3h-17V41h17v3zm18.9-1.9c4.2 1.5 5.1 3.5 5.1 11.9 0 6.3-.3 7.4-2.5 9.4l-2.5 2.4 3 8.5c1.6 4.7 3 9 3 9.6 0 .6-1.5 1.1-3.4 1.1-3.4 0-3.4 0-6.9-9.8l-3.6-9.7v9.7L314 85h-7V41h5.9c3.2 0 7.2.5 9 1.1zm24.6-.5c2.2.9 4.5 5.7 4.5 9.4 0 2.8-.3 3-3.4 3-3.2 0-3.5-.3-3.8-3.3-.2-2.7-.7-3.2-2.8-3.2-2 0-2.6.6-2.8 2.9-.3 2.3.6 3.8 4 7.5 7 7.4 7.9 8.7 8.9 13.2C353 79.2 348.7 85 341 85c-6.7 0-9.9-3.4-10-10.8 0-5.1 0-5.2 3-5.2 2.7 0 3 .3 3 3.3 0 7.3 6.2 9.5 6.8 2.4.3-3.3-.3-4.3-5.1-9.5-6.8-7.1-7.7-8.9-7.7-14.7 0-6.3 3.1-9.5 9.4-9.5 2.4 0 5.2.3 6.1.6zm16.3 9.2l.3 9.3 3.2-.3 3.2-.3.3-9.3.3-9.2h6.9l-.2 21.7-.3 21.8-3.2.3-3.2.3-.3-9.8-.3-9.8-3.2-.3-3.2-.3-.3 9.8-.3 9.8h-7l-.3-21.8-.2-21.8 3.7.3 3.8.3.3 9.3zM388 63v22h-7V41h7v22zm19.6-21c4.5 1.8 5.3 3.8 5.4 13.2 0 4.7-.3 9.4-.6 10.3-.9 2.2-5.6 4.5-9.3 4.5h-3l-.3 7.2-.3 7.3-3.2.3-3.3.3V41h5.9c3.3 0 7.2.5 8.7 1zm24.9-.4c2.2.9 4.5 5.7 4.5 9.4 0 2.8-.3 3-3.4 3-3.2 0-3.5-.3-3.8-3.3-.2-2.7-.7-3.2-2.8-3.2-3.7 0-4.1 5.3-.5 8.6 9.1 8.5 12.3 15.3 10.4 22.1-2 7.6-13.7 9.3-18.6 2.9-.7-.9-1.3-4-1.3-6.9 0-5.1 0-5.2 3-5.2 2.7 0 3 .3 3 3.3 0 7.3 6.2 9.5 6.8 2.4.3-3.3-.3-4.3-5.1-9.5-6.8-7.1-7.7-8.9-7.7-14.7 0-6.3 3.1-9.5 9.4-9.5 2.4 0 5.2.3 6.1.6zM77 93.5V145H59V66.2l-6 6.1-6 6.2V59.9l7.7-8.9 7.7-9H77v51.5zm51-43.8c.1 6.7-1.5 13.8-11.2 51.5L105.5 145h-8.8c-8.4 0-8.8-.1-8.2-2 .8-2.6 22.5-86 22.5-86.6 0-.2-6.1-.4-13.5-.4H84V42h44v7.7zm74.1 52.9c4.7 2.4 5.9 6.6 5.9 20.9 0 17.6-2 21.6-10.9 21.7-9.5.1-11.3-3.7-10.9-23.2.3-14 .4-15 2.7-17.4 3.5-3.7 8.5-4.5 13.2-2zm131.8-.5c3.7 1.3 6.1 5.3 6.1 10.4 0 3.3-.2 3.5-3.5 3.5s-3.5-.2-3.5-3.5c0-4.1-2.7-6.2-5.4-4.2-1.4 1.1-1.6 3.1-1.4 15.7l.3 14.5h3c2.9 0 3-.2 3.3-5.3.2-4.2 0-5.2-1.2-5.2-1.1 0-1.6-1-1.6-3 0-2.9.1-3 5-3h5v23h-2.5c-1.7 0-2.5-.6-2.5-1.7 0-1.5-.2-1.5-1.7 0-3.8 3.3-10.5 2.2-12.8-2.3-1.1-2.2-1.5-6.4-1.5-17.4 0-16.2.8-19.2 5.5-21.2 3.7-1.6 5.4-1.7 9.4-.3zm25.5-.1c1.4.5 3.5 2.4 4.6 4.2 1.7 2.9 2 5.1 2 17.1 0 18.2-1.7 21.8-10.9 21.9-9.5.1-11.3-3.8-10.9-22.7.3-12.7.5-14.7 2.4-17.2 2.9-3.8 8-5.2 12.8-3.3zm70.1.4c2.7 1.2 3.6 2.3 4.5 5.6 1.5 5.4.8 7-3 7-2.6 0-3-.3-3-2.9 0-3.6-2.5-5.9-4.8-4.4-3.5 2.2-2.6 5.1 3.8 11.9 3.4 3.7 6.6 7.7 7.1 9.1 1.4 3.7 1.1 10.1-.7 12.8-1.6 2.5-7.1 4.9-9.5 4.1-.8-.2-2.7-.7-4.2-1.1-3.3-.7-5.7-5.4-5.7-11 0-3.3.2-3.5 3.5-3.5 3.4 0 3.5.1 3.5 4 0 4.4 2.3 6.5 5.3 4.9 3.6-2.1 2.1-6.5-4.8-13.9-7.1-7.8-8.5-11.5-6.5-17.4 1.9-5.9 7.7-8 14.5-5.2zM183 105c0 2.9-.2 3-4.5 3H174v12h3.5c3.2 0 3.5.2 3.5 3s-.3 3-3.5 3H174v19h-8v-43h17v3zm46.6-.6c2.5 2.1 2.8 2.9 2.8 9.5.1 6.7-.1 7.4-2.7 9.7l-2.8 2.4 3.1 8.6c1.6 4.7 3 9 3 9.5s-1.5.9-3.4.9c-3.7 0-3.7 0-8.7-14.5l-1.4-4-.3 9.2-.3 9.3H212v-43h7.4c6.4 0 7.9.3 10.2 2.4zm32.4.6c0 2.7-.3 3-3 3h-3v37h-8v-36.9l-2.7-.3c-2.2-.2-2.9-.9-3.1-3.1l-.3-2.7H262v3zm10 6v9h7v-18h8v43h-8v-19h-7v19h-7v-43h7v9zm36-6c0 2.9-.1 3-5 3h-5v12h3.5c3.2 0 3.5.2 3.5 3s-.3 3-3.5 3H298v13h5c4.9 0 5 .1 5 3v3h-17v-43h17v3zm78.3 6.2c1 5.1 2.8 14.8 4.1 21.5l2.3 12.3h-3.8c-3.6 0-3.8-.2-4.4-4-.6-3.8-.8-4-4.5-4-3.6 0-3.8.2-4.4 4-.6 3.8-.8 4-4.1 4-3.2 0-3.5-.2-3-2.3.7-3 7.5-39.3 7.5-40.1 0-.3 2-.6 4.3-.6h4.4l1.6 9.2zm16.7 9.3V139h4.5c4.3 0 4.5.1 4.5 3v3h-16v-43h7v18.5zm-124 81.1c18.2 6.1 33.2 19.3 40.5 35.8l2.4 5.3 6.1.7c3.4.4 9.4 1.9 13.2 3.2 19.9 7.2 34.1 21.5 41.2 41.4 2.9 7.9 3.1 9.4 3.1 22-.1 12-.4 14.3-2.7 20.8-3.7 10.2-8.2 17.4-15.6 25.1l-6.4 6.5 1.1 5.5c5.7 28.2-9.1 58.3-35.2 71.5-9.2 4.7-16 6.5-27.2 7.2-11.5.8-21.3-1.2-32-6.5l-8-4-8 4c-11.8 5.8-18.6 7.2-32.4 6.7-18.1-.6-31.1-6.1-43.6-18.4-16.4-16-23.1-36.7-19.3-59.5l1.1-7.1-4-3.6c-13.1-11.9-21.3-30.5-21.3-48.1.1-33.3 23.9-61.2 56.6-66.4l7.7-1.2 1.8-4.2c2.9-6.9 8.2-14.4 14.3-20.5 17.5-17.4 43.6-23.8 66.6-16.2z"/><path fill="#fff" d="M174 55.5c0 8.3.1 8.5 2.4 8.5 3 0 3.6-1.6 3.6-8.9 0-5.9-1.1-8.1-4.2-8.1-1.6 0-1.8 1-1.8 8.5zm24.8 1.1c-.4.6-1 4.1-1.4 7.7l-.7 6.7h2.7c2.5 0 2.6-.2 2.1-3.3-.3-1.7-.9-5.2-1.3-7.7s-1.1-4-1.4-3.4zM222 54c0 6.1.2 7 1.8 7 2.9 0 4.2-2.1 4.2-7s-1.3-7-4.2-7c-1.6 0-1.8.9-1.8 7zm92 0c0 6.1.2 7 1.8 7 2.9 0 4.2-2.1 4.2-7s-1.3-7-4.2-7c-1.6 0-1.8.9-1.8 7zm86 1.6v8.5l2.8-.3c2.6-.3 2.7-.5 3-7.1.3-7.3-.7-9.7-3.9-9.7-1.7 0-1.9.9-1.9 8.6zm-205.5 53c-1.2 1.2-1.5 4.2-1.5 14.4 0 7.1.3 13.5.6 14.4.9 2.2 5.1 2 6.4-.3 1.2-2.4 1.3-23.1.1-26.4-1.2-3.1-3.6-4-5.6-2.1zm159.4-.9c-2.4.6-2.9 3.3-2.9 16.1 0 11.8.9 15.2 3.8 15.2 3.7 0 4.2-2 4.2-15.6 0-10.7-.3-13.6-1.6-14.8-.8-.9-1.6-1.5-1.7-1.5-.1.1-.9.3-1.8.6zM219 114.5v6.6l2.8-.3c2.6-.3 2.7-.5 2.7-6.3s-.1-6-2.7-6.3l-2.8-.3v6.6zm160.7 3.5c-.3.8-1 4.1-1.5 7.2l-.9 5.8h2.8c2.6 0 2.8-.3 2.3-2.8-.3-1.5-.8-4.7-1.3-7.2-.5-2.6-1.1-3.9-1.4-3zm-134.2 95.8c-3.3 1-8.2 2.8-10.9 4.2-6.5 3.1-17.3 13.5-21.2 20.2l-3.1 5.5 7.1 2.1c14.9 4.3 29.7 15.6 37.6 28.5 1.9 3.1 3.8 5.7 4.2 5.7.4 0 1.5-1.5 2.4-3.3 6.9-13.5 24-26.8 40.3-31.3l6-1.7-1.6-3.1c-5.6-10.9-17.9-21.5-29.8-25.7-8.4-3-22.9-3.5-31-1.1zm-62.6 45.1c-9.1 2.9-15.6 7.1-22.4 14.3-8.9 9.4-13.2 18.5-14.9 31.8-1.6 11.9 4.2 29.7 13.2 39.9l3.9 4.5 3.7-5.7c4.9-7.4 15-16.7 22.8-21 6.6-3.7 18.3-7.7 22.4-7.7 2.3 0 2.1-.5-3-6.5-6.1-7.1-12.7-20-14.7-28.5-.7-3-1.2-9.4-1.3-14.3 0-10 .1-9.9-9.7-6.8zm23.1 5.7c0 17.5 7.8 33.2 21.2 42.7 8 5.7 11 7.2 18.1 9l5.6 1.5.7-3.6c.9-4.9-.9-17.5-3.5-24.4-6-15.7-22.2-29.3-38.3-32.2l-3.8-.7v7.7zm98.8-6.1c-15.4 4.2-29.2 16.9-35.1 32.2-2.4 6-4 17.8-3.3 22.8l.7 4.3 4.2-.9c8-1.7 18.7-7.8 25.1-14.3 10.4-10.4 15.6-22.9 15.6-37.3 0-9.2.3-8.9-7.2-6.8zm20.9 4.2c1.2 13.6-6.2 34.7-16.2 46l-4.6 5.2 2.8.6c7.4 1.5 16.4 4.8 22.3 8.2 7.7 4.5 18.6 15 22.5 21.8l2.9 4.8 3.7-4.1c2-2.3 5.3-7.3 7.3-11.2 14.1-26.7 3.5-58.7-23.7-72-4.5-2.1-10.3-4.2-12.9-4.6l-4.6-.6.5 5.9zM215 328.1c-15.2 1.7-30.1 11.3-38.3 24.5l-2.6 4.2 5 2.1c2.7 1.2 8.6 2.7 13 3.4 19 2.7 39.6-6.6 50.4-22.9 4.3-6.5 4.4-6.4-5.5-9.3-7.6-2.3-14.4-2.9-22-2zm73-.4c-4 .7-14.9 4.4-15.5 5.3-.8 1.4 7.4 12.8 12.3 17 8.9 7.6 23.5 13 35.2 13 5.1 0 14.7-2.1 20.3-4.5l3.8-1.6-2.3-4.2c-1.3-2.3-5.1-7-8.5-10.4-11.6-11.6-29.3-17.3-45.3-14.6zm-33 19c-4.7 5.8-8.9 15-10.7 24-1.5 7-1.6 9.3-.5 16.5 1.3 9.2 6.7 21.5 12.3 27.8l3 3.5 3.6-4c4.3-4.9 9.7-16.2 11.2-23.3 3.1-15-1.1-31.8-11.2-44.5-1.7-2-3.4-3.7-3.8-3.7-.4 0-2.2 1.7-3.9 3.7zm-29.5 23.8c-12.9 6.1-33.9 7.2-47 2.5-3.3-1.1-6.8-2.4-7.7-2.7-1.6-.5-1.8.2-1.9 4.8-.3 9.3.2 14.2 1.7 19.9 8.3 29.6 40.2 46.1 68.8 35.7 3.7-1.4 7.3-3 7.8-3.5.6-.6-.1-2.2-2-4.3-4.4-5-9.1-13.5-12-21.4-2.3-6.2-2.6-8.5-2.7-20.2v-13.2s-2.2 1.1-5 2.4zm62.3 7.7c.2 5.6-.1 12.9-.8 16.2-1.4 7.5-7.4 20.4-12.3 26.9-2.1 2.6-3.7 4.9-3.7 5.2 0 .9 6.1 3.5 11.7 5 13.9 3.7 30.2 1.2 42-6.4 16.1-10.4 24.7-26.2 24.6-45.4 0-4.8-.2-8.9-.4-9.2-.3-.2-3.9.8-8 2.2-6.7 2.5-8.7 2.7-21.4 2.7-14.4 0-15.9-.3-28.5-5.7l-3.5-1.5.3 10z"/></svg>