<svg version="1.0" xmlns="http://www.w3.org/2000/svg" width="682.667" height="682.667" viewBox="0 0 512 512"><path fill="#fff" d="M0 256v256h512V0H0v256zM97.8 77.7L98 114h7v14h-6.9l-.3 8.2-.3 8.3h-16l-.3-8.3-.3-8.2H51v-6c0-5.5 1.5-9.9 14.8-43.6L80.5 41l8.5.2 8.5.3.3 36.2zm70.5-34.6c4.5 2 5.2 5 5.2 21.5 0 14.6-.1 15.3-2.3 17.7l-2.4 2.5 2.4.4c1.7.2 2.4 1 2.6 3.2.3 2.5.1 2.8-2 2.3-1.3-.3-4.4-.9-7-1.2-3.5-.5-4.8-1.2-4.8-2.4 0-.9-1.3-2.2-2.8-2.9-4.4-1.9-5.2-4.9-5.2-20.3 0-15.1 1-19.2 5.3-20.9 3.1-1.2 8.2-1.2 11 .1zM185 59.9c0 18.8.4 20.7 4.7 19.9 1.6-.3 1.8-2 2.3-18.8l.5-18.5 3.3-.3 3.2-.3v38.3l-2.9 2.9c-3.1 3.1-7.6 3.8-12.5 1.9-4.8-1.8-5.6-5.2-5.6-25V42h7v17.9zm32.5-16.7c.3.7 2.2 10.5 4.3 21.6 4.1 21.5 4.1 21.8-.9 21-1.8-.2-2.6-1.2-3.2-4.1-.8-3.5-1.1-3.7-4.7-3.7s-3.8.2-4.4 4c-.6 3.6-.9 4-3.6 4-1.6 0-3.1-.3-3.3-.8-.4-.7 6.7-39.2 7.7-41.9.7-1.7 7.5-1.7 8.1-.1zM236 61v19h4.6c4.4 0 4.5.1 4.2 2.7-.3 2.8-.4 2.8-8 3.1l-7.8.3V42h7v19zm19 3v22h-7V42h7v22zm23-19c0 2.7-.3 3-3 3h-3v38h-7l-.2-18.8-.3-18.7-2.7-.3c-2.4-.3-2.8-.8-2.8-3.3V42h19v3zm9.9-1.3c.5 1 1.4 4.4 2.1 7.5.7 3.2 1.6 5.8 2 5.8.4 0 1.6-3.3 2.6-7.3 1.8-6.9 2-7.2 5.2-7.5 2.1-.2 3.2.1 3.2.9 0 .7-1.8 7.2-4 14.5-3.2 10.5-4 14.9-4 20.9v7.6l-3.2-.3-3.3-.3-.6-10c-.6-9.2-1.5-13.3-7.3-31.3-.7-2-.4-2.2 2.8-2.2 2.3 0 3.8.6 4.5 1.7zm-45.1 61.9c1.6 1.9 2.2 3.7 2.2 7.5 0 4.8-.1 4.9-3 4.9-2.4 0-3-.4-3-2.3 0-4.6-1.2-6.7-3.6-6.7-3.5 0-4.4 3.3-4.4 16.1 0 12.1.8 14.9 4.4 14.9 2.8 0 3.6-1.6 3.6-7.6 0-4.2.1-4.4 3-4.4h3v6.3c0 7.5-1.6 10.2-6.8 11.8-5.5 1.6-10.7-.7-12.8-5.8-2.3-5.4-1.7-29.7.9-33.6 3.3-5.1 12.3-5.7 16.5-1.1zm81.5.5l2.7 2.9v15.4c0 13.9-.2 15.6-2.1 17.9-4.9 6.4-15.5 5.2-18.5-2-2.3-5.4-1.7-29.7.9-33.6 3.5-5.3 12.3-5.6 17-.6zM169 106c0 2.9-.1 3-5 3h-5v12h3.5c3.2 0 3.5.2 3.5 3s-.3 3-3.5 3H159v13h5c4.9 0 5 .1 5 3v3h-17v-43h17v3zm21.2-1.9c3.6 1.9 4.8 6.9 4.8 20.2 0 19.3-1.6 21.7-14.5 21.7H173v-43h7.6c4.1 0 8.4.5 9.6 1.1zm15.8 16.1c0 9.5.4 17.9.9 18.6.4.8 1.9 1.2 3.2 1l2.4-.3.3-18.3.2-18.2h7v18c0 21-.6 23.3-6.8 24.9-2.6.7-5 .7-7.5 0-6.1-1.6-6.7-4-6.7-24.9v-18h7v17.2zm58-16.9c0 .1 1.8 9.7 4 21.2s4 21.1 4 21.2c0 .2-1.8.3-4 .3-3.7 0-4-.2-4-2.8 0-4.1-1.3-5.4-5.1-5-3 .3-3.5.7-3.9 3.8-.4 3.1-.9 3.5-3.7 3.8-1.8.2-3.3 0-3.3-.5-.1-.4 1.6-10.1 3.7-21.6l3.8-20.7h4.2c2.4 0 4.3.1 4.3.3zm26 2.7c0 2.7-.3 3-3 3h-3v37h-7v-37h-3c-2.7 0-3-.3-3-3v-3h19v3zm11 18.5V146h-7v-43h7v21.5zm41.2-10.3l3.6 11.3.1-11.3.1-11.2h6v43.1l-3.2-.3c-3.1-.3-3.2-.5-6.8-12-2-6.4-3.9-12-4.3-12.4-.4-.4-.7 5-.7 11.9V146h-6v-43h7.6l3.6 11.2zm57 93.7c3.1 2.8 3.3 3.3 3.6 11l.4 8.1h-22.4l.4-8.1c.3-7.7.5-8.2 3.6-11 2.4-2.2 4.2-2.9 7.2-2.9s4.8.7 7.2 2.9zM127 310.5v90.4l5.3 1.5c63.5 18.2 95.4 26.6 101 26.6 5.2 0 14-2.6 56.7-16.4l50.5-16.3.5-88.1.5-88.2 4.8 4.1 4.7 4.1-.2 87.5-.3 87.6-4 1.3C266 430.2 237.3 439 233.5 439c-3.1 0-93.5-24.1-114.7-30.6-1.7-.5-1.8-5.7-1.8-90.9v-90.3l4.3-3.6c2.3-2 4.5-3.6 5-3.6.4 0 .7 40.7.7 90.5zm57.5-62.7l43 24.8.3 73.3c.2 69.5.1 73.3-1.5 72.9-1-.3-21.7-6.5-46-13.8L136 391.6V219.9l2.8 1.5c1.5.8 22.1 12.7 45.7 26.4zm146.5 58v85.8l-45.4 13.7c-25 7.5-46 13.7-46.5 13.7-.8 0-1.1-22.1-1.1-72.8v-72.7l46.3-26.7c25.4-14.7 46.3-26.8 46.5-26.8.1 0 .2 38.6.2 85.8zm72 6.4v76.2l-5.2 18.3c-2.8 10.1-5.4 18.3-5.7 18.3-.3 0-3-8.4-5.9-18.8l-5.3-18.7.1-75.8V236h22v76.2z"/><path fill="#fff" d="M73.4 93.8l-7.2 19.7 7 .3c3.9.2 7.2.1 7.4-.1.3-.2.3-9.2.2-20.1L80.5 74l-7.1 19.8zM160 49.9c-1.1 2.1-1.4 25.8-.4 28.5.9 2.2 5.1 2 6.4-.3 1.3-2.5 1.3-24.1 0-27.5-1.1-3.1-4.5-3.5-6-.7zm153 61.7c-.6 1.4-1 7.2-1 12.9 0 12.2.9 15.5 4.4 15.5 1.3 0 2.7-.7 3-1.6.3-.9.6-7.1.6-13.9 0-6.8-.3-13-.6-13.9-1-2.6-5.3-2-6.4 1zm-133 12.9V140h3c4.1 0 5-2.7 5-15.5s-.9-15.5-5-15.5h-3v15.5z"/></svg>