<svg viewBox="0 0 44 28" xmlns="http://www.w3.org/2000/svg" fill-rule="evenodd" clip-rule="evenodd" stroke-linejoin="round" stroke-miterlimit="2"><path d="M4.66 0C2.1 0 0 2.1 0 4.66v18.639c0 2.56 2.1 4.66 4.66 4.66h25.507c1.237.012 2.426-.523 3.287-1.42l8.726-9.223c1.758-1.867 1.758-4.819 0-6.673l-8.726-9.21A4.494 4.494 0 0030.167 0H4.66zm0 3.106h25.52c.363 0 .727.146 1.019.46l8.723 9.211c.608.643.608 1.761 0 2.404l-8.723 9.22c-.292.305-.656.463-1.02.45H4.66A1.548 1.548 0 013.108 23.3V4.659c0-.86.69-1.553 1.553-1.553zm27.958 9.32c-.863 0-1.553.693-1.553 1.553s.69 1.553 1.553 1.553a1.55 1.55 0 001.553-1.553 1.55 1.55 0 00-1.553-1.553z" fill="#fff"/></svg>