<svg width="17" height="18" fill="none"
  xmlns="http://www.w3.org/2000/svg" viewBox='0 0 16 18'>
  <g clip-path="url(#a)">
    <path d="M15.152 3.843 8.931.25a1.884 1.884 0 0 0-1.797 0L.912 3.843C.36 4.147 0 4.783 0 5.42v7.19c0 .663.36 1.244.912 1.575l6.222 3.595c.276.166.58.249.884.249.305 0 .636-.083.913-.25l6.221-3.594c.553-.331.912-.912.912-1.576V5.42a1.697 1.697 0 0 0-.912-1.576Zm-.47 8.019-2.848-1.632v.332c0 .387-.193.747-.553.94l2.848 1.632-5.392 3.152v-3.29l-.166.082a1.126 1.126 0 0 1-1.106 0l-.138-.083v3.263l-5.253-3.041 2.792-1.66-.11-.055c-.36-.193-.553-.553-.553-.967v-.166l-2.82 1.686V5.806l2.82 1.632c0-.387.221-.747.553-.94l.276-.166-2.82-1.66 5.115-2.958v3.263l.138-.083a1.126 1.126 0 0 1 1.106 0l.139.083V1.714L13.88 4.7l-2.82 1.66.221.138c.36.193.553.553.553.967v.056l2.848-1.715v6.056Z" fill="#fff"/>
  </g>
  <defs>
    <clipPath id="a">
      <path fill="#fff" d="M0 0h16.092v18H0z"/>
    </clipPath>
  </defs>
</svg>