<svg width="12" height="13" viewBox="0 0 12 13" fill="none" xmlns="http://www.w3.org/2000/svg">
<path d="M0.015625 12.5699H5.33165V7.25391H0.015625V12.5699ZM1.07877 8.31715H4.2684V11.4985H1.07877V8.31715Z" fill="#E2223B"/>
<path d="M3.20572 9.38086H2.14258V10.4441H3.20572V9.38086Z" fill="#E2223B"/>
<path d="M9.58434 11.5078H8.521V12.5711H9.58434V11.5078Z" fill="#E2223B"/>
<path d="M11.7104 11.5078H10.647V12.5711H11.7104V11.5078Z" fill="#E2223B"/>
<path d="M10.6474 8.31725H9.58427V7.25391H6.39453V12.57H7.45788V9.3804H8.52092V10.4436H11.7107V7.25401V7.25391H10.6474V8.31725Z" fill="#E2223B"/>
<path d="M0.0166016 6.19112H5.33262V0.875H0.0166016V6.19112ZM1.07974 1.93814H4.26938V5.12778H1.07974V1.93814Z" fill="#E2223B"/>
<path d="M3.20572 3.00195H2.14258V4.0652H3.20572V3.00195Z" fill="#E2223B"/>
<path d="M6.39453 0.875V6.19112H11.7108V0.875H6.39453ZM10.6474 5.12778H7.45788V1.93814H10.6474V5.12778Z" fill="#E2223B"/>
<path d="M9.58434 3.00195H8.521V4.0652H9.58434V3.00195Z" fill="#E2223B"/>
</svg>
