<svg version="1.2" baseProfile="tiny-ps" xmlns="http://www.w3.org/2000/svg" viewBox="0 0 14 14" width="14" height="14">
	<title>username-svg</title>
	<style>
		tspan { white-space:pre }
		.shp0 { fill: #00d2ff } 
	</style>
	<g id="Layer">
		<path id="Layer" fill-rule="evenodd" class="shp0" d="M13.46 6.73C13.46 10.45 10.45 13.46 6.73 13.46C3.01 13.46 0 10.45 0 6.73C0 3.01 3.01 0 6.73 0C10.45 0 13.46 3.01 13.46 6.73ZM4.34 4.99C4.34 6.31 5.41 7.38 6.73 7.38C8.05 7.38 9.12 6.31 9.12 4.99C9.12 3.67 8.05 2.61 6.73 2.61C5.41 2.61 4.34 3.67 4.34 4.99ZM10.71 10.09C10.2 9.13 9.2 8.47 8.03 8.47C7.97 8.47 7.9 8.48 7.84 8.5C7.49 8.61 7.12 8.68 6.73 8.68C6.34 8.68 5.97 8.61 5.62 8.5C5.56 8.48 5.49 8.47 5.43 8.47C4.26 8.47 3.26 9.13 2.75 10.09C3.71 11.22 5.14 11.94 6.73 11.94C8.32 11.94 9.75 11.22 10.71 10.09Z" />
	</g>
</svg>