<svg width="40" height="40" viewBox="0 0 40 40" fill="none" xmlns="http://www.w3.org/2000/svg">
  <circle cx="20" cy="20" r="20" fill="white" />
  <path
    d="M21.4507 27.301C18.6748 25.5114 17.199 22.5195 18.1094 19.8868C18.5836 18.5167 19.3004 17.2885 20.095 16.0862C20.9677 14.7655 21.9159 13.4878 22.7084 12.1242C24.2644 9.44628 24.2689 6.69742 22.8665 3.9464C22.7685 3.75497 22.6728 3.56139 22.5927 3.3635C22.5704 3.30973 22.6082 3.2366 22.6483 3C23.9928 4.58307 25.0279 6.1941 25.5956 8.04819C26.7976 11.9801 26.1788 15.5699 23.3696 18.7447C21.8492 20.4611 20.7517 22.3582 20.8163 24.7242C20.8408 25.5609 21.1591 26.318 21.4507 27.301Z"
    fill="#DCDCDC" />
  <path
    d="M15.6273 18.6221C15.5561 18.9791 15.5272 19.1835 15.4738 19.3813C14.7748 21.9947 15.6474 24.137 17.5907 25.9545C18.49 26.7955 19.4472 27.5763 20.2508 28.5141C22.537 31.1748 22.419 33.6333 19.7322 36.2574C20.7695 33.3214 19.3159 31.4394 17.1767 29.8283C13.3479 26.9461 13.3345 22.1668 15.2667 18.8415C15.2979 18.7898 15.3847 18.7683 15.6273 18.6221Z"
    fill="#F89925" />
</svg>