<svg xmlns="http://www.w3.org/2000/svg" xmlns:xlink="http://www.w3.org/1999/xlink" version="1.1" x="0px" y="0px" viewBox="0 0 65 81.25" enable-background="new 0 0 65 65" xml:space="preserve"><g><path d="M26.4-0.2l-14.1,14v10.4L7,18.9c-1.1-1.1-3.1-1.1-4.2,0c-1.2,1.2-1.2,3.1,0,4.2l9.5,9.5v32.6h50.8V-0.2H26.4z M25.9,2.3v11   H14.9L25.9,2.3z M23.7,37.7l1.1,3.2l-3.2-1.1l-1-1l2.1-2.1L23.7,37.7z M19.5,37.7L6.7,24.9l2.1-2.1l12.8,12.8L19.5,37.7z M3.8,19.9   c0.6-0.6,1.5-0.6,2.1,0l1.8,1.8l-2.1,2.1L3.8,22C3.3,21.4,3.3,20.5,3.8,19.9z M61.6,63.8H13.8V34.1l7,7l6.3,2.1L25,36.9L13.8,25.7   V14.9h13.6V1.3h34.2V63.8z"/><rect x="36.8" y="7.7" width="20.3" height="1.5"/><rect x="31.8" y="14.4" width="25.2" height="1.5"/><rect x="18.4" y="21" width="38.6" height="1.5"/><path d="M55.3,55c0,1.4-1.1,2.5-2.5,2.5H37.1c-1.4,0-2.5-1.1-2.5-2.5v-5h-1.5v5c0,2.2,1.8,4,4,4h15.7c2.2,0,4-1.8,4-4v-5h-1.5V55z"/><polygon points="45.7,53.5 45.7,37 50.5,41.8 51.6,40.7 45,34.1 38.3,40.7 39.4,41.8 44.2,37 44.2,53.5  "/></g><text x="0" y="80" fill="#000000" font-size="5px" font-weight="bold" font-family="'Helvetica Neue', Helvetica, Arial-Unicode, Arial, Sans-serif">Created by Creative Stall</text><text x="0" y="85" fill="#000000" font-size="5px" font-weight="bold" font-family="'Helvetica Neue', Helvetica, Arial-Unicode, Arial, Sans-serif">from the Noun Project</text></svg>