<svg width="100" height="100" viewBox="0 0 100 100" fill="none" xmlns="http://www.w3.org/2000/svg">
<path d="M50 18C37.3171 18 27 28.3215 27 41.0098C27 54.717 41.5229 73.6179 47.47 80.8166C48.7843 82.3945 51.1829 82.3945 52.4971 80.8166C58.4771 73.6179 73 54.717 73 41.0098C73 28.3215 62.6829 18 50 18ZM64.1614 38.2486L47.3057 55.1115C46.0243 56.3934 43.9543 56.3934 42.6729 55.1115L35.8714 48.3071C34.59 47.0252 34.59 44.9214 35.8714 43.6394C37.1529 42.3575 39.2557 42.3575 40.5371 43.6394L45.0057 48.1099L59.5286 33.5809C60.81 32.2989 62.9129 32.2989 64.1943 33.5809C65.4429 34.8957 65.4429 36.9666 64.1614 38.2486V38.2486Z" fill="white"/>
</svg>
