<svg width="100" height="100" viewBox="0 0 100 100" fill="none" xmlns="http://www.w3.org/2000/svg">
<path d="M50 20C33.4551 20 20 33.4552 20 50C20 66.5447 33.4551 80 50 80C66.5449 80 80 66.5447 80 50C80 33.4552 66.5449 20 50 20ZM48 24.0833V50C48 50.6213 48.2847 51.1748 48.7292 51.5417L66.9167 69.75C62.3725 73.6427 56.4672 76 50 76C35.6169 76 24 64.383 24 50C24 36.2912 34.5568 25.1028 48 24.0833ZM52 24.0833C60.0809 24.6962 67.1096 28.9891 71.4375 35.2917L52 46.5208V24.0833ZM73.4583 38.7708C75.0817 42.1668 76 45.9778 76 50C76 56.4672 73.6427 62.3725 69.75 66.9167L53.25 50.4167L73.4583 38.7708Z" fill="white"/>
</svg>
