<svg width="100" height="100" viewBox="0 0 100 100" fill="none" xmlns="http://www.w3.org/2000/svg">
<circle cx="50" cy="50" r="28" stroke="white" stroke-width="4"/>
<path d="M50.0084 49.2548C49.025 49.2548 48.2272 50.0519 48.2272 51.0361C48.3118 56.3984 47.623 61.5677 46.1713 66.7371C45.9687 67.4585 46.3308 69 47.8872 69C48.6651 69 49.3798 68.4864 49.601 67.6997C50.6052 64.1439 51.9047 58.3919 51.789 51.0361C51.7897 50.0527 50.9926 49.2548 50.0084 49.2548V49.2548ZM49.9446 43.1889C45.3979 43.1837 42.225 46.6824 42.2881 50.6917C42.3438 54.2498 42.0098 57.81 41.2958 61.2716C41.0961 62.235 41.7166 63.1783 42.6792 63.3764C43.6478 63.5746 44.5845 62.9564 44.7841 61.993C45.5515 58.2754 45.91 54.4539 45.8506 50.6361C45.8202 48.7101 47.3291 46.7403 49.8919 46.7514C52.2157 46.7863 54.1336 48.6321 54.1684 50.8684C54.2256 54.4346 53.9599 58.0178 53.381 61.5225C53.2199 62.4918 53.8775 63.4091 54.8475 63.5694C56.3297 63.8166 56.8374 62.4487 56.8945 62.1021C57.5091 58.3889 57.7896 54.5904 57.731 50.8127C57.6657 46.6713 54.1729 43.2513 49.9446 43.1889V43.1889ZM41.7292 41.7209C40.9648 41.1019 39.8463 41.2162 39.2236 41.9792C37.3221 44.3171 36.3001 47.2695 36.3476 50.2917C36.3914 53.0808 36.1642 55.8781 35.6714 58.6079C35.4978 59.5764 36.1398 60.5027 37.1083 60.6778C38.6009 60.9376 39.1174 59.5787 39.1783 59.241C39.7119 56.2841 39.9576 53.2545 39.9101 50.236C39.8752 48.0184 40.5929 45.9402 41.9883 44.2265C42.608 43.4636 42.4922 42.3421 41.7292 41.7209ZM49.8541 37.0948C48.7103 37.0644 47.5629 37.2017 46.4563 37.4637C45.4996 37.6908 44.9073 38.6497 45.1329 39.6079C45.3601 40.5646 46.3205 41.1539 47.2771 40.9312C48.0973 40.7375 48.9449 40.6514 49.8006 40.6573C55.399 40.7412 60.0229 45.2218 60.1082 50.6457C60.152 53.4571 60.0132 56.2945 59.6941 59.0792C59.5828 60.0566 60.2841 60.9406 61.2609 61.0519C62.5018 61.1966 63.1542 60.1702 63.2336 59.4852C63.5709 56.5326 63.7169 53.5614 63.6708 50.59C63.555 43.2609 57.3569 37.2062 49.8541 37.0948V37.0948ZM68.5626 46.1087C68.3503 45.1498 67.4114 44.5353 66.4392 44.7527C65.4788 44.965 64.8716 45.915 65.0839 46.8761C65.4335 48.4652 65.4483 49.6527 65.4328 51.448C65.4246 52.4329 66.2158 53.2359 67.1992 53.2441H67.214C68.1915 53.2441 68.9871 52.4566 68.9953 51.4777C69.0087 49.8315 69.025 48.2039 68.5626 46.1087ZM65.5849 39.3756C61.9704 34.2255 56.0558 31.0957 49.7628 31.0015C44.583 30.9391 39.7921 32.8488 36.2288 36.4135C32.7873 39.8595 30.9325 44.4366 31.0097 49.3061L31.0008 50.8995C30.9718 51.8829 31.7452 52.7038 32.7286 52.732C32.7457 52.7335 32.7642 52.7335 32.7821 52.7335C33.741 52.7335 34.5329 51.969 34.5611 51.0042L34.573 49.2496C34.5114 45.3532 35.995 41.6897 38.7501 38.9332C41.6268 36.0536 45.5293 34.5046 49.7108 34.5647C54.8654 34.6412 59.7104 37.2039 62.671 41.4218C63.2359 42.2278 64.3454 42.42 65.1515 41.8567C65.956 41.2912 66.1505 40.1801 65.5849 39.3756V39.3756Z" fill="white"/>
</svg>
