<svg width="100" height="100" viewBox="0 0 100 100" fill="none" xmlns="http://www.w3.org/2000/svg">
<path d="M34.0223 45.0421L21.1464 63.9191C20.7707 64.5246 21.1586 65.3117 21.8698 65.3892L47.2752 68.0617L34.0223 45.0421V45.0421ZM21.9039 57.1961L31.0885 42.3805L21.7393 36.8127C21.4135 36.6189 21 36.8514 21 37.228V56.943C21 57.431 21.6453 57.6127 21.9039 57.1961ZM23.2263 70.2946L46.941 80.9096C47.5875 81.2063 48.3255 80.7364 48.3255 80.0305V72.0783L23.4947 69.378C22.9518 69.3174 22.7347 70.0549 23.2263 70.2946V70.2946ZM33.1342 39.0795L42.8848 21.7706C43.4143 20.9157 42.4469 19.9239 41.5698 20.4216L23.1726 32.3625C22.8713 32.5587 22.8811 32.9995 23.1885 33.1835L33.1342 39.0795V39.0795ZM50.2774 40.3122H63.5998L51.9401 19.9227C51.5582 19.3076 50.9178 19 50.2774 19C49.6369 19 48.9965 19.3076 48.6146 19.9227L36.9549 40.3122H50.2774ZM78.8155 36.8127L69.4662 42.3817L78.6508 57.1973C78.9082 57.6139 79.5547 57.4322 79.5547 56.943V37.228C79.5547 36.8514 79.1412 36.6189 78.8155 36.8127V36.8127ZM67.4205 39.0795L77.3662 33.1823C77.6749 32.9983 77.6834 32.5575 77.3821 32.3613L58.9849 20.4216C58.1078 19.9239 57.1405 20.9157 57.6699 21.7706L67.4205 39.0795ZM77.06 69.378L52.2292 72.0771V80.0292C52.2292 80.7364 52.9672 81.2051 53.6138 80.9084L77.3284 70.2934C77.82 70.0549 77.6029 69.3174 77.06 69.378V69.378ZM66.5324 45.0421L53.2807 68.0617L78.6861 65.3892C79.3973 65.3105 79.7853 64.5246 79.4095 63.9191L66.5324 45.0421V45.0421ZM50.2774 44.1872H38.026L50.2774 65.4691L62.5287 44.1872H50.2774Z" fill="white"/>
</svg>
