<svg width="100" height="100" viewBox="0 0 100 100" fill="none" xmlns="http://www.w3.org/2000/svg">
<mask id="mask0_8_3603" style="mask-type:alpha" maskUnits="userSpaceOnUse" x="20" y="20" width="60" height="59">
<path d="M20.25 20H79.25V79H20.25V20Z" fill="white"/>
</mask>
<g mask="url(#mask0_8_3603)">
<path fill-rule="evenodd" clip-rule="evenodd" d="M76.6847 43.0869H63.8587V41.8044C63.8587 41.0948 63.2855 40.5216 62.5759 40.5216H51.0325V36.6741C51.0325 34.5525 52.759 32.8259 54.8803 32.8259H67.7063C68.4158 32.8259 68.9891 32.253 68.9891 31.5434C68.9891 30.8339 68.4158 30.2609 67.7063 30.2609H54.8803C53.431 30.2609 52.1073 30.7625 51.0325 31.5766V22.5653H63.8587C70.9313 22.5653 76.6847 28.3187 76.6847 35.3913V43.0869ZM63.8587 76.4347H51.0325V67.4234C52.1073 68.2375 53.431 68.7391 54.8803 68.7391H67.7063C68.4158 68.7391 68.9891 68.1661 68.9891 67.4566C68.9891 66.747 68.4158 66.1738 67.7063 66.1738H54.8803C52.759 66.1738 51.0325 64.4472 51.0325 62.3262V58.4781H62.5759C63.2855 58.4781 63.8587 57.9052 63.8587 57.1956V55.9128H76.6847V63.6084C76.6847 70.6813 70.9313 76.4347 63.8587 76.4347ZM33.0759 49.5C33.0759 50.2075 32.5012 50.7825 31.7934 50.7825C31.0859 50.7825 30.5109 50.2075 30.5109 49.5C30.5109 48.7922 31.0859 48.2172 31.7934 48.2172C32.5012 48.2172 33.0759 48.7922 33.0759 49.5ZM39.4891 76.4347C34.5396 76.4347 30.5109 72.4061 30.5109 67.4566C30.5109 65.1911 31.6332 62.8816 33.5877 61.0434H39.4891C40.1987 61.0434 40.7716 60.4705 40.7716 59.7609C40.7716 59.0513 40.1987 58.4781 39.4891 58.4781H33.0759C33.0539 58.4781 33.0366 58.4895 33.0157 58.4907C32.984 58.4928 32.9539 58.4832 32.922 58.4868C32.7441 58.5104 32.441 58.4939 32.1924 58.4856L31.7934 58.4781C26.8439 58.4781 22.815 54.4495 22.815 49.5C22.815 44.5505 26.8439 40.5216 31.7934 40.5216L32.1924 40.5141C32.441 40.5049 32.7453 40.4884 32.922 40.5129C32.9539 40.5168 32.984 40.5072 33.0157 40.509C33.0366 40.5102 33.0539 40.5216 33.0759 40.5216H39.4891C40.1987 40.5216 40.7716 39.9487 40.7716 39.2391C40.7716 38.5298 40.1987 37.9566 39.4891 37.9566H33.5877C31.6332 36.1181 30.5109 33.8086 30.5109 31.5434C30.5109 26.5942 34.5396 22.5653 39.4891 22.5653C44.4386 22.5653 48.4675 26.5942 48.4675 31.5434V31.5766C47.3927 30.7625 46.0684 30.2609 44.6194 30.2609H39.4891C38.7795 30.2609 38.2066 30.8339 38.2066 31.5434C38.2066 32.253 38.7795 32.8259 39.4891 32.8259H44.6194C46.7407 32.8259 48.4675 34.5525 48.4675 36.6741V49.5334C47.3927 48.7191 46.0684 48.2172 44.6194 48.2172H35.4049C34.8741 46.7279 33.463 45.6522 31.7934 45.6522C29.6721 45.6522 27.9456 47.3787 27.9456 49.5C27.9456 51.6213 29.6721 53.3478 31.7934 53.3478C33.463 53.3478 34.8741 52.2718 35.4049 50.7825H44.6194C46.7407 50.7825 48.4675 52.509 48.4675 54.6306V62.3262C48.4675 64.4472 46.7407 66.1738 44.6194 66.1738H39.4891C38.7795 66.1738 38.2066 66.747 38.2066 67.4566C38.2066 68.1661 38.7795 68.7391 39.4891 68.7391H44.6194C46.0684 68.7391 47.3927 68.2375 48.4675 67.4234V67.4566C48.4675 72.4061 44.4386 76.4347 39.4891 76.4347ZM51.0325 55.9128H61.2934V43.0869H51.0325V55.9128ZM63.8587 53.3478H76.6847V45.6522H63.8587V53.3478ZM63.8587 20H49.7497C49.0401 20 48.4675 20.5729 48.4675 21.2825V24.3032C46.3498 21.683 43.114 20 39.4891 20C33.1237 20 27.9456 25.1778 27.9456 31.5434C27.9456 33.8062 28.7599 36.0802 30.2364 38.0616C24.6057 38.8234 20.25 43.6631 20.25 49.5C20.25 55.3369 24.6057 60.1766 30.2364 60.9381C28.7599 62.9198 27.9456 65.1938 27.9456 67.4566C27.9456 73.8219 33.1237 79 39.4891 79C43.114 79 46.3498 77.3173 48.4675 74.6968V77.7175C48.4675 78.4271 49.0401 79 49.7497 79H63.8587C72.346 79 79.25 72.096 79.25 63.6084V35.3913C79.25 26.904 72.346 20 63.8587 20Z" fill="white"/>
<path d="M60.75 41.25H51.25C50.1454 41.25 49.25 42.1454 49.25 43.25V55.75C49.25 56.8546 50.1454 57.75 51.25 57.75H60.75C61.8546 57.75 62.75 56.8546 62.75 55.75V43.25C62.75 42.1454 61.8546 41.25 60.75 41.25Z" fill="white"/>
</g>
</svg>
