<svg width="100" height="100" viewBox="0 0 100 100" fill="none" xmlns="http://www.w3.org/2000/svg">
<path d="M28.1831 68.9307C32.2191 73.4861 37.6783 76.7429 43.8751 78" stroke="white" stroke-width="4" stroke-miterlimit="10" stroke-linecap="round"/>
<path d="M43.8707 22.0001C37.6791 23.2519 32.2147 26.5139 28.1787 31.0693" stroke="white" stroke-width="4" stroke-miterlimit="10" stroke-linecap="round"/>
<path d="M76.6628 59.0613C77.6134 56.2148 78.138 53.1658 78.138 49.9972C78.138 46.8287 77.6134 43.7848 76.6628 40.9331" stroke="white" stroke-width="4" stroke-miterlimit="10" stroke-linecap="round"/>
<path d="M70.9549 31.0693C66.9241 26.5139 61.4597 23.2519 55.2681 22.0001" stroke="white" stroke-width="4" stroke-miterlimit="10" stroke-linecap="round"/>
<path d="M22.4752 40.9384C21.5246 43.7849 21 46.8287 21 49.9973C21 53.1658 21.5246 56.2097 22.4752 59.0614" stroke="white" stroke-width="4" stroke-miterlimit="10" stroke-linecap="round"/>
<path d="M55.2681 78C61.4597 76.7481 66.9241 73.4861 70.9601 68.9307" stroke="white" stroke-width="4" stroke-miterlimit="10" stroke-linecap="round"/>
</svg>
