<svg width="100" height="100" viewBox="0 0 100 100" fill="none" xmlns="http://www.w3.org/2000/svg">
<path d="M57.3623 40.5586C58.8695 40.8322 60.1056 41.6525 61.0719 43.0195C61.9221 44.2307 62.5019 45.7541 62.8106 47.5898C63.0816 49.2697 63.0613 50.949 62.7526 52.6289C62.2889 55.4021 61.3615 57.7266 59.9704 59.6016C58.3083 61.8674 56.2219 63 53.7102 63C53.0915 63 52.416 62.8049 51.6813 62.4141C51.1787 62.1018 50.6187 61.9453 50 61.9453C49.3813 61.9453 48.8219 62.1018 48.3187 62.4141C47.584 62.8049 46.9085 63 46.2898 63C43.7781 63 41.6917 61.8674 40.0296 59.6016C38.6385 57.7266 37.7111 55.4021 37.2474 52.6289C36.9387 50.949 36.9184 49.2697 37.1894 47.5898C37.4981 45.7541 38.0779 44.2307 38.9281 43.0195C39.8944 41.6525 41.1305 40.8322 42.6377 40.5586C43.5651 40.4021 44.8401 40.5393 46.4634 40.9688C47.8545 41.3596 49.0331 41.8283 49.9994 42.375C50.9657 41.8283 52.1444 41.3596 53.5355 40.9688C55.1593 40.5393 56.4349 40.4021 57.3623 40.5586ZM54.1739 38.1562C53.633 38.6643 52.9174 39.0352 52.0289 39.2695C51.4102 39.4646 50.7347 39.5625 50 39.5625L49.1306 39.5039C49.0535 38.9572 49.0535 38.332 49.1306 37.6289C49.2856 36.2227 49.7296 35.1486 50.4637 34.4062C51.0046 33.8982 51.7202 33.5273 52.6087 33.293C53.2273 33.0979 53.9028 33 54.6376 33L55.5069 33.0586L55.565 33.9375C55.565 34.6799 55.468 35.3631 55.2754 35.9883C55.0438 36.8865 54.677 37.6096 54.1739 38.1562Z" fill="white"/>
<circle cx="50" cy="50" r="28" stroke="white" stroke-width="4"/>
</svg>
