<svg width="100" height="100" viewBox="0 0 100 100" fill="none" xmlns="http://www.w3.org/2000/svg">
<mask id="mask0_8_3606" style="mask-type:alpha" maskUnits="userSpaceOnUse" x="24" y="20" width="51" height="58">
<path d="M24 20H75V78H24V20Z" fill="white"/>
</mask>
<g mask="url(#mask0_8_3606)">
<path fill-rule="evenodd" clip-rule="evenodd" d="M69.9 67.8047C68.9627 67.8047 68.2 67.0423 68.2 66.1055C68.2 65.1686 68.9627 64.4062 69.9 64.4062C70.8373 64.4062 71.6 65.1686 71.6 66.1055C71.6 67.0423 70.8373 67.8047 69.9 67.8047ZM27.4 40.3906C27.4 37.1193 29.7401 34.3142 32.964 33.7212C33.0272 33.7098 33.0883 33.6933 33.1491 33.6752C34.405 33.4792 35.6791 33.6336 36.8466 34.1271C37.7107 34.493 38.7085 34.0886 39.0742 33.2239C39.4399 32.3597 39.0353 31.3627 38.1706 30.9972C37.1037 30.5463 35.978 30.2844 34.8361 30.214C36.2449 26.2142 40.0469 23.3984 44.4 23.3984C47.1453 23.3984 49.7262 24.4866 51.6666 26.4619C52.0571 26.8593 52.6176 27.0403 53.1669 26.9465C53.5981 26.8725 54.106 26.7969 54.6 26.7969C57.4949 26.7969 60.1462 28.2988 61.6882 30.6804C61.3986 30.7733 61.1113 30.8777 60.8294 30.9972C59.9647 31.3627 59.5601 32.3597 59.9258 33.2239C60.2919 34.089 61.2897 34.4925 62.1534 34.1271C66.6018 32.2473 71.6 35.5249 71.6 40.3906C71.6 44.1386 68.5497 47.1875 64.8 47.1875H34.2C30.4503 47.1875 27.4 44.1386 27.4 40.3906ZM49.5 74.6016C48.5627 74.6016 47.8 73.8392 47.8 72.9023C47.8 71.9655 48.5627 71.2031 49.5 71.2031C50.4373 71.2031 51.2 71.9655 51.2 72.9023C51.2 73.8392 50.4373 74.6016 49.5 74.6016ZM29.1 67.8047C28.1627 67.8047 27.4 67.0423 27.4 66.1055C27.4 65.1686 28.1627 64.4062 29.1 64.4062C30.0373 64.4062 30.8 65.1686 30.8 66.1055C30.8 67.0423 30.0373 67.8047 29.1 67.8047ZM69.9 61.0078C67.6838 61.0078 65.7943 62.4287 65.0922 64.4062H61.4V50.5859H64.8C70.4242 50.5859 75 46.0122 75 40.3906C75 34.8333 70.5654 30.4502 65.31 30.2078C63.355 26.0881 59.197 23.3984 54.6 23.3984C54.1971 23.3984 53.812 23.4277 53.4534 23.4697C50.9529 21.2258 47.7703 20 44.4 20C38.0264 20 32.535 24.5096 31.175 30.6671C26.9538 31.9711 24 35.8864 24 40.3906C24 46.0122 28.5758 50.5859 34.2 50.5859H37.6V64.4062H33.9078C33.2057 62.4287 31.3162 61.0078 29.1 61.0078C26.288 61.0078 24 63.2946 24 66.1055C24 68.9163 26.288 71.2031 29.1 71.2031C31.3162 71.2031 33.2057 69.7822 33.9078 67.8047H39.3C40.239 67.8047 41 67.044 41 66.1055V50.5859H47.8V68.0967C45.8211 68.7985 44.4 70.6871 44.4 72.9023C44.4 75.7132 46.688 78 49.5 78C52.3121 78 54.6 75.7132 54.6 72.9023C54.6 70.6871 53.1789 68.7985 51.2 68.0967V50.5859H58V66.1055C58 67.044 58.761 67.8047 59.7 67.8047H65.0922C65.7943 69.7822 67.6838 71.2031 69.9 71.2031C72.712 71.2031 75 68.9163 75 66.1055C75 63.2946 72.712 61.0078 69.9 61.0078Z" fill="white"/>
</g>
</svg>
