<?xml version="1.0" encoding="UTF-8"?>
<svg width="37px" height="24px" viewBox="0 0 37 24" version="1.1" xmlns="http://www.w3.org/2000/svg" xmlns:xlink="http://www.w3.org/1999/xlink">
    <!-- Generator: Sketch 52.4 (67378) - http://www.bohemiancoding.com/sketch -->
    <title>Group 24</title>
    <desc>Created with Sketch.</desc>
    <g id="Home" stroke="none" stroke-width="1" fill="none" fill-rule="evenodd">
        <g id="Home-" transform="translate(-701.000000, -721.000000)" fill="#FFFFFF">
            <g id="background-01" transform="translate(0.000000, 23.000000)">
                <g id="Group-24" transform="translate(701.000000, 698.000000)">
                    <path d="M13.2450082,-1.12657608 C12.9590475,-1.53154535 12.5004313,-1.53154535 12.2144705,-1.12657608 C11.9285098,-0.72160681 11.9285098,-0.0721277817 12.2144705,0.332841485 L23.8417414,16.7990448 L12.2144705,33.2652482 C11.9285098,33.6702175 11.9285098,34.3196965 12.2144705,34.7246658 C12.3547532,34.92333 12.5435951,35.030303 12.7270416,35.030303 C12.9104881,35.030303 13.0993301,34.930971 13.2396128,34.7246658 L25.3848502,17.5249332 C25.6708109,17.1276048 25.6708109,16.4704849 25.3902457,16.0731566 L13.2450082,-1.12657608 Z" id="Shape" transform="translate(18.800000, 16.800000) rotate(-270.000000) translate(-18.800000, -16.800000) "></path>
                    <path d="M13.2450082,-10.7265761 C12.9590475,-11.1315453 12.5004313,-11.1315453 12.2144705,-10.7265761 C11.9285098,-10.3216068 11.9285098,-9.67212778 12.2144705,-9.26715852 L23.8417414,7.19904483 L12.2144705,23.6652482 C11.9285098,24.0702175 11.9285098,24.7196965 12.2144705,25.1246658 C12.3547532,25.32333 12.5435951,25.430303 12.7270416,25.430303 C12.9104881,25.430303 13.0993301,25.330971 13.2396128,25.1246658 L25.3848502,7.92493316 C25.6708109,7.5276048 25.6708109,6.87048485 25.3902457,6.47315661 L13.2450082,-10.7265761 Z" id="Shape" transform="translate(18.800000, 7.200000) rotate(-270.000000) translate(-18.800000, -7.200000) "></path>
                </g>
            </g>
        </g>
    </g>
</svg>