<svg data-name="Layer 1" xmlns="http://www.w3.org/2000/svg" viewBox="0 0 18 18"><rect x=".5" y=".5" width="17" height="17" rx="1.7" fill="#212121"/><path fill="none" d="M-1.05 8.34h24.16v24.63H-1.05z"/><path d="M9 3.22a5.92 5.92 0 00-1.9 11.55c.3.05.41-.13.41-.29v-1c-1.67.35-2-.8-2-.8a1.61 1.61 0 00-.66-.87c-.55-.36 0-.36 0-.36a1.29 1.29 0 01.92.61 1.29 1.29 0 001.75.5 1.16 1.16 0 01.38-.79c-1.34-.15-2.74-.66-2.74-2.93a2.24 2.24 0 01.62-1.59 2.08 2.08 0 010-1.57s.5-.16 1.65.61a5.72 5.72 0 013 0c1.14-.77 1.64-.61 1.64-.61a2.1 2.1 0 01.06 1.57 2.24 2.24 0 01.62 1.59c0 2.27-1.4 2.77-2.74 2.92a1.41 1.41 0 01.41 1.1v1.62c0 .19.1.34.41.28A5.91 5.91 0 009 3.22z" fill="#fff"/></svg>