<svg data-name="Layer 1" xmlns="http://www.w3.org/2000/svg" viewBox="0 0 18 18"><defs><linearGradient id="a" x1="-260.86" y1="-353.31" x2="-245.11" y2="-339.67" gradientTransform="matrix(1 0 0 -1 262 -337.5)" gradientUnits="userSpaceOnUse"><stop offset="0" stop-color="#fd5"/><stop offset=".5" stop-color="#ff543e"/><stop offset="1" stop-color="#c837ab"/></linearGradient></defs><rect x=".5" y=".5" width="17" height="17" rx="1.7" fill="url(#a)"/><path d="M9 4.75c-1.74 0-3.39-.15-4 1.47A8.37 8.37 0 004.75 9 9.1 9.1 0 005 11.78c.63 1.62 2.3 1.47 4 1.47s3.38.17 4-1.47A8.06 8.06 0 0013.25 9c0-1.66.09-2.73-.72-3.54S10.62 4.75 9 4.75zm-.38.77c3.63 0 4.09-.41 3.84 5.19-.09 2-1.6 1.77-3.46 1.77-3.38 0-3.48-.1-3.48-3.48s.27-3.48 3.1-3.48zm2.65.7a.51.51 0 10.51.51.51.51 0 00-.51-.51zM9 6.82A2.18 2.18 0 1011.18 9 2.18 2.18 0 009 6.82zm0 .76a1.42 1.42 0 010 2.84 1.42 1.42 0 010-2.84z" fill="#fff"/></svg>