<svg width="12" height="15" viewBox="0 0 12 15" fill="none"
  xmlns="http://www.w3.org/2000/svg">
  <path fill-rule="evenodd" clip-rule="evenodd" d="M6.45133 10.8165C6.25703 10.6222 5.94203 10.6222 5.74773 10.8165L3.29852 13.2657L0.849298 10.8165C0.655006 10.6222 0.339996 10.6222 0.145704 10.8165C-0.0485883 11.0108 -0.0485883 11.3258 0.145704 11.5201L2.94672 14.3211C3.14101 14.5154 3.45602 14.5154 3.65031 14.3211L6.45133 11.5201C6.64562 11.3258 6.64562 11.0108 6.45133 10.8165Z" fill="#00D2FF"/>
  <line x1="3.3197" y1="13.0449" x2="3.3197" y2="4.58556" stroke="#00D2FF" stroke-linecap="round"/>
  <path fill-rule="evenodd" clip-rule="evenodd" d="M5.14572 3.65033C5.34001 3.84462 5.65502 3.84462 5.84931 3.65033L8.29853 1.20111L10.7477 3.65033C10.942 3.84462 11.2571 3.84462 11.4513 3.65033C11.6456 3.45604 11.6456 3.14103 11.4513 2.94673L8.65033 0.145719C8.45604 -0.048573 8.14103 -0.048573 7.94673 0.145719L5.14572 2.94673C4.95143 3.14103 4.95143 3.45604 5.14572 3.65033Z" fill="#00D2FF"/>
  <line x1="8.27734" y1="1.42188" x2="8.27734" y2="9.88123" stroke="#00D2FF" stroke-linecap="round"/>
</svg>
