<svg width="85" height="63" viewBox="0 0 85 63" fill="none" xmlns="http://www.w3.org/2000/svg">
  <path
    d="M83.2812 0.614807H1.71874C1.17771 0.614807 0.73999 1.05253 0.73999 1.59356V61.4061C0.73999 61.9471 1.17771 62.3848 1.71874 62.3848H83.2812C83.8223 62.3848 84.26 61.9471 84.26 61.4061V1.59356C84.26 1.05253 83.8223 0.614807 83.2812 0.614807ZM82.3025 59.1794L52.3908 31.7635L82.3025 3.8474V59.1794ZM41.8312 40.3711C42.2091 40.7272 42.7909 40.7272 43.1661 40.3711L50.9553 33.1012L80.7637 60.4273H4.2363L34.0447 33.1039L41.8312 40.3711ZM80.799 2.57231L42.5 38.3184L4.20096 2.57231H80.799ZM32.6092 31.7635L2.69749 59.1821V3.8474L32.6092 31.7635Z"
    fill="#D7DEE8" />
</svg>