<svg width="32" height="22" viewBox="0 0 32 22" fill="none" xmlns="http://www.w3.org/2000/svg">
  <g clip-path="url(#clip0_1_901)">
    <path fill-rule="evenodd" clip-rule="evenodd"
      d="M0 2C0 1.17157 0.671573 0.5 1.5 0.5H30.5C31.3284 0.5 32 1.17157 32 2V20C32 20.8284 31.3284 21.5 30.5 21.5H1.5C0.671573 21.5 0 20.8284 0 20V2Z"
      fill="#F4F6F7" />
    <path fill-rule="evenodd" clip-rule="evenodd"
      d="M12.5 16.5C15.5376 16.5 18 14.0376 18 11C18 7.96243 15.5376 5.5 12.5 5.5C9.46243 5.5 7 7.96243 7 11C7 14.0376 9.46243 16.5 12.5 16.5Z"
      fill="#D8232A" />
    <path fill-rule="evenodd" clip-rule="evenodd"
      d="M16 15.2428C16.9509 16.0282 18.1704 16.5 19.5 16.5C22.5376 16.5 25 14.0376 25 11C25 7.96243 22.5376 5.5 19.5 5.5C18.1704 5.5 16.9509 5.97182 16 6.75716C17.2215 7.76595 18 9.29206 18 11C18 12.7079 17.2215 14.234 16 15.2428Z"
      fill="#ED9F2D" />
    <path fill-rule="evenodd" clip-rule="evenodd"
      d="M16 6.75714C14.7785 7.76593 14 9.29204 14 11C14 12.7079 14.7785 14.234 16 15.2428C17.2215 14.234 18 12.7079 18 11C18 9.29204 17.2215 7.76593 16 6.75714Z"
      fill="#D8232A" />
    <mask id="mask0_1_901" style="mask-type:alpha" maskUnits="userSpaceOnUse" x="14" y="6" width="4" height="10">
      <path fill-rule="evenodd" clip-rule="evenodd"
        d="M16 6.75714C14.7785 7.76593 14 9.29204 14 11C14 12.7079 14.7785 14.234 16 15.2428C17.2215 14.234 18 12.7079 18 11C18 9.29204 17.2215 7.76593 16 6.75714Z"
        fill="white" />
    </mask>
    <g mask="url(#mask0_1_901)">
      <path fill-rule="evenodd" clip-rule="evenodd"
        d="M13 7.5H19V8.5H13V7.5ZM13 9.5H19V10.5H13V9.5ZM19 11.5H13V12.5H19V11.5ZM13 13.5H19V14.5H13V13.5ZM19 15.5H13V16.5H19V15.5Z"
        fill="#ED9F2D" />
    </g>
    <path fill-rule="evenodd" clip-rule="evenodd"
      d="M0 2C0 1.17157 0.671573 0.5 1.5 0.5H30.5C31.3284 0.5 32 1.17157 32 2V20C32 20.8284 31.3284 21.5 30.5 21.5H1.5C0.671573 21.5 0 20.8284 0 20V2Z"
      fill="#E5E5E5" fill-opacity="0.01" />
  </g>
  <defs>
    <clipPath id="clip0_1_901">
      <rect width="32" height="21" fill="white" transform="translate(0 0.5)" />
    </clipPath>
  </defs>
</svg>