<svg width="17" height="16" viewBox="0 0 17 16" fill="none" xmlns="http://www.w3.org/2000/svg">
<path d="M11.5461 7.99996C11.5461 7.16187 10.8603 6.47616 10.0223 6.47616C9.18416 6.47616 8.49844 7.16187 8.49844 7.99996C8.49844 8.83806 9.18416 9.52377 10.0223 9.52377C10.8603 9.52377 11.5461 8.83806 11.5461 7.99996ZM10.0223 1.14282C6.23559 1.14282 3.16511 4.2133 3.16511 7.99996H0.879395L3.92701 11.0476L6.97463 7.99996H4.68892C4.68892 5.05139 7.07368 2.66663 10.0223 2.66663C12.9708 2.66663 15.3556 5.05139 15.3556 7.99996C15.3556 10.9485 12.9708 13.3333 10.0223 13.3333C8.87178 13.3333 7.80511 12.96 6.92892 12.3428L5.84701 13.44C7.00511 14.3238 8.45273 14.8571 10.0223 14.8571C13.8089 14.8571 16.8794 11.7866 16.8794 7.99996C16.8794 4.2133 13.8089 1.14282 10.0223 1.14282Z" fill="#83D9F2"/>
</svg>
