<svg width="15" height="15" viewBox="0 0 15 15" fill="none" xmlns="http://www.w3.org/2000/svg">
<path d="M10.2921 9.46133H9.68278L9.46681 9.25308C10.2227 8.3738 10.6778 7.23228 10.6778 5.99049C10.6778 3.22153 8.43327 0.977051 5.66432 0.977051C2.89536 0.977051 0.650879 3.22153 0.650879 5.99049C0.650879 8.75945 2.89536 11.0039 5.66432 11.0039C6.9061 11.0039 8.04763 10.5489 8.9269 9.79299L9.13516 10.0089V10.6183L12.9916 14.4671L14.1409 13.3178L10.2921 9.46133V9.46133ZM5.66432 9.46133C3.74378 9.46133 2.19347 7.91102 2.19347 5.99049C2.19347 4.06996 3.74378 2.51965 5.66432 2.51965C7.58485 2.51965 9.13516 4.06996 9.13516 5.99049C9.13516 7.91102 7.58485 9.46133 5.66432 9.46133Z" fill="#9EA5B4"/>
</svg>
