<svg width="20" height="21" viewBox="0 0 20 21" fill="none" xmlns="http://www.w3.org/2000/svg">
  <circle cx="10" cy="10.5" r="8" fill="#F89D28" />
  <circle cx="10" cy="10.5" r="10" fill="#F89D28" />
  <path
    d="M8.75 12.0356V4.3452C8.75 3.63732 9.30964 3.06348 10 3.06348C10.6904 3.06348 11.25 3.63732 11.25 4.3452V12.0356C11.25 12.7434 10.6904 13.3173 10 13.3173C9.30964 13.3173 8.75 12.7434 8.75 12.0356Z"
    fill="white" />
  <path
    d="M10 15.8807C10.6904 15.8807 11.25 16.4546 11.25 17.1625C11.25 17.8703 10.6904 18.4442 10 18.4442C9.30964 18.4442 8.75 17.8703 8.75 17.1625C8.75 16.4546 9.30964 15.8807 10 15.8807Z"
    fill="white" />
</svg>