<svg width="21" height="21" viewBox="0 0 21 21" fill="none" xmlns="http://www.w3.org/2000/svg">
<path d="M1.07746 14.1843H5.07746C5.47746 14.1843 5.74413 14.451 5.74413 14.851V18.7177H7.74413V12.5843C7.74413 12.1843 8.0108 11.9177 8.4108 11.9177H12.4108C12.8108 11.9177 13.0775 12.1843 13.0775 12.5843V18.7177H15.2108V6.25099C15.2108 5.85099 15.4775 5.58432 15.8775 5.58432H19.8775C20.2775 5.58432 20.5441 5.85099 20.5441 6.25099V19.3843C20.5441 19.7843 20.2775 20.051 19.8775 20.051H15.8775H12.4775H8.47746H5.14413H1.14413C0.744129 20.051 0.477463 19.7843 0.477463 19.3843V14.851C0.410795 14.451 0.744129 14.1843 1.07746 14.1843ZM19.2108 18.7177V6.91765H16.5441V18.7177H19.2108ZM11.7441 18.7177V13.251H9.07746V18.7177H11.7441ZM4.4108 18.7177V15.5177H1.74413V18.7177H4.4108Z" fill="white"/>
<path d="M18.0108 3.98433C17.8775 4.05099 17.8108 4.05099 17.6775 4.05099C17.4108 4.05099 17.2108 3.91766 17.0775 3.651L16.4108 2.31766C12.0775 11.9843 4.01079 12.7177 1.67745 12.7177C1.27745 12.7177 1.01079 12.7177 1.01079 12.7177C0.677454 12.651 0.410788 12.3177 0.410788 11.9843C0.477455 11.5843 0.810787 11.3177 1.14412 11.3843C1.21079 11.3843 10.4108 12.251 15.1441 1.85099L13.5441 2.38433C13.4775 2.38433 13.4108 2.45099 13.3441 2.45099C13.0775 2.45099 12.8108 2.25099 12.7441 1.98433C12.6108 1.651 12.8108 1.25099 13.1441 1.11766L16.1441 0.117662H16.2108C16.2775 0.0509949 16.3441 0.0509949 16.3441 0.0509949C16.4108 0.0509949 16.4775 0.0509949 16.5441 0.0509949H16.6108C16.6775 0.0509949 16.6775 0.117662 16.7441 0.117662C16.7441 0.117662 16.8108 0.117662 16.8108 0.184328L16.8775 0.250995L16.9441 0.317662L18.2775 2.98433C18.4775 3.45099 18.2775 3.851 18.0108 3.98433Z" fill="white"/>
</svg>
