<svg height="100" width="100" xmlns="http://www.w3.org/2000/svg"><g fill="#fff"><path d="M86.183 46.923V33.71l-.001-.004c0-.117-.009-.233-.024-.349l-.011-.064a2.677 2.677 0 00-.062-.293l-.015-.051a2.374 2.374 0 00-.117-.317c-.009-.022-.02-.042-.031-.064-.023-.051-.046-.103-.074-.153-.016-.028-.034-.053-.052-.081a2.838 2.838 0 00-.226-.323l-.021-.026a2.846 2.846 0 00-.292-.291 2.354 2.354 0 00-.222-.173l-.058-.04a2.41 2.41 0 00-.288-.165c-.009-.004-.015-.01-.022-.013l-17.645-8.475c-1.035 1.509-2.352 2.876-3.888 4.061l14.56 6.993L52.02 48.118c1.176-8.104.342-15.626-.372-19.852 8.307-2.309 15.473-9.09 16.358-17.743-11.524-.822-15.164 1.573-18.078 12.38C49.928 1.29 29.9.235 29.9.235c-4.197 14.569 2.963 23.786 14.307 27.782 0 0 .858.21 2.031.373.715 3.945 1.807 12.406.131 21.087L18.243 33.88l15.205-7.303c-1.493-1.211-2.757-2.604-3.742-4.13L11.27 31.301c-.006.002-.011.007-.018.01-.102.05-.201.107-.297.169l-.047.033c-.08.057-.157.117-.231.182l-.051.044a2.618 2.618 0 00-.237.245l-.02.026a2.618 2.618 0 00-.228.324c-.017.027-.035.052-.05.08-.026.049-.049.1-.073.149l-.034.07a2.682 2.682 0 00-.115.313l-.015.057c-.026.095-.046.19-.062.285l-.01.071c-.015.114-.024.23-.024.345v43.915c0 .972.527 1.865 1.375 2.337l35.542 19.709.006.003c.092.052.188.097.288.137l.055.021a3.572 3.572 0 00.323.099c.076.019.154.033.233.045l.079.012c.103.012.205.02.311.02.106 0 .209-.008.311-.02l.079-.012a2.545 2.545 0 00.557-.144l.055-.021c.1-.04.196-.085.289-.137l.006-.003 35.542-19.709a2.673 2.673 0 001.376-2.337V46.945c-.002-.007-.002-.014-.002-.022zm-71.084-8.677l30.199 16.747v7.138L15.099 45.384v-7.138zm35.542 16.746l30.198-16.747v7.138L50.641 62.13v-7.138zm-35.542-3.5L45.298 68.24v24.553L15.099 76.047V51.492zm35.542 41.301V68.24l30.198-16.748v24.555L50.641 92.793z"/><path d="M45.4 40.574c-2.667-10.629-12.136-8.123-12.136-8.123s.001 8.752 12.136 8.123z"/></g></svg>