<svg xmlns="http://www.w3.org/2000/svg"  viewBox="0 0 512 512" fill-rule="evenodd" clip-rule="evenodd" stroke-linecap="round" stroke-linejoin="round"><path d="M71.935 180.528h81.458V98.763H71.935v81.765zm21.573-60.111h38.315v38.459H93.508v-38.459zm85.772-21.654v81.765h260.785V98.763H179.28zm239.212 60.113H200.853v-38.459h217.639v38.459zM71.935 286.625h81.458V204.86H71.935v81.765zm21.573-60.114h38.315v38.46H93.508v-38.46zm85.772 60.114h260.785V204.86H179.28v81.765zm21.573-60.114h217.639v38.46H200.853v-38.46zM71.935 392.722h81.458v-81.768H71.935v81.768zm21.573-60.114h38.315v38.46H93.508v-38.46zm85.772 60.114h260.785v-81.768H179.28v81.768zm21.573-60.114h217.639v38.46H200.853v-38.46z" fill="#fff"/></svg>