<?xml version="1.0" standalone="no"?>
<!DOCTYPE svg PUBLIC "-//W3C//DTD SVG 20010904//EN"
 "http://www.w3.org/TR/2001/REC-SVG-20010904/DTD/svg10.dtd">
<svg version="1.0" xmlns="http://www.w3.org/2000/svg"
 width="48.000000pt" height="48.000000pt" viewBox="0 0 48.000000 48.000000"
 preserveAspectRatio="xMidYMid meet">

<g transform="translate(0.000000,48.000000) scale(0.100000,-0.100000)"
fill="#000000" stroke="none">
<path d="M40 240 l0 -150 72 0 c64 0 75 -3 100 -27 l28 -27 28 27 c25 24 36
27 100 27 l72 0 0 150 0 150 -200 0 -200 0 0 -150z m360 0 l0 -120 -57 0 c-44
0 -62 -5 -80 -22 l-23 -21 -23 21 c-18 17 -36 22 -80 22 l-57 0 0 120 0 120
160 0 160 0 0 -120z"/>
<path d="M208 303 c-19 -33 -9 -68 21 -78 30 -9 26 -27 -4 -19 -28 7 -33 -9
-11 -38 19 -26 39 -22 58 10 19 32 9 67 -21 77 -30 9 -26 27 4 19 28 -7 33 9
11 39 -19 25 -39 21 -58 -10z"/>
</g>
</svg>
