<svg width="19" height="24" viewBox="0 0 19 24" fill="none" xmlns="http://www.w3.org/2000/svg">
<path d="M16.214 4.20968V2.35484H14.3592V0.5H0.26239V19.7903H2.11723V21.6452H3.97207V23.5H14.8822L18.0688 20.3134V4.20968H16.214ZM1.00433 19.0484V1.24194H13.6172V2.35484H2.11723V19.0484H1.00433ZM2.85916 20.9032V3.09677H15.4721V4.20968H3.97207V20.9032H2.85916ZM4.714 21.6452V4.95161H17.3269V19.7903H14.3592V22.7581H4.714V21.6452ZM16.8038 20.5323L15.1011 22.235V20.5323H16.8038ZM15.1011 7.54839H6.93981V6.80645H15.1011V7.54839ZM15.1011 9.40323H6.93981V8.66129H15.1011V9.40323ZM15.1011 11.2581H6.93981V10.5161H15.1011V11.2581ZM9.53658 13.1129H6.93981V12.371H9.53658V13.1129ZM12.1334 15.3387V13.8548H8.79465V16.8226H6.93981V20.5323H13.9882V15.3387H12.1334ZM8.79465 19.7903H7.68175V17.5645H8.79465V19.7903ZM11.3914 19.7903H9.53658V14.5968H11.3914V19.7903ZM13.2463 19.7903H12.1334V16.0806H13.2463V19.7903Z" fill="white"/>
</svg>
