<svg width="12" height="15" viewBox="0 0 12 15" fill="none" xmlns="http://www.w3.org/2000/svg">
<path fill-rule="evenodd" clip-rule="evenodd" d="M11.2235 8.79605C11.2235 11.7817 8.83318 14.2105 5.89479 14.2105C2.95639 14.2105 0.565557 11.7817 0.566031 8.79605C0.566031 5.99536 4.93988 0.832021 5.43848 0.252468L5.4979 0.182922C5.70751 -0.0609738 6.08111 -0.0609738 6.2912 0.182922L6.35109 0.252468C6.84969 0.832021 11.2235 5.99536 11.2235 8.79605ZM6.16667 1.9467C6.02645 1.7709 5.76265 1.7709 5.62243 1.9467C4.50245 3.35178 2.90943 5.5485 2.17608 7.26657C2.40057 7.08309 2.68913 6.94267 3.08286 6.87473C4.41608 6.64467 5.82644 7.2894 7.15483 9.08399C7.39516 9.33698 7.69731 9.60267 8.01818 9.81503C8.35966 10.041 8.67467 10.175 8.92899 10.2096C9.15448 10.2402 9.31271 10.1945 9.45581 10.0621C9.62809 9.90256 9.85612 9.54257 10.0093 8.77704C10.0098 8.77456 10.0103 8.77208 10.0108 8.76961C9.98642 7.08996 7.65747 3.817 6.16667 1.9467Z" fill="white"/>
</svg>
